<?xml version="1.0" encoding="utf-8"?>
<!-- Generator: Adobe Illustrator 24.1.2, SVG Export Plug-In . SVG Version: 6.00 Build 0)  -->
<svg version="1.1" id="Layer_1" xmlns="http://www.w3.org/2000/svg" xmlns:xlink="http://www.w3.org/1999/xlink" x="0px" y="0px"
	 viewBox="0 0 100 100" style="enable-background:new 0 0 100 100;" xml:space="preserve">
<style type="text/css">
	.st0{fill:#3EB1C8;}
	.st1{fill:#FFFFFF;}
</style>
<g>
	<g>
		<path class="st0" d="M50,100c27.62,0,50-22.38,50-50S77.62,0,50,0S0,22.38,0,50S22.38,100,50,100"/>
	</g>
	<polygon class="st1" points="78.75,38.9 69.33,38.9 77.16,46.73 60.81,46.73 60.81,53.28 77.16,53.28 69.33,61.11 78.75,61.11 
		89.85,50.01 	"/>
	<polygon class="st1" points="38.91,21.25 38.91,30.68 46.73,22.84 46.73,39.2 53.28,39.2 53.28,22.84 61.11,30.68 61.11,21.25 
		50.01,10.15 	"/>
	<polygon class="st1" points="21.25,61.11 30.67,61.11 22.84,53.28 39.19,53.28 39.19,46.73 22.84,46.73 30.67,38.9 21.25,38.9 
		10.14,50.01 	"/>
	<polygon class="st1" points="61.11,78.75 61.11,69.33 53.28,77.16 53.28,60.81 46.73,60.81 46.73,77.16 38.91,69.33 38.91,78.75 
		50.01,89.85 	"/>
	<rect x="54.92" y="46.73" class="st1" width="3.27" height="6.55"/>
	<rect x="41.83" y="46.73" class="st1" width="3.27" height="6.55"/>
	<rect x="46.74" y="54.9" class="st1" width="6.54" height="3.27"/>
	<rect x="46.74" y="41.8" class="st1" width="6.54" height="3.27"/>
</g>
</svg>
