<?xml version="1.0" encoding="utf-8"?>
<!-- Generator: Adobe Illustrator 24.1.2, SVG Export Plug-In . SVG Version: 6.00 Build 0)  -->
<svg version="1.1" id="Layer_1" xmlns="http://www.w3.org/2000/svg" xmlns:xlink="http://www.w3.org/1999/xlink" x="0px" y="0px"
	 viewBox="0 0 100 100" style="enable-background:new 0 0 100 100;" xml:space="preserve">
<style type="text/css">
	.st0{fill:#008595;}
	.st1{fill:#FFFFFF;}
</style>
<g>
	<path class="st0" d="M50,100c27.62,0,50-22.38,50-50S77.62,0,50,0S0,22.38,0,50S22.38,100,50,100"/>
	<path class="st1" d="M45.65,42.26c-7.07-7.51-14.07-14.93-21.07-22.37c2.73-2.46,4.67-2.79,7.63-1.08
		c8.25,4.78,16.49,9.58,24.66,14.48c1.31,0.78,2.2,0.73,3.43-0.01c5.1-3.09,10.45-5.67,16.3-7c1.85-0.42,3.85-0.53,5.73-0.34
		c2.13,0.21,2.89,1.35,1.86,3.17c-1.41,2.5-3.08,5.07-5.24,6.88c-3.82,3.2-8.04,5.94-12.2,8.7c-1.23,0.82-1.65,1.6-1.62,3.04
		c0.15,9.47,0.21,18.93,0.28,28.39c0.03,3.25-1.29,4.95-4.81,6.12c-2.92-9.73-5.84-19.46-8.85-29.48c-2.06,0.89-3.94,1.71-5.81,2.52
		c-3.68,1.58-7.38,3.1-11.02,4.75c-0.49,0.23-0.94,1.02-1.03,1.62c-0.43,2.7-0.67,5.42-1.07,8.13c-0.38,2.55-2.05,3.92-4.74,4.72
		c-0.56-2.3-1.36-4.49-1.6-6.75c-0.52-4.73-2.66-8.34-6.49-11.11c-1.44-1.05-2.58-2.49-3.93-3.66c-1.08-0.93-0.83-1.73,0.27-2.09
		c1.46-0.47,3.13-1.09,4.52-0.77c2.44,0.55,4.78,1.67,7.07,2.74c1.55,0.72,2.6,0.94,4.19-0.34c4.14-3.36,8.56-6.37,12.87-9.52
		C45.12,42.89,45.23,42.72,45.65,42.26"/>
</g>
</svg>
