<?xml version="1.0" encoding="utf-8"?>
<!-- Generator: Adobe Illustrator 24.1.2, SVG Export Plug-In . SVG Version: 6.00 Build 0)  -->
<svg version="1.1" id="Layer_1" xmlns="http://www.w3.org/2000/svg" xmlns:xlink="http://www.w3.org/1999/xlink" x="0px" y="0px"
	 viewBox="0 0 100 100" style="enable-background:new 0 0 100 100;" xml:space="preserve">
<style type="text/css">
	.st0{fill:#908070;}
	.st1{fill:#FFFFFF;}
</style>
<g>
	<path class="st0" d="M100,50C100,77.62,77.62,100,50,100C22.39,100,0,77.62,0,50S22.39,0,50,0C77.62,0,100,22.39,100,50"/>
	<path class="st1" d="M87.13,38.55H75.39v17.93c0.6-0.12,1.22-0.18,1.85-0.18c3.72,0,6.92,2.22,8.37,5.41h1.53
		c1.71,0,3.12-1.41,3.12-3.12V41.66C90.25,39.95,88.85,38.55,87.13,38.55 M87.77,48.36c0,0.85-0.7,1.56-1.56,1.56h-8.34v-8.9h8.34
		c0.86,0,1.56,0.7,1.56,1.56V48.36z"/>
	<path class="st1" d="M32.21,58.83c-3.68,0-6.67,2.98-6.67,6.66c0,3.69,2.99,6.67,6.67,6.67s6.67-2.98,6.67-6.67
		C38.88,61.81,35.89,58.83,32.21,58.83 M32.21,67.69c-1.22,0-2.2-0.99-2.2-2.2c0-1.22,0.99-2.2,2.2-2.2c1.21,0,2.2,0.99,2.2,2.2
		C34.41,66.7,33.42,67.69,32.21,67.69"/>
	<path class="st1" d="M77.23,58.83c-3.68,0-6.67,2.98-6.67,6.66c0,3.69,2.99,6.67,6.67,6.67c3.68,0,6.66-2.98,6.66-6.67
		C83.9,61.81,80.91,58.83,77.23,58.83 M77.23,67.69c-1.22,0-2.2-0.99-2.2-2.2c0-1.22,0.98-2.2,2.2-2.2c1.22,0,2.2,0.99,2.2,2.2
		C79.43,66.7,78.45,67.69,77.23,67.69"/>
	<path class="st1" d="M46.3,49.8c0,0.54-0.44,0.98-0.97,0.98c-0.54,0-0.98-0.44-0.98-0.98v-9.61c0-0.54,0.44-0.98,0.98-0.98
		c0.54,0,0.97,0.44,0.97,0.98V49.8z M39.7,49.8c0,0.54-0.44,0.98-0.98,0.98c-0.54,0-0.98-0.44-0.98-0.98v-9.61
		c0-0.54,0.44-0.98,0.98-0.98c0.54,0,0.98,0.44,0.98,0.98V49.8z M33.43,49.8c0,0.54-0.44,0.98-0.98,0.98
		c-0.54,0-0.97-0.44-0.97-0.98v-9.61c0-0.54,0.44-0.98,0.97-0.98c0.54,0,0.98,0.44,0.98,0.98V49.8z M70.49,31.15H15.53
		c-1.72,0-3.12,1.4-3.12,3.12v24.79c0,1.72,1.4,3.12,3.12,3.12h8.1c1.33-3.44,4.67-5.89,8.57-5.89s7.24,2.45,8.57,5.89h27.88
		c0.89-2.3,2.68-4.17,4.94-5.14V34.27C73.61,32.55,72.2,31.15,70.49,31.15"/>
	<path class="st1" d="M84.21,51.49c-0.16,0-0.33-0.05-0.46-0.16c-0.32-0.26-0.37-0.72-0.11-1.05l1.97-2.43
		c0.25-0.32,0.72-0.37,1.04-0.11c0.32,0.26,0.37,0.72,0.11,1.04l-1.97,2.43C84.64,51.4,84.43,51.49,84.21,51.49"/>
</g>
</svg>
