<?xml version="1.0" encoding="utf-8"?>
<!-- Generator: Adobe Illustrator 24.1.2, SVG Export Plug-In . SVG Version: 6.00 Build 0)  -->
<svg version="1.1" id="Layer_1" xmlns="http://www.w3.org/2000/svg" xmlns:xlink="http://www.w3.org/1999/xlink" x="0px" y="0px"
	 viewBox="0 0 100 100" style="enable-background:new 0 0 100 100;" xml:space="preserve">
<style type="text/css">
	.st0{fill:#8AB5E1;}
	.st1{fill:#FFFFFF;}
</style>
<g>
	<path class="st0" d="M50,100c27.62,0,50-22.38,50-50S77.62,0,50,0S0,22.38,0,50S22.38,100,50,100"/>
	<path class="st1" d="M55.23,19.22c0,2.89-2.34,5.23-5.23,5.23s-5.23-2.34-5.23-5.23c0-2.89,2.34-5.23,5.23-5.23
		S55.23,16.34,55.23,19.22"/>
	<path class="st1" d="M55.23,50c0,2.89-2.34,5.23-5.23,5.23s-5.23-2.34-5.23-5.23c0-2.89,2.34-5.23,5.23-5.23S55.23,47.11,55.23,50"
		/>
	<path class="st1" d="M25.96,30.09c2.5,1.44,3.36,4.64,1.91,7.14c-1.44,2.5-4.64,3.36-7.14,1.92c-2.5-1.45-3.36-4.64-1.91-7.14
		C20.26,29.5,23.46,28.64,25.96,30.09"/>
	<path class="st1" d="M20.73,60.86c2.5-1.44,5.7-0.59,7.14,1.91c1.45,2.5,0.59,5.7-1.91,7.14c-2.5,1.44-5.7,0.58-7.14-1.92
		C17.37,65.5,18.23,62.3,20.73,60.86"/>
	<path class="st1" d="M44.77,80.78c0-2.89,2.34-5.23,5.23-5.23c2.89,0,5.23,2.34,5.23,5.23s-2.34,5.23-5.23,5.23
		C47.11,86.01,44.77,83.67,44.77,80.78"/>
	<path class="st1" d="M74.04,69.92c-2.5-1.44-3.36-4.64-1.91-7.14c1.44-2.5,4.64-3.36,7.14-1.92c2.5,1.45,3.36,4.64,1.91,7.14
		C79.74,70.5,76.54,71.36,74.04,69.92"/>
	<path class="st1" d="M79.27,39.14c-2.5,1.44-5.7,0.59-7.14-1.91c-1.45-2.5-0.59-5.7,1.91-7.14c2.5-1.44,5.7-0.58,7.14,1.92
		C82.62,34.5,81.77,37.7,79.27,39.14"/>
</g>
<rect x="27.27" y="24.58" transform="matrix(0.8595 -0.5112 0.5112 0.8595 -8.0609 21.935)" class="st1" width="17.19" height="2.09"/>
<rect x="48.95" y="26.6" class="st1" width="2.09" height="16.03"/>
<rect x="55.37" y="41.48" transform="matrix(0.8829 -0.4696 0.4696 0.8829 -12.5057 34.9104)" class="st1" width="16.74" height="2.09"/>
<polygon class="st1" points="77.61,41.32 77.74,58.74 79.84,58.72 79.69,41.3 "/>
<polygon class="st1" points="70.36,62.72 55.8,55.05 56.77,53.21 71.34,60.87 "/>
<rect x="55.37" y="73.64" transform="matrix(0.8555 -0.5178 0.5178 0.8555 -29.4085 43.9952)" class="st1" width="17.51" height="2.09"/>
<rect x="20.74" y="41.03" transform="matrix(1 -7.668918e-03 7.668918e-03 1 -0.3816 0.1685)" class="st1" width="2.09" height="17.63"/>
<rect x="34.4" y="65.86" transform="matrix(0.4632 -0.8863 0.8863 0.4632 -47.012 71.4152)" class="st1" width="2.09" height="17.3"/>
<rect x="63.36" y="17.52" transform="matrix(0.5221 -0.8529 0.8529 0.5221 8.8328 67.2289)" class="st1" width="2.09" height="16.42"/>
<rect x="30.84" y="65.22" class="st1" width="37.84" height="2.09"/>
<rect x="16.76" y="41.41" transform="matrix(0.4916 -0.8708 0.8708 0.4916 -18.5456 53.1507)" class="st1" width="38.97" height="2.09"/>
<rect x="59.73" y="26.53" transform="matrix(3.386445e-03 -1 1 3.386445e-03 25.353 95.8688)" class="st1" width="2.09" height="17.37"/>
<polygon class="st1" points="42.18,36.19 47.91,36.22 47.91,34.12 43.37,34.11 "/>
<polygon class="st1" points="30.36,36.15 37.4,36.18 38.57,34.09 30.36,34.06 "/>
<polygon class="st1" points="29.12,39.14 34.03,42.13 35.06,40.31 30.21,37.35 "/>
<polygon class="st1" points="37.6,44.31 42.71,47.43 43.79,45.65 38.63,42.49 "/>
<polygon class="st1" points="26.1,41.05 30.36,48.64 31.56,46.51 27.93,40.03 "/>
<polygon class="st1" points="41.46,64.17 33.95,50.78 32.75,52.91 39.06,64.17 "/>
<polygon class="st1" points="41.4,68.35 45.13,74.99 46.95,73.97 43.8,68.35 "/>
<polygon class="st1" points="53.16,68.35 49.15,74.01 50.85,75.22 55.72,68.35 "/>
<polygon class="st1" points="64.43,56.06 74.7,41.56 72.99,40.36 62.57,55.07 "/>
<polygon class="st1" points="56.12,64.17 58.69,64.17 61.99,59.5 60.12,58.51 "/>
</svg>
