<?xml version="1.0" encoding="utf-8"?>
<!-- Generator: Adobe Illustrator 24.1.2, SVG Export Plug-In . SVG Version: 6.00 Build 0)  -->
<svg version="1.1" id="Layer_1" xmlns="http://www.w3.org/2000/svg" xmlns:xlink="http://www.w3.org/1999/xlink" x="0px" y="0px"
	 viewBox="0 0 100 100" style="enable-background:new 0 0 100 100;" xml:space="preserve">
<style type="text/css">
	.st0{fill:#003F65;}
	.st1{fill:#FFFFFF;}
</style>
<g>
	<g>
		<path class="st0" d="M100,50C100,78.95,78.94,100,49.99,100C22.39,100,0,77.62,0,50S22.39,0,49.99,0C78.94,0,100,23.72,100,50"/>
		<path class="st1" d="M50,47.88c-0.73,0-1.33-0.58-1.33-1.3c0-0.72,0.6-1.3,1.33-1.3c0.73,0,1.33,0.58,1.33,1.3
			S50.73,47.88,50,47.88 M73.81,57.16l-8.15,6.73l3.31,1.26l-1.44,1.88c-1.81,2.37-4.43,3.83-6.81,5.31
			c-2.02,1.27-4.17,2.17-6.4,2.69l-2.16,0.49l0.03-24.64h5.89c1.1,0,2-0.9,2-2c0-1.11-0.9-2-2-2h-5.9v-5.97
			c5.06-1.01,8.87-5.47,8.87-10.81c0-6.08-4.94-11.03-11.03-11.03C43.95,19.07,39,24.02,39,30.1c0,5.32,3.78,9.78,8.81,10.81
			l0.01,5.98h-5.74c-1.11,0-2,0.89-2,2c0,1.1,0.89,2,2,2h5.73l0.02,24.64l-2.16-0.49c-2.22-0.52-4.37-1.42-6.4-2.69
			c-2.38-1.49-4.51-3.45-6.32-5.81l-1.44-1.88l3.31-1.26l-8.15-6.63l-1.66,10.4l2.74-1.08l0.78,1.18
			c5.12,7.76,12.95,12.24,21.46,12.31c8.53-0.08,16.85-4.06,21.97-11.81l0.78-1.17l2.75,1.03L73.81,57.16z"/>
	</g>
</g>
</svg>
