<?xml version="1.0" encoding="utf-8"?>
<!-- Generator: Adobe Illustrator 24.1.2, SVG Export Plug-In . SVG Version: 6.00 Build 0)  -->
<svg version="1.1" id="Layer_1" xmlns="http://www.w3.org/2000/svg" xmlns:xlink="http://www.w3.org/1999/xlink" x="0px" y="0px"
	 viewBox="0 0 100 100" style="enable-background:new 0 0 100 100;" xml:space="preserve">
<style type="text/css">
	.st0{fill:#F2CD00;}
	.st1{fill:#FFFFFF;}
</style>
<g>
	<path class="st0" d="M100,50C100,77.62,77.61,100,50,100C22.39,100,0,77.62,0,50S22.39,0,50,0C77.61,0,100,22.39,100,50"/>
	<path class="st1" d="M62.45,41.3c1.03-1.03,1.03-2.71-0.01-3.74c-1.03-1.03-2.7-1.03-3.73,0l-3.11,3.1l-4.05,4.05l-6.84,6.84
		l-4.05,4.05l-3.76,3.76c-1.03,1.03-1.03,2.7,0,3.74c1.03,1.03,2.71,1.03,3.74,0l3.77-3.76l4.05-4.05l6.84-6.84l4.04-4.04
		L62.45,41.3z"/>
	<path class="st1" d="M43.1,63.77L32.49,74.38c-1.89,1.89-4.97,1.89-6.86,0c-1.89-1.89-1.89-4.97,0-6.87l10.6-10.6
		c0.6-0.6,1.32-0.99,2.09-1.21l4.86-4.87c-3.6-1.33-7.8-0.56-10.69,2.33L21.89,63.77c-3.95,3.96-3.95,10.39,0,14.35
		c3.96,3.96,10.4,3.96,14.35,0l10.61-10.61c2.89-2.89,3.66-7.09,2.33-10.69l-4.86,4.86C44.09,62.45,43.7,63.17,43.1,63.77"/>
	<path class="st1" d="M63.77,21.88L53.17,32.49c-2.89,2.89-3.66,7.08-2.33,10.69l4.86-4.87c0.22-0.76,0.61-1.48,1.21-2.08
		l10.61-10.61c1.89-1.89,4.97-1.89,6.87,0c1.89,1.89,1.89,4.97,0,6.87L63.77,43.1c-0.6,0.6-1.33,0.99-2.08,1.21l-4.87,4.86
		c3.6,1.33,7.8,0.55,10.69-2.33l10.61-10.61c3.96-3.96,3.96-10.39,0-14.35C74.16,17.93,67.73,17.93,63.77,21.88"/>
</g>
</svg>
