<?xml version="1.0" encoding="utf-8"?>
<!-- Generator: Adobe Illustrator 24.1.2, SVG Export Plug-In . SVG Version: 6.00 Build 0)  -->
<svg version="1.1" id="Layer_1" xmlns="http://www.w3.org/2000/svg" xmlns:xlink="http://www.w3.org/1999/xlink" x="0px" y="0px"
	 viewBox="0 0 100 100" style="enable-background:new 0 0 100 100;" xml:space="preserve">
<style type="text/css">
	.st0{fill:#BE3A34;}
	.st1{fill:#FFFFFF;}
</style>
<g>
	<g>
		<path class="st0" d="M100,50c0,27.62-22.38,50-50,50C22.39,100,0,77.62,0,50S22.39,0,50,0C77.62,0,100,22.38,100,50"/>
	</g>
	<polygon class="st1" points="50.19,31.21 44.06,34.43 45.23,27.6 40.27,22.77 47.12,21.77 50.19,15.56 53.25,21.77 60.11,22.77 
		55.15,27.6 56.32,34.43 	"/>
	<polygon class="st1" points="25.17,48.78 19.04,52.01 20.21,45.18 15.25,40.34 22.11,39.35 25.17,33.14 28.24,39.35 35.09,40.34 
		30.14,45.18 31.31,52.01 	"/>
	<polygon class="st1" points="35.17,75.18 29.04,78.4 30.21,71.58 25.26,66.74 32.11,65.74 35.17,59.53 38.24,65.74 45.09,66.74 
		40.14,71.58 41.31,78.4 	"/>
	<polygon class="st1" points="74.82,48.6 68.69,51.83 69.87,45 64.91,40.16 71.76,39.17 74.82,32.96 77.89,39.17 84.75,40.16 
		79.79,45 80.96,51.83 	"/>
	<polygon class="st1" points="64.58,75.95 58.45,79.17 59.62,72.34 54.66,67.5 61.51,66.51 64.58,60.3 67.65,66.51 74.5,67.5 
		69.54,72.34 70.71,79.17 	"/>
</g>
</svg>
