<?xml version="1.0" encoding="utf-8"?>
<!-- Generator: Adobe Illustrator 24.1.2, SVG Export Plug-In . SVG Version: 6.00 Build 0)  -->
<svg version="1.1" id="Layer_1" xmlns="http://www.w3.org/2000/svg" xmlns:xlink="http://www.w3.org/1999/xlink" x="0px" y="0px"
	 viewBox="0 0 100 100" style="enable-background:new 0 0 100 100;" xml:space="preserve">
<style type="text/css">
	.st0{fill:#007749;}
	.st1{fill:#FFFFFF;}
</style>
<g>
	<path class="st0" d="M100,50C100,77.62,77.62,100,50,100C22.39,100,0,77.62,0,50S22.39,0,50,0C77.62,0,100,22.39,100,50"/>
	<path class="st1" d="M69.46,45.59c0,5.99-5.99,5.99-5.99,5.99H36.52c-5.99,0-5.99-5.99-5.99-5.99v-9.65c0-5.99,5.99-5.99,5.99-5.99
		h26.95c5.99,0,5.99,5.99,5.99,5.99V45.59z M62.97,66.88c-2.57,0-4.66-2.09-4.66-4.66c0-2.57,2.09-4.66,4.66-4.66
		c2.58,0,4.66,2.09,4.66,4.66C67.63,64.79,65.55,66.88,62.97,66.88 M37.02,66.88c-2.58,0-4.66-2.09-4.66-4.66
		c0-2.57,2.08-4.66,4.66-4.66c2.57,0,4.66,2.09,4.66,4.66C41.68,64.79,39.59,66.88,37.02,66.88 M40.35,21.63h19.3v5.32h-19.3V21.63z
		 M66.8,15.65H33.2c0,0-8.65,0-8.65,8.65v40.59c0,0,0,8.65,8.65,8.65h33.6c0,0,8.65,0,8.65-8.65V24.29
		C75.45,24.29,75.45,15.65,66.8,15.65"/>
	<path class="st1" d="M30.54,76.19v6.91c0,0,0,4.22,4.22,4.22h0.86c0,0,4.23,0,4.23-4.22v-6.91H30.54z"/>
	<path class="st1" d="M60.15,76.19v6.91c0,0,0,4.22,4.23,4.22h0.86c0,0,4.22,0,4.22-4.22v-6.91H60.15z"/>
</g>
</svg>
