<?xml version="1.0" encoding="utf-8"?>
<!-- Generator: Adobe Illustrator 24.1.2, SVG Export Plug-In . SVG Version: 6.00 Build 0)  -->
<svg version="1.1" id="Layer_1" xmlns="http://www.w3.org/2000/svg" xmlns:xlink="http://www.w3.org/1999/xlink" x="0px" y="0px"
	 viewBox="0 0 100 100" style="enable-background:new 0 0 100 100;" xml:space="preserve">
<style type="text/css">
	.st0{fill:#2270AC;}
	.st1{fill:#FFFFFF;}
</style>
<g>
	<path class="st0" d="M100,50.01C100,77.62,77.61,100,50,100S0,77.62,0,50.01S22.39,0,50,0S100,22.39,100,50.01"/>
	<path class="st1" d="M79.07,53.85c-2.09,0-3.79-1.7-3.79-3.79c0-2.1,1.7-3.79,3.79-3.79c2.09,0,3.79,1.69,3.79,3.79
		C82.87,52.15,81.16,53.85,79.07,53.85 M63.71,63.7c-1.21,1.21-3.16,1.21-4.37,0L47.82,52.18c-0.04-0.04-0.06-0.11-0.1-0.15
		c-0.23-0.25-0.44-0.53-0.56-0.85C47,50.8,46.91,50.4,46.91,50V21.12c0-1.71,1.39-3.09,3.09-3.09s3.08,1.38,3.08,3.09v27.6
		l10.62,10.61C64.91,60.54,64.91,62.49,63.71,63.7 M50.01,82.91c-2.09,0-3.79-1.7-3.79-3.79c0-2.1,1.7-3.79,3.79-3.79
		c2.1,0,3.79,1.69,3.79,3.79C53.8,81.21,52.11,82.91,50.01,82.91 M20.81,53.85c-2.1,0-3.79-1.7-3.79-3.79c0-2.1,1.7-3.79,3.79-3.79
		c2.09,0,3.79,1.69,3.79,3.79C24.6,52.15,22.91,53.85,20.81,53.85 M50,12.5c-20.72,0-37.5,16.79-37.5,37.5S29.29,87.5,50,87.5
		S87.5,70.71,87.5,50S70.72,12.5,50,12.5"/>
</g>
</svg>
