<?xml version="1.0" encoding="utf-8"?>
<!-- Generator: Adobe Illustrator 24.1.2, SVG Export Plug-In . SVG Version: 6.00 Build 0)  -->
<svg version="1.1" id="Layer_1" xmlns="http://www.w3.org/2000/svg" xmlns:xlink="http://www.w3.org/1999/xlink" x="0px" y="0px"
	 viewBox="0 0 100 100" style="enable-background:new 0 0 100 100;" xml:space="preserve">
<style type="text/css">
	.st0{fill:#AFBD22;}
	.st1{fill:#FFFFFF;}
</style>
<g>
	<path class="st0" d="M100,50c0,27.61-22.38,50-50,50C22.39,100,0,77.61,0,50C0,22.38,22.39,0,50,0C77.62,0,100,22.38,100,50"/>
	<path class="st1" d="M41.25,61.81c0.01,4.43,3.6,8.03,8.04,8.04c4.43-0.02,8.03-3.61,8.04-8.04c-0.01-4.44-3.6-8.04-8.04-8.05
		C44.85,53.77,41.26,57.36,41.25,61.81 M38.38,61.81c0-6.03,4.89-10.92,10.92-10.92c6.03,0,10.91,4.89,10.91,10.92
		c0,6.02-4.89,10.91-10.91,10.91C43.26,72.72,38.38,67.83,38.38,61.81"/>
	<path class="st1" d="M72.11,61.8c0.01,4.44,3.59,8.03,8.02,8.04c4.44-0.01,8.03-3.6,8.04-8.04c-0.01-4.44-3.6-8.03-8.04-8.03
		C75.7,53.77,72.12,57.36,72.11,61.8 M69.25,61.8c0-6.03,4.86-10.91,10.88-10.91c6.03,0,10.92,4.89,10.92,10.91
		s-4.89,10.92-10.92,10.92C74.12,72.72,69.25,67.83,69.25,61.8"/>
	<path class="st1" d="M61.96,64.03v-9.39l-6.89-6.82c-0.52-0.52-0.81-1.22-0.81-1.95c-0.01-0.73,0.28-1.43,0.8-1.96l7.01-7.01
		c0.52-0.52,1.22-0.81,1.95-0.81c0.73,0,1.43,0.29,1.94,0.81l5.04,5.06h7.05c1.52,0,2.75,1.23,2.75,2.75c0,1.51-1.23,2.75-2.75,2.75
		h-8.18c-0.73,0-1.42-0.29-1.93-0.81l-3.92-3.92l-3.12,3.12l5.74,5.69c0.52,0.52,0.81,1.22,0.81,1.95l0.01,10.54
		c0,1.52-1.23,2.75-2.75,2.75C63.19,66.78,61.96,65.55,61.96,64.03"/>
	<path class="st1" d="M49.41,63.5c1.02,0,1.84-0.83,1.84-1.84c0-1.02-0.82-1.84-1.84-1.84c-1.02,0-1.84,0.82-1.84,1.84
		C47.57,62.67,48.39,63.5,49.41,63.5"/>
	<path class="st1" d="M80.24,63.5c1.02,0,1.84-0.83,1.84-1.84c0-1.02-0.82-1.84-1.84-1.84c-1.02,0-1.84,0.82-1.84,1.84
		C78.4,62.67,79.23,63.5,80.24,63.5"/>
	<path class="st1" d="M66.99,32.4c0-2.83,2.28-5.12,5.09-5.12c0.77,0,1.49,0.18,2.15,0.48c0.25,0.09,1.94,0.79,2.65,2.68
		c0.76,2.05,2.13,2.83,2.13,2.83S79.25,34,78.22,34c-0.29,0-0.73-0.14-1.21-0.32c-0.32,1.25-1.1,2.32-2.15,3
		c-0.54-0.29-1.09-0.79-1.61-1.59c-0.65-1.02-1.55-0.37-1.13,0.39c0.09,0.17,0.51,1.07,1.41,1.81c-0.46,0.14-0.95,0.22-1.45,0.22
		C69.27,37.51,66.99,35.23,66.99,32.4 M74.01,33.66c0,0.51,0.42,0.93,0.93,0.93c0.51,0,0.93-0.42,0.93-0.93
		c0-0.51-0.42-0.93-0.93-0.93C74.42,32.73,74.01,33.14,74.01,33.66"/>
	<path class="st1" d="M20.96,48.53l-0.02,5.4L9.57,68.12C8.6,69.32,8.8,71.09,10,72.05c0.52,0.42,1.13,0.62,1.75,0.62
		c0.82,0,1.63-0.36,2.19-1.05l9.32-11.65l9.85,11.74c0.55,0.66,1.35,1.01,2.15,1.01c0.63,0,1.27-0.22,1.79-0.65
		c1.19-1,1.34-2.76,0.35-3.95L20.96,48.53z"/>
	<path class="st1" d="M27.97,52.87c0.54,0.63,1.31,1,2.14,1h5.37c1.54,0,2.79-1.25,2.79-2.8c0-1.54-1.25-2.8-2.79-2.8h-4.07
		l-5.49-6.54c-0.03-0.03-0.06-0.05-0.09-0.08c-0.06-0.08-0.14-0.15-0.21-0.21c-0.06-0.05-0.12-0.1-0.18-0.15
		c-0.09-0.07-0.19-0.13-0.3-0.19c-0.05-0.02-0.09-0.05-0.14-0.08c-0.13-0.06-0.26-0.11-0.39-0.15c-0.04-0.01-0.06-0.02-0.09-0.03
		c-0.15-0.04-0.3-0.06-0.46-0.08c-0.02-0.01-0.04-0.01-0.06-0.01c-0.08-0.01-0.15-0.02-0.22-0.02c-0.1,0-0.19,0.01-0.28,0.03h-0.01
		c-1.41,0.14-2.5,1.31-2.51,2.75l-0.01,1.02L27.97,52.87z"/>
	<path class="st1" d="M27.8,35.73c0.71-0.89,1.13-2.02,1.13-3.25c0-2.88-2.33-5.21-5.2-5.21s-5.21,2.33-5.21,5.21
		c0,2.88,2.33,5.21,5.21,5.21c1.14,0,2.19-0.37,3.06-1c-1.22-0.51-1.9-1.43-2.04-1.59c-0.56-0.65,0.18-1.46,1.01-0.62
		C26.48,35.23,27.18,35.58,27.8,35.73 M26.82,31.51c0,0.51-0.41,0.91-0.91,0.91S25,32.02,25,31.51c0-0.51,0.41-0.92,0.92-0.92
		S26.82,31,26.82,31.51"/>
</g>
</svg>
