<?xml version="1.0" encoding="utf-8"?>
<!-- Generator: Adobe Illustrator 24.0.0, SVG Export Plug-In . SVG Version: 6.00 Build 0)  -->
<svg version="1.1" id="Layer_1" xmlns="http://www.w3.org/2000/svg" xmlns:xlink="http://www.w3.org/1999/xlink" x="0px" y="0px"
	 viewBox="0 0 595.28 841.89" style="enable-background:new 0 0 595.28 841.89;" xml:space="preserve">
<style type="text/css">
	.st0{fill:none;stroke:#B2B2B2;stroke-width:2.178;}
	.st1{fill:#B2B2B2;}
	.st2{fill:none;stroke:#706F6F;stroke-width:8.712;}
	.st3{fill:#706F6F;}
	.st4{fill:#95806C;}
	.st5{fill:#FFFFFF;}
	.st6{font-family:'Whitney-Semibold';}
	.st7{font-size:9.8015px;}
	.st8{fill:none;stroke:#FFFFFF;stroke-width:3.267;}
	.st9{fill:#007B49;}
	.st10{fill:#EF7918;}
	.st11{fill:#C83736;}
	.st12{fill:#003F65;}
	.st13{fill:none;stroke:#706F6F;stroke-width:6.4;}
	.st14{fill:none;stroke:#B2B2B2;stroke-width:1.6;}
</style>
<g>
	<line class="st0" x1="113.42" y1="523.79" x2="147.72" y2="489.5"/>
	<polygon class="st1" points="108.34,528.87 119.25,523.78 113.43,517.96 	"/>
	<polygon class="st1" points="152.8,484.42 141.89,489.5 147.71,495.33 	"/>
	<line class="st0" x1="75.23" y1="506.56" x2="75.23" y2="427.27"/>
	<polygon class="st1" points="75.23,513.74 79.34,502.43 71.11,502.43 	"/>
	<polygon class="st1" points="75.23,420.09 71.11,431.4 79.34,431.4 	"/>
	<line class="st0" x1="182.39" y1="457.12" x2="256.36" y2="541.6"/>
	<polygon class="st1" points="261.09,547 256.73,535.78 250.54,541.2 	"/>
	<line class="st0" x1="113.45" y1="393.94" x2="147.41" y2="423.96"/>
	<polygon class="st1" points="152.8,428.72 147.05,418.14 141.59,424.31 	"/>
	<line class="st2" x1="111.27" y1="383.27" x2="233.45" y2="383.27"/>
	<polygon class="st3" points="250.19,383.27 221.57,372.85 221.57,393.68 	"/>
	<line class="st0" x1="252.37" y1="369.47" x2="120.63" y2="369.47"/>
	<polygon class="st1" points="113.45,369.47 124.76,365.35 124.76,373.59 	"/>
	<line class="st2" x1="182.39" y1="456.5" x2="244.1" y2="415.3"/>
	<polygon class="st3" points="258.03,406 228.45,413.23 240.01,430.55 	"/>
	<line class="st2" x1="170.08" y1="469.47" x2="116.1" y2="417.6"/>
	<polygon class="st3" points="104.03,406 117.45,433.34 131.88,418.32 	"/>
	<line class="st0" x1="289.56" y1="419" x2="289.56" y2="527.89"/>
	<polygon class="st1" points="289.56,535.07 293.67,523.76 285.44,523.76 	"/>
	<g>
		<path class="st4" d="M182.39,494.83c21.31,0,38.59-17.28,38.59-38.59s-17.28-38.59-38.59-38.59s-38.59,17.28-38.59,38.59
			S161.08,494.83,182.39,494.83"/>
	</g>
	<g>
		<path class="st5" d="M165.73,454.28v-6.76h1.3v6.76H165.73z"/>
		<path class="st5" d="M174,454.28v-3.1c0-0.41-0.15-0.7-0.58-0.7c-0.36,0-0.71,0.24-1.05,0.59v3.2h-1.18v-3.1
			c0-0.41-0.16-0.7-0.59-0.7c-0.36,0-0.71,0.24-1.05,0.59v3.2h-1.18v-4.73h1l0.11,0.67c0.44-0.42,0.92-0.76,1.56-0.76
			c0.68,0,1.04,0.3,1.21,0.76c0.42-0.42,0.94-0.76,1.58-0.76c0.89,0,1.33,0.54,1.33,1.42v3.41H174z"/>
		<path class="st5" d="M178.63,454.33c-0.45,0-0.81-0.08-1.1-0.19v1.78l-1.18,0.18v-6.55h1l0.11,0.65c0.33-0.38,0.79-0.74,1.45-0.74
			c0.99,0,1.78,0.74,1.78,2.33C180.69,453.55,179.71,454.33,178.63,454.33z M178.6,450.49c-0.42,0-0.75,0.26-1.07,0.67v2.03
			c0.28,0.14,0.51,0.21,0.91,0.21c0.61,0,1.07-0.5,1.07-1.54C179.51,450.94,179.13,450.49,178.6,450.49z"/>
		<path class="st5" d="M182.83,451.57v2.71h-1.18v-4.73h1l0.15,0.95c0.31-0.55,0.78-1.01,1.52-1.05l0.19,1.17
			C183.77,450.66,183.17,451.06,182.83,451.57z"/>
		<path class="st5" d="M187.1,454.38c-1.28,0-2.21-0.92-2.21-2.46c0-1.54,0.94-2.47,2.22-2.47c1.29,0,2.23,0.93,2.23,2.47
			C189.35,453.46,188.4,454.38,187.1,454.38z M187.1,450.42c-0.7,0-1.07,0.62-1.07,1.5c0,0.86,0.38,1.5,1.07,1.5
			c0.73,0,1.1-0.62,1.1-1.5C188.2,451.05,187.81,450.42,187.1,450.42z"/>
		<path class="st5" d="M192.52,454.3h-1.15l-1.66-4.66l1.23-0.16l1.06,3.36l1.02-3.29h1.17L192.52,454.3z"/>
		<path class="st5" d="M196.85,454.38c-1.32,0-2.31-0.75-2.31-2.46c0-1.54,0.92-2.47,2.16-2.47c1.42,0,2.06,1.07,2.06,2.41
			c0,0.1-0.01,0.22-0.01,0.28h-3.05c0.06,0.93,0.56,1.32,1.28,1.32c0.61,0,1.11-0.22,1.63-0.59l0.14,0.92
			C198.23,454.15,197.61,454.38,196.85,454.38z M195.71,451.41h1.89c-0.08-0.73-0.37-1.15-0.94-1.15
			C196.19,450.26,195.8,450.64,195.71,451.41z"/>
	</g>
	<text transform="matrix(1 0 0 1 201.1816 454.2797)" class="st5 st6 st7"> </text>
	<g>
		<path class="st5" d="M162.55,466.04l-0.11-0.67c-0.44,0.42-0.95,0.76-1.58,0.76c-0.89,0-1.35-0.54-1.35-1.43v-3.4h1.18v3.1
			c0,0.41,0.18,0.69,0.6,0.69c0.37,0,0.74-0.24,1.09-0.59v-3.19h1.18v4.73H162.55z"/>
		<path class="st5" d="M165.92,463.33v2.71h-1.18v-4.73h1l0.15,0.95c0.31-0.55,0.78-1.01,1.52-1.05l0.19,1.17
			C166.87,462.43,166.26,462.82,165.92,463.33z"/>
		<path class="st5" d="M170.29,466.1c-0.73,0-1.35-0.12-1.94-0.31v-6.63l1.18-0.19v2.87c0.3-0.31,0.74-0.63,1.34-0.63
			c1,0,1.78,0.74,1.78,2.33C172.65,465.29,171.7,466.1,170.29,466.1z M170.56,462.25c-0.39,0-0.74,0.26-1.04,0.62v2.15
			c0.25,0.09,0.41,0.13,0.74,0.13c0.74,0,1.2-0.45,1.2-1.53C171.46,462.7,171.09,462.25,170.56,462.25z"/>
		<path class="st5" d="M176.36,466.04l-0.1-0.62c-0.38,0.4-0.87,0.71-1.58,0.71c-0.8,0-1.34-0.49-1.34-1.31
			c0-1.15,0.94-1.65,2.85-1.83v-0.14c0-0.51-0.29-0.71-0.81-0.71c-0.55,0-1.07,0.16-1.58,0.38l-0.15-0.94
			c0.55-0.22,1.13-0.38,1.88-0.38c1.22,0,1.83,0.45,1.83,1.59v3.24H176.36z M176.2,463.68c-1.36,0.17-1.68,0.57-1.68,1.02
			c0,0.34,0.22,0.55,0.58,0.55c0.4,0,0.78-0.19,1.11-0.51V463.68z"/>
		<path class="st5" d="M181.4,466.04v-3.1c0-0.41-0.18-0.7-0.61-0.7c-0.37,0-0.73,0.24-1.08,0.6v3.19h-1.18v-4.73h1l0.11,0.67
			c0.44-0.42,0.94-0.76,1.58-0.76c0.88,0,1.35,0.54,1.35,1.42v3.41H181.4z"/>
		<path class="st5" d="M187.91,460.02c-0.4,0-0.62,0.18-0.62,0.6v0.7h0.9l0.15,0.96h-1.05v3.77h-1.17v-3.77h-0.69v-0.96h0.69v-0.81
			c0-1.05,0.67-1.44,1.64-1.44c0.18,0,0.34,0.02,0.48,0.04l0.16,0.96C188.28,460.04,188.1,460.02,187.91,460.02z"/>
		<path class="st5" d="M190.96,466.14c-1.28,0-2.21-0.92-2.21-2.46c0-1.54,0.94-2.47,2.22-2.47c1.29,0,2.23,0.93,2.23,2.47
			C193.2,465.22,192.25,466.14,190.96,466.14z M190.96,462.18c-0.7,0-1.07,0.62-1.07,1.5c0,0.86,0.38,1.5,1.07,1.5
			c0.73,0,1.1-0.62,1.1-1.5C192.05,462.81,191.66,462.18,190.96,462.18z"/>
		<path class="st5" d="M195.33,463.33v2.71h-1.18v-4.73h1l0.15,0.95c0.31-0.55,0.78-1.01,1.52-1.05l0.19,1.17
			C196.27,462.43,195.66,462.82,195.33,463.33z"/>
		<path class="st5" d="M203.36,466.04v-3.1c0-0.41-0.15-0.7-0.58-0.7c-0.36,0-0.71,0.24-1.05,0.59v3.2h-1.18v-3.1
			c0-0.41-0.16-0.7-0.59-0.7c-0.36,0-0.71,0.24-1.05,0.59v3.2h-1.18v-4.73h1l0.11,0.67c0.44-0.42,0.92-0.76,1.56-0.76
			c0.68,0,1.04,0.3,1.21,0.76c0.42-0.42,0.94-0.76,1.58-0.76c0.89,0,1.33,0.54,1.33,1.42v3.41H203.36z"/>
	</g>
	<g>
		<circle class="st8" cx="182.39" cy="456.24" r="38.59"/>
		<path class="st9" d="M289.56,419.68c21.31,0,38.59-17.28,38.59-38.59s-17.28-38.59-38.59-38.59c-21.31,0-38.59,17.28-38.59,38.59
			S268.24,419.68,289.56,419.68"/>
	</g>
	<g>
		<path class="st5" d="M263.17,373.5v5.63h-1.29v-5.63h-2.04v-1.13h5.25l0.19,1.13H263.17z"/>
		<path class="st5" d="M267.69,379.13l-0.1-0.62c-0.38,0.4-0.87,0.72-1.58,0.72c-0.8,0-1.34-0.49-1.34-1.31
			c0-1.15,0.94-1.65,2.85-1.83v-0.14c0-0.51-0.29-0.71-0.81-0.71c-0.55,0-1.07,0.16-1.58,0.38l-0.15-0.94
			c0.55-0.22,1.13-0.38,1.88-0.38c1.22,0,1.83,0.45,1.83,1.59v3.24H267.69z M267.53,376.77c-1.36,0.17-1.68,0.57-1.68,1.02
			c0,0.34,0.22,0.55,0.58,0.55c0.4,0,0.78-0.19,1.11-0.51V376.77z"/>
		<path class="st5" d="M271.9,379.22c-1.32,0-2.25-0.88-2.25-2.43c0-1.65,1.03-2.49,2.29-2.49c0.63,0,1.11,0.17,1.48,0.4l-0.17,1.06
			c-0.4-0.3-0.78-0.44-1.25-0.44c-0.68,0-1.17,0.5-1.17,1.44c0,0.98,0.53,1.45,1.24,1.45c0.41,0,0.78-0.11,1.23-0.45l0.15,1
			C272.98,379.09,272.5,379.22,271.9,379.22z"/>
		<path class="st5" d="M277.31,379.2l-1.72-2.41v2.34h-1.18v-6.89l1.18-0.19v4.3l1.55-1.96h1.32l-1.74,2.12l1.85,2.51L277.31,379.2z
			"/>
		<path class="st5" d="M279.29,379.13v-6.89l1.18-0.19v7.07H279.29z"/>
		<path class="st5" d="M283.78,379.23c-1.32,0-2.31-0.75-2.31-2.46c0-1.54,0.92-2.47,2.16-2.47c1.42,0,2.06,1.07,2.06,2.41
			c0,0.1-0.01,0.22-0.01,0.28h-3.05c0.06,0.93,0.56,1.32,1.28,1.32c0.61,0,1.11-0.23,1.63-0.59l0.14,0.92
			C285.16,379,284.54,379.23,283.78,379.23z M282.64,376.26h1.89c-0.08-0.73-0.37-1.15-0.94-1.15
			C283.12,375.11,282.73,375.49,282.64,376.26z"/>
		<path class="st5" d="M290.76,379.22c-1.32,0-2.25-0.88-2.25-2.43c0-1.65,1.03-2.49,2.29-2.49c0.63,0,1.11,0.17,1.48,0.4
			l-0.17,1.06c-0.4-0.3-0.78-0.44-1.25-0.44c-0.68,0-1.17,0.5-1.17,1.44c0,0.98,0.53,1.45,1.24,1.45c0.41,0,0.78-0.11,1.23-0.45
			l0.15,1C291.83,379.09,291.35,379.22,290.76,379.22z"/>
		<path class="st5" d="M293.31,379.13v-6.89l1.18-0.19v7.07H293.31z"/>
		<path class="st5" d="M296.38,373.6c-0.39,0-0.71-0.27-0.71-0.67c0-0.4,0.31-0.69,0.71-0.69c0.38,0,0.7,0.28,0.7,0.69
			C297.08,373.33,296.76,373.6,296.38,373.6z M295.78,379.13v-4.73h1.18v4.73H295.78z"/>
		<path class="st5" d="M303.82,379.13v-3.1c0-0.41-0.15-0.7-0.58-0.7c-0.36,0-0.71,0.23-1.05,0.59v3.2h-1.18v-3.1
			c0-0.41-0.16-0.7-0.59-0.7c-0.36,0-0.71,0.23-1.05,0.59v3.2h-1.18v-4.73h1l0.11,0.67c0.44-0.42,0.92-0.76,1.56-0.76
			c0.68,0,1.04,0.3,1.21,0.76c0.42-0.42,0.94-0.76,1.58-0.76c0.89,0,1.33,0.54,1.33,1.42v3.41H303.82z"/>
		<path class="st5" d="M308.93,379.13l-0.1-0.62c-0.38,0.4-0.87,0.72-1.58,0.72c-0.8,0-1.34-0.49-1.34-1.31
			c0-1.15,0.94-1.65,2.85-1.83v-0.14c0-0.51-0.29-0.71-0.81-0.71c-0.55,0-1.07,0.16-1.58,0.38l-0.15-0.94
			c0.55-0.22,1.13-0.38,1.88-0.38c1.22,0,1.83,0.45,1.83,1.59v3.24H308.93z M308.76,376.77c-1.36,0.17-1.68,0.57-1.68,1.02
			c0,0.34,0.21,0.55,0.58,0.55c0.4,0,0.78-0.19,1.11-0.51V376.77z"/>
		<path class="st5" d="M312.91,379.21c-0.93,0-1.56-0.34-1.56-1.42v-2.43h-0.67v-0.96h0.67v-1.5l1.16-0.18v1.68h0.97l0.15,0.96
			h-1.12v2.23c0,0.38,0.18,0.59,0.63,0.59c0.14,0,0.26-0.01,0.37-0.04l0.15,0.99C313.46,379.17,313.25,379.21,312.91,379.21z"/>
		<path class="st5" d="M316.57,379.23c-1.32,0-2.31-0.75-2.31-2.46c0-1.54,0.92-2.47,2.16-2.47c1.42,0,2.06,1.07,2.06,2.41
			c0,0.1-0.01,0.22-0.01,0.28h-3.05c0.06,0.93,0.56,1.32,1.28,1.32c0.61,0,1.11-0.23,1.63-0.59l0.14,0.92
			C317.95,379,317.34,379.23,316.57,379.23z M315.44,376.26h1.89c-0.08-0.73-0.37-1.15-0.94-1.15
			C315.92,375.11,315.52,375.49,315.44,376.26z"/>
	</g>
	<text transform="matrix(1 0 0 1 320.2539 379.1283)" class="st5 st6 st7"> </text>
	<g>
		<path class="st5" d="M276.91,390.98c-1.32,0-2.25-0.88-2.25-2.43c0-1.65,1.03-2.49,2.29-2.49c0.63,0,1.11,0.17,1.48,0.4
			l-0.17,1.06c-0.4-0.3-0.78-0.44-1.25-0.44c-0.68,0-1.17,0.5-1.17,1.44c0,0.98,0.53,1.45,1.24,1.45c0.41,0,0.78-0.11,1.23-0.45
			l0.15,1C277.99,390.85,277.51,390.98,276.91,390.98z"/>
		<path class="st5" d="M282.28,390.89v-3.1c0-0.41-0.18-0.7-0.61-0.7c-0.37,0-0.73,0.23-1.08,0.6v3.19h-1.18V384l1.18-0.19v2.94
			c0.39-0.36,0.88-0.7,1.51-0.7c0.88,0,1.35,0.54,1.35,1.42v3.41H282.28z"/>
		<path class="st5" d="M287.39,390.89l-0.1-0.62c-0.38,0.4-0.87,0.72-1.58,0.72c-0.8,0-1.34-0.49-1.34-1.31
			c0-1.15,0.94-1.65,2.85-1.83v-0.14c0-0.51-0.29-0.71-0.81-0.71c-0.55,0-1.07,0.16-1.58,0.38l-0.15-0.94
			c0.55-0.22,1.13-0.38,1.88-0.38c1.22,0,1.83,0.45,1.83,1.59v3.24H287.39z M287.22,388.53c-1.36,0.17-1.68,0.57-1.68,1.02
			c0,0.34,0.22,0.55,0.58,0.55c0.4,0,0.78-0.19,1.11-0.51V388.53z"/>
		<path class="st5" d="M292.43,390.89v-3.1c0-0.41-0.18-0.7-0.61-0.7c-0.37,0-0.73,0.23-1.08,0.6v3.19h-1.18v-4.73h1l0.11,0.67
			c0.44-0.42,0.94-0.76,1.58-0.76c0.88,0,1.35,0.54,1.35,1.42v3.41H292.43z"/>
		<path class="st5" d="M296.53,392.67c-1.28,0-2.25-0.39-2.25-1.18c0-0.45,0.3-0.78,0.89-1.11c-0.19-0.15-0.27-0.32-0.27-0.52
			c0-0.26,0.21-0.52,0.6-0.74c-0.56-0.26-0.89-0.76-0.89-1.39c0-1.03,0.84-1.68,1.9-1.68c0.54,0,1,0.16,1.34,0.44l1.16-0.41
			l0.16,0.94l-0.86,0.06c0.08,0.19,0.13,0.4,0.13,0.62c0,1.02-0.87,1.63-1.89,1.63c-0.14,0-0.27,0-0.39-0.02
			c-0.12,0.08-0.19,0.17-0.19,0.25c0,0.16,0.15,0.2,0.88,0.3l0.61,0.06c0.97,0.14,1.58,0.44,1.58,1.17
			C299.02,392.1,297.91,392.67,296.53,392.67z M295.8,390.66c-0.34,0.23-0.5,0.46-0.5,0.71c0,0.35,0.42,0.61,1.31,0.61
			c0.84,0,1.32-0.28,1.32-0.64c0-0.25-0.21-0.4-0.79-0.49l-0.64-0.08C296.18,390.73,296.02,390.71,295.8,390.66z M296.51,386.81
			c-0.52,0-0.82,0.4-0.82,0.92c0,0.49,0.31,0.86,0.82,0.86c0.52,0,0.83-0.38,0.83-0.89C297.35,387.2,297.01,386.81,296.51,386.81z"
			/>
		<path class="st5" d="M301.84,390.99c-1.32,0-2.31-0.75-2.31-2.46c0-1.54,0.92-2.47,2.16-2.47c1.42,0,2.06,1.07,2.06,2.41
			c0,0.1-0.01,0.22-0.01,0.28h-3.05c0.06,0.93,0.56,1.32,1.28,1.32c0.61,0,1.11-0.23,1.63-0.59l0.14,0.92
			C303.22,390.76,302.6,390.99,301.84,390.99z M300.7,388.02h1.89c-0.08-0.73-0.37-1.15-0.94-1.15
			C301.18,386.87,300.79,387.26,300.7,388.02z"/>
	</g>
	<g>
		<path class="st8" d="M289.56,419.68c21.31,0,38.59-17.28,38.59-38.59s-17.28-38.59-38.59-38.59c-21.31,0-38.59,17.28-38.59,38.59
			S268.24,419.68,289.56,419.68z"/>
		<path class="st10" d="M75.23,591.76c21.31,0,38.59-17.28,38.59-38.59s-17.28-38.59-38.59-38.59s-38.59,17.28-38.59,38.59
			S53.92,591.76,75.23,591.76"/>
	</g>
	<g>
		<path class="st5" d="M51.63,551.29c-0.82,0-1.53-0.19-2.13-0.47l0.2-1.19c0.57,0.33,1.27,0.6,1.95,0.6c0.6,0,1.01-0.28,1.01-0.82
			c0-0.5-0.24-0.71-1.21-1.13c-1.31-0.54-1.84-0.97-1.84-2.02c0-1.2,0.92-1.89,2.18-1.89c0.76,0,1.29,0.16,1.78,0.41l-0.2,1.17
			c-0.49-0.32-1.07-0.53-1.6-0.53c-0.65,0-0.93,0.31-0.93,0.72c0,0.43,0.22,0.64,1.16,1.03c1.39,0.57,1.9,1.05,1.9,2.1
			C53.9,550.6,52.93,551.29,51.63,551.29z"/>
		<path class="st5" d="M55.54,545.69c-0.39,0-0.71-0.27-0.71-0.67c0-0.4,0.31-0.69,0.71-0.69c0.38,0,0.7,0.28,0.7,0.69
			C56.24,545.41,55.92,545.69,55.54,545.69z M54.94,551.21v-4.73h1.18v4.73H54.94z"/>
		<path class="st5" d="M59.12,553c-1.28,0-2.25-0.39-2.25-1.18c0-0.45,0.3-0.78,0.89-1.11c-0.19-0.15-0.27-0.32-0.27-0.52
			c0-0.26,0.21-0.52,0.6-0.75c-0.56-0.26-0.89-0.76-0.89-1.39c0-1.03,0.84-1.67,1.9-1.67c0.54,0,1,0.16,1.34,0.44l1.16-0.41
			l0.16,0.94l-0.86,0.06c0.08,0.19,0.13,0.4,0.13,0.62c0,1.02-0.87,1.63-1.89,1.63c-0.14,0-0.27,0-0.39-0.02
			c-0.12,0.08-0.19,0.17-0.19,0.25c0,0.16,0.15,0.2,0.88,0.3l0.61,0.06c0.97,0.14,1.58,0.44,1.58,1.17
			C61.6,552.43,60.49,553,59.12,553z M58.38,550.99c-0.34,0.24-0.5,0.46-0.5,0.71c0,0.35,0.42,0.61,1.31,0.61
			c0.84,0,1.32-0.28,1.32-0.64c0-0.25-0.21-0.4-0.79-0.49l-0.64-0.08C58.76,551.06,58.61,551.04,58.38,550.99z M59.1,547.14
			c-0.52,0-0.82,0.4-0.82,0.92c0,0.49,0.31,0.86,0.82,0.86c0.52,0,0.83-0.38,0.83-0.89C59.93,547.52,59.6,547.14,59.1,547.14z"/>
		<path class="st5" d="M65.31,551.21v-3.1c0-0.41-0.18-0.7-0.61-0.7c-0.37,0-0.73,0.24-1.08,0.6v3.19h-1.18v-4.73h1l0.11,0.67
			c0.44-0.42,0.94-0.76,1.58-0.76c0.88,0,1.35,0.54,1.35,1.42v3.41H65.31z"/>
		<path class="st5" d="M68.31,545.69c-0.39,0-0.71-0.27-0.71-0.67c0-0.4,0.31-0.69,0.71-0.69c0.38,0,0.7,0.28,0.7,0.69
			C69.01,545.41,68.69,545.69,68.31,545.69z M67.71,551.21v-4.73h1.18v4.73H67.71z"/>
		<path class="st5" d="M72.19,545.19c-0.4,0-0.62,0.18-0.62,0.6v0.7h0.9l0.15,0.96h-1.05v3.77h-1.17v-3.77h-0.69v-0.96h0.69v-0.81
			c0-1.05,0.67-1.44,1.64-1.44c0.18,0,0.34,0.02,0.48,0.04l0.16,0.96C72.56,545.21,72.39,545.19,72.19,545.19z M73.97,545.69
			c-0.39,0-0.71-0.27-0.71-0.67c0-0.4,0.31-0.69,0.71-0.69c0.38,0,0.7,0.28,0.7,0.69C74.67,545.41,74.36,545.69,73.97,545.69z
			 M73.38,551.21v-4.73h1.18v4.73H73.38z"/>
		<path class="st5" d="M77.83,551.3c-1.32,0-2.25-0.88-2.25-2.43c0-1.65,1.03-2.49,2.29-2.49c0.63,0,1.11,0.17,1.48,0.4l-0.17,1.06
			c-0.4-0.3-0.78-0.44-1.25-0.44c-0.68,0-1.17,0.5-1.17,1.44c0,0.98,0.53,1.45,1.24,1.45c0.41,0,0.78-0.11,1.23-0.45l0.15,1
			C78.91,551.17,78.43,551.3,77.83,551.3z"/>
		<path class="st5" d="M83.09,551.21l-0.1-0.62c-0.38,0.4-0.87,0.71-1.58,0.71c-0.8,0-1.34-0.49-1.34-1.31
			c0-1.15,0.94-1.65,2.85-1.83v-0.14c0-0.51-0.29-0.71-0.81-0.71c-0.55,0-1.07,0.16-1.58,0.38l-0.15-0.94
			c0.55-0.22,1.13-0.38,1.88-0.38c1.22,0,1.83,0.45,1.83,1.59v3.24H83.09z M82.92,548.85c-1.36,0.17-1.68,0.57-1.68,1.02
			c0,0.34,0.22,0.55,0.58,0.55c0.4,0,0.78-0.19,1.11-0.51V548.85z"/>
		<path class="st5" d="M88.13,551.21v-3.1c0-0.41-0.18-0.7-0.61-0.7c-0.37,0-0.73,0.24-1.08,0.6v3.19h-1.18v-4.73h1l0.11,0.67
			c0.44-0.42,0.94-0.76,1.58-0.76c0.88,0,1.35,0.54,1.35,1.42v3.41H88.13z"/>
		<path class="st5" d="M92.28,551.29c-0.93,0-1.56-0.34-1.56-1.42v-2.43h-0.67v-0.96h0.67v-1.5l1.16-0.18v1.67h0.97l0.15,0.96h-1.12
			v2.23c0,0.38,0.18,0.59,0.63,0.59c0.14,0,0.26-0.01,0.37-0.04l0.15,0.99C92.84,551.25,92.63,551.29,92.28,551.29z"/>
		<path class="st5" d="M93.96,551.21v-6.89l1.18-0.19v7.07H93.96z"/>
		<path class="st5" d="M98.7,551.47c-0.42,1.17-0.96,1.53-1.87,1.53c-0.21,0-0.32-0.02-0.43-0.05l-0.16-0.97
			c0.16,0.04,0.32,0.07,0.55,0.07c0.34,0,0.62-0.16,0.76-0.5l0.11-0.31l-1.71-4.66l1.22-0.16l1.1,3.37l1.06-3.3h1.17L98.7,551.47z"
			/>
	</g>
	<g>
		<path class="st5" d="M48.37,560.26v2.71h-1.18v-4.73h1l0.15,0.95c0.31-0.55,0.78-1.01,1.52-1.05l0.19,1.17
			C49.31,559.36,48.7,559.75,48.37,560.26z"/>
		<path class="st5" d="M52.74,563.07c-1.32,0-2.31-0.75-2.31-2.46c0-1.54,0.92-2.47,2.16-2.47c1.42,0,2.06,1.07,2.06,2.41
			c0,0.1-0.01,0.22-0.01,0.28h-3.05c0.06,0.93,0.56,1.32,1.28,1.32c0.61,0,1.11-0.22,1.63-0.59l0.14,0.92
			C54.12,562.85,53.5,563.07,52.74,563.07z M51.6,560.1h1.89c-0.08-0.74-0.37-1.15-0.94-1.15C52.08,558.96,51.69,559.34,51.6,560.1z
			"/>
		<path class="st5" d="M58.69,562.97l-0.1-0.66c-0.33,0.4-0.79,0.75-1.45,0.75c-0.99,0-1.78-0.73-1.78-2.33
			c0-1.76,0.97-2.55,2.07-2.55c0.45,0,0.81,0.08,1.1,0.18v-2.28l1.18-0.19v7.07H58.69z M58.52,559.34
			c-0.29-0.14-0.52-0.21-0.92-0.21c-0.62,0-1.07,0.5-1.07,1.54c0,0.92,0.39,1.35,0.91,1.35c0.43,0,0.76-0.25,1.08-0.65V559.34z"/>
		<path class="st5" d="M63.91,562.97l-0.11-0.67c-0.44,0.42-0.95,0.76-1.58,0.76c-0.89,0-1.35-0.54-1.35-1.43v-3.4h1.18v3.1
			c0,0.41,0.18,0.69,0.6,0.69c0.37,0,0.74-0.24,1.09-0.59v-3.19h1.18v4.73H63.91z"/>
		<path class="st5" d="M68.14,563.06c-1.32,0-2.25-0.88-2.25-2.43c0-1.65,1.03-2.49,2.29-2.49c0.63,0,1.11,0.17,1.48,0.4l-0.17,1.06
			c-0.4-0.3-0.78-0.44-1.25-0.44c-0.68,0-1.17,0.5-1.17,1.44c0,0.98,0.53,1.45,1.24,1.45c0.41,0,0.78-0.11,1.23-0.45l0.15,1
			C69.22,562.93,68.74,563.06,68.14,563.06z"/>
		<path class="st5" d="M72.64,563.07c-1.32,0-2.31-0.75-2.31-2.46c0-1.54,0.92-2.47,2.16-2.47c1.42,0,2.06,1.07,2.06,2.41
			c0,0.1-0.01,0.22-0.01,0.28h-3.05c0.06,0.93,0.56,1.32,1.28,1.32c0.61,0,1.11-0.22,1.63-0.59l0.14,0.92
			C74.02,562.85,73.4,563.07,72.64,563.07z M71.5,560.1h1.89c-0.08-0.74-0.37-1.15-0.94-1.15C71.98,558.96,71.59,559.34,71.5,560.1z
			"/>
		<path class="st5" d="M80.45,562.97v-3.1c0-0.41-0.18-0.7-0.61-0.7c-0.37,0-0.73,0.24-1.08,0.6v3.19h-1.18v-6.89l1.18-0.19v2.94
			c0.39-0.36,0.88-0.7,1.51-0.7c0.88,0,1.35,0.54,1.35,1.42v3.41H80.45z"/>
		<path class="st5" d="M85.56,562.97l-0.1-0.62c-0.38,0.4-0.87,0.71-1.58,0.71c-0.8,0-1.34-0.49-1.34-1.31
			c0-1.15,0.94-1.65,2.85-1.83v-0.14c0-0.51-0.29-0.71-0.81-0.71c-0.55,0-1.07,0.16-1.58,0.38l-0.15-0.94
			c0.55-0.22,1.13-0.38,1.88-0.38c1.22,0,1.83,0.45,1.83,1.59v3.24H85.56z M85.39,560.61c-1.36,0.17-1.68,0.57-1.68,1.02
			c0,0.34,0.22,0.55,0.58,0.55c0.4,0,0.78-0.19,1.11-0.51V560.61z"/>
		<path class="st5" d="M88.91,560.26v2.71h-1.18v-4.73h1l0.15,0.95c0.31-0.55,0.78-1.01,1.52-1.05l0.19,1.17
			C89.85,559.36,89.24,559.75,88.91,560.26z"/>
		<path class="st5" d="M96.94,562.97v-3.1c0-0.41-0.15-0.7-0.58-0.7c-0.36,0-0.71,0.24-1.05,0.59v3.2h-1.18v-3.1
			c0-0.41-0.16-0.7-0.59-0.7c-0.36,0-0.71,0.24-1.05,0.59v3.2h-1.18v-4.73h1l0.11,0.67c0.44-0.42,0.92-0.76,1.56-0.76
			c0.68,0,1.04,0.3,1.21,0.76c0.42-0.42,0.94-0.76,1.58-0.76c0.89,0,1.33,0.54,1.33,1.42v3.41H96.94z"/>
		<path class="st5" d="M100.9,563.06c-0.69,0-1.39-0.21-1.84-0.46l0.16-0.98c0.51,0.33,1.14,0.56,1.72,0.56
			c0.51,0,0.78-0.19,0.78-0.49c0-0.33-0.21-0.47-0.96-0.66c-1.15-0.29-1.63-0.63-1.63-1.49c0-0.81,0.65-1.39,1.74-1.39
			c0.62,0,1.19,0.12,1.66,0.33l-0.16,0.98c-0.47-0.26-1.03-0.43-1.5-0.43c-0.44,0-0.66,0.17-0.66,0.43c0,0.25,0.18,0.39,0.88,0.58
			c1.22,0.31,1.7,0.65,1.7,1.54C102.81,562.51,102.14,563.06,100.9,563.06z"/>
	</g>
	<g>
		<path class="st8" d="M75.23,591.76c21.31,0,38.59-17.28,38.59-38.59s-17.28-38.59-38.59-38.59s-38.59,17.28-38.59,38.59
			S53.92,591.76,75.23,591.76z"/>
	</g>
	<path class="st0" d="M92.68,415.77"/>
	<g>
		<path class="st11" d="M289.56,613.54c21.31,0,38.59-17.28,38.59-38.59s-17.28-38.59-38.59-38.59c-21.31,0-38.59,17.28-38.59,38.59
			S268.24,613.54,289.56,613.54"/>
	</g>
	<g>
		<path class="st5" d="M274.58,567.19c-0.82,0-1.53-0.19-2.13-0.47l0.2-1.19c0.57,0.33,1.27,0.6,1.95,0.6c0.6,0,1.01-0.28,1.01-0.82
			c0-0.5-0.24-0.71-1.21-1.13c-1.31-0.54-1.84-0.97-1.84-2.02c0-1.2,0.92-1.89,2.18-1.89c0.76,0,1.29,0.16,1.78,0.41l-0.2,1.17
			c-0.49-0.32-1.07-0.53-1.6-0.53c-0.65,0-0.93,0.31-0.93,0.72c0,0.43,0.22,0.64,1.16,1.03c1.39,0.57,1.9,1.05,1.9,2.1
			C276.86,566.51,275.89,567.19,274.58,567.19z"/>
		<path class="st5" d="M280.87,567.11l-0.11-0.67c-0.44,0.42-0.95,0.76-1.58,0.76c-0.89,0-1.35-0.54-1.35-1.43v-3.4H279v3.1
			c0,0.41,0.18,0.69,0.6,0.69c0.37,0,0.74-0.24,1.09-0.59v-3.19h1.18v4.73H280.87z"/>
		<path class="st5" d="M285.34,567.16c-0.45,0-0.81-0.08-1.1-0.19v1.78l-1.18,0.18v-6.55h1l0.11,0.65c0.33-0.38,0.79-0.74,1.45-0.74
			c0.99,0,1.78,0.74,1.78,2.33C287.4,566.38,286.42,567.16,285.34,567.16z M285.31,563.32c-0.42,0-0.75,0.26-1.07,0.67v2.03
			c0.28,0.14,0.51,0.21,0.91,0.21c0.61,0,1.07-0.5,1.07-1.54C286.22,563.77,285.83,563.32,285.31,563.32z"/>
		<path class="st5" d="M290.64,567.16c-0.45,0-0.81-0.08-1.1-0.19v1.78l-1.18,0.18v-6.55h1l0.11,0.65c0.33-0.38,0.79-0.74,1.45-0.74
			c0.99,0,1.78,0.74,1.78,2.33C292.71,566.38,291.73,567.16,290.64,567.16z M290.61,563.32c-0.42,0-0.75,0.26-1.07,0.67v2.03
			c0.28,0.14,0.51,0.21,0.91,0.21c0.61,0,1.07-0.5,1.07-1.54C291.52,563.77,291.14,563.32,290.61,563.32z"/>
		<path class="st5" d="M295.64,567.21c-1.28,0-2.21-0.92-2.21-2.46c0-1.54,0.94-2.47,2.22-2.47c1.29,0,2.23,0.93,2.23,2.47
			C297.88,566.29,296.93,567.21,295.64,567.21z M295.64,563.25c-0.7,0-1.07,0.62-1.07,1.5c0,0.86,0.38,1.5,1.07,1.5
			c0.73,0,1.1-0.62,1.1-1.5C296.73,563.88,296.34,563.25,295.64,563.25z"/>
		<path class="st5" d="M300.01,564.4v2.71h-1.18v-4.73h1l0.15,0.95c0.31-0.55,0.78-1.01,1.52-1.05l0.19,1.17
			C300.95,563.5,300.34,563.89,300.01,564.4z"/>
		<path class="st5" d="M304.31,567.19c-0.93,0-1.56-0.34-1.56-1.42v-2.43h-0.67v-0.96h0.67v-1.5l1.16-0.18v1.67h0.97l0.15,0.96
			h-1.12v2.23c0,0.38,0.18,0.59,0.63,0.59c0.14,0,0.26-0.01,0.37-0.04l0.15,0.99C304.87,567.15,304.65,567.19,304.31,567.19z"/>
	</g>
	<g>
		<path class="st5" d="M273.6,576.16v2.71h-1.18v-4.73h1l0.15,0.95c0.31-0.55,0.78-1.01,1.52-1.05l0.19,1.17
			C274.54,575.26,273.93,575.65,273.6,576.16z"/>
		<path class="st5" d="M277.97,578.97c-1.32,0-2.31-0.75-2.31-2.46c0-1.54,0.92-2.47,2.16-2.47c1.42,0,2.06,1.07,2.06,2.41
			c0,0.1-0.01,0.22-0.01,0.28h-3.05c0.06,0.93,0.56,1.32,1.28,1.32c0.61,0,1.11-0.22,1.63-0.59l0.14,0.92
			C279.35,578.75,278.73,578.97,277.97,578.97z M276.83,576h1.89c-0.08-0.74-0.37-1.15-0.94-1.15
			C277.31,574.86,276.92,575.24,276.83,576z"/>
		<path class="st5" d="M282.58,580.66c-1.28,0-2.25-0.39-2.25-1.18c0-0.45,0.3-0.78,0.89-1.11c-0.19-0.15-0.27-0.32-0.27-0.52
			c0-0.26,0.21-0.52,0.6-0.75c-0.56-0.26-0.89-0.76-0.89-1.39c0-1.03,0.84-1.67,1.9-1.67c0.54,0,1,0.16,1.34,0.44l1.16-0.41
			l0.16,0.94l-0.86,0.06c0.08,0.19,0.13,0.4,0.13,0.62c0,1.02-0.87,1.63-1.89,1.63c-0.14,0-0.27,0-0.39-0.02
			c-0.12,0.08-0.19,0.17-0.19,0.25c0,0.16,0.15,0.2,0.88,0.3l0.61,0.06c0.97,0.14,1.58,0.44,1.58,1.17
			C285.06,580.09,283.95,580.66,282.58,580.66z M281.84,578.65c-0.34,0.24-0.5,0.46-0.5,0.71c0,0.35,0.42,0.61,1.31,0.61
			c0.84,0,1.32-0.28,1.32-0.64c0-0.25-0.21-0.4-0.79-0.49l-0.64-0.08C282.22,578.72,282.07,578.7,281.84,578.65z M282.56,574.8
			c-0.52,0-0.82,0.4-0.82,0.92c0,0.49,0.31,0.86,0.82,0.86c0.52,0,0.83-0.38,0.83-0.89C283.39,575.18,283.06,574.8,282.56,574.8z"/>
		<path class="st5" d="M286.56,573.35c-0.39,0-0.71-0.27-0.71-0.67c0-0.4,0.31-0.69,0.71-0.69c0.38,0,0.7,0.28,0.7,0.69
			C287.25,573.08,286.94,573.35,286.56,573.35z M285.96,578.87v-4.73h1.18v4.73H285.96z"/>
		<path class="st5" d="M290.35,578.97c-1.28,0-2.21-0.92-2.21-2.46c0-1.54,0.94-2.47,2.22-2.47c1.29,0,2.23,0.93,2.23,2.47
			C292.59,578.05,291.64,578.97,290.35,578.97z M290.35,575.02c-0.7,0-1.07,0.62-1.07,1.5c0,0.86,0.38,1.5,1.07,1.5
			c0.73,0,1.1-0.62,1.1-1.5C291.45,575.64,291.05,575.02,290.35,575.02z"/>
		<path class="st5" d="M296.41,578.87v-3.1c0-0.41-0.18-0.7-0.61-0.7c-0.37,0-0.73,0.24-1.08,0.6v3.19h-1.18v-4.73h1l0.11,0.67
			c0.44-0.42,0.94-0.76,1.58-0.76c0.88,0,1.35,0.54,1.35,1.42v3.41H296.41z"/>
		<path class="st5" d="M301.51,578.87l-0.1-0.62c-0.38,0.4-0.87,0.71-1.58,0.71c-0.8,0-1.34-0.49-1.34-1.31
			c0-1.15,0.94-1.65,2.85-1.83v-0.14c0-0.51-0.29-0.71-0.81-0.71c-0.55,0-1.07,0.16-1.58,0.38l-0.15-0.94
			c0.55-0.22,1.13-0.38,1.88-0.38c1.22,0,1.83,0.45,1.83,1.59v3.24H301.51z M301.35,576.51c-1.36,0.17-1.68,0.57-1.68,1.02
			c0,0.34,0.21,0.55,0.58,0.55c0.4,0,0.78-0.19,1.11-0.51V576.51z"/>
		<path class="st5" d="M303.74,578.87v-6.89l1.18-0.19v7.07H303.74z"/>
	</g>
	<g>
		<path class="st5" d="M265.33,590.64l-0.1-0.66c-0.33,0.4-0.79,0.75-1.45,0.75c-0.99,0-1.78-0.73-1.78-2.33
			c0-1.76,0.97-2.55,2.07-2.55c0.45,0,0.81,0.08,1.1,0.18v-2.28l1.18-0.19v7.07H265.33z M265.16,587c-0.29-0.14-0.52-0.21-0.92-0.21
			c-0.62,0-1.07,0.5-1.07,1.54c0,0.92,0.39,1.35,0.91,1.35c0.43,0,0.76-0.25,1.08-0.65V587z"/>
		<path class="st5" d="M269.6,590.73c-1.32,0-2.31-0.75-2.31-2.46c0-1.54,0.92-2.47,2.16-2.47c1.42,0,2.06,1.07,2.06,2.41
			c0,0.1-0.01,0.22-0.01,0.28h-3.05c0.06,0.93,0.56,1.32,1.28,1.32c0.61,0,1.11-0.22,1.63-0.59l0.14,0.92
			C270.98,590.51,270.36,590.73,269.6,590.73z M268.46,587.77h1.89c-0.08-0.74-0.37-1.15-0.94-1.15
			C268.94,586.62,268.55,587,268.46,587.77z"/>
		<path class="st5" d="M274.71,590.66h-1.15l-1.66-4.66l1.23-0.16l1.06,3.36l1.02-3.29h1.17L274.71,590.66z"/>
		<path class="st5" d="M279.04,590.73c-1.32,0-2.31-0.75-2.31-2.46c0-1.54,0.92-2.47,2.16-2.47c1.42,0,2.06,1.07,2.06,2.41
			c0,0.1-0.01,0.22-0.01,0.28h-3.05c0.06,0.93,0.56,1.32,1.28,1.32c0.61,0,1.11-0.22,1.63-0.59l0.14,0.92
			C280.42,590.51,279.8,590.73,279.04,590.73z M277.9,587.77h1.89c-0.08-0.74-0.37-1.15-0.94-1.15
			C278.38,586.62,277.99,587,277.9,587.77z"/>
		<path class="st5" d="M281.94,590.64v-6.89l1.18-0.19v7.07H281.94z"/>
		<path class="st5" d="M286.33,590.73c-1.28,0-2.21-0.92-2.21-2.46c0-1.54,0.94-2.47,2.22-2.47c1.29,0,2.23,0.93,2.23,2.47
			C288.57,589.81,287.62,590.73,286.33,590.73z M286.33,586.78c-0.7,0-1.07,0.62-1.07,1.5c0,0.86,0.38,1.5,1.07,1.5
			c0.73,0,1.1-0.62,1.1-1.5C287.43,587.4,287.04,586.78,286.33,586.78z"/>
		<path class="st5" d="M291.8,590.68c-0.45,0-0.81-0.08-1.1-0.19v1.78l-1.18,0.18v-6.55h1l0.11,0.65c0.33-0.38,0.79-0.74,1.45-0.74
			c0.99,0,1.78,0.74,1.78,2.33C293.87,589.9,292.89,590.68,291.8,590.68z M291.77,586.85c-0.42,0-0.75,0.26-1.07,0.67v2.03
			c0.28,0.14,0.51,0.21,0.91,0.21c0.61,0,1.07-0.5,1.07-1.54C292.68,587.3,292.3,586.85,291.77,586.85z"/>
		<path class="st5" d="M300.44,590.64v-3.1c0-0.41-0.15-0.7-0.58-0.7c-0.36,0-0.71,0.24-1.05,0.59v3.2h-1.18v-3.1
			c0-0.41-0.16-0.7-0.59-0.7c-0.36,0-0.71,0.24-1.05,0.59v3.2h-1.18v-4.73h1l0.11,0.67c0.44-0.42,0.92-0.76,1.56-0.76
			c0.68,0,1.04,0.3,1.21,0.76c0.42-0.42,0.94-0.76,1.58-0.76c0.89,0,1.33,0.54,1.33,1.42v3.41H300.44z"/>
		<path class="st5" d="M304.87,590.73c-1.32,0-2.31-0.75-2.31-2.46c0-1.54,0.92-2.47,2.16-2.47c1.42,0,2.06,1.07,2.06,2.41
			c0,0.1-0.01,0.22-0.01,0.28h-3.05c0.06,0.93,0.56,1.32,1.28,1.32c0.61,0,1.11-0.22,1.63-0.59l0.14,0.92
			C306.25,590.51,305.63,590.73,304.87,590.73z M303.73,587.77h1.89c-0.08-0.74-0.37-1.15-0.94-1.15
			C304.21,586.62,303.82,587,303.73,587.77z"/>
		<path class="st5" d="M310.58,590.64v-3.1c0-0.41-0.18-0.7-0.61-0.7c-0.37,0-0.73,0.24-1.08,0.6v3.19h-1.18v-4.73h1l0.11,0.67
			c0.44-0.42,0.94-0.76,1.58-0.76c0.88,0,1.35,0.54,1.35,1.42v3.41H310.58z"/>
		<path class="st5" d="M314.74,590.71c-0.93,0-1.56-0.34-1.56-1.42v-2.43h-0.67v-0.96h0.67v-1.5l1.16-0.18v1.67h0.97l0.15,0.96
			h-1.12v2.23c0,0.38,0.18,0.59,0.63,0.59c0.14,0,0.26-0.01,0.37-0.04l0.15,0.99C315.29,590.68,315.08,590.71,314.74,590.71z"/>
	</g>
	<g>
		<path class="st8" d="M289.56,613.54c21.31,0,38.59-17.28,38.59-38.59s-17.28-38.59-38.59-38.59c-21.31,0-38.59,17.28-38.59,38.59
			S268.24,613.54,289.56,613.54z"/>
		<path class="st12" d="M75.23,419.68c21.31,0,38.59-17.28,38.59-38.59S96.54,342.5,75.23,342.5s-38.59,17.28-38.59,38.59
			S53.92,419.68,75.23,419.68"/>
	</g>
	<g>
		<path class="st5" d="M57.1,373.5v5.63H55.8v-5.63h-2.04v-1.13h5.25l0.19,1.13H57.1z"/>
		<path class="st5" d="M60.16,376.41v2.71h-1.18v-4.73h1l0.15,0.95c0.31-0.55,0.78-1.01,1.52-1.05l0.19,1.17
			C61.1,375.51,60.49,375.91,60.16,376.41z"/>
		<path class="st5" d="M65.16,379.13l-0.1-0.62c-0.38,0.4-0.87,0.72-1.58,0.72c-0.8,0-1.34-0.49-1.34-1.31
			c0-1.15,0.94-1.65,2.85-1.83v-0.14c0-0.51-0.29-0.71-0.81-0.71c-0.55,0-1.07,0.16-1.58,0.38l-0.15-0.94
			c0.55-0.22,1.13-0.38,1.88-0.38c1.22,0,1.83,0.45,1.83,1.59v3.24H65.16z M65,376.77c-1.36,0.17-1.68,0.57-1.68,1.02
			c0,0.34,0.22,0.55,0.58,0.55c0.4,0,0.78-0.19,1.11-0.51V376.77z"/>
		<path class="st5" d="M70.2,379.13v-3.1c0-0.41-0.18-0.7-0.61-0.7c-0.37,0-0.73,0.23-1.08,0.6v3.19h-1.18v-4.73h1l0.11,0.67
			c0.44-0.42,0.94-0.76,1.58-0.76c0.88,0,1.35,0.54,1.35,1.42v3.41H70.2z"/>
		<path class="st5" d="M74.15,379.22c-0.69,0-1.39-0.22-1.84-0.46l0.16-0.98c0.51,0.33,1.14,0.56,1.72,0.56
			c0.51,0,0.78-0.19,0.78-0.49c0-0.33-0.21-0.47-0.96-0.66c-1.15-0.29-1.63-0.63-1.63-1.49c0-0.81,0.65-1.39,1.74-1.39
			c0.62,0,1.19,0.12,1.66,0.33l-0.16,0.98c-0.47-0.26-1.03-0.43-1.5-0.43c-0.44,0-0.66,0.17-0.66,0.43c0,0.25,0.18,0.39,0.88,0.58
			c1.22,0.31,1.7,0.65,1.7,1.54C76.06,378.67,75.4,379.22,74.15,379.22z"/>
		<path class="st5" d="M79.05,373.1c-0.4,0-0.62,0.18-0.62,0.6v0.7h0.9l0.15,0.96h-1.05v3.77h-1.17v-3.77h-0.69v-0.96h0.69v-0.81
			c0-1.05,0.67-1.44,1.64-1.44c0.18,0,0.34,0.02,0.48,0.04l0.16,0.96C79.42,373.12,79.25,373.1,79.05,373.1z"/>
		<path class="st5" d="M82.1,379.23c-1.28,0-2.21-0.92-2.21-2.46s0.94-2.47,2.22-2.47c1.29,0,2.23,0.93,2.23,2.47
			S83.39,379.23,82.1,379.23z M82.1,375.27c-0.7,0-1.07,0.62-1.07,1.5c0,0.86,0.38,1.5,1.07,1.5c0.73,0,1.1-0.62,1.1-1.5
			C83.2,375.9,82.81,375.27,82.1,375.27z"/>
		<path class="st5" d="M86.47,376.41v2.71H85.3v-4.73h1l0.15,0.95c0.31-0.55,0.78-1.01,1.52-1.05l0.19,1.17
			C87.41,375.51,86.81,375.91,86.47,376.41z"/>
		<path class="st5" d="M94.51,379.13v-3.1c0-0.41-0.15-0.7-0.58-0.7c-0.36,0-0.71,0.23-1.05,0.59v3.2h-1.18v-3.1
			c0-0.41-0.16-0.7-0.59-0.7c-0.36,0-0.71,0.23-1.05,0.59v3.2h-1.18v-4.73h1l0.11,0.67c0.44-0.42,0.92-0.76,1.56-0.76
			c0.68,0,1.04,0.3,1.21,0.76c0.42-0.42,0.94-0.76,1.58-0.76c0.89,0,1.33,0.54,1.33,1.42v3.41H94.51z"/>
	</g>
	<g>
		<path class="st5" d="M48.31,390.89l-0.11-0.67c-0.44,0.42-0.95,0.76-1.58,0.76c-0.89,0-1.35-0.54-1.35-1.43v-3.4h1.18v3.1
			c0,0.41,0.18,0.69,0.6,0.69c0.37,0,0.74-0.24,1.09-0.59v-3.19h1.18v4.73H48.31z"/>
		<path class="st5" d="M51.68,388.18v2.71h-1.18v-4.73h1l0.15,0.95c0.31-0.55,0.78-1.01,1.52-1.05l0.19,1.17
			C52.62,387.28,52.02,387.67,51.68,388.18z"/>
		<path class="st5" d="M56.04,390.95c-0.73,0-1.35-0.12-1.94-0.31V384l1.18-0.19v2.87c0.3-0.31,0.74-0.63,1.34-0.63
			c1,0,1.78,0.74,1.78,2.33C58.4,390.14,57.45,390.95,56.04,390.95z M56.32,387.1c-0.39,0-0.74,0.26-1.04,0.62v2.15
			c0.25,0.09,0.41,0.13,0.74,0.13c0.74,0,1.2-0.45,1.2-1.53C57.22,387.55,56.85,387.1,56.32,387.1z"/>
		<path class="st5" d="M62.12,390.89l-0.1-0.62c-0.38,0.4-0.87,0.72-1.58,0.72c-0.8,0-1.34-0.49-1.34-1.31
			c0-1.15,0.94-1.65,2.85-1.83v-0.14c0-0.51-0.29-0.71-0.81-0.71c-0.55,0-1.07,0.16-1.58,0.38l-0.15-0.94
			c0.55-0.22,1.13-0.38,1.88-0.38c1.22,0,1.83,0.45,1.83,1.59v3.24H62.12z M61.95,388.53c-1.36,0.17-1.68,0.57-1.68,1.02
			c0,0.34,0.22,0.55,0.58,0.55c0.4,0,0.78-0.19,1.11-0.51V388.53z"/>
		<path class="st5" d="M67.16,390.89v-3.1c0-0.41-0.18-0.7-0.61-0.7c-0.37,0-0.73,0.23-1.08,0.6v3.19H64.3v-4.73h1l0.11,0.67
			c0.44-0.42,0.94-0.76,1.58-0.76c0.88,0,1.35,0.54,1.35,1.42v3.41H67.16z"/>
		<path class="st5" d="M77.22,390.89v-3.1c0-0.41-0.15-0.7-0.58-0.7c-0.36,0-0.71,0.23-1.05,0.59v3.2h-1.18v-3.1
			c0-0.41-0.16-0.7-0.59-0.7c-0.36,0-0.71,0.23-1.05,0.59v3.2h-1.18v-4.73h1l0.11,0.67c0.44-0.42,0.92-0.76,1.56-0.76
			c0.68,0,1.04,0.3,1.21,0.76c0.42-0.42,0.94-0.76,1.58-0.76c0.89,0,1.33,0.54,1.33,1.42v3.41H77.22z"/>
		<path class="st5" d="M81.55,390.99c-1.28,0-2.21-0.92-2.21-2.46s0.94-2.47,2.22-2.47c1.29,0,2.23,0.93,2.23,2.47
			S82.84,390.99,81.55,390.99z M81.55,387.03c-0.7,0-1.07,0.62-1.07,1.5c0,0.86,0.38,1.5,1.07,1.5c0.73,0,1.1-0.62,1.1-1.5
			C82.64,387.66,82.25,387.03,81.55,387.03z"/>
		<path class="st5" d="M86.68,390.95c-0.73,0-1.35-0.12-1.94-0.31V384l1.18-0.19v2.87c0.3-0.31,0.74-0.63,1.34-0.63
			c1,0,1.78,0.74,1.78,2.33C89.04,390.14,88.09,390.95,86.68,390.95z M86.96,387.1c-0.39,0-0.74,0.26-1.04,0.62v2.15
			c0.25,0.09,0.41,0.13,0.74,0.13c0.74,0,1.2-0.45,1.2-1.53C87.86,387.55,87.49,387.1,86.96,387.1z"/>
		<path class="st5" d="M90.65,385.37c-0.39,0-0.71-0.27-0.71-0.67c0-0.4,0.31-0.69,0.71-0.69c0.38,0,0.7,0.28,0.7,0.69
			C91.35,385.09,91.03,385.37,90.65,385.37z M90.06,390.89v-4.73h1.18v4.73H90.06z"/>
		<path class="st5" d="M92.53,390.89V384l1.18-0.19v7.07H92.53z"/>
		<path class="st5" d="M95.59,385.37c-0.39,0-0.71-0.27-0.71-0.67c0-0.4,0.31-0.69,0.71-0.69c0.38,0,0.7,0.28,0.7,0.69
			C96.29,385.09,95.97,385.37,95.59,385.37z M95,390.89v-4.73h1.18v4.73H95z"/>
		<path class="st5" d="M99.22,390.97c-0.93,0-1.56-0.34-1.56-1.42v-2.43H97v-0.96h0.67v-1.5l1.16-0.18v1.68h0.97l0.15,0.96h-1.12
			v2.23c0,0.38,0.18,0.59,0.63,0.59c0.14,0,0.26-0.01,0.37-0.04l0.15,0.99C99.78,390.93,99.56,390.97,99.22,390.97z"/>
		<path class="st5" d="M103.09,391.14c-0.42,1.17-0.96,1.53-1.87,1.53c-0.21,0-0.32-0.02-0.43-0.05l-0.16-0.97
			c0.16,0.04,0.32,0.07,0.55,0.07c0.34,0,0.62-0.16,0.76-0.5l0.11-0.31l-1.71-4.66l1.22-0.16l1.1,3.37l1.06-3.3h1.17L103.09,391.14z
			"/>
	</g>
	<g>
		<path class="st8" d="M75.23,419.68c21.31,0,38.59-17.28,38.59-38.59S96.54,342.5,75.23,342.5s-38.59,17.28-38.59,38.59
			S53.92,419.68,75.23,419.68z"/>
		<path class="st0" d="M92.12,416.59c4.63,21.52-24.48,90.88,151.48,156.47"/>
		<polygon class="st1" points="250.33,575.57 241.17,567.76 238.29,575.48 		"/>
	</g>
	<line class="st13" x1="337.26" y1="483.88" x2="359.98" y2="483.88"/>
	<polygon class="st3" points="373.34,483.88 350.29,475.49 350.29,492.27 	"/>
	<line class="st14" x1="337.26" y1="522.14" x2="367" y2="522.14"/>
	<polygon class="st1" points="373.34,522.14 364.01,518.74 364.01,525.53 	"/>
	<g>
		<path d="M337.84,469.16v-5.52h1.06v4.58h1.84l0.14,0.94H337.84z"/>
		<path d="M341.66,469.16v-5.52h3.21v0.9h-2.16v1.31h1.66l0.14,0.89h-1.81v1.53h2.24v0.9H341.66z"/>
		<path d="M348.23,469.26c-1.75,0-2.71-1.15-2.71-2.85c0-1.71,1.01-2.87,2.69-2.87c0.7,0,1.24,0.18,1.68,0.44l-0.15,0.98
			c-0.42-0.3-0.91-0.52-1.52-0.52c-1.08,0-1.62,0.78-1.62,1.96c0,1.18,0.56,1.97,1.67,1.97c0.38,0,0.66-0.08,0.93-0.22v-1.22h-1.12
			l-0.13-0.85h2.21v2.63C349.65,469.04,348.97,469.26,348.23,469.26z"/>
		<path d="M351.25,469.16v-5.52h3.21v0.9h-2.16v1.31h1.66l0.14,0.89h-1.81v1.53h2.24v0.9H351.25z"/>
		<path d="M358.98,469.16l-2.6-3.8v3.8h-0.98v-5.52h1l2.48,3.61v-3.61h0.98v5.52H358.98z"/>
		<path d="M362.78,469.16h-1.75v-5.52h1.75c1.92,0,2.91,1.13,2.91,2.75C365.69,468.03,364.66,469.16,362.78,469.16z M362.77,464.51
			h-0.69v3.77h0.67c1.16,0,1.86-0.59,1.86-1.89C364.61,465.13,363.87,464.51,362.77,464.51z"/>
		<path d="M366.55,466.44v-1.15h1.05v1.15H366.55z M366.55,469.16V468h1.05v1.16H366.55z"/>
	</g>
	<g>
		<path d="M377.62,481.75c-0.21,0-0.38-0.18-0.38-0.38s0.18-0.38,0.38-0.38s0.38,0.18,0.38,0.38S377.83,481.75,377.62,481.75z
			 M377.35,486.44v-3.78h0.52v3.78H377.35z"/>
		<path d="M380.27,486.51c-0.5,0-1.03-0.16-1.36-0.34l0.09-0.51c0.35,0.22,0.82,0.41,1.32,0.41c0.53,0,0.86-0.22,0.86-0.61
			c0-0.38-0.22-0.54-0.98-0.74c-0.84-0.22-1.2-0.49-1.2-1.11c0-0.59,0.5-1.02,1.29-1.02c0.45,0,0.84,0.1,1.17,0.26l-0.09,0.5
			c-0.34-0.18-0.73-0.3-1.1-0.3c-0.52,0-0.77,0.22-0.77,0.54s0.21,0.47,0.85,0.64c0.9,0.24,1.33,0.53,1.33,1.2
			C381.67,486.1,381.14,486.51,380.27,486.51z"/>
		<path d="M385.96,486.52c-0.96,0-1.7-0.72-1.7-1.97c0-1.27,0.77-1.98,1.73-1.98c0.51,0,0.92,0.16,1.23,0.38l-0.09,0.53
			c-0.37-0.3-0.72-0.46-1.16-0.46c-0.72,0-1.17,0.58-1.17,1.51c0,0.94,0.46,1.51,1.23,1.51c0.4,0,0.76-0.11,1.15-0.45l0.07,0.48
			C386.88,486.37,386.47,486.52,385.96,486.52z"/>
		<path d="M388.75,484.06v2.38h-0.53v-3.78h0.39l0.12,0.78c0.28-0.42,0.72-0.84,1.34-0.86l0.09,0.5
			C389.54,483.11,389,483.56,388.75,484.06z"/>
		<path d="M391.29,481.75c-0.21,0-0.38-0.18-0.38-0.38s0.18-0.38,0.38-0.38s0.38,0.18,0.38,0.38S391.5,481.75,391.29,481.75z
			 M391.03,486.44v-3.78h0.52v3.78H391.03z"/>
		<path d="M394,486.5c-0.59,0-0.98-0.23-0.98-0.93v-2.47h-0.58v-0.45h0.58v-1.31l0.52-0.09v1.4h0.87l0.07,0.45h-0.94v2.38
			c0,0.38,0.15,0.55,0.56,0.55c0.12,0,0.26-0.02,0.35-0.04l0.08,0.44C394.42,486.47,394.22,486.5,394,486.5z"/>
		<path d="M395.79,481.75c-0.21,0-0.38-0.18-0.38-0.38s0.18-0.38,0.38-0.38s0.38,0.18,0.38,0.38S396,481.75,395.79,481.75z
			 M395.53,486.44v-3.78h0.52v3.78H395.53z"/>
		<path d="M398.82,486.52c-0.96,0-1.7-0.72-1.7-1.97c0-1.27,0.77-1.98,1.73-1.98c0.51,0,0.92,0.16,1.23,0.38l-0.09,0.53
			c-0.37-0.3-0.72-0.46-1.16-0.46c-0.72,0-1.17,0.58-1.17,1.51c0,0.94,0.46,1.51,1.23,1.51c0.4,0,0.76-0.11,1.15-0.45l0.07,0.48
			C399.74,486.37,399.34,486.52,398.82,486.52z"/>
		<path d="M403.39,486.44l-0.09-0.5c-0.35,0.33-0.79,0.58-1.34,0.58c-0.66,0-1.13-0.36-1.13-1.03c0-0.89,0.72-1.3,2.43-1.47v-0.25
			c0-0.51-0.3-0.73-0.78-0.73c-0.45,0-0.89,0.14-1.3,0.34l-0.07-0.47c0.44-0.19,0.87-0.33,1.41-0.33c0.84,0,1.27,0.39,1.27,1.17
			v2.69H403.39z M403.27,484.43c-1.49,0.15-1.9,0.51-1.9,1.02c0,0.41,0.28,0.62,0.68,0.62c0.41,0,0.86-0.22,1.22-0.57V484.43z"/>
		<path d="M405.05,486.44v-5.64l0.52-0.1v5.74H405.05z"/>
		<path d="M409.84,486.5c-0.59,0-0.98-0.23-0.98-0.93v-2.47h-0.58v-0.45h0.58v-1.31l0.52-0.09v1.4h0.87l0.07,0.45h-0.94v2.38
			c0,0.38,0.15,0.55,0.56,0.55c0.12,0,0.26-0.02,0.35-0.04l0.08,0.44C410.26,486.47,410.06,486.5,409.84,486.5z"/>
		<path d="M412.75,486.52c-0.97,0-1.7-0.72-1.7-1.97c0-1.26,0.74-1.98,1.7-1.98c0.98,0,1.72,0.72,1.72,1.98
			C414.46,485.8,413.71,486.52,412.75,486.52z M412.75,483.02c-0.75,0-1.16,0.63-1.16,1.53c0,0.87,0.42,1.52,1.16,1.52
			c0.77,0,1.17-0.62,1.17-1.52C413.92,483.68,413.5,483.02,412.75,483.02z"/>
	</g>
	<g>
		<path d="M379.91,496.04l-0.1-0.55c-0.29,0.34-0.66,0.63-1.21,0.63c-0.83,0-1.53-0.59-1.53-1.86c0-1.38,0.81-2.05,1.73-2.05
			c0.38,0,0.72,0.07,0.98,0.19v-2l0.53-0.1v5.74H379.91z M379.79,492.88c-0.3-0.15-0.58-0.22-0.97-0.22c-0.68,0-1.21,0.51-1.21,1.58
			c0,0.92,0.44,1.42,1.04,1.42c0.45,0,0.8-0.27,1.14-0.68V492.88z"/>
		<path d="M383.02,496.12c-0.99,0-1.7-0.67-1.7-1.97c0-1.22,0.7-1.97,1.63-1.97c1.03,0,1.53,0.85,1.53,1.9v0.11h-2.63
			c0.02,0.94,0.45,1.48,1.21,1.48c0.5,0,0.94-0.22,1.33-0.56l0.08,0.48C384.09,495.9,383.6,496.12,383.02,496.12z M381.87,493.77
			h2.06c-0.05-0.68-0.38-1.17-0.98-1.17C382.35,492.6,381.96,493.04,381.87,493.77z"/>
		<path d="M385.53,496.04v-5.64l0.52-0.1v5.74H385.53z"/>
		<path d="M387.67,491.35c-0.21,0-0.38-0.18-0.38-0.38s0.18-0.38,0.38-0.38s0.38,0.18,0.38,0.38S387.87,491.35,387.67,491.35z
			 M387.4,496.04v-3.78h0.52v3.78H387.4z"/>
		<path d="M390.71,496.07h-0.5l-1.38-3.77l0.52-0.1l1.12,3.21l1.09-3.17h0.54L390.71,496.07z"/>
		<path d="M394.33,496.12c-0.99,0-1.7-0.67-1.7-1.97c0-1.22,0.7-1.97,1.63-1.97c1.03,0,1.53,0.85,1.53,1.9v0.11h-2.63
			c0.02,0.94,0.45,1.48,1.21,1.48c0.5,0,0.94-0.22,1.33-0.56l0.08,0.48C395.4,495.9,394.91,496.12,394.33,496.12z M393.18,493.77
			h2.06c-0.05-0.68-0.38-1.17-0.98-1.17C393.67,492.6,393.27,493.04,393.18,493.77z"/>
		<path d="M397.31,493.66v2.38h-0.53v-3.78h0.39l0.12,0.78c0.28-0.42,0.72-0.84,1.34-0.86l0.09,0.5
			C398.1,492.71,397.57,493.16,397.31,493.66z"/>
		<path d="M400.92,496.51c-0.27,0.74-0.61,0.97-1.17,0.97c-0.08,0-0.15-0.02-0.21-0.02l-0.07-0.46c0.08,0.02,0.19,0.03,0.31,0.03
			c0.31,0,0.5-0.14,0.64-0.5l0.18-0.46l-1.43-3.76l0.51-0.1l1.17,3.22l1.12-3.17h0.54L400.92,496.51z"/>
		<path d="M406.65,496.12c-0.97,0-1.7-0.72-1.7-1.97c0-1.26,0.74-1.98,1.7-1.98c0.98,0,1.72,0.72,1.72,1.98
			C408.37,495.4,407.62,496.12,406.65,496.12z M406.65,492.62c-0.75,0-1.16,0.63-1.16,1.53c0,0.87,0.42,1.52,1.16,1.52
			c0.77,0,1.17-0.62,1.17-1.52C407.82,493.28,407.41,492.62,406.65,492.62z"/>
		<path d="M410.68,490.8c-0.36,0-0.58,0.16-0.58,0.58v0.88h0.78l0.07,0.45h-0.85v3.33h-0.52v-3.33h-0.58v-0.45h0.58v-0.92
			c0-0.7,0.42-1.02,1.06-1.02c0.12,0,0.19,0.01,0.27,0.02l0.08,0.49C410.93,490.81,410.83,490.8,410.68,490.8z"/>
	</g>
	<g>
		<path d="M378.4,505.71c-0.5,0-1.03-0.16-1.36-0.34l0.09-0.51c0.35,0.22,0.82,0.41,1.32,0.41c0.53,0,0.86-0.22,0.86-0.61
			c0-0.38-0.22-0.54-0.97-0.74c-0.84-0.22-1.2-0.49-1.2-1.11c0-0.59,0.5-1.02,1.29-1.02c0.45,0,0.84,0.1,1.17,0.26l-0.09,0.5
			c-0.34-0.18-0.73-0.3-1.1-0.3c-0.52,0-0.77,0.22-0.77,0.54s0.21,0.47,0.85,0.64c0.9,0.24,1.33,0.53,1.33,1.2
			C379.81,505.3,379.27,505.71,378.4,505.71z"/>
		<path d="M381.97,505.7c-0.59,0-0.98-0.23-0.98-0.93v-2.47h-0.58v-0.45h0.58v-1.31l0.52-0.09v1.4h0.87l0.07,0.45h-0.94v2.38
			c0,0.38,0.15,0.55,0.56,0.55c0.12,0,0.26-0.02,0.35-0.04l0.08,0.44C382.39,505.67,382.19,505.7,381.97,505.7z"/>
		<path d="M384.89,505.72c-0.99,0-1.7-0.67-1.7-1.97c0-1.22,0.7-1.97,1.63-1.97c1.03,0,1.53,0.85,1.53,1.9v0.11h-2.63
			c0.02,0.93,0.45,1.48,1.21,1.48c0.5,0,0.94-0.22,1.33-0.56l0.08,0.48C385.96,505.5,385.47,505.72,384.89,505.72z M383.74,503.37
			h2.06c-0.05-0.68-0.38-1.17-0.98-1.17C384.23,502.2,383.83,502.64,383.74,503.37z"/>
		<path d="M388.86,505.69c-0.38,0-0.71-0.07-0.98-0.18v1.51l-0.53,0.09v-5.25h0.41l0.09,0.54c0.3-0.34,0.67-0.62,1.22-0.62
			c0.82,0,1.52,0.6,1.52,1.86C390.58,505.02,389.78,505.69,388.86,505.69z M389.01,502.25c-0.45,0-0.79,0.26-1.13,0.68v2.09
			c0.3,0.14,0.58,0.22,0.97,0.22c0.68,0,1.21-0.52,1.21-1.58C390.05,502.74,389.61,502.25,389.01,502.25z"/>
		<path d="M394.89,505.72c-0.96,0-1.7-0.72-1.7-1.97c0-1.27,0.77-1.98,1.73-1.98c0.51,0,0.92,0.16,1.23,0.38l-0.09,0.53
			c-0.37-0.3-0.72-0.46-1.16-0.46c-0.72,0-1.17,0.58-1.17,1.51c0,0.93,0.46,1.51,1.23,1.51c0.4,0,0.76-0.11,1.15-0.45l0.07,0.48
			C395.81,505.58,395.4,505.72,394.89,505.72z"/>
		<path d="M399.6,505.64v-2.61c0-0.49-0.22-0.78-0.7-0.78c-0.4,0-0.81,0.25-1.22,0.66v2.73h-0.53v-5.64l0.53-0.1v2.5
			c0.39-0.34,0.82-0.62,1.33-0.62c0.75,0,1.13,0.43,1.13,1.15v2.71H399.6z"/>
		<path d="M403.64,505.64l-0.09-0.5c-0.35,0.33-0.79,0.58-1.34,0.58c-0.66,0-1.13-0.36-1.13-1.03c0-0.89,0.72-1.3,2.43-1.47v-0.25
			c0-0.51-0.3-0.73-0.78-0.73c-0.45,0-0.89,0.14-1.3,0.34l-0.07-0.47c0.44-0.19,0.87-0.33,1.41-0.33c0.84,0,1.27,0.39,1.27,1.17
			v2.69H403.64z M403.52,503.63c-1.49,0.15-1.9,0.51-1.9,1.02c0,0.41,0.28,0.62,0.68,0.62c0.41,0,0.86-0.22,1.22-0.57V503.63z"/>
		<path d="M407.7,505.64v-2.61c0-0.49-0.22-0.78-0.7-0.78c-0.4,0-0.81,0.25-1.22,0.66v2.73h-0.53v-3.78h0.41l0.09,0.56
			c0.42-0.37,0.85-0.64,1.36-0.64c0.75,0,1.13,0.43,1.13,1.16v2.7H407.7z"/>
		<path d="M410.72,507.08c-0.98,0-1.73-0.33-1.73-0.98c0-0.38,0.3-0.71,0.86-1c-0.19-0.12-0.28-0.26-0.28-0.4
			c0-0.19,0.13-0.35,0.38-0.5c-0.42-0.21-0.7-0.61-0.7-1.13c0-0.8,0.66-1.29,1.4-1.29c0.38,0,0.7,0.11,0.96,0.32l0.94-0.3l0.09,0.52
			l-0.76,0.08c0.13,0.19,0.2,0.42,0.2,0.67c0,0.8-0.66,1.29-1.42,1.29c-0.11,0-0.22-0.01-0.34-0.03c-0.16,0.09-0.24,0.18-0.24,0.27
			c0,0.15,0.15,0.21,0.85,0.34l0.28,0.06c0.84,0.15,1.29,0.4,1.29,0.96C412.52,506.67,411.7,507.08,410.72,507.08z M410.27,505.26
			c-0.52,0.24-0.76,0.5-0.76,0.8c0,0.39,0.5,0.62,1.24,0.62c0.77,0,1.26-0.3,1.26-0.67c0-0.3-0.24-0.46-0.91-0.58l-0.37-0.06
			C410.55,505.32,410.42,505.3,410.27,505.26z M410.66,502.17c-0.54,0-0.88,0.39-0.88,0.91c0,0.49,0.34,0.88,0.9,0.88
			s0.9-0.38,0.9-0.9C411.57,502.56,411.2,502.17,410.66,502.17z"/>
		<path d="M414.83,505.72c-0.99,0-1.7-0.67-1.7-1.97c0-1.22,0.7-1.97,1.63-1.97c1.03,0,1.53,0.85,1.53,1.9v0.11h-2.63
			c0.02,0.93,0.45,1.48,1.21,1.48c0.5,0,0.94-0.22,1.33-0.56l0.08,0.48C415.9,505.5,415.41,505.72,414.83,505.72z M413.67,503.37
			h2.06c-0.05-0.68-0.38-1.17-0.98-1.17C414.16,502.2,413.77,502.64,413.67,503.37z"/>
	</g>
	<g>
		<path d="M378.4,524.32c-0.5,0-1.03-0.16-1.36-0.34l0.09-0.51c0.35,0.22,0.82,0.41,1.32,0.41c0.53,0,0.86-0.22,0.86-0.61
			c0-0.38-0.22-0.54-0.97-0.74c-0.84-0.22-1.2-0.49-1.2-1.11c0-0.59,0.5-1.02,1.29-1.02c0.45,0,0.84,0.1,1.17,0.26l-0.09,0.5
			c-0.34-0.18-0.73-0.3-1.1-0.3c-0.52,0-0.77,0.22-0.77,0.54s0.21,0.47,0.85,0.64c0.9,0.24,1.33,0.53,1.33,1.2
			C379.81,523.92,379.27,524.32,378.4,524.32z"/>
		<path d="M383.34,524.25l-0.09-0.56c-0.42,0.37-0.85,0.64-1.36,0.64c-0.76,0-1.13-0.44-1.13-1.16v-2.7h0.53v2.61
			c0,0.49,0.22,0.78,0.7,0.78c0.4,0,0.81-0.24,1.22-0.65v-2.73h0.53v3.78H383.34z"/>
		<path d="M386.5,524.3c-0.38,0-0.71-0.07-0.98-0.18v1.51l-0.53,0.09v-5.25h0.41l0.09,0.54c0.3-0.34,0.67-0.62,1.22-0.62
			c0.82,0,1.52,0.6,1.52,1.86C388.22,523.64,387.42,524.3,386.5,524.3z M386.65,520.86c-0.45,0-0.79,0.26-1.13,0.68v2.09
			c0.3,0.14,0.58,0.22,0.97,0.22c0.68,0,1.21-0.52,1.21-1.58C387.69,521.36,387.25,520.86,386.65,520.86z"/>
		<path d="M390.75,524.3c-0.38,0-0.71-0.07-0.98-0.18v1.51l-0.53,0.09v-5.25h0.41l0.09,0.54c0.3-0.34,0.67-0.62,1.22-0.62
			c0.82,0,1.52,0.6,1.52,1.86C392.47,523.64,391.66,524.3,390.75,524.3z M390.9,520.86c-0.45,0-0.79,0.26-1.13,0.68v2.09
			c0.3,0.14,0.58,0.22,0.97,0.22c0.68,0,1.21-0.52,1.21-1.58C391.94,521.36,391.5,520.86,390.9,520.86z"/>
		<path d="M394.95,524.33c-0.97,0-1.7-0.72-1.7-1.97c0-1.26,0.74-1.98,1.7-1.98c0.98,0,1.72,0.72,1.72,1.98
			C396.66,523.61,395.91,524.33,394.95,524.33z M394.95,520.84c-0.75,0-1.16,0.63-1.16,1.53c0,0.87,0.42,1.52,1.16,1.52
			c0.77,0,1.17-0.62,1.17-1.52C396.12,521.49,395.71,520.84,394.95,520.84z"/>
		<path d="M398.19,521.88v2.38h-0.53v-3.78h0.39l0.12,0.78c0.28-0.42,0.72-0.84,1.34-0.86l0.09,0.5
			C398.99,520.93,398.45,521.37,398.19,521.88z"/>
		<path d="M401.65,524.32c-0.59,0-0.98-0.23-0.98-0.93v-2.47h-0.58v-0.45h0.58v-1.31l0.52-0.09v1.4h0.87l0.07,0.45h-0.94v2.38
			c0,0.38,0.15,0.55,0.56,0.55c0.12,0,0.26-0.02,0.35-0.04l0.08,0.44C402.07,524.28,401.87,524.32,401.65,524.32z"/>
		<path d="M404.22,524.32c-0.5,0-1.03-0.16-1.36-0.34l0.09-0.51c0.35,0.22,0.82,0.41,1.32,0.41c0.53,0,0.86-0.22,0.86-0.61
			c0-0.38-0.22-0.54-0.98-0.74c-0.84-0.22-1.2-0.49-1.2-1.11c0-0.59,0.5-1.02,1.29-1.02c0.45,0,0.84,0.1,1.17,0.26l-0.09,0.5
			c-0.34-0.18-0.73-0.3-1.1-0.3c-0.52,0-0.77,0.22-0.77,0.54s0.21,0.47,0.85,0.64c0.9,0.24,1.33,0.53,1.33,1.2
			C405.63,523.92,405.1,524.32,404.22,524.32z"/>
	</g>
	<g>
		<path d="M379.91,533.85l-0.1-0.55c-0.29,0.34-0.66,0.63-1.21,0.63c-0.83,0-1.53-0.59-1.53-1.86c0-1.38,0.81-2.05,1.73-2.05
			c0.38,0,0.72,0.07,0.98,0.19v-2l0.53-0.1v5.74H379.91z M379.79,530.69c-0.3-0.15-0.58-0.22-0.97-0.22c-0.68,0-1.21,0.51-1.21,1.58
			c0,0.92,0.44,1.42,1.04,1.42c0.45,0,0.8-0.27,1.14-0.68V530.69z"/>
		<path d="M383.02,533.93c-0.99,0-1.7-0.67-1.7-1.97c0-1.22,0.7-1.97,1.63-1.97c1.03,0,1.53,0.85,1.53,1.9V532h-2.63
			c0.02,0.94,0.45,1.48,1.21,1.48c0.5,0,0.94-0.22,1.33-0.56l0.08,0.48C384.09,533.72,383.6,533.93,383.02,533.93z M381.87,531.58
			h2.06c-0.05-0.68-0.38-1.17-0.98-1.17C382.35,530.41,381.96,530.85,381.87,531.58z"/>
		<path d="M385.53,533.85v-5.64l0.52-0.1v5.74H385.53z"/>
		<path d="M387.67,529.17c-0.21,0-0.38-0.18-0.38-0.38s0.18-0.38,0.38-0.38s0.38,0.18,0.38,0.38S387.87,529.17,387.67,529.17z
			 M387.4,533.85v-3.78h0.52v3.78H387.4z"/>
		<path d="M390.71,533.88h-0.5l-1.38-3.77l0.52-0.1l1.12,3.21l1.09-3.17h0.54L390.71,533.88z"/>
		<path d="M394.33,533.93c-0.99,0-1.7-0.67-1.7-1.97c0-1.22,0.7-1.97,1.63-1.97c1.03,0,1.53,0.85,1.53,1.9V532h-2.63
			c0.02,0.94,0.45,1.48,1.21,1.48c0.5,0,0.94-0.22,1.33-0.56l0.08,0.48C395.4,533.72,394.91,533.93,394.33,533.93z M393.18,531.58
			h2.06c-0.05-0.68-0.38-1.17-0.98-1.17C393.67,530.41,393.27,530.85,393.18,531.58z"/>
		<path d="M397.31,531.48v2.38h-0.53v-3.78h0.39l0.12,0.78c0.28-0.42,0.72-0.84,1.34-0.86l0.09,0.5
			C398.1,530.52,397.57,530.97,397.31,531.48z"/>
		<path d="M400.92,534.32c-0.27,0.74-0.61,0.97-1.17,0.97c-0.08,0-0.15-0.02-0.21-0.02l-0.07-0.46c0.08,0.02,0.19,0.03,0.31,0.03
			c0.31,0,0.5-0.14,0.64-0.5l0.18-0.46l-1.43-3.76l0.51-0.1l1.17,3.22l1.12-3.17h0.54L400.92,534.32z"/>
		<path d="M406.65,533.93c-0.97,0-1.7-0.72-1.7-1.97c0-1.26,0.74-1.98,1.7-1.98c0.98,0,1.72,0.72,1.72,1.98
			C408.37,533.21,407.62,533.93,406.65,533.93z M406.65,530.44c-0.75,0-1.16,0.63-1.16,1.53c0,0.87,0.42,1.52,1.16,1.52
			c0.77,0,1.17-0.62,1.17-1.52C407.82,531.09,407.41,530.44,406.65,530.44z"/>
		<path d="M410.68,528.61c-0.36,0-0.58,0.16-0.58,0.58v0.88h0.78l0.07,0.45h-0.85v3.33h-0.52v-3.33h-0.58v-0.45h0.58v-0.92
			c0-0.7,0.42-1.02,1.06-1.02c0.12,0,0.19,0.01,0.27,0.02l0.08,0.49C410.93,528.62,410.83,528.61,410.68,528.61z"/>
	</g>
	<g>
		<path d="M378.4,543.52c-0.5,0-1.03-0.16-1.36-0.34l0.09-0.51c0.35,0.22,0.82,0.41,1.32,0.41c0.53,0,0.86-0.22,0.86-0.61
			c0-0.38-0.22-0.54-0.97-0.74c-0.84-0.22-1.2-0.49-1.2-1.11c0-0.59,0.5-1.02,1.29-1.02c0.45,0,0.84,0.1,1.17,0.26l-0.09,0.5
			c-0.34-0.18-0.73-0.3-1.1-0.3c-0.52,0-0.77,0.22-0.77,0.54s0.21,0.47,0.85,0.64c0.9,0.24,1.33,0.53,1.33,1.2
			C379.81,543.11,379.27,543.52,378.4,543.52z"/>
		<path d="M381.97,543.52c-0.59,0-0.98-0.23-0.98-0.93v-2.47h-0.58v-0.45h0.58v-1.31l0.52-0.09v1.4h0.87l0.07,0.45h-0.94v2.38
			c0,0.38,0.15,0.55,0.56,0.55c0.12,0,0.26-0.02,0.35-0.04l0.08,0.44C382.39,543.48,382.19,543.52,381.97,543.52z"/>
		<path d="M384.89,543.53c-0.99,0-1.7-0.67-1.7-1.97c0-1.22,0.7-1.97,1.63-1.97c1.03,0,1.53,0.85,1.53,1.9v0.11h-2.63
			c0.02,0.94,0.45,1.48,1.21,1.48c0.5,0,0.94-0.22,1.33-0.56l0.08,0.48C385.96,543.31,385.47,543.53,384.89,543.53z M383.74,541.18
			h2.06c-0.05-0.68-0.38-1.17-0.98-1.17C384.23,540.01,383.83,540.45,383.74,541.18z"/>
		<path d="M388.86,543.5c-0.38,0-0.71-0.07-0.98-0.18v1.51l-0.53,0.09v-5.25h0.41l0.09,0.54c0.3-0.34,0.67-0.62,1.22-0.62
			c0.82,0,1.52,0.6,1.52,1.86C390.58,542.84,389.78,543.5,388.86,543.5z M389.01,540.06c-0.45,0-0.79,0.26-1.13,0.68v2.09
			c0.3,0.14,0.58,0.22,0.97,0.22c0.68,0,1.21-0.52,1.21-1.58C390.05,540.56,389.61,540.06,389.01,540.06z"/>
		<path d="M394.89,543.53c-0.96,0-1.7-0.72-1.7-1.97c0-1.27,0.77-1.98,1.73-1.98c0.51,0,0.92,0.16,1.23,0.38l-0.09,0.53
			c-0.37-0.3-0.72-0.46-1.16-0.46c-0.72,0-1.17,0.58-1.17,1.51c0,0.94,0.46,1.51,1.23,1.51c0.4,0,0.76-0.11,1.15-0.45l0.07,0.48
			C395.81,543.39,395.4,543.53,394.89,543.53z"/>
		<path d="M399.6,543.45v-2.61c0-0.49-0.22-0.78-0.7-0.78c-0.4,0-0.81,0.25-1.22,0.66v2.73h-0.53v-5.64l0.53-0.1v2.5
			c0.39-0.34,0.82-0.62,1.33-0.62c0.75,0,1.13,0.43,1.13,1.15v2.71H399.6z"/>
		<path d="M403.64,543.45l-0.09-0.5c-0.35,0.33-0.79,0.58-1.34,0.58c-0.66,0-1.13-0.36-1.13-1.03c0-0.89,0.72-1.3,2.43-1.47v-0.25
			c0-0.51-0.3-0.73-0.78-0.73c-0.45,0-0.89,0.14-1.3,0.34l-0.07-0.47c0.44-0.19,0.87-0.33,1.41-0.33c0.84,0,1.27,0.39,1.27,1.17
			v2.69H403.64z M403.52,541.44c-1.49,0.15-1.9,0.51-1.9,1.02c0,0.41,0.28,0.62,0.68,0.62c0.41,0,0.86-0.22,1.22-0.57V541.44z"/>
		<path d="M407.7,543.45v-2.61c0-0.49-0.22-0.78-0.7-0.78c-0.4,0-0.81,0.25-1.22,0.66v2.73h-0.53v-3.78h0.41l0.09,0.56
			c0.42-0.37,0.85-0.64,1.36-0.64c0.75,0,1.13,0.43,1.13,1.16v2.7H407.7z"/>
		<path d="M410.72,544.89c-0.98,0-1.73-0.33-1.73-0.98c0-0.38,0.3-0.71,0.86-1c-0.19-0.12-0.28-0.26-0.28-0.4
			c0-0.19,0.13-0.35,0.38-0.5c-0.42-0.21-0.7-0.61-0.7-1.13c0-0.8,0.66-1.29,1.4-1.29c0.38,0,0.7,0.11,0.96,0.32l0.94-0.3l0.09,0.52
			l-0.76,0.08c0.13,0.19,0.2,0.42,0.2,0.67c0,0.8-0.66,1.29-1.42,1.29c-0.11,0-0.22-0.01-0.34-0.03c-0.16,0.09-0.24,0.18-0.24,0.27
			c0,0.15,0.15,0.21,0.85,0.34l0.28,0.06c0.84,0.15,1.29,0.4,1.29,0.96C412.52,544.48,411.7,544.89,410.72,544.89z M410.27,543.07
			c-0.52,0.24-0.76,0.5-0.76,0.8c0,0.39,0.5,0.62,1.24,0.62c0.77,0,1.26-0.3,1.26-0.67c0-0.3-0.24-0.46-0.91-0.58l-0.37-0.06
			C410.55,543.13,410.42,543.11,410.27,543.07z M410.66,539.98c-0.54,0-0.88,0.39-0.88,0.91c0,0.49,0.34,0.88,0.9,0.88
			s0.9-0.38,0.9-0.9C411.57,540.37,411.2,539.98,410.66,539.98z"/>
		<path d="M414.83,543.53c-0.99,0-1.7-0.67-1.7-1.97c0-1.22,0.7-1.97,1.63-1.97c1.03,0,1.53,0.85,1.53,1.9v0.11h-2.63
			c0.02,0.94,0.45,1.48,1.21,1.48c0.5,0,0.94-0.22,1.33-0.56l0.08,0.48C415.9,543.31,415.41,543.53,414.83,543.53z M413.67,541.18
			h2.06c-0.05-0.68-0.38-1.17-0.98-1.17C414.16,540.01,413.77,540.45,413.67,541.18z"/>
	</g>
</g>
</svg>
