<?xml version="1.0" encoding="utf-8"?>
<!-- Generator: Adobe Illustrator 24.0.0, SVG Export Plug-In . SVG Version: 6.00 Build 0)  -->
<svg version="1.1" id="Layer_1" xmlns="http://www.w3.org/2000/svg" xmlns:xlink="http://www.w3.org/1999/xlink" x="0px" y="0px"
	 viewBox="0 0 595.28 841.89" style="enable-background:new 0 0 595.28 841.89;" xml:space="preserve">
<style type="text/css">
	.st0{opacity:0.5;}
	.st1{fill:#E5E4DB;}
	.st2{fill:#003F65;}
	.st3{font-family:'Whitney-Bold';}
	.st4{font-size:16.613px;}
	.st5{font-size:16.6129px;}
	.st6{font-family:'Whitney-Book';}
	.st7{font-size:12.9931px;}
	.st8{font-size:16.7827px;}
	.st9{font-size:16.7826px;}
	.st10{font-size:16.7828px;}
	.st11{fill:#FFFFFF;}
	.st12{fill:none;stroke:#003F65;stroke-width:2.696;stroke-linecap:round;stroke-linejoin:round;stroke-dasharray:0,7.964;}
	.st13{fill:none;stroke:#003F65;stroke-width:2.696;stroke-linecap:round;stroke-linejoin:round;stroke-dasharray:0,8.218;}
	.st14{fill:none;stroke:#003F65;stroke-width:2.696;stroke-linecap:round;stroke-linejoin:round;}
	.st15{fill:none;stroke:#003F65;stroke-width:2.696;stroke-linecap:round;stroke-linejoin:round;stroke-dasharray:0,8.069;}
	.st16{fill:none;stroke:#003F65;stroke-width:2.696;stroke-linecap:round;stroke-linejoin:round;stroke-dasharray:0,8.027;}
	.st17{fill:none;stroke:#003F65;stroke-width:2.696;stroke-linecap:round;stroke-linejoin:round;stroke-dasharray:0,8.196;}
	.st18{fill:#95806C;}
	.st19{font-family:'Whitney-Black';}
	.st20{font-size:10.0235px;}
	.st21{font-size:11.232px;}
	.st22{fill:#00B5D8;}
	.st23{fill:#80C28F;}
</style>
<g>
	<g>
		<g class="st0">
			<g>
				<path class="st1" d="M198.41,208.04l17.91-20.74l-20.38-18.47l0.61,10.26c-71.38,8.74-127.58,69.62-129.52,145.01
					c-0.79,30.64,7.51,59.36,22.38,83.52l15.63-9.53c-12.97-21.15-20.49-46.71-19.8-73.5c1.69-65.69,50.38-118.8,112.41-126.95
					L198.41,208.04z M210.93,459.54c-35.64-0.95-67.48-16.55-90.23-40.97l7.58-5.99l-24.53-3.07l-0.6-0.62l0.01,0.54l-0.38-0.05
					l-1.47,24.5l4.94-3.9c26.03,28.63,62.89,46.99,104.21,48.09c52.13,1.39,98.61-25.01,125.86-65.94l-15.9-9.17
					C296.43,438.15,256.1,460.74,210.93,459.54 M361.6,331.97c2.08-80.96-59.17-148.59-137.85-153.68l-0.48,18.55
					c68.62,4.82,121.93,63.93,120.12,134.65c-0.47,18.18-4.56,35.39-11.52,50.96l-8.89-4.23l9.13,25.64l24.51-9.62l-8.27-3.94
					C356.34,372.47,361.06,352.79,361.6,331.97"/>
			</g>
		</g>
	</g>
	<g>
		<path class="st2" d="M172.05,498.3c-1.49-0.39-2.66-1.04-3.65-1.85l1.02-2.24c0.98,0.91,2.14,1.66,3.25,1.95
			c0.79,0.21,1.42,0.01,1.59-0.65c0.17-0.63-0.08-1-1.48-2c-1.99-1.43-2.77-2.41-2.29-4.24c0.56-2.14,2.53-2.84,4.65-2.28
			c1.45,0.38,2.31,0.9,3.15,1.62l-1.03,2.21c-0.84-0.84-1.8-1.44-2.66-1.66c-0.84-0.22-1.33,0.03-1.46,0.54
			c-0.15,0.56,0.09,0.92,1.33,1.81c2.2,1.52,2.92,2.61,2.46,4.37C176.3,498.28,174.25,498.88,172.05,498.3z"/>
	</g>
	<g>
		<path class="st2" d="M184.83,491.75l-1.74,8.89l-2.8-0.55l1.74-8.89l-3.18-0.62l0.46-2.37l8.9,1.74l-0.07,2.44L184.83,491.75z"/>
	</g>
	<g>
		<path class="st2" d="M191.4,490.34l3.09,0.44l2.37,11.62l-2.9,0.05l-0.49-2.59l-3.95-0.56l-1.09,2.24l-2.75-0.39L191.4,490.34z
			 M190.52,497.2l2.57,0.37l-0.7-4.13L190.52,497.2z"/>
	</g>
	<g>
		<path class="st2" d="M203.22,494.03l-0.6,9.04l-2.85-0.19l0.6-9.04l-3.23-0.21l0.16-2.4l9.05,0.6l0.24,2.43L203.22,494.03z"/>
	</g>
	<g>
		<path class="st2" d="M212.29,503.56c-2.81-0.01-4.76-1.53-4.75-4.74l0.03-6.93l2.86,0.01l-0.03,6.91
			c-0.01,1.48,0.66,2.35,1.94,2.35c1.3,0,1.95-0.84,1.95-2.3l0.03-6.95l2.86,0.01l-0.03,6.91
			C217.13,502.03,215.06,503.57,212.29,503.56z"/>
	</g>
	<g>
		<path class="st2" d="M223.08,503.17c-1.54,0.11-2.86-0.13-4.06-0.58l0.24-2.45c1.22,0.55,2.56,0.88,3.71,0.8
			c0.81-0.06,1.35-0.45,1.3-1.13c-0.05-0.65-0.4-0.92-2.05-1.42c-2.35-0.72-3.4-1.39-3.53-3.28c-0.16-2.2,1.48-3.5,3.67-3.66
			c1.49-0.11,2.47,0.11,3.5,0.52l-0.26,2.42c-1.07-0.52-2.17-0.78-3.05-0.72c-0.86,0.06-1.25,0.46-1.21,0.99
			c0.04,0.58,0.38,0.84,1.84,1.28c2.57,0.74,3.61,1.53,3.74,3.35C227.1,501.79,225.35,503.01,223.08,503.17z"/>
	</g>
	<text transform="matrix(0.9942 -0.1076 0.1076 0.9942 227.8872 502.6615)" class="st2 st3 st4"> </text>
	<g>
		<path class="st2" d="M240.31,500.08l2.78,0.42l-0.15,2.48l-6.71-1.28c-2.76-0.52-4.37-2.1-4.84-5.09
			c-0.56-3.51,1.22-6.23,4.48-6.75c3.25-0.51,5.75,1.38,6.3,4.84C242.55,497.07,241.8,498.96,240.31,500.08z M236.2,492.07
			c-1.64,0.26-2.35,1.92-2.01,4.1c0.34,2.18,1.56,3.57,3.18,3.31c1.66-0.26,2.35-1.95,2-4.14S237.84,491.81,236.2,492.07z"/>
	</g>
	<g>
		<path class="st2" d="M249.73,499.22c-2.73,0.64-4.99-0.38-5.72-3.51l-1.58-6.75l2.78-0.65l1.58,6.73
			c0.34,1.44,1.18,2.13,2.43,1.84c1.26-0.3,1.7-1.27,1.36-2.69l-1.58-6.76l2.78-0.65l1.58,6.73
			C254.09,496.62,252.44,498.59,249.73,499.22z"/>
	</g>
	<g>
		<path class="st2" d="M261.59,495.98c-3.14,0.98-5.92-0.66-6.97-4.03c-1.06-3.39,0.28-6.34,3.45-7.33s5.93,0.65,6.99,4.03
			S264.78,494.98,261.59,495.98z M258.72,486.74c-1.57,0.49-2.07,2.16-1.39,4.34s2.05,3.26,3.62,2.77c1.59-0.5,2.07-2.16,1.39-4.34
			S260.3,486.25,258.72,486.74z"/>
	</g>
	<text transform="matrix(0.9346 -0.3557 0.3557 0.9346 267.6874 493.7005)" class="st2 st3 st5"> </text>
	<text transform="matrix(0.7771 -0.6293 0.6293 0.7771 104.875 220.0094)" class="st2 st6 st7"> </text>
	<g>
		<path class="st2" d="M61.25,273.18c-0.48,1.48-1.21,2.63-2.08,3.58l-2.2-1.16c0.97-0.94,1.8-2.06,2.16-3.16
			c0.25-0.78,0.09-1.43-0.56-1.65c-0.62-0.2-1.01,0.02-2.11,1.38c-1.56,1.93-2.59,2.65-4.41,2.06c-2.12-0.69-2.72-2.72-2.03-4.83
			c0.47-1.44,1.04-2.27,1.81-3.08l2.16,1.16c-0.9,0.8-1.55,1.74-1.83,2.58c-0.27,0.83-0.05,1.34,0.46,1.51
			c0.56,0.18,0.93-0.03,1.9-1.24c1.66-2.13,2.8-2.8,4.55-2.23C61.48,268.89,61.96,270.99,61.25,273.18z"/>
	</g>
	<g>
		<path class="st2" d="M56.42,259.46l8.51,3.34l-1.06,2.69l-8.51-3.34l-1.2,3.05l-2.27-0.89l3.35-8.53l2.41,0.51L56.42,259.46z"/>
	</g>
	<g>
		<path class="st2" d="M66.78,258.48l-10.5-4.88l3.04-6.54l2.1,0.98l-1.85,3.99l1.93,0.9l1.41-3.04l2.24,0.63l-1.57,3.38l2.27,1.05
			l1.92-4.12l2.12,0.98L66.78,258.48z"/>
	</g>
	<g>
		<path class="st2" d="M68.98,245.38l-0.35,0.65l3.38,1.83l-1.37,2.52l-10.19-5.51l1.77-3.28c1.34-2.48,3.27-3.4,5.49-2.2
			C70.02,240.63,70.31,242.91,68.98,245.38z M64.06,242.77l-0.34,0.63l3,1.62l0.32-0.59c0.61-1.12,0.46-2.01-0.59-2.57
			C65.46,241.33,64.66,241.65,64.06,242.77z"/>
	</g>
	<text transform="matrix(0.5187 -0.855 0.855 0.5187 74.7824 242.8695)" class="st2 st3 st8"> </text>
	<g>
		<path class="st2" d="M80.15,234.71c-1.93,2.93-5.06,3.4-8.08,1.41c-3-1.98-3.78-5.18-1.97-7.93c0.72-1.09,1.54-1.82,2.39-2.26
			l1.94,1.76c-0.84,0.29-1.65,0.8-2.21,1.64c-0.96,1.46-0.48,3.14,1.41,4.39c1.93,1.27,3.71,0.9,4.67-0.56
			c0.52-0.78,0.7-1.65,0.78-2.64l2.17,0.98C81.16,232.56,80.85,233.65,80.15,234.71z"/>
	</g>
	<g>
		<path class="st2" d="M86.94,225.03l-3.75-2.89l-2.45,3.18l3.75,2.89l-1.75,2.27l-9.17-7.07l1.75-2.27l3.43,2.64l2.45-3.18
			l-3.43-2.64l1.76-2.29l9.17,7.07L86.94,225.03z"/>
	</g>
	<g>
		<path class="st2" d="M83.57,210.85l2.11-2.35l11.08,4.54l-1.58,2.46l-2.44-1.05l-2.69,3l1.27,2.18l-1.87,2.08L83.57,210.85z
			 M88.83,215.44l1.75-1.95l-3.86-1.73L88.83,215.44z"/>
	</g>
	<g>
		<path class="st2" d="M103.1,207.32l-8.11-1.75l4.85,4.95l-1.91,1.87l-8.11-8.27l1.99-1.95l7.58,1.64l-4.54-4.63l1.91-1.87
			l8.11,8.27L103.1,207.32z"/>
	</g>
	<g>
		<path class="st2" d="M110.66,200.96c-2.81,2.37-5.92,1.83-8.22-0.91c-2.31-2.75-2.2-6.03,0.54-8.33c1.09-0.92,2.22-1.43,3.26-1.63
			l1.32,2.16c-1.02,0.14-2.09,0.46-3,1.23c-1.53,1.29-1.32,3.04,0.07,4.7c1.41,1.67,3.16,2.19,4.69,0.9
			c0.49-0.41,0.75-0.81,0.96-1.29l-1.33-1.58l-1.54,1.3l-1.63-1.42l3.71-3.12l3.63,4.31C112.69,198.68,111.88,199.93,110.66,200.96z
			"/>
	</g>
	<g>
		<path class="st2" d="M115.31,196.92l-6.88-9.31l5.8-4.29l1.38,1.86l-3.54,2.61l1.27,1.71l2.7-1.99l1.66,1.63l-3,2.21l1.49,2.01
			l3.66-2.7l1.39,1.88L115.31,196.92z"/>
	</g>
	<g>
		<path class="st2" d="M125.64,189.8c-1.31,0.85-2.59,1.27-3.87,1.46l-0.97-2.29c1.35-0.11,2.7-0.46,3.67-1.09
			c0.69-0.45,0.98-1.05,0.61-1.63c-0.35-0.55-0.8-0.62-2.51-0.26c-2.43,0.51-3.68,0.42-4.72-1.19c-1.21-1.88-0.39-3.82,1.47-5.03
			c1.27-0.82,2.24-1.11,3.35-1.24l0.94,2.27c-1.2,0.06-2.3,0.37-3.05,0.85c-0.73,0.47-0.88,1.01-0.59,1.46
			c0.32,0.49,0.74,0.56,2.25,0.24c2.63-0.6,3.94-0.4,4.94,1.15C128.52,186.62,127.57,188.55,125.64,189.8z"/>
	</g>
	<text transform="matrix(0.7918 0.6107 -0.6107 0.7918 307.8193 195.3255)" class="st2 st3 st8"> </text>
	<text transform="matrix(0.7841 0.6206 -0.6206 0.7841 310.5982 197.466)" class="st2 st3 st8"> </text>
	<text transform="matrix(0.7683 0.64 -0.64 0.7683 313.3439 199.6485)" class="st2 st3 st8"> </text>
	<text transform="matrix(0.752 0.6591 -0.6591 0.752 316.0423 201.8905)" class="st2 st3 st8"> </text>
	<text transform="matrix(0.7352 0.6778 -0.6778 0.7352 318.6912 204.1907)" class="st2 st3 st8"> </text>
	<text transform="matrix(0.7266 0.687 -0.687 0.7266 321.2711 206.5669)" class="st2 st3 st8"> </text>
	<text transform="matrix(0.7091 0.7051 -0.7051 0.7091 323.8142 208.9831)" class="st2 st3 st8"> </text>
	<text transform="matrix(0.691 0.7228 -0.7228 0.691 326.305 211.4523)" class="st2 st3 st8"> </text>
	<text transform="matrix(0.6819 0.7315 -0.7315 0.6819 328.7261 213.9904)" class="st2 st3 st8"> </text>
	<text transform="matrix(0.6631 0.7485 -0.7485 0.6631 331.105 216.5685)" class="st2 st3 st8"> </text>
	<text transform="matrix(0.644 0.7651 -0.7651 0.644 333.4276 219.196)" class="st2 st3 st9"> </text>
	<text transform="matrix(0.6244 0.7811 -0.7811 0.6244 335.695 221.8721)" class="st2 st3 st8"> </text>
	<text transform="matrix(0.6144 0.789 -0.789 0.6144 337.8871 224.612)" class="st2 st3 st10"> </text>
	<text transform="matrix(0.5943 0.8043 -0.8043 0.5943 340.0335 227.3851)" class="st2 st3 st8"> </text>
	<text transform="matrix(0.5737 0.819 -0.819 0.5737 342.1231 230.203)" class="st2 st3 st8"> </text>
	<text transform="matrix(0.5633 0.8262 -0.8262 0.5633 344.1334 233.0774)" class="st2 st3 st8"> </text>
	<text transform="matrix(0.5423 0.8402 -0.8402 0.5423 346.0938 235.9852)" class="st2 st3 st8"> </text>
	<text transform="matrix(0.5209 0.8536 -0.8536 0.5209 347.9926 238.9346)" class="st2 st3 st8"> </text>
	<text transform="matrix(0.4993 0.8664 -0.8664 0.4993 349.8268 241.9248)" class="st2 st3 st8"> </text>
	<text transform="matrix(0.4883 0.8726 -0.8726 0.4883 351.5766 244.9653)" class="st2 st3 st8"> </text>
	<text transform="matrix(0.4663 0.8846 -0.8846 0.4663 353.2749 248.0337)" class="st2 st3 st8"> </text>
	<text transform="matrix(0.444 0.896 -0.896 0.444 354.9066 251.1398)" class="st2 st3 st8"> </text>
	<text transform="matrix(0.4215 0.9068 -0.9068 0.4215 356.4692 254.2793)" class="st2 st3 st8"> </text>
	<text transform="matrix(0.3988 0.917 -0.917 0.3988 357.9638 257.4537)" class="st2 st3 st8"> </text>
	<text transform="matrix(0.3873 0.9219 -0.9219 0.3873 359.3646 260.6695)" class="st2 st3 st8"> </text>
	<text transform="matrix(0.3644 0.9313 -0.9313 0.3644 360.7137 263.9066)" class="st2 st3 st8"> </text>
	<g>
		<path class="st11" d="M212.01,328.42V206.34c-9.84,0.62-23.82,2.45-33.43,5.48c-9.61,3.04-18.86,7.36-27.74,12.98
			c-9.33,5.96-17.56,12.89-24.7,20.78c-7.14,7.9-13.07,16.44-17.79,25.63c-4.72,9.19-8.21,18.84-10.45,28.96s-3.2,20.35-2.87,30.69
			c0.34,10.34,2.04,20.61,5.1,30.82c3.06,10.2,6.11,17.02,12.07,26.35L212.01,328.42z"/>
		<path class="st11" d="M216.26,337.04l-98.67,59.24c5.36,7.92,11.67,16.45,18.95,22.99c7.27,6.54,15.44,12.14,24.52,16.8
			c9.58,4.87,19.42,8.34,29.54,10.42c10.12,2.08,20.18,2.83,30.19,2.25c10.01-0.58,19.79-2.42,29.36-5.52
			c9.57-3.1,18.59-7.34,27.07-12.72c8.48-5.38,16.23-11.86,23.25-19.44c7.02-7.59,9.21-11.19,15.68-21.24L216.26,337.04z"/>
		<path class="st11" d="M220.63,328.42l101.25,52.06c4.78-8.6,5.98-13.85,8.56-23.57c2.58-9.72,3.88-19.87,3.88-30.43
			c0-11.07-1.43-21.74-4.3-31.99c-2.87-10.26-6.91-19.84-12.14-28.75c-5.23-8.91-11.51-17.03-18.84-24.36
			c-7.34-7.33-15.46-13.61-24.37-18.84c-8.91-5.23-18.49-9.27-28.75-12.14c-10.26-2.87-14.22-4.05-25.29-4.05V328.42z"/>
	</g>
	<line class="st12" x1="314.82" y1="389.64" x2="219.75" y2="339.4"/>
	<line class="st13" x1="209.27" y1="341.9" x2="115.2" y2="400.71"/>
	<path class="st14" d="M111.72,402.89L111.72,402.89 M216.23,337.54L216.23,337.54 M321.86,393.36L321.86,393.36"/>
	<line class="st15" x1="220.86" y1="207.39" x2="220.86" y2="324.4"/>
	<line class="st16" x1="228" y1="332.1" x2="324.37" y2="381.65"/>
	<path class="st14" d="M327.93,383.49L327.93,383.49 M220.86,328.43L220.86,328.43 M220.86,199.32L220.86,199.32"/>
	<line class="st17" x1="113.23" y1="387.26" x2="208.23" y2="330.53"/>
	<line class="st15" x1="211.75" y1="320.36" x2="211.75" y2="203.36"/>
	<path class="st14" d="M211.75,199.32L211.75,199.32 M211.75,328.43L211.75,328.43 M106.19,391.46L106.19,391.46"/>
	<text transform="matrix(0.2974 -0.9548 0.9548 0.2974 49.2924 284.4757)" class="st2 st3 st8"> </text>
	<text transform="matrix(0.5187 -0.855 0.855 0.5187 75.8196 242.6367)" class="st2 st3 st8"> </text>
	<text transform="matrix(0.5706 -0.8213 0.8213 0.5706 81.4739 233.7637)" class="st2 st3 st8"> </text>
	<g>
		<path class="st2" d="M313.8,199.97l0.38-6.72l-3.34,4.22l-2.25-1.78l7.19-9.08l2.25,1.78l-3.07,3.88l5.92-1.63l2.53,2l-6.56,1.66
			l-0.3,7.23L313.8,199.97z"/>
	</g>
	<g>
		<path class="st2" d="M317.09,202.52l7.74-8.61l5.37,4.82l-1.55,1.72l-3.27-2.94l-1.43,1.59l2.5,2.24l-1.26,1.96l-2.77-2.49
			l-1.67,1.86l3.38,3.04l-1.56,1.74L317.09,202.52z"/>
	</g>
	<g>
		<path class="st2" d="M331.02,209.85l-3.04,2.98l-2.02-2.06l3.02-2.96l2.24-7.79l2.44,1.89l-1.68,5.17l5.08-1.53l2.1,2.15
			L331.02,209.85z"/>
	</g>
	<text transform="matrix(0.6631 0.7485 -0.7485 0.6631 330.8616 215.8822)" class="st2 st3 st8"> </text>
	<g>
		<path class="st2" d="M336.5,222.41l-2.58-3.14l8.96-7.35l2.53,3.09c2.55,3.12,2.08,6.22-0.58,8.4
			C342.17,225.6,338.98,225.43,336.5,222.41z M343.63,216.36l-0.66-0.8l-5.5,4.51l0.66,0.8c1.3,1.58,2.94,1.89,4.86,0.31
			C344.87,219.65,344.88,217.88,343.63,216.36z"/>
	</g>
	<g>
		<path class="st2" d="M344.77,233.57l1.89-4.44l-0.41-0.59l-3.26,2.28l-1.64-2.34l9.49-6.64l2.32,3.31
			c1.61,2.3,1.51,4.38-0.45,5.74c-1.32,0.92-2.68,0.89-3.95,0.1l-1.88,4.74L344.77,233.57z M351.22,226.16l-0.53-0.76l-2.76,1.94
			l0.51,0.73c0.71,1.02,1.61,1.25,2.52,0.61C351.84,228.07,351.93,227.18,351.22,226.16z"/>
	</g>
	<g>
		<path class="st2" d="M347.24,237.06l9.73-6.28l1.56,2.41l-9.73,6.28L347.24,237.06z"/>
	</g>
	<g>
		<path class="st2" d="M352.97,246.69l-1.43-2.56l7.86-9.05l1.93,2.5l-5.83,6.22l8.22-1.71l1.45,2.59L352.97,246.69z"/>
	</g>
	<g>
		<path class="st2" d="M355.61,251.47l10.44-5.01l3.12,6.51l-2.09,1l-1.9-3.96l-1.92,0.92l1.45,3.03l-1.91,1.33l-1.61-3.36
			l-2.25,1.08l1.97,4.1l-2.1,1.01L355.61,251.47z"/>
	</g>
	<g>
		<path class="st2" d="M361.68,265.29l2.84-3.9l-0.27-0.67l-3.69,1.49l-1.07-2.64l10.73-4.35l1.52,3.75c1.05,2.6,0.49,4.6-1.72,5.5
			c-1.49,0.61-2.81,0.27-3.87-0.79l-2.9,4.2L361.68,265.29z M369.62,259.51l-0.35-0.85l-3.13,1.27l0.33,0.82
			c0.47,1.15,1.29,1.58,2.32,1.16C369.8,261.51,370.09,260.66,369.62,259.51z"/>
	</g>
	<g>
		<path class="st2" d="M364.33,272.6c-0.5-1.48-0.59-2.83-0.46-4.11l2.46-0.38c-0.23,1.33-0.22,2.73,0.15,3.83
			c0.26,0.78,0.78,1.21,1.43,0.99c0.62-0.21,0.8-0.62,0.87-2.36c0.11-2.48,0.5-3.67,2.32-4.28c2.12-0.71,3.8,0.57,4.51,2.67
			c0.48,1.43,0.52,2.45,0.38,3.56l-2.43,0.35c0.24-1.18,0.21-2.32-0.07-3.16c-0.28-0.83-0.76-1.11-1.27-0.94
			c-0.56,0.19-0.73,0.58-0.79,2.13c-0.07,2.7-0.58,3.91-2.33,4.5C366.7,276.18,365.06,274.78,364.33,272.6z"/>
	</g>
	<text transform="matrix(0.2828 0.9592 -0.9592 0.2828 365.8957 276.979)" class="st2 st3 st8"> </text>
	<g>
		<path class="st18" d="M206.4,372.72c-1.01,0-1.83-0.21-2.63-0.55l0.3-1.67c0.81,0.4,1.66,0.66,2.36,0.66
			c0.4,0,0.66-0.14,0.66-0.44c0-0.29-0.17-0.43-1.11-0.76c-1.41-0.5-2.06-0.96-2.06-2.18c0-1.42,1.11-2.14,2.48-2.14
			c1,0,1.61,0.17,2.3,0.49l-0.3,1.66c-0.72-0.39-1.43-0.59-1.95-0.59c-0.41,0-0.61,0.14-0.61,0.38c0,0.27,0.16,0.41,0.94,0.67
			c1.57,0.52,2.23,1.07,2.23,2.21C208.99,372.1,207.8,372.72,206.4,372.72z"/>
		<path class="st18" d="M213.22,367.43v5.21h-2.06v-5.21h-1.85v-1.7h5.56l0.28,1.7H213.22z"/>
		<path class="st18" d="M216.8,365.69h2.3l2.3,6.7l-2.08,0.32l-0.4-1.23h-2.18l-0.34,1.16h-1.98L216.8,365.69z M217.18,369.92h1.27
			l-0.62-2.19L217.18,369.92z"/>
		<path class="st18" d="M224.77,367.43v5.21h-2.06v-5.21h-1.85v-1.7h5.56l0.28,1.7H224.77z"/>
		<path class="st18" d="M227.34,372.64v-6.92h4.56v1.61h-2.56v0.95h1.93l0.25,1.59h-2.19v1.14h2.65v1.61H227.34z"/>
	</g>
	<text transform="matrix(1 0 0 1 234.3232 372.641)" class="st18 st19 st20"> </text>
	<g>
		<path class="st2" d="M177.31,384.68v-3.71h-4.3v3.71h-0.77v-7.75h0.77v3.35h4.3v-3.35h0.77v7.75H177.31z"/>
		<path class="st2" d="M182.04,384.79c-1.36,0-2.38-1.01-2.38-2.76c0-1.76,1.04-2.77,2.38-2.77c1.38,0,2.41,1.01,2.41,2.77
			C184.46,383.78,183.4,384.79,182.04,384.79z M182.04,379.88c-1.06,0-1.63,0.89-1.63,2.15c0,1.22,0.58,2.13,1.63,2.13
			c1.08,0,1.65-0.88,1.65-2.13C183.69,380.8,183.11,379.88,182.04,379.88z"/>
		<path class="st2" d="M190.92,384.71h-0.62l-1.35-4.36l-1.34,4.36H187l-1.76-5.3l0.71-0.13l1.37,4.41l1.34-4.35h0.64l1.34,4.35
			l1.33-4.32h0.74L190.92,384.71z"/>
		<path class="st2" d="M201.63,384.71h-0.62l-1.35-4.36l-1.34,4.36h-0.62l-1.76-5.3l0.71-0.13l1.37,4.41l1.34-4.35H200l1.34,4.35
			l1.33-4.32h0.74L201.63,384.71z"/>
		<path class="st2" d="M206.55,384.79c-1.39,0-2.39-0.94-2.39-2.77c0-1.71,0.99-2.76,2.29-2.76c1.45,0,2.15,1.19,2.15,2.66v0.16
			h-3.69c0.02,1.31,0.63,2.08,1.7,2.08c0.71,0,1.33-0.31,1.88-0.79l0.11,0.67C208.06,384.49,207.37,384.79,206.55,384.79z
			 M204.93,381.49h2.9c-0.07-0.95-0.53-1.64-1.38-1.64C205.62,379.85,205.07,380.47,204.93,381.49z"/>
		<path class="st2" d="M210.08,384.68v-7.93l0.73-0.13v8.06H210.08z"/>
		<path class="st2" d="M212.71,384.68v-7.93l0.73-0.13v8.06H212.71z"/>
		<path class="st2" d="M218.24,378.1c-0.29,0-0.54-0.25-0.54-0.54s0.25-0.54,0.54-0.54s0.53,0.25,0.53,0.54
			S218.54,378.1,218.24,378.1z M217.87,384.68v-5.31h0.73v5.31H217.87z"/>
		<path class="st2" d="M221.96,384.78c-0.71,0-1.45-0.22-1.91-0.48l0.12-0.72c0.49,0.31,1.15,0.57,1.85,0.57
			c0.74,0,1.2-0.31,1.2-0.85c0-0.53-0.31-0.76-1.37-1.04c-1.18-0.3-1.68-0.69-1.68-1.56c0-0.83,0.71-1.44,1.81-1.44
			c0.63,0,1.18,0.15,1.65,0.36l-0.12,0.71c-0.48-0.26-1.02-0.42-1.55-0.42c-0.73,0-1.08,0.31-1.08,0.75s0.29,0.66,1.19,0.9
			c1.26,0.34,1.86,0.74,1.86,1.68C223.94,384.2,223.18,384.78,221.96,384.78z"/>
		<path class="st2" d="M229.51,384.77c-0.83,0-1.38-0.33-1.38-1.3v-3.47h-0.82v-0.63h0.82v-1.84l0.73-0.12v1.97h1.22l0.1,0.63h-1.33
			v3.35c0,0.54,0.21,0.77,0.79,0.77c0.17,0,0.37-0.03,0.49-0.06l0.11,0.62C230.09,384.72,229.82,384.77,229.51,384.77z"/>
		<path class="st2" d="M235.02,384.68v-3.66c0-0.69-0.31-1.1-0.99-1.1c-0.56,0-1.13,0.35-1.72,0.92v3.84h-0.74v-7.93l0.74-0.13v3.5
			c0.55-0.48,1.15-0.86,1.86-0.86c1.06,0,1.58,0.61,1.58,1.62v3.81H235.02z"/>
		<path class="st2" d="M239.52,384.79c-1.39,0-2.39-0.94-2.39-2.77c0-1.71,0.99-2.76,2.29-2.76c1.45,0,2.15,1.19,2.15,2.66v0.16
			h-3.69c0.02,1.31,0.63,2.08,1.7,2.08c0.71,0,1.33-0.31,1.88-0.79l0.11,0.67C241.02,384.49,240.34,384.79,239.52,384.79z
			 M237.9,381.49h2.9c-0.07-0.95-0.53-1.64-1.38-1.64C238.58,379.85,238.03,380.47,237.9,381.49z"/>
		<path class="st2" d="M245.58,384.68v-7.93l0.73-0.13v8.06H245.58z"/>
		<path class="st2" d="M251.38,384.68l-0.12-0.71c-0.49,0.46-1.11,0.82-1.88,0.82c-0.92,0-1.58-0.51-1.58-1.45
			c0-1.25,1.01-1.83,3.41-2.07v-0.35c0-0.72-0.43-1.02-1.1-1.02c-0.63,0-1.25,0.19-1.83,0.47l-0.1-0.66
			c0.62-0.27,1.22-0.46,1.98-0.46c1.18,0,1.79,0.55,1.79,1.64v3.78H251.38z M251.21,381.86c-2.09,0.21-2.67,0.72-2.67,1.44
			c0,0.57,0.39,0.86,0.95,0.86c0.57,0,1.2-0.31,1.72-0.8V381.86z"/>
		<path class="st2" d="M257.07,384.68v-3.66c0-0.69-0.31-1.1-0.99-1.1c-0.56,0-1.13,0.35-1.72,0.92v3.84h-0.74v-5.31h0.57l0.12,0.79
			c0.58-0.52,1.19-0.9,1.91-0.9c1.06,0,1.58,0.61,1.58,1.63v3.8H257.07z"/>
		<path class="st2" d="M263.17,384.68l-0.13-0.77c-0.4,0.48-0.93,0.89-1.71,0.89c-1.17,0-2.15-0.83-2.15-2.62
			c0-1.94,1.13-2.89,2.43-2.89c0.54,0,1.01,0.1,1.38,0.27v-2.81l0.74-0.13v8.06H263.17z M262.99,380.24
			c-0.42-0.21-0.81-0.31-1.36-0.31c-0.95,0-1.7,0.72-1.7,2.21c0,1.29,0.62,1.99,1.46,1.99c0.63,0,1.12-0.38,1.59-0.95V380.24z"/>
	</g>
	<g>
		<path class="st2" d="M180.84,396.8c-0.83,0-1.38-0.33-1.38-1.3v-3.47h-0.82v-0.63h0.82v-1.84l0.73-0.12v1.97h1.22l0.1,0.63h-1.33
			v3.35c0,0.54,0.21,0.77,0.79,0.77c0.17,0,0.37-0.03,0.49-0.06l0.11,0.62C181.42,396.76,181.16,396.8,180.84,396.8z"/>
		<path class="st2" d="M183.65,393.38v3.34h-0.74v-5.31h0.55l0.17,1.09c0.39-0.6,1.01-1.18,1.89-1.2l0.12,0.7
			C184.76,392.04,184.01,392.67,183.65,393.38z"/>
		<path class="st2" d="M189.83,396.71L189.7,396c-0.49,0.46-1.11,0.82-1.88,0.82c-0.92,0-1.58-0.51-1.58-1.45
			c0-1.25,1.01-1.83,3.41-2.07v-0.35c0-0.72-0.43-1.02-1.1-1.02c-0.63,0-1.25,0.19-1.83,0.47l-0.1-0.66
			c0.62-0.27,1.22-0.46,1.98-0.46c1.18,0,1.79,0.55,1.79,1.64v3.78H189.83z M189.66,393.89c-2.09,0.21-2.67,0.72-2.67,1.44
			c0,0.57,0.39,0.86,0.95,0.86c0.57,0,1.2-0.31,1.72-0.8V393.89z"/>
		<path class="st2" d="M195.52,396.71v-3.66c0-0.69-0.31-1.1-0.99-1.1c-0.56,0-1.13,0.35-1.72,0.92v3.84h-0.74v-5.31h0.57l0.12,0.79
			c0.58-0.52,1.19-0.9,1.91-0.9c1.06,0,1.58,0.61,1.58,1.63v3.8H195.52z"/>
		<path class="st2" d="M199.5,396.81c-0.71,0-1.45-0.22-1.91-0.48l0.12-0.72c0.49,0.31,1.15,0.57,1.85,0.57
			c0.74,0,1.2-0.31,1.2-0.85c0-0.53-0.31-0.76-1.37-1.04c-1.18-0.3-1.68-0.69-1.68-1.56c0-0.83,0.71-1.44,1.81-1.44
			c0.63,0,1.18,0.15,1.65,0.36l-0.12,0.71c-0.48-0.26-1.02-0.42-1.55-0.42c-0.73,0-1.08,0.31-1.08,0.75s0.29,0.66,1.19,0.9
			c1.26,0.34,1.86,0.74,1.86,1.68C201.47,396.24,200.72,396.81,199.5,396.81z"/>
		<path class="st2" d="M204.99,396.78c-0.53,0-1-0.1-1.38-0.26v2.12l-0.74,0.12v-7.37h0.57l0.12,0.76c0.42-0.47,0.94-0.88,1.72-0.88
			c1.16,0,2.13,0.84,2.13,2.62C207.42,395.85,206.28,396.78,204.99,396.78z M205.2,391.95c-0.63,0-1.11,0.37-1.59,0.95v2.93
			c0.42,0.2,0.81,0.31,1.36,0.31c0.95,0,1.7-0.73,1.7-2.21C206.66,392.65,206.04,391.95,205.2,391.95z"/>
		<path class="st2" d="M210.89,396.82c-1.36,0-2.38-1.01-2.38-2.76c0-1.76,1.04-2.77,2.38-2.77c1.38,0,2.41,1.01,2.41,2.77
			C213.3,395.81,212.24,396.82,210.89,396.82z M210.89,391.92c-1.06,0-1.63,0.89-1.63,2.15c0,1.22,0.58,2.13,1.63,2.13
			c1.08,0,1.65-0.88,1.65-2.13C212.54,392.84,211.95,391.92,210.89,391.92z"/>
		<path class="st2" d="M215.45,393.38v3.34h-0.74v-5.31h0.55l0.17,1.09c0.39-0.6,1.01-1.18,1.89-1.2l0.12,0.7
			C216.56,392.04,215.81,392.67,215.45,393.38z"/>
		<path class="st2" d="M220.3,396.8c-0.83,0-1.38-0.33-1.38-1.3v-3.47h-0.82v-0.63h0.82v-1.84l0.73-0.12v1.97h1.22l0.1,0.63h-1.33
			v3.35c0,0.54,0.21,0.77,0.79,0.77c0.17,0,0.37-0.03,0.49-0.06l0.11,0.62C220.88,396.76,220.61,396.8,220.3,396.8z"/>
		<path class="st2" d="M226.45,396.81c-0.71,0-1.45-0.22-1.91-0.48l0.12-0.72c0.49,0.31,1.15,0.57,1.85,0.57
			c0.74,0,1.2-0.31,1.2-0.85c0-0.53-0.31-0.76-1.37-1.04c-1.18-0.3-1.68-0.69-1.68-1.56c0-0.83,0.71-1.44,1.81-1.44
			c0.63,0,1.18,0.15,1.65,0.36l-0.12,0.71c-0.48-0.26-1.02-0.42-1.55-0.42c-0.73,0-1.08,0.31-1.08,0.75s0.29,0.66,1.19,0.9
			c1.26,0.34,1.86,0.74,1.86,1.68C228.43,396.24,227.68,396.81,226.45,396.81z"/>
		<path class="st2" d="M231.68,397.37c-0.38,1.03-0.85,1.36-1.64,1.36c-0.11,0-0.21-0.02-0.29-0.03l-0.1-0.65
			c0.11,0.02,0.27,0.04,0.44,0.04c0.44,0,0.7-0.19,0.9-0.71l0.25-0.64l-2.01-5.28l0.72-0.13l1.65,4.53l1.57-4.46h0.76L231.68,397.37
			z"/>
		<path class="st2" d="M236.57,396.81c-0.71,0-1.45-0.22-1.91-0.48l0.12-0.72c0.49,0.31,1.15,0.57,1.85,0.57
			c0.74,0,1.2-0.31,1.2-0.85c0-0.53-0.31-0.76-1.37-1.04c-1.18-0.3-1.68-0.69-1.68-1.56c0-0.83,0.71-1.44,1.81-1.44
			c0.63,0,1.18,0.15,1.65,0.36l-0.12,0.71c-0.48-0.26-1.02-0.42-1.55-0.42c-0.73,0-1.08,0.31-1.08,0.75s0.29,0.66,1.19,0.9
			c1.26,0.34,1.86,0.74,1.86,1.68C238.55,396.24,237.8,396.81,236.57,396.81z"/>
		<path class="st2" d="M241.58,396.8c-0.83,0-1.38-0.33-1.38-1.3v-3.47h-0.82v-0.63h0.82v-1.84l0.73-0.12v1.97h1.22l0.1,0.63h-1.33
			v3.35c0,0.54,0.21,0.77,0.79,0.77c0.17,0,0.37-0.03,0.49-0.06l0.11,0.62C242.17,396.76,241.9,396.8,241.58,396.8z"/>
		<path class="st2" d="M245.68,396.82c-1.39,0-2.39-0.94-2.39-2.77c0-1.71,0.99-2.76,2.29-2.76c1.45,0,2.15,1.19,2.15,2.66v0.16
			h-3.69c0.02,1.31,0.63,2.08,1.7,2.08c0.71,0,1.33-0.31,1.88-0.79l0.11,0.67C247.19,396.52,246.5,396.82,245.68,396.82z
			 M244.06,393.52h2.9c-0.07-0.95-0.53-1.64-1.38-1.64C244.75,391.88,244.2,392.5,244.06,393.52z"/>
		<path class="st2" d="M255.9,396.71v-3.66c0-0.69-0.28-1.1-0.97-1.1c-0.55,0-1.1,0.34-1.68,0.91v3.85h-0.73v-3.66
			c0-0.69-0.28-1.1-0.97-1.1c-0.55,0-1.11,0.34-1.68,0.9v3.86h-0.74v-5.31h0.57l0.12,0.76c0.57-0.51,1.17-0.88,1.88-0.88
			c0.82,0,1.27,0.34,1.46,0.92c0.58-0.53,1.2-0.92,1.93-0.92c1.06,0,1.55,0.61,1.55,1.62v3.81H255.9z"/>
	</g>
	<g>
		<path class="st2" d="M165.45,408.75l-0.13-0.77c-0.4,0.48-0.93,0.89-1.71,0.89c-1.17,0-2.15-0.83-2.15-2.62
			c0-1.94,1.13-2.89,2.43-2.89c0.54,0,1.01,0.1,1.38,0.27v-2.81l0.74-0.13v8.06H165.45z M165.27,404.31
			c-0.42-0.21-0.81-0.31-1.36-0.31c-0.95,0-1.7,0.72-1.7,2.21c0,1.29,0.62,1.99,1.46,1.99c0.63,0,1.12-0.38,1.59-0.95V404.31z"/>
		<path class="st2" d="M169.81,408.86c-1.39,0-2.39-0.94-2.39-2.77c0-1.71,0.99-2.76,2.29-2.76c1.45,0,2.15,1.19,2.15,2.66v0.16
			h-3.69c0.02,1.31,0.63,2.08,1.7,2.08c0.71,0,1.33-0.31,1.88-0.79l0.11,0.67C171.31,408.56,170.63,408.86,169.81,408.86z
			 M168.19,405.56h2.9c-0.07-0.95-0.53-1.64-1.38-1.64C168.87,403.92,168.32,404.54,168.19,405.56z"/>
		<path class="st2" d="M173.33,408.75v-7.93l0.73-0.13v8.06H173.33z"/>
		<path class="st2" d="M176.33,402.17c-0.29,0-0.54-0.25-0.54-0.54s0.25-0.54,0.54-0.54s0.53,0.25,0.53,0.54
			S176.62,402.17,176.33,402.17z M175.96,408.75v-5.31h0.73v5.31H175.96z"/>
		<path class="st2" d="M180.61,408.79h-0.7l-1.93-5.29l0.73-0.13l1.57,4.51l1.53-4.45h0.76L180.61,408.79z"/>
		<path class="st2" d="M185.69,408.86c-1.39,0-2.39-0.94-2.39-2.77c0-1.71,0.99-2.76,2.29-2.76c1.45,0,2.15,1.19,2.15,2.66v0.16
			h-3.69c0.02,1.31,0.63,2.08,1.7,2.08c0.71,0,1.33-0.31,1.88-0.79l0.11,0.67C187.19,408.56,186.51,408.86,185.69,408.86z
			 M184.07,405.56h2.9c-0.07-0.95-0.53-1.64-1.38-1.64C184.75,403.92,184.2,404.54,184.07,405.56z"/>
		<path class="st2" d="M189.88,405.41v3.34h-0.74v-5.31h0.55l0.17,1.09c0.39-0.6,1.01-1.18,1.89-1.2l0.12,0.7
			C190.99,404.08,190.24,404.7,189.88,405.41z"/>
		<path class="st2" d="M193.45,402.17c-0.29,0-0.54-0.25-0.54-0.54s0.25-0.54,0.54-0.54s0.53,0.25,0.53,0.54
			S193.74,402.17,193.45,402.17z M193.08,408.75v-5.31h0.73v5.31H193.08z"/>
		<path class="st2" d="M199.06,408.75v-3.66c0-0.69-0.31-1.1-0.99-1.1c-0.56,0-1.13,0.35-1.72,0.92v3.84h-0.74v-5.31h0.57l0.12,0.79
			c0.58-0.52,1.19-0.9,1.91-0.9c1.06,0,1.58,0.61,1.58,1.63v3.8H199.06z"/>
		<path class="st2" d="M203.31,410.77c-1.37,0-2.43-0.46-2.43-1.38c0-0.54,0.42-1,1.21-1.4c-0.27-0.17-0.39-0.36-0.39-0.56
			c0-0.27,0.18-0.49,0.53-0.71c-0.58-0.29-0.98-0.85-0.98-1.58c0-1.12,0.93-1.81,1.97-1.81c0.53,0,0.99,0.16,1.35,0.45l1.33-0.43
			l0.12,0.73l-1.07,0.11c0.18,0.27,0.28,0.58,0.28,0.94c0,1.12-0.93,1.81-1.99,1.81c-0.16,0-0.31-0.01-0.47-0.04
			c-0.22,0.12-0.34,0.26-0.34,0.38c0,0.21,0.21,0.29,1.19,0.47l0.39,0.08c1.18,0.21,1.82,0.56,1.82,1.35
			C205.84,410.2,204.68,410.77,203.31,410.77z M202.68,408.22c-0.73,0.34-1.07,0.7-1.07,1.12c0,0.55,0.7,0.86,1.74,0.86
			c1.08,0,1.77-0.42,1.77-0.94c0-0.42-0.34-0.64-1.28-0.82l-0.52-0.09C203.06,408.3,202.88,408.28,202.68,408.22z M203.22,403.87
			c-0.75,0-1.24,0.55-1.24,1.28c0,0.69,0.48,1.24,1.26,1.24s1.26-0.54,1.26-1.26C204.5,404.42,203.98,403.87,203.22,403.87z"/>
		<path class="st2" d="M211.72,408.86c-1.36,0-2.38-1.01-2.38-2.76c0-1.76,1.04-2.77,2.38-2.77c1.38,0,2.41,1.01,2.41,2.77
			C214.14,407.85,213.08,408.86,211.72,408.86z M211.72,403.95c-1.06,0-1.63,0.89-1.63,2.15c0,1.22,0.58,2.13,1.63,2.13
			c1.08,0,1.65-0.88,1.65-2.13C213.37,404.87,212.79,403.95,211.72,403.95z"/>
		<path class="st2" d="M218.99,408.75v-3.66c0-0.69-0.31-1.1-0.99-1.1c-0.56,0-1.13,0.35-1.72,0.92v3.84h-0.74v-5.31h0.57l0.12,0.79
			c0.58-0.52,1.19-0.9,1.91-0.9c1.06,0,1.58,0.61,1.58,1.63v3.8H218.99z"/>
		<path class="st2" d="M225.59,408.84c-0.83,0-1.38-0.33-1.38-1.3v-3.47h-0.82v-0.63h0.82v-1.84l0.73-0.12v1.97h1.22l0.1,0.63h-1.33
			v3.35c0,0.54,0.21,0.77,0.79,0.77c0.17,0,0.37-0.03,0.49-0.06l0.11,0.62C226.18,408.79,225.91,408.84,225.59,408.84z"/>
		<path class="st2" d="M231.11,408.75v-3.66c0-0.69-0.31-1.1-0.99-1.1c-0.56,0-1.13,0.35-1.72,0.92v3.84h-0.74v-7.93l0.74-0.13v3.5
			c0.55-0.48,1.15-0.86,1.86-0.86c1.06,0,1.58,0.61,1.58,1.62v3.81H231.11z"/>
		<path class="st2" d="M235.6,408.86c-1.39,0-2.39-0.94-2.39-2.77c0-1.71,0.99-2.76,2.29-2.76c1.45,0,2.15,1.19,2.15,2.66v0.16
			h-3.69c0.02,1.31,0.63,2.08,1.7,2.08c0.71,0,1.33-0.31,1.88-0.79l0.11,0.67C237.11,408.56,236.42,408.86,235.6,408.86z
			 M233.98,405.56h2.9c-0.07-0.95-0.53-1.64-1.38-1.64C234.67,403.92,234.12,404.54,233.98,405.56z"/>
		<path class="st2" d="M245.26,408.75l-0.13-0.77c-0.4,0.48-0.93,0.89-1.71,0.89c-1.17,0-2.15-0.83-2.15-2.62
			c0-1.94,1.13-2.89,2.43-2.89c0.54,0,1.01,0.1,1.38,0.27v-2.81l0.74-0.13v8.06H245.26z M245.08,404.31
			c-0.42-0.21-0.81-0.31-1.36-0.31c-0.95,0-1.7,0.72-1.7,2.21c0,1.29,0.62,1.99,1.46,1.99c0.63,0,1.12-0.38,1.59-0.95V404.31z"/>
		<path class="st2" d="M249.62,408.86c-1.39,0-2.39-0.94-2.39-2.77c0-1.71,0.99-2.76,2.29-2.76c1.45,0,2.15,1.19,2.15,2.66v0.16
			h-3.69c0.02,1.31,0.63,2.08,1.7,2.08c0.71,0,1.33-0.31,1.88-0.79l0.11,0.67C251.12,408.56,250.44,408.86,249.62,408.86z
			 M248,405.56h2.9c-0.07-0.95-0.53-1.64-1.38-1.64C248.69,403.92,248.14,404.54,248,405.56z"/>
		<path class="st2" d="M254.62,408.85c-0.71,0-1.45-0.22-1.91-0.48l0.12-0.72c0.49,0.31,1.15,0.57,1.85,0.57
			c0.74,0,1.2-0.31,1.2-0.85c0-0.53-0.31-0.76-1.37-1.04c-1.18-0.3-1.68-0.69-1.68-1.56c0-0.83,0.71-1.44,1.81-1.44
			c0.63,0,1.18,0.15,1.65,0.36l-0.12,0.71c-0.48-0.26-1.02-0.42-1.55-0.42c-0.73,0-1.08,0.31-1.08,0.75s0.29,0.66,1.19,0.9
			c1.26,0.34,1.86,0.74,1.86,1.68C256.59,408.28,255.84,408.85,254.62,408.85z"/>
		<path class="st2" d="M258.44,402.17c-0.29,0-0.54-0.25-0.54-0.54s0.25-0.54,0.54-0.54s0.53,0.25,0.53,0.54
			S258.73,402.17,258.44,402.17z M258.07,408.75v-5.31h0.73v5.31H258.07z"/>
		<path class="st2" d="M261.34,405.41v3.34h-0.74v-5.31h0.55l0.17,1.09c0.39-0.6,1.01-1.18,1.89-1.2l0.12,0.7
			C262.46,404.08,261.7,404.7,261.34,405.41z"/>
		<path class="st2" d="M266.33,408.86c-1.39,0-2.39-0.94-2.39-2.77c0-1.71,0.99-2.76,2.29-2.76c1.45,0,2.15,1.19,2.15,2.66v0.16
			h-3.69c0.02,1.31,0.63,2.08,1.7,2.08c0.71,0,1.33-0.31,1.88-0.79l0.11,0.67C267.84,408.56,267.15,408.86,266.33,408.86z
			 M264.71,405.56h2.9c-0.07-0.95-0.53-1.64-1.38-1.64C265.4,403.92,264.85,404.54,264.71,405.56z"/>
		<path class="st2" d="M273.45,408.75l-0.13-0.77c-0.4,0.48-0.93,0.89-1.71,0.89c-1.17,0-2.15-0.83-2.15-2.62
			c0-1.94,1.13-2.89,2.43-2.89c0.54,0,1.01,0.1,1.38,0.27v-2.81l0.74-0.13v8.06H273.45z M273.27,404.31
			c-0.42-0.21-0.81-0.31-1.36-0.31c-0.95,0-1.7,0.72-1.7,2.21c0,1.29,0.62,1.99,1.46,1.99c0.63,0,1.12-0.38,1.59-0.95V404.31z"/>
	</g>
	<g>
		<path class="st2" d="M179.13,420.89c-1.36,0-2.38-1.01-2.38-2.76c0-1.76,1.04-2.77,2.38-2.77c1.38,0,2.41,1.01,2.41,2.77
			C181.55,419.88,180.49,420.89,179.13,420.89z M179.13,415.99c-1.06,0-1.63,0.89-1.63,2.15c0,1.22,0.58,2.13,1.63,2.13
			c1.08,0,1.65-0.88,1.65-2.13C180.78,416.91,180.2,415.99,179.13,415.99z"/>
		<path class="st2" d="M186.52,420.78L186.4,420c-0.58,0.52-1.19,0.9-1.91,0.9c-1.07,0-1.58-0.62-1.58-1.63v-3.8h0.74v3.66
			c0,0.69,0.31,1.09,0.99,1.09c0.56,0,1.13-0.34,1.72-0.91v-3.84h0.74v5.31H186.52z"/>
		<path class="st2" d="M190.47,420.87c-0.83,0-1.38-0.33-1.38-1.3v-3.47h-0.82v-0.63h0.82v-1.84l0.73-0.12v1.97h1.22l0.1,0.63h-1.33
			v3.35c0,0.54,0.21,0.77,0.79,0.77c0.17,0,0.37-0.03,0.49-0.06l0.11,0.62C191.05,420.83,190.78,420.87,190.47,420.87z"/>
		<path class="st2" d="M194.59,420.89c-1.35,0-2.39-1.01-2.39-2.76c0-1.79,1.08-2.77,2.43-2.77c0.72,0,1.29,0.22,1.73,0.54
			l-0.12,0.74c-0.52-0.43-1.01-0.64-1.63-0.64c-1.01,0-1.65,0.82-1.65,2.12c0,1.31,0.65,2.12,1.73,2.12c0.56,0,1.07-0.16,1.62-0.63
			l0.1,0.67C195.88,420.69,195.31,420.89,194.59,420.89z"/>
		<path class="st2" d="M199.72,420.89c-1.36,0-2.38-1.01-2.38-2.76c0-1.76,1.04-2.77,2.38-2.77c1.38,0,2.41,1.01,2.41,2.77
			C202.14,419.88,201.08,420.89,199.72,420.89z M199.72,415.99c-1.06,0-1.63,0.89-1.63,2.15c0,1.22,0.58,2.13,1.63,2.13
			c1.08,0,1.65-0.88,1.65-2.13C201.37,416.91,200.79,415.99,199.72,415.99z"/>
		<path class="st2" d="M210.31,420.78v-3.66c0-0.69-0.28-1.1-0.97-1.1c-0.55,0-1.1,0.34-1.68,0.91v3.85h-0.73v-3.66
			c0-0.69-0.28-1.1-0.97-1.1c-0.55,0-1.11,0.34-1.68,0.9v3.86h-0.74v-5.31h0.57l0.12,0.76c0.57-0.51,1.17-0.88,1.88-0.88
			c0.82,0,1.27,0.34,1.46,0.92c0.58-0.53,1.2-0.92,1.93-0.92c1.06,0,1.55,0.61,1.55,1.62v3.81H210.31z"/>
		<path class="st2" d="M214.81,420.89c-1.39,0-2.39-0.94-2.39-2.77c0-1.71,0.99-2.76,2.29-2.76c1.45,0,2.15,1.19,2.15,2.66v0.16
			h-3.69c0.02,1.31,0.63,2.08,1.7,2.08c0.71,0,1.33-0.31,1.88-0.79l0.11,0.67C216.31,420.59,215.63,420.89,214.81,420.89z
			 M213.19,417.59h2.9c-0.07-0.95-0.53-1.64-1.38-1.64C213.87,415.95,213.32,416.57,213.19,417.59z"/>
		<path class="st2" d="M224.24,420.78v-3.66c0-0.69-0.31-1.1-0.99-1.1c-0.56,0-1.13,0.35-1.72,0.92v3.84h-0.74v-5.31h0.57l0.12,0.79
			c0.58-0.52,1.19-0.9,1.91-0.9c1.06,0,1.58,0.61,1.58,1.63v3.8H224.24z"/>
		<path class="st2" d="M228.72,420.89c-1.36,0-2.38-1.01-2.38-2.76c0-1.76,1.04-2.77,2.38-2.77c1.38,0,2.41,1.01,2.41,2.77
			C231.14,419.88,230.08,420.89,228.72,420.89z M228.72,415.99c-1.06,0-1.63,0.89-1.63,2.15c0,1.22,0.58,2.13,1.63,2.13
			c1.08,0,1.65-0.88,1.65-2.13C230.37,416.91,229.79,415.99,228.72,415.99z"/>
		<path class="st2" d="M237.59,420.82h-0.62l-1.35-4.36l-1.34,4.36h-0.62l-1.76-5.3l0.71-0.13l1.37,4.41l1.34-4.35h0.64l1.34,4.35
			l1.33-4.32h0.74L237.59,420.82z"/>
		<path class="st2" d="M246.38,420.78l-0.12-0.71c-0.49,0.46-1.11,0.82-1.88,0.82c-0.92,0-1.58-0.51-1.58-1.45
			c0-1.25,1.01-1.83,3.41-2.07v-0.35c0-0.72-0.43-1.02-1.1-1.02c-0.63,0-1.25,0.19-1.83,0.47l-0.1-0.66
			c0.62-0.27,1.22-0.46,1.98-0.46c1.18,0,1.79,0.55,1.79,1.64v3.78H246.38z M246.21,417.96c-2.09,0.21-2.67,0.72-2.67,1.44
			c0,0.57,0.39,0.86,0.95,0.86c0.57,0,1.2-0.31,1.72-0.8V417.96z"/>
		<path class="st2" d="M252.07,420.78v-3.66c0-0.69-0.31-1.1-0.99-1.1c-0.56,0-1.13,0.35-1.72,0.92v3.84h-0.74v-5.31h0.57l0.12,0.79
			c0.58-0.52,1.19-0.9,1.91-0.9c1.06,0,1.58,0.61,1.58,1.63v3.8H252.07z"/>
		<path class="st2" d="M258.17,420.78l-0.13-0.77c-0.4,0.48-0.93,0.89-1.71,0.89c-1.17,0-2.15-0.83-2.15-2.62
			c0-1.94,1.13-2.89,2.43-2.89c0.54,0,1.01,0.1,1.38,0.27v-2.81l0.74-0.13v8.06H258.17z M257.99,416.35
			c-0.42-0.21-0.81-0.31-1.36-0.31c-0.95,0-1.7,0.72-1.7,2.21c0,1.29,0.62,1.99,1.46,1.99c0.63,0,1.12-0.38,1.59-0.95V416.35z"/>
	</g>
	<text transform="matrix(1 0 0 1 262.1035 420.7826)" class="st2 st6 st21"> </text>
	<g>
		<path class="st2" d="M188.29,426.24c-0.29,0-0.54-0.25-0.54-0.54s0.25-0.54,0.54-0.54s0.53,0.25,0.53,0.54
			S188.58,426.24,188.29,426.24z M187.92,432.82v-5.31h0.73v5.31H187.92z"/>
		<path class="st2" d="M193.9,432.82v-3.66c0-0.68-0.31-1.1-0.99-1.1c-0.56,0-1.13,0.35-1.72,0.92v3.84h-0.74v-5.31h0.57l0.12,0.79
			c0.58-0.52,1.19-0.9,1.91-0.9c1.06,0,1.58,0.61,1.58,1.63v3.8H193.9z"/>
		<path class="st2" d="M200.51,432.91c-0.83,0-1.38-0.33-1.38-1.3v-3.47h-0.82v-0.63h0.82v-1.84l0.73-0.12v1.96h1.22l0.1,0.63h-1.33
			v3.35c0,0.54,0.21,0.77,0.79,0.77c0.17,0,0.37-0.03,0.49-0.06l0.11,0.62C201.09,432.86,200.82,432.91,200.51,432.91z"/>
		<path class="st2" d="M206.02,432.82v-3.66c0-0.68-0.31-1.1-0.99-1.1c-0.56,0-1.13,0.35-1.72,0.92v3.84h-0.74v-7.93l0.74-0.13v3.5
			c0.55-0.48,1.15-0.86,1.86-0.86c1.06,0,1.58,0.61,1.58,1.62v3.81H206.02z"/>
		<path class="st2" d="M210.52,432.93c-1.39,0-2.39-0.94-2.39-2.77c0-1.71,0.99-2.76,2.29-2.76c1.45,0,2.15,1.19,2.15,2.66v0.16
			h-3.69c0.02,1.31,0.63,2.08,1.7,2.08c0.71,0,1.33-0.31,1.88-0.79l0.11,0.67C212.02,432.63,211.34,432.93,210.52,432.93z
			 M208.9,429.63h2.9c-0.07-0.96-0.53-1.64-1.38-1.64C209.58,427.99,209.03,428.61,208.9,429.63z"/>
		<path class="st2" d="M218.34,425.46c-0.51,0-0.81,0.22-0.81,0.81v1.23h1.09l0.1,0.63h-1.19v4.68h-0.73v-4.68H216v-0.63h0.81v-1.29
			c0-0.98,0.58-1.43,1.49-1.43c0.17,0,0.27,0.01,0.38,0.02l0.11,0.69C218.69,425.47,218.55,425.46,218.34,425.46z"/>
		<path class="st2" d="M223.42,432.82l-0.12-0.79c-0.58,0.52-1.19,0.9-1.91,0.9c-1.07,0-1.58-0.62-1.58-1.63v-3.8h0.74v3.66
			c0,0.68,0.31,1.09,0.99,1.09c0.56,0,1.13-0.34,1.72-0.91v-3.84h0.74v5.31H223.42z"/>
		<path class="st2" d="M227.36,432.91c-0.83,0-1.38-0.33-1.38-1.3v-3.47h-0.82v-0.63h0.82v-1.84l0.73-0.12v1.96h1.22l0.1,0.63h-1.33
			v3.35c0,0.54,0.21,0.77,0.79,0.77c0.17,0,0.37-0.03,0.49-0.06l0.11,0.62C227.95,432.86,227.68,432.91,227.36,432.91z"/>
		<path class="st2" d="M233,432.82l-0.12-0.79c-0.58,0.52-1.19,0.9-1.91,0.9c-1.07,0-1.58-0.62-1.58-1.63v-3.8h0.74v3.66
			c0,0.68,0.31,1.09,0.99,1.09c0.56,0,1.13-0.34,1.72-0.91v-3.84h0.74v5.31H233z"/>
		<path class="st2" d="M236.05,429.48v3.34h-0.74v-5.31h0.55l0.17,1.09c0.39-0.6,1.01-1.18,1.89-1.2l0.12,0.7
			C237.16,428.15,236.4,428.77,236.05,429.48z"/>
		<path class="st2" d="M241.03,432.93c-1.39,0-2.39-0.94-2.39-2.77c0-1.71,0.99-2.76,2.29-2.76c1.45,0,2.15,1.19,2.15,2.66v0.16
			h-3.69c0.02,1.31,0.63,2.08,1.7,2.08c0.71,0,1.33-0.31,1.88-0.79l0.11,0.67C242.54,432.63,241.85,432.93,241.03,432.93z
			 M239.42,429.63h2.9c-0.07-0.96-0.53-1.64-1.38-1.64C240.1,427.99,239.55,428.61,239.42,429.63z"/>
		<path class="st2" d="M246.13,429.21l-0.1,1.36l-0.49,0.11l-0.13-1.86l0.31-0.13c1.27-0.62,1.68-1.08,1.68-1.82
			c0-0.79-0.58-1.25-1.46-1.25c-0.79,0-1.47,0.33-2.09,0.82l-0.1-0.75c0.6-0.45,1.36-0.76,2.22-0.76c1.29,0,2.21,0.73,2.21,1.91
			C248.19,428,247.4,428.56,246.13,429.21z M245.35,432.82v-1.1h0.88v1.1H245.35z"/>
	</g>
	<g>
		<path class="st22" d="M136.88,237.21l-1.27-2.22h-0.31v2.15h-2.04v-6.92h2.65c1.78,0,2.81,0.79,2.81,2.28c0,0.93-0.42,1.59-1.2,2
			l1.5,2.39L136.88,237.21z M135.69,231.72h-0.41v1.85h0.42c0.66,0,1.02-0.34,1.02-0.95C136.72,232.04,136.35,231.72,135.69,231.72z
			"/>
		<path class="st22" d="M139.63,237.14v-6.92h4.56v1.61h-2.56v0.95h1.93l0.25,1.59h-2.19v1.14h2.65v1.61H139.63z"/>
		<path class="st22" d="M147.49,237.22c-1.01,0-1.83-0.21-2.63-0.55l0.3-1.67c0.81,0.4,1.66,0.66,2.36,0.66
			c0.4,0,0.66-0.14,0.66-0.44c0-0.29-0.17-0.43-1.11-0.76c-1.41-0.5-2.06-0.96-2.06-2.18c0-1.42,1.11-2.14,2.48-2.14
			c1,0,1.61,0.17,2.3,0.49l-0.3,1.66c-0.72-0.39-1.43-0.59-1.95-0.59c-0.41,0-0.61,0.14-0.61,0.38c0,0.27,0.16,0.41,0.94,0.67
			c1.57,0.52,2.23,1.07,2.23,2.21C150.08,236.6,148.89,237.22,147.49,237.22z"/>
		<path class="st22" d="M153.22,235.07h-0.32v2.08h-2.04v-6.92h2.4c1.78,0,2.88,0.77,2.88,2.37
			C156.13,234.22,154.97,235.07,153.22,235.07z M153.13,231.72h-0.25v1.85h0.23c0.68,0,1.05-0.3,1.05-0.95
			C154.16,232.02,153.81,231.72,153.13,231.72z"/>
		<path class="st22" d="M159.88,237.27c-2.01,0-3.35-1.44-3.35-3.58c0-2.15,1.33-3.6,3.37-3.6c2.03,0,3.35,1.44,3.35,3.58
			S161.91,237.27,159.88,237.27z M159.89,231.65c-0.84,0-1.31,0.79-1.31,2.04s0.47,2.04,1.31,2.04s1.31-0.79,1.31-2.04
			S160.73,231.65,159.89,231.65z"/>
		<path class="st22" d="M168.26,237.14l-2.27-3.61v3.61h-1.9v-6.92h2.02l2.06,3.31v-3.31h1.9v6.92H168.26z"/>
		<path class="st22" d="M173.52,237.22c-1.01,0-1.83-0.21-2.63-0.55l0.3-1.67c0.81,0.4,1.66,0.66,2.36,0.66
			c0.4,0,0.66-0.14,0.66-0.44c0-0.29-0.17-0.43-1.11-0.76c-1.41-0.5-2.06-0.96-2.06-2.18c0-1.42,1.11-2.14,2.48-2.14
			c1,0,1.61,0.17,2.3,0.49l-0.3,1.66c-0.72-0.39-1.43-0.59-1.95-0.59c-0.41,0-0.61,0.14-0.61,0.38c0,0.27,0.16,0.41,0.94,0.67
			c1.57,0.52,2.23,1.07,2.23,2.21C176.12,236.6,174.92,237.22,173.52,237.22z"/>
		<path class="st22" d="M176.89,237.14v-6.92h4.56v1.61h-2.56v0.95h1.93l0.25,1.59h-2.19v1.14h2.65v1.61H176.89z"/>
	</g>
	<g>
		<path class="st2" d="M131.87,251.07v-7.75h0.77v7.75H131.87z"/>
		<path class="st2" d="M138.3,251.07l-0.13-0.77c-0.4,0.48-0.93,0.89-1.71,0.89c-1.17,0-2.15-0.83-2.15-2.62
			c0-1.94,1.13-2.89,2.43-2.89c0.54,0,1.01,0.1,1.38,0.27v-2.81l0.74-0.13v8.06H138.3z M138.12,246.64
			c-0.42-0.21-0.81-0.31-1.36-0.31c-0.95,0-1.7,0.72-1.7,2.21c0,1.29,0.62,1.99,1.46,1.99c0.63,0,1.12-0.38,1.59-0.95V246.64z"/>
		<path class="st2" d="M142.66,251.18c-1.39,0-2.39-0.94-2.39-2.77c0-1.71,0.99-2.76,2.29-2.76c1.45,0,2.15,1.19,2.15,2.66v0.16
			h-3.69c0.02,1.31,0.63,2.08,1.7,2.08c0.71,0,1.33-0.31,1.88-0.79l0.11,0.67C144.17,250.88,143.48,251.18,142.66,251.18z
			 M141.04,247.88h2.9c-0.07-0.95-0.53-1.64-1.38-1.64C141.73,246.24,141.18,246.86,141.04,247.88z"/>
		<path class="st2" d="M149.56,251.07v-3.66c0-0.69-0.31-1.1-0.99-1.1c-0.56,0-1.13,0.35-1.72,0.92v3.84h-0.74v-5.31h0.57l0.12,0.79
			c0.58-0.52,1.19-0.9,1.91-0.9c1.06,0,1.58,0.61,1.58,1.63v3.8H149.56z"/>
		<path class="st2" d="M153.62,251.16c-0.83,0-1.38-0.33-1.38-1.3v-3.47h-0.82v-0.63h0.82v-1.84l0.73-0.12v1.97h1.22l0.1,0.63h-1.33
			v3.35c0,0.54,0.21,0.77,0.79,0.77c0.17,0,0.37-0.03,0.49-0.06l0.11,0.62C154.21,251.12,153.94,251.16,153.62,251.16z"/>
		<path class="st2" d="M156.14,244.49c-0.29,0-0.54-0.25-0.54-0.54s0.25-0.54,0.54-0.54s0.53,0.25,0.53,0.54
			S156.43,244.49,156.14,244.49z M155.77,251.07v-5.31h0.73v5.31H155.77z"/>
		<path class="st2" d="M160.15,243.72c-0.51,0-0.81,0.22-0.81,0.81v1.24h1.09l0.1,0.63h-1.19v4.68h-0.73v-4.68h-0.81v-0.63h0.81
			v-1.29c0-0.98,0.58-1.43,1.49-1.43c0.17,0,0.27,0.01,0.38,0.02l0.11,0.69C160.5,243.73,160.35,243.72,160.15,243.72z"/>
		<path class="st2" d="M163.6,251.73c-0.38,1.03-0.85,1.36-1.64,1.36c-0.11,0-0.21-0.02-0.29-0.03l-0.1-0.65
			c0.11,0.02,0.27,0.04,0.44,0.04c0.44,0,0.7-0.19,0.9-0.71l0.25-0.64l-2.01-5.28l0.72-0.13l1.65,4.53l1.57-4.46h0.76L163.6,251.73z
			"/>
		<path class="st2" d="M171.22,251.16c-0.83,0-1.38-0.33-1.38-1.3v-3.47h-0.82v-0.63h0.82v-1.84l0.73-0.12v1.97h1.22l0.1,0.63h-1.33
			v3.35c0,0.54,0.21,0.77,0.79,0.77c0.17,0,0.37-0.03,0.49-0.06l0.11,0.62C171.81,251.12,171.54,251.16,171.22,251.16z"/>
		<path class="st2" d="M176.74,251.07v-3.66c0-0.69-0.31-1.1-0.99-1.1c-0.56,0-1.13,0.35-1.72,0.92v3.84h-0.74v-7.93l0.74-0.13v3.5
			c0.55-0.48,1.15-0.86,1.86-0.86c1.06,0,1.58,0.61,1.58,1.62v3.81H176.74z"/>
		<path class="st2" d="M181.23,251.18c-1.39,0-2.39-0.94-2.39-2.77c0-1.71,0.99-2.76,2.29-2.76c1.45,0,2.15,1.19,2.15,2.66v0.16
			h-3.69c0.02,1.31,0.63,2.08,1.7,2.08c0.71,0,1.33-0.31,1.88-0.79l0.11,0.67C182.74,250.88,182.05,251.18,181.23,251.18z
			 M179.61,247.88h2.9c-0.07-0.95-0.53-1.64-1.38-1.64C180.3,246.24,179.75,246.86,179.61,247.88z"/>
	</g>
	<text transform="matrix(1 0 0 1 186.3535 251.0712)" class="st2 st6 st21"> </text>
	<g>
		<path class="st2" d="M117.5,263.17c-0.53,0-1-0.1-1.38-0.26v2.12l-0.74,0.12v-7.37h0.57l0.12,0.76c0.42-0.47,0.94-0.88,1.72-0.88
			c1.16,0,2.13,0.84,2.13,2.62C119.92,262.24,118.79,263.17,117.5,263.17z M117.71,258.34c-0.63,0-1.11,0.37-1.59,0.95v2.93
			c0.42,0.2,0.81,0.31,1.36,0.31c0.95,0,1.7-0.73,1.7-2.21C119.17,259.04,118.55,258.34,117.71,258.34z"/>
		<path class="st2" d="M122.08,259.77v3.34h-0.74v-5.31h0.55l0.17,1.09c0.39-0.6,1.01-1.18,1.89-1.2l0.12,0.7
			C123.19,258.43,122.44,259.06,122.08,259.77z"/>
		<path class="st2" d="M125.65,256.53c-0.29,0-0.54-0.25-0.54-0.54s0.25-0.54,0.54-0.54s0.53,0.25,0.53,0.54
			S125.94,256.53,125.65,256.53z M125.28,263.11v-5.31h0.73v5.31H125.28z"/>
		<path class="st2" d="M129.87,263.22c-1.36,0-2.38-1.01-2.38-2.76c0-1.76,1.04-2.77,2.38-2.77c1.38,0,2.41,1.01,2.41,2.77
			C132.29,262.21,131.23,263.22,129.87,263.22z M129.87,258.31c-1.06,0-1.63,0.89-1.63,2.15c0,1.22,0.58,2.13,1.63,2.13
			c1.08,0,1.65-0.88,1.65-2.13C131.52,259.23,130.94,258.31,129.87,258.31z"/>
		<path class="st2" d="M134.43,259.77v3.34h-0.74v-5.31h0.55l0.17,1.09c0.39-0.6,1.01-1.18,1.89-1.2l0.12,0.7
			C135.55,258.43,134.79,259.06,134.43,259.77z"/>
		<path class="st2" d="M138.01,256.53c-0.29,0-0.54-0.25-0.54-0.54s0.25-0.54,0.54-0.54s0.53,0.25,0.53,0.54
			S138.3,256.53,138.01,256.53z M137.64,263.11v-5.31h0.73v5.31H137.64z"/>
		<path class="st2" d="M141.81,263.2c-0.83,0-1.38-0.33-1.38-1.3v-3.47h-0.82v-0.63h0.82v-1.84l0.73-0.12v1.97h1.22l0.1,0.63h-1.33
			v3.35c0,0.54,0.21,0.77,0.79,0.77c0.17,0,0.37-0.03,0.49-0.06l0.11,0.62C142.4,263.15,142.13,263.2,141.81,263.2z"/>
		<path class="st2" d="M145.73,263.77c-0.38,1.03-0.85,1.36-1.64,1.36c-0.11,0-0.21-0.02-0.29-0.03l-0.1-0.65
			c0.11,0.02,0.27,0.04,0.44,0.04c0.44,0,0.7-0.19,0.9-0.71l0.25-0.64l-2.01-5.28l0.72-0.13l1.65,4.53l1.57-4.46h0.76L145.73,263.77
			z"/>
		<path class="st2" d="M153.81,263.22c-1.35,0-2.39-1.01-2.39-2.76c0-1.79,1.08-2.77,2.43-2.77c0.72,0,1.29,0.22,1.73,0.54
			l-0.12,0.74c-0.52-0.43-1.01-0.64-1.63-0.64c-1.01,0-1.65,0.82-1.65,2.12c0,1.31,0.65,2.12,1.73,2.12c0.56,0,1.07-0.16,1.62-0.63
			l0.1,0.67C155.1,263.02,154.53,263.22,153.81,263.22z"/>
		<path class="st2" d="M160.42,263.11v-3.66c0-0.69-0.31-1.1-0.99-1.1c-0.56,0-1.13,0.35-1.72,0.92v3.84h-0.74v-7.93l0.74-0.13v3.5
			c0.55-0.48,1.15-0.86,1.86-0.86c1.06,0,1.58,0.61,1.58,1.62v3.81H160.42z"/>
		<path class="st2" d="M166.1,263.11l-0.12-0.71c-0.49,0.46-1.11,0.82-1.88,0.82c-0.92,0-1.58-0.51-1.58-1.45
			c0-1.25,1.01-1.83,3.41-2.07v-0.35c0-0.72-0.43-1.02-1.1-1.02c-0.63,0-1.25,0.19-1.83,0.47l-0.1-0.66
			c0.62-0.27,1.22-0.46,1.98-0.46c1.18,0,1.79,0.55,1.79,1.64v3.78H166.1z M165.93,260.29c-2.09,0.21-2.67,0.72-2.67,1.44
			c0,0.57,0.39,0.86,0.95,0.86c0.57,0,1.2-0.31,1.72-0.8V260.29z"/>
		<path class="st2" d="M168.42,263.11v-7.93l0.73-0.13v8.06H168.42z"/>
		<path class="st2" d="M171.05,263.11v-7.93l0.73-0.13v8.06H171.05z"/>
		<path class="st2" d="M175.67,263.22c-1.39,0-2.39-0.94-2.39-2.77c0-1.71,0.99-2.76,2.29-2.76c1.45,0,2.15,1.19,2.15,2.66v0.16
			h-3.69c0.02,1.31,0.63,2.08,1.7,2.08c0.71,0,1.33-0.31,1.88-0.79l0.11,0.67C177.17,262.92,176.49,263.22,175.67,263.22z
			 M174.05,259.92h2.9c-0.07-0.95-0.53-1.64-1.38-1.64C174.73,258.28,174.18,258.89,174.05,259.92z"/>
		<path class="st2" d="M182.56,263.11v-3.66c0-0.69-0.31-1.1-0.99-1.1c-0.56,0-1.13,0.35-1.72,0.92v3.84h-0.74v-5.31h0.57l0.12,0.79
			c0.58-0.52,1.19-0.9,1.91-0.9c1.06,0,1.58,0.61,1.58,1.63v3.8H182.56z"/>
		<path class="st2" d="M186.81,265.13c-1.37,0-2.43-0.46-2.43-1.38c0-0.54,0.42-1,1.21-1.4c-0.27-0.17-0.39-0.36-0.39-0.56
			c0-0.27,0.18-0.49,0.53-0.71c-0.58-0.29-0.98-0.85-0.98-1.58c0-1.12,0.93-1.81,1.97-1.81c0.53,0,0.99,0.16,1.35,0.45l1.33-0.43
			l0.12,0.73l-1.07,0.11c0.18,0.27,0.28,0.58,0.28,0.94c0,1.12-0.93,1.81-1.99,1.81c-0.16,0-0.31-0.01-0.47-0.04
			c-0.22,0.12-0.34,0.26-0.34,0.38c0,0.21,0.21,0.29,1.19,0.47l0.39,0.08c1.18,0.21,1.82,0.56,1.82,1.35
			C189.33,264.56,188.18,265.13,186.81,265.13z M186.18,262.58c-0.73,0.34-1.07,0.7-1.07,1.12c0,0.55,0.7,0.86,1.74,0.86
			c1.08,0,1.77-0.42,1.77-0.94c0-0.42-0.34-0.64-1.28-0.82l-0.52-0.09C186.56,262.66,186.38,262.63,186.18,262.58z M186.72,258.23
			c-0.75,0-1.24,0.55-1.24,1.28c0,0.69,0.48,1.24,1.26,1.24s1.26-0.54,1.26-1.26C188,258.78,187.48,258.23,186.72,258.23z"/>
		<path class="st2" d="M192.58,263.22c-1.39,0-2.39-0.94-2.39-2.77c0-1.71,0.99-2.76,2.29-2.76c1.45,0,2.15,1.19,2.15,2.66v0.16
			h-3.69c0.02,1.31,0.63,2.08,1.7,2.08c0.71,0,1.33-0.31,1.88-0.79l0.11,0.67C194.09,262.92,193.4,263.22,192.58,263.22z
			 M190.96,259.92h2.9c-0.07-0.95-0.53-1.64-1.38-1.64C191.65,258.28,191.1,258.89,190.96,259.92z"/>
		<path class="st2" d="M197.58,263.21c-0.71,0-1.45-0.22-1.91-0.48l0.12-0.72c0.49,0.31,1.15,0.57,1.85,0.57
			c0.74,0,1.2-0.31,1.2-0.85c0-0.53-0.31-0.76-1.37-1.04c-1.18-0.3-1.68-0.69-1.68-1.56c0-0.83,0.71-1.44,1.81-1.44
			c0.63,0,1.18,0.15,1.65,0.36l-0.12,0.71c-0.48-0.26-1.02-0.42-1.55-0.42c-0.73,0-1.08,0.31-1.08,0.75s0.29,0.66,1.19,0.9
			c1.26,0.34,1.86,0.74,1.86,1.68C199.56,262.63,198.8,263.21,197.58,263.21z"/>
	</g>
	<g>
		<path class="st2" d="M120.23,275.14l-0.12-0.71c-0.49,0.46-1.11,0.82-1.88,0.82c-0.92,0-1.58-0.51-1.58-1.45
			c0-1.25,1.01-1.83,3.41-2.07v-0.35c0-0.72-0.43-1.02-1.1-1.02c-0.63,0-1.25,0.19-1.83,0.47l-0.1-0.66
			c0.62-0.27,1.22-0.46,1.98-0.46c1.18,0,1.79,0.55,1.79,1.64v3.78H120.23z M120.06,272.32c-2.09,0.21-2.67,0.72-2.67,1.44
			c0,0.57,0.39,0.86,0.95,0.86c0.57,0,1.2-0.31,1.72-0.8V272.32z"/>
		<path class="st2" d="M125.92,275.14v-3.66c0-0.69-0.31-1.1-0.99-1.1c-0.56,0-1.13,0.35-1.72,0.92v3.84h-0.74v-5.31h0.57l0.12,0.79
			c0.58-0.52,1.19-0.9,1.91-0.9c1.06,0,1.58,0.61,1.58,1.63v3.8H125.92z"/>
		<path class="st2" d="M132.02,275.14l-0.13-0.77c-0.4,0.48-0.93,0.89-1.71,0.89c-1.17,0-2.15-0.83-2.15-2.62
			c0-1.94,1.13-2.89,2.43-2.89c0.54,0,1.01,0.1,1.38,0.27v-2.81l0.74-0.13v8.06H132.02z M131.84,270.71
			c-0.42-0.21-0.81-0.31-1.36-0.31c-0.95,0-1.7,0.72-1.7,2.21c0,1.29,0.62,1.99,1.46,1.99c0.63,0,1.12-0.38,1.59-0.95V270.71z"/>
		<path class="st2" d="M138.9,275.25c-1.36,0-2.38-1.01-2.38-2.76c0-1.76,1.04-2.77,2.38-2.77c1.38,0,2.41,1.01,2.41,2.77
			C141.32,274.24,140.26,275.25,138.9,275.25z M138.9,270.35c-1.06,0-1.63,0.89-1.63,2.15c0,1.22,0.58,2.13,1.63,2.13
			c1.08,0,1.65-0.88,1.65-2.13C140.56,271.27,139.97,270.35,138.9,270.35z"/>
		<path class="st2" d="M144.85,275.21c-0.53,0-1-0.1-1.38-0.26v2.12l-0.74,0.12v-7.37h0.57l0.12,0.76c0.42-0.47,0.94-0.88,1.72-0.88
			c1.16,0,2.13,0.84,2.13,2.62C147.27,274.28,146.14,275.21,144.85,275.21z M145.06,270.38c-0.63,0-1.11,0.37-1.59,0.95v2.93
			c0.42,0.2,0.81,0.31,1.36,0.31c0.95,0,1.7-0.73,1.7-2.21C146.52,271.08,145.9,270.38,145.06,270.38z"/>
		<path class="st2" d="M150.81,275.21c-0.53,0-1-0.1-1.38-0.26v2.12l-0.74,0.12v-7.37h0.57l0.12,0.76c0.42-0.47,0.94-0.88,1.72-0.88
			c1.16,0,2.13,0.84,2.13,2.62C153.24,274.28,152.1,275.21,150.81,275.21z M151.02,270.38c-0.63,0-1.11,0.37-1.59,0.95v2.93
			c0.42,0.2,0.81,0.31,1.36,0.31c0.95,0,1.7-0.73,1.7-2.21C152.48,271.08,151.87,270.38,151.02,270.38z"/>
		<path class="st2" d="M156.71,275.25c-1.36,0-2.38-1.01-2.38-2.76c0-1.76,1.04-2.77,2.38-2.77c1.38,0,2.41,1.01,2.41,2.77
			C159.12,274.24,158.07,275.25,156.71,275.25z M156.71,270.35c-1.06,0-1.63,0.89-1.63,2.15c0,1.22,0.58,2.13,1.63,2.13
			c1.08,0,1.65-0.88,1.65-2.13C158.36,271.27,157.77,270.35,156.71,270.35z"/>
		<path class="st2" d="M161.27,271.81v3.34h-0.74v-5.31h0.55l0.17,1.09c0.39-0.6,1.01-1.18,1.89-1.2l0.12,0.7
			C162.38,270.47,161.63,271.1,161.27,271.81z"/>
		<path class="st2" d="M166.12,275.23c-0.83,0-1.38-0.33-1.38-1.3v-3.47h-0.82v-0.63h0.82v-1.84l0.73-0.12v1.97h1.22l0.1,0.63h-1.33
			v3.35c0,0.54,0.21,0.77,0.79,0.77c0.17,0,0.37-0.03,0.49-0.06l0.11,0.62C166.7,275.19,166.43,275.23,166.12,275.23z"/>
		<path class="st2" d="M171.76,275.14l-0.12-0.79c-0.58,0.52-1.19,0.9-1.91,0.9c-1.07,0-1.58-0.62-1.58-1.63v-3.8h0.74v3.66
			c0,0.69,0.31,1.09,0.99,1.09c0.56,0,1.13-0.34,1.72-0.91v-3.84h0.74v5.31H171.76z"/>
		<path class="st2" d="M177.51,275.14v-3.66c0-0.69-0.31-1.1-0.99-1.1c-0.56,0-1.13,0.35-1.72,0.92v3.84h-0.74v-5.31h0.57l0.12,0.79
			c0.58-0.52,1.19-0.9,1.91-0.9c1.06,0,1.58,0.61,1.58,1.63v3.8H177.51z"/>
		<path class="st2" d="M180.38,268.56c-0.29,0-0.54-0.25-0.54-0.54s0.25-0.54,0.54-0.54s0.53,0.25,0.53,0.54
			S180.68,268.56,180.38,268.56z M180.01,275.14v-5.31h0.73v5.31H180.01z"/>
		<path class="st2" d="M184.19,275.23c-0.83,0-1.38-0.33-1.38-1.3v-3.47h-0.82v-0.63h0.82v-1.84l0.73-0.12v1.97h1.22l0.1,0.63h-1.33
			v3.35c0,0.54,0.21,0.77,0.79,0.77c0.17,0,0.37-0.03,0.49-0.06l0.11,0.62C184.78,275.19,184.51,275.23,184.19,275.23z"/>
		<path class="st2" d="M186.71,268.56c-0.29,0-0.54-0.25-0.54-0.54s0.25-0.54,0.54-0.54s0.53,0.25,0.53,0.54
			S187,268.56,186.71,268.56z M186.34,275.14v-5.31h0.73v5.31H186.34z"/>
		<path class="st2" d="M190.94,275.25c-1.39,0-2.39-0.94-2.39-2.77c0-1.71,0.99-2.76,2.29-2.76c1.45,0,2.15,1.19,2.15,2.66v0.16
			h-3.69c0.02,1.31,0.63,2.08,1.7,2.08c0.71,0,1.33-0.31,1.88-0.79l0.11,0.67C192.45,274.95,191.76,275.25,190.94,275.25z
			 M189.32,271.95h2.9c-0.07-0.95-0.53-1.64-1.38-1.64C190.01,270.31,189.46,270.93,189.32,271.95z"/>
		<path class="st2" d="M195.94,275.24c-0.71,0-1.45-0.22-1.91-0.48l0.12-0.72c0.49,0.31,1.15,0.57,1.85,0.57
			c0.74,0,1.2-0.31,1.2-0.85c0-0.53-0.31-0.76-1.37-1.04c-1.18-0.3-1.68-0.69-1.68-1.56c0-0.83,0.71-1.44,1.81-1.44
			c0.63,0,1.18,0.15,1.65,0.36l-0.12,0.71c-0.48-0.26-1.02-0.42-1.55-0.42c-0.73,0-1.08,0.31-1.08,0.75s0.29,0.66,1.19,0.9
			c1.26,0.34,1.86,0.74,1.86,1.68C197.92,274.67,197.16,275.24,195.94,275.24z"/>
	</g>
	<g>
		<path class="st2" d="M131.67,287.18l-0.12-0.71c-0.49,0.46-1.11,0.82-1.88,0.82c-0.92,0-1.58-0.51-1.58-1.45
			c0-1.25,1.01-1.83,3.41-2.07v-0.35c0-0.72-0.43-1.02-1.1-1.02c-0.63,0-1.25,0.19-1.83,0.47l-0.1-0.66
			c0.62-0.27,1.22-0.46,1.98-0.46c1.18,0,1.79,0.55,1.79,1.64v3.78H131.67z M131.5,284.36c-2.09,0.21-2.67,0.72-2.67,1.44
			c0,0.57,0.39,0.86,0.95,0.86c0.57,0,1.2-0.31,1.72-0.8V284.36z"/>
		<path class="st2" d="M137.37,287.18v-3.66c0-0.69-0.31-1.1-0.99-1.1c-0.56,0-1.13,0.35-1.72,0.92v3.84h-0.74v-5.31h0.57l0.12,0.79
			c0.58-0.52,1.19-0.9,1.91-0.9c1.06,0,1.58,0.61,1.58,1.63v3.8H137.37z"/>
		<path class="st2" d="M143.46,287.18l-0.13-0.77c-0.4,0.48-0.93,0.89-1.71,0.89c-1.17,0-2.15-0.83-2.15-2.62
			c0-1.94,1.13-2.89,2.43-2.89c0.54,0,1.01,0.1,1.38,0.27v-2.81l0.74-0.13v8.06H143.46z M143.29,282.74
			c-0.42-0.21-0.81-0.31-1.36-0.31c-0.95,0-1.7,0.72-1.7,2.21c0,1.29,0.62,1.99,1.46,1.99c0.63,0,1.12-0.38,1.59-0.95V282.74z"/>
		<path class="st2" d="M151.97,287.18l-0.13-0.77c-0.4,0.48-0.93,0.89-1.71,0.89c-1.17,0-2.15-0.83-2.15-2.62
			c0-1.94,1.13-2.89,2.43-2.89c0.54,0,1.01,0.1,1.38,0.27v-2.81l0.74-0.13v8.06H151.97z M151.79,282.74
			c-0.42-0.21-0.81-0.31-1.36-0.31c-0.95,0-1.7,0.72-1.7,2.21c0,1.29,0.62,1.99,1.46,1.99c0.63,0,1.12-0.38,1.59-0.95V282.74z"/>
		<path class="st2" d="M156.33,287.29c-1.39,0-2.39-0.94-2.39-2.77c0-1.71,0.99-2.76,2.29-2.76c1.45,0,2.15,1.19,2.15,2.66v0.16
			h-3.69c0.02,1.31,0.63,2.08,1.7,2.08c0.71,0,1.33-0.31,1.88-0.79l0.11,0.67C157.83,286.99,157.15,287.29,156.33,287.29z
			 M154.71,283.99h2.9c-0.07-0.95-0.53-1.64-1.38-1.64C155.39,282.35,154.84,282.97,154.71,283.99z"/>
		<path class="st2" d="M161.32,287.28c-0.71,0-1.45-0.22-1.91-0.48l0.12-0.72c0.49,0.31,1.15,0.57,1.85,0.57
			c0.74,0,1.2-0.31,1.2-0.85c0-0.53-0.31-0.76-1.37-1.04c-1.18-0.3-1.68-0.69-1.68-1.56c0-0.83,0.71-1.44,1.81-1.44
			c0.63,0,1.18,0.15,1.65,0.36l-0.12,0.71c-0.48-0.26-1.02-0.42-1.55-0.42c-0.73,0-1.08,0.31-1.08,0.75s0.29,0.66,1.19,0.9
			c1.26,0.34,1.86,0.74,1.86,1.68C163.3,286.71,162.55,287.28,161.32,287.28z"/>
		<path class="st2" d="M166.78,287.29c-1.35,0-2.39-1.01-2.39-2.76c0-1.79,1.08-2.77,2.43-2.77c0.72,0,1.29,0.22,1.73,0.54
			l-0.12,0.74c-0.52-0.43-1.01-0.64-1.63-0.64c-1.01,0-1.65,0.82-1.65,2.12c0,1.31,0.65,2.12,1.73,2.12c0.56,0,1.07-0.16,1.62-0.63
			l0.1,0.67C168.07,287.09,167.5,287.29,166.78,287.29z"/>
		<path class="st2" d="M170.69,283.84v3.34h-0.74v-5.31h0.55l0.17,1.09c0.39-0.6,1.01-1.18,1.89-1.2l0.12,0.7
			C171.8,282.51,171.05,283.13,170.69,283.84z"/>
		<path class="st2" d="M174.26,280.6c-0.29,0-0.54-0.25-0.54-0.54s0.25-0.54,0.54-0.54s0.53,0.25,0.53,0.54
			S174.55,280.6,174.26,280.6z M173.89,287.18v-5.31h0.73v5.31H173.89z"/>
		<path class="st2" d="M178.36,287.24c-0.74,0-1.34-0.15-1.93-0.35v-7.65l0.74-0.13v3.45c0.38-0.42,0.9-0.81,1.64-0.81
			c1.16,0,2.13,0.84,2.13,2.62C180.95,286.31,179.83,287.24,178.36,287.24z M178.73,282.42c-0.6,0-1.09,0.37-1.56,0.92v3.05
			c0.34,0.13,0.69,0.21,1.22,0.21c1.06,0,1.8-0.69,1.8-2.2C180.19,283.11,179.58,282.42,178.73,282.42z"/>
		<path class="st2" d="M184.43,287.29c-1.39,0-2.39-0.94-2.39-2.77c0-1.71,0.99-2.76,2.29-2.76c1.45,0,2.15,1.19,2.15,2.66v0.16
			h-3.69c0.02,1.31,0.63,2.08,1.7,2.08c0.71,0,1.33-0.31,1.88-0.79l0.11,0.67C185.93,286.99,185.25,287.29,184.43,287.29z
			 M182.81,283.99h2.9c-0.07-0.95-0.53-1.64-1.38-1.64C183.5,282.35,182.94,282.97,182.81,283.99z"/>
	</g>
	<g>
		<path class="st2" d="M132.06,299.3c-0.83,0-1.38-0.33-1.38-1.3v-3.47h-0.82v-0.63h0.82v-1.84l0.73-0.12v1.97h1.22l0.1,0.63h-1.33
			v3.35c0,0.54,0.21,0.77,0.79,0.77c0.17,0,0.37-0.03,0.49-0.06l0.11,0.62C132.65,299.26,132.38,299.3,132.06,299.3z"/>
		<path class="st2" d="M137.58,299.21v-3.66c0-0.69-0.31-1.1-0.99-1.1c-0.56,0-1.13,0.35-1.72,0.92v3.84h-0.74v-7.93l0.74-0.13v3.5
			c0.55-0.48,1.15-0.86,1.86-0.86c1.06,0,1.58,0.61,1.58,1.62v3.81H137.58z"/>
		<path class="st2" d="M142.07,299.32c-1.39,0-2.39-0.94-2.39-2.77c0-1.71,0.99-2.76,2.29-2.76c1.45,0,2.15,1.19,2.15,2.66v0.16
			h-3.69c0.02,1.31,0.63,2.08,1.7,2.08c0.71,0,1.33-0.31,1.88-0.79l0.11,0.67C143.58,299.02,142.89,299.32,142.07,299.32z
			 M140.45,296.02h2.9c-0.07-0.95-0.53-1.64-1.38-1.64C141.14,294.38,140.59,295,140.45,296.02z"/>
		<path class="st2" d="M148.8,295.88v3.34h-0.74v-5.31h0.55l0.17,1.09c0.39-0.6,1.01-1.18,1.89-1.2l0.12,0.7
			C149.91,294.54,149.16,295.17,148.8,295.88z"/>
		<path class="st2" d="M154.97,299.21l-0.12-0.71c-0.49,0.46-1.11,0.82-1.88,0.82c-0.92,0-1.58-0.51-1.58-1.45
			c0-1.25,1.01-1.83,3.41-2.07v-0.35c0-0.72-0.43-1.02-1.1-1.02c-0.63,0-1.25,0.19-1.83,0.47l-0.1-0.66
			c0.62-0.27,1.22-0.46,1.98-0.46c1.18,0,1.79,0.55,1.79,1.64v3.78H154.97z M154.8,296.39c-2.09,0.21-2.67,0.72-2.67,1.44
			c0,0.57,0.39,0.86,0.95,0.86c0.57,0,1.2-0.31,1.72-0.8V296.39z"/>
		<path class="st2" d="M160.66,299.21v-3.66c0-0.69-0.31-1.1-0.99-1.1c-0.56,0-1.13,0.35-1.72,0.92v3.84h-0.74v-5.31h0.57l0.12,0.79
			c0.58-0.52,1.19-0.9,1.91-0.9c1.06,0,1.58,0.61,1.58,1.63v3.8H160.66z"/>
		<path class="st2" d="M164.91,301.23c-1.37,0-2.43-0.46-2.43-1.38c0-0.54,0.42-1,1.21-1.4c-0.27-0.17-0.39-0.36-0.39-0.56
			c0-0.27,0.18-0.49,0.53-0.71c-0.58-0.29-0.98-0.85-0.98-1.58c0-1.12,0.93-1.81,1.97-1.81c0.53,0,0.99,0.16,1.35,0.45l1.33-0.43
			l0.12,0.73l-1.07,0.11c0.18,0.27,0.28,0.58,0.28,0.94c0,1.12-0.93,1.81-1.99,1.81c-0.16,0-0.31-0.01-0.47-0.04
			c-0.22,0.12-0.34,0.26-0.34,0.38c0,0.21,0.21,0.29,1.19,0.47l0.39,0.08c1.18,0.21,1.82,0.56,1.82,1.35
			C167.43,300.66,166.28,301.23,164.91,301.23z M164.28,298.68c-0.73,0.34-1.07,0.7-1.07,1.12c0,0.55,0.7,0.86,1.74,0.86
			c1.08,0,1.77-0.42,1.77-0.94c0-0.42-0.34-0.64-1.28-0.82l-0.52-0.09C164.66,298.76,164.48,298.74,164.28,298.68z M164.82,294.34
			c-0.75,0-1.24,0.55-1.24,1.28c0,0.69,0.48,1.24,1.26,1.24s1.26-0.54,1.26-1.26C166.1,294.89,165.58,294.34,164.82,294.34z"/>
		<path class="st2" d="M170.67,299.32c-1.39,0-2.39-0.94-2.39-2.77c0-1.71,0.99-2.76,2.29-2.76c1.45,0,2.15,1.19,2.15,2.66v0.16
			h-3.69c0.02,1.31,0.63,2.08,1.7,2.08c0.71,0,1.33-0.31,1.88-0.79l0.11,0.67C172.17,299.02,171.49,299.32,170.67,299.32z
			 M169.05,296.02h2.9c-0.07-0.95-0.53-1.64-1.38-1.64C169.74,294.38,169.19,295,169.05,296.02z"/>
		<path class="st2" d="M178.71,299.32c-1.36,0-2.38-1.01-2.38-2.76c0-1.76,1.04-2.77,2.38-2.77c1.38,0,2.41,1.01,2.41,2.77
			C181.12,298.31,180.07,299.32,178.71,299.32z M178.71,294.42c-1.06,0-1.63,0.89-1.63,2.15c0,1.22,0.58,2.13,1.63,2.13
			c1.08,0,1.65-0.88,1.65-2.13C180.36,295.34,179.78,294.42,178.71,294.42z"/>
		<path class="st2" d="M184.37,291.86c-0.51,0-0.81,0.22-0.81,0.81v1.24h1.09l0.1,0.63h-1.19v4.68h-0.73v-4.68h-0.81v-0.63h0.81
			v-1.29c0-0.98,0.58-1.43,1.49-1.43c0.17,0,0.27,0.01,0.38,0.02l0.11,0.69C184.72,291.87,184.57,291.86,184.37,291.86z"/>
	</g>
	<g>
		<path class="st2" d="M128.09,304.67c-0.29,0-0.54-0.25-0.54-0.54s0.25-0.54,0.54-0.54s0.53,0.25,0.53,0.54
			S128.38,304.67,128.09,304.67z M127.72,311.25v-5.31h0.73v5.31H127.72z"/>
		<path class="st2" d="M133.7,311.25v-3.66c0-0.69-0.31-1.1-0.99-1.1c-0.56,0-1.13,0.35-1.72,0.92v3.84h-0.74v-5.31h0.57l0.12,0.79
			c0.58-0.52,1.19-0.9,1.91-0.9c1.06,0,1.58,0.61,1.58,1.63v3.8H133.7z"/>
		<path class="st2" d="M137.77,311.34c-0.83,0-1.38-0.33-1.38-1.3v-3.47h-0.82v-0.63h0.82v-1.84l0.73-0.12v1.97h1.22l0.1,0.63h-1.33
			v3.35c0,0.54,0.21,0.77,0.79,0.77c0.17,0,0.37-0.03,0.49-0.06l0.11,0.62C138.35,311.29,138.08,311.34,137.77,311.34z"/>
		<path class="st2" d="M141.87,311.36c-1.39,0-2.39-0.94-2.39-2.77c0-1.71,0.99-2.76,2.29-2.76c1.45,0,2.15,1.19,2.15,2.66v0.16
			h-3.69c0.02,1.31,0.63,2.08,1.7,2.08c0.71,0,1.33-0.31,1.88-0.79l0.11,0.67C143.37,311.06,142.69,311.36,141.87,311.36z
			 M140.25,308.06h2.9c-0.07-0.95-0.53-1.64-1.38-1.64C140.94,306.42,140.39,307.04,140.25,308.06z"/>
		<path class="st2" d="M146.06,307.91v3.34h-0.74v-5.31h0.55l0.17,1.09c0.39-0.6,1.01-1.18,1.89-1.2l0.12,0.7
			C147.17,306.58,146.42,307.2,146.06,307.91z"/>
		<path class="st2" d="M151.29,311.29h-0.7l-1.93-5.29l0.73-0.13l1.57,4.51l1.53-4.45h0.76L151.29,311.29z"/>
		<path class="st2" d="M156.36,311.36c-1.39,0-2.39-0.94-2.39-2.77c0-1.71,0.99-2.76,2.29-2.76c1.45,0,2.15,1.19,2.15,2.66v0.16
			h-3.69c0.02,1.31,0.63,2.08,1.7,2.08c0.71,0,1.33-0.31,1.88-0.79l0.11,0.67C157.86,311.06,157.18,311.36,156.36,311.36z
			 M154.74,308.06h2.9c-0.07-0.95-0.53-1.64-1.38-1.64C155.43,306.42,154.88,307.04,154.74,308.06z"/>
		<path class="st2" d="M163.25,311.25v-3.66c0-0.69-0.31-1.1-0.99-1.1c-0.56,0-1.13,0.35-1.72,0.92v3.84h-0.74v-5.31h0.57l0.12,0.79
			c0.58-0.52,1.19-0.9,1.91-0.9c1.06,0,1.58,0.61,1.58,1.63v3.8H163.25z"/>
		<path class="st2" d="M167.32,311.34c-0.83,0-1.38-0.33-1.38-1.3v-3.47h-0.82v-0.63h0.82v-1.84l0.73-0.12v1.97h1.22l0.1,0.63h-1.33
			v3.35c0,0.54,0.21,0.77,0.79,0.77c0.17,0,0.37-0.03,0.49-0.06l0.11,0.62C167.9,311.29,167.64,311.34,167.32,311.34z"/>
		<path class="st2" d="M169.84,304.67c-0.29,0-0.54-0.25-0.54-0.54s0.25-0.54,0.54-0.54s0.53,0.25,0.53,0.54
			S170.13,304.67,169.84,304.67z M169.47,311.25v-5.31h0.73v5.31H169.47z"/>
		<path class="st2" d="M174.06,311.36c-1.36,0-2.38-1.01-2.38-2.76c0-1.76,1.04-2.77,2.38-2.77c1.38,0,2.41,1.01,2.41,2.77
			C176.47,310.35,175.42,311.36,174.06,311.36z M174.06,306.45c-1.06,0-1.63,0.89-1.63,2.15c0,1.22,0.58,2.13,1.63,2.13
			c1.08,0,1.65-0.88,1.65-2.13C175.71,307.37,175.13,306.45,174.06,306.45z"/>
		<path class="st2" d="M181.33,311.25v-3.66c0-0.69-0.31-1.1-0.99-1.1c-0.56,0-1.13,0.35-1.72,0.92v3.84h-0.74v-5.31h0.57l0.12,0.79
			c0.58-0.52,1.19-0.9,1.91-0.9c1.06,0,1.58,0.61,1.58,1.63v3.8H181.33z"/>
		<path class="st2" d="M185.3,311.35c-0.71,0-1.45-0.22-1.91-0.48l0.12-0.72c0.49,0.31,1.15,0.57,1.85,0.57
			c0.74,0,1.2-0.31,1.2-0.85c0-0.53-0.31-0.76-1.37-1.04c-1.18-0.3-1.68-0.69-1.68-1.56c0-0.83,0.71-1.44,1.81-1.44
			c0.63,0,1.18,0.15,1.65,0.36l-0.12,0.71c-0.48-0.26-1.02-0.42-1.55-0.42c-0.73,0-1.08,0.31-1.08,0.75s0.29,0.66,1.19,0.9
			c1.26,0.34,1.86,0.74,1.86,1.68C187.28,310.78,186.53,311.35,185.3,311.35z"/>
	</g>
	<g>
		<path class="st2" d="M121.94,323.28v-3.66c0-0.69-0.31-1.1-0.99-1.1c-0.56,0-1.13,0.35-1.72,0.92v3.84h-0.74v-5.31h0.57l0.12,0.79
			c0.58-0.52,1.19-0.9,1.91-0.9c1.06,0,1.58,0.61,1.58,1.63v3.8H121.94z"/>
		<path class="st2" d="M126.44,323.4c-1.39,0-2.39-0.94-2.39-2.77c0-1.71,0.99-2.76,2.29-2.76c1.45,0,2.15,1.19,2.15,2.66v0.16
			h-3.69c0.02,1.31,0.63,2.08,1.7,2.08c0.71,0,1.33-0.31,1.88-0.79l0.11,0.67C127.94,323.09,127.26,323.4,126.44,323.4z
			 M124.82,320.09h2.9c-0.07-0.95-0.53-1.64-1.38-1.64C125.5,318.45,124.95,319.07,124.82,320.09z"/>
		<path class="st2" d="M131.95,323.4c-1.39,0-2.39-0.94-2.39-2.77c0-1.71,0.99-2.76,2.29-2.76c1.45,0,2.15,1.19,2.15,2.66v0.16
			h-3.69c0.02,1.31,0.63,2.08,1.7,2.08c0.71,0,1.33-0.31,1.88-0.79l0.11,0.67C133.46,323.09,132.77,323.4,131.95,323.4z
			 M130.33,320.09h2.9c-0.07-0.95-0.53-1.64-1.38-1.64C131.02,318.45,130.47,319.07,130.33,320.09z"/>
		<path class="st2" d="M139.07,323.28l-0.13-0.77c-0.4,0.48-0.93,0.89-1.71,0.89c-1.17,0-2.15-0.83-2.15-2.62
			c0-1.94,1.13-2.89,2.43-2.89c0.54,0,1.01,0.1,1.38,0.27v-2.81l0.74-0.13v8.06H139.07z M138.89,318.85
			c-0.42-0.21-0.81-0.31-1.36-0.31c-0.95,0-1.7,0.72-1.7,2.21c0,1.29,0.62,1.99,1.46,1.99c0.63,0,1.12-0.38,1.59-0.95V318.85z"/>
		<path class="st2" d="M143.43,323.4c-1.39,0-2.39-0.94-2.39-2.77c0-1.71,0.99-2.76,2.29-2.76c1.45,0,2.15,1.19,2.15,2.66v0.16
			h-3.69c0.02,1.31,0.63,2.08,1.7,2.08c0.71,0,1.33-0.31,1.88-0.79l0.11,0.67C144.94,323.09,144.25,323.4,143.43,323.4z
			 M141.81,320.09h2.9c-0.07-0.95-0.53-1.64-1.38-1.64C142.5,318.45,141.95,319.07,141.81,320.09z"/>
		<path class="st2" d="M150.55,323.28l-0.13-0.77c-0.4,0.48-0.93,0.89-1.71,0.89c-1.17,0-2.15-0.83-2.15-2.62
			c0-1.94,1.13-2.89,2.43-2.89c0.54,0,1.01,0.1,1.38,0.27v-2.81l0.74-0.13v8.06H150.55z M150.37,318.85
			c-0.42-0.21-0.81-0.31-1.36-0.31c-0.95,0-1.7,0.72-1.7,2.21c0,1.29,0.62,1.99,1.46,1.99c0.63,0,1.12-0.38,1.59-0.95V318.85z"/>
		<path class="st2" d="M157.02,323.37c-0.83,0-1.38-0.33-1.38-1.3v-3.47h-0.82v-0.63h0.82v-1.84l0.73-0.12v1.97h1.22l0.1,0.63h-1.33
			v3.35c0,0.54,0.21,0.77,0.79,0.77c0.17,0,0.37-0.03,0.49-0.06l0.11,0.62C157.61,323.33,157.34,323.37,157.02,323.37z"/>
		<path class="st2" d="M161.11,323.4c-1.36,0-2.38-1.01-2.38-2.76c0-1.76,1.04-2.77,2.38-2.77c1.38,0,2.41,1.01,2.41,2.77
			C163.52,322.38,162.47,323.4,161.11,323.4z M161.11,318.49c-1.06,0-1.63,0.89-1.63,2.15c0,1.22,0.58,2.13,1.63,2.13
			c1.08,0,1.65-0.88,1.65-2.13C162.76,319.41,162.18,318.49,161.11,318.49z"/>
		<path class="st2" d="M168.21,319.95v3.34h-0.74v-5.31h0.55l0.17,1.09c0.39-0.6,1.01-1.18,1.89-1.2l0.12,0.7
			C169.32,318.61,168.57,319.24,168.21,319.95z"/>
		<path class="st2" d="M173.21,323.4c-1.39,0-2.39-0.94-2.39-2.77c0-1.71,0.99-2.76,2.29-2.76c1.45,0,2.15,1.19,2.15,2.66v0.16
			h-3.69c0.02,1.31,0.63,2.08,1.7,2.08c0.71,0,1.33-0.31,1.88-0.79l0.11,0.67C174.71,323.09,174.03,323.4,173.21,323.4z
			 M171.59,320.09h2.9c-0.07-0.95-0.53-1.64-1.38-1.64C172.27,318.45,171.72,319.07,171.59,320.09z"/>
		<path class="st2" d="M179.9,323.28l-0.12-0.71c-0.49,0.46-1.11,0.82-1.88,0.82c-0.92,0-1.58-0.51-1.58-1.45
			c0-1.25,1.01-1.83,3.41-2.07v-0.35c0-0.72-0.43-1.02-1.1-1.02c-0.63,0-1.25,0.19-1.83,0.47l-0.1-0.66
			c0.62-0.27,1.22-0.46,1.98-0.46c1.18,0,1.79,0.55,1.79,1.64v3.78H179.9z M179.73,320.46c-2.09,0.21-2.67,0.72-2.67,1.44
			c0,0.57,0.39,0.86,0.95,0.86c0.57,0,1.2-0.31,1.72-0.8V320.46z"/>
		<path class="st2" d="M182.23,323.28v-7.93l0.73-0.13v8.06H182.23z"/>
		<path class="st2" d="M185.23,316.7c-0.29,0-0.54-0.25-0.54-0.54s0.25-0.54,0.54-0.54s0.53,0.25,0.53,0.54
			S185.52,316.7,185.23,316.7z M184.85,323.28v-5.31h0.73v5.31H184.85z"/>
		<path class="st2" d="M188.94,323.38c-0.71,0-1.45-0.22-1.91-0.48l0.12-0.72c0.49,0.31,1.15,0.57,1.85,0.57
			c0.74,0,1.2-0.31,1.2-0.85c0-0.53-0.31-0.76-1.37-1.04c-1.18-0.3-1.68-0.69-1.68-1.56c0-0.83,0.71-1.44,1.81-1.44
			c0.63,0,1.18,0.15,1.65,0.36l-0.12,0.71c-0.48-0.26-1.02-0.42-1.55-0.42c-0.73,0-1.08,0.31-1.08,0.75s0.29,0.66,1.19,0.9
			c1.26,0.34,1.86,0.74,1.86,1.68C190.92,322.81,190.17,323.38,188.94,323.38z"/>
		<path class="st2" d="M194.38,323.4c-1.39,0-2.39-0.94-2.39-2.77c0-1.71,0.99-2.76,2.29-2.76c1.45,0,2.15,1.19,2.15,2.66v0.16
			h-3.69c0.02,1.31,0.63,2.08,1.7,2.08c0.71,0,1.33-0.31,1.88-0.79l0.11,0.67C195.88,323.09,195.2,323.4,194.38,323.4z
			 M192.76,320.09h2.9c-0.07-0.95-0.53-1.64-1.38-1.64C193.45,318.45,192.9,319.07,192.76,320.09z"/>
	</g>
	<g>
		<path class="st2" d="M147.64,335.41c-0.83,0-1.38-0.33-1.38-1.3v-3.47h-0.82v-0.63h0.82v-1.84l0.73-0.12v1.97h1.22l0.1,0.63h-1.33
			v3.35c0,0.54,0.21,0.77,0.79,0.77c0.17,0,0.37-0.03,0.49-0.06l0.11,0.62C148.23,335.36,147.96,335.41,147.64,335.41z"/>
		<path class="st2" d="M153.16,335.32v-3.66c0-0.69-0.31-1.1-0.99-1.1c-0.56,0-1.13,0.35-1.72,0.92v3.84h-0.74v-7.93l0.74-0.13v3.5
			c0.55-0.48,1.15-0.86,1.86-0.86c1.06,0,1.58,0.61,1.58,1.62v3.81H153.16z"/>
		<path class="st2" d="M157.65,335.43c-1.39,0-2.39-0.94-2.39-2.77c0-1.71,0.99-2.76,2.29-2.76c1.45,0,2.15,1.19,2.15,2.66v0.16H156
			c0.02,1.31,0.63,2.08,1.7,2.08c0.71,0,1.33-0.31,1.88-0.79l0.11,0.67C159.16,335.13,158.47,335.43,157.65,335.43z M156.03,332.13
			h2.9c-0.07-0.95-0.53-1.64-1.38-1.64C156.72,330.49,156.17,331.11,156.03,332.13z"/>
		<path class="st2" d="M167.87,335.32v-3.66c0-0.69-0.28-1.1-0.97-1.1c-0.55,0-1.1,0.34-1.68,0.91v3.85h-0.73v-3.66
			c0-0.69-0.28-1.1-0.97-1.1c-0.55,0-1.11,0.34-1.68,0.9v3.86h-0.74v-5.31h0.57l0.12,0.76c0.57-0.51,1.17-0.88,1.88-0.88
			c0.82,0,1.27,0.34,1.46,0.92c0.58-0.53,1.2-0.92,1.93-0.92c1.06,0,1.55,0.61,1.55,1.62v3.81H167.87z"/>
	</g>
	<g>
		<path class="st23" d="M247.18,248.29h-0.32v2.08h-2.04v-6.92h2.4c1.78,0,2.88,0.77,2.88,2.37
			C250.09,247.45,248.92,248.29,247.18,248.29z M247.09,244.94h-0.25v1.85h0.23c0.68,0,1.05-0.3,1.05-0.95
			C248.12,245.24,247.77,244.94,247.09,244.94z"/>
		<path class="st23" d="M254.34,250.44l-1.27-2.22h-0.31v2.15h-2.04v-6.92h2.65c1.78,0,2.81,0.79,2.81,2.28c0,0.93-0.42,1.59-1.2,2
			l1.5,2.39L254.34,250.44z M253.15,244.94h-0.41v1.85h0.42c0.66,0,1.02-0.34,1.02-0.95C254.18,245.26,253.81,244.94,253.15,244.94z
			"/>
		<path class="st23" d="M257.09,250.37v-6.92h4.56v1.61h-2.56v0.95h1.93l0.25,1.59h-2.19v1.14h2.65v1.61H257.09z"/>
		<path class="st23" d="M264.95,250.45c-1.01,0-1.83-0.21-2.63-0.55l0.3-1.67c0.81,0.4,1.66,0.66,2.36,0.66
			c0.4,0,0.66-0.14,0.66-0.44c0-0.29-0.17-0.43-1.11-0.76c-1.41-0.5-2.06-0.96-2.06-2.18c0-1.42,1.11-2.14,2.48-2.14
			c1,0,1.61,0.17,2.3,0.49l-0.3,1.66c-0.72-0.39-1.43-0.59-1.95-0.59c-0.41,0-0.61,0.14-0.61,0.38c0,0.27,0.16,0.41,0.94,0.67
			c1.57,0.52,2.23,1.07,2.23,2.21C267.55,249.82,266.35,250.45,264.95,250.45z"/>
		<path class="st23" d="M270.59,250.45c-1.01,0-1.83-0.21-2.63-0.55l0.3-1.67c0.81,0.4,1.66,0.66,2.36,0.66
			c0.4,0,0.66-0.14,0.66-0.44c0-0.29-0.17-0.43-1.11-0.76c-1.41-0.5-2.06-0.96-2.06-2.18c0-1.42,1.11-2.14,2.48-2.14
			c1,0,1.61,0.17,2.3,0.49l-0.3,1.66c-0.72-0.39-1.43-0.59-1.95-0.59c-0.41,0-0.61,0.14-0.61,0.38c0,0.27,0.16,0.41,0.94,0.67
			c1.57,0.52,2.23,1.07,2.23,2.21C273.19,249.82,272,250.45,270.59,250.45z"/>
		<path class="st23" d="M276.84,250.47c-1.69,0-2.96-0.85-2.96-2.89v-4.13h2.06v4.16c0,0.76,0.35,1.16,0.93,1.16
			c0.62,0,0.92-0.42,0.92-1.14v-4.18h2.06v4.13C279.85,249.59,278.51,250.47,276.84,250.47z"/>
		<path class="st23" d="M284.47,250.44l-1.27-2.22h-0.31v2.15h-2.04v-6.92h2.65c1.78,0,2.81,0.79,2.81,2.28c0,0.93-0.42,1.59-1.2,2
			l1.5,2.39L284.47,250.44z M283.27,244.94h-0.41v1.85h0.42c0.66,0,1.02-0.34,1.02-0.95C284.31,245.26,283.93,244.94,283.27,244.94z
			"/>
		<path class="st23" d="M287.21,250.37v-6.92h4.56v1.61h-2.56v0.95h1.93l0.25,1.59h-2.19v1.14h2.65v1.61H287.21z"/>
	</g>
	<g>
		<path class="st2" d="M235.53,264.3v-7.75h0.77v7.75H235.53z"/>
		<path class="st2" d="M241.96,264.3l-0.13-0.77c-0.4,0.48-0.93,0.89-1.71,0.89c-1.17,0-2.15-0.83-2.15-2.62
			c0-1.94,1.13-2.89,2.43-2.89c0.54,0,1.01,0.1,1.38,0.27v-2.81l0.74-0.13v8.06H241.96z M241.78,259.86
			c-0.42-0.21-0.81-0.31-1.36-0.31c-0.95,0-1.7,0.72-1.7,2.21c0,1.29,0.62,1.99,1.46,1.99c0.63,0,1.12-0.38,1.59-0.95V259.86z"/>
		<path class="st2" d="M246.32,264.41c-1.39,0-2.39-0.94-2.39-2.77c0-1.71,0.99-2.76,2.29-2.76c1.45,0,2.15,1.19,2.15,2.66v0.16
			h-3.69c0.02,1.31,0.63,2.08,1.7,2.08c0.71,0,1.33-0.31,1.88-0.79l0.11,0.67C247.83,264.11,247.14,264.41,246.32,264.41z
			 M244.7,261.11h2.9c-0.07-0.95-0.53-1.64-1.38-1.64C245.39,259.47,244.84,260.09,244.7,261.11z"/>
		<path class="st2" d="M253.22,264.3v-3.66c0-0.69-0.31-1.1-0.99-1.1c-0.56,0-1.13,0.35-1.72,0.92v3.84h-0.74v-5.31h0.57l0.12,0.79
			c0.58-0.52,1.19-0.9,1.91-0.9c1.06,0,1.58,0.61,1.58,1.63v3.8H253.22z"/>
		<path class="st2" d="M257.28,264.39c-0.83,0-1.38-0.33-1.38-1.3v-3.47h-0.82v-0.63h0.82v-1.84l0.73-0.12v1.97h1.22l0.1,0.63h-1.33
			v3.35c0,0.54,0.21,0.77,0.79,0.77c0.17,0,0.37-0.03,0.49-0.06l0.11,0.62C257.87,264.34,257.6,264.39,257.28,264.39z"/>
		<path class="st2" d="M259.8,257.72c-0.29,0-0.54-0.25-0.54-0.54s0.25-0.54,0.54-0.54s0.53,0.25,0.53,0.54
			S260.09,257.72,259.8,257.72z M259.43,264.3v-5.31h0.73v5.31H259.43z"/>
		<path class="st2" d="M263.81,256.94c-0.51,0-0.81,0.22-0.81,0.81v1.24h1.09l0.1,0.63H263v4.68h-0.73v-4.68h-0.81v-0.63h0.81v-1.29
			c0-0.98,0.58-1.43,1.49-1.43c0.17,0,0.27,0.01,0.38,0.02l0.11,0.69C264.16,256.95,264.01,256.94,263.81,256.94z"/>
		<path class="st2" d="M267.26,264.96c-0.38,1.03-0.85,1.36-1.64,1.36c-0.11,0-0.21-0.02-0.29-0.03l-0.1-0.65
			c0.11,0.02,0.27,0.04,0.44,0.04c0.44,0,0.7-0.19,0.9-0.71l0.25-0.64l-2.01-5.28l0.72-0.13l1.65,4.53l1.57-4.46h0.76L267.26,264.96
			z"/>
		<path class="st2" d="M274.88,264.39c-0.83,0-1.38-0.33-1.38-1.3v-3.47h-0.82v-0.63h0.82v-1.84l0.73-0.12v1.97h1.22l0.1,0.63h-1.33
			v3.35c0,0.54,0.21,0.77,0.79,0.77c0.17,0,0.37-0.03,0.49-0.06l0.11,0.62C275.47,264.34,275.2,264.39,274.88,264.39z"/>
		<path class="st2" d="M277.69,260.96v3.34h-0.74v-5.31h0.55l0.17,1.09c0.39-0.6,1.01-1.18,1.89-1.2l0.12,0.7
			C278.8,259.62,278.05,260.25,277.69,260.96z"/>
		<path class="st2" d="M282.68,264.41c-1.39,0-2.39-0.94-2.39-2.77c0-1.71,0.99-2.76,2.29-2.76c1.45,0,2.15,1.19,2.15,2.66v0.16
			h-3.69c0.02,1.31,0.63,2.08,1.7,2.08c0.71,0,1.33-0.31,1.88-0.79l0.11,0.67C284.18,264.11,283.5,264.41,282.68,264.41z
			 M281.06,261.11h2.9c-0.07-0.95-0.53-1.64-1.38-1.64C281.75,259.47,281.19,260.09,281.06,261.11z"/>
		<path class="st2" d="M289.57,264.3v-3.66c0-0.69-0.31-1.1-0.99-1.1c-0.56,0-1.13,0.35-1.72,0.92v3.84h-0.74v-5.31h0.57l0.12,0.79
			c0.58-0.52,1.19-0.9,1.91-0.9c1.06,0,1.58,0.61,1.58,1.63v3.8H289.57z"/>
		<path class="st2" d="M295.67,264.3l-0.13-0.77c-0.4,0.48-0.93,0.89-1.71,0.89c-1.17,0-2.15-0.83-2.15-2.62
			c0-1.94,1.13-2.89,2.43-2.89c0.54,0,1.01,0.1,1.38,0.27v-2.81l0.74-0.13v8.06H295.67z M295.49,259.86
			c-0.42-0.21-0.81-0.31-1.36-0.31c-0.95,0-1.7,0.72-1.7,2.21c0,1.29,0.62,1.99,1.46,1.99c0.63,0,1.12-0.38,1.59-0.95V259.86z"/>
		<path class="st2" d="M299.51,264.4c-0.71,0-1.45-0.22-1.91-0.48l0.12-0.72c0.49,0.31,1.15,0.57,1.85,0.57
			c0.74,0,1.2-0.31,1.2-0.85c0-0.53-0.31-0.76-1.37-1.04c-1.18-0.3-1.68-0.69-1.68-1.56c0-0.83,0.71-1.44,1.81-1.44
			c0.63,0,1.18,0.15,1.65,0.36l-0.12,0.71c-0.48-0.26-1.02-0.42-1.55-0.42c-0.73,0-1.08,0.31-1.08,0.75s0.29,0.66,1.19,0.9
			c1.26,0.34,1.86,0.74,1.86,1.68C301.49,263.83,300.74,264.4,299.51,264.4z"/>
	</g>
	<g>
		<path class="st2" d="M235.54,276.42c-0.83,0-1.38-0.33-1.38-1.3v-3.47h-0.82v-0.63h0.82v-1.84l0.73-0.12v1.97h1.22l0.1,0.63h-1.33
			V275c0,0.54,0.21,0.77,0.79,0.77c0.17,0,0.37-0.03,0.49-0.06l0.11,0.62C236.12,276.38,235.85,276.42,235.54,276.42z"/>
		<path class="st2" d="M241.05,276.33v-3.66c0-0.69-0.31-1.1-0.99-1.1c-0.56,0-1.13,0.35-1.72,0.92v3.84h-0.74v-7.93l0.74-0.13v3.5
			c0.55-0.48,1.15-0.86,1.86-0.86c1.06,0,1.58,0.61,1.58,1.62v3.81H241.05z"/>
		<path class="st2" d="M246.72,276.33l-0.12-0.71c-0.49,0.46-1.11,0.82-1.88,0.82c-0.92,0-1.58-0.51-1.58-1.45
			c0-1.25,1.01-1.83,3.41-2.07v-0.35c0-0.72-0.43-1.02-1.1-1.02c-0.63,0-1.25,0.19-1.83,0.47l-0.1-0.66
			c0.62-0.27,1.22-0.46,1.98-0.46c1.18,0,1.79,0.55,1.79,1.64v3.78H246.72z M246.56,273.51c-2.09,0.21-2.67,0.72-2.67,1.44
			c0,0.57,0.39,0.86,0.95,0.86c0.57,0,1.2-0.31,1.72-0.8V273.51z"/>
		<path class="st2" d="M250.61,276.42c-0.83,0-1.38-0.33-1.38-1.3v-3.47h-0.82v-0.63h0.82v-1.84l0.73-0.12v1.97h1.22l0.1,0.63h-1.33
			V275c0,0.54,0.21,0.77,0.79,0.77c0.17,0,0.37-0.03,0.49-0.06l0.11,0.62C251.19,276.38,250.93,276.42,250.61,276.42z"/>
		<path class="st2" d="M258.46,276.33l-0.12-0.71c-0.49,0.46-1.11,0.82-1.88,0.82c-0.92,0-1.58-0.51-1.58-1.45
			c0-1.25,1.01-1.83,3.41-2.07v-0.35c0-0.72-0.43-1.02-1.1-1.02c-0.63,0-1.25,0.19-1.83,0.47l-0.1-0.66
			c0.62-0.27,1.22-0.46,1.98-0.46c1.18,0,1.79,0.55,1.79,1.64v3.78H258.46z M258.29,273.51c-2.09,0.21-2.67,0.72-2.67,1.44
			c0,0.57,0.39,0.86,0.95,0.86c0.57,0,1.2-0.31,1.72-0.8V273.51z"/>
		<path class="st2" d="M261.45,273v3.34h-0.74v-5.31h0.55l0.17,1.09c0.39-0.6,1.01-1.18,1.89-1.2l0.12,0.7
			C262.56,271.66,261.81,272.29,261.45,273z"/>
		<path class="st2" d="M266.44,276.44c-1.39,0-2.39-0.94-2.39-2.77c0-1.71,0.99-2.76,2.29-2.76c1.45,0,2.15,1.19,2.15,2.66v0.16
			h-3.69c0.02,1.31,0.63,2.08,1.7,2.08c0.71,0,1.33-0.31,1.88-0.79l0.11,0.67C267.94,276.14,267.26,276.44,266.44,276.44z
			 M264.82,273.14h2.9c-0.07-0.95-0.53-1.64-1.38-1.64C265.5,271.5,264.95,272.12,264.82,273.14z"/>
		<path class="st2" d="M276.1,276.33l-0.13-0.77c-0.4,0.48-0.93,0.89-1.71,0.89c-1.17,0-2.15-0.83-2.15-2.62
			c0-1.94,1.13-2.89,2.43-2.89c0.54,0,1.01,0.1,1.38,0.27v-2.81l0.74-0.13v8.06H276.1z M275.92,271.9
			c-0.42-0.21-0.81-0.31-1.36-0.31c-0.95,0-1.7,0.72-1.7,2.21c0,1.29,0.62,1.99,1.46,1.99c0.63,0,1.12-0.38,1.59-0.95V271.9z"/>
		<path class="st2" d="M279.13,273v3.34h-0.74v-5.31h0.55l0.17,1.09c0.39-0.6,1.01-1.18,1.89-1.2l0.12,0.7
			C280.24,271.66,279.49,272.29,279.13,273z"/>
		<path class="st2" d="M282.7,269.75c-0.29,0-0.54-0.25-0.54-0.54s0.25-0.54,0.54-0.54s0.53,0.25,0.53,0.54
			S282.99,269.75,282.7,269.75z M282.33,276.33v-5.31h0.73v5.31H282.33z"/>
		<path class="st2" d="M286.98,276.38h-0.7l-1.93-5.29l0.73-0.13l1.57,4.51l1.53-4.45h0.76L286.98,276.38z"/>
		<path class="st2" d="M290.58,269.75c-0.29,0-0.54-0.25-0.54-0.54s0.25-0.54,0.54-0.54s0.53,0.25,0.53,0.54
			S290.88,269.75,290.58,269.75z M290.21,276.33v-5.31h0.73v5.31H290.21z"/>
		<path class="st2" d="M296.2,276.33v-3.66c0-0.69-0.31-1.1-0.99-1.1c-0.56,0-1.13,0.35-1.72,0.92v3.84h-0.74v-5.31h0.57l0.12,0.79
			c0.58-0.52,1.19-0.9,1.91-0.9c1.06,0,1.58,0.61,1.58,1.63v3.8H296.2z"/>
		<path class="st2" d="M300.45,278.35c-1.37,0-2.43-0.46-2.43-1.38c0-0.54,0.42-1,1.21-1.4c-0.27-0.17-0.39-0.36-0.39-0.56
			c0-0.27,0.18-0.49,0.53-0.71c-0.58-0.29-0.98-0.85-0.98-1.58c0-1.12,0.93-1.81,1.97-1.81c0.53,0,0.99,0.16,1.35,0.45l1.33-0.43
			l0.12,0.73l-1.07,0.11c0.18,0.27,0.28,0.58,0.28,0.94c0,1.12-0.93,1.81-1.99,1.81c-0.16,0-0.31-0.01-0.47-0.04
			c-0.22,0.12-0.34,0.26-0.34,0.38c0,0.21,0.21,0.29,1.19,0.47l0.39,0.08c1.18,0.21,1.82,0.56,1.82,1.35
			C302.97,277.78,301.82,278.35,300.45,278.35z M299.82,275.8c-0.73,0.34-1.07,0.7-1.07,1.12c0,0.55,0.7,0.86,1.74,0.86
			c1.08,0,1.77-0.42,1.77-0.94c0-0.42-0.34-0.64-1.28-0.82l-0.52-0.09C300.2,275.88,300.02,275.86,299.82,275.8z M300.36,271.46
			c-0.75,0-1.24,0.55-1.24,1.28c0,0.69,0.48,1.24,1.26,1.24s1.26-0.54,1.26-1.26C301.64,272.01,301.12,271.46,300.36,271.46z"/>
	</g>
	<g>
		<path class="st2" d="M235.39,288.37l-0.12-0.71c-0.49,0.46-1.11,0.82-1.88,0.82c-0.92,0-1.58-0.51-1.58-1.45
			c0-1.25,1.01-1.83,3.41-2.07v-0.35c0-0.72-0.43-1.02-1.1-1.02c-0.63,0-1.25,0.19-1.83,0.47l-0.1-0.66
			c0.62-0.27,1.22-0.46,1.98-0.46c1.18,0,1.79,0.55,1.79,1.64v3.78H235.39z M235.22,285.55c-2.09,0.21-2.67,0.72-2.67,1.44
			c0,0.57,0.39,0.86,0.95,0.86c0.57,0,1.2-0.31,1.72-0.8V285.55z"/>
		<path class="st2" d="M241.08,288.37v-3.66c0-0.69-0.31-1.1-0.99-1.1c-0.56,0-1.13,0.35-1.72,0.92v3.84h-0.74v-5.31h0.57l0.12,0.79
			c0.58-0.52,1.19-0.9,1.91-0.9c1.06,0,1.58,0.61,1.58,1.63v3.8H241.08z"/>
		<path class="st2" d="M247.18,288.37l-0.13-0.77c-0.4,0.48-0.93,0.89-1.71,0.89c-1.17,0-2.15-0.83-2.15-2.62
			c0-1.94,1.13-2.89,2.43-2.89c0.54,0,1.01,0.1,1.38,0.27v-2.81l0.74-0.13v8.06H247.18z M247,283.93c-0.42-0.21-0.81-0.31-1.36-0.31
			c-0.95,0-1.7,0.72-1.7,2.21c0,1.29,0.62,1.99,1.46,1.99c0.63,0,1.12-0.38,1.59-0.95V283.93z"/>
		<path class="st2" d="M253.56,288.47c-0.71,0-1.45-0.22-1.91-0.48l0.12-0.72c0.49,0.31,1.15,0.57,1.85,0.57
			c0.74,0,1.2-0.31,1.2-0.85c0-0.53-0.31-0.76-1.37-1.04c-1.18-0.3-1.68-0.69-1.68-1.56c0-0.83,0.71-1.44,1.81-1.44
			c0.63,0,1.18,0.15,1.65,0.36l-0.12,0.71c-0.48-0.26-1.02-0.42-1.55-0.42c-0.73,0-1.08,0.31-1.08,0.75s0.29,0.66,1.19,0.9
			c1.26,0.34,1.86,0.74,1.86,1.68C255.54,287.9,254.78,288.47,253.56,288.47z"/>
		<path class="st2" d="M260.38,288.37v-3.66c0-0.69-0.31-1.1-0.99-1.1c-0.56,0-1.13,0.35-1.72,0.92v3.84h-0.74v-7.93l0.74-0.13v3.5
			c0.55-0.48,1.15-0.86,1.86-0.86c1.06,0,1.58,0.61,1.58,1.62v3.81H260.38z"/>
		<path class="st2" d="M266.05,288.37l-0.12-0.71c-0.49,0.46-1.11,0.82-1.88,0.82c-0.92,0-1.58-0.51-1.58-1.45
			c0-1.25,1.01-1.83,3.41-2.07v-0.35c0-0.72-0.43-1.02-1.1-1.02c-0.63,0-1.25,0.19-1.83,0.47l-0.1-0.66
			c0.62-0.27,1.22-0.46,1.98-0.46c1.18,0,1.79,0.55,1.79,1.64v3.78H266.05z M265.88,285.55c-2.09,0.21-2.67,0.72-2.67,1.44
			c0,0.57,0.39,0.86,0.95,0.86c0.57,0,1.2-0.31,1.72-0.8V285.55z"/>
		<path class="st2" d="M270.42,288.43c-0.53,0-1-0.1-1.38-0.26v2.12l-0.74,0.12v-7.37h0.57l0.12,0.76c0.42-0.47,0.94-0.88,1.72-0.88
			c1.16,0,2.13,0.84,2.13,2.62C272.84,287.5,271.71,288.43,270.42,288.43z M270.63,283.61c-0.63,0-1.11,0.37-1.59,0.95v2.93
			c0.42,0.2,0.81,0.31,1.36,0.31c0.95,0,1.7-0.73,1.7-2.21C272.09,284.3,271.47,283.61,270.63,283.61z"/>
		<path class="st2" d="M274.71,281.79c-0.29,0-0.54-0.25-0.54-0.54s0.25-0.54,0.54-0.54s0.53,0.25,0.53,0.54
			S275,281.79,274.71,281.79z M274.34,288.37v-5.31h0.73v5.31H274.34z"/>
		<path class="st2" d="M280.32,288.37v-3.66c0-0.69-0.31-1.1-0.99-1.1c-0.56,0-1.13,0.35-1.72,0.92v3.84h-0.74v-5.31h0.57l0.12,0.79
			c0.58-0.52,1.19-0.9,1.91-0.9c1.06,0,1.58,0.61,1.58,1.63v3.8H280.32z"/>
		<path class="st2" d="M284.57,290.39c-1.37,0-2.43-0.46-2.43-1.38c0-0.54,0.42-1,1.21-1.4c-0.27-0.17-0.39-0.36-0.39-0.56
			c0-0.27,0.18-0.49,0.53-0.71c-0.58-0.29-0.98-0.85-0.98-1.58c0-1.12,0.93-1.81,1.97-1.81c0.53,0,0.99,0.16,1.35,0.45l1.33-0.43
			l0.12,0.73l-1.07,0.11c0.18,0.27,0.28,0.58,0.28,0.94c0,1.12-0.93,1.81-1.99,1.81c-0.16,0-0.31-0.01-0.47-0.04
			c-0.22,0.12-0.34,0.26-0.34,0.38c0,0.21,0.21,0.29,1.19,0.47l0.39,0.08c1.18,0.21,1.82,0.56,1.82,1.35
			C287.1,289.82,285.94,290.39,284.57,290.39z M283.94,287.84c-0.73,0.34-1.07,0.7-1.07,1.12c0,0.55,0.7,0.86,1.74,0.86
			c1.08,0,1.77-0.42,1.77-0.94c0-0.42-0.34-0.64-1.28-0.82l-0.52-0.09C284.32,287.92,284.14,287.9,283.94,287.84z M284.48,283.49
			c-0.75,0-1.24,0.55-1.24,1.28c0,0.69,0.48,1.24,1.26,1.24s1.26-0.54,1.26-1.26C285.76,284.04,285.24,283.49,284.48,283.49z"/>
		<path class="st2" d="M292.57,288.46c-0.83,0-1.38-0.33-1.38-1.3v-3.47h-0.82v-0.63h0.82v-1.84l0.73-0.12v1.97h1.22l0.1,0.63h-1.33
			v3.35c0,0.54,0.21,0.77,0.79,0.77c0.17,0,0.37-0.03,0.49-0.06l0.11,0.62C293.15,288.41,292.88,288.46,292.57,288.46z"/>
		<path class="st2" d="M298.08,288.37v-3.66c0-0.69-0.31-1.1-0.99-1.1c-0.56,0-1.13,0.35-1.72,0.92v3.84h-0.74v-7.93l0.74-0.13v3.5
			c0.55-0.48,1.15-0.86,1.86-0.86c1.06,0,1.58,0.61,1.58,1.62v3.81H298.08z"/>
		<path class="st2" d="M302.57,288.48c-1.39,0-2.39-0.94-2.39-2.77c0-1.71,0.99-2.76,2.29-2.76c1.45,0,2.15,1.19,2.15,2.66v0.16
			h-3.7c0.02,1.31,0.63,2.08,1.7,2.08c0.71,0,1.33-0.31,1.88-0.79l0.11,0.67C304.08,288.18,303.39,288.48,302.57,288.48z
			 M300.96,285.18h2.9c-0.07-0.95-0.53-1.64-1.38-1.64C301.64,283.54,301.09,284.16,300.96,285.18z"/>
	</g>
	<g>
		<path class="st2" d="M231.17,300.49c-0.83,0-1.38-0.33-1.38-1.3v-3.47h-0.82v-0.63h0.82v-1.84l0.73-0.12v1.97h1.22l0.1,0.63h-1.33
			v3.35c0,0.54,0.21,0.77,0.79,0.77c0.17,0,0.37-0.03,0.49-0.06l0.11,0.62C231.75,300.45,231.48,300.49,231.17,300.49z"/>
		<path class="st2" d="M233.98,297.07v3.34h-0.74v-5.31h0.55l0.17,1.09c0.39-0.6,1.01-1.18,1.89-1.2l0.12,0.7
			C235.09,295.73,234.34,296.36,233.98,297.07z"/>
		<path class="st2" d="M240.15,300.4l-0.12-0.71c-0.49,0.46-1.11,0.82-1.88,0.82c-0.92,0-1.58-0.51-1.58-1.45
			c0-1.25,1.01-1.83,3.41-2.07v-0.35c0-0.72-0.43-1.02-1.1-1.02c-0.63,0-1.25,0.19-1.83,0.47l-0.1-0.66
			c0.62-0.27,1.22-0.46,1.98-0.46c1.18,0,1.79,0.55,1.79,1.64v3.78H240.15z M239.99,297.58c-2.09,0.21-2.67,0.72-2.67,1.44
			c0,0.57,0.39,0.86,0.95,0.86c0.57,0,1.2-0.31,1.72-0.8V297.58z"/>
		<path class="st2" d="M245.85,300.4v-3.66c0-0.69-0.31-1.1-0.99-1.1c-0.56,0-1.13,0.35-1.72,0.92v3.84h-0.74v-5.31h0.57l0.12,0.79
			c0.58-0.52,1.19-0.9,1.91-0.9c1.06,0,1.58,0.61,1.58,1.63v3.8H245.85z"/>
		<path class="st2" d="M249.82,300.5c-0.71,0-1.45-0.22-1.91-0.48l0.12-0.72c0.49,0.31,1.15,0.57,1.85,0.57
			c0.74,0,1.2-0.31,1.2-0.85c0-0.53-0.31-0.76-1.37-1.04c-1.18-0.3-1.68-0.69-1.68-1.56c0-0.83,0.71-1.44,1.81-1.44
			c0.63,0,1.18,0.15,1.65,0.36l-0.12,0.71c-0.48-0.26-1.02-0.42-1.55-0.42c-0.73,0-1.08,0.31-1.08,0.75s0.29,0.66,1.19,0.9
			c1.26,0.34,1.86,0.74,1.86,1.68C251.8,299.93,251.05,300.5,249.82,300.5z"/>
		<path class="st2" d="M255.32,300.47c-0.53,0-1-0.1-1.38-0.26v2.12l-0.74,0.12v-7.37h0.57l0.12,0.76c0.42-0.47,0.94-0.88,1.72-0.88
			c1.16,0,2.13,0.84,2.13,2.62C257.74,299.54,256.61,300.47,255.32,300.47z M255.53,295.64c-0.63,0-1.11,0.37-1.59,0.95v2.93
			c0.42,0.2,0.81,0.31,1.36,0.31c0.95,0,1.7-0.73,1.7-2.21C256.99,296.34,256.37,295.64,255.53,295.64z"/>
		<path class="st2" d="M261.21,300.52c-1.36,0-2.38-1.01-2.38-2.76c0-1.76,1.04-2.77,2.38-2.77c1.38,0,2.41,1.01,2.41,2.77
			C263.63,299.5,262.57,300.52,261.21,300.52z M261.21,295.61c-1.06,0-1.63,0.89-1.63,2.15c0,1.22,0.58,2.13,1.63,2.13
			c1.08,0,1.65-0.88,1.65-2.13C262.86,296.53,262.28,295.61,261.21,295.61z"/>
		<path class="st2" d="M265.77,297.07v3.34h-0.74v-5.31h0.55l0.17,1.09c0.39-0.6,1.01-1.18,1.89-1.2l0.12,0.7
			C266.89,295.73,266.13,296.36,265.77,297.07z"/>
		<path class="st2" d="M270.63,300.49c-0.83,0-1.38-0.33-1.38-1.3v-3.47h-0.82v-0.63h0.82v-1.84l0.73-0.12v1.97h1.22l0.1,0.63h-1.33
			v3.35c0,0.54,0.21,0.77,0.79,0.77c0.17,0,0.37-0.03,0.49-0.06l0.11,0.62C271.21,300.45,270.94,300.49,270.63,300.49z"/>
		<path class="st2" d="M276.78,300.5c-0.71,0-1.45-0.22-1.91-0.48l0.12-0.72c0.49,0.31,1.15,0.57,1.85,0.57
			c0.74,0,1.2-0.31,1.2-0.85c0-0.53-0.31-0.76-1.37-1.04c-1.18-0.3-1.68-0.69-1.68-1.56c0-0.83,0.71-1.44,1.81-1.44
			c0.63,0,1.18,0.15,1.65,0.36l-0.12,0.71c-0.48-0.26-1.02-0.42-1.55-0.42c-0.73,0-1.08,0.31-1.08,0.75s0.29,0.66,1.19,0.9
			c1.26,0.34,1.86,0.74,1.86,1.68C278.76,299.93,278,300.5,276.78,300.5z"/>
		<path class="st2" d="M282,301.07c-0.38,1.03-0.85,1.36-1.64,1.36c-0.11,0-0.21-0.02-0.29-0.03l-0.1-0.65
			c0.11,0.02,0.27,0.04,0.44,0.04c0.44,0,0.7-0.19,0.9-0.71l0.25-0.64l-2.01-5.28l0.72-0.13l1.65,4.53l1.57-4.46h0.76L282,301.07z"
			/>
		<path class="st2" d="M286.9,300.5c-0.71,0-1.45-0.22-1.91-0.48l0.12-0.72c0.49,0.31,1.15,0.57,1.85,0.57c0.74,0,1.2-0.31,1.2-0.85
			c0-0.53-0.31-0.76-1.37-1.04c-1.18-0.3-1.68-0.69-1.68-1.56c0-0.83,0.71-1.44,1.81-1.44c0.63,0,1.18,0.15,1.65,0.36l-0.12,0.71
			c-0.48-0.26-1.02-0.42-1.55-0.42c-0.73,0-1.08,0.31-1.08,0.75s0.29,0.66,1.19,0.9c1.26,0.34,1.86,0.74,1.86,1.68
			C288.88,299.93,288.12,300.5,286.9,300.5z"/>
		<path class="st2" d="M291.91,300.49c-0.83,0-1.38-0.33-1.38-1.3v-3.47h-0.82v-0.63h0.82v-1.84l0.73-0.12v1.97h1.22l0.1,0.63h-1.33
			v3.35c0,0.54,0.21,0.77,0.79,0.77c0.17,0,0.37-0.03,0.49-0.06l0.11,0.62C292.49,300.45,292.22,300.49,291.91,300.49z"/>
		<path class="st2" d="M296.01,300.52c-1.39,0-2.39-0.94-2.39-2.77c0-1.71,0.99-2.76,2.29-2.76c1.45,0,2.14,1.19,2.14,2.66v0.16
			h-3.69c0.02,1.31,0.63,2.08,1.7,2.08c0.71,0,1.33-0.31,1.88-0.79l0.11,0.67C297.51,300.21,296.83,300.52,296.01,300.52z
			 M294.39,297.21h2.9c-0.07-0.95-0.53-1.64-1.38-1.64C295.08,295.57,294.53,296.19,294.39,297.21z"/>
		<path class="st2" d="M306.23,300.4v-3.66c0-0.69-0.28-1.1-0.97-1.1c-0.55,0-1.1,0.34-1.68,0.91v3.85h-0.73v-3.66
			c0-0.69-0.28-1.1-0.97-1.1c-0.55,0-1.11,0.34-1.68,0.9v3.86h-0.74v-5.31h0.57l0.12,0.76c0.57-0.51,1.17-0.88,1.88-0.88
			c0.82,0,1.27,0.34,1.46,0.92c0.58-0.53,1.2-0.92,1.93-0.92c1.06,0,1.55,0.61,1.55,1.62v3.81H306.23z"/>
	</g>
	<g>
		<path class="st2" d="M240.81,312.55c-1.36,0-2.38-1.01-2.38-2.76c0-1.76,1.04-2.77,2.38-2.77c1.38,0,2.41,1.01,2.41,2.77
			C243.23,311.54,242.17,312.55,240.81,312.55z M240.81,307.64c-1.06,0-1.63,0.89-1.63,2.15c0,1.22,0.58,2.13,1.63,2.13
			c1.08,0,1.65-0.88,1.65-2.13C242.46,308.56,241.88,307.64,240.81,307.64z"/>
		<path class="st2" d="M246.58,312.48h-0.7l-1.93-5.29l0.73-0.13l1.57,4.51l1.53-4.45h0.76L246.58,312.48z"/>
		<path class="st2" d="M251.66,312.55c-1.39,0-2.39-0.94-2.39-2.77c0-1.71,0.99-2.76,2.29-2.76c1.45,0,2.15,1.19,2.15,2.66v0.16
			h-3.69c0.02,1.31,0.63,2.08,1.7,2.08c0.71,0,1.33-0.31,1.88-0.79l0.11,0.67C253.17,312.25,252.48,312.55,251.66,312.55z
			 M250.04,309.25h2.9c-0.07-0.95-0.53-1.64-1.38-1.64C250.73,307.61,250.18,308.23,250.04,309.25z"/>
		<path class="st2" d="M255.85,309.1v3.34h-0.74v-5.31h0.55l0.17,1.09c0.39-0.6,1.01-1.18,1.89-1.2l0.12,0.7
			C256.96,307.77,256.21,308.39,255.85,309.1z"/>
		<path class="st2" d="M263.15,312.53c-0.83,0-1.38-0.33-1.38-1.3v-3.47h-0.82v-0.63h0.82v-1.84l0.73-0.12v1.97h1.22l0.1,0.63h-1.33
			v3.35c0,0.54,0.21,0.77,0.79,0.77c0.17,0,0.37-0.03,0.49-0.06l0.11,0.62C263.74,312.48,263.47,312.53,263.15,312.53z"/>
		<path class="st2" d="M268.67,312.44v-3.66c0-0.69-0.31-1.1-0.99-1.1c-0.56,0-1.13,0.35-1.72,0.92v3.84h-0.74v-7.93l0.74-0.13v3.5
			c0.55-0.48,1.15-0.86,1.86-0.86c1.06,0,1.58,0.61,1.58,1.62v3.81H268.67z"/>
		<path class="st2" d="M273.16,312.55c-1.39,0-2.39-0.94-2.39-2.77c0-1.71,0.99-2.76,2.29-2.76c1.45,0,2.15,1.19,2.15,2.66v0.16
			h-3.69c0.02,1.31,0.63,2.08,1.7,2.08c0.71,0,1.33-0.31,1.88-0.79l0.11,0.67C274.66,312.25,273.98,312.55,273.16,312.55z
			 M271.54,309.25h2.9c-0.07-0.95-0.53-1.64-1.38-1.64C272.23,307.61,271.68,308.23,271.54,309.25z"/>
		<path class="st2" d="M282.59,312.44v-3.66c0-0.69-0.31-1.1-0.99-1.1c-0.56,0-1.13,0.35-1.72,0.92v3.84h-0.74v-5.31h0.57l0.12,0.79
			c0.58-0.52,1.19-0.9,1.91-0.9c1.06,0,1.58,0.61,1.58,1.63v3.8H282.59z"/>
		<path class="st2" d="M287.09,312.55c-1.39,0-2.39-0.94-2.39-2.77c0-1.71,0.99-2.76,2.29-2.76c1.45,0,2.15,1.19,2.15,2.66v0.16
			h-3.69c0.02,1.31,0.63,2.08,1.7,2.08c0.71,0,1.33-0.31,1.88-0.79l0.11,0.67C288.59,312.25,287.91,312.55,287.09,312.55z
			 M285.47,309.25h2.9c-0.07-0.95-0.53-1.64-1.38-1.64C286.15,307.61,285.6,308.23,285.47,309.25z"/>
		<path class="st2" d="M293.72,312.52l-1.52-2.28l-1.44,2.2h-0.8l1.84-2.73l-1.73-2.53l0.73-0.15l1.4,2.11l1.35-2.02h0.8l-1.75,2.56
			l1.85,2.7L293.72,312.52z"/>
		<path class="st2" d="M297.36,312.53c-0.83,0-1.38-0.33-1.38-1.3v-3.47h-0.82v-0.63h0.82v-1.84l0.73-0.12v1.97h1.22l0.1,0.63h-1.33
			v3.35c0,0.54,0.21,0.77,0.79,0.77c0.17,0,0.37-0.03,0.49-0.06l0.11,0.62C297.95,312.48,297.68,312.53,297.36,312.53z"/>
	</g>
	<text transform="matrix(1 0 0 1 301.0811 312.4379)" class="st2 st6 st21"> </text>
	<g>
		<path class="st2" d="M242.65,324.47v-6.82l-1.63,0.65l-0.1-0.61l1.86-0.85h0.61v7.63H242.65z"/>
		<path class="st2" d="M248.04,324.62c-1.72,0-2.79-1.53-2.79-3.93c0-2.41,1.08-3.95,2.79-3.95c1.72,0,2.79,1.53,2.79,3.93
			C250.82,323.08,249.75,324.62,248.04,324.62z M248.04,317.4c-1.3,0-2.02,1.29-2.02,3.28s0.72,3.28,2.02,3.28s2.02-1.29,2.02-3.28
			S249.34,317.4,248.04,317.4z"/>
		<path class="st2" d="M252.18,321.67v-0.74h2.72v0.74H252.18z"/>
		<path class="st2" d="M258.21,324.62c-0.82,0-1.58-0.25-2.12-0.6l0.12-0.74c0.65,0.45,1.24,0.66,2.04,0.66
			c1.08,0,1.76-0.6,1.76-1.52c0-0.99-0.67-1.63-2.2-1.63h-0.34l-0.1-0.66h0.52c1.3,0,1.98-0.56,1.98-1.45
			c0-0.74-0.52-1.28-1.53-1.28c-0.8,0-1.46,0.29-2.03,0.73l-0.1-0.71c0.58-0.42,1.26-0.7,2.17-0.7c1.54,0,2.27,0.89,2.27,1.92
			c0,0.99-0.65,1.53-1.45,1.8c0.98,0.28,1.59,0.9,1.59,1.97C260.8,323.71,259.74,324.62,258.21,324.62z"/>
		<path class="st2" d="M264.92,324.62c-1.72,0-2.79-1.53-2.79-3.93c0-2.41,1.08-3.95,2.79-3.95c1.72,0,2.79,1.53,2.79,3.93
			C267.71,323.08,266.63,324.62,264.92,324.62z M264.92,317.4c-1.3,0-2.02,1.29-2.02,3.28s0.72,3.28,2.02,3.28s2.02-1.29,2.02-3.28
			S266.22,317.4,264.92,317.4z"/>
		<path class="st2" d="M273.73,325.14c-0.38,1.03-0.85,1.36-1.64,1.36c-0.11,0-0.21-0.02-0.29-0.03l-0.1-0.65
			c0.11,0.02,0.27,0.04,0.44,0.04c0.44,0,0.7-0.19,0.9-0.71l0.25-0.64l-2.01-5.28l0.72-0.13l1.65,4.53l1.57-4.46h0.76L273.73,325.14
			z"/>
		<path class="st2" d="M279.09,324.59c-1.39,0-2.39-0.94-2.39-2.77c0-1.71,0.99-2.76,2.29-2.76c1.45,0,2.15,1.19,2.15,2.66v0.16
			h-3.69c0.02,1.31,0.63,2.08,1.7,2.08c0.71,0,1.33-0.31,1.88-0.79l0.11,0.67C280.6,324.28,279.91,324.59,279.09,324.59z
			 M277.48,321.28h2.9c-0.07-0.95-0.53-1.64-1.38-1.64C278.16,319.64,277.61,320.26,277.48,321.28z"/>
		<path class="st2" d="M285.79,324.47l-0.12-0.71c-0.49,0.46-1.11,0.82-1.88,0.82c-0.92,0-1.58-0.51-1.58-1.45
			c0-1.25,1.01-1.83,3.41-2.07v-0.35c0-0.72-0.43-1.02-1.1-1.02c-0.63,0-1.25,0.19-1.83,0.47l-0.1-0.66
			c0.62-0.27,1.22-0.46,1.98-0.46c1.18,0,1.79,0.55,1.79,1.64v3.78H285.79z M285.62,321.65c-2.09,0.21-2.67,0.72-2.67,1.44
			c0,0.57,0.39,0.86,0.95,0.86c0.57,0,1.2-0.31,1.72-0.8V321.65z"/>
		<path class="st2" d="M288.78,321.14v3.34h-0.74v-5.31h0.55l0.17,1.09c0.39-0.6,1.01-1.18,1.89-1.2l0.12,0.7
			C289.89,319.8,289.14,320.43,288.78,321.14z"/>
		<path class="st2" d="M293.36,324.57c-0.71,0-1.45-0.22-1.91-0.48l0.12-0.72c0.49,0.31,1.15,0.57,1.85,0.57
			c0.74,0,1.2-0.31,1.2-0.85c0-0.53-0.31-0.76-1.37-1.04c-1.18-0.3-1.68-0.69-1.68-1.56c0-0.83,0.71-1.44,1.81-1.44
			c0.63,0,1.18,0.15,1.65,0.36l-0.12,0.71c-0.48-0.26-1.02-0.42-1.55-0.42c-0.73,0-1.08,0.31-1.08,0.75s0.29,0.66,1.19,0.9
			c1.26,0.34,1.86,0.74,1.86,1.68C295.34,324,294.58,324.57,293.36,324.57z"/>
	</g>
</g>
</svg>
