<?xml version="1.0" encoding="utf-8"?>
<!-- Generator: Adobe Illustrator 24.0.0, SVG Export Plug-In . SVG Version: 6.00 Build 0)  -->
<svg version="1.1" id="Layer_1" xmlns="http://www.w3.org/2000/svg" xmlns:xlink="http://www.w3.org/1999/xlink" x="0px" y="0px"
	 viewBox="0 0 595.28 841.89" style="enable-background:new 0 0 595.28 841.89;" xml:space="preserve">
<style type="text/css">
	.st0{fill:#D3E8D4;}
	.st1{fill:#003F65;}
	.st2{fill:#E9F4EA;}
	.st3{fill:#FFFFFF;}
	.st4{font-family:'Whitney-Book';}
	.st5{font-size:10.1693px;}
	.st6{font-size:9.4024px;}
</style>
<g>
	<g>
		<path class="st0" d="M333.95,211.14c0,51.34-41.62,92.95-92.95,92.95s-92.95-41.61-92.95-92.95s41.61-92.95,92.95-92.95
			S333.95,159.8,333.95,211.14 M344.27,211.14c0-57.04-46.24-103.28-103.28-103.28S137.72,154.1,137.72,211.14
			c0,57.04,46.24,103.28,103.28,103.28S344.27,268.17,344.27,211.14"/>
		<path class="st1" d="M244.91,254.1c23.13,0,41.89-18.75,41.89-41.89s-18.75-41.89-41.89-41.89c-23.13,0-41.89,18.75-41.89,41.89
			S221.77,254.1,244.91,254.1"/>
		<path class="st2" d="M242.93,154.54c19.01,0,34.43-15.41,34.43-34.43c0-19.01-15.42-34.43-34.43-34.43
			c-19.01,0-34.43,15.41-34.43,34.43C208.5,139.13,223.91,154.54,242.93,154.54"/>
		<path class="st2" d="M335.06,206.57c19.01,0,34.43-15.41,34.43-34.43c0-19.01-15.42-34.43-34.43-34.43
			c-19.01,0-34.43,15.41-34.43,34.43C300.63,191.15,316.05,206.57,335.06,206.57"/>
		<path class="st2" d="M322.7,298.38c19.01,0,34.43-15.41,34.43-34.43c0-19.01-15.42-34.43-34.43-34.43
			c-19.01,0-34.43,15.41-34.43,34.43C288.27,282.96,303.68,298.38,322.7,298.38"/>
		<path class="st2" d="M242.93,340c19.01,0,34.43-15.41,34.43-34.43c0-19.01-15.42-34.43-34.43-34.43
			c-19.01,0-34.43,15.41-34.43,34.43C208.5,324.59,223.91,340,242.93,340"/>
		<path class="st2" d="M163.16,298.38c19.01,0,34.43-15.41,34.43-34.43c0-19.01-15.42-34.43-34.43-34.43s-34.43,15.41-34.43,34.43
			C128.73,282.96,144.14,298.38,163.16,298.38"/>
		<path class="st2" d="M155.9,203.73c19.01,0,34.43-15.41,34.43-34.43c0-19.01-15.42-34.43-34.43-34.43s-34.43,15.41-34.43,34.43
			C121.47,188.32,136.89,203.73,155.9,203.73"/>
	</g>
	<g>
		<path class="st3" d="M220.37,218.81v-10.53h2.61v8.27h3.24l0.35,2.26H220.37z"/>
		<path class="st3" d="M227.79,218.81v-10.53h6.56v2.11h-4v1.94h3.05l0.34,2.09h-3.39v2.27h4.14v2.12H227.79z"/>
		<path class="st3" d="M241.55,218.85h-2.67l-3.69-10.25l2.84-0.43l2.35,7.39l2.29-7.28h2.7L241.55,218.85z"/>
		<path class="st3" d="M246.5,218.81v-10.53h6.56v2.11h-4v1.94h3.05l0.34,2.09h-3.39v2.27h4.13v2.12H246.5z"/>
		<path class="st3" d="M260.23,218.92l-2.32-3.72h-0.66v3.62h-2.59v-10.53h3.68c2.55,0,4.04,1.16,4.04,3.33
			c0,1.46-0.73,2.46-1.98,2.99l2.55,3.88L260.23,218.92z M258.08,210.25h-0.84v3.07h0.81c1.13,0,1.77-0.55,1.77-1.56
			C259.82,210.78,259.21,210.25,258.08,210.25z"/>
		<path class="st3" d="M267.31,218.93c-1.42,0-2.61-0.3-3.68-0.79l0.38-2.23c1.08,0.58,2.29,0.98,3.34,0.98
			c0.75,0,1.27-0.32,1.27-0.95c0-0.6-0.3-0.87-1.79-1.43c-2.11-0.81-3.02-1.5-3.02-3.24c0-2.03,1.59-3.11,3.6-3.11
			c1.37,0,2.26,0.26,3.17,0.7l-0.4,2.2c-0.95-0.55-1.94-0.86-2.75-0.86c-0.79,0-1.17,0.34-1.17,0.82c0,0.53,0.29,0.79,1.6,1.3
			c2.3,0.84,3.2,1.63,3.2,3.31C271.08,217.92,269.4,218.93,267.31,218.93z"/>
	</g>
	<g>
		<path class="st1" d="M134.77,162.23v-7.01h3.66v0.63h-2.96v2.4h2.34l0.1,0.63h-2.44v2.72h3.06v0.63H134.77z"/>
		<path class="st1" d="M143.03,162.23l-0.12-0.7c-0.37,0.44-0.84,0.8-1.54,0.8c-1.06,0-1.94-0.75-1.94-2.37
			c0-1.76,1.03-2.61,2.19-2.61c0.49,0,0.91,0.09,1.25,0.24v-2.54l0.67-0.12v7.3H143.03z M142.86,158.22
			c-0.38-0.19-0.73-0.29-1.23-0.29c-0.86,0-1.53,0.65-1.53,2c0,1.17,0.56,1.8,1.32,1.8c0.57,0,1.02-0.35,1.44-0.86V158.22z"/>
		<path class="st1" d="M148.34,162.23l-0.11-0.71c-0.53,0.47-1.08,0.81-1.73,0.81c-0.97,0-1.43-0.56-1.43-1.47v-3.43h0.67v3.31
			c0,0.62,0.28,0.99,0.89,0.99c0.51,0,1.03-0.3,1.56-0.82v-3.48h0.67v4.81H148.34z"/>
		<path class="st1" d="M152.31,162.33c-1.22,0-2.16-0.91-2.16-2.5c0-1.62,0.98-2.51,2.19-2.51c0.65,0,1.17,0.2,1.56,0.49l-0.11,0.67
			c-0.47-0.39-0.91-0.58-1.47-0.58c-0.92,0-1.49,0.74-1.49,1.92c0,1.19,0.59,1.92,1.56,1.92c0.51,0,0.97-0.14,1.46-0.57l0.09,0.61
			C153.48,162.15,152.96,162.33,152.31,162.33z"/>
		<path class="st1" d="M158.12,162.23l-0.11-0.64c-0.45,0.42-1.01,0.74-1.7,0.74c-0.83,0-1.43-0.46-1.43-1.31
			c0-1.13,0.91-1.66,3.09-1.87v-0.32c0-0.65-0.39-0.92-1-0.92c-0.57,0-1.13,0.17-1.66,0.43l-0.09-0.6c0.56-0.24,1.11-0.42,1.79-0.42
			c1.07,0,1.62,0.5,1.62,1.48v3.42H158.12z M157.97,159.68c-1.89,0.19-2.42,0.65-2.42,1.3c0,0.52,0.36,0.78,0.86,0.78
			c0.52,0,1.09-0.28,1.55-0.72V159.68z"/>
		<path class="st1" d="M161.64,162.31c-0.75,0-1.25-0.29-1.25-1.18v-3.14h-0.74v-0.57h0.74v-1.67l0.66-0.11v1.78h1.11l0.09,0.57
			h-1.2v3.03c0,0.49,0.19,0.7,0.71,0.7c0.15,0,0.34-0.03,0.45-0.05l0.1,0.56C162.17,162.27,161.92,162.31,161.64,162.31z"/>
		<path class="st1" d="M163.92,156.28c-0.26,0-0.49-0.22-0.49-0.49c0-0.26,0.22-0.49,0.49-0.49s0.48,0.22,0.48,0.49
			C164.39,156.05,164.18,156.28,163.92,156.28z M163.58,162.23v-4.81h0.66v4.81H163.58z"/>
		<path class="st1" d="M167.74,162.33c-1.23,0-2.15-0.91-2.15-2.5c0-1.6,0.95-2.51,2.15-2.51c1.25,0,2.19,0.91,2.19,2.51
			C169.92,161.42,168.97,162.33,167.74,162.33z M167.74,157.89c-0.96,0-1.47,0.8-1.47,1.94c0,1.11,0.53,1.93,1.47,1.93
			c0.98,0,1.49-0.79,1.49-1.93C169.23,158.73,168.7,157.89,167.74,157.89z"/>
		<path class="st1" d="M174.32,162.23v-3.31c0-0.62-0.28-1-0.89-1c-0.51,0-1.03,0.31-1.56,0.83v3.48h-0.67v-4.81h0.52l0.11,0.71
			c0.53-0.47,1.08-0.81,1.73-0.81c0.96,0,1.43,0.55,1.43,1.47v3.43H174.32z"/>
		<path class="st1" d="M176.43,163.58l-0.36-0.09l0.52-2.26h0.81L176.43,163.58z"/>
	</g>
	<g>
		<path class="st1" d="M131.28,174.54c-1.26,0-2.16-0.85-2.16-2.51c0-1.54,0.89-2.5,2.07-2.5c1.31,0,1.94,1.08,1.94,2.41v0.14h-3.34
			c0.02,1.19,0.57,1.88,1.53,1.88c0.64,0,1.2-0.28,1.7-0.71l0.1,0.61C132.65,174.26,132.02,174.54,131.28,174.54z M129.82,171.55
			h2.62c-0.06-0.86-0.48-1.48-1.25-1.48C130.44,170.06,129.94,170.62,129.82,171.55z"/>
		<path class="st1" d="M137.53,174.43v-3.31c0-0.62-0.28-1-0.89-1c-0.51,0-1.03,0.31-1.55,0.83v3.48h-0.67v-4.81h0.52l0.11,0.71
			c0.53-0.47,1.08-0.81,1.73-0.81c0.96,0,1.43,0.55,1.43,1.47v3.43H137.53z"/>
		<path class="st1" d="M141.37,176.26c-1.24,0-2.19-0.42-2.19-1.25c0-0.49,0.38-0.9,1.1-1.27c-0.24-0.15-0.36-0.33-0.36-0.51
			c0-0.24,0.16-0.45,0.48-0.64c-0.53-0.26-0.88-0.77-0.88-1.43c0-1.02,0.84-1.64,1.78-1.64c0.48,0,0.89,0.14,1.22,0.41l1.2-0.39
			l0.11,0.66l-0.97,0.1c0.16,0.24,0.25,0.53,0.25,0.85c0,1.02-0.84,1.64-1.8,1.64c-0.14,0-0.28-0.01-0.43-0.04
			c-0.2,0.11-0.3,0.23-0.3,0.35c0,0.19,0.19,0.26,1.08,0.43l0.36,0.07c1.07,0.19,1.65,0.51,1.65,1.22
			C143.66,175.75,142.61,176.26,141.37,176.26z M140.8,173.96c-0.66,0.3-0.97,0.63-0.97,1.02c0,0.5,0.63,0.78,1.57,0.78
			c0.98,0,1.61-0.38,1.61-0.85c0-0.38-0.31-0.58-1.16-0.74l-0.47-0.08C141.15,174.03,140.98,174.01,140.8,173.96z M141.29,170.02
			c-0.68,0-1.12,0.5-1.12,1.16c0,0.62,0.44,1.12,1.14,1.12s1.14-0.49,1.14-1.14C142.45,170.52,141.98,170.02,141.29,170.02z"/>
		<path class="st1" d="M147.72,174.43l-0.11-0.64c-0.45,0.42-1.01,0.74-1.7,0.74c-0.83,0-1.43-0.46-1.43-1.31
			c0-1.13,0.91-1.66,3.09-1.87v-0.32c0-0.65-0.39-0.92-1-0.92c-0.57,0-1.13,0.17-1.66,0.43l-0.09-0.6c0.56-0.24,1.11-0.42,1.79-0.42
			c1.07,0,1.62,0.5,1.62,1.48v3.42H147.72z M147.56,171.88c-1.89,0.19-2.42,0.65-2.42,1.3c0,0.52,0.36,0.78,0.86,0.78
			c0.52,0,1.09-0.28,1.55-0.72V171.88z"/>
		<path class="st1" d="M151.4,176.26c-1.24,0-2.19-0.42-2.19-1.25c0-0.49,0.38-0.9,1.1-1.27c-0.24-0.15-0.36-0.33-0.36-0.51
			c0-0.24,0.16-0.45,0.48-0.64c-0.53-0.26-0.88-0.77-0.88-1.43c0-1.02,0.84-1.64,1.78-1.64c0.48,0,0.89,0.14,1.22,0.41l1.2-0.39
			l0.11,0.66l-0.97,0.1c0.16,0.24,0.25,0.53,0.25,0.85c0,1.02-0.84,1.64-1.8,1.64c-0.14,0-0.28-0.01-0.43-0.04
			c-0.2,0.11-0.3,0.23-0.3,0.35c0,0.19,0.19,0.26,1.08,0.43l0.36,0.07c1.07,0.19,1.65,0.51,1.65,1.22
			C153.68,175.75,152.64,176.26,151.4,176.26z M150.83,173.96c-0.66,0.3-0.97,0.63-0.97,1.02c0,0.5,0.63,0.78,1.58,0.78
			c0.98,0,1.61-0.38,1.61-0.85c0-0.38-0.31-0.58-1.16-0.74l-0.47-0.08C151.17,174.03,151.01,174.01,150.83,173.96z M151.32,170.02
			c-0.68,0-1.12,0.5-1.12,1.16c0,0.62,0.44,1.12,1.14,1.12s1.14-0.49,1.14-1.14C152.48,170.52,152.01,170.02,151.32,170.02z"/>
		<path class="st1" d="M156.63,174.54c-1.26,0-2.16-0.85-2.16-2.51c0-1.54,0.89-2.5,2.07-2.5c1.31,0,1.94,1.08,1.94,2.41v0.14h-3.34
			c0.02,1.19,0.57,1.88,1.53,1.88c0.64,0,1.2-0.28,1.7-0.71l0.1,0.61C157.99,174.26,157.37,174.54,156.63,174.54z M155.16,171.55
			h2.62c-0.06-0.86-0.48-1.48-1.25-1.48C155.78,170.06,155.28,170.62,155.16,171.55z"/>
		<path class="st1" d="M165.88,174.43v-3.31c0-0.62-0.25-1-0.87-1c-0.5,0-1,0.3-1.52,0.82v3.49h-0.66v-3.31c0-0.62-0.25-1-0.87-1
			c-0.5,0-1.01,0.3-1.52,0.81v3.5h-0.67v-4.81h0.52l0.11,0.69c0.52-0.46,1.06-0.79,1.7-0.79c0.74,0,1.15,0.3,1.32,0.83
			c0.53-0.48,1.09-0.83,1.75-0.83c0.96,0,1.4,0.55,1.4,1.46v3.45H165.88z"/>
		<path class="st1" d="M169.95,174.54c-1.26,0-2.16-0.85-2.16-2.51c0-1.54,0.89-2.5,2.07-2.5c1.31,0,1.94,1.08,1.94,2.41v0.14h-3.34
			c0.02,1.19,0.57,1.88,1.53,1.88c0.64,0,1.2-0.28,1.7-0.71l0.1,0.61C171.31,174.26,170.69,174.54,169.95,174.54z M168.48,171.55
			h2.62c-0.06-0.86-0.48-1.48-1.25-1.48C169.1,170.06,168.6,170.62,168.48,171.55z"/>
		<path class="st1" d="M176.19,174.43v-3.31c0-0.62-0.28-1-0.89-1c-0.51,0-1.03,0.31-1.55,0.83v3.48h-0.67v-4.81h0.52l0.11,0.71
			c0.53-0.47,1.08-0.81,1.73-0.81c0.96,0,1.43,0.55,1.43,1.47v3.43H176.19z"/>
		<path class="st1" d="M179.87,174.52c-0.75,0-1.25-0.29-1.25-1.18v-3.14h-0.74v-0.57h0.74v-1.67l0.66-0.11v1.78h1.11l0.09,0.57
			h-1.2v3.03c0,0.49,0.19,0.7,0.71,0.7c0.15,0,0.34-0.03,0.45-0.05l0.1,0.56C180.4,174.48,180.16,174.52,179.87,174.52z"/>
		<path class="st1" d="M181.65,175.79l-0.36-0.09l0.52-2.26h0.81L181.65,175.79z"/>
	</g>
	<g>
		<path class="st1" d="M137.29,186.64l-0.11-0.64c-0.45,0.42-1.01,0.74-1.7,0.74c-0.83,0-1.43-0.46-1.43-1.31
			c0-1.13,0.91-1.66,3.09-1.87v-0.32c0-0.65-0.39-0.92-1-0.92c-0.57,0-1.13,0.17-1.66,0.43l-0.09-0.6c0.56-0.24,1.11-0.42,1.79-0.42
			c1.07,0,1.62,0.5,1.62,1.48v3.42H137.29z M137.14,184.09c-1.89,0.19-2.42,0.65-2.42,1.3c0,0.52,0.36,0.78,0.86,0.78
			c0.52,0,1.09-0.28,1.55-0.72V184.09z"/>
		<path class="st1" d="M143.94,186.67h-0.56l-1.22-3.94l-1.21,3.94h-0.56l-1.6-4.8l0.64-0.12l1.24,3.99l1.21-3.93h0.58l1.21,3.93
			l1.2-3.91h0.67L143.94,186.67z"/>
		<path class="st1" d="M149.5,186.64l-0.11-0.64c-0.45,0.42-1.01,0.74-1.7,0.74c-0.83,0-1.43-0.46-1.43-1.31
			c0-1.13,0.91-1.66,3.09-1.87v-0.32c0-0.65-0.39-0.92-1-0.92c-0.57,0-1.13,0.17-1.66,0.43l-0.09-0.6c0.56-0.24,1.11-0.42,1.79-0.42
			c1.07,0,1.62,0.5,1.62,1.48v3.42H149.5z M149.34,184.09c-1.89,0.19-2.42,0.65-2.42,1.3c0,0.52,0.36,0.78,0.86,0.78
			c0.52,0,1.09-0.28,1.55-0.72V184.09z"/>
		<path class="st1" d="M152.2,183.62v3.02h-0.67v-4.81h0.5l0.15,0.99c0.36-0.54,0.91-1.07,1.71-1.09l0.11,0.63
			C153.21,182.41,152.53,182.98,152.2,183.62z"/>
		<path class="st1" d="M156.73,186.74c-1.26,0-2.16-0.85-2.16-2.51c0-1.54,0.89-2.5,2.07-2.5c1.31,0,1.94,1.08,1.94,2.41v0.14h-3.34
			c0.02,1.19,0.57,1.88,1.53,1.88c0.64,0,1.2-0.28,1.7-0.71l0.1,0.61C158.09,186.47,157.47,186.74,156.73,186.74z M155.26,183.75
			h2.62c-0.06-0.86-0.48-1.48-1.25-1.48C155.88,182.27,155.38,182.83,155.26,183.75z"/>
		<path class="st1" d="M162.97,186.64v-3.31c0-0.62-0.28-1-0.89-1c-0.51,0-1.03,0.31-1.56,0.83v3.48h-0.67v-4.81h0.52l0.11,0.71
			c0.53-0.47,1.08-0.81,1.73-0.81c0.96,0,1.43,0.55,1.43,1.47v3.43H162.97z"/>
		<path class="st1" d="M167.04,186.74c-1.26,0-2.16-0.85-2.16-2.51c0-1.54,0.89-2.5,2.07-2.5c1.31,0,1.94,1.08,1.94,2.41v0.14h-3.34
			c0.02,1.19,0.57,1.88,1.53,1.88c0.64,0,1.2-0.28,1.7-0.71l0.1,0.61C168.4,186.47,167.78,186.74,167.04,186.74z M165.57,183.75
			h2.62c-0.06-0.86-0.48-1.48-1.25-1.48C166.19,182.27,165.7,182.83,165.57,183.75z"/>
		<path class="st1" d="M171.56,186.73c-0.64,0-1.31-0.2-1.73-0.44l0.11-0.65c0.45,0.29,1.04,0.52,1.68,0.52
			c0.67,0,1.09-0.28,1.09-0.77c0-0.48-0.28-0.69-1.24-0.95c-1.07-0.27-1.52-0.62-1.52-1.41c0-0.75,0.64-1.3,1.64-1.3
			c0.57,0,1.07,0.13,1.49,0.33l-0.11,0.64c-0.44-0.23-0.92-0.38-1.4-0.38c-0.66,0-0.98,0.29-0.98,0.68c0,0.4,0.26,0.6,1.08,0.81
			c1.14,0.3,1.69,0.67,1.69,1.52C173.35,186.21,172.67,186.73,171.56,186.73z"/>
		<path class="st1" d="M175.99,186.73c-0.64,0-1.31-0.2-1.73-0.44l0.11-0.65c0.45,0.29,1.04,0.52,1.68,0.52
			c0.67,0,1.09-0.28,1.09-0.77c0-0.48-0.28-0.69-1.24-0.95c-1.07-0.27-1.52-0.62-1.52-1.41c0-0.75,0.64-1.3,1.64-1.3
			c0.57,0,1.07,0.13,1.49,0.33l-0.11,0.64c-0.44-0.23-0.92-0.38-1.4-0.38c-0.66,0-0.98,0.29-0.98,0.68c0,0.4,0.26,0.6,1.08,0.81
			c1.14,0.3,1.69,0.67,1.69,1.52C177.78,186.21,177.09,186.73,175.99,186.73z"/>
	</g>
	<g>
		<path class="st1" d="M228.41,112.51h-0.87v2.96h-0.7v-7.01h1.74c1.41,0,2.3,0.71,2.3,1.97
			C230.87,111.81,229.85,112.51,228.41,112.51z M228.52,109.07h-0.99v2.82h0.9c1.07,0,1.72-0.47,1.72-1.44
			C230.16,109.54,229.59,109.07,228.52,109.07z"/>
		<path class="st1" d="M233.65,115.57c-1.23,0-2.15-0.92-2.15-2.5c0-1.6,0.95-2.51,2.15-2.51c1.25,0,2.19,0.91,2.19,2.51
			C235.83,114.65,234.88,115.57,233.65,115.57z M233.65,111.13c-0.96,0-1.47,0.8-1.47,1.94c0,1.11,0.53,1.93,1.47,1.93
			c0.98,0,1.49-0.79,1.49-1.93C235.14,111.96,234.61,111.13,233.65,111.13z"/>
		<path class="st1" d="M237.18,115.47v-7.17l0.66-0.12v7.3H237.18z"/>
		<path class="st1" d="M239.89,109.51c-0.26,0-0.49-0.22-0.49-0.49c0-0.26,0.22-0.49,0.49-0.49s0.48,0.22,0.48,0.49
			C240.37,109.29,240.16,109.51,239.89,109.51z M239.56,115.47v-4.81h0.66v4.81H239.56z"/>
		<path class="st1" d="M243.75,115.57c-1.22,0-2.16-0.92-2.16-2.5c0-1.62,0.98-2.51,2.19-2.51c0.65,0,1.17,0.2,1.56,0.49l-0.11,0.67
			c-0.47-0.39-0.91-0.58-1.47-0.58c-0.92,0-1.49,0.74-1.49,1.92c0,1.19,0.59,1.92,1.56,1.92c0.51,0,0.97-0.14,1.46-0.57l0.09,0.61
			C244.92,115.38,244.4,115.57,243.75,115.57z"/>
		<path class="st1" d="M248.37,116.06c-0.35,0.93-0.77,1.23-1.48,1.23c-0.1,0-0.19-0.02-0.26-0.03l-0.09-0.59
			c0.1,0.02,0.24,0.04,0.4,0.04c0.4,0,0.63-0.17,0.81-0.64l0.22-0.58l-1.82-4.78l0.65-0.12l1.49,4.1l1.42-4.03h0.69L248.37,116.06z"
			/>
		<path class="st1" d="M259.11,115.53l-1.12-1.12c-0.59,0.76-1.38,1.17-2.31,1.17c-1.37,0-2.23-0.75-2.23-1.89
			c0-1.05,0.7-1.69,1.68-2.13c-0.5-0.52-0.74-0.95-0.74-1.59c0-0.9,0.69-1.63,1.83-1.63c0.62,0,1.17,0.16,1.66,0.44l-0.13,0.7
			c-0.53-0.34-1.06-0.53-1.54-0.53c-0.71,0-1.11,0.43-1.11,0.99c0,0.5,0.21,0.85,0.74,1.39l2.05,2.07c0.26-0.53,0.46-1.2,0.58-2.02
			l0.64,0.13c-0.16,0.93-0.42,1.72-0.76,2.35l1.48,1.49L259.11,115.53z M257.56,113.97l-2.01-2c-0.87,0.37-1.37,0.92-1.37,1.66
			c0,0.77,0.62,1.35,1.52,1.35C256.41,114.98,257.06,114.66,257.56,113.97z"/>
	</g>
	<g>
		<path class="st1" d="M223.16,124.65v3.02h-0.67v-4.81h0.5l0.15,0.99c0.36-0.54,0.91-1.07,1.71-1.09l0.11,0.63
			C224.16,123.44,223.48,124.01,223.16,124.65z"/>
		<path class="st1" d="M227.67,127.77c-1.26,0-2.16-0.85-2.16-2.51c0-1.54,0.89-2.5,2.07-2.5c1.31,0,1.94,1.08,1.94,2.41v0.14h-3.34
			c0.02,1.19,0.57,1.88,1.53,1.88c0.64,0,1.2-0.28,1.7-0.71l0.1,0.61C229.03,127.5,228.41,127.77,227.67,127.77z M226.21,124.78
			h2.62c-0.06-0.86-0.48-1.48-1.25-1.48C226.83,123.3,226.33,123.86,226.21,124.78z"/>
		<path class="st1" d="M232.44,129.5c-1.24,0-2.19-0.42-2.19-1.25c0-0.49,0.38-0.9,1.1-1.27c-0.24-0.15-0.36-0.33-0.36-0.51
			c0-0.24,0.16-0.45,0.48-0.64c-0.53-0.26-0.88-0.77-0.88-1.43c0-1.02,0.84-1.64,1.78-1.64c0.48,0,0.89,0.14,1.22,0.41l1.2-0.39
			l0.11,0.66l-0.97,0.1c0.16,0.24,0.25,0.53,0.25,0.85c0,1.02-0.84,1.64-1.8,1.64c-0.14,0-0.28-0.01-0.43-0.04
			c-0.2,0.11-0.3,0.23-0.3,0.35c0,0.19,0.19,0.26,1.08,0.43l0.36,0.07c1.07,0.19,1.65,0.51,1.65,1.22
			C234.73,128.98,233.68,129.5,232.44,129.5z M231.87,127.19c-0.66,0.3-0.97,0.63-0.97,1.02c0,0.5,0.63,0.78,1.57,0.78
			c0.98,0,1.61-0.38,1.61-0.85c0-0.38-0.31-0.58-1.16-0.74l-0.47-0.08C232.22,127.26,232.05,127.24,231.87,127.19z M232.36,123.26
			c-0.68,0-1.12,0.5-1.12,1.16c0,0.62,0.44,1.12,1.14,1.12s1.14-0.49,1.14-1.14C233.52,123.76,233.05,123.26,232.36,123.26z"/>
		<path class="st1" d="M239.13,127.67l-0.11-0.71c-0.53,0.47-1.08,0.81-1.73,0.81c-0.97,0-1.43-0.56-1.43-1.47v-3.43h0.67v3.31
			c0,0.62,0.28,0.99,0.89,0.99c0.51,0,1.03-0.31,1.56-0.82v-3.48h0.67v4.81H239.13z"/>
		<path class="st1" d="M241.29,127.67v-7.17l0.66-0.12v7.3H241.29z"/>
		<path class="st1" d="M246.53,127.67l-0.11-0.64c-0.45,0.42-1.01,0.74-1.7,0.74c-0.83,0-1.43-0.46-1.43-1.31
			c0-1.13,0.91-1.66,3.09-1.87v-0.32c0-0.65-0.39-0.92-1-0.92c-0.57,0-1.13,0.17-1.66,0.43l-0.09-0.6c0.56-0.24,1.11-0.42,1.79-0.42
			c1.07,0,1.62,0.5,1.62,1.48v3.42H246.53z M246.38,125.12c-1.89,0.19-2.42,0.65-2.42,1.3c0,0.52,0.36,0.78,0.86,0.78
			c0.52,0,1.09-0.28,1.55-0.72V125.12z"/>
		<path class="st1" d="M250.05,127.75c-0.75,0-1.25-0.29-1.25-1.18v-3.14h-0.74v-0.57h0.74v-1.67l0.66-0.11v1.78h1.11l0.09,0.57
			h-1.2v3.03c0,0.49,0.19,0.7,0.71,0.7c0.15,0,0.34-0.03,0.45-0.05l0.1,0.56C250.58,127.71,250.34,127.75,250.05,127.75z"/>
		<path class="st1" d="M252.33,121.71c-0.26,0-0.49-0.22-0.49-0.49c0-0.26,0.22-0.49,0.49-0.49s0.48,0.22,0.48,0.49
			C252.81,121.49,252.6,121.71,252.33,121.71z M252,127.67v-4.81h0.66v4.81H252z"/>
		<path class="st1" d="M256.15,127.77c-1.23,0-2.15-0.92-2.15-2.5c0-1.6,0.95-2.51,2.15-2.51c1.25,0,2.19,0.91,2.19,2.51
			C258.34,126.85,257.38,127.77,256.15,127.77z M256.15,123.33c-0.96,0-1.47,0.8-1.47,1.94c0,1.11,0.53,1.93,1.47,1.93
			c0.98,0,1.49-0.79,1.49-1.93C257.65,124.16,257.12,123.33,256.15,123.33z"/>
		<path class="st1" d="M262.73,127.67v-3.31c0-0.62-0.28-1-0.89-1c-0.51,0-1.03,0.31-1.55,0.83v3.48h-0.67v-4.81h0.52l0.11,0.71
			c0.53-0.47,1.08-0.81,1.73-0.81c0.96,0,1.43,0.55,1.43,1.47v3.43H262.73z"/>
	</g>
	<g>
		<path class="st1" d="M318.59,165.17c-0.75,0-1.39-0.19-1.86-0.44l0.1-0.71c0.43,0.27,1.08,0.53,1.79,0.53
			c0.82,0,1.44-0.47,1.44-1.26c0-0.69-0.35-1.04-1.41-1.5c-1.34-0.59-1.83-1.04-1.83-2.02c0-1.06,0.85-1.77,2.01-1.77
			c0.66,0,1.18,0.15,1.54,0.37l-0.1,0.7c-0.4-0.26-0.88-0.45-1.47-0.45c-0.82,0-1.28,0.5-1.28,1.11c0,0.63,0.34,0.94,1.41,1.41
			c1.3,0.57,1.83,1.08,1.83,2.1C320.77,164.43,319.82,165.17,318.59,165.17z"/>
		<path class="st1" d="M324.02,165.14c-0.48,0-0.9-0.09-1.25-0.23v1.92l-0.67,0.11v-6.67h0.52l0.11,0.69
			c0.38-0.43,0.85-0.79,1.56-0.79c1.05,0,1.93,0.76,1.93,2.37C326.22,164.3,325.19,165.14,324.02,165.14z M324.21,160.78
			c-0.57,0-1.01,0.33-1.44,0.86v2.65c0.38,0.18,0.73,0.29,1.23,0.29c0.86,0,1.54-0.66,1.54-2
			C325.54,161.41,324.98,160.78,324.21,160.78z"/>
		<path class="st1" d="M330.44,165.08l-0.11-0.64c-0.45,0.42-1.01,0.74-1.7,0.74c-0.83,0-1.43-0.46-1.43-1.31
			c0-1.13,0.92-1.66,3.09-1.87v-0.32c0-0.65-0.39-0.92-1-0.92c-0.57,0-1.13,0.17-1.66,0.43l-0.09-0.6c0.56-0.24,1.11-0.42,1.79-0.42
			c1.07,0,1.62,0.5,1.62,1.48v3.42H330.44z M330.29,162.53c-1.89,0.19-2.42,0.65-2.42,1.3c0,0.52,0.36,0.78,0.86,0.78
			c0.52,0,1.09-0.28,1.56-0.72V162.53z"/>
		<path class="st1" d="M333.96,165.17c-0.75,0-1.25-0.29-1.25-1.18v-3.14h-0.74v-0.57h0.74v-1.67l0.66-0.11v1.78h1.11l0.09,0.57
			h-1.2v3.03c0,0.49,0.19,0.7,0.71,0.7c0.15,0,0.34-0.03,0.45-0.05l0.1,0.56C334.49,165.13,334.24,165.17,333.96,165.17z"/>
		<path class="st1" d="M336.24,159.13c-0.26,0-0.49-0.22-0.49-0.49c0-0.26,0.22-0.49,0.49-0.49c0.26,0,0.48,0.22,0.48,0.49
			C336.71,158.91,336.5,159.13,336.24,159.13z M335.9,165.08v-4.81h0.66v4.81H335.9z"/>
		<path class="st1" d="M341.13,165.08l-0.11-0.64c-0.45,0.42-1.01,0.74-1.7,0.74c-0.83,0-1.43-0.46-1.43-1.31
			c0-1.13,0.92-1.66,3.09-1.87v-0.32c0-0.65-0.39-0.92-1-0.92c-0.57,0-1.13,0.17-1.66,0.43l-0.09-0.6c0.56-0.24,1.11-0.42,1.79-0.42
			c1.07,0,1.62,0.5,1.62,1.48v3.42H341.13z M340.98,162.53c-1.89,0.19-2.42,0.65-2.42,1.3c0,0.52,0.36,0.78,0.86,0.78
			c0.52,0,1.09-0.28,1.56-0.72V162.53z"/>
		<path class="st1" d="M343.24,165.08v-7.17l0.66-0.12v7.3H343.24z"/>
		<path class="st1" d="M353.16,165.14l-1.12-1.12c-0.59,0.76-1.38,1.17-2.31,1.17c-1.37,0-2.23-0.75-2.23-1.89
			c0-1.05,0.7-1.69,1.68-2.13c-0.5-0.52-0.74-0.95-0.74-1.59c0-0.9,0.69-1.63,1.83-1.63c0.62,0,1.17,0.16,1.66,0.44l-0.13,0.7
			c-0.53-0.34-1.06-0.53-1.54-0.53c-0.71,0-1.11,0.43-1.11,0.99c0,0.5,0.21,0.85,0.74,1.39l2.05,2.07c0.26-0.53,0.46-1.2,0.58-2.02
			l0.64,0.13c-0.16,0.93-0.42,1.72-0.76,2.35l1.48,1.49L353.16,165.14z M351.61,163.59l-2.01-2c-0.87,0.37-1.37,0.92-1.37,1.66
			c0,0.77,0.62,1.35,1.52,1.35C350.46,164.6,351.11,164.28,351.61,163.59z"/>
	</g>
	<text transform="matrix(1 0 0 1 354.0117 165.0844)" class="st1 st4 st5"> </text>
	<g>
		<path class="st1" d="M312.11,177.35c-0.48,0-0.9-0.09-1.25-0.23v1.92l-0.67,0.11v-6.67h0.52l0.11,0.69
			c0.38-0.43,0.85-0.79,1.56-0.79c1.05,0,1.93,0.76,1.93,2.37C314.31,176.51,313.28,177.35,312.11,177.35z M312.31,172.98
			c-0.57,0-1.01,0.33-1.44,0.86v2.65c0.38,0.18,0.73,0.29,1.23,0.29c0.86,0,1.54-0.66,1.54-2
			C313.63,173.61,313.07,172.98,312.31,172.98z"/>
		<path class="st1" d="M315.66,177.29v-7.17l0.66-0.12v7.3H315.66z"/>
		<path class="st1" d="M320.91,177.29l-0.11-0.64c-0.45,0.42-1.01,0.74-1.7,0.74c-0.83,0-1.43-0.46-1.43-1.31
			c0-1.13,0.92-1.66,3.09-1.87v-0.32c0-0.65-0.39-0.92-1-0.92c-0.57,0-1.13,0.17-1.66,0.43l-0.09-0.6c0.56-0.24,1.11-0.42,1.79-0.42
			c1.07,0,1.62,0.5,1.62,1.48v3.42H320.91z M320.76,174.74c-1.89,0.19-2.42,0.65-2.42,1.3c0,0.52,0.36,0.78,0.86,0.78
			c0.52,0,1.09-0.28,1.56-0.72V174.74z"/>
		<path class="st1" d="M324.83,177.39c-1.22,0-2.17-0.92-2.17-2.5c0-1.62,0.98-2.51,2.2-2.51c0.65,0,1.17,0.2,1.57,0.49l-0.11,0.67
			c-0.47-0.39-0.91-0.58-1.47-0.58c-0.91,0-1.49,0.74-1.49,1.92c0,1.19,0.59,1.92,1.56,1.92c0.51,0,0.97-0.14,1.46-0.57l0.09,0.61
			C326,177.21,325.48,177.39,324.83,177.39z"/>
		<path class="st1" d="M329.49,177.39c-1.26,0-2.17-0.85-2.17-2.51c0-1.54,0.89-2.5,2.07-2.5c1.31,0,1.94,1.08,1.94,2.41v0.14H328
			c0.02,1.19,0.57,1.88,1.54,1.88c0.64,0,1.2-0.28,1.7-0.71l0.1,0.61C330.85,177.11,330.23,177.39,329.49,177.39z M328.03,174.4
			h2.62c-0.06-0.86-0.48-1.48-1.25-1.48C328.65,172.92,328.15,173.48,328.03,174.4z"/>
		<path class="st1" d="M332.45,174.75v-0.67h2.46v0.67H332.45z"/>
		<path class="st1" d="M338.06,177.35c-0.67,0-1.21-0.13-1.75-0.31v-6.92l0.67-0.12v3.12c0.35-0.38,0.81-0.73,1.48-0.73
			c1.05,0,1.93,0.76,1.93,2.37C340.4,176.51,339.4,177.35,338.06,177.35z M338.4,172.98c-0.54,0-0.99,0.33-1.41,0.83v2.76
			c0.3,0.12,0.62,0.19,1.11,0.19c0.96,0,1.63-0.62,1.63-1.99C339.72,173.61,339.16,172.98,338.4,172.98z"/>
		<path class="st1" d="M344.62,177.29l-0.11-0.64c-0.45,0.42-1.01,0.74-1.7,0.74c-0.83,0-1.43-0.46-1.43-1.31
			c0-1.13,0.92-1.66,3.09-1.87v-0.32c0-0.65-0.39-0.92-1-0.92c-0.57,0-1.13,0.17-1.66,0.43l-0.09-0.6c0.56-0.24,1.11-0.42,1.79-0.42
			c1.07,0,1.62,0.5,1.62,1.48v3.42H344.62z M344.47,174.74c-1.89,0.19-2.42,0.65-2.42,1.3c0,0.52,0.36,0.78,0.86,0.78
			c0.52,0,1.09-0.28,1.56-0.72V174.74z"/>
		<path class="st1" d="M348.06,177.38c-0.64,0-1.31-0.2-1.73-0.44l0.11-0.65c0.45,0.29,1.04,0.52,1.68,0.52
			c0.67,0,1.09-0.28,1.09-0.77c0-0.48-0.28-0.69-1.24-0.95c-1.07-0.27-1.52-0.62-1.52-1.41c0-0.75,0.64-1.3,1.64-1.3
			c0.57,0,1.07,0.13,1.49,0.33l-0.11,0.64c-0.44-0.23-0.92-0.38-1.4-0.38c-0.66,0-0.98,0.29-0.98,0.68c0,0.4,0.26,0.6,1.08,0.81
			c1.14,0.3,1.69,0.67,1.69,1.52C349.85,176.86,349.17,177.38,348.06,177.38z"/>
		<path class="st1" d="M352.98,177.39c-1.26,0-2.16-0.85-2.16-2.51c0-1.54,0.89-2.5,2.07-2.5c1.31,0,1.94,1.08,1.94,2.41v0.14h-3.34
			c0.02,1.19,0.57,1.88,1.54,1.88c0.64,0,1.2-0.28,1.7-0.71l0.1,0.61C354.34,177.11,353.72,177.39,352.98,177.39z M351.52,174.4
			h2.62c-0.06-0.86-0.48-1.48-1.25-1.48C352.14,172.92,351.64,173.48,351.52,174.4z"/>
		<path class="st1" d="M359.43,177.29l-0.12-0.7c-0.37,0.44-0.84,0.8-1.54,0.8c-1.06,0-1.94-0.75-1.94-2.37
			c0-1.76,1.03-2.61,2.2-2.61c0.49,0,0.91,0.09,1.25,0.24v-2.54l0.67-0.12v7.3H359.43z M359.27,173.27
			c-0.38-0.19-0.73-0.29-1.23-0.29c-0.86,0-1.53,0.65-1.53,2c0,1.17,0.56,1.8,1.32,1.8c0.57,0,1.02-0.35,1.44-0.86V173.27z"/>
	</g>
	<g>
		<path class="st1" d="M319.67,189.55c-0.48,0-0.9-0.09-1.25-0.23v1.92l-0.67,0.11v-6.67h0.52l0.11,0.69
			c0.38-0.43,0.85-0.79,1.56-0.79c1.05,0,1.93,0.76,1.93,2.37C321.87,188.71,320.84,189.55,319.67,189.55z M319.87,185.18
			c-0.57,0-1.01,0.33-1.44,0.86v2.65c0.38,0.18,0.73,0.29,1.23,0.29c0.86,0,1.54-0.66,1.54-2
			C321.19,185.81,320.63,185.18,319.87,185.18z"/>
		<path class="st1" d="M323.22,189.49v-7.17l0.66-0.12v7.3H323.22z"/>
		<path class="st1" d="M328.47,189.49l-0.11-0.64c-0.45,0.42-1.01,0.74-1.7,0.74c-0.83,0-1.43-0.46-1.43-1.31
			c0-1.13,0.92-1.66,3.09-1.87v-0.32c0-0.65-0.39-0.92-1-0.92c-0.57,0-1.13,0.17-1.66,0.43l-0.09-0.6c0.56-0.24,1.11-0.42,1.79-0.42
			c1.07,0,1.62,0.5,1.62,1.48v3.42H328.47z M328.32,186.94c-1.89,0.19-2.42,0.65-2.42,1.3c0,0.52,0.36,0.78,0.86,0.78
			c0.52,0,1.09-0.28,1.56-0.72V186.94z"/>
		<path class="st1" d="M333.63,189.49v-3.31c0-0.62-0.28-1-0.89-1c-0.51,0-1.03,0.31-1.55,0.83v3.48h-0.67v-4.81h0.52l0.11,0.71
			c0.53-0.47,1.08-0.81,1.73-0.81c0.96,0,1.43,0.55,1.43,1.47v3.43H333.63z"/>
		<path class="st1" d="M338.94,189.49v-3.31c0-0.62-0.28-1-0.89-1c-0.51,0-1.03,0.31-1.55,0.83v3.48h-0.67v-4.81h0.52l0.11,0.71
			c0.53-0.47,1.08-0.81,1.73-0.81c0.96,0,1.43,0.55,1.43,1.47v3.43H338.94z"/>
		<path class="st1" d="M341.55,183.54c-0.26,0-0.49-0.22-0.49-0.49c0-0.26,0.22-0.49,0.49-0.49c0.26,0,0.48,0.22,0.48,0.49
			C342.03,183.31,341.81,183.54,341.55,183.54z M341.21,189.49v-4.81h0.66v4.81H341.21z"/>
		<path class="st1" d="M346.63,189.49v-3.31c0-0.62-0.28-1-0.89-1c-0.51,0-1.03,0.31-1.55,0.83v3.48h-0.67v-4.81h0.52l0.11,0.71
			c0.53-0.47,1.08-0.81,1.73-0.81c0.96,0,1.43,0.55,1.43,1.47v3.43H346.63z"/>
		<path class="st1" d="M350.48,191.32c-1.24,0-2.2-0.42-2.2-1.25c0-0.49,0.38-0.9,1.1-1.27c-0.24-0.15-0.36-0.33-0.36-0.51
			c0-0.24,0.16-0.45,0.48-0.64c-0.53-0.26-0.88-0.77-0.88-1.43c0-1.02,0.84-1.64,1.78-1.64c0.48,0,0.89,0.14,1.22,0.41l1.2-0.39
			l0.11,0.66l-0.97,0.1c0.16,0.24,0.25,0.53,0.25,0.85c0,1.02-0.84,1.64-1.8,1.64c-0.14,0-0.29-0.01-0.43-0.04
			c-0.2,0.11-0.31,0.23-0.31,0.35c0,0.19,0.19,0.26,1.08,0.43l0.36,0.07c1.07,0.19,1.65,0.51,1.65,1.22
			C352.76,190.8,351.72,191.32,350.48,191.32z M349.91,189.01c-0.66,0.3-0.96,0.63-0.96,1.02c0,0.5,0.63,0.78,1.58,0.78
			c0.98,0,1.61-0.38,1.61-0.85c0-0.38-0.3-0.58-1.16-0.74l-0.47-0.08C350.25,189.08,350.09,189.06,349.91,189.01z M350.4,185.08
			c-0.68,0-1.12,0.5-1.12,1.16c0,0.62,0.44,1.12,1.14,1.12s1.14-0.49,1.14-1.14C351.55,185.58,351.09,185.08,350.4,185.08z"/>
	</g>
	<g>
		<path class="st1" d="M310.62,245.27l-3.79-5.46v5.46h-0.61v-6.49h0.61l3.67,5.29v-5.29h0.61v6.49H310.62z"/>
		<path class="st1" d="M314.43,245.36c-1.17,0-2-0.79-2-2.32c0-1.43,0.83-2.31,1.92-2.31c1.21,0,1.79,1,1.79,2.23v0.13h-3.09
			c0.02,1.1,0.53,1.74,1.42,1.74c0.59,0,1.11-0.26,1.57-0.66l0.09,0.56C315.69,245.11,315.12,245.36,314.43,245.36z M313.08,242.6
			h2.42c-0.06-0.8-0.44-1.37-1.16-1.37C313.65,241.22,313.19,241.74,313.08,242.6z"/>
		<path class="st1" d="M318.69,245.34c-0.7,0-1.16-0.27-1.16-1.09v-2.91h-0.69v-0.53h0.69v-1.54l0.61-0.1v1.64h1.02l0.08,0.53h-1.11
			v2.8c0,0.45,0.18,0.65,0.66,0.65c0.14,0,0.31-0.03,0.41-0.05l0.09,0.52C319.18,245.3,318.96,245.34,318.69,245.34z"/>
		<path class="st1" d="M324.7,245.29h-0.52l-1.13-3.65l-1.12,3.65h-0.52l-1.48-4.44l0.59-0.11l1.15,3.69l1.12-3.64h0.54l1.12,3.64
			l1.11-3.62h0.62L324.7,245.29z"/>
		<path class="st1" d="M328.81,245.36c-1.14,0-1.99-0.85-1.99-2.31c0-1.48,0.87-2.32,1.99-2.32c1.16,0,2.02,0.85,2.02,2.32
			C330.83,244.51,329.95,245.36,328.81,245.36z M328.81,241.25c-0.88,0-1.36,0.74-1.36,1.8c0,1.02,0.49,1.79,1.36,1.79
			c0.9,0,1.38-0.73,1.38-1.79C330.19,242.02,329.7,241.25,328.81,241.25z"/>
		<path class="st1" d="M332.63,242.47v2.79h-0.62v-4.45h0.46l0.14,0.91c0.33-0.5,0.85-0.99,1.58-1.01l0.1,0.58
			C333.56,241.36,332.93,241.88,332.63,242.47z"/>
		<path class="st1" d="M338.07,245.33l-2.21-2.42v2.36h-0.62v-6.64l0.62-0.11v4.21l1.95-1.91h0.78l-2.07,1.98l2.23,2.41
			L338.07,245.33z"/>
	</g>
	<text transform="matrix(1 0 0 1 341.0049 245.266)" class="st1 st4 st6"> </text>
	<g>
		<path class="st1" d="M312.11,256.55l-0.11-0.65c-0.34,0.4-0.78,0.74-1.43,0.74c-0.98,0-1.79-0.7-1.79-2.19
			c0-1.63,0.95-2.42,2.03-2.42c0.45,0,0.85,0.08,1.16,0.23v-2.35l0.62-0.11v6.75H312.11z M311.96,252.84
			c-0.35-0.18-0.68-0.26-1.14-0.26c-0.8,0-1.42,0.6-1.42,1.85c0,1.08,0.52,1.66,1.22,1.66c0.53,0,0.94-0.32,1.33-0.8V252.84z"/>
		<path class="st1" d="M315.75,256.64c-1.17,0-2-0.79-2-2.32c0-1.43,0.83-2.31,1.92-2.31c1.21,0,1.79,1,1.79,2.23v0.13h-3.09
			c0.02,1.1,0.53,1.74,1.42,1.74c0.59,0,1.11-0.26,1.57-0.66l0.09,0.56C317.01,256.39,316.44,256.64,315.75,256.64z M314.4,253.88
			h2.42c-0.06-0.8-0.44-1.37-1.16-1.37C314.97,252.51,314.51,253.02,314.4,253.88z"/>
		<path class="st1" d="M319.94,256.63c-0.59,0-1.21-0.19-1.6-0.4l0.1-0.6c0.41,0.26,0.96,0.48,1.55,0.48c0.62,0,1.01-0.26,1.01-0.71
			c0-0.44-0.26-0.64-1.15-0.87c-0.99-0.25-1.41-0.57-1.41-1.31c0-0.7,0.59-1.2,1.51-1.2c0.53,0,0.99,0.12,1.38,0.3l-0.1,0.59
			c-0.4-0.22-0.86-0.35-1.3-0.35c-0.61,0-0.9,0.26-0.9,0.63c0,0.37,0.25,0.55,1,0.75c1.05,0.28,1.56,0.62,1.56,1.41
			C321.59,256.15,320.96,256.63,319.94,256.63z"/>
		<path class="st1" d="M323.14,251.04c-0.24,0-0.45-0.21-0.45-0.45c0-0.25,0.21-0.45,0.45-0.45s0.44,0.21,0.44,0.45
			C323.58,250.83,323.38,251.04,323.14,251.04z M322.83,256.55v-4.45h0.61v4.45H322.83z"/>
		<path class="st1" d="M326.47,258.24c-1.15,0-2.03-0.39-2.03-1.16c0-0.45,0.35-0.84,1.02-1.18c-0.23-0.14-0.33-0.3-0.33-0.47
			c0-0.23,0.15-0.41,0.44-0.59c-0.49-0.24-0.82-0.71-0.82-1.33c0-0.94,0.78-1.51,1.64-1.51c0.44,0,0.83,0.13,1.13,0.38l1.11-0.36
			l0.1,0.61l-0.89,0.09c0.15,0.23,0.23,0.49,0.23,0.79c0,0.94-0.78,1.51-1.66,1.51c-0.13,0-0.26-0.01-0.4-0.04
			c-0.19,0.1-0.28,0.22-0.28,0.32c0,0.18,0.18,0.24,1,0.39l0.33,0.07c0.99,0.18,1.52,0.47,1.52,1.13
			C328.59,257.76,327.62,258.24,326.47,258.24z M325.95,256.11c-0.61,0.28-0.89,0.58-0.89,0.94c0,0.46,0.58,0.72,1.46,0.72
			c0.9,0,1.49-0.35,1.49-0.79c0-0.35-0.28-0.54-1.07-0.69l-0.43-0.08C326.27,256.17,326.12,256.15,325.95,256.11z M326.4,252.47
			c-0.63,0-1.03,0.46-1.03,1.07c0,0.57,0.4,1.03,1.05,1.03c0.65,0,1.05-0.45,1.05-1.05C327.47,252.93,327.04,252.47,326.4,252.47z"
			/>
		<path class="st1" d="M332.56,256.55v-3.06c0-0.57-0.26-0.92-0.83-0.92c-0.47,0-0.95,0.29-1.44,0.77v3.21h-0.62v-4.45h0.48
			l0.1,0.66c0.49-0.43,1-0.75,1.6-0.75c0.88,0,1.33,0.51,1.33,1.36v3.18H332.56z"/>
		<path class="st1" d="M334.5,257.8l-0.33-0.08l0.48-2.09h0.75L334.5,257.8z"/>
	</g>
	<g>
		<path class="st1" d="M302.82,267.83v-3.06c0-0.57-0.24-0.92-0.81-0.92c-0.46,0-0.92,0.28-1.41,0.76v3.22h-0.61v-3.06
			c0-0.57-0.24-0.92-0.81-0.92c-0.46,0-0.93,0.28-1.41,0.75v3.23h-0.62v-4.45h0.48l0.1,0.64c0.48-0.42,0.98-0.73,1.57-0.73
			c0.69,0,1.06,0.28,1.22,0.77c0.49-0.44,1.01-0.77,1.62-0.77c0.88,0,1.3,0.51,1.3,1.35v3.19H302.82z"/>
		<path class="st1" d="M307.56,267.83l-0.1-0.59c-0.41,0.38-0.93,0.69-1.57,0.69c-0.77,0-1.33-0.42-1.33-1.21
			c0-1.04,0.85-1.53,2.86-1.73v-0.29c0-0.6-0.36-0.86-0.92-0.86c-0.53,0-1.04,0.16-1.53,0.4l-0.08-0.55
			c0.52-0.23,1.02-0.39,1.65-0.39c0.99,0,1.49,0.46,1.49,1.37v3.17H307.56z M307.42,265.47c-1.75,0.18-2.24,0.6-2.24,1.2
			c0,0.48,0.33,0.72,0.8,0.72c0.48,0,1.01-0.26,1.44-0.67V265.47z"/>
		<path class="st1" d="M312.33,267.83v-3.06c0-0.57-0.26-0.92-0.83-0.92c-0.47,0-0.95,0.29-1.44,0.77v3.21h-0.62v-4.45h0.48
			l0.1,0.66c0.49-0.43,1-0.75,1.6-0.75c0.88,0,1.33,0.51,1.33,1.36v3.18H312.33z"/>
		<path class="st1" d="M317.08,267.83l-0.1-0.59c-0.41,0.38-0.93,0.69-1.57,0.69c-0.77,0-1.33-0.42-1.33-1.21
			c0-1.04,0.85-1.53,2.86-1.73v-0.29c0-0.6-0.36-0.86-0.92-0.86c-0.53,0-1.04,0.16-1.53,0.4l-0.08-0.55
			c0.52-0.23,1.02-0.39,1.65-0.39c0.99,0,1.49,0.46,1.49,1.37v3.17H317.08z M316.94,265.47c-1.75,0.18-2.24,0.6-2.24,1.2
			c0,0.48,0.33,0.72,0.8,0.72c0.48,0,1.01-0.26,1.44-0.67V265.47z"/>
		<path class="st1" d="M320.48,269.52c-1.15,0-2.03-0.38-2.03-1.16c0-0.45,0.35-0.84,1.02-1.17c-0.23-0.14-0.33-0.3-0.33-0.47
			c0-0.23,0.15-0.41,0.44-0.59c-0.49-0.24-0.82-0.71-0.82-1.33c0-0.94,0.78-1.51,1.64-1.51c0.44,0,0.83,0.13,1.13,0.38l1.11-0.36
			l0.1,0.61l-0.89,0.09c0.15,0.23,0.23,0.49,0.23,0.79c0,0.94-0.78,1.51-1.66,1.51c-0.13,0-0.26-0.01-0.4-0.04
			c-0.19,0.1-0.28,0.22-0.28,0.32c0,0.18,0.18,0.24,1,0.39l0.33,0.07c0.99,0.18,1.52,0.47,1.52,1.13
			C322.6,269.04,321.63,269.52,320.48,269.52z M319.96,267.39c-0.61,0.28-0.89,0.58-0.89,0.94c0,0.46,0.58,0.72,1.46,0.72
			c0.9,0,1.49-0.35,1.49-0.79c0-0.35-0.28-0.54-1.07-0.69l-0.43-0.08C320.28,267.46,320.13,267.44,319.96,267.39z M320.41,263.75
			c-0.63,0-1.03,0.46-1.03,1.07c0,0.57,0.4,1.03,1.05,1.03s1.05-0.45,1.05-1.05C321.48,264.21,321.05,263.75,320.41,263.75z"/>
		<path class="st1" d="M325.31,267.93c-1.17,0-2-0.79-2-2.32c0-1.43,0.83-2.31,1.92-2.31c1.21,0,1.79,1,1.79,2.23v0.13h-3.09
			c0.02,1.1,0.53,1.74,1.42,1.74c0.59,0,1.11-0.26,1.57-0.66l0.09,0.56C326.57,267.67,325.99,267.93,325.31,267.93z M323.95,265.16
			h2.42c-0.06-0.8-0.44-1.37-1.16-1.37C324.53,263.79,324.07,264.31,323.95,265.16z"/>
		<path class="st1" d="M333.86,267.83v-3.06c0-0.57-0.24-0.92-0.81-0.92c-0.46,0-0.92,0.28-1.41,0.76v3.22h-0.61v-3.06
			c0-0.57-0.24-0.92-0.81-0.92c-0.46,0-0.93,0.28-1.41,0.75v3.23h-0.62v-4.45h0.48l0.1,0.64c0.48-0.42,0.98-0.73,1.57-0.73
			c0.69,0,1.06,0.28,1.22,0.77c0.49-0.44,1.01-0.77,1.62-0.77c0.88,0,1.3,0.51,1.3,1.35v3.19H333.86z"/>
		<path class="st1" d="M337.62,267.93c-1.17,0-2-0.79-2-2.32c0-1.43,0.83-2.31,1.92-2.31c1.21,0,1.8,1,1.8,2.23v0.13h-3.09
			c0.02,1.1,0.53,1.74,1.42,1.74c0.59,0,1.11-0.26,1.57-0.66l0.09,0.56C338.88,267.67,338.31,267.93,337.62,267.93z M336.27,265.16
			h2.42c-0.06-0.8-0.44-1.37-1.16-1.37C336.84,263.79,336.38,264.31,336.27,265.16z"/>
		<path class="st1" d="M343.4,267.83v-3.06c0-0.57-0.26-0.92-0.83-0.92c-0.47,0-0.95,0.29-1.44,0.77v3.21h-0.62v-4.45h0.48l0.1,0.66
			c0.49-0.43,1-0.75,1.6-0.75c0.88,0,1.33,0.51,1.33,1.36v3.18H343.4z"/>
		<path class="st1" d="M346.8,267.91c-0.7,0-1.16-0.27-1.16-1.09v-2.9h-0.69v-0.53h0.69v-1.54l0.61-0.1v1.64h1.02l0.08,0.53h-1.11
			v2.8c0,0.45,0.18,0.65,0.66,0.65c0.14,0,0.31-0.03,0.41-0.05l0.09,0.52C347.29,267.87,347.06,267.91,346.8,267.91z"/>
	</g>
	<text transform="matrix(1 0 0 1 349.9326 267.8314)" class="st1 st4 st6"> </text>
	<g>
		<path class="st1" d="M299.01,279.17l-1.03-1.03c-0.54,0.71-1.28,1.08-2.13,1.08c-1.27,0-2.06-0.7-2.06-1.75
			c0-0.97,0.65-1.56,1.55-1.97c-0.46-0.48-0.69-0.87-0.69-1.47c0-0.84,0.64-1.5,1.69-1.5c0.57,0,1.08,0.15,1.53,0.4l-0.12,0.65
			c-0.49-0.31-0.98-0.49-1.43-0.49c-0.66,0-1.02,0.4-1.02,0.91c0,0.46,0.2,0.79,0.69,1.29l1.9,1.92c0.24-0.49,0.42-1.11,0.54-1.87
			l0.59,0.12c-0.15,0.86-0.39,1.59-0.71,2.17l1.37,1.38L299.01,279.17z M297.57,277.73l-1.86-1.85c-0.81,0.34-1.27,0.86-1.27,1.53
			c0,0.71,0.57,1.25,1.41,1.25C296.51,278.66,297.11,278.37,297.57,277.73z"/>
		<path class="st1" d="M304.36,279.21c-1.14,0-1.99-0.85-1.99-2.31c0-1.48,0.87-2.32,1.99-2.32c1.16,0,2.02,0.85,2.02,2.32
			C306.38,278.36,305.5,279.21,304.36,279.21z M304.36,275.1c-0.88,0-1.36,0.74-1.36,1.79c0,1.03,0.49,1.79,1.36,1.79
			c0.9,0,1.38-0.73,1.38-1.79C305.75,275.87,305.26,275.1,304.36,275.1z"/>
		<path class="st1" d="M309.34,279.17c-0.44,0-0.84-0.08-1.16-0.22v1.78l-0.62,0.1v-6.17h0.48l0.1,0.64
			c0.35-0.39,0.79-0.73,1.44-0.73c0.97,0,1.79,0.71,1.79,2.19C311.37,278.39,310.42,279.17,309.34,279.17z M309.52,275.13
			c-0.53,0-0.93,0.31-1.33,0.8v2.45c0.35,0.17,0.68,0.26,1.14,0.26c0.8,0,1.42-0.61,1.42-1.85
			C310.74,275.71,310.22,275.13,309.52,275.13z"/>
		<path class="st1" d="M313.93,279.19c-0.7,0-1.16-0.27-1.16-1.09v-2.9h-0.69v-0.53h0.69v-1.54l0.61-0.1v1.64h1.02l0.08,0.53h-1.11
			v2.8c0,0.45,0.18,0.65,0.66,0.65c0.14,0,0.31-0.03,0.41-0.05l0.09,0.52C314.42,279.15,314.19,279.19,313.93,279.19z"/>
		<path class="st1" d="M316.03,273.61c-0.24,0-0.45-0.21-0.45-0.45s0.21-0.45,0.45-0.45s0.44,0.21,0.44,0.45
			S316.28,273.61,316.03,273.61z M315.72,279.11v-4.45h0.61v4.45H315.72z"/>
		<path class="st1" d="M323.51,279.11v-3.06c0-0.57-0.24-0.92-0.81-0.92c-0.46,0-0.92,0.28-1.41,0.76v3.22h-0.61v-3.06
			c0-0.57-0.24-0.92-0.81-0.92c-0.46,0-0.93,0.28-1.41,0.75v3.23h-0.62v-4.45h0.48l0.1,0.64c0.48-0.42,0.98-0.73,1.57-0.73
			c0.69,0,1.06,0.28,1.22,0.77c0.49-0.44,1.01-0.77,1.62-0.77c0.88,0,1.3,0.51,1.3,1.35v3.19H323.51z"/>
		<path class="st1" d="M325.92,273.61c-0.24,0-0.45-0.21-0.45-0.45s0.21-0.45,0.45-0.45s0.44,0.21,0.44,0.45
			S326.17,273.61,325.92,273.61z M325.61,279.11v-4.45h0.61v4.45H325.61z"/>
		<path class="st1" d="M329.03,279.2c-0.59,0-1.21-0.19-1.6-0.4l0.1-0.6c0.41,0.26,0.96,0.48,1.55,0.48c0.62,0,1.01-0.26,1.01-0.71
			c0-0.44-0.26-0.64-1.15-0.87c-0.99-0.25-1.41-0.57-1.41-1.31c0-0.7,0.59-1.2,1.51-1.2c0.53,0,0.99,0.12,1.38,0.3l-0.1,0.59
			c-0.4-0.22-0.86-0.35-1.3-0.35c-0.61,0-0.9,0.26-0.9,0.63c0,0.37,0.25,0.55,1,0.75c1.05,0.28,1.56,0.62,1.56,1.41
			C330.69,278.72,330.06,279.2,329.03,279.2z"/>
		<path class="st1" d="M334.57,279.11l-0.1-0.59c-0.41,0.38-0.93,0.69-1.57,0.69c-0.77,0-1.33-0.42-1.33-1.21
			c0-1.04,0.85-1.53,2.86-1.73v-0.29c0-0.6-0.36-0.86-0.92-0.86c-0.53,0-1.04,0.16-1.53,0.4l-0.08-0.55
			c0.52-0.23,1.02-0.39,1.65-0.39c0.99,0,1.49,0.46,1.49,1.37v3.17H334.57z M334.43,276.76c-1.75,0.18-2.24,0.6-2.24,1.2
			c0,0.48,0.33,0.72,0.8,0.72c0.48,0,1.01-0.26,1.44-0.67V276.76z"/>
		<path class="st1" d="M337.83,279.19c-0.7,0-1.16-0.27-1.16-1.09v-2.9h-0.69v-0.53h0.69v-1.54l0.61-0.1v1.64h1.02l0.08,0.53h-1.11
			v2.8c0,0.45,0.18,0.65,0.66,0.65c0.14,0,0.31-0.03,0.41-0.05l0.09,0.52C338.32,279.15,338.09,279.19,337.83,279.19z"/>
		<path class="st1" d="M339.93,273.61c-0.24,0-0.45-0.21-0.45-0.45s0.21-0.45,0.45-0.45s0.44,0.21,0.44,0.45
			S340.18,273.61,339.93,273.61z M339.62,279.11v-4.45h0.61v4.45H339.62z"/>
		<path class="st1" d="M343.47,279.21c-1.14,0-1.99-0.85-1.99-2.31c0-1.48,0.87-2.32,1.99-2.32c1.16,0,2.02,0.85,2.02,2.32
			C345.49,278.36,344.6,279.21,343.47,279.21z M343.47,275.1c-0.88,0-1.36,0.74-1.36,1.79c0,1.03,0.49,1.79,1.36,1.79
			c0.9,0,1.38-0.73,1.38-1.79C344.85,275.87,344.36,275.1,343.47,275.1z"/>
		<path class="st1" d="M349.55,279.11v-3.06c0-0.57-0.26-0.92-0.83-0.92c-0.47,0-0.95,0.29-1.44,0.77v3.21h-0.62v-4.45h0.48
			l0.1,0.66c0.49-0.43,1-0.75,1.6-0.75c0.88,0,1.33,0.51,1.33,1.36v3.18H349.55z"/>
	</g>
	<g>
		<path class="st1" d="M219.92,310.13v-7.01h0.7v7.01H219.92z"/>
		<path class="st1" d="M225.54,310.13v-3.31c0-0.62-0.28-1-0.89-1c-0.51,0-1.03,0.31-1.55,0.83v3.48h-0.67v-4.81h0.52l0.11,0.71
			c0.53-0.47,1.08-0.81,1.73-0.81c0.96,0,1.43,0.55,1.43,1.47v3.43H225.54z"/>
		<path class="st1" d="M229.56,310.17h-0.63l-1.75-4.79l0.66-0.12l1.42,4.09l1.38-4.02h0.69L229.56,310.17z"/>
		<path class="st1" d="M234.14,310.23c-1.26,0-2.16-0.85-2.16-2.51c0-1.54,0.89-2.5,2.07-2.5c1.31,0,1.94,1.08,1.94,2.41v0.14h-3.34
			c0.02,1.19,0.57,1.88,1.53,1.88c0.64,0,1.2-0.28,1.7-0.71l0.1,0.61C235.51,309.96,234.89,310.23,234.14,310.23z M232.68,307.24
			h2.62c-0.06-0.86-0.48-1.48-1.25-1.48C233.3,305.76,232.8,306.32,232.68,307.24z"/>
		<path class="st1" d="M238.67,310.22c-0.64,0-1.31-0.2-1.73-0.44l0.11-0.65c0.45,0.29,1.04,0.52,1.68,0.52
			c0.67,0,1.09-0.28,1.09-0.77c0-0.48-0.28-0.69-1.24-0.95c-1.07-0.27-1.52-0.62-1.52-1.41c0-0.75,0.64-1.3,1.64-1.3
			c0.57,0,1.07,0.13,1.49,0.33l-0.11,0.64c-0.44-0.23-0.92-0.38-1.4-0.38c-0.66,0-0.98,0.29-0.98,0.68c0,0.4,0.26,0.6,1.08,0.81
			c1.14,0.3,1.69,0.67,1.69,1.52C240.46,309.7,239.78,310.22,238.67,310.22z"/>
		<path class="st1" d="M243.21,310.21c-0.75,0-1.25-0.29-1.25-1.18v-3.14h-0.74v-0.57h0.74v-1.67l0.66-0.11v1.78h1.11l0.09,0.57
			h-1.2v3.03c0,0.49,0.19,0.7,0.71,0.7c0.15,0,0.34-0.03,0.45-0.05l0.1,0.56C243.73,310.17,243.49,310.21,243.21,310.21z"/>
		<path class="st1" d="M251.21,310.13v-3.31c0-0.62-0.25-1-0.87-1c-0.5,0-1,0.3-1.52,0.82v3.49h-0.66v-3.31c0-0.62-0.25-1-0.87-1
			c-0.5,0-1.01,0.3-1.52,0.81v3.5h-0.67v-4.81h0.52l0.11,0.69c0.52-0.46,1.06-0.79,1.7-0.79c0.74,0,1.15,0.3,1.32,0.83
			c0.53-0.48,1.09-0.83,1.75-0.83c0.96,0,1.4,0.55,1.4,1.46v3.45H251.21z"/>
		<path class="st1" d="M255.28,310.23c-1.26,0-2.16-0.85-2.16-2.51c0-1.54,0.89-2.5,2.07-2.5c1.31,0,1.94,1.08,1.94,2.41v0.14h-3.34
			c0.02,1.19,0.57,1.88,1.53,1.88c0.64,0,1.2-0.28,1.7-0.71l0.1,0.61C256.64,309.96,256.02,310.23,255.28,310.23z M253.81,307.24
			h2.62c-0.06-0.86-0.48-1.48-1.25-1.48C254.43,305.76,253.93,306.32,253.81,307.24z"/>
		<path class="st1" d="M261.52,310.13v-3.31c0-0.62-0.28-1-0.89-1c-0.51,0-1.03,0.31-1.55,0.83v3.48h-0.67v-4.81h0.52l0.11,0.71
			c0.53-0.47,1.08-0.81,1.73-0.81c0.96,0,1.43,0.55,1.43,1.47v3.43H261.52z"/>
		<path class="st1" d="M265.2,310.21c-0.75,0-1.25-0.29-1.25-1.18v-3.14h-0.74v-0.57h0.74v-1.67l0.66-0.11v1.78h1.11l0.09,0.57h-1.2
			v3.03c0,0.49,0.19,0.7,0.71,0.7c0.15,0,0.34-0.03,0.45-0.05l0.1,0.56C265.73,310.17,265.49,310.21,265.2,310.21z"/>
	</g>
	<g>
		<path class="st1" d="M144.54,260.53v-7.01h3.66v0.63h-2.96v2.4h2.34l0.1,0.63h-2.44v2.72h3.06v0.63H144.54z"/>
		<path class="st1" d="M151.32,260.63c-1.22,0-2.16-0.92-2.16-2.5c0-1.62,0.98-2.51,2.19-2.51c0.65,0,1.17,0.2,1.56,0.49l-0.11,0.67
			c-0.47-0.39-0.91-0.58-1.47-0.58c-0.92,0-1.49,0.74-1.49,1.92c0,1.19,0.59,1.92,1.56,1.92c0.51,0,0.97-0.14,1.46-0.57l0.09,0.61
			C152.49,260.45,151.97,260.63,151.32,260.63z"/>
		<path class="st1" d="M155.97,260.63c-1.23,0-2.15-0.92-2.15-2.5c0-1.6,0.95-2.51,2.15-2.51c1.25,0,2.19,0.91,2.19,2.51
			C158.16,259.71,157.2,260.63,155.97,260.63z M155.97,256.19c-0.96,0-1.47,0.8-1.47,1.94c0,1.11,0.53,1.93,1.47,1.93
			c0.98,0,1.49-0.79,1.49-1.93C157.46,257.02,156.94,256.19,155.97,256.19z"/>
		<path class="st1" d="M162.55,260.53v-3.31c0-0.62-0.28-1-0.89-1c-0.51,0-1.03,0.31-1.56,0.83v3.48h-0.67v-4.81h0.52l0.11,0.71
			c0.53-0.47,1.08-0.81,1.73-0.81c0.96,0,1.43,0.55,1.43,1.47v3.43H162.55z"/>
		<path class="st1" d="M166.61,260.63c-1.23,0-2.15-0.92-2.15-2.5c0-1.6,0.95-2.51,2.15-2.51c1.25,0,2.19,0.91,2.19,2.51
			C168.79,259.71,167.84,260.63,166.61,260.63z M166.61,256.19c-0.96,0-1.47,0.8-1.47,1.94c0,1.11,0.53,1.93,1.47,1.93
			c0.98,0,1.49-0.79,1.49-1.93C168.1,257.02,167.57,256.19,166.61,256.19z"/>
		<path class="st1" d="M176.19,260.53v-3.31c0-0.62-0.25-1-0.87-1c-0.5,0-1,0.3-1.52,0.82v3.49h-0.66v-3.31c0-0.62-0.25-1-0.87-1
			c-0.5,0-1.01,0.3-1.52,0.81v3.5h-0.67v-4.81h0.52l0.11,0.69c0.52-0.46,1.06-0.79,1.7-0.79c0.74,0,1.15,0.3,1.32,0.83
			c0.53-0.48,1.09-0.83,1.75-0.83c0.96,0,1.4,0.55,1.4,1.46v3.45H176.19z"/>
		<path class="st1" d="M178.8,254.57c-0.26,0-0.49-0.22-0.49-0.49c0-0.26,0.22-0.49,0.49-0.49s0.48,0.22,0.48,0.49
			C179.28,254.35,179.07,254.57,178.8,254.57z M178.47,260.53v-4.81h0.66v4.81H178.47z"/>
		<path class="st1" d="M182.65,260.63c-1.22,0-2.16-0.92-2.16-2.5c0-1.62,0.98-2.51,2.19-2.51c0.65,0,1.17,0.2,1.56,0.49l-0.11,0.67
			c-0.47-0.39-0.91-0.58-1.47-0.58c-0.92,0-1.49,0.74-1.49,1.92c0,1.19,0.59,1.92,1.56,1.92c0.51,0,0.97-0.14,1.46-0.57l0.09,0.61
			C183.82,260.45,183.31,260.63,182.65,260.63z"/>
	</g>
	<text transform="matrix(1 0 0 1 187.019 260.5277)" class="st1 st4 st5"> </text>
	<g>
		<path class="st1" d="M156.04,272.81c-0.75,0-1.25-0.29-1.25-1.18v-3.14h-0.74v-0.57h0.74v-1.67l0.66-0.11v1.78h1.11l0.09,0.57
			h-1.2v3.03c0,0.49,0.19,0.7,0.71,0.7c0.15,0,0.34-0.03,0.45-0.05l0.1,0.56C156.57,272.77,156.32,272.81,156.04,272.81z"/>
		<path class="st1" d="M159.74,272.83c-1.23,0-2.15-0.92-2.15-2.5c0-1.6,0.95-2.51,2.15-2.51c1.25,0,2.19,0.91,2.19,2.51
			C161.92,271.92,160.97,272.83,159.74,272.83z M159.74,268.39c-0.96,0-1.47,0.8-1.47,1.94c0,1.11,0.53,1.93,1.47,1.93
			c0.98,0,1.49-0.79,1.49-1.93C161.23,269.22,160.7,268.39,159.74,268.39z"/>
		<path class="st1" d="M165.06,272.83c-1.23,0-2.15-0.92-2.15-2.5c0-1.6,0.95-2.51,2.15-2.51c1.25,0,2.19,0.91,2.19,2.51
			C167.24,271.92,166.29,272.83,165.06,272.83z M165.06,268.39c-0.96,0-1.47,0.8-1.47,1.94c0,1.11,0.53,1.93,1.47,1.93
			c0.98,0,1.49-0.79,1.49-1.93C166.55,269.22,166.02,268.39,165.06,268.39z"/>
		<path class="st1" d="M168.59,272.73v-7.17l0.66-0.12v7.3H168.59z"/>
		<path class="st1" d="M172.3,272.82c-0.64,0-1.31-0.2-1.73-0.44l0.11-0.65c0.45,0.29,1.04,0.52,1.68,0.52
			c0.67,0,1.09-0.28,1.09-0.77c0-0.48-0.28-0.69-1.24-0.95c-1.07-0.27-1.52-0.62-1.52-1.41c0-0.75,0.64-1.3,1.64-1.3
			c0.57,0,1.07,0.13,1.49,0.33l-0.11,0.64c-0.44-0.23-0.92-0.38-1.4-0.38c-0.66,0-0.98,0.29-0.98,0.68c0,0.4,0.26,0.6,1.08,0.81
			c1.14,0.3,1.69,0.67,1.69,1.52C174.09,272.3,173.41,272.82,172.3,272.82z"/>
	</g>
</g>
</svg>
