<?xml version="1.0" encoding="utf-8"?>
<!-- Generator: Adobe Illustrator 24.0.0, SVG Export Plug-In . SVG Version: 6.00 Build 0)  -->
<svg version="1.1" id="Layer_1" xmlns="http://www.w3.org/2000/svg" xmlns:xlink="http://www.w3.org/1999/xlink" x="0px" y="0px"
	 viewBox="0 0 595.28 841.89" style="enable-background:new 0 0 595.28 841.89;" xml:space="preserve">
<style type="text/css">
	.st0{fill:#F7C500;}
	.st1{fill:#003F65;}
	.st2{fill:none;stroke:#EF7918;stroke-width:2.808;}
	.st3{fill:none;stroke:#003F65;stroke-width:0.468;stroke-miterlimit:10;}
	.st4{fill:none;stroke:#003F65;stroke-miterlimit:10;}
	.st5{font-family:'Whitney-Semibold';}
	.st6{font-size:9.36px;}
</style>
<g>
	<rect x="434.57" y="435.28" class="st0" width="13.27" height="13.27"/>
	<rect x="434.57" y="454.15" class="st1" width="13.27" height="13.27"/>
	<line class="st2" x1="434.57" y1="479.07" x2="447.83" y2="479.07"/>
	<g>
		<path class="st1" d="M288.03,720.87l-1.42-2.28h-0.4v2.22h-1.59v-6.45h2.25c1.56,0,2.48,0.71,2.48,2.04c0,0.9-0.45,1.51-1.22,1.83
			l1.56,2.38L288.03,720.87z M286.71,715.56h-0.51v1.88h0.5c0.69,0,1.08-0.34,1.08-0.95C287.78,715.88,287.4,715.56,286.71,715.56z"
			/>
		<path class="st1" d="M290.38,720.8v-6.45h4.02v1.29h-2.45v1.19h1.87l0.21,1.28h-2.08v1.39h2.53v1.3H290.38z"/>
		<path class="st1" d="M298.26,720.92c-2.05,0-3.18-1.35-3.18-3.34c0-2,1.23-3.36,3.22-3.36c0.79,0,1.46,0.19,1.97,0.48l-0.21,1.39
			c-0.49-0.31-1.06-0.55-1.72-0.55c-1.11,0-1.66,0.82-1.66,2.03c0,1.22,0.56,2.07,1.67,2.07c0.36,0,0.61-0.07,0.87-0.21v-1.15h-1.12
			l-0.19-1.19h2.7v3.14C299.94,720.68,299.15,720.92,298.26,720.92z"/>
		<path class="st1" d="M301.73,720.8v-6.45h1.6v6.45H301.73z"/>
		<path class="st1" d="M307.38,720.92c-1.85,0-3.07-1.35-3.07-3.34c0-2,1.22-3.36,3.09-3.36c1.87,0,3.08,1.35,3.08,3.34
			S309.26,720.92,307.38,720.92z M307.39,715.48c-0.93,0-1.48,0.81-1.48,2.1c0,1.28,0.55,2.09,1.48,2.09c0.94,0,1.48-0.81,1.48-2.09
			C308.87,716.29,308.33,715.48,307.39,715.48z"/>
		<path class="st1" d="M315.46,720.8l-2.54-3.86v3.86h-1.49v-6.45h1.55l2.38,3.61v-3.61h1.49v6.45H315.46z"/>
	</g>
	<g>
		<path class="st1" d="M51.6,608.39c0,1.58-0.85,2.68-2.66,2.68h-3.9v-1.61h3.89c0.83,0,1.32-0.37,1.32-1.09
			c0-0.73-0.48-1.09-1.3-1.09h-3.91v-1.61h3.89C50.73,605.67,51.6,606.83,51.6,608.39z"/>
		<path class="st1" d="M51.5,600.53l-3.86,2.54h3.86v1.49h-6.45v-1.55l3.61-2.38h-3.61v-1.49h6.45V600.53z"/>
		<path class="st1" d="M51.5,597.97h-6.45v-4.02h1.29v2.45h1.19v-1.87l1.28-0.21v2.08h1.39v-2.53h1.3V597.97z"/>
		<path class="st1" d="M51.5,587.24l-4.29,0.28l4.3,1.23v1.5l-4.3,1.23l4.29,0.28v1.39l-6.45-0.47v-2.07l4.44-1.25l-4.44-1.26v-2.01
			l6.45-0.47V587.24z"/>
		<path class="st1" d="M49.36,582.61v0.41h2.14v1.6h-6.45v-2.08c0-1.57,0.7-2.54,2.1-2.54C48.61,580.01,49.36,581.05,49.36,582.61z
			 M46.25,582.64v0.4h1.9v-0.37c0-0.71-0.31-1.1-0.97-1.1C46.56,581.56,46.25,581.93,46.25,582.64z"/>
		<path class="st1" d="M51.5,579.25h-6.45v-1.6h5.07v-1.98l1.38-0.21V579.25z"/>
		<path class="st1" d="M51.62,572.22c0,1.85-1.35,3.07-3.34,3.07c-2,0-3.36-1.21-3.36-3.09s1.35-3.08,3.34-3.08
			S51.62,570.34,51.62,572.22z M46.18,572.21c0,0.93,0.81,1.48,2.1,1.48c1.28,0,2.09-0.55,2.09-1.48c0-0.94-0.81-1.48-2.09-1.48
			C46.99,570.73,46.18,571.27,46.18,572.21z"/>
		<path class="st1" d="M49.12,565.26h2.38v1.61h-2.36l-3.93,2.23l-0.23-1.7l2.68-1.4l-2.62-1.38v-1.67L49.12,565.26z"/>
		<path class="st1" d="M51.5,556.81l-4.29,0.28l4.3,1.23v1.5l-4.3,1.22l4.29,0.28v1.39l-6.45-0.47v-2.07l4.44-1.25l-4.44-1.26v-2.01
			l6.45-0.47V556.81z"/>
		<path class="st1" d="M51.5,554.19h-6.45v-4.02h1.29v2.45h1.19v-1.87l1.28-0.21v2.08h1.39v-2.54h1.3V554.19z"/>
		<path class="st1" d="M51.5,545.15l-3.86,2.54h3.86v1.49h-6.45v-1.55l3.61-2.38h-3.61v-1.49h6.45V545.15z"/>
		<path class="st1" d="M46.4,539.51h5.1v1.61h-5.1v1.82h-1.36v-5.11l1.36-0.22V539.51z"/>
		<path class="st1" d="M51.57,531.51l-2.28,1.42v0.4h2.22v1.59h-6.45v-2.25c0-1.56,0.71-2.48,2.04-2.48c0.9,0,1.51,0.45,1.83,1.22
			l2.38-1.56L51.57,531.51z M46.25,532.83v0.51h1.88v-0.5c0-0.69-0.34-1.08-0.95-1.08C46.58,531.77,46.25,532.14,46.25,532.83z"/>
		<path class="st1" d="M45.02,527.31v-1.76l6.29-2.25l0.26,1.61l-1.4,0.48v2.25l1.34,0.43v1.56L45.02,527.31z M48.91,527.25v-1.46
			l-2.25,0.72L48.91,527.25z"/>
		<path class="st1" d="M46.4,520.29h5.1v1.61h-5.1v1.82h-1.36v-5.11l1.36-0.22V520.29z"/>
		<path class="st1" d="M51.5,517.67h-6.45v-4.02h1.29v2.45h1.19v-1.87l1.28-0.21v2.08h1.39v-2.54h1.3V517.67z"/>
		<path class="st1" d="M52.38,508.74c-0.95,1.23-2.07,2.13-3.78,2.13c-1.83,0-3.07-1.01-3.89-2.79l0.95-0.14
			c0.77,0.89,1.66,1.35,2.92,1.35c1.38,0,2.36-0.51,3.54-1.64L52.38,508.74z"/>
		<path class="st1" d="M48.83,505.55c0,0.88-0.66,1.57-1.86,1.57c-1.21,0-1.86-0.7-1.86-1.57c0-0.87,0.65-1.56,1.85-1.56
			C48.16,503.99,48.83,504.68,48.83,505.55z M51.37,505.73l-3.12-2.04l-3.14-2l0.19-0.84l3.13,2.05l3.13,2L51.37,505.73z
			 M45.89,505.55c0,0.4,0.39,0.6,1.08,0.6c0.65,0,1.07-0.21,1.07-0.6c0-0.39-0.4-0.58-1.08-0.58
			C46.29,504.97,45.89,505.16,45.89,505.55z M51.58,501.04c0,0.88-0.66,1.56-1.85,1.56c-1.22,0-1.87-0.69-1.87-1.56
			c0-0.88,0.65-1.57,1.86-1.57C50.91,499.47,51.58,500.17,51.58,501.04z M48.65,501.04c0,0.4,0.4,0.59,1.08,0.59
			c0.66,0,1.07-0.21,1.07-0.59c0-0.39-0.4-0.59-1.08-0.59C49.05,500.45,48.65,500.66,48.65,501.04z"/>
		<path class="st1" d="M44.75,497.84c0.95-1.23,2.06-2.13,3.77-2.13c1.84,0,3.08,1,3.9,2.79l-0.95,0.13
			c-0.77-0.88-1.66-1.35-2.92-1.35c-1.38,0-2.36,0.51-3.54,1.65L44.75,497.84z"/>
	</g>
	<g>
		<path class="st1" d="M61.67,454.36c0.45-0.3,0.95-0.49,1.57-0.49c1.09,0,1.87,0.69,1.87,1.93c0,1.27-0.96,2.14-2.26,2.14
			c-1.38,0-2.35-0.93-2.35-2.68c0-2.23,1.49-3.44,3.54-3.9l0.15,1C62.95,452.66,61.96,453.24,61.67,454.36z M61.6,455.26
			c0.01,1.12,0.51,1.75,1.26,1.75c0.65,0,1.1-0.43,1.1-1.14c0-0.68-0.35-1.07-1.1-1.07C62.4,454.8,61.98,454.97,61.6,455.26z"/>
	</g>
	<g>
		<path class="st1" d="M62.49,490.71c-0.79,0-1.4-0.19-1.91-0.46l0.18-1.05c0.48,0.29,1.07,0.5,1.74,0.5c0.73,0,1.28-0.36,1.28-1.1
			c0-0.63-0.41-1.01-1.16-1.01c-0.42,0-0.72,0.08-0.98,0.19l-0.8-0.18l0.22-3.33h3.53l0.16,1.01h-2.74l-0.11,1.48
			c0.23-0.07,0.53-0.13,0.95-0.13c1.25,0,2.08,0.72,2.08,1.92C64.93,489.94,63.9,490.71,62.49,490.71z"/>
	</g>
	<g>
		<path class="st1" d="M64.41,522v1.35h-1.12V522h-3.05v-0.79l2.81-4.19h1.37v4.12h0.94V522H64.41z M63.29,518.23l-1.95,2.9h1.95
			V518.23z"/>
	</g>
	<g>
		<path class="st1" d="M62.53,556.23c-0.74,0-1.44-0.2-1.95-0.5l0.17-1.03c0.52,0.33,1.08,0.51,1.73,0.51
			c0.72,0,1.17-0.31,1.17-0.91c0-0.66-0.45-1.03-1.55-1.03h-0.34l-0.15-0.93h0.53c0.97,0,1.39-0.34,1.39-0.9
			c0-0.48-0.35-0.78-1.05-0.78c-0.63,0-1.18,0.21-1.66,0.56l-0.15-0.99c0.49-0.35,1.12-0.58,1.94-0.58c1.41,0,2.11,0.74,2.11,1.66
			c0,0.8-0.47,1.23-1.14,1.47c0.79,0.23,1.25,0.72,1.25,1.57C64.85,555.52,63.91,556.23,62.53,556.23z"/>
	</g>
	<g>
		<path class="st1" d="M60.61,588.86v-0.88l2.26-2.31c0.49-0.51,0.73-0.87,0.73-1.33c0-0.58-0.36-0.88-0.98-0.88
			c-0.62,0-1.19,0.29-1.7,0.7l-0.15-1.07c0.5-0.38,1.15-0.67,1.98-0.67c1.27,0,2.04,0.69,2.04,1.8c0,0.82-0.38,1.36-1.16,2.12
			l-1.53,1.53h2.66l0.15,0.99H60.61z"/>
	</g>
	<g>
		<path class="st1" d="M62.58,621.62v-5.16l-1.29,0.5l-0.13-0.95l1.56-0.72h1.06v6.33H62.58z"/>
	</g>
	<g>
		<path class="st1" d="M62.76,654.51c-1.52,0-2.53-1.18-2.53-3.28s1.01-3.28,2.53-3.28c1.51,0,2.52,1.18,2.52,3.28
			S64.27,654.51,62.76,654.51z M62.76,648.9c-0.85,0-1.33,0.82-1.33,2.32c0,1.5,0.48,2.32,1.33,2.32s1.31-0.82,1.31-2.32
			C64.07,649.72,63.62,648.9,62.76,648.9z"/>
	</g>
	<g>
		<path class="st1" d="M455.05,445.57c-0.79,0-1.46-0.18-2.03-0.45l0.19-1.13c0.54,0.32,1.22,0.57,1.86,0.57
			c0.57,0,0.96-0.27,0.96-0.79c0-0.48-0.22-0.67-1.16-1.08c-1.25-0.51-1.76-0.93-1.76-1.93c0-1.14,0.88-1.81,2.09-1.81
			c0.73,0,1.23,0.15,1.7,0.39l-0.19,1.12c-0.47-0.31-1.02-0.5-1.52-0.5c-0.62,0-0.89,0.3-0.89,0.69c0,0.41,0.21,0.61,1.1,0.98
			c1.33,0.54,1.81,1,1.81,2C457.22,444.91,456.29,445.57,455.05,445.57z"/>
		<path class="st1" d="M461.05,445.49l-0.1-0.64c-0.42,0.4-0.91,0.73-1.51,0.73c-0.85,0-1.29-0.51-1.29-1.37v-3.25h1.12v2.96
			c0,0.39,0.17,0.66,0.57,0.66c0.36,0,0.71-0.22,1.04-0.56v-3.05H462v4.52H461.05z"/>
		<path class="st1" d="M464.27,442.9v2.59h-1.12v-4.52h0.95l0.14,0.91c0.3-0.52,0.75-0.96,1.45-1l0.18,1.11
			C465.17,442.04,464.59,442.42,464.27,442.9z"/>
		<path class="st1" d="M468.26,447.2c-1.23,0-2.15-0.37-2.15-1.12c0-0.43,0.29-0.75,0.85-1.06c-0.18-0.14-0.26-0.31-0.26-0.5
			c0-0.25,0.2-0.5,0.57-0.71c-0.53-0.25-0.85-0.73-0.85-1.33c0-0.98,0.8-1.6,1.81-1.6c0.51,0,0.95,0.15,1.28,0.42l1.1-0.39l0.15,0.9
			l-0.82,0.06c0.07,0.18,0.12,0.38,0.12,0.59c0,0.97-0.83,1.55-1.8,1.55c-0.13,0-0.26,0-0.37-0.02c-0.11,0.08-0.18,0.16-0.18,0.23
			c0,0.15,0.14,0.19,0.84,0.29l0.58,0.06c0.93,0.13,1.51,0.42,1.51,1.11C470.63,446.65,469.57,447.2,468.26,447.2z M467.56,445.28
			c-0.33,0.22-0.48,0.44-0.48,0.67c0,0.34,0.4,0.58,1.25,0.58c0.8,0,1.26-0.27,1.26-0.61c0-0.24-0.2-0.38-0.76-0.47l-0.61-0.08
			C467.92,445.34,467.77,445.33,467.56,445.28z M468.24,441.6c-0.5,0-0.79,0.38-0.79,0.88c0,0.47,0.3,0.82,0.79,0.82
			c0.5,0,0.79-0.37,0.79-0.85S468.72,441.6,468.24,441.6z"/>
		<path class="st1" d="M473.32,445.59c-1.26,0-2.21-0.72-2.21-2.35c0-1.47,0.88-2.36,2.06-2.36c1.36,0,1.96,1.02,1.96,2.3
			c0,0.09-0.01,0.21-0.01,0.27h-2.91c0.06,0.89,0.53,1.26,1.23,1.26c0.58,0,1.06-0.21,1.55-0.56l0.13,0.88
			C474.64,445.37,474.05,445.59,473.32,445.59z M472.24,442.75h1.81c-0.08-0.7-0.36-1.09-0.9-1.09
			C472.69,441.66,472.32,442.02,472.24,442.75z"/>
		<path class="st1" d="M479.17,442.9v2.59h-1.12v-4.52H479l0.14,0.91c0.3-0.52,0.75-0.96,1.45-1l0.18,1.11
			C480.07,442.04,479.49,442.42,479.17,442.9z"/>
		<path class="st1" d="M483.34,445.59c-1.26,0-2.21-0.72-2.21-2.35c0-1.47,0.88-2.36,2.06-2.36c1.36,0,1.96,1.02,1.96,2.3
			c0,0.09-0.01,0.21-0.01,0.27h-2.91c0.06,0.89,0.53,1.26,1.23,1.26c0.58,0,1.06-0.21,1.55-0.56l0.13,0.88
			C484.66,445.37,484.07,445.59,483.34,445.59z M482.26,442.75h1.81c-0.08-0.7-0.36-1.09-0.9-1.09
			C482.72,441.66,482.34,442.02,482.26,442.75z"/>
		<path class="st1" d="M487.75,447.2c-1.23,0-2.15-0.37-2.15-1.12c0-0.43,0.29-0.75,0.85-1.06c-0.18-0.14-0.26-0.31-0.26-0.5
			c0-0.25,0.2-0.5,0.57-0.71c-0.53-0.25-0.85-0.73-0.85-1.33c0-0.98,0.8-1.6,1.81-1.6c0.51,0,0.95,0.15,1.28,0.42l1.1-0.39l0.15,0.9
			l-0.82,0.06c0.07,0.18,0.12,0.38,0.12,0.59c0,0.97-0.83,1.55-1.8,1.55c-0.13,0-0.26,0-0.37-0.02c-0.11,0.08-0.18,0.16-0.18,0.23
			c0,0.15,0.14,0.19,0.84,0.29l0.58,0.06c0.93,0.13,1.51,0.42,1.51,1.11C490.12,446.65,489.05,447.2,487.75,447.2z M487.04,445.28
			c-0.33,0.22-0.48,0.44-0.48,0.67c0,0.34,0.4,0.58,1.25,0.58c0.8,0,1.26-0.27,1.26-0.61c0-0.24-0.2-0.38-0.76-0.47l-0.61-0.08
			C487.41,445.34,487.26,445.33,487.04,445.28z M487.73,441.6c-0.5,0-0.79,0.38-0.79,0.88c0,0.47,0.3,0.82,0.79,0.82
			c0.5,0,0.79-0.37,0.79-0.85S488.2,441.6,487.73,441.6z"/>
		<path class="st1" d="M491.54,440.22c-0.37,0-0.67-0.26-0.67-0.64c0-0.38,0.3-0.66,0.67-0.66c0.37,0,0.66,0.27,0.66,0.66
			C492.21,439.96,491.91,440.22,491.54,440.22z M490.97,445.49v-4.52h1.12v4.52H490.97z"/>
		<path class="st1" d="M495.17,445.59c-1.22,0-2.11-0.88-2.11-2.35c0-1.47,0.9-2.36,2.12-2.36c1.23,0,2.13,0.89,2.13,2.36
			C497.31,444.71,496.4,445.59,495.17,445.59z M495.17,441.81c-0.66,0-1.02,0.59-1.02,1.43c0,0.82,0.37,1.43,1.02,1.43
			c0.69,0,1.05-0.59,1.05-1.43C496.21,442.41,495.84,441.81,495.17,441.81z"/>
		<path class="st1" d="M500.95,445.49v-2.96c0-0.39-0.17-0.66-0.58-0.66c-0.36,0-0.7,0.22-1.03,0.57v3.05h-1.12v-4.52h0.95l0.1,0.64
			c0.42-0.4,0.9-0.73,1.51-0.73c0.84,0,1.29,0.51,1.29,1.36v3.25H500.95z"/>
		<path class="st1" d="M504.72,445.58c-0.66,0-1.33-0.21-1.76-0.44l0.15-0.94c0.49,0.32,1.08,0.53,1.65,0.53
			c0.49,0,0.75-0.18,0.75-0.47c0-0.32-0.2-0.45-0.92-0.63c-1.09-0.28-1.55-0.6-1.55-1.42c0-0.78,0.62-1.33,1.67-1.33
			c0.59,0,1.13,0.11,1.58,0.32l-0.15,0.94c-0.45-0.25-0.98-0.41-1.43-0.41c-0.42,0-0.63,0.16-0.63,0.41c0,0.24,0.17,0.37,0.84,0.55
			c1.17,0.3,1.63,0.62,1.63,1.47C506.55,445.05,505.91,445.58,504.72,445.58z"/>
	</g>
	<g>
		<path class="st1" d="M456.06,464.47c-1.83,0-3.02-1.35-3.02-3.34c0-2,1.2-3.36,3.04-3.36c1.85,0,3.02,1.35,3.02,3.34
			S457.91,464.47,456.06,464.47z M456.07,458.8c-1.1,0-1.77,0.91-1.77,2.32c0,1.41,0.66,2.32,1.77,2.32c1.11,0,1.78-0.91,1.78-2.32
			C457.85,459.7,457.17,458.8,456.07,458.8z"/>
		<path class="st1" d="M461.83,464.42c-0.89,0-1.49-0.33-1.49-1.36v-2.32h-0.64v-0.92h0.64v-1.43l1.1-0.17v1.6h0.93l0.14,0.92h-1.07
			v2.13c0,0.37,0.17,0.56,0.6,0.56c0.13,0,0.25-0.01,0.36-0.04l0.14,0.94C462.36,464.38,462.16,464.42,461.83,464.42z"/>
		<path class="st1" d="M466.11,464.34v-2.96c0-0.39-0.17-0.66-0.58-0.66c-0.36,0-0.7,0.22-1.03,0.57v3.05h-1.12v-6.58l1.12-0.18
			v2.81c0.37-0.35,0.84-0.66,1.44-0.66c0.84,0,1.29,0.51,1.29,1.36v3.25H466.11z"/>
		<path class="st1" d="M470.33,464.44c-1.26,0-2.21-0.72-2.21-2.35c0-1.47,0.88-2.36,2.06-2.36c1.36,0,1.96,1.02,1.96,2.3
			c0,0.09-0.01,0.21-0.01,0.27h-2.91c0.06,0.89,0.53,1.26,1.23,1.26c0.58,0,1.06-0.21,1.55-0.56l0.13,0.88
			C471.65,464.22,471.06,464.44,470.33,464.44z M469.25,461.6h1.81c-0.08-0.7-0.36-1.09-0.9-1.09
			C469.71,460.51,469.33,460.87,469.25,461.6z"/>
		<path class="st1" d="M474.18,461.75v2.59h-1.12v-4.52h0.95l0.14,0.91c0.3-0.52,0.75-0.96,1.45-1l0.18,1.11
			C475.08,460.89,474.5,461.27,474.18,461.75z"/>
		<path class="st1" d="M479.62,461.75v2.59h-1.12v-4.52h0.95l0.14,0.91c0.3-0.52,0.75-0.96,1.45-1l0.18,1.11
			C480.52,460.89,479.94,461.27,479.62,461.75z"/>
		<path class="st1" d="M483.79,464.44c-1.26,0-2.21-0.72-2.21-2.35c0-1.47,0.88-2.36,2.06-2.36c1.36,0,1.96,1.02,1.96,2.3
			c0,0.09-0.01,0.21-0.01,0.27h-2.91c0.06,0.89,0.53,1.26,1.23,1.26c0.58,0,1.06-0.21,1.55-0.56l0.13,0.88
			C485.11,464.22,484.52,464.44,483.79,464.44z M482.71,461.6h1.81c-0.08-0.7-0.36-1.09-0.9-1.09
			C483.17,460.51,482.79,460.87,482.71,461.6z"/>
		<path class="st1" d="M488.19,466.05c-1.23,0-2.15-0.37-2.15-1.12c0-0.43,0.29-0.75,0.85-1.06c-0.18-0.14-0.26-0.31-0.26-0.5
			c0-0.25,0.2-0.5,0.57-0.71c-0.53-0.25-0.85-0.73-0.85-1.33c0-0.98,0.8-1.6,1.81-1.6c0.51,0,0.95,0.15,1.28,0.42l1.1-0.39l0.15,0.9
			l-0.82,0.06c0.07,0.18,0.12,0.38,0.12,0.59c0,0.97-0.83,1.55-1.8,1.55c-0.13,0-0.26,0-0.37-0.02c-0.11,0.08-0.18,0.16-0.18,0.23
			c0,0.15,0.14,0.19,0.84,0.29l0.58,0.06c0.93,0.13,1.51,0.42,1.51,1.11C490.57,465.5,489.5,466.05,488.19,466.05z M487.49,464.13
			c-0.33,0.22-0.48,0.44-0.48,0.67c0,0.34,0.4,0.58,1.25,0.58c0.8,0,1.26-0.27,1.26-0.61c0-0.24-0.2-0.38-0.76-0.47l-0.61-0.08
			C487.86,464.19,487.71,464.18,487.49,464.13z M488.18,460.45c-0.5,0-0.79,0.38-0.79,0.88c0,0.47,0.3,0.82,0.79,0.82
			c0.5,0,0.79-0.37,0.79-0.85S488.65,460.45,488.18,460.45z"/>
		<path class="st1" d="M491.99,459.07c-0.37,0-0.67-0.26-0.67-0.64c0-0.38,0.3-0.66,0.67-0.66c0.37,0,0.66,0.27,0.66,0.66
			C492.66,458.81,492.36,459.07,491.99,459.07z M491.42,464.34v-4.52h1.12v4.52H491.42z"/>
		<path class="st1" d="M495.62,464.44c-1.22,0-2.11-0.88-2.11-2.35c0-1.47,0.9-2.36,2.12-2.36c1.23,0,2.13,0.89,2.13,2.36
			C497.76,463.56,496.85,464.44,495.62,464.44z M495.62,460.66c-0.66,0-1.02,0.59-1.02,1.43c0,0.82,0.37,1.43,1.02,1.43
			c0.69,0,1.05-0.59,1.05-1.43C496.66,461.26,496.29,460.66,495.62,460.66z"/>
		<path class="st1" d="M501.4,464.34v-2.96c0-0.39-0.17-0.66-0.58-0.66c-0.36,0-0.7,0.22-1.03,0.57v3.05h-1.12v-4.52h0.95l0.1,0.64
			c0.42-0.4,0.9-0.73,1.51-0.73c0.84,0,1.29,0.51,1.29,1.36v3.25H501.4z"/>
		<path class="st1" d="M505.17,464.43c-0.66,0-1.33-0.21-1.76-0.44l0.15-0.94c0.49,0.32,1.08,0.53,1.65,0.53
			c0.49,0,0.75-0.18,0.75-0.47c0-0.32-0.2-0.45-0.92-0.63c-1.09-0.28-1.55-0.6-1.55-1.42c0-0.78,0.62-1.33,1.67-1.33
			c0.59,0,1.13,0.11,1.58,0.32l-0.15,0.94c-0.45-0.25-0.98-0.41-1.43-0.41c-0.42,0-0.63,0.16-0.63,0.41c0,0.24,0.17,0.37,0.84,0.55
			c1.17,0.3,1.63,0.62,1.63,1.47C507,463.9,506.36,464.43,505.17,464.43z"/>
	</g>
	<g>
		<path class="st1" d="M457.48,481.61l-3.04-4.44v4.44h-1.15v-6.45h1.17l2.9,4.23v-4.23h1.15v6.45H457.48z"/>
		<path class="st1" d="M462.4,481.61l-0.09-0.59c-0.37,0.38-0.83,0.68-1.51,0.68c-0.77,0-1.28-0.47-1.28-1.25
			c0-1.09,0.9-1.57,2.72-1.75v-0.13c0-0.49-0.28-0.67-0.78-0.67c-0.52,0-1.02,0.15-1.51,0.37l-0.14-0.9
			c0.52-0.21,1.08-0.37,1.8-0.37c1.17,0,1.75,0.43,1.75,1.52v3.1H462.4z M462.24,479.35c-1.3,0.16-1.61,0.54-1.61,0.97
			c0,0.33,0.21,0.52,0.55,0.52c0.38,0,0.75-0.18,1.06-0.49V479.35z"/>
		<path class="st1" d="M466.2,481.68c-0.89,0-1.49-0.33-1.49-1.36V478h-0.64v-0.92h0.64v-1.43l1.1-0.17v1.6h0.93l0.14,0.92h-1.07
			v2.13c0,0.37,0.17,0.56,0.6,0.56c0.13,0,0.25-0.01,0.36-0.04l0.14,0.94C466.73,481.64,466.53,481.68,466.2,481.68z"/>
		<path class="st1" d="M468.37,476.33c-0.37,0-0.67-0.26-0.67-0.64c0-0.38,0.3-0.66,0.67-0.66c0.37,0,0.66,0.27,0.66,0.66
			C469.03,476.07,468.74,476.33,468.37,476.33z M467.8,481.61v-4.52h1.12v4.52H467.8z"/>
		<path class="st1" d="M471.99,481.7c-1.22,0-2.11-0.88-2.11-2.35c0-1.47,0.9-2.36,2.12-2.36c1.23,0,2.13,0.89,2.13,2.36
			C474.13,480.82,473.23,481.7,471.99,481.7z M471.99,477.92c-0.66,0-1.02,0.59-1.02,1.43c0,0.82,0.37,1.43,1.02,1.43
			c0.69,0,1.05-0.59,1.05-1.43C473.04,478.52,472.67,477.92,471.99,477.92z"/>
		<path class="st1" d="M477.78,481.61v-2.96c0-0.39-0.17-0.66-0.58-0.66c-0.36,0-0.7,0.22-1.03,0.57v3.05h-1.12v-4.52H476l0.1,0.64
			c0.42-0.4,0.9-0.73,1.51-0.73c0.84,0,1.29,0.51,1.29,1.36v3.25H477.78z"/>
		<path class="st1" d="M482.65,481.61l-0.09-0.59c-0.37,0.38-0.83,0.68-1.51,0.68c-0.77,0-1.28-0.47-1.28-1.25
			c0-1.09,0.9-1.57,2.72-1.75v-0.13c0-0.49-0.28-0.67-0.78-0.67c-0.52,0-1.02,0.15-1.51,0.37l-0.14-0.9
			c0.52-0.21,1.08-0.37,1.8-0.37c1.17,0,1.75,0.43,1.75,1.52v3.1H482.65z M482.49,479.35c-1.3,0.16-1.61,0.54-1.61,0.97
			c0,0.33,0.21,0.52,0.55,0.52c0.38,0,0.75-0.18,1.06-0.49V479.35z"/>
		<path class="st1" d="M484.78,481.61v-6.58l1.12-0.18v6.75H484.78z"/>
		<path class="st1" d="M491.72,481.61l-0.09-0.59c-0.37,0.38-0.83,0.68-1.51,0.68c-0.77,0-1.28-0.47-1.28-1.25
			c0-1.09,0.9-1.57,2.72-1.75v-0.13c0-0.49-0.28-0.67-0.78-0.67c-0.52,0-1.02,0.15-1.51,0.37l-0.14-0.9
			c0.52-0.21,1.08-0.37,1.8-0.37c1.17,0,1.75,0.43,1.75,1.52v3.1H491.72z M491.56,479.35c-1.3,0.16-1.61,0.54-1.61,0.97
			c0,0.33,0.21,0.52,0.55,0.52c0.38,0,0.75-0.18,1.06-0.49V479.35z"/>
		<path class="st1" d="M495.97,481.62h-1.09l-1.58-4.45l1.18-0.15l1.01,3.21l0.97-3.14h1.11L495.97,481.62z"/>
		<path class="st1" d="M500.11,481.7c-1.26,0-2.21-0.72-2.21-2.35c0-1.47,0.88-2.36,2.06-2.36c1.36,0,1.96,1.02,1.96,2.3
			c0,0.09-0.01,0.21-0.01,0.27H499c0.06,0.89,0.53,1.26,1.23,1.26c0.58,0,1.06-0.21,1.55-0.56l0.13,0.88
			C501.43,481.48,500.84,481.7,500.11,481.7z M499.02,478.87h1.81c-0.08-0.7-0.36-1.09-0.9-1.09
			C499.48,477.77,499.11,478.14,499.02,478.87z"/>
		<path class="st1" d="M503.96,479.02v2.59h-1.12v-4.52h0.95l0.14,0.91c0.3-0.52,0.75-0.96,1.45-1l0.18,1.11
			C504.85,478.15,504.27,478.53,503.96,479.02z"/>
		<path class="st1" d="M508.74,481.61l-0.09-0.59c-0.37,0.38-0.83,0.68-1.51,0.68c-0.77,0-1.28-0.47-1.28-1.25
			c0-1.09,0.9-1.57,2.72-1.75v-0.13c0-0.49-0.28-0.67-0.78-0.67c-0.52,0-1.02,0.15-1.51,0.37l-0.14-0.9
			c0.52-0.21,1.08-0.37,1.8-0.37c1.17,0,1.75,0.43,1.75,1.52v3.1H508.74z M508.58,479.35c-1.3,0.16-1.61,0.54-1.61,0.97
			c0,0.33,0.21,0.52,0.55,0.52c0.38,0,0.75-0.18,1.06-0.49V479.35z"/>
		<path class="st1" d="M512.49,483.31c-1.23,0-2.15-0.37-2.15-1.12c0-0.43,0.29-0.75,0.85-1.06c-0.18-0.14-0.26-0.31-0.26-0.5
			c0-0.25,0.2-0.5,0.57-0.71c-0.53-0.25-0.85-0.73-0.85-1.33c0-0.98,0.8-1.6,1.81-1.6c0.51,0,0.95,0.15,1.28,0.42l1.1-0.39l0.15,0.9
			l-0.82,0.06c0.07,0.18,0.12,0.38,0.12,0.59c0,0.97-0.83,1.55-1.8,1.55c-0.13,0-0.26,0-0.37-0.02c-0.11,0.08-0.18,0.16-0.18,0.23
			c0,0.15,0.14,0.19,0.84,0.29l0.58,0.06c0.93,0.13,1.51,0.42,1.51,1.11C514.87,482.77,513.8,483.31,512.49,483.31z M511.79,481.39
			c-0.33,0.22-0.48,0.44-0.48,0.67c0,0.34,0.4,0.58,1.25,0.58c0.8,0,1.26-0.27,1.26-0.61c0-0.24-0.2-0.38-0.76-0.47l-0.61-0.08
			C512.16,481.46,512.01,481.44,511.79,481.39z M512.47,477.71c-0.5,0-0.79,0.38-0.79,0.88c0,0.47,0.3,0.82,0.79,0.82
			c0.5,0,0.79-0.37,0.79-0.85S512.95,477.71,512.47,477.71z"/>
		<path class="st1" d="M517.56,481.7c-1.26,0-2.21-0.72-2.21-2.35c0-1.47,0.88-2.36,2.06-2.36c1.36,0,1.96,1.02,1.96,2.3
			c0,0.09-0.01,0.21-0.01,0.27h-2.91c0.06,0.89,0.53,1.26,1.23,1.26c0.58,0,1.06-0.21,1.55-0.56l0.13,0.88
			C518.88,481.48,518.29,481.7,517.56,481.7z M516.48,478.87h1.81c-0.08-0.7-0.36-1.09-0.9-1.09
			C516.94,477.77,516.56,478.14,516.48,478.87z"/>
	</g>
	<rect x="82.75" y="453.72" class="st0" width="18.1" height="195.62"/>
	<rect x="114.6" y="516.89" class="st1" width="18.11" height="133.68"/>
	<rect x="114.6" y="516.89" class="st3" width="18.11" height="133.68"/>
	<rect x="147.42" y="532.93" class="st1" width="18.1" height="117.37"/>
	<rect x="147.42" y="532.93" class="st3" width="18.1" height="117.37"/>
	<rect x="178.92" y="513.63" class="st0" width="18.1" height="136.94"/>
	<rect x="211.08" y="490.81" class="st0" width="18.1" height="159.76"/>
	<rect x="243.24" y="494.07" class="st0" width="18.11" height="156.5"/>
	<rect x="275.39" y="481.03" class="st0" width="18.11" height="169.54"/>
	<rect x="307.55" y="490.81" class="st1" width="18.11" height="159.76"/>
	<rect x="307.55" y="490.81" class="st3" width="18.11" height="159.76"/>
	<rect x="339.71" y="520.15" class="st1" width="18.11" height="130.42"/>
	<rect x="339.71" y="520.15" class="st3" width="18.11" height="130.42"/>
	<rect x="371.87" y="523.42" class="st1" width="18.11" height="127.16"/>
	<rect x="371.87" y="523.42" class="st3" width="18.11" height="127.16"/>
	<rect x="404.03" y="529.94" class="st1" width="18.11" height="120.64"/>
	<rect x="404.03" y="529.94" class="st3" width="18.11" height="120.64"/>
	<rect x="468.35" y="539.72" class="st1" width="18.11" height="110.85"/>
	<rect x="468.35" y="539.72" class="st3" width="18.11" height="110.85"/>
	<rect x="500.51" y="529.94" class="st1" width="18.1" height="120.64"/>
	<rect x="500.51" y="529.94" class="st3" width="18.1" height="120.64"/>
	<path class="st4" d="M525.63,650.57v6.34 M493.47,650.57v6.34 M461.32,650.57v6.34 M429.16,650.57v6.34 M397,650.57v6.34
		 M364.84,650.57v6.34 M332.68,650.57v6.34 M300.53,650.57v6.34 M268.37,650.57v6.34 M236.21,650.57v6.34 M204.05,650.57v6.34
		 M171.9,650.57v6.34 M139.74,650.57v6.34 M107.58,650.57v6.34 M75.42,650.57v6.34 M75.42,650.57h450.21"/>
	<path class="st4" d="M75.41,454.95h-7 M75.41,487.55h-7 M75.41,520.15h-7 M75.41,552.76h-7 M75.41,585.36h-7 M75.41,617.97h-7
		 M75.41,650.57h-7 M75.41,650.57V454.95"/>
	<line class="st2" x1="75.9" y1="515.84" x2="525.56" y2="515.84"/>
	<g>
		<path class="st1" d="M69.03,686.06l-5.29-0.99l3.14,3.14l-0.81,0.81l-4.56-4.56l0.83-0.83l5.04,0.94l-2.99-2.99l0.81-0.81
			l4.56,4.56L69.03,686.06z"/>
		<path class="st1" d="M72.05,683.18c-0.87,0.87-2.12,0.87-3.15-0.17c-1.04-1.04-1.03-2.3-0.17-3.17c0.87-0.87,2.14-0.88,3.17,0.16
			S72.92,682.31,72.05,683.18z M69.37,680.51c-0.47,0.47-0.3,1.14,0.29,1.73c0.58,0.58,1.27,0.75,1.73,0.29
			c0.49-0.49,0.32-1.16-0.27-1.75C70.54,680.19,69.85,680.03,69.37,680.51z"/>
		<path class="st1" d="M73.1,678.33l1.83,1.83l-0.79,0.79l-3.19-3.19l0.67-0.67l0.74,0.54c-0.16-0.58-0.15-1.21,0.32-1.73l0.91,0.66
			C73.13,677.09,72.98,677.76,73.1,678.33z"/>
		<path class="st1" d="M77.9,677.3c-0.63,0.63-1.28,0.82-2.01,0.09l-1.64-1.64l-0.45,0.45l-0.65-0.65l0.45-0.45l-1.01-1.01l0.66-0.9
			l1.13,1.13l0.66-0.65l0.75,0.55l-0.75,0.75l1.51,1.51c0.26,0.26,0.52,0.28,0.82-0.03c0.09-0.09,0.17-0.19,0.23-0.28l0.77,0.57
			C78.25,676.9,78.13,677.07,77.9,677.3z"/>
		<path class="st1" d="M80.88,674.22l-2.09-2.09c-0.28-0.28-0.59-0.35-0.88-0.06c-0.25,0.25-0.34,0.65-0.32,1.13l2.16,2.16
			l-0.79,0.79l-4.65-4.65l0.67-0.92l1.98,1.98c0.02-0.51,0.13-1.06,0.55-1.49c0.6-0.59,1.28-0.55,1.87,0.05l2.3,2.3L80.88,674.22z"
			/>
		<path class="st1" d="M82.5,672.6l-4.65-4.65l0.67-0.92l4.78,4.78L82.5,672.6z"/>
		<path class="st1" d="M85.99,669.1l-0.48-0.35c0.01,0.53-0.11,1.07-0.58,1.55c-0.54,0.54-1.24,0.58-1.79,0.02
			c-0.77-0.77-0.48-1.75,0.69-3.16l-0.09-0.09c-0.34-0.34-0.68-0.28-1.03,0.07c-0.37,0.37-0.62,0.83-0.81,1.32l-0.73-0.53
			c0.22-0.52,0.5-1.02,1.01-1.53c0.83-0.83,1.54-0.93,2.31-0.16l2.19,2.19L85.99,669.1z M84.29,667.62
			c-0.81,1.03-0.75,1.52-0.45,1.82c0.23,0.23,0.52,0.23,0.76-0.02c0.27-0.27,0.4-0.65,0.4-1.09L84.29,667.62z"/>
		<path class="st1" d="M89.39,665.7l-2.09-2.09c-0.28-0.28-0.59-0.35-0.88-0.06c-0.25,0.25-0.34,0.65-0.32,1.13l2.16,2.16
			l-0.79,0.79l-3.19-3.19l0.67-0.67l0.52,0.38c0.01-0.58,0.12-1.15,0.55-1.58c0.59-0.6,1.28-0.55,1.87,0.05l2.3,2.3L89.39,665.7z"/>
		<path class="st1" d="M93.07,662.02l-0.51-0.38c0.05,0.5-0.03,1.04-0.47,1.49c-0.67,0.67-1.7,0.71-2.78-0.37
			c-1.19-1.19-1.06-2.38-0.32-3.12c0.3-0.3,0.6-0.5,0.86-0.62l-1.54-1.54l0.67-0.92l4.78,4.78L93.07,662.02z M90.51,659.68
			c-0.29,0.11-0.49,0.21-0.76,0.48c-0.42,0.42-0.38,1.06,0.32,1.76c0.62,0.62,1.18,0.65,1.53,0.3c0.29-0.29,0.34-0.69,0.29-1.16
			L90.51,659.68z"/>
	</g>
	<g>
		<path class="st1" d="M199.91,684.02c-1.45,1.45-3.2,1.29-4.6-0.12c-1.42-1.42-1.53-3.21-0.14-4.6c0.58-0.58,1.17-0.88,1.75-1.03
			l0.69,0.94c-0.59,0.1-1.18,0.32-1.69,0.83c-0.89,0.89-0.69,1.99,0.28,2.96c0.98,0.98,2.09,1.16,3.01,0.25
			c0.32-0.32,0.48-0.61,0.58-0.95l-1.01-1.01l-0.93,0.93l-0.81-0.6l1.83-1.83l2.18,2.18C200.9,682.66,200.52,683.41,199.91,684.02z"
			/>
		<path class="st1" d="M198.95,677.35c-0.26,0.26-0.66,0.29-0.92,0.03c-0.27-0.27-0.25-0.67,0.01-0.94
			c0.26-0.26,0.66-0.28,0.93-0.01C199.23,676.69,199.21,677.09,198.95,677.35z M202.28,681.48l-3.2-3.19l0.79-0.79l3.19,3.19
			L202.28,681.48z"/>
		<path class="st1" d="M205.05,678.83c-0.46,0.46-1.08,0.79-1.55,0.93l-0.56-0.77c0.57-0.12,1.14-0.39,1.54-0.79
			c0.34-0.34,0.4-0.65,0.2-0.86c-0.22-0.22-0.46-0.18-1.09,0.21c-0.97,0.58-1.52,0.68-2.1,0.09c-0.55-0.55-0.5-1.38,0.24-2.12
			c0.42-0.42,0.88-0.72,1.34-0.89l0.56,0.77c-0.5,0.14-0.99,0.4-1.3,0.72c-0.3,0.3-0.33,0.55-0.15,0.73
			c0.17,0.17,0.38,0.14,0.98-0.21c1.04-0.62,1.59-0.71,2.19-0.11C205.97,677.17,205.89,677.98,205.05,678.83z"/>
		<path class="st1" d="M208.26,675.58c-0.5,0.5-0.99,0.83-1.52,1.1l-4.48-4.48l0.67-0.92l1.94,1.94c-0.01-0.42,0.08-0.93,0.48-1.33
			c0.67-0.67,1.71-0.7,2.78,0.37C209.3,673.43,209.21,674.62,208.26,675.58z M205.84,672.79c-0.26,0.26-0.32,0.68-0.28,1.12
			l1.45,1.45c0.23-0.11,0.37-0.19,0.59-0.42c0.5-0.5,0.5-1.11-0.22-1.84C206.76,672.49,206.2,672.43,205.84,672.79z"/>
		<path class="st1" d="M211.86,672.03c-0.87,0.87-2.12,0.87-3.15-0.17c-1.04-1.04-1.03-2.3-0.17-3.17c0.87-0.87,2.14-0.88,3.18,0.16
			C212.75,669.89,212.73,671.16,211.86,672.03z M209.19,669.36c-0.47,0.47-0.3,1.14,0.29,1.73c0.58,0.58,1.27,0.75,1.73,0.29
			c0.49-0.49,0.32-1.16-0.27-1.75C210.35,669.04,209.66,668.88,209.19,669.36z"/>
		<path class="st1" d="M212.91,667.18l1.83,1.83l-0.79,0.79l-3.19-3.2l0.67-0.67l0.74,0.54c-0.16-0.58-0.15-1.21,0.32-1.73
			l0.91,0.66C212.94,665.93,212.79,666.61,212.91,667.18z"/>
		<path class="st1" d="M218.31,665.44l-2.09-2.09c-0.28-0.28-0.59-0.35-0.88-0.06c-0.25,0.25-0.34,0.66-0.32,1.13l2.16,2.16
			l-0.79,0.79l-3.19-3.19l0.67-0.67l0.52,0.38c0.01-0.58,0.12-1.15,0.55-1.58c0.6-0.6,1.28-0.55,1.87,0.05l2.3,2.3L218.31,665.44z"
			/>
		<path class="st1" d="M221.36,662.52c-0.89,0.89-2.07,1.05-3.22-0.1c-1.04-1.04-1.04-2.29-0.21-3.12c0.96-0.96,2.11-0.67,3.02,0.24
			c0.07,0.07,0.14,0.15,0.18,0.2l-2.06,2.06c0.67,0.59,1.27,0.52,1.76,0.03c0.41-0.41,0.6-0.9,0.7-1.5l0.71,0.53
			C222.14,661.44,221.88,662.01,221.36,662.52z M218.59,661.29l1.28-1.28c-0.55-0.44-1.03-0.52-1.41-0.14
			C218.14,660.19,218.14,660.71,218.59,661.29z"/>
	</g>
	<g>
		<path class="st1" d="M325.72,686.69l-0.83,0.83l-4.33-2.31l2.31,4.33l-0.83,0.83l-5.72-3.17l0.75-1.08l4.13,2.41l-2.27-4.17
			l0.88-0.88l4.17,2.27l-2.39-4.05l0.88-0.88L325.72,686.69z"/>
		<path class="st1" d="M328.67,683.87c-0.89,0.89-2.07,1.05-3.22-0.1c-1.04-1.04-1.05-2.29-0.21-3.12c0.96-0.96,2.11-0.67,3.02,0.24
			c0.07,0.07,0.14,0.15,0.19,0.2l-2.06,2.06c0.67,0.59,1.27,0.52,1.76,0.03c0.41-0.41,0.6-0.9,0.7-1.5l0.71,0.53
			C329.45,682.79,329.19,683.36,328.67,683.87z M325.9,682.64l1.28-1.28c-0.55-0.44-1.02-0.52-1.41-0.14
			C325.45,681.54,325.44,682.06,325.9,682.64z"/>
		<path class="st1" d="M330.56,681.85l-4.65-4.65l0.67-0.92l4.77,4.78L330.56,681.85z"/>
		<path class="st1" d="M332.23,680.18l-4.65-4.65l0.67-0.92l4.77,4.77L332.23,680.18z"/>
		<path class="st1" d="M330.57,674.38c-0.26,0.26-0.66,0.29-0.92,0.03c-0.27-0.27-0.25-0.68,0.01-0.94
			c0.26-0.26,0.66-0.28,0.93-0.01C330.86,673.72,330.83,674.12,330.57,674.38z M333.9,678.51l-3.2-3.2l0.79-0.79l3.19,3.19
			L333.9,678.51z"/>
		<path class="st1" d="M337.47,674.95l-2.09-2.09c-0.28-0.28-0.59-0.35-0.88-0.06c-0.25,0.25-0.34,0.65-0.32,1.13l2.16,2.16
			l-0.79,0.79l-3.2-3.2l0.67-0.67l0.52,0.38c0.01-0.58,0.12-1.15,0.55-1.58c0.59-0.59,1.28-0.55,1.87,0.05l2.3,2.3L337.47,674.95z"
			/>
		<path class="st1" d="M341.44,673.38c-0.87,0.87-1.79,1.26-2.31,0.73c-0.3-0.3-0.32-0.73-0.15-1.35c-0.22,0.03-0.4-0.03-0.54-0.17
			c-0.18-0.18-0.21-0.49-0.1-0.91c-0.55,0.2-1.12,0.08-1.54-0.34c-0.69-0.69-0.56-1.7,0.15-2.41c0.36-0.36,0.78-0.57,1.2-0.61
			l0.5-1.06l0.74,0.53l-0.54,0.62c0.18,0.07,0.36,0.18,0.5,0.33c0.69,0.69,0.51,1.69-0.18,2.37c-0.09,0.09-0.18,0.18-0.28,0.25
			c-0.03,0.13-0.01,0.24,0.04,0.29c0.11,0.11,0.23,0.03,0.8-0.39l0.45-0.37c0.75-0.56,1.36-0.77,1.85-0.28
			C342.74,671.31,342.37,672.45,341.44,673.38z M337.47,669.43c-0.35,0.35-0.28,0.83,0.07,1.18c0.33,0.33,0.79,0.37,1.14,0.03
			c0.35-0.35,0.3-0.82-0.04-1.16S337.81,669.1,337.47,669.43z M339.59,672.52c-0.07,0.39-0.03,0.65,0.14,0.81
			c0.24,0.24,0.7,0.13,1.3-0.48c0.57-0.57,0.7-1.08,0.46-1.32c-0.17-0.17-0.41-0.13-0.87,0.2l-0.48,0.38
			C339.9,672.31,339.78,672.4,339.59,672.52z"/>
		<path class="st1" d="M343.85,668.67c-0.63,0.63-1.28,0.82-2.01,0.09l-1.64-1.64l-0.45,0.45l-0.65-0.65l0.45-0.45l-1.01-1.01
			l0.66-0.9l1.13,1.13l0.66-0.65l0.75,0.55l-0.75,0.75l1.51,1.51c0.26,0.26,0.52,0.28,0.82-0.03c0.09-0.09,0.17-0.19,0.23-0.28
			l0.77,0.57C344.2,668.26,344.08,668.43,343.85,668.67z"/>
		<path class="st1" d="M346.28,666.27c-0.87,0.87-2.12,0.87-3.15-0.17c-1.04-1.04-1.03-2.3-0.17-3.17c0.87-0.87,2.14-0.88,3.17,0.16
			C347.17,664.13,347.15,665.4,346.28,666.27z M343.6,663.6c-0.47,0.47-0.3,1.14,0.29,1.73c0.58,0.58,1.27,0.75,1.73,0.29
			c0.49-0.49,0.32-1.16-0.27-1.75C344.77,663.28,344.08,663.12,343.6,663.6z"/>
		<path class="st1" d="M350.3,662.11l-2.09-2.09c-0.28-0.28-0.59-0.35-0.88-0.06c-0.25,0.25-0.34,0.65-0.32,1.13l2.16,2.16
			l-0.79,0.79l-3.19-3.19l0.67-0.67l0.52,0.38c0.01-0.58,0.12-1.15,0.55-1.58c0.6-0.6,1.28-0.55,1.87,0.05l2.3,2.3L350.3,662.11z"/>
	</g>
	<g>
		<path class="st1" d="M140.05,679.37l-0.83,0.83l-4.33-2.31l2.31,4.33l-0.83,0.83l-5.72-3.17l0.75-1.08l4.13,2.41l-2.27-4.17
			l0.88-0.88l4.17,2.27l-2.39-4.05l0.88-0.88L140.05,679.37z"/>
		<path class="st1" d="M143.45,675.97l-0.48-0.35c0.01,0.53-0.11,1.07-0.58,1.55c-0.54,0.54-1.24,0.58-1.79,0.02
			c-0.77-0.77-0.48-1.75,0.69-3.16l-0.09-0.09c-0.34-0.34-0.67-0.28-1.03,0.07c-0.37,0.37-0.62,0.83-0.81,1.32l-0.73-0.54
			c0.23-0.52,0.5-1.02,1.01-1.53c0.83-0.83,1.54-0.93,2.31-0.17l2.19,2.19L143.45,675.97z M141.75,674.49
			c-0.81,1.03-0.75,1.52-0.45,1.83c0.23,0.23,0.52,0.23,0.76-0.02c0.27-0.27,0.4-0.66,0.4-1.09L141.75,674.49z"/>
		<path class="st1" d="M141.63,670.34c-0.26,0.27-0.66,0.29-0.92,0.03c-0.27-0.27-0.25-0.67,0.01-0.94
			c0.26-0.26,0.66-0.28,0.93-0.01C141.91,669.68,141.89,670.08,141.63,670.34z M144.96,674.47l-3.2-3.19l0.79-0.79l3.19,3.19
			L144.96,674.47z"/>
		<path class="st1" d="M148.59,670.92l-2.79-0.46l1.58,1.58l-0.79,0.79l-4.65-4.65l0.67-0.92l2.9,2.9l-0.28-2.37l0.89-0.89
			l0.25,2.61l2.94,0.44L148.59,670.92z"/>
		<path class="st1" d="M151.65,667.77l-0.48-0.35c0.01,0.53-0.11,1.07-0.58,1.55c-0.54,0.54-1.24,0.58-1.79,0.02
			c-0.77-0.77-0.48-1.75,0.69-3.16l-0.09-0.09c-0.34-0.34-0.67-0.28-1.02,0.07c-0.37,0.37-0.61,0.83-0.81,1.32l-0.73-0.54
			c0.22-0.52,0.5-1.02,1.01-1.53c0.83-0.83,1.54-0.93,2.31-0.17l2.19,2.19L151.65,667.77z M149.95,666.29
			c-0.81,1.03-0.75,1.52-0.45,1.82c0.23,0.23,0.52,0.23,0.76-0.02c0.27-0.27,0.4-0.65,0.4-1.09L149.95,666.29z"/>
		<path class="st1" d="M154.39,665.14c-0.63,0.63-1.28,0.82-2.01,0.09l-1.64-1.64l-0.45,0.45l-0.65-0.65l0.45-0.45l-1.01-1.01
			l0.66-0.9l1.13,1.13l0.66-0.66l0.75,0.55l-0.75,0.75l1.51,1.51c0.26,0.26,0.52,0.28,0.82-0.03c0.09-0.09,0.17-0.19,0.22-0.28
			l0.77,0.57C154.74,664.74,154.62,664.91,154.39,665.14z"/>
		<path class="st1" d="M156.81,662.74c-0.87,0.87-2.12,0.87-3.15-0.17c-1.04-1.04-1.03-2.3-0.17-3.17c0.87-0.87,2.14-0.88,3.17,0.16
			S157.69,661.87,156.81,662.74z M154.14,660.07c-0.47,0.47-0.3,1.14,0.29,1.73c0.58,0.58,1.27,0.75,1.73,0.29
			c0.49-0.49,0.32-1.16-0.27-1.75C155.31,659.75,154.62,659.6,154.14,660.07z"/>
	</g>
	<g>
		<path class="st1" d="M255.32,688.49l-3.58-3.09l2.2,4.5l-0.77,0.77l-4.5-2.19l3.1,3.56l-0.79,0.79l-4.21-4.92l1.11-1.11l4.6,2.29
			l-2.29-4.6l1.09-1.09l4.92,4.21L255.32,688.49z"/>
		<path class="st1" d="M258.81,685l-0.48-0.35c0.01,0.53-0.11,1.07-0.58,1.55c-0.54,0.54-1.24,0.58-1.79,0.02
			c-0.77-0.77-0.48-1.75,0.69-3.16l-0.09-0.09c-0.34-0.34-0.68-0.28-1.03,0.07c-0.37,0.37-0.62,0.83-0.81,1.32l-0.73-0.54
			c0.22-0.52,0.5-1.02,1.01-1.53c0.83-0.83,1.54-0.93,2.31-0.17l2.19,2.19L258.81,685z M257.1,683.52
			c-0.81,1.03-0.75,1.52-0.45,1.83c0.23,0.23,0.52,0.22,0.76-0.02c0.27-0.27,0.4-0.66,0.4-1.09L257.1,683.52z"/>
		<path class="st1" d="M262.21,681.6l-2.09-2.09c-0.28-0.28-0.59-0.35-0.88-0.06c-0.25,0.25-0.34,0.66-0.32,1.13l2.16,2.16
			l-0.79,0.79l-3.19-3.19l0.67-0.67l0.52,0.38c0.01-0.58,0.12-1.15,0.55-1.58c0.59-0.59,1.28-0.55,1.87,0.05l2.3,2.3L262.21,681.6z"
			/>
		<path class="st1" d="M265.66,678.15l-0.48-0.35c0.01,0.53-0.11,1.07-0.58,1.55c-0.54,0.54-1.24,0.58-1.79,0.02
			c-0.77-0.77-0.48-1.75,0.69-3.16l-0.09-0.09c-0.34-0.34-0.67-0.28-1.03,0.07c-0.37,0.37-0.61,0.83-0.81,1.32l-0.73-0.54
			c0.23-0.52,0.5-1.02,1.01-1.53c0.83-0.83,1.54-0.93,2.31-0.17l2.19,2.19L265.66,678.15z M263.95,676.67
			c-0.81,1.03-0.75,1.52-0.45,1.83c0.23,0.23,0.52,0.22,0.76-0.02c0.27-0.27,0.4-0.65,0.4-1.09L263.95,676.67z"/>
		<path class="st1" d="M270.37,673.44l-0.71,0.71l-2.72-1.51l1.52,2.71l-0.71,0.71l-4.09-2.18l0.69-0.9l2.7,1.56l-1.5-2.67l0.7-0.7
			l2.66,1.51l-1.53-2.64l0.75-0.75L270.37,673.44z"/>
		<path class="st1" d="M273.64,670.17l-0.48-0.35c0.01,0.53-0.11,1.07-0.58,1.55c-0.54,0.54-1.24,0.58-1.79,0.02
			c-0.77-0.77-0.48-1.75,0.69-3.16l-0.09-0.09c-0.34-0.34-0.68-0.28-1.03,0.07c-0.37,0.37-0.62,0.83-0.81,1.32l-0.73-0.54
			c0.22-0.52,0.5-1.02,1.01-1.53c0.83-0.83,1.54-0.93,2.31-0.17l2.19,2.19L273.64,670.17z M271.94,668.69
			c-0.81,1.03-0.75,1.52-0.45,1.83c0.23,0.23,0.52,0.22,0.76-0.02c0.27-0.27,0.4-0.66,0.4-1.09L271.94,668.69z"/>
		<path class="st1" d="M276.38,667.53c-0.63,0.63-1.28,0.82-2.01,0.09l-1.64-1.64l-0.45,0.45l-0.65-0.65l0.45-0.45l-1.01-1.01
			l0.66-0.9l1.13,1.13l0.65-0.65l0.75,0.55l-0.75,0.75l1.51,1.51c0.26,0.26,0.52,0.28,0.82-0.03c0.09-0.09,0.17-0.19,0.23-0.28
			l0.77,0.57C276.73,667.13,276.61,667.3,276.38,667.53z"/>
		<path class="st1" d="M274.1,662.25l-0.58-0.58l1.88-1.88l0.58,0.58L274.1,662.25z M279.47,664.34l-0.52-0.38
			c-0.01,0.58-0.13,1.16-0.55,1.58c-0.6,0.6-1.28,0.55-1.88-0.05l-2.29-2.29l0.79-0.79l2.09,2.09c0.28,0.28,0.58,0.34,0.87,0.06
			c0.25-0.25,0.34-0.66,0.34-1.13l-2.16-2.16l0.79-0.79l3.19,3.19L279.47,664.34z"/>
		<path class="st1" d="M279.34,661.43l-0.76-0.76l1.72-1.72l0.76,0.76L279.34,661.43z"/>
	</g>
	<text transform="matrix(0.7071 -0.7071 0.7071 0.7071 282.8758 660.9342)" class="st1 st5 st6"> </text>
	<g>
		<path class="st1" d="M262.2,694.85l-0.83,0.83l-4.33-2.31l2.31,4.33l-0.83,0.83l-5.72-3.17l0.75-1.08l4.13,2.41l-2.27-4.17
			l0.88-0.88l4.17,2.27l-2.39-4.05l0.88-0.88L262.2,694.85z"/>
		<path class="st1" d="M266.02,691.03l-2.09-2.09c-0.28-0.28-0.59-0.35-0.88-0.06c-0.25,0.25-0.34,0.65-0.32,1.13l2.16,2.16
			l-0.79,0.79l-4.65-4.65l0.67-0.92l1.98,1.98c0.02-0.51,0.13-1.06,0.55-1.49c0.6-0.59,1.28-0.55,1.87,0.05l2.3,2.3L266.02,691.03z"
			/>
		<path class="st1" d="M269.46,687.58l-0.48-0.35c0.01,0.53-0.11,1.07-0.58,1.55c-0.54,0.54-1.24,0.58-1.79,0.02
			c-0.77-0.77-0.48-1.75,0.69-3.16l-0.09-0.09c-0.34-0.34-0.67-0.28-1.03,0.07c-0.37,0.37-0.61,0.83-0.81,1.32l-0.73-0.54
			c0.23-0.52,0.5-1.02,1.01-1.53c0.83-0.83,1.54-0.93,2.31-0.16l2.19,2.19L269.46,687.58z M267.76,686.1
			c-0.81,1.03-0.75,1.52-0.45,1.83c0.23,0.23,0.51,0.23,0.76-0.02c0.27-0.27,0.4-0.65,0.4-1.09L267.76,686.1z"/>
		<path class="st1" d="M272.87,684.18l-2.09-2.09c-0.28-0.28-0.59-0.35-0.88-0.06c-0.25,0.25-0.34,0.65-0.32,1.13l2.16,2.16
			l-0.79,0.79l-3.19-3.19l0.67-0.67l0.52,0.38c0.01-0.58,0.12-1.15,0.55-1.58c0.59-0.6,1.28-0.55,1.87,0.05l2.3,2.3L272.87,684.18z"
			/>
		<path class="st1" d="M276.84,682.61c-0.87,0.87-1.79,1.26-2.31,0.73c-0.3-0.3-0.32-0.73-0.14-1.35c-0.23,0.03-0.4-0.03-0.54-0.17
			c-0.18-0.18-0.21-0.49-0.1-0.91c-0.56,0.2-1.12,0.09-1.54-0.34c-0.7-0.69-0.56-1.7,0.15-2.41c0.37-0.36,0.78-0.57,1.21-0.61
			l0.5-1.06l0.74,0.53l-0.54,0.62c0.18,0.07,0.36,0.18,0.5,0.33c0.69,0.69,0.51,1.69-0.18,2.38c-0.09,0.09-0.18,0.19-0.28,0.25
			c-0.03,0.13-0.01,0.24,0.04,0.29c0.11,0.11,0.23,0.03,0.8-0.39l0.45-0.37c0.75-0.56,1.36-0.77,1.85-0.28
			C278.14,680.55,277.77,681.68,276.84,682.61z M272.88,678.67c-0.35,0.35-0.29,0.83,0.07,1.18c0.33,0.33,0.79,0.37,1.14,0.03
			c0.35-0.35,0.3-0.82-0.04-1.16C273.7,678.36,273.21,678.33,272.88,678.67z M274.99,681.75c-0.07,0.39-0.03,0.65,0.14,0.81
			c0.24,0.24,0.7,0.13,1.3-0.48c0.57-0.57,0.7-1.08,0.46-1.32c-0.17-0.17-0.41-0.13-0.87,0.21l-0.48,0.38
			C275.3,681.54,275.18,681.63,274.99,681.75z"/>
		<path class="st1" d="M279.72,677.33l-0.48-0.35c0.01,0.53-0.11,1.07-0.58,1.55c-0.54,0.54-1.24,0.58-1.79,0.02
			c-0.77-0.77-0.48-1.75,0.69-3.16l-0.09-0.09c-0.34-0.34-0.67-0.28-1.03,0.07c-0.37,0.37-0.61,0.83-0.81,1.32l-0.73-0.54
			c0.23-0.52,0.5-1.02,1.01-1.53c0.83-0.83,1.54-0.93,2.31-0.16l2.19,2.19L279.72,677.33z M278.01,675.85
			c-0.81,1.03-0.75,1.52-0.45,1.83c0.23,0.23,0.52,0.22,0.76-0.02c0.27-0.27,0.4-0.65,0.4-1.09L278.01,675.85z"/>
		<path class="st1" d="M283.12,673.93l-2.09-2.09c-0.28-0.28-0.59-0.35-0.88-0.06c-0.25,0.25-0.34,0.65-0.32,1.13l2.16,2.16
			l-0.79,0.79l-3.19-3.19l0.67-0.67l0.52,0.38c0.01-0.58,0.12-1.15,0.55-1.58c0.59-0.6,1.28-0.55,1.87,0.05l2.3,2.3L283.12,673.93z"
			/>
		<path class="st1" d="M286.75,670.3l-0.52-0.38c-0.01,0.58-0.13,1.16-0.55,1.58c-0.6,0.6-1.28,0.55-1.88-0.05l-2.29-2.29l0.79-0.79
			l2.09,2.09c0.28,0.28,0.58,0.34,0.87,0.06c0.25-0.25,0.34-0.66,0.34-1.13l-2.16-2.16l0.79-0.79l3.19,3.19L286.75,670.3z"/>
		<path class="st1" d="M284.94,664.65c-0.26,0.27-0.66,0.29-0.92,0.03c-0.27-0.27-0.25-0.67,0.01-0.94
			c0.26-0.26,0.66-0.28,0.93-0.01C285.22,664,285.19,664.39,284.94,664.65z M288.26,668.78l-3.2-3.2l0.79-0.79l3.19,3.19
			L288.26,668.78z"/>
	</g>
	<g>
		<path class="st1" d="M387.48,690.36c-1.33,1.33-3.1,1.22-4.52-0.19c-1.42-1.42-1.5-3.23-0.21-4.52c0.53-0.53,1.06-0.81,1.61-0.95
			l0.7,0.95c-0.52,0.07-1.07,0.27-1.51,0.71c-0.81,0.81-0.69,1.92,0.3,2.91c1,1,2.13,1.07,2.94,0.26c0.42-0.42,0.66-0.96,0.78-1.54
			l0.87,0.63C388.3,689.22,387.99,689.85,387.48,690.36z"/>
		<path class="st1" d="M391.33,686.35l-0.48-0.35c0.01,0.53-0.11,1.07-0.58,1.55c-0.54,0.54-1.24,0.58-1.79,0.02
			c-0.77-0.77-0.48-1.75,0.69-3.16l-0.09-0.09c-0.34-0.34-0.67-0.28-1.03,0.07c-0.37,0.37-0.61,0.83-0.81,1.32l-0.73-0.54
			c0.23-0.52,0.5-1.02,1.01-1.53c0.83-0.83,1.54-0.93,2.31-0.17l2.19,2.19L391.33,686.35z M389.62,684.87
			c-0.81,1.03-0.76,1.52-0.45,1.83c0.23,0.23,0.52,0.22,0.76-0.02c0.27-0.27,0.4-0.66,0.4-1.09L389.62,684.87z"/>
		<path class="st1" d="M394.73,682.95l-2.09-2.09c-0.28-0.28-0.59-0.35-0.88-0.06c-0.25,0.25-0.34,0.66-0.32,1.13l2.16,2.16
			l-0.79,0.79l-3.19-3.19l0.67-0.67l0.52,0.38c0.01-0.58,0.12-1.15,0.55-1.58c0.59-0.59,1.28-0.55,1.87,0.05l2.3,2.3L394.73,682.95z
			"/>
		<path class="st1" d="M397.59,680.19c-0.63,0.63-1.28,0.82-2.01,0.09l-1.64-1.64l-0.45,0.45l-0.65-0.65l0.45-0.45l-1.01-1.01
			l0.66-0.9l1.13,1.13l0.65-0.65l0.75,0.55l-0.75,0.75l1.51,1.51c0.26,0.26,0.52,0.28,0.82-0.03c0.09-0.09,0.17-0.19,0.23-0.28
			l0.77,0.57C397.94,679.79,397.82,679.96,397.59,680.19z"/>
		<path class="st1" d="M400.08,677.73c-0.89,0.89-2.07,1.05-3.22-0.1c-1.04-1.04-1.04-2.29-0.21-3.12c0.96-0.96,2.11-0.67,3.01,0.24
			c0.07,0.07,0.14,0.15,0.19,0.2l-2.06,2.06c0.67,0.59,1.27,0.52,1.76,0.03c0.41-0.41,0.59-0.9,0.7-1.5l0.71,0.53
			C400.86,676.65,400.59,677.22,400.08,677.73z M397.31,676.5l1.28-1.28c-0.55-0.44-1.03-0.52-1.41-0.14
			C396.86,675.4,396.85,675.92,397.31,676.5z"/>
		<path class="st1" d="M400.9,673.11l1.83,1.83l-0.79,0.79l-3.19-3.19l0.67-0.67l0.74,0.54c-0.16-0.58-0.15-1.21,0.32-1.73
			l0.91,0.66C400.93,671.87,400.78,672.55,400.9,673.11z"/>
		<path class="st1" d="M405.72,672.04c-0.5,0.5-0.99,0.83-1.52,1.1l-4.48-4.48l0.67-0.92l1.94,1.94c-0.01-0.42,0.08-0.93,0.48-1.33
			c0.67-0.67,1.71-0.7,2.78,0.37C406.76,669.9,406.67,671.09,405.72,672.04z M403.3,669.26c-0.26,0.26-0.32,0.68-0.28,1.12
			l1.45,1.45c0.22-0.11,0.36-0.19,0.59-0.42c0.5-0.5,0.5-1.11-0.22-1.84C404.22,668.95,403.66,668.9,403.3,669.26z"/>
		<path class="st1" d="M409.96,667.72l-0.52-0.38c-0.01,0.58-0.13,1.16-0.55,1.58c-0.6,0.6-1.28,0.55-1.88-0.05l-2.29-2.29
			l0.79-0.79l2.09,2.09c0.28,0.28,0.58,0.34,0.87,0.06c0.25-0.25,0.34-0.66,0.34-1.13l-2.16-2.16l0.79-0.79l3.19,3.19L409.96,667.72
			z"/>
		<path class="st1" d="M410.41,663.61l1.83,1.83l-0.79,0.79l-3.19-3.19l0.67-0.67l0.74,0.54c-0.16-0.58-0.15-1.21,0.32-1.73
			l0.91,0.66C410.43,662.37,410.29,663.04,410.41,663.61z"/>
		<path class="st1" d="M415.61,662.41c0.5,1.07,0.38,1.68-0.23,2.29c-0.14,0.14-0.23,0.21-0.33,0.26l-0.76-0.55
			c0.13-0.08,0.26-0.17,0.42-0.32c0.23-0.23,0.31-0.52,0.18-0.85l-0.14-0.28l-4.31-1.99l0.72-0.93l3.02,1.54l-1.52-2.94l0.79-0.79
			L415.61,662.41z"/>
	</g>
	<g>
		<path class="st1" d="M465.27,675.98c-1.3,1.3-3.09,1.18-4.5-0.23c-1.42-1.42-1.53-3.22-0.22-4.52c1.31-1.31,3.09-1.18,4.5,0.22
			S466.58,674.67,465.27,675.98z M461.26,671.96c-0.78,0.78-0.61,1.89,0.39,2.89c1,1,2.11,1.17,2.89,0.39
			c0.79-0.79,0.62-1.9-0.38-2.9S462.04,671.18,461.26,671.96z"/>
		<path class="st1" d="M469.31,671.87c-0.63,0.63-1.28,0.82-2.01,0.09l-1.64-1.64l-0.45,0.45l-0.65-0.65l0.45-0.45l-1.01-1.01
			l0.66-0.9l1.13,1.13l0.66-0.65l0.75,0.55l-0.75,0.75l1.51,1.51c0.26,0.26,0.52,0.28,0.82-0.03c0.09-0.09,0.17-0.19,0.23-0.28
			l0.77,0.57C469.66,671.46,469.54,671.64,469.31,671.87z"/>
		<path class="st1" d="M472.22,668.86l-0.48-0.35c0.01,0.53-0.11,1.07-0.58,1.55c-0.54,0.54-1.24,0.58-1.79,0.02
			c-0.77-0.77-0.48-1.75,0.69-3.16l-0.09-0.09c-0.34-0.34-0.67-0.28-1.03,0.07c-0.37,0.37-0.62,0.83-0.81,1.32l-0.73-0.54
			c0.22-0.52,0.5-1.02,1.01-1.53c0.83-0.83,1.54-0.93,2.31-0.17l2.19,2.19L472.22,668.86z M470.51,667.38
			c-0.81,1.03-0.75,1.52-0.45,1.83c0.23,0.23,0.52,0.22,0.76-0.02c0.27-0.27,0.4-0.66,0.4-1.09L470.51,667.38z"/>
		<path class="st1" d="M476.07,667.41c-0.87,0.87-1.79,1.26-2.31,0.73c-0.3-0.3-0.32-0.73-0.14-1.35c-0.23,0.03-0.4-0.03-0.54-0.17
			c-0.18-0.18-0.21-0.49-0.1-0.91c-0.56,0.2-1.12,0.09-1.54-0.34c-0.7-0.69-0.56-1.7,0.15-2.41c0.37-0.36,0.78-0.57,1.21-0.61
			l0.5-1.06l0.74,0.53l-0.54,0.62c0.18,0.07,0.36,0.19,0.5,0.33c0.69,0.69,0.51,1.69-0.18,2.37c-0.09,0.09-0.18,0.19-0.28,0.25
			c-0.03,0.13-0.01,0.24,0.04,0.29c0.11,0.11,0.23,0.03,0.8-0.39l0.45-0.37c0.75-0.56,1.36-0.77,1.85-0.28
			C477.37,665.34,477,666.48,476.07,667.41z M472.11,663.46c-0.35,0.35-0.28,0.83,0.07,1.18c0.33,0.33,0.79,0.37,1.14,0.03
			c0.35-0.35,0.3-0.82-0.04-1.16C472.93,663.16,472.44,663.13,472.11,663.46z M474.22,666.55c-0.07,0.39-0.03,0.65,0.14,0.81
			c0.24,0.24,0.7,0.13,1.3-0.48c0.57-0.57,0.7-1.08,0.46-1.32c-0.17-0.17-0.41-0.13-0.87,0.2l-0.48,0.38
			C474.53,666.34,474.41,666.43,474.22,666.55z"/>
		<path class="st1" d="M478.46,662.75c-0.87,0.87-2.12,0.87-3.15-0.17c-1.04-1.04-1.03-2.3-0.17-3.17c0.87-0.87,2.14-0.88,3.17,0.16
			C479.35,660.61,479.33,661.88,478.46,662.75z M475.78,660.08c-0.47,0.47-0.3,1.14,0.29,1.73c0.58,0.58,1.27,0.75,1.73,0.29
			c0.49-0.49,0.33-1.16-0.27-1.75C476.95,659.76,476.26,659.6,475.78,660.08z"/>
	</g>
	<g>
		<path class="st1" d="M97.09,681.01l0.93-0.93l6.14,2.8l-0.71,1.03l-1.64-0.77l-1.73,1.73l0.75,1.57l-0.87,0.87L97.09,681.01z
			 M99.6,683.92l1.25-1.25l-2.39-1.14L99.6,683.92z"/>
		<path class="st1" d="M106.83,680.43l-0.52-0.38c-0.01,0.58-0.13,1.16-0.55,1.58c-0.6,0.6-1.28,0.55-1.88-0.05l-2.29-2.29
			l0.79-0.79l2.09,2.09c0.28,0.28,0.58,0.34,0.87,0.06c0.25-0.25,0.34-0.66,0.34-1.13l-2.16-2.16l0.79-0.79l3.2,3.2L106.83,680.43z"
			/>
		<path class="st1" d="M109.74,677.64c-0.89,0.89-2.12,0.93-3.16-0.12c-1.11-1.11-0.99-2.37-0.13-3.23
			c0.42-0.42,0.86-0.64,1.27-0.73l0.6,0.83c-0.48,0.07-0.83,0.23-1.14,0.55c-0.46,0.46-0.45,1.13,0.18,1.76
			c0.66,0.66,1.34,0.62,1.82,0.14c0.28-0.28,0.46-0.6,0.53-1.14l0.77,0.57C110.38,676.83,110.14,677.24,109.74,677.64z"/>
		<path class="st1" d="M113.38,673.97l-2.79-0.46l1.58,1.58l-0.79,0.79l-4.65-4.65l0.67-0.92l2.9,2.9l-0.28-2.37l0.89-0.89
			l0.25,2.61l2.94,0.44L113.38,673.97z"/>
		<path class="st1" d="M114.67,672.59l-4.65-4.65l0.67-0.92l4.78,4.78L114.67,672.59z"/>
		<path class="st1" d="M118.16,669.1l-0.48-0.35c0.01,0.53-0.11,1.07-0.58,1.55c-0.54,0.54-1.24,0.58-1.79,0.02
			c-0.77-0.77-0.48-1.75,0.69-3.16l-0.09-0.09c-0.34-0.34-0.68-0.28-1.03,0.07c-0.37,0.37-0.62,0.83-0.81,1.32l-0.73-0.54
			c0.22-0.52,0.5-1.02,1.01-1.53c0.83-0.83,1.54-0.93,2.31-0.17l2.19,2.19L118.16,669.1z M116.46,667.61
			c-0.81,1.03-0.76,1.52-0.45,1.83c0.23,0.23,0.52,0.22,0.76-0.02c0.27-0.27,0.4-0.65,0.4-1.09L116.46,667.61z"/>
		<path class="st1" d="M121.56,665.69l-2.09-2.09c-0.28-0.28-0.59-0.35-0.88-0.06c-0.25,0.25-0.34,0.65-0.32,1.13l2.16,2.16
			l-0.79,0.79l-3.19-3.19l0.67-0.67l0.52,0.38c0.01-0.58,0.12-1.15,0.55-1.58c0.59-0.59,1.28-0.55,1.87,0.05l2.3,2.3L121.56,665.69z
			"/>
		<path class="st1" d="M125.24,662.02l-0.51-0.38c0.05,0.5-0.03,1.04-0.47,1.49c-0.67,0.67-1.7,0.71-2.78-0.37
			c-1.19-1.19-1.07-2.37-0.32-3.12c0.3-0.3,0.6-0.5,0.86-0.62l-1.54-1.54l0.67-0.92l4.78,4.78L125.24,662.02z M122.68,659.67
			c-0.29,0.11-0.49,0.21-0.76,0.48c-0.42,0.42-0.38,1.06,0.32,1.76c0.62,0.62,1.18,0.65,1.53,0.3c0.29-0.29,0.34-0.69,0.29-1.16
			L122.68,659.67z"/>
	</g>
	<g>
		<path class="st1" d="M223.7,692.86l-1.98-1.98l-1.94,1.94l1.98,1.98l-0.88,0.88l-4.56-4.56l0.88-0.88l1.8,1.8l1.94-1.94l-1.8-1.8
			l0.88-0.88l4.56,4.56L223.7,692.86z"/>
		<path class="st1" d="M227.32,689.23l-0.48-0.35c0.01,0.53-0.11,1.07-0.58,1.55c-0.54,0.54-1.24,0.58-1.79,0.02
			c-0.77-0.77-0.48-1.75,0.69-3.16l-0.09-0.09c-0.34-0.34-0.67-0.28-1.03,0.07c-0.37,0.37-0.62,0.83-0.81,1.32l-0.73-0.54
			c0.22-0.52,0.5-1.02,1.01-1.53c0.83-0.83,1.54-0.93,2.31-0.17l2.19,2.19L227.32,689.23z M225.62,687.75
			c-0.81,1.03-0.75,1.52-0.45,1.83c0.23,0.23,0.52,0.22,0.76-0.02c0.27-0.27,0.4-0.66,0.4-1.09L225.62,687.75z"/>
		<path class="st1" d="M232.03,684.52l-0.71,0.71l-2.72-1.51l1.52,2.71l-0.71,0.71l-4.09-2.18l0.69-0.9l2.7,1.56l-1.5-2.66l0.7-0.7
			l2.66,1.51l-1.53-2.64l0.75-0.75L232.03,684.52z"/>
		<path class="st1" d="M235.53,681.12l-2.79-0.46l1.58,1.58l-0.79,0.79l-4.65-4.65l0.67-0.92l2.9,2.9l-0.28-2.37l0.89-0.89
			l0.25,2.61l2.94,0.44L235.53,681.12z"/>
		<path class="st1" d="M238.09,678.59c-0.89,0.89-2.07,1.05-3.22-0.1c-1.04-1.04-1.05-2.29-0.21-3.12c0.96-0.96,2.11-0.67,3.02,0.24
			c0.07,0.07,0.14,0.15,0.19,0.2l-2.06,2.06c0.67,0.59,1.27,0.52,1.76,0.03c0.41-0.41,0.59-0.9,0.7-1.49l0.72,0.53
			C238.87,677.51,238.61,678.08,238.09,678.59z M235.32,677.36l1.28-1.28c-0.55-0.44-1.03-0.52-1.41-0.14
			C234.87,676.26,234.86,676.78,235.32,677.36z"/>
		<path class="st1" d="M237.57,673.48l-0.58,0.36l-1.53-1.87l0.91-0.91L237.57,673.48z"/>
		<path class="st1" d="M242.45,674.22c-0.46,0.46-1.08,0.79-1.55,0.93l-0.56-0.77c0.57-0.12,1.14-0.39,1.54-0.79
			c0.34-0.34,0.4-0.65,0.2-0.86c-0.22-0.22-0.46-0.18-1.09,0.21c-0.97,0.57-1.52,0.67-2.1,0.09c-0.55-0.55-0.5-1.38,0.24-2.12
			c0.42-0.42,0.88-0.72,1.34-0.89l0.56,0.77c-0.5,0.14-0.99,0.4-1.3,0.72c-0.3,0.3-0.33,0.56-0.15,0.73
			c0.17,0.17,0.38,0.15,0.99-0.21c1.04-0.62,1.59-0.71,2.19-0.11C243.37,672.56,243.29,673.38,242.45,674.22z"/>
		<path class="st1" d="M247.12,669.43l-1.31,1.31l-4.56-4.56l1.33-1.33c1.03-1.02,1.98-1.05,2.7-0.33c0.48,0.48,0.52,1.05,0.29,1.61
			c0.67-0.35,1.34-0.36,1.94,0.25C248.41,667.28,248.19,668.36,247.12,669.43z M243.2,665.56l-0.44,0.44l1.21,1.21l0.4-0.4
			c0.52-0.52,0.55-1.02,0.16-1.41C244.17,665.04,243.73,665.03,243.2,665.56z M245.04,667.38l-0.46,0.46l1.4,1.4l0.47-0.47
			c0.56-0.56,0.65-1.11,0.19-1.57C246.18,666.74,245.62,666.8,245.04,667.38z"/>
		<path class="st1" d="M251.35,665.2l-0.48-0.35c0.01,0.53-0.11,1.07-0.58,1.55c-0.54,0.54-1.24,0.58-1.79,0.02
			c-0.77-0.77-0.48-1.75,0.69-3.16l-0.09-0.09c-0.34-0.34-0.67-0.28-1.03,0.07c-0.37,0.37-0.62,0.83-0.81,1.32l-0.73-0.54
			c0.22-0.52,0.5-1.02,1.01-1.53c0.83-0.83,1.54-0.93,2.31-0.17l2.19,2.19L251.35,665.2z M249.65,663.72
			c-0.81,1.03-0.75,1.52-0.45,1.83c0.23,0.23,0.52,0.22,0.76-0.02c0.27-0.27,0.4-0.66,0.4-1.09L249.65,663.72z"/>
		<path class="st1" d="M254.5,662.39c0.5,1.07,0.38,1.68-0.23,2.29c-0.14,0.14-0.23,0.21-0.32,0.26l-0.76-0.55
			c0.13-0.08,0.27-0.17,0.42-0.32c0.23-0.23,0.31-0.52,0.18-0.85l-0.14-0.28l-4.31-1.99l0.72-0.93l3.02,1.53l-1.51-2.94l0.79-0.79
			L254.5,662.39z"/>
	</g>
	<g>
		<path class="st1" d="M335.78,705.99l-5.29-0.99l3.14,3.14l-0.81,0.81l-4.56-4.56l0.83-0.83l5.04,0.94l-2.99-2.99l0.81-0.81
			l4.56,4.56L335.78,705.99z"/>
		<path class="st1" d="M338.86,703.04c-0.89,0.89-2.07,1.05-3.22-0.1c-1.04-1.04-1.04-2.29-0.21-3.12c0.96-0.96,2.11-0.67,3.01,0.24
			c0.07,0.07,0.14,0.15,0.19,0.2l-2.06,2.06c0.67,0.59,1.27,0.52,1.76,0.03c0.41-0.41,0.59-0.9,0.7-1.5l0.71,0.53
			C339.64,701.96,339.38,702.53,338.86,703.04z M336.09,701.81l1.28-1.28c-0.55-0.44-1.03-0.52-1.41-0.14
			C335.64,700.71,335.63,701.23,336.09,701.81z"/>
		<path class="st1" d="M340.75,701.02l-4.65-4.65l0.67-0.92l4.77,4.78L340.75,701.02z"/>
		<path class="st1" d="M343.53,698.36c-0.46,0.46-1.09,0.79-1.55,0.93l-0.55-0.77c0.57-0.12,1.14-0.39,1.54-0.79
			c0.34-0.34,0.4-0.66,0.2-0.86c-0.22-0.22-0.46-0.18-1.09,0.21c-0.97,0.57-1.52,0.67-2.1,0.09c-0.55-0.55-0.5-1.38,0.24-2.12
			c0.42-0.42,0.88-0.72,1.34-0.89l0.56,0.77c-0.5,0.14-0.99,0.4-1.3,0.72c-0.3,0.3-0.33,0.55-0.15,0.73
			c0.17,0.17,0.38,0.14,0.98-0.21c1.04-0.62,1.59-0.71,2.19-0.11C344.45,696.7,344.37,697.52,343.53,698.36z"/>
		<path class="st1" d="M346.78,695.12c-0.87,0.87-2.12,0.87-3.15-0.17c-1.04-1.04-1.03-2.3-0.17-3.17c0.87-0.87,2.14-0.88,3.18,0.16
			C347.68,692.98,347.66,694.25,346.78,695.12z M344.11,692.45c-0.47,0.47-0.3,1.14,0.29,1.73c0.58,0.58,1.27,0.75,1.73,0.29
			c0.49-0.49,0.32-1.16-0.27-1.75C345.27,692.13,344.59,691.97,344.11,692.45z"/>
		<path class="st1" d="M350.81,690.96l-2.09-2.09c-0.28-0.28-0.59-0.35-0.88-0.06c-0.25,0.25-0.34,0.65-0.32,1.13l2.16,2.16
			l-0.79,0.79l-3.19-3.19l0.67-0.67l0.52,0.38c0.01-0.58,0.12-1.15,0.55-1.58c0.6-0.6,1.28-0.55,1.87,0.05l2.3,2.3L350.81,690.96z"
			/>
		<path class="st1" d="M353.27,690.18l-0.83,0.54l-2.33-8.3l0.83-0.54L353.27,690.18z"/>
		<path class="st1" d="M354.16,680.01l3.8,3.8l-0.87,0.87l-3.8-3.8l-1.38,1.38l-0.76-0.76l3.54-3.54l0.89,0.63L354.16,680.01z"/>
		<path class="st1" d="M361.01,680.76l-0.48-0.35c0.01,0.53-0.11,1.07-0.58,1.55c-0.54,0.54-1.24,0.58-1.79,0.02
			c-0.77-0.77-0.48-1.75,0.69-3.16l-0.09-0.09c-0.34-0.34-0.68-0.28-1.03,0.07c-0.37,0.37-0.61,0.83-0.81,1.32l-0.73-0.54
			c0.22-0.52,0.5-1.02,1.01-1.53c0.83-0.83,1.54-0.93,2.31-0.16l2.19,2.19L361.01,680.76z M359.31,679.28
			c-0.81,1.03-0.75,1.52-0.45,1.83c0.23,0.23,0.52,0.22,0.76-0.02c0.27-0.27,0.4-0.65,0.4-1.09L359.31,679.28z"/>
		<path class="st1" d="M363.62,678.27c-0.46,0.46-1.09,0.79-1.55,0.93l-0.55-0.77c0.57-0.12,1.14-0.39,1.54-0.79
			c0.34-0.34,0.4-0.66,0.2-0.86c-0.22-0.22-0.46-0.18-1.09,0.21c-0.97,0.57-1.52,0.67-2.1,0.09c-0.55-0.55-0.5-1.38,0.24-2.12
			c0.42-0.42,0.88-0.72,1.34-0.89l0.56,0.77c-0.5,0.14-0.99,0.4-1.3,0.72c-0.3,0.3-0.33,0.55-0.15,0.73
			c0.17,0.17,0.38,0.14,0.98-0.21c1.04-0.62,1.59-0.71,2.19-0.11C364.54,676.61,364.46,677.43,363.62,678.27z"/>
		<path class="st1" d="M369.27,672.5l-2.09-2.09c-0.28-0.28-0.57-0.37-0.86-0.08c-0.24,0.24-0.32,0.63-0.31,1.1l2.16,2.16
			l-0.79,0.79l-2.09-2.09c-0.28-0.28-0.58-0.36-0.87-0.07c-0.25,0.25-0.32,0.63-0.31,1.1l2.16,2.16l-0.79,0.79l-3.19-3.2l0.67-0.67
			l0.52,0.38c0.01-0.58,0.11-1.14,0.54-1.57c0.46-0.46,0.91-0.5,1.34-0.3c0-0.57,0.12-1.15,0.55-1.58c0.6-0.6,1.26-0.54,1.86,0.06
			l2.3,2.3L369.27,672.5z"/>
		<path class="st1" d="M372.72,669.05l-0.48-0.35c0.01,0.53-0.11,1.07-0.58,1.55c-0.54,0.54-1.24,0.57-1.79,0.02
			c-0.77-0.77-0.48-1.75,0.69-3.16l-0.09-0.09c-0.34-0.34-0.67-0.28-1.03,0.07c-0.37,0.37-0.61,0.83-0.81,1.32l-0.73-0.54
			c0.23-0.52,0.5-1.02,1.01-1.53c0.83-0.83,1.54-0.93,2.31-0.17l2.19,2.19L372.72,669.05z M371.01,667.57
			c-0.81,1.03-0.76,1.52-0.45,1.83c0.23,0.23,0.52,0.22,0.76-0.02c0.27-0.27,0.4-0.66,0.4-1.09L371.01,667.57z"/>
		<path class="st1" d="M376.12,665.65l-2.09-2.09c-0.28-0.28-0.59-0.35-0.88-0.06c-0.25,0.25-0.34,0.65-0.32,1.13l2.16,2.16
			l-0.79,0.79l-3.2-3.19l0.67-0.67l0.52,0.38c0.01-0.58,0.12-1.15,0.55-1.58c0.6-0.6,1.28-0.55,1.87,0.05l2.3,2.3L376.12,665.65z"/>
		<path class="st1" d="M378.58,664.87l-0.83,0.54l-2.33-8.3l0.83-0.54L378.58,664.87z"/>
	</g>
	<text transform="matrix(0.7071 -0.7071 0.7071 0.7071 380.8359 660.9346)" class="st1 st5 st6"> </text>
	<g>
		<path class="st1" d="M355.45,699.56l-3.58-3.09l2.19,4.5l-0.77,0.77l-4.5-2.19l3.1,3.56l-0.79,0.79l-4.21-4.91l1.11-1.11l4.6,2.29
			l-2.29-4.6l1.09-1.09l4.91,4.21L355.45,699.56z"/>
		<path class="st1" d="M358.94,696.07l-0.48-0.35c0.01,0.53-0.11,1.07-0.58,1.55c-0.54,0.54-1.24,0.58-1.79,0.02
			c-0.77-0.77-0.48-1.74,0.69-3.16l-0.09-0.09c-0.34-0.34-0.67-0.28-1.03,0.07c-0.37,0.37-0.62,0.83-0.81,1.32l-0.73-0.54
			c0.23-0.52,0.5-1.02,1.01-1.53c0.83-0.83,1.54-0.93,2.31-0.17l2.19,2.19L358.94,696.07z M357.24,694.59
			c-0.81,1.03-0.75,1.52-0.45,1.83c0.23,0.23,0.52,0.22,0.76-0.02c0.27-0.27,0.4-0.65,0.4-1.09L357.24,694.59z"/>
		<path class="st1" d="M359.37,691.97l1.83,1.83l-0.79,0.79l-3.19-3.19l0.67-0.67l0.74,0.54c-0.16-0.58-0.15-1.21,0.32-1.73
			l0.91,0.66C359.4,690.73,359.25,691.4,359.37,691.97z"/>
		<path class="st1" d="M362.88,692.13l-4.65-4.65l0.67-0.92l4.77,4.77L362.88,692.13z"/>
		<path class="st1" d="M365.86,689.23c-0.5,0.5-0.99,0.83-1.52,1.1l-4.48-4.48l0.67-0.92l1.94,1.94c-0.01-0.42,0.08-0.93,0.48-1.33
			c0.67-0.67,1.71-0.7,2.78,0.37C366.9,687.09,366.81,688.28,365.86,689.23z M363.44,686.44c-0.26,0.26-0.32,0.68-0.28,1.12
			l1.45,1.45c0.23-0.11,0.36-0.19,0.59-0.42c0.5-0.5,0.5-1.11-0.22-1.84C364.36,686.14,363.8,686.09,363.44,686.44z"/>
		<path class="st1" d="M369.46,685.68c-0.87,0.87-2.12,0.87-3.15-0.17c-1.04-1.04-1.03-2.3-0.17-3.17c0.87-0.87,2.14-0.88,3.17,0.16
			C370.35,683.55,370.33,684.81,369.46,685.68z M366.79,683.01c-0.47,0.47-0.3,1.14,0.29,1.73c0.58,0.58,1.27,0.75,1.73,0.29
			c0.49-0.49,0.32-1.16-0.27-1.75C367.95,682.69,367.26,682.53,366.79,683.01z"/>
		<path class="st1" d="M370.51,680.83l1.83,1.83l-0.79,0.79l-3.19-3.19l0.67-0.67l0.74,0.54c-0.16-0.58-0.15-1.21,0.32-1.73
			l0.91,0.66C370.54,679.59,370.39,680.26,370.51,680.83z"/>
		<path class="st1" d="M375.3,679.85c-0.87,0.87-2.12,0.87-3.16-0.17c-1.04-1.04-1.03-2.3-0.17-3.17c0.87-0.87,2.14-0.88,3.17,0.16
			C376.19,677.71,376.17,678.97,375.3,679.85z M372.62,677.17c-0.47,0.47-0.3,1.14,0.29,1.73c0.58,0.58,1.27,0.75,1.73,0.29
			c0.49-0.49,0.32-1.16-0.27-1.75C373.79,676.85,373.1,676.7,372.62,677.17z"/>
		<path class="st1" d="M379.43,675.58l-0.52-0.38c-0.01,0.58-0.13,1.16-0.55,1.58c-0.6,0.6-1.28,0.55-1.88-0.05l-2.29-2.29
			l0.79-0.79l2.09,2.09c0.28,0.28,0.58,0.34,0.87,0.06c0.25-0.25,0.34-0.66,0.34-1.13l-2.16-2.16l0.79-0.79l3.19,3.19L379.43,675.58
			z"/>
		<path class="st1" d="M383.3,674.12c-0.87,0.87-1.79,1.26-2.31,0.73c-0.3-0.3-0.32-0.73-0.15-1.35c-0.22,0.03-0.4-0.03-0.54-0.17
			c-0.18-0.18-0.21-0.49-0.1-0.91c-0.55,0.2-1.12,0.09-1.54-0.34c-0.69-0.7-0.56-1.7,0.15-2.42c0.36-0.36,0.78-0.57,1.2-0.61
			l0.5-1.06l0.74,0.53l-0.54,0.62c0.18,0.07,0.36,0.18,0.5,0.33c0.69,0.69,0.51,1.69-0.18,2.37c-0.09,0.09-0.18,0.19-0.28,0.25
			c-0.03,0.13-0.01,0.24,0.04,0.29c0.11,0.11,0.23,0.03,0.8-0.39l0.45-0.37c0.75-0.56,1.36-0.77,1.85-0.28
			C384.59,672.06,384.22,673.19,383.3,674.12z M379.33,670.18c-0.35,0.35-0.28,0.83,0.07,1.18c0.33,0.33,0.79,0.37,1.14,0.03
			c0.35-0.35,0.3-0.82-0.04-1.16S379.67,669.84,379.33,670.18z M381.45,673.26c-0.07,0.39-0.03,0.65,0.14,0.81
			c0.24,0.24,0.7,0.13,1.3-0.48c0.57-0.57,0.7-1.09,0.46-1.32c-0.17-0.17-0.41-0.13-0.87,0.2l-0.48,0.38
			C381.75,673.05,381.63,673.14,381.45,673.26z"/>
		<path class="st1" d="M386.28,668.73l-2.09-2.09c-0.28-0.28-0.59-0.35-0.88-0.06c-0.25,0.25-0.34,0.65-0.32,1.13l2.16,2.16
			l-0.79,0.79l-4.65-4.65l0.67-0.92l1.98,1.98c0.02-0.51,0.13-1.06,0.55-1.49c0.59-0.6,1.28-0.55,1.87,0.05l2.3,2.3L386.28,668.73z"
			/>
	</g>
	<g>
		<path class="st1" d="M156.79,695.66l-1.31,1.31l-4.56-4.56l1.33-1.33c1.02-1.03,1.98-1.05,2.7-0.33c0.48,0.47,0.52,1.05,0.29,1.61
			c0.67-0.35,1.34-0.36,1.95,0.25C158.08,693.51,157.86,694.58,156.79,695.66z M152.87,691.79l-0.44,0.44l1.21,1.21l0.4-0.4
			c0.52-0.52,0.56-1.02,0.17-1.41C153.84,691.26,153.4,691.26,152.87,691.79z M154.71,693.6l-0.46,0.46l1.4,1.4l0.47-0.47
			c0.56-0.55,0.65-1.11,0.19-1.57C155.85,692.96,155.29,693.02,154.71,693.6z"/>
		<path class="st1" d="M161.02,691.42l-0.48-0.35c0.01,0.53-0.11,1.07-0.58,1.55c-0.54,0.54-1.24,0.58-1.79,0.02
			c-0.77-0.77-0.48-1.75,0.69-3.16l-0.09-0.09c-0.34-0.34-0.67-0.28-1.03,0.07c-0.37,0.37-0.61,0.83-0.81,1.32l-0.73-0.54
			c0.23-0.52,0.5-1.02,1.01-1.53c0.83-0.83,1.54-0.93,2.31-0.16l2.19,2.19L161.02,691.42z M159.32,689.94
			c-0.81,1.03-0.75,1.52-0.45,1.83c0.23,0.23,0.52,0.22,0.76-0.02c0.27-0.27,0.4-0.65,0.4-1.09L159.32,689.94z"/>
		<path class="st1" d="M164.17,688.61c0.5,1.07,0.38,1.68-0.23,2.29c-0.14,0.14-0.23,0.21-0.32,0.26l-0.76-0.55
			c0.13-0.08,0.27-0.17,0.42-0.32c0.23-0.23,0.31-0.52,0.18-0.85l-0.14-0.29l-4.3-1.99l0.72-0.93l3.02,1.53l-1.51-2.94l0.79-0.79
			L164.17,688.61z"/>
		<path class="st1" d="M168.53,684.05c-0.87,0.87-2.12,0.87-3.16-0.17c-1.04-1.04-1.03-2.3-0.17-3.17c0.87-0.87,2.14-0.88,3.18,0.16
			C169.42,681.91,169.4,683.17,168.53,684.05z M165.86,681.37c-0.47,0.47-0.3,1.14,0.29,1.73c0.58,0.58,1.27,0.75,1.73,0.29
			c0.49-0.49,0.32-1.16-0.27-1.75C167.02,681.06,166.33,680.9,165.86,681.37z"/>
		<path class="st1" d="M167.94,676.37c-0.27,0.27-0.3,0.54-0.01,0.82l0.47,0.47l0.61-0.61l0.75,0.55l-0.71,0.71l2.55,2.55
			l-0.79,0.79l-2.55-2.55l-0.46,0.46l-0.65-0.65l0.46-0.46l-0.55-0.55c-0.71-0.71-0.52-1.42,0.13-2.08c0.12-0.12,0.24-0.22,0.35-0.3
			l0.75,0.54C168.21,676.13,168.08,676.23,167.94,676.37z"/>
		<path class="st1" d="M173.86,675.23l-0.39,0.39l1.68,1.68l-0.87,0.87l-4.56-4.56l1.34-1.34c1.05-1.04,2.16-1.19,3.08-0.27
			C175.11,672.98,174.9,674.18,173.86,675.23z M171.7,673.02l-0.42,0.42l1.48,1.47l0.38-0.38c0.56-0.56,0.66-1.13,0.14-1.65
			C172.81,672.4,172.26,672.45,171.7,673.02z"/>
		<path class="st1" d="M177.9,674.54l-4.65-4.65l0.67-0.92l4.77,4.77L177.9,674.54z"/>
		<path class="st1" d="M181,671.58c-0.89,0.89-2.07,1.05-3.22-0.1c-1.04-1.04-1.04-2.29-0.21-3.12c0.96-0.96,2.11-0.67,3.02,0.24
			c0.07,0.07,0.14,0.15,0.19,0.2l-2.06,2.06c0.67,0.59,1.27,0.52,1.76,0.03c0.41-0.41,0.59-0.9,0.7-1.49l0.71,0.53
			C181.78,670.49,181.52,671.06,181,671.58z M178.23,670.34l1.28-1.28c-0.55-0.44-1.03-0.52-1.41-0.14
			C177.78,669.24,177.77,669.77,178.23,670.34z"/>
		<path class="st1" d="M184.79,667.65l-2.09-2.09c-0.28-0.28-0.59-0.35-0.88-0.06c-0.25,0.25-0.34,0.65-0.32,1.13l2.16,2.16
			l-0.79,0.79l-3.19-3.2l0.67-0.67l0.52,0.38c0.01-0.58,0.12-1.15,0.55-1.58c0.6-0.59,1.28-0.55,1.87,0.05l2.3,2.3L184.79,667.65z"
			/>
		<path class="st1" d="M187.65,664.9c-0.63,0.63-1.28,0.82-2.01,0.09l-1.64-1.64l-0.45,0.45l-0.65-0.65l0.45-0.45l-1.01-1.01
			l0.66-0.9l1.13,1.13l0.66-0.65l0.75,0.55l-0.75,0.75l1.51,1.51c0.26,0.26,0.52,0.28,0.82-0.03c0.09-0.09,0.17-0.19,0.23-0.28
			l0.77,0.57C188,664.5,187.88,664.67,187.65,664.9z"/>
		<path class="st1" d="M190.38,662.4c0.5,1.07,0.38,1.68-0.23,2.3c-0.14,0.14-0.23,0.21-0.32,0.26l-0.76-0.55
			c0.13-0.08,0.27-0.17,0.42-0.32c0.23-0.23,0.31-0.52,0.18-0.85l-0.14-0.29l-4.3-1.99l0.72-0.93l3.02,1.53l-1.51-2.94l0.79-0.79
			L190.38,662.4z"/>
	</g>
	<g>
		<path class="st1" d="M293.97,678.67l3.8,3.8l-0.87,0.87l-3.8-3.8l-1.38,1.38l-0.76-0.76l3.54-3.55l0.89,0.64L293.97,678.67z"/>
		<path class="st1" d="M300.83,679.42l-0.48-0.35c0.01,0.53-0.11,1.07-0.58,1.55c-0.54,0.54-1.24,0.58-1.79,0.02
			c-0.77-0.77-0.48-1.75,0.69-3.16l-0.09-0.09c-0.34-0.34-0.67-0.28-1.03,0.07c-0.37,0.37-0.62,0.83-0.81,1.32l-0.73-0.54
			c0.23-0.52,0.5-1.02,1.01-1.53c0.83-0.83,1.54-0.93,2.31-0.17l2.19,2.19L300.83,679.42z M299.12,677.94
			c-0.81,1.03-0.75,1.52-0.45,1.83c0.23,0.23,0.52,0.22,0.76-0.02c0.27-0.27,0.4-0.65,0.4-1.09L299.12,677.94z"/>
		<path class="st1" d="M301.26,675.32l1.83,1.83l-0.79,0.79l-3.2-3.2l0.68-0.67l0.74,0.54c-0.16-0.58-0.15-1.21,0.32-1.73l0.91,0.66
			C301.29,674.08,301.14,674.76,301.26,675.32z"/>
		<path class="st1" d="M306.47,673.77l-0.48-0.35c0.01,0.53-0.11,1.07-0.58,1.55c-0.54,0.54-1.24,0.58-1.79,0.02
			c-0.77-0.77-0.48-1.75,0.69-3.16l-0.09-0.09c-0.34-0.34-0.67-0.28-1.03,0.07c-0.37,0.37-0.61,0.83-0.81,1.32l-0.73-0.54
			c0.22-0.52,0.5-1.02,1.01-1.53c0.83-0.83,1.54-0.93,2.31-0.17l2.19,2.19L306.47,673.77z M304.77,672.29
			c-0.81,1.03-0.75,1.52-0.45,1.83c0.23,0.23,0.52,0.22,0.76-0.02c0.27-0.27,0.4-0.66,0.4-1.09L304.77,672.29z"/>
		<path class="st1" d="M309.87,670.37l-2.09-2.09c-0.28-0.28-0.59-0.35-0.88-0.06c-0.25,0.25-0.34,0.65-0.32,1.13l2.16,2.16
			l-0.79,0.79l-3.19-3.19l0.67-0.67l0.52,0.38c0.01-0.58,0.12-1.15,0.55-1.58c0.6-0.59,1.28-0.55,1.87,0.05l2.3,2.3L309.87,670.37z"
			/>
		<path class="st1" d="M313.32,666.92l-0.48-0.35c0.01,0.53-0.11,1.07-0.58,1.55c-0.54,0.54-1.24,0.57-1.79,0.02
			c-0.77-0.77-0.48-1.75,0.69-3.16l-0.09-0.09c-0.34-0.34-0.68-0.28-1.03,0.07c-0.37,0.37-0.62,0.83-0.81,1.32l-0.73-0.54
			c0.22-0.52,0.5-1.02,1.01-1.53c0.83-0.83,1.54-0.93,2.31-0.17l2.19,2.19L313.32,666.92z M311.62,665.44
			c-0.81,1.03-0.75,1.52-0.45,1.83c0.23,0.23,0.52,0.22,0.76-0.02c0.27-0.27,0.4-0.66,0.4-1.09L311.62,665.44z"/>
		<path class="st1" d="M316.8,663.54l-2.79-0.46l1.58,1.58l-0.79,0.79l-4.65-4.65l0.67-0.92l2.9,2.9l-0.28-2.37l0.89-0.89l0.25,2.61
			l2.94,0.44L316.8,663.54z"/>
		<path class="st1" d="M314.76,658.02c-0.26,0.26-0.66,0.29-0.93,0.03c-0.27-0.27-0.25-0.67,0.01-0.94
			c0.26-0.26,0.66-0.28,0.93-0.01C315.05,657.37,315.02,657.77,314.76,658.02z M318.09,662.16l-3.19-3.19l0.79-0.79l3.2,3.2
			L318.09,662.16z"/>
	</g>
	<g>
		<path class="st1" d="M422.59,688.19l-0.83,0.83l-4.33-2.31l2.31,4.33l-0.83,0.83l-5.72-3.17l0.75-1.08l4.13,2.41l-2.27-4.17
			l0.88-0.88l4.17,2.27l-2.39-4.05l0.88-0.88L422.59,688.19z"/>
		<path class="st1" d="M425.54,685.37c-0.89,0.89-2.07,1.05-3.22-0.1c-1.04-1.04-1.04-2.29-0.21-3.12c0.96-0.96,2.11-0.67,3.02,0.24
			c0.07,0.07,0.14,0.15,0.19,0.2l-2.06,2.06c0.67,0.59,1.27,0.52,1.76,0.03c0.41-0.41,0.59-0.9,0.7-1.49l0.71,0.53
			C426.32,684.28,426.06,684.85,425.54,685.37z M422.77,684.13l1.28-1.28c-0.55-0.44-1.03-0.52-1.41-0.14
			C422.32,683.04,422.31,683.56,422.77,684.13z"/>
		<path class="st1" d="M428.54,682.36c-0.46,0.46-1.08,0.79-1.55,0.93l-0.56-0.77c0.57-0.12,1.14-0.39,1.54-0.79
			c0.34-0.34,0.4-0.66,0.2-0.86c-0.22-0.22-0.46-0.18-1.09,0.21c-0.97,0.57-1.52,0.67-2.1,0.09c-0.55-0.55-0.5-1.38,0.24-2.12
			c0.42-0.42,0.88-0.72,1.34-0.89l0.56,0.77c-0.5,0.14-0.99,0.4-1.3,0.72c-0.3,0.3-0.33,0.55-0.15,0.73
			c0.17,0.17,0.38,0.15,0.99-0.21c1.04-0.62,1.59-0.71,2.19-0.11C429.46,680.7,429.38,681.52,428.54,682.36z"/>
		<path class="st1" d="M431.67,679.22c-0.63,0.63-1.28,0.82-2.01,0.09l-1.64-1.64l-0.45,0.45l-0.65-0.65l0.45-0.45l-1.01-1.01
			l0.66-0.9l1.13,1.13l0.65-0.65l0.75,0.55l-0.75,0.75l1.51,1.51c0.26,0.26,0.52,0.28,0.82-0.03c0.09-0.09,0.17-0.19,0.22-0.28
			l0.77,0.57C432.01,678.82,431.9,678.99,431.67,679.22z"/>
		<path class="st1" d="M436.27,674.67c-1.33,1.33-3.1,1.22-4.52-0.19s-1.5-3.23-0.21-4.52c0.53-0.53,1.07-0.81,1.61-0.95l0.7,0.95
			c-0.52,0.07-1.07,0.26-1.51,0.71c-0.81,0.81-0.69,1.92,0.3,2.91c1,1,2.13,1.07,2.94,0.26c0.42-0.42,0.66-0.96,0.77-1.54l0.87,0.64
			C437.09,673.53,436.79,674.15,436.27,674.67z"/>
		<path class="st1" d="M439.54,671.37c-0.87,0.87-2.12,0.87-3.15-0.17c-1.04-1.04-1.03-2.3-0.17-3.17c0.87-0.87,2.14-0.88,3.18,0.16
			C440.43,669.24,440.41,670.5,439.54,671.37z M436.87,668.7c-0.47,0.47-0.3,1.14,0.29,1.73c0.58,0.58,1.27,0.75,1.73,0.29
			c0.49-0.49,0.32-1.16-0.27-1.75C438.03,668.38,437.34,668.22,436.87,668.7z"/>
		<path class="st1" d="M443.49,667.29l-0.48-0.35c0.01,0.53-0.11,1.07-0.58,1.55c-0.54,0.54-1.24,0.58-1.79,0.02
			c-0.77-0.77-0.48-1.75,0.69-3.16l-0.09-0.09c-0.34-0.34-0.67-0.28-1.03,0.07c-0.37,0.37-0.62,0.83-0.81,1.32l-0.73-0.54
			c0.23-0.52,0.5-1.02,1.01-1.53c0.83-0.83,1.54-0.93,2.31-0.17l2.19,2.19L443.49,667.29z M441.79,665.81
			c-0.81,1.03-0.75,1.52-0.45,1.83c0.23,0.23,0.52,0.22,0.76-0.02c0.27-0.27,0.4-0.65,0.4-1.09L441.79,665.81z"/>
		<path class="st1" d="M446.1,664.8c-0.46,0.46-1.08,0.79-1.55,0.93l-0.56-0.77c0.57-0.12,1.14-0.39,1.54-0.79
			c0.34-0.34,0.4-0.66,0.2-0.86c-0.22-0.22-0.46-0.18-1.09,0.21c-0.97,0.57-1.52,0.67-2.1,0.09c-0.55-0.55-0.5-1.38,0.24-2.12
			c0.42-0.42,0.88-0.72,1.34-0.89l0.56,0.77c-0.5,0.14-0.99,0.4-1.3,0.72c-0.3,0.3-0.33,0.55-0.15,0.73
			c0.17,0.17,0.38,0.14,0.99-0.21c1.04-0.62,1.59-0.71,2.19-0.11C447.02,663.14,446.94,663.96,446.1,664.8z"/>
		<path class="st1" d="M449.22,661.67c-0.63,0.63-1.28,0.82-2.01,0.09l-1.64-1.64l-0.45,0.45l-0.65-0.65l0.45-0.45l-1.01-1.01
			l0.66-0.9l1.13,1.13l0.65-0.66l0.75,0.55l-0.75,0.75l1.51,1.51c0.26,0.26,0.52,0.28,0.82-0.03c0.09-0.09,0.17-0.19,0.23-0.28
			l0.77,0.57C449.57,661.27,449.45,661.44,449.22,661.67z"/>
	</g>
	<g>
		<path class="st1" d="M486.55,687.73c-0.56,0.56-1.16,0.91-1.75,1.12l-0.67-0.93c0.61-0.16,1.26-0.46,1.72-0.91
			c0.4-0.4,0.49-0.87,0.13-1.24c-0.34-0.34-0.64-0.32-1.58,0.06c-1.25,0.52-1.9,0.59-2.61-0.12c-0.81-0.81-0.65-1.9,0.2-2.75
			c0.52-0.52,0.98-0.77,1.48-0.93l0.66,0.93c-0.55,0.11-1.08,0.36-1.43,0.72c-0.44,0.44-0.42,0.84-0.14,1.12
			c0.29,0.29,0.57,0.29,1.47-0.09c1.32-0.55,1.99-0.57,2.7,0.13C487.62,685.74,487.43,686.85,486.55,687.73z"/>
		<path class="st1" d="M490.09,684.21c-0.87,0.87-2.12,0.87-3.15-0.17c-1.04-1.04-1.03-2.3-0.17-3.17c0.87-0.87,2.14-0.88,3.17,0.16
			C490.99,682.08,490.97,683.34,490.09,684.21z M487.42,681.54c-0.47,0.47-0.3,1.14,0.29,1.73c0.58,0.58,1.27,0.75,1.73,0.29
			c0.49-0.49,0.32-1.16-0.27-1.75C488.59,681.22,487.9,681.06,487.42,681.54z"/>
		<path class="st1" d="M494.22,679.95l-0.52-0.38c-0.01,0.58-0.13,1.16-0.55,1.58c-0.6,0.6-1.28,0.55-1.88-0.05l-2.29-2.29
			l0.79-0.79l2.09,2.09c0.28,0.28,0.58,0.34,0.87,0.06c0.25-0.25,0.34-0.66,0.34-1.13l-2.16-2.16l0.79-0.79l3.2,3.2L494.22,679.95z"
			/>
		<path class="st1" d="M496.98,677.3c-0.63,0.63-1.28,0.82-2.01,0.09l-1.64-1.64l-0.45,0.45l-0.65-0.65l0.45-0.45l-1.01-1.01
			l0.66-0.9l1.13,1.13l0.65-0.65l0.75,0.55l-0.75,0.75l1.51,1.51c0.26,0.26,0.52,0.28,0.82-0.03c0.09-0.09,0.17-0.19,0.22-0.28
			l0.77,0.57C497.33,676.9,497.21,677.07,496.98,677.3z"/>
		<path class="st1" d="M499.96,674.22l-2.09-2.09c-0.28-0.28-0.59-0.35-0.88-0.06c-0.25,0.25-0.34,0.65-0.32,1.13l2.16,2.16
			l-0.79,0.79l-4.65-4.65l0.67-0.92l1.98,1.98c0.02-0.51,0.13-1.06,0.55-1.49c0.59-0.6,1.28-0.55,1.87,0.05l2.3,2.3L499.96,674.22z"
			/>
		<path class="st1" d="M501.58,672.6l-4.65-4.65l0.67-0.92l4.77,4.77L501.58,672.6z"/>
		<path class="st1" d="M505.07,669.1l-0.48-0.35c0.01,0.53-0.11,1.07-0.58,1.55c-0.54,0.54-1.24,0.58-1.79,0.02
			c-0.77-0.77-0.48-1.75,0.69-3.16l-0.09-0.09c-0.34-0.34-0.67-0.28-1.03,0.07c-0.37,0.37-0.61,0.83-0.81,1.32l-0.73-0.54
			c0.23-0.52,0.5-1.02,1.01-1.53c0.83-0.83,1.54-0.93,2.31-0.16l2.19,2.19L505.07,669.1z M503.37,667.62
			c-0.81,1.03-0.76,1.52-0.45,1.83c0.23,0.23,0.52,0.22,0.76-0.02c0.27-0.27,0.4-0.65,0.4-1.09L503.37,667.62z"/>
		<path class="st1" d="M508.47,665.7l-2.09-2.09c-0.28-0.28-0.59-0.35-0.88-0.06c-0.25,0.25-0.34,0.65-0.32,1.13l2.16,2.16
			l-0.79,0.79l-3.19-3.19l0.67-0.67l0.52,0.38c0.01-0.58,0.12-1.15,0.55-1.58c0.59-0.6,1.28-0.55,1.87,0.05l2.3,2.3L508.47,665.7z"
			/>
		<path class="st1" d="M512.15,662.02l-0.51-0.38c0.05,0.5-0.03,1.05-0.47,1.49c-0.67,0.67-1.7,0.71-2.78-0.37
			c-1.19-1.19-1.06-2.38-0.32-3.12c0.3-0.3,0.6-0.5,0.86-0.62l-1.54-1.54l0.67-0.92l4.78,4.78L512.15,662.02z M509.59,659.68
			c-0.29,0.11-0.49,0.21-0.76,0.48c-0.42,0.42-0.38,1.06,0.32,1.76c0.62,0.62,1.18,0.65,1.53,0.3c0.29-0.29,0.34-0.69,0.29-1.16
			L509.59,659.68z"/>
	</g>
	<g>
		<path class="st0" d="M450,641.14l-4.64,3.05H450v1.79h-7.75v-1.86l4.33-2.85h-4.33v-1.79H450V641.14z"/>
		<path class="st0" d="M450.15,634.66c0,2.22-1.62,3.68-4.01,3.68c-2.4,0-4.03-1.46-4.03-3.71s1.62-3.69,4.01-3.69
			S450.15,632.4,450.15,634.66z M443.61,634.65c0,1.11,0.98,1.78,2.52,1.78c1.54,0,2.52-0.66,2.52-1.78c0-1.12-0.98-1.77-2.52-1.77
			C444.59,632.87,443.61,633.52,443.61,634.65z"/>
		<path class="st0" d="M450,624.74v2.72h-7.75v-2.67c0-2.7,1.56-4.1,3.86-4.1S450,622.12,450,624.74z M443.75,624.84v0.7h4.76v-0.7
			c0-1.37-0.72-2.22-2.38-2.22C444.5,622.62,443.75,623.53,443.75,624.84z"/>
		<path class="st0" d="M442.22,617.65v-2.11l7.55-2.7l0.31,1.93l-1.68,0.57v2.7l1.61,0.52v1.88L442.22,617.65z M446.89,617.59v-1.75
			l-2.7,0.86L446.89,617.59z"/>
		<path class="st0" d="M443.88,609.22H450v1.93h-6.12v2.19h-1.63v-6.13l1.63-0.27V609.22z"/>
		<path class="st0" d="M442.22,604.85v-2.11l7.55-2.7l0.31,1.93l-1.68,0.57v2.7l1.61,0.52v1.88L442.22,604.85z M446.89,604.78v-1.75
			l-2.7,0.86L446.89,604.78z"/>
	</g>
</g>
</svg>
