<?xml version="1.0" encoding="utf-8"?>
<!-- Generator: Adobe Illustrator 24.0.0, SVG Export Plug-In . SVG Version: 6.00 Build 0)  -->
<svg version="1.1" id="Layer_1" xmlns="http://www.w3.org/2000/svg" xmlns:xlink="http://www.w3.org/1999/xlink" x="0px" y="0px"
	 viewBox="0 0 595.28 841.89" style="enable-background:new 0 0 595.28 841.89;" xml:space="preserve">
<style type="text/css">
	.st0{fill:#575756;}
	.st1{fill:#BCBE00;}
	.st2{fill:#EF7918;}
	.st3{fill:#F7C500;}
	.st4{fill:#8AB5E1;}
	.st5{fill:#95806C;}
	.st6{fill:#FFFFFF;}
	.st7{fill:none;stroke:#FFFFFF;stroke-width:0.128;stroke-miterlimit:10;}
</style>
<g>
	<polygon class="st0" points="28.02,392.26 28.02,266.27 91.56,266.27 123.59,311.15 123.59,402.52 35.35,402.52 	"/>
	<polygon class="st1" points="128.27,391.56 128.27,265.32 180.34,265.32 212.09,310.29 212.09,401.84 135.52,401.84 	"/>
	<polygon class="st2" points="216.98,391.56 216.98,265.32 269.05,265.32 300.8,310.29 300.8,401.84 224.23,401.84 	"/>
	<polygon class="st3" points="305.69,391.56 305.69,265.32 357.76,265.32 389.51,310.29 389.51,401.84 312.94,401.84 	"/>
	<polygon class="st4" points="394.4,391.56 394.4,265.32 446.47,265.32 478.22,310.29 478.22,401.84 401.65,401.84 	"/>
	<polygon class="st5" points="483.11,391.56 483.11,265.32 535.18,265.32 566.93,310.29 566.93,401.84 490.37,401.84 	"/>
	<g>
		<path class="st6" d="M227.95,321.93v-3.6l7.06-7.06c1.36-1.39,2.06-2.36,2.06-3.73c0-1.39-0.97-2.18-2.64-2.18
			c-1.82,0-3.67,0.82-5.42,2.09l-0.61-4.3c1.76-1.18,3.91-2.03,6.78-2.03c4.21,0,6.81,2.21,6.81,5.88c0,2.79-1.39,4.6-3.91,6.97
			l-4.09,3.94h7.75l0.64,4.03H227.95z"/>
		<path class="st6" d="M244.42,321.93v-3.6l7.06-7.06c1.36-1.39,2.06-2.36,2.06-3.73c0-1.39-0.97-2.18-2.64-2.18
			c-1.82,0-3.67,0.82-5.42,2.09l-0.61-4.3c1.76-1.18,3.91-2.03,6.78-2.03c4.21,0,6.81,2.21,6.81,5.88c0,2.79-1.39,4.6-3.91,6.97
			l-4.09,3.94h7.75l0.64,4.03H244.42z"/>
	</g>
	<g>
		<path class="st6" d="M263.12,306.93c-1.47,0-2.63-1.09-2.63-3.11s1.17-3.11,2.63-3.11s2.61,1.09,2.61,3.09
			C265.73,305.82,264.57,306.93,263.12,306.93z M263.12,302.02c-0.67,0-1,0.66-1,1.8c0,1.09,0.34,1.78,1,1.78s0.97-0.67,0.97-1.8
			C264.09,302.7,263.76,302.02,263.12,302.02z M262.81,311.18l3.41-5.2l3.34-5.25l1.41,0.31l-3.42,5.23l-3.34,5.23L262.81,311.18z
			 M270.65,311.52c-1.47,0-2.61-1.09-2.61-3.09c0-2.03,1.16-3.13,2.61-3.13c1.47,0,2.63,1.09,2.63,3.11
			C273.27,310.42,272.1,311.52,270.65,311.52z M270.65,306.63c-0.67,0-0.98,0.67-0.98,1.8c0,1.11,0.34,1.78,0.98,1.78
			c0.66,0,0.98-0.67,0.98-1.8C271.63,307.31,271.29,306.63,270.65,306.63z"/>
	</g>
	<g>
		<path class="st6" d="M319.81,321.93v-15.75l-4.09,1.6l-0.58-3.94l5.24-2.42h4.51v20.51H319.81z"/>
		<path class="st6" d="M341.98,317.85v4.09h-4.76v-4.09h-9.48v-3.15l8.63-13.27h5.6v12.99h2.88v3.42H341.98z M337.22,306.31
			l-5.24,8.12h5.24V306.31z"/>
	</g>
	<g>
		<path class="st6" d="M348.65,306.93c-1.47,0-2.63-1.09-2.63-3.11s1.17-3.11,2.63-3.11s2.61,1.09,2.61,3.09
			C351.26,305.82,350.1,306.93,348.65,306.93z M348.65,302.02c-0.67,0-1,0.66-1,1.8c0,1.09,0.34,1.78,1,1.78s0.97-0.67,0.97-1.8
			C349.62,302.7,349.29,302.02,348.65,302.02z M348.34,311.18l3.41-5.2l3.34-5.25l1.41,0.31l-3.42,5.23l-3.34,5.23L348.34,311.18z
			 M356.18,311.52c-1.47,0-2.61-1.09-2.61-3.09c0-2.03,1.16-3.13,2.61-3.13c1.47,0,2.63,1.09,2.63,3.11
			C358.8,310.42,357.63,311.52,356.18,311.52z M356.18,306.63c-0.67,0-0.98,0.67-0.98,1.8c0,1.11,0.34,1.78,0.98,1.78
			c0.66,0,0.98-0.67,0.98-1.8C357.16,307.31,356.82,306.63,356.18,306.63z"/>
	</g>
	<g>
		<path class="st6" d="M403.13,321.93v-3.6l7.06-7.06c1.36-1.39,2.06-2.36,2.06-3.73c0-1.39-0.97-2.18-2.63-2.18
			c-1.82,0-3.67,0.82-5.42,2.09l-0.61-4.3c1.76-1.18,3.91-2.03,6.78-2.03c4.21,0,6.82,2.21,6.82,5.88c0,2.79-1.39,4.6-3.91,6.97
			l-4.09,3.94h7.75l0.64,4.03H403.13z"/>
		<path class="st6" d="M425.99,322.15l-4.82-0.85l7.18-15.63h-8.57l-0.64-4.21h14.42v3.91L425.99,322.15z"/>
	</g>
	<g>
		<path class="st6" d="M437.84,306.93c-1.47,0-2.63-1.09-2.63-3.11s1.17-3.11,2.63-3.11s2.61,1.09,2.61,3.09
			C440.45,305.82,439.29,306.93,437.84,306.93z M437.84,302.02c-0.67,0-1,0.66-1,1.8c0,1.09,0.34,1.78,1,1.78s0.97-0.67,0.97-1.8
			C438.81,302.7,438.48,302.02,437.84,302.02z M437.53,311.18l3.41-5.2l3.34-5.25l1.41,0.31l-3.42,5.23l-3.34,5.23L437.53,311.18z
			 M445.37,311.52c-1.47,0-2.61-1.09-2.61-3.09c0-2.03,1.16-3.13,2.61-3.13c1.47,0,2.63,1.09,2.63,3.11
			C448,310.42,446.83,311.52,445.37,311.52z M445.37,306.63c-0.67,0-0.98,0.67-0.98,1.8c0,1.11,0.34,1.78,0.98,1.78
			c0.66,0,0.98-0.67,0.98-1.8C446.36,307.31,446.01,306.63,445.37,306.63z"/>
	</g>
	<g>
		<path class="st6" d="M492.71,321.93v-3.6l7.06-7.06c1.36-1.39,2.06-2.36,2.06-3.73c0-1.39-0.97-2.18-2.63-2.18
			c-1.82,0-3.67,0.82-5.42,2.09l-0.61-4.3c1.76-1.18,3.91-2.03,6.78-2.03c4.21,0,6.82,2.21,6.82,5.88c0,2.79-1.39,4.6-3.91,6.97
			l-4.09,3.94h7.75l0.64,4.03H492.71z"/>
		<path class="st6" d="M513.4,321.93v-15.75l-4.09,1.6l-0.58-3.94l5.24-2.42h4.51v20.51H513.4z"/>
	</g>
	<g>
		<path class="st6" d="M523.76,306.93c-1.47,0-2.63-1.09-2.63-3.11s1.17-3.11,2.63-3.11s2.61,1.09,2.61,3.09
			C526.37,305.82,525.22,306.93,523.76,306.93z M523.76,302.02c-0.67,0-1,0.66-1,1.8c0,1.09,0.34,1.78,1,1.78s0.97-0.67,0.97-1.8
			C524.73,302.7,524.41,302.02,523.76,302.02z M523.45,311.18l3.41-5.2l3.34-5.25l1.41,0.31l-3.42,5.23l-3.34,5.23L523.45,311.18z
			 M531.3,311.52c-1.47,0-2.61-1.09-2.61-3.09c0-2.03,1.16-3.13,2.61-3.13c1.47,0,2.63,1.09,2.63,3.11
			C533.92,310.42,532.75,311.52,531.3,311.52z M531.3,306.63c-0.67,0-0.98,0.67-0.98,1.8c0,1.11,0.34,1.78,0.98,1.78
			c0.66,0,0.98-0.67,0.98-1.8C532.28,307.31,531.94,306.63,531.3,306.63z"/>
	</g>
	<g>
		<path class="st6" d="M143.96,321.93v-15.75l-4.09,1.6l-0.58-3.94l5.24-2.42h4.51v20.51H143.96z"/>
		<path class="st6" d="M155.83,311.27c-1.88-1.12-3-2.57-3-4.63c0-3.51,3.12-5.57,7.33-5.57c4.36,0,7.09,2.21,7.09,5.27
			c0,1.97-1.18,3.54-3.09,4.76c2.45,1.24,3.7,2.73,3.7,5.21c0,3.48-2.97,6.03-7.84,6.03c-5.15,0-7.84-2.63-7.84-5.75
			C152.17,314.39,153.56,312.54,155.83,311.27z M160.1,318.88c1.7,0,3.03-0.97,3.03-2.54c0-1.57-0.97-2.3-4.15-3.57
			c-1.3,0.88-2.18,1.97-2.18,3.36C156.8,317.82,158.23,318.88,160.1,318.88z M160.86,309.64c1.18-0.85,1.88-1.79,1.88-3.03
			c0-1.39-1.09-2.3-2.76-2.3c-1.6,0-2.6,0.97-2.6,2.24C157.38,307.85,158.26,308.61,160.86,309.64z"/>
	</g>
	<g>
		<path class="st6" d="M172.17,306.93c-1.47,0-2.63-1.09-2.63-3.11s1.17-3.11,2.63-3.11s2.61,1.09,2.61,3.09
			C174.78,305.82,173.62,306.93,172.17,306.93z M172.17,302.02c-0.67,0-1,0.66-1,1.8c0,1.09,0.34,1.78,1,1.78s0.97-0.67,0.97-1.8
			C173.14,302.7,172.81,302.02,172.17,302.02z M171.85,311.18l3.41-5.2l3.34-5.25l1.41,0.31l-3.42,5.23l-3.34,5.23L171.85,311.18z
			 M179.7,311.52c-1.47,0-2.61-1.09-2.61-3.09c0-2.03,1.16-3.13,2.61-3.13c1.47,0,2.63,1.09,2.63,3.11
			C182.32,310.42,181.15,311.52,179.7,311.52z M179.7,306.63c-0.67,0-0.98,0.67-0.98,1.8c0,1.11,0.34,1.78,0.98,1.78
			c0.66,0,0.98-0.67,0.98-1.8C180.68,307.31,180.34,306.63,179.7,306.63z"/>
	</g>
	<g>
		<path class="st6" d="M39.58,321.93v-3.6l7.06-7.06c1.36-1.39,2.06-2.36,2.06-3.73c0-1.39-0.97-2.18-2.64-2.18
			c-1.82,0-3.67,0.82-5.42,2.09l-0.61-4.3c1.76-1.18,3.91-2.03,6.78-2.03c4.21,0,6.81,2.21,6.81,5.88c0,2.79-1.39,4.6-3.91,6.97
			l-4.09,3.94h7.75l0.64,4.03H39.58z"/>
		<path class="st6" d="M62.75,322.33c-2.64,0-5-0.64-6.72-1.6l0.64-3.97c1.7,0.91,3.6,1.51,5.63,1.51c2,0,3.24-0.85,3.24-2.42
			c0-1.76-1.24-2.64-4.45-2.64h-1.24l-0.61-3.7h1.91c2.91,0,4-0.94,4-2.36c0-1.3-0.97-2.03-2.94-2.03c-1.88,0-3.69,0.67-5.24,1.7
			l-0.64-3.88c1.61-1.09,3.94-1.88,6.63-1.88c4.57,0,7.18,2.21,7.18,5.39c0,2.64-1.48,3.97-3.6,4.76c2.45,0.79,3.94,2.3,3.94,5
			C70.48,320.18,67.17,322.33,62.75,322.33z"/>
	</g>
	<g>
		<path class="st6" d="M74.81,307.82c-1.47,0-2.63-1.09-2.63-3.11s1.17-3.11,2.63-3.11s2.61,1.09,2.61,3.09
			C77.42,306.71,76.27,307.82,74.81,307.82z M74.81,302.91c-0.67,0-1,0.66-1,1.8c0,1.09,0.34,1.78,1,1.78s0.97-0.67,0.97-1.8
			C75.78,303.58,75.46,302.91,74.81,302.91z M74.5,312.07l3.41-5.2l3.34-5.25l1.41,0.31l-3.42,5.23l-3.34,5.23L74.5,312.07z
			 M82.35,312.41c-1.47,0-2.61-1.09-2.61-3.09c0-2.03,1.16-3.13,2.61-3.13c1.47,0,2.63,1.09,2.63,3.11
			C84.97,311.3,83.8,312.41,82.35,312.41z M82.35,307.52c-0.67,0-0.98,0.67-0.98,1.8c0,1.11,0.34,1.78,0.98,1.78
			c0.66,0,0.98-0.67,0.98-1.8C83.33,308.19,82.99,307.52,82.35,307.52z"/>
	</g>
	<g>
		<path class="st6" d="M39.57,371.44v-2.39l4.68-4.68c0.9-0.92,1.37-1.57,1.37-2.47c0-0.92-0.64-1.45-1.75-1.45
			c-1.21,0-2.43,0.54-3.6,1.39l-0.4-2.85c1.17-0.78,2.59-1.35,4.5-1.35c2.79,0,4.52,1.47,4.52,3.9c0,1.85-0.92,3.05-2.59,4.62
			l-2.71,2.61h5.14l0.42,2.67H39.57z"/>
		<path class="st6" d="M50.51,371.44v-2.39l4.68-4.68c0.9-0.92,1.37-1.57,1.37-2.47c0-0.92-0.64-1.45-1.75-1.45
			c-1.21,0-2.43,0.54-3.6,1.39l-0.4-2.85c1.17-0.78,2.59-1.35,4.5-1.35c2.79,0,4.52,1.47,4.52,3.9c0,1.85-0.92,3.05-2.59,4.62
			l-2.71,2.61h5.14l0.42,2.67H50.51z"/>
	</g>
	<g>
		<path class="st6" d="M62.91,362.07c-0.98,0-1.74-0.73-1.74-2.06c0-1.34,0.78-2.06,1.74-2.06c0.97,0,1.73,0.73,1.73,2.05
			C64.64,361.33,63.88,362.07,62.91,362.07z M62.91,358.81c-0.45,0-0.66,0.44-0.66,1.19c0,0.73,0.23,1.18,0.66,1.18
			c0.44,0,0.64-0.45,0.64-1.19C63.55,359.26,63.34,358.81,62.91,358.81z M62.7,364.89l2.26-3.46l2.22-3.49l0.93,0.21l-2.27,3.48
			l-2.22,3.48L62.7,364.89z M67.91,365.12c-0.98,0-1.73-0.73-1.73-2.05c0-1.35,0.77-2.08,1.73-2.08c0.98,0,1.74,0.73,1.74,2.06
			C69.65,364.38,68.88,365.12,67.91,365.12z M67.91,361.87c-0.45,0-0.65,0.45-0.65,1.19c0,0.74,0.23,1.18,0.65,1.18
			c0.44,0,0.65-0.45,0.65-1.19C68.57,362.32,68.34,361.87,67.91,361.87z"/>
	</g>
	<g>
		<path class="st6" d="M44.55,292.78c0-0.85,0.69-1.55,1.54-1.55h2.28c0.41,0,0.8,0.16,1.09,0.45c0.29,0.29,0.45,0.68,0.45,1.1v1.99
			h-0.85v-1.99c0-0.2-0.16-0.36-0.36-0.36c-0.2,0-0.36,0.16-0.36,0.36v1.99h-2.23v-1.99c0-0.2-0.16-0.36-0.36-0.36
			c-0.2,0-0.36,0.16-0.36,0.36v1.99h-0.85V292.78z M43.74,292.78v2c0,0.44,0.36,0.79,0.79,0.79h5.39c0.44,0,0.79-0.36,0.79-0.79v-2
			c0-0.63-0.24-1.22-0.68-1.66c-0.44-0.45-1.03-0.69-1.66-0.69h-2.28C44.8,290.43,43.74,291.49,43.74,292.78 M45.01,280.85
			c0,0.84-0.68,1.52-1.52,1.52c-0.84,0-1.52-0.68-1.52-1.52c0-0.84,0.68-1.52,1.52-1.52C44.33,279.33,45.01,280.01,45.01,280.85
			 M45.82,280.85c0-1.28-1.04-2.33-2.33-2.33c-1.28,0-2.33,1.05-2.33,2.33c0,1.28,1.04,2.33,2.33,2.33
			C44.77,283.18,45.82,282.14,45.82,280.85 M47.69,285.23c-0.57-0.89-1.55-1.42-2.61-1.42h0h-3.2c-0.83,0-1.61,0.32-2.19,0.9
			c-0.57,0.57-0.89,1.31-0.91,2.11c-0.01,0.03-0.01,0.05-0.01,0.08v2.79c0,0.52,0.42,0.94,0.94,0.94h4.55c0.22,0,0.4-0.18,0.4-0.4
			c0-0.22-0.18-0.4-0.4-0.4h-2.78v-2.93c0-0.2-0.16-0.36-0.36-0.36c-0.2,0-0.36,0.16-0.36,0.36v2.93h-1.05
			c-0.07,0-0.14-0.06-0.14-0.14v-2.72c0.01-0.03,0.01-0.05,0.01-0.08c0-1.26,1.03-2.29,2.29-2.29h3.2h0c0.79,0,1.51,0.39,1.93,1.05
			c0.08,0.12,0.21,0.19,0.34,0.19c0.08,0,0.15-0.02,0.22-0.06C47.76,285.67,47.81,285.42,47.69,285.23 M48.23,288.02
			c0,0.54-0.44,0.98-0.98,0.98s-0.98-0.44-0.98-0.98s0.44-0.98,0.98-0.98S48.23,287.48,48.23,288.02 M49.04,288.02
			c0-0.98-0.8-1.79-1.79-1.79c-0.99,0-1.79,0.8-1.79,1.79c0,0.99,0.8,1.79,1.79,1.79C48.23,289.81,49.04,289.01,49.04,288.02
			 M52.99,283.74c0,0.73-0.6,1.33-1.33,1.33s-1.33-0.6-1.33-1.33s0.6-1.33,1.33-1.33S52.99,283.01,52.99,283.74 M53.79,283.74
			c0-1.18-0.96-2.14-2.14-2.14s-2.14,0.96-2.14,2.14s0.96,2.14,2.14,2.14S53.79,284.92,53.79,283.74 M55.89,289.33
			c0-1.56-1.27-2.83-2.83-2.83h-2.81c-0.25,0-0.51,0.03-0.75,0.1c-0.21,0.06-0.34,0.28-0.28,0.5c0.05,0.18,0.21,0.3,0.39,0.3
			c0.03,0,0.07-0.01,0.11-0.02c0.17-0.05,0.35-0.07,0.54-0.07h2.81c1.12,0,2.02,0.91,2.02,2.03v2.51c0,0.05-0.04,0.09-0.08,0.09
			h-1.11v-2.59c0-0.2-0.16-0.36-0.36-0.36c-0.2,0-0.36,0.16-0.36,0.36v2.59h-1.71c-0.22,0-0.4,0.18-0.4,0.4c0,0.22,0.18,0.4,0.4,0.4
			h3.53c0.49,0,0.89-0.4,0.89-0.89"/>
		<path class="st6" d="M228.2,288.12v4.67c0,0.12,0.06,0.23,0.17,0.29c0.1,0.06,0.23,0.06,0.33,0l0.73-0.42
			c0.97,1.09,2.18,1.9,3.53,2.37c0.86,0.3,1.77,0.45,2.67,0.45c0.83,0,1.66-0.13,2.46-0.38c1.61-0.51,3.02-1.54,3.99-2.91
			c0.55-0.77,0.94-1.63,1.17-2.55c0.04-0.18-0.06-0.36-0.24-0.41c-0.18-0.04-0.36,0.07-0.4,0.24c-0.21,0.84-0.57,1.62-1.07,2.32
			c-0.88,1.25-2.18,2.19-3.65,2.66c-1.52,0.49-3.19,0.47-4.71-0.06c-1.32-0.46-2.51-1.28-3.42-2.38c-0.1-0.13-0.28-0.16-0.42-0.08
			l-0.47,0.27v-3.52l3.04,1.76l-0.51,0.29c-0.08,0.05-0.14,0.12-0.16,0.22c-0.02,0.09,0,0.19,0.05,0.26
			c0.59,0.87,1.4,1.59,2.34,2.07c1.11,0.58,2.5,0.73,4.11,0.45c0.18-0.03,0.3-0.2,0.27-0.39c-0.03-0.18-0.2-0.3-0.39-0.27
			c-1.47,0.25-2.71,0.12-3.69-0.38c-0.73-0.37-1.37-0.91-1.88-1.55l0.69-0.4c0.1-0.06,0.17-0.17,0.17-0.29
			c0-0.12-0.06-0.23-0.17-0.29l-4.05-2.34c-0.1-0.06-0.23-0.06-0.33,0C228.26,287.89,228.2,288,228.2,288.12 M235.62,286.88
			c-0.6-0.17-0.88-0.34-0.88-0.69c0-0.22,0-0.71,0.88-0.81V286.88z M236.28,287.74c0.68,0.18,1.08,0.38,1.08,0.84
			c0,0.33-0.15,0.87-1.08,0.94V287.74z M236.28,287.05v-1.67c0.8,0.11,0.94,0.63,0.94,0.95c0,0.18,0.15,0.33,0.33,0.33
			c0.18,0,0.33-0.15,0.33-0.33c0-0.73-0.43-1.5-1.6-1.62v-0.61c0-0.18-0.15-0.33-0.33-0.33c-0.18,0-0.33,0.15-0.33,0.33v0.61
			c-1.34,0.12-1.55,0.96-1.55,1.48c0,0.89,0.79,1.19,1.55,1.38v1.91c-0.87-0.18-1.09-0.86-1.09-1.12c0-0.18-0.15-0.33-0.34-0.33
			c-0.18,0-0.33,0.15-0.33,0.33c0,0.64,0.49,1.6,1.76,1.8v0.63c0,0.18,0.15,0.33,0.33,0.33c0.19,0,0.33-0.15,0.33-0.33v-0.6
			c1.28-0.08,1.75-0.86,1.75-1.61C238.03,287.56,237.11,287.26,236.28,287.05 M243.26,286.45v-4.67c0-0.12-0.06-0.23-0.17-0.29
			c-0.1-0.06-0.23-0.06-0.33,0l-0.73,0.42c-0.97-1.09-2.18-1.9-3.53-2.37c-1.65-0.58-3.47-0.6-5.13-0.07
			c-1.61,0.51-3.02,1.54-3.99,2.91c-0.55,0.77-0.94,1.63-1.17,2.55c-0.04,0.18,0.06,0.36,0.24,0.4c0.18,0.05,0.36-0.06,0.4-0.24
			c0.21-0.84,0.57-1.62,1.07-2.32c0.88-1.25,2.18-2.19,3.65-2.66c1.52-0.49,3.19-0.46,4.71,0.06c1.32,0.46,2.51,1.28,3.42,2.38
			c0.1,0.13,0.28,0.16,0.42,0.08l0.47-0.27v3.52l-3.04-1.76l0.51-0.29c0.08-0.05,0.14-0.13,0.16-0.21c0.02-0.09,0-0.19-0.05-0.26
			c-0.6-0.87-1.4-1.59-2.34-2.06c-1.11-0.58-2.5-0.72-4.11-0.45c-0.18,0.03-0.3,0.2-0.27,0.39c0.03,0.18,0.2,0.3,0.39,0.27
			c1.47-0.25,2.71-0.13,3.69,0.38c0.73,0.37,1.38,0.91,1.88,1.55l-0.69,0.4c-0.1,0.06-0.17,0.17-0.17,0.29
			c0,0.12,0.06,0.23,0.17,0.29l4.05,2.34c0.05,0.03,0.11,0.05,0.17,0.05c0.06,0,0.12-0.02,0.17-0.05
			C243.2,286.68,243.26,286.57,243.26,286.45"/>
		<path class="st7" d="M228.2,288.12v4.67c0,0.12,0.06,0.23,0.17,0.29c0.1,0.06,0.23,0.06,0.33,0l0.73-0.42
			c0.97,1.09,2.18,1.9,3.53,2.37c0.86,0.3,1.77,0.45,2.67,0.45c0.83,0,1.66-0.13,2.46-0.38c1.61-0.51,3.02-1.54,3.99-2.91
			c0.55-0.77,0.94-1.63,1.17-2.55c0.04-0.18-0.06-0.36-0.24-0.41c-0.18-0.04-0.36,0.07-0.4,0.24c-0.21,0.84-0.57,1.62-1.07,2.32
			c-0.88,1.25-2.18,2.19-3.65,2.66c-1.52,0.49-3.19,0.47-4.71-0.06c-1.32-0.46-2.51-1.28-3.42-2.38c-0.1-0.13-0.28-0.16-0.42-0.08
			l-0.47,0.27v-3.52l3.04,1.76l-0.51,0.29c-0.08,0.05-0.14,0.12-0.16,0.22c-0.02,0.09,0,0.19,0.05,0.26
			c0.59,0.87,1.4,1.59,2.34,2.07c1.11,0.58,2.5,0.73,4.11,0.45c0.18-0.03,0.3-0.2,0.27-0.39c-0.03-0.18-0.2-0.3-0.39-0.27
			c-1.47,0.25-2.71,0.12-3.69-0.38c-0.73-0.37-1.37-0.91-1.88-1.55l0.69-0.4c0.1-0.06,0.17-0.17,0.17-0.29
			c0-0.12-0.06-0.23-0.17-0.29l-4.05-2.34c-0.1-0.06-0.23-0.06-0.33,0C228.26,287.89,228.2,288,228.2,288.12z M235.62,286.88
			c-0.6-0.17-0.88-0.34-0.88-0.69c0-0.22,0-0.71,0.88-0.81V286.88z M236.28,287.74c0.68,0.18,1.08,0.38,1.08,0.84
			c0,0.33-0.15,0.87-1.08,0.94V287.74z M236.28,287.05v-1.67c0.8,0.11,0.94,0.63,0.94,0.95c0,0.18,0.15,0.33,0.33,0.33
			c0.18,0,0.33-0.15,0.33-0.33c0-0.73-0.43-1.5-1.6-1.62v-0.61c0-0.18-0.15-0.33-0.33-0.33c-0.18,0-0.33,0.15-0.33,0.33v0.61
			c-1.34,0.12-1.55,0.96-1.55,1.48c0,0.89,0.79,1.19,1.55,1.38v1.91c-0.87-0.18-1.09-0.86-1.09-1.12c0-0.18-0.15-0.33-0.34-0.33
			c-0.18,0-0.33,0.15-0.33,0.33c0,0.64,0.49,1.6,1.76,1.8v0.63c0,0.18,0.15,0.33,0.33,0.33c0.19,0,0.33-0.15,0.33-0.33v-0.6
			c1.28-0.08,1.75-0.86,1.75-1.61C238.03,287.56,237.11,287.26,236.28,287.05z M243.26,286.45v-4.67c0-0.12-0.06-0.23-0.17-0.29
			c-0.1-0.06-0.23-0.06-0.33,0l-0.73,0.42c-0.97-1.09-2.18-1.9-3.53-2.37c-1.65-0.58-3.47-0.6-5.13-0.07
			c-1.61,0.51-3.02,1.54-3.99,2.91c-0.55,0.77-0.94,1.63-1.17,2.55c-0.04,0.18,0.06,0.36,0.24,0.4c0.18,0.05,0.36-0.06,0.4-0.24
			c0.21-0.84,0.57-1.62,1.07-2.32c0.88-1.25,2.18-2.19,3.65-2.66c1.52-0.49,3.19-0.46,4.71,0.06c1.32,0.46,2.51,1.28,3.42,2.38
			c0.1,0.13,0.28,0.16,0.42,0.08l0.47-0.27v3.52l-3.04-1.76l0.51-0.29c0.08-0.05,0.14-0.13,0.16-0.21c0.02-0.09,0-0.19-0.05-0.26
			c-0.6-0.87-1.4-1.59-2.34-2.06c-1.11-0.58-2.5-0.72-4.11-0.45c-0.18,0.03-0.3,0.2-0.27,0.39c0.03,0.18,0.2,0.3,0.39,0.27
			c1.47-0.25,2.71-0.13,3.69,0.38c0.73,0.37,1.38,0.91,1.88,1.55l-0.69,0.4c-0.1,0.06-0.17,0.17-0.17,0.29
			c0,0.12,0.06,0.23,0.17,0.29l4.05,2.34c0.05,0.03,0.11,0.05,0.17,0.05c0.06,0,0.12-0.02,0.17-0.05
			C243.2,286.68,243.26,286.57,243.26,286.45z"/>
		<path class="st6" d="M143.31,288.55v4.33h0.79v-4.33c0-1.01,2.46-1.97,3.94-1.97c0.41,0,0.93,0.08,1.47,0.23l0.21-0.76
			c-0.6-0.16-1.2-0.26-1.68-0.26C146.37,285.79,143.31,286.84,143.31,288.55 M142.92,286.58c-1.52,0-4.33,1.14-4.33,2.76v3.15h0.79
			v-3.15c0-0.98,2.27-1.97,3.54-1.97h0.39v-0.79H142.92z M144.1,283.82c0,0.91-0.66,1.58-1.57,1.58c-0.91,0-1.57-0.66-1.57-1.58
			v-0.79c0-0.91,0.66-1.57,1.57-1.57c0.91,0,1.57,0.66,1.57,1.57V283.82z M144.89,283.82v-0.79c0-1.35-1.02-2.36-2.36-2.36
			c-1.35,0-2.36,1.02-2.36,2.36v0.79c0,1.35,1.02,2.36,2.36,2.36C143.87,286.19,144.89,285.17,144.89,283.82 M149.61,283.04
			c0,0.91-0.66,1.58-1.57,1.58c-0.91,0-1.57-0.66-1.57-1.58v-0.79c0-0.91,0.66-1.58,1.57-1.58c0.91,0,1.57,0.66,1.57,1.58V283.04z
			 M150.4,283.04v-0.79c0-1.35-1.02-2.36-2.36-2.36c-1.35,0-2.36,1.02-2.36,2.36v0.79c0,1.35,1.02,2.36,2.36,2.36
			C149.38,285.4,150.4,284.38,150.4,283.04 M153.16,291.3h1.97v-0.79h-1.97v-1.97h-0.79v1.97h-1.97v0.79h1.97v1.97h0.79V291.3z
			 M156.7,290.91c0,2.17-1.77,3.94-3.94,3.94s-3.94-1.77-3.94-3.94c0-2.17,1.77-3.94,3.94-3.94S156.7,288.74,156.7,290.91
			 M157.49,290.91c0-2.6-2.12-4.72-4.73-4.72c-2.6,0-4.72,2.12-4.72,4.72c0,2.61,2.12,4.73,4.72,4.73
			C155.37,295.64,157.49,293.52,157.49,290.91"/>
		<path class="st6" d="M324.66,295.36c-4.59,0-8.32-3.73-8.32-8.31c0-4.58,3.73-8.3,8.32-8.3c4.56,0,8.27,3.7,8.31,8.26h2.61
			c0.15,0,0.3,0.09,0.37,0.22s0.06,0.3-0.03,0.43l-4.77,6.84c-0.08,0.11-0.21,0.18-0.34,0.18c-0.14,0-0.26-0.07-0.34-0.18
			l-4.77-6.84c-0.09-0.13-0.1-0.29-0.03-0.43s0.21-0.22,0.37-0.22h2.76c-0.04-2.27-1.88-4.1-4.14-4.1c-2.28,0-4.14,1.86-4.14,4.14
			c0,2.28,1.86,4.14,4.14,4.14c0.28,0,0.56-0.03,0.83-0.08l0.17,0.82c-0.33,0.07-0.66,0.1-0.99,0.1c-2.74,0-4.97-2.23-4.97-4.98
			c0-2.74,2.23-4.97,4.97-4.97c2.74,0,4.97,2.25,4.97,5.02c0,0.34,0,0.76-0.43,0.76h-2.36l3.97,5.69l3.97-5.69h-2.24
			c-0.23,0-0.42-0.19-0.42-0.42c0-0.02,0-0.04,0-0.07c0-0.05,0.01-0.2,0.01-0.27c0-4.14-3.35-7.5-7.48-7.5s-7.48,3.35-7.48,7.47
			c0,4.12,3.36,7.48,7.48,7.48c0.94,0,1.87-0.18,2.76-0.54l0.31,0.78C326.74,295.16,325.7,295.36,324.66,295.36"/>
		<path class="st6" d="M412.75,295.54c-0.07,0-0.14-0.02-0.2-0.06l-5.2-3.34c-0.11-0.07-0.17-0.19-0.17-0.32
			c0-0.13,0.07-0.25,0.19-0.31l5.2-2.97c0.12-0.07,0.26-0.07,0.37,0c0.12,0.07,0.18,0.19,0.18,0.32v1.11c1.61,0,3.18-1.12,3.73-2.67
			c0.35-0.97,0.3-2.01-0.14-2.94c-0.44-0.93-1.21-1.64-2.18-1.98c-0.45-0.16-0.88-0.24-1.29-0.24c-1.62,0-3.07,1.01-3.61,2.51
			c-0.16,0.46-0.22,0.95-0.22,1.23l-0.74,0c0-0.46,0.1-1.03,0.27-1.48c0.64-1.8,2.38-3,4.31-3c0.5,0,1.02,0.1,1.55,0.28
			c1.15,0.41,2.07,1.25,2.6,2.36c0.52,1.11,0.58,2.35,0.17,3.51c-0.66,1.83-2.52,3.16-4.43,3.16c-0.04,0-0.07,0-0.11,0
			c-0.09,0-0.19,0.01-0.3-0.01c-0.19-0.02-0.33-0.18-0.33-0.37v-0.84l-4.11,2.35l4.11,2.64v-0.8c0-0.1,0.04-0.2,0.12-0.27
			c0.07-0.07,0.17-0.11,0.28-0.1c0.07,0,0.14,0,0.22,0c0.04,0,0.09,0,0.13,0c3.02,0,5.85-2.01,6.88-4.88
			c0.65-1.8,0.55-3.75-0.26-5.49c-0.82-1.73-2.26-3.05-4.07-3.69c-0.78-0.28-1.6-0.42-2.42-0.42c-3.03,0-5.75,1.89-6.76,4.69
			c-0.26,0.74-0.42,1.6-0.42,2.36l-0.74,0c0-0.85,0.17-1.8,0.46-2.61c1.11-3.1,4.11-5.18,7.46-5.18c0.91,0,1.81,0.16,2.67,0.47
			c1.99,0.71,3.59,2.16,4.49,4.07c0.9,1.91,1.01,4.06,0.29,6.06c-1.13,3.16-4.25,5.37-7.58,5.37v1.11c0,0.14-0.07,0.26-0.19,0.33
			C412.87,295.52,412.81,295.54,412.75,295.54"/>
		<path class="st6" d="M500.74,288.35c-0.19,0.16-2.93,2.45-3.16,2.65c-0.04,0.03-0.05,0.07-0.06,0.12
			c-0.03,0.92-0.07,1.85-0.1,2.78c0,0.11-0.04,0.2-0.12,0.28c-0.15,0.15-0.3,0.31-0.44,0.46c-0.12,0.13-0.3,0.09-0.37-0.08
			c-0.18-0.49-0.96-2.58-1.16-3.13c-0.02-0.05-0.05-0.08-0.1-0.11c-0.82-0.38-2.83-1.31-3.01-1.4c-0.17-0.08-0.2-0.26-0.05-0.38
			c0.18-0.15,0.36-0.3,0.55-0.44c0.05-0.04,0.12-0.05,0.18-0.05c0.93,0.03,1.86,0.07,2.78,0.11c0.08,0,0.14-0.02,0.2-0.07
			c0.76-0.78,2.66-2.71,2.86-2.92c-0.14-0.08-5.26-3.06-5.99-3.48c-0.15-0.08-0.2-0.26-0.05-0.4c0.28-0.27,1.04-0.86,1.13-0.9
			c0.14-0.07,0.28-0.09,0.43-0.06c0.46,0.11,6.78,1.94,7.31,2.11c0.07,0.02,0.11,0.01,0.16-0.03c0.41-0.37,2.4-2.13,2.99-2.62
			c0.51-0.42,1.13-0.59,1.79-0.52c0.5,0.05,0.75,0.34,0.76,0.84c0.01,0.48-0.13,0.91-0.37,1.33c-0.22,0.37-2.97,3.01-3.12,3.14
			c-0.08,0.07-0.09,0.13-0.07,0.22c0.19,0.84,1.41,6.72,1.51,7.21c0.07,0.36-0.04,0.65-0.27,0.92c-0.25,0.29-0.53,0.55-0.83,0.79
			c-0.12,0.1-0.27,0.05-0.34-0.09c-0.24-0.51-2.88-6.01-2.98-6.22C500.76,288.39,500.75,288.38,500.74,288.35"/>
	</g>
	<g>
		<path class="st6" d="M320.88,332.19l-3.63-5.23v5.23h-0.58v-6.21h0.58l3.52,5.07v-5.07h0.58v6.21H320.88z"/>
		<path class="st6" d="M324.98,325.94h0.64l2.43,6.18l-0.6,0.13l-0.8-2.07h-2.72l-0.76,2.01h-0.63L324.98,325.94z M324.15,329.63
			h2.29l-1.14-2.97L324.15,329.63z"/>
		<path class="st6" d="M330.52,326.54v5.65h-0.62v-5.65h-2v-0.56h4.57l0.09,0.56H330.52z"/>
		<path class="st6" d="M333.7,332.19v-6.21h0.62v6.21H333.7z"/>
		<path class="st6" d="M338.56,332.31c-1.66,0-2.79-1.31-2.79-3.21c0-1.91,1.15-3.23,2.81-3.23c1.67,0,2.8,1.31,2.8,3.21
			C341.38,330.97,340.24,332.31,338.56,332.31z M338.57,326.42c-1.3,0-2.16,1.08-2.16,2.66c0,1.59,0.86,2.67,2.17,2.67
			c1.3,0,2.16-1.08,2.16-2.66C340.74,327.5,339.88,326.42,338.57,326.42z"/>
		<path class="st6" d="M346.97,332.19l-3.63-5.23v5.23h-0.58v-6.21h0.58l3.52,5.07v-5.07h0.58v6.21H346.97z"/>
		<path class="st6" d="M351.07,325.94h0.64l2.43,6.18l-0.6,0.13l-0.8-2.07h-2.72l-0.76,2.01h-0.63L351.07,325.94z M350.24,329.63
			h2.29l-1.14-2.97L350.24,329.63z"/>
		<path class="st6" d="M355.32,332.19v-6.21h0.62v5.65h2.39l0.09,0.56H355.32z"/>
	</g>
	<g>
		<path class="st6" d="M316.44,341.19v-6.21h1.54v6.21H316.44z"/>
		<path class="st6" d="M324.65,341.19l-0.27-4.13l-1.18,4.14h-1.44l-1.18-4.14l-0.27,4.13h-1.34l0.45-6.21h1.99l1.21,4.28l1.22-4.28
			h1.94l0.45,6.21H324.65z"/>
		<path class="st6" d="M329.11,339.13h-0.4v2.06h-1.54v-6.21h2c1.51,0,2.44,0.68,2.44,2.03
			C331.61,338.41,330.61,339.13,329.11,339.13z M329.08,336.14h-0.39v1.83h0.36c0.68,0,1.06-0.3,1.06-0.94
			C330.11,336.44,329.76,336.14,329.08,336.14z"/>
		<path class="st6" d="M335.06,341.31c-1.78,0-2.95-1.3-2.95-3.21c0-1.93,1.17-3.23,2.97-3.23c1.8,0,2.96,1.3,2.96,3.21
			C338.04,339.99,336.87,341.31,335.06,341.31z M335.07,336.07c-0.89,0-1.42,0.78-1.42,2.02s0.53,2.02,1.42,2.02
			c0.9,0,1.42-0.78,1.42-2.02S335.97,336.07,335.07,336.07z"/>
		<path class="st6" d="M342.24,341.25l-1.37-2.2h-0.39v2.13h-1.53v-6.21h2.17c1.5,0,2.38,0.68,2.38,1.96c0,0.86-0.43,1.45-1.17,1.76
			l1.5,2.29L342.24,341.25z M340.97,336.14h-0.5v1.81h0.48c0.67,0,1.04-0.32,1.04-0.92C341.99,336.45,341.63,336.14,340.97,336.14z"
			/>
		<path class="st6" d="M347.3,336.28v4.91h-1.55v-4.91H344v-1.31h4.92l0.22,1.31H347.3z"/>
		<path class="st6" d="M351.62,341.26c-0.84,0-1.54-0.18-2.17-0.47l0.22-1.31c0.64,0.34,1.35,0.58,1.97,0.58
			c0.44,0,0.75-0.19,0.75-0.56c0-0.35-0.18-0.51-1.05-0.85c-1.24-0.48-1.78-0.88-1.78-1.91c0-1.2,0.94-1.84,2.13-1.84
			c0.81,0,1.33,0.15,1.87,0.41l-0.23,1.3c-0.56-0.32-1.14-0.5-1.62-0.5c-0.47,0-0.69,0.2-0.69,0.49c0,0.31,0.17,0.47,0.94,0.77
			c1.36,0.5,1.89,0.96,1.89,1.95C353.85,340.67,352.86,341.26,351.62,341.26z"/>
	</g>
	<g>
		<path class="st6" d="M355,338.19v-2.73l-0.71,0.28l-0.1-0.68l0.91-0.42h0.78v3.55H355z"/>
		<path class="st6" d="M358.25,336.69c-0.26,0.16-0.52,0.25-0.82,0.25c-0.59,0-1.03-0.35-1.03-1.1c0-0.78,0.57-1.27,1.32-1.27
			c0.8,0,1.37,0.52,1.37,1.5c0,1.28-0.89,1.97-2.1,2.19l-0.1-0.69C357.57,337.44,358.07,337.17,358.25,336.69z M358.29,336.13v-0.01
			c0-0.64-0.25-0.91-0.58-0.91c-0.3,0-0.5,0.21-0.5,0.58c0,0.36,0.17,0.54,0.5,0.54C357.91,336.32,358.1,336.26,358.29,336.13z"/>
	</g>
	<g>
		<path class="st6" d="M317.63,346.7h0.56l1.6,4.08l-0.55,0.12l-0.49-1.28h-1.7l-0.47,1.24h-0.57L317.63,346.7z M317.24,349.12h1.33
			l-0.67-1.76L317.24,349.12z"/>
		<path class="st6" d="M322.72,350.9l-1.27-1.79h-0.43v1.75h-0.56v-4.14h1.13c0.85,0,1.37,0.42,1.37,1.18c0,0.63-0.37,1-0.91,1.15
			l1.23,1.73L322.72,350.9z M321.57,347.22h-0.54v1.42h0.48c0.55,0,0.89-0.25,0.89-0.71C322.4,347.48,322.12,347.22,321.57,347.22z"
			/>
		<path class="st6" d="M326.14,350.9l-1.27-1.79h-0.43v1.75h-0.56v-4.14h1.13c0.85,0,1.37,0.42,1.37,1.18c0,0.63-0.37,1-0.91,1.15
			l1.23,1.73L326.14,350.9z M324.99,347.22h-0.54v1.42h0.48c0.55,0,0.89-0.25,0.89-0.71C325.82,347.48,325.54,347.22,324.99,347.22z
			"/>
		<path class="st6" d="M327.34,350.86v-4.14h0.56v4.14H327.34z"/>
		<path class="st6" d="M330.71,350.88h-0.5l-1.59-4.08l0.56-0.12l1.29,3.44l1.26-3.4h0.59L330.71,350.88z"/>
		<path class="st6" d="M333.04,350.86v-4.14h0.56v4.14H333.04z"/>
		<path class="st6" d="M337.42,350.86l-2.27-3.22v3.22h-0.52v-4.14h0.5l2.2,3.1v-3.1h0.52v4.14H337.42z"/>
		<path class="st6" d="M340.7,350.94c-1.31,0-2.01-0.86-2.01-2.14c0-1.28,0.73-2.15,1.97-2.15c0.55,0,0.94,0.14,1.26,0.35
			l-0.09,0.58c-0.31-0.24-0.69-0.41-1.17-0.41c-0.91,0-1.38,0.64-1.38,1.63s0.49,1.63,1.43,1.63c0.36,0,0.6-0.07,0.84-0.2v-1.1
			h-0.95l-0.08-0.52h1.59v1.94C341.74,350.76,341.24,350.94,340.7,350.94z"/>
		<path class="st6" d="M344.39,350.86v-4.14h0.56v4.14H344.39z"/>
		<path class="st6" d="M348.78,350.86l-2.27-3.22v3.22h-0.52v-4.14h0.5l2.2,3.1v-3.1h0.52v4.14H348.78z"/>
	</g>
	<g>
		<path class="st6" d="M317.79,353.9h0.56l1.6,4.08l-0.55,0.12l-0.49-1.28h-1.7l-0.47,1.24h-0.57L317.79,353.9z M317.4,356.32h1.33
			l-0.67-1.76L317.4,356.32z"/>
		<path class="st6" d="M322.88,358.1l-1.27-1.79h-0.43v1.75h-0.56v-4.14h1.13c0.85,0,1.37,0.42,1.37,1.18c0,0.63-0.37,1-0.91,1.15
			l1.23,1.73L322.88,358.1z M321.73,354.42h-0.54v1.42h0.48c0.55,0,0.89-0.25,0.89-0.71C322.56,354.68,322.28,354.42,321.73,354.42z
			"/>
		<path class="st6" d="M324.04,358.06v-4.14h2.23v0.52h-1.67v1.2h1.29l0.08,0.52h-1.38v1.39h1.73v0.52H324.04z"/>
		<path class="st6" d="M328.35,353.9h0.56l1.6,4.08l-0.55,0.12l-0.49-1.28h-1.7l-0.47,1.24h-0.57L328.35,353.9z M327.96,356.32h1.33
			l-0.67-1.76L327.96,356.32z"/>
		<path class="st6" d="M333.67,358.62c-0.84-0.73-1.28-1.43-1.28-2.44c0-1.06,0.54-1.86,1.52-2.48l0.08,0.5
			c-0.71,0.51-1.03,1.13-1.03,1.99c0,0.83,0.37,1.54,1.22,2.31L333.67,358.62z"/>
		<path class="st6" d="M336.71,358.08h-0.5l-1.59-4.08l0.56-0.12l1.29,3.44l1.26-3.4h0.59L336.71,358.08z"/>
		<path class="st6" d="M339.76,353.9h0.56l1.6,4.08l-0.55,0.12l-0.49-1.28h-1.7l-0.47,1.24h-0.57L339.76,353.9z M339.37,356.32h1.33
			l-0.67-1.76L339.37,356.32z"/>
		<path class="st6" d="M342.59,358.06v-4.14h0.56v3.62h1.49l0.08,0.52H342.59z"/>
		<path class="st6" d="M346.84,358.14c-1,0-1.6-0.64-1.6-1.64v-2.57h0.56v2.5c0,0.72,0.32,1.2,1.04,1.2c0.7,0,1.06-0.43,1.06-1.18
			v-2.52h0.56v2.54C348.46,357.51,347.84,358.14,346.84,358.14z"/>
		<path class="st6" d="M349.42,358.06v-4.14h2.23v0.52h-1.67v1.2h1.29l0.08,0.52h-1.38v1.39h1.73v0.52H349.42z"/>
		<path class="st6" d="M352.71,353.73c0.84,0.73,1.28,1.43,1.28,2.44c0,1.06-0.54,1.86-1.52,2.48l-0.08-0.5
			c0.71-0.51,1.03-1.13,1.03-1.98c0-0.83-0.37-1.54-1.22-2.31L352.71,353.73z"/>
	</g>
	<g>
		<path class="st6" d="M410.36,332.19l-3.63-5.23v5.23h-0.58v-6.21h0.58l3.52,5.07v-5.07h0.58v6.21H410.36z"/>
		<path class="st6" d="M414.46,325.94h0.64l2.43,6.18l-0.6,0.13l-0.8-2.07h-2.72l-0.76,2.01h-0.63L414.46,325.94z M413.63,329.63
			h2.29l-1.14-2.97L413.63,329.63z"/>
		<path class="st6" d="M420.01,326.54v5.65h-0.62v-5.65h-2v-0.56h4.57l0.09,0.56H420.01z"/>
		<path class="st6" d="M423.19,332.19v-6.21h0.62v6.21H423.19z"/>
		<path class="st6" d="M428.05,332.31c-1.66,0-2.79-1.31-2.79-3.21c0-1.91,1.15-3.23,2.81-3.23c1.67,0,2.8,1.31,2.8,3.21
			C430.87,330.97,429.73,332.31,428.05,332.31z M428.06,326.42c-1.3,0-2.16,1.08-2.16,2.66c0,1.59,0.86,2.67,2.17,2.67
			c1.3,0,2.16-1.08,2.16-2.66C430.23,327.5,429.37,326.42,428.06,326.42z"/>
		<path class="st6" d="M436.46,332.19l-3.63-5.23v5.23h-0.58v-6.21h0.58l3.52,5.07v-5.07h0.58v6.21H436.46z"/>
		<path class="st6" d="M440.56,325.94h0.64l2.43,6.18l-0.6,0.13l-0.8-2.07h-2.72l-0.76,2.01h-0.63L440.56,325.94z M439.73,329.63
			h2.29l-1.14-2.97L439.73,329.63z"/>
		<path class="st6" d="M444.81,332.19v-6.21h0.62v5.65h2.39l0.09,0.56H444.81z"/>
	</g>
	<g>
		<path class="st6" d="M405.89,341.19v-6.21h3.87v1.24h-2.36v1.14h1.8l0.2,1.23h-2v1.34h2.44v1.25H405.89z"/>
		<path class="st6" d="M414.32,341.25l-1.28-2.19l-1.22,2.12h-1.58l1.96-3.16l-1.8-2.85l1.64-0.26l1.13,1.96l1.07-1.9h1.58
			l-1.82,2.94l1.96,3.08L414.32,341.25z"/>
		<path class="st6" d="M418.59,339.13h-0.4v2.06h-1.54v-6.21h2c1.51,0,2.44,0.68,2.44,2.03
			C421.09,338.41,420.09,339.13,418.59,339.13z M418.56,336.14h-0.39v1.83h0.36c0.68,0,1.06-0.3,1.06-0.94
			C419.59,336.44,419.24,336.14,418.56,336.14z"/>
		<path class="st6" d="M424.54,341.31c-1.78,0-2.95-1.3-2.95-3.21c0-1.93,1.17-3.23,2.97-3.23c1.8,0,2.96,1.3,2.96,3.21
			C427.52,339.99,426.35,341.31,424.54,341.31z M424.55,336.07c-0.89,0-1.42,0.78-1.42,2.02s0.53,2.02,1.42,2.02
			c0.9,0,1.42-0.78,1.42-2.02S425.45,336.07,424.55,336.07z"/>
		<path class="st6" d="M431.72,341.25l-1.37-2.2h-0.39v2.13h-1.53v-6.21h2.17c1.5,0,2.39,0.68,2.39,1.96c0,0.86-0.43,1.45-1.17,1.76
			l1.5,2.29L431.72,341.25z M430.45,336.14h-0.5v1.81h0.48c0.67,0,1.04-0.32,1.04-0.92C431.48,336.45,431.12,336.14,430.45,336.14z"
			/>
		<path class="st6" d="M436.79,336.28v4.91h-1.55v-4.91h-1.76v-1.31h4.92l0.22,1.31H436.79z"/>
		<path class="st6" d="M441.1,341.26c-0.84,0-1.54-0.18-2.17-0.47l0.22-1.31c0.64,0.34,1.35,0.58,1.97,0.58
			c0.44,0,0.75-0.19,0.75-0.56c0-0.35-0.18-0.51-1.05-0.85c-1.24-0.48-1.78-0.88-1.78-1.91c0-1.2,0.94-1.84,2.13-1.84
			c0.81,0,1.33,0.15,1.87,0.41l-0.23,1.3c-0.56-0.32-1.14-0.5-1.62-0.5c-0.47,0-0.69,0.2-0.69,0.49c0,0.31,0.17,0.47,0.95,0.77
			c1.36,0.5,1.89,0.96,1.89,1.95C443.33,340.67,442.34,341.26,441.1,341.26z"/>
	</g>
	<g>
		<path class="st6" d="M444.49,338.19v-2.73l-0.71,0.28l-0.1-0.68l0.91-0.42h0.78v3.55H444.49z"/>
		<path class="st6" d="M447.73,336.69c-0.26,0.16-0.52,0.25-0.82,0.25c-0.59,0-1.03-0.35-1.03-1.1c0-0.78,0.57-1.27,1.32-1.27
			c0.8,0,1.37,0.52,1.37,1.5c0,1.28-0.89,1.97-2.1,2.19l-0.1-0.69C447.05,337.44,447.55,337.17,447.73,336.69z M447.78,336.13v-0.01
			c0-0.64-0.25-0.91-0.58-0.91c-0.3,0-0.5,0.21-0.5,0.58c0,0.36,0.17,0.54,0.5,0.54C447.39,336.32,447.58,336.26,447.78,336.13z"/>
	</g>
	<g>
		<path class="st6" d="M405.82,350.86v-4.14h0.56v3.62h1.49l0.08,0.52H405.82z"/>
		<path class="st6" d="M408.63,350.86v-4.14h2.23v0.52h-1.67v1.2h1.29l0.08,0.52h-1.38v1.39h1.73v0.52H408.63z"/>
		<path class="st6" d="M412.93,346.7h0.56l1.6,4.08l-0.55,0.12l-0.49-1.28h-1.7l-0.47,1.24h-0.57L412.93,346.7z M412.54,349.12h1.33
			l-0.67-1.76L412.54,349.12z"/>
		<path class="st6" d="M417.01,350.88h-0.5l-1.59-4.08l0.56-0.12l1.29,3.44l1.26-3.4h0.59L417.01,350.88z"/>
		<path class="st6" d="M419.33,350.86v-4.14h0.56v4.14H419.33z"/>
		<path class="st6" d="M423.72,350.86l-2.27-3.22v3.22h-0.52v-4.14h0.5l2.2,3.1v-3.1h0.52v4.14H423.72z"/>
		<path class="st6" d="M426.99,350.94c-1.31,0-2.01-0.86-2.01-2.14c0-1.28,0.73-2.15,1.97-2.15c0.55,0,0.94,0.14,1.26,0.35
			l-0.09,0.58c-0.31-0.24-0.69-0.41-1.17-0.41c-0.91,0-1.38,0.64-1.38,1.63s0.49,1.63,1.43,1.63c0.36,0,0.6-0.07,0.84-0.2v-1.1
			h-0.95l-0.08-0.52h1.59v1.94C428.03,350.76,427.54,350.94,426.99,350.94z"/>
		<path class="st6" d="M431.21,347.24v1.27h1.25l0.08,0.52h-1.33v1.84h-0.56v-4.14h2.15v0.52H431.21z"/>
		<path class="st6" d="M435.77,350.9l-1.27-1.79h-0.43v1.75h-0.56v-4.14h1.13c0.85,0,1.37,0.42,1.37,1.18c0,0.63-0.37,1-0.91,1.15
			l1.23,1.73L435.77,350.9z M434.62,347.22h-0.54v1.42h0.48c0.55,0,0.89-0.25,0.89-0.71C435.45,347.48,435.17,347.22,434.62,347.22z
			"/>
		<path class="st6" d="M438.61,350.94c-1.16,0-1.9-0.86-1.9-2.14c0-1.28,0.75-2.15,1.91-2.15c1.17,0,1.9,0.86,1.9,2.14
			S439.78,350.94,438.61,350.94z M438.62,347.16c-0.82,0-1.33,0.64-1.33,1.63s0.51,1.63,1.33,1.63c0.82,0,1.33-0.64,1.33-1.63
			S439.43,347.16,438.62,347.16z"/>
		<path class="st6" d="M445.33,350.86l-0.26-3.29l-1.31,3.31h-0.43l-1.31-3.31l-0.25,3.29h-0.53l0.33-4.14h0.7l1.29,3.39l1.29-3.39
			h0.69l0.32,4.14H445.33z"/>
	</g>
	<g>
		<path class="st6" d="M407.27,353.9h0.56l1.6,4.08l-0.55,0.12l-0.49-1.28h-1.7l-0.47,1.24h-0.57L407.27,353.9z M406.88,356.32h1.33
			l-0.67-1.76L406.88,356.32z"/>
		<path class="st6" d="M412.36,358.1l-1.27-1.79h-0.43v1.75h-0.56v-4.14h1.13c0.85,0,1.37,0.42,1.37,1.18c0,0.63-0.37,1-0.91,1.15
			l1.23,1.73L412.36,358.1z M411.21,354.42h-0.54v1.42h0.48c0.55,0,0.89-0.25,0.89-0.71C412.04,354.68,411.76,354.42,411.21,354.42z
			"/>
		<path class="st6" d="M413.53,358.06v-4.14h2.23v0.52h-1.67v1.2h1.29l0.08,0.52h-1.38v1.39h1.73v0.52H413.53z"/>
		<path class="st6" d="M417.83,353.9h0.56l1.6,4.08l-0.55,0.12l-0.49-1.28h-1.7l-0.47,1.24h-0.57L417.83,353.9z M417.44,356.32h1.33
			l-0.67-1.76L417.44,356.32z"/>
		<path class="st6" d="M423.15,358.62c-0.84-0.73-1.28-1.43-1.28-2.44c0-1.06,0.54-1.86,1.52-2.48l0.08,0.5
			c-0.71,0.51-1.03,1.13-1.03,1.99c0,0.83,0.37,1.54,1.22,2.31L423.15,358.62z"/>
		<path class="st6" d="M426.2,358.08h-0.5L424.1,354l0.56-0.12l1.29,3.44l1.26-3.4h0.59L426.2,358.08z"/>
		<path class="st6" d="M429.24,353.9h0.56l1.6,4.08l-0.55,0.12l-0.49-1.28h-1.7l-0.47,1.24h-0.57L429.24,353.9z M428.85,356.32h1.33
			l-0.67-1.76L428.85,356.32z"/>
		<path class="st6" d="M432.07,358.06v-4.14h0.56v3.62h1.49l0.08,0.52H432.07z"/>
		<path class="st6" d="M436.32,358.14c-1,0-1.6-0.64-1.6-1.64v-2.57h0.56v2.5c0,0.72,0.32,1.2,1.04,1.2c0.7,0,1.06-0.43,1.06-1.18
			v-2.52h0.56v2.54C437.94,357.51,437.33,358.14,436.32,358.14z"/>
		<path class="st6" d="M438.9,358.06v-4.14h2.23v0.52h-1.67v1.2h1.29l0.08,0.52h-1.38v1.39h1.73v0.52H438.9z"/>
		<path class="st6" d="M442.19,353.73c0.84,0.73,1.28,1.43,1.28,2.44c0,1.06-0.54,1.86-1.52,2.48l-0.08-0.5
			c0.71-0.51,1.03-1.13,1.03-1.98c0-0.83-0.37-1.54-1.22-2.31L442.19,353.73z"/>
	</g>
	<g>
		<path class="st6" d="M44.52,332.19l-3.63-5.23v5.23h-0.59v-6.21h0.59l3.52,5.07v-5.07H45v6.21H44.52z"/>
		<path class="st6" d="M48.62,325.94h0.64l2.43,6.18l-0.6,0.13l-0.8-2.07h-2.72l-0.77,2.01h-0.63L48.62,325.94z M47.79,329.63h2.29
			l-1.14-2.97L47.79,329.63z"/>
		<path class="st6" d="M54.16,326.54v5.65h-0.62v-5.65h-2v-0.56h4.57l0.09,0.56H54.16z"/>
		<path class="st6" d="M57.34,332.19v-6.21h0.62v6.21H57.34z"/>
		<path class="st6" d="M62.21,332.31c-1.66,0-2.79-1.31-2.79-3.21c0-1.91,1.15-3.23,2.81-3.23c1.67,0,2.8,1.31,2.8,3.21
			C65.02,330.97,63.88,332.31,62.21,332.31z M62.21,326.42c-1.31,0-2.16,1.08-2.16,2.66c0,1.59,0.86,2.67,2.17,2.67
			c1.31,0,2.16-1.08,2.16-2.66C64.38,327.5,63.52,326.42,62.21,326.42z"/>
		<path class="st6" d="M70.61,332.19l-3.63-5.23v5.23H66.4v-6.21h0.59l3.52,5.07v-5.07h0.58v6.21H70.61z"/>
		<path class="st6" d="M74.71,325.94h0.64l2.43,6.18l-0.6,0.13l-0.8-2.07h-2.72l-0.77,2.01h-0.63L74.71,325.94z M73.88,329.63h2.29
			l-1.14-2.97L73.88,329.63z"/>
		<path class="st6" d="M78.96,332.19v-6.21h0.62v5.65h2.4l0.09,0.56H78.96z"/>
	</g>
	<g>
		<path class="st6" d="M41.98,339.13h-0.4v2.06h-1.54v-6.21h2c1.51,0,2.44,0.68,2.44,2.03C44.48,338.41,43.49,339.13,41.98,339.13z
			 M41.96,336.14h-0.39v1.83h0.36c0.68,0,1.06-0.3,1.06-0.94C42.99,336.44,42.64,336.14,41.96,336.14z"/>
		<path class="st6" d="M47.94,341.31c-1.78,0-2.95-1.3-2.95-3.21c0-1.93,1.17-3.23,2.97-3.23s2.96,1.3,2.96,3.21
			C50.92,339.99,49.75,341.31,47.94,341.31z M47.95,336.07c-0.89,0-1.42,0.78-1.42,2.02s0.53,2.02,1.42,2.02
			c0.9,0,1.42-0.78,1.42-2.02S48.85,336.07,47.95,336.07z"/>
		<path class="st6" d="M53.76,339.13h-0.4v2.06h-1.54v-6.21h2c1.51,0,2.44,0.68,2.44,2.03C56.27,338.41,55.27,339.13,53.76,339.13z
			 M53.74,336.14h-0.39v1.83h0.36c0.68,0,1.06-0.3,1.06-0.94C54.77,336.44,54.42,336.14,53.74,336.14z"/>
		<path class="st6" d="M59.51,341.29c-1.52,0-2.58-0.82-2.58-2.56v-3.75h1.55v3.75c0,0.8,0.36,1.27,1.05,1.27
			c0.7,0,1.05-0.46,1.05-1.25v-3.76h1.55v3.75C62.13,340.45,61.01,341.29,59.51,341.29z"/>
		<path class="st6" d="M63.19,341.19v-6.21h1.54v4.88h1.91l0.21,1.33H63.19z"/>
		<path class="st6" d="M69.34,334.95h1.69l2.16,6.05l-1.55,0.25l-0.46-1.35h-2.16l-0.41,1.29h-1.5L69.34,334.95z M69.4,338.7h1.4
			l-0.69-2.16L69.4,338.7z"/>
		<path class="st6" d="M76.09,336.28v4.91h-1.55v-4.91h-1.76v-1.31h4.92l0.22,1.31H76.09z"/>
		<path class="st6" d="M78.65,341.19v-6.21h1.54v6.21H78.65z"/>
		<path class="st6" d="M84.08,341.31c-1.78,0-2.95-1.3-2.95-3.21c0-1.93,1.17-3.23,2.97-3.23s2.96,1.3,2.96,3.21
			C87.06,339.99,85.89,341.31,84.08,341.31z M84.09,336.07c-0.89,0-1.42,0.78-1.42,2.02s0.53,2.02,1.42,2.02
			c0.9,0,1.42-0.78,1.42-2.02S84.99,336.07,84.09,336.07z"/>
		<path class="st6" d="M91.85,341.19l-2.45-3.72v3.72h-1.43v-6.21h1.49l2.29,3.48v-3.48h1.43v6.21H91.85z"/>
	</g>
	<g>
		<path class="st6" d="M39.84,350.19v-1.07l2.1-2.1c0.41-0.41,0.61-0.7,0.61-1.11c0-0.41-0.29-0.65-0.78-0.65
			c-0.54,0-1.09,0.24-1.61,0.62l-0.18-1.28c0.52-0.35,1.16-0.6,2.02-0.6c1.25,0,2.03,0.66,2.03,1.75c0,0.83-0.41,1.37-1.16,2.07
			l-1.22,1.17h2.3l0.19,1.2H39.84z"/>
		<path class="st6" d="M47.31,350.31c-1.52,0-2.54-1.13-2.54-3.16s1.02-3.16,2.54-3.16c1.51,0,2.52,1.13,2.52,3.16
			S48.82,350.31,47.31,350.31z M47.31,345.13c-0.7,0-1.04,0.72-1.04,2.02s0.34,2.02,1.04,2.02s1.04-0.72,1.04-2.02
			S48.01,345.13,47.31,345.13z"/>
		<path class="st6" d="M51.65,350.19v-4.68l-1.22,0.48l-0.17-1.17l1.56-0.72h1.34v6.09H51.65z"/>
		<path class="st6" d="M55.18,347.02c-0.56-0.33-0.89-0.77-0.89-1.38c0-1.04,0.93-1.66,2.18-1.66c1.3,0,2.11,0.66,2.11,1.57
			c0,0.58-0.35,1.05-0.92,1.41c0.73,0.37,1.1,0.81,1.1,1.55c0,1.04-0.88,1.79-2.33,1.79c-1.53,0-2.33-0.78-2.33-1.71
			C54.09,347.95,54.5,347.4,55.18,347.02z M56.44,349.28c0.5,0,0.9-0.29,0.9-0.76s-0.29-0.68-1.23-1.06c-0.39,0.26-0.65,0.59-0.65,1
			C55.46,348.97,55.89,349.28,56.44,349.28z M56.67,346.53c0.35-0.25,0.56-0.53,0.56-0.9c0-0.41-0.32-0.68-0.82-0.68
			c-0.48,0-0.77,0.29-0.77,0.67C55.63,346,55.9,346.23,56.67,346.53z"/>
	</g>
	<g>
		<path class="st6" d="M59.96,347.19v-2.73l-0.71,0.28l-0.1-0.68l0.91-0.42h0.78v3.55H59.96z"/>
		<path class="st6" d="M62.54,347.23l-0.83-0.15l1.24-2.71h-1.49l-0.11-0.73h2.5v0.68L62.54,347.23z"/>
	</g>
	<g>
		<path class="st6" d="M38.72,376.64v1.27h1.25l0.08,0.52h-1.33v1.84h-0.56v-4.14h2.15v0.52H38.72z"/>
		<path class="st6" d="M42.69,380.34c-1.16,0-1.9-0.86-1.9-2.14c0-1.28,0.75-2.15,1.91-2.15c1.17,0,1.9,0.86,1.9,2.14
			S43.86,380.34,42.69,380.34z M42.7,376.56c-0.82,0-1.33,0.64-1.33,1.63s0.51,1.63,1.33,1.63c0.82,0,1.33-0.64,1.33-1.63
			S43.51,376.56,42.7,376.56z"/>
		<path class="st6" d="M47.69,380.3l-1.27-1.79H46v1.75h-0.56v-4.14h1.13c0.85,0,1.37,0.42,1.37,1.18c0,0.63-0.37,1-0.91,1.15
			l1.23,1.73L47.69,380.3z M46.54,376.62H46v1.42h0.48c0.55,0,0.89-0.25,0.89-0.71C47.37,376.88,47.09,376.62,46.54,376.62z"/>
		<path class="st6" d="M48.85,380.26v-4.14h2.23v0.52h-1.67v1.2h1.3l0.08,0.52h-1.38v1.39h1.73v0.52H48.85z"/>
		<path class="st6" d="M53.56,380.34c-1.16,0-1.91-0.86-1.91-2.14c0-1.28,0.76-2.15,1.93-2.15c0.49,0,0.86,0.13,1.18,0.34
			l-0.08,0.58c-0.3-0.23-0.65-0.4-1.1-0.4c-0.84,0-1.34,0.64-1.34,1.63s0.5,1.63,1.34,1.63c0.44,0,0.83-0.17,1.16-0.41l0.08,0.53
			C54.49,380.17,54.03,380.34,53.56,380.34z"/>
		<path class="st6" d="M56.93,376.1h0.56l1.59,4.08l-0.55,0.12l-0.49-1.28h-1.7l-0.47,1.24h-0.57L56.93,376.1z M56.54,378.52h1.33
			l-0.67-1.76L56.54,378.52z"/>
		<path class="st6" d="M60.74,380.31c-0.45,0-0.85-0.11-1.16-0.27l0.08-0.58c0.28,0.19,0.67,0.35,1.09,0.35
			c0.43,0,0.74-0.23,0.74-0.63c0-0.38-0.17-0.53-0.79-0.82c-0.78-0.35-1.07-0.61-1.07-1.21c0-0.67,0.51-1.09,1.26-1.09
			c0.4,0,0.7,0.1,0.94,0.23l-0.09,0.56c-0.23-0.17-0.54-0.31-0.87-0.31c-0.47,0-0.68,0.25-0.68,0.56c0,0.32,0.16,0.47,0.79,0.76
			c0.8,0.37,1.08,0.64,1.08,1.27C62.04,379.86,61.51,380.31,60.74,380.31z"/>
		<path class="st6" d="M64.34,376.64v3.62h-0.56v-3.62h-1.32v-0.52h3.15l0.08,0.52H64.34z"/>
		<path class="st6" d="M67.45,380.26v-0.41l1.5-1.57c0.37-0.38,0.53-0.64,0.53-0.97c0-0.46-0.26-0.68-0.74-0.68
			c-0.42,0-0.79,0.2-1.1,0.48l-0.08-0.52c0.3-0.26,0.71-0.46,1.21-0.46c0.79,0,1.27,0.45,1.27,1.15c0,0.49-0.22,0.82-0.72,1.33
			l-1.16,1.18h1.86l0.07,0.48H67.45z"/>
		<path class="st6" d="M72.25,380.34c-0.93,0-1.55-0.76-1.55-2.1s0.62-2.1,1.55-2.1c0.92,0,1.55,0.76,1.55,2.1
			S73.17,380.34,72.25,380.34z M72.25,376.6c-0.62,0-1,0.58-1,1.63c0,1.06,0.38,1.63,1,1.63s1-0.58,1-1.63
			C73.24,377.18,72.87,376.6,72.25,376.6z"/>
		<path class="st6" d="M76.83,379.34v0.92h-0.5v-0.92h-2.03v-0.4l1.88-2.75h0.64v2.7h0.65v0.44H76.83z M76.34,376.8l-1.45,2.1h1.45
			V376.8z"/>
		<path class="st6" d="M79,380.34c-0.43,0-0.85-0.13-1.16-0.32l0.09-0.53c0.34,0.23,0.68,0.36,1.1,0.36c0.53,0,0.86-0.24,0.86-0.7
			c0-0.49-0.33-0.79-1.11-0.79h-0.19l-0.08-0.48h0.31c0.67,0,0.99-0.24,0.99-0.68c0-0.35-0.25-0.6-0.76-0.6
			c-0.42,0-0.77,0.15-1.07,0.39l-0.08-0.5c0.31-0.23,0.67-0.37,1.18-0.37c0.91,0,1.29,0.52,1.29,1.06c0,0.5-0.31,0.79-0.74,0.94
			c0.52,0.14,0.82,0.46,0.82,1.03C80.44,379.86,79.88,380.34,79,380.34z"/>
	</g>
	<g>
		<path class="st6" d="M81.31,378.26v-2.04l-0.49,0.19l-0.04-0.25l0.57-0.26h0.27v2.37H81.31z"/>
	</g>
	<g>
		<path class="st6" d="M492.96,332.19v-6.21h0.62v6.21H492.96z"/>
		<path class="st6" d="M499.52,332.19l-3.63-5.23v5.23h-0.58v-6.21h0.58l3.52,5.07v-5.07H500v6.21H499.52z"/>
		<path class="st6" d="M503.76,326.54v5.65h-0.62v-5.65h-2v-0.56h4.57l0.09,0.56H503.76z"/>
		<path class="st6" d="M506.88,332.19v-6.21h3.24v0.56h-2.62v2.13h2.07l0.09,0.56h-2.16v2.41h2.71v0.56H506.88z"/>
		<path class="st6" d="M514.85,332.25l-2.02-2.81h-0.79v2.75h-0.62v-6.21H513c1.21,0,1.99,0.61,1.99,1.69c0,0.96-0.63,1.51-1.49,1.7
			l1.98,2.75L514.85,332.25z M512.98,326.53h-0.94v2.39h0.83c0.92,0,1.5-0.41,1.5-1.21C514.36,326.95,513.88,326.53,512.98,326.53z"
			/>
		<path class="st6" d="M520.73,332.19l-3.63-5.23v5.23h-0.58v-6.21h0.58l3.52,5.07v-5.07h0.58v6.21H520.73z"/>
		<path class="st6" d="M524.84,325.94h0.64l2.43,6.18l-0.6,0.13l-0.8-2.07h-2.72l-0.76,2.01h-0.63L524.84,325.94z M524,329.63h2.29
			l-1.14-2.97L524,329.63z"/>
		<path class="st6" d="M530.37,326.54v5.65h-0.62v-5.65h-2v-0.56h4.57l0.09,0.56H530.37z"/>
		<path class="st6" d="M533.56,332.19v-6.21h0.62v6.21H533.56z"/>
		<path class="st6" d="M538.42,332.31c-1.66,0-2.79-1.31-2.79-3.21c0-1.91,1.15-3.23,2.81-3.23c1.67,0,2.8,1.31,2.8,3.21
			C541.24,330.97,540.09,332.31,538.42,332.31z M538.43,326.42c-1.3,0-2.16,1.08-2.16,2.66c0,1.59,0.86,2.67,2.17,2.67
			c1.3,0,2.16-1.08,2.16-2.66C540.6,327.5,539.73,326.42,538.43,326.42z"/>
		<path class="st6" d="M546.82,332.19l-3.63-5.23v5.23h-0.58v-6.21h0.58l3.52,5.07v-5.07h0.58v6.21H546.82z"/>
		<path class="st6" d="M550.93,325.94h0.64l2.43,6.18l-0.6,0.13l-0.8-2.07h-2.72l-0.76,2.01h-0.63L550.93,325.94z M550.09,329.63
			h2.29l-1.14-2.97L550.09,329.63z"/>
		<path class="st6" d="M555.18,332.19v-6.21h0.62v5.65h2.39l0.09,0.56H555.18z"/>
	</g>
	<g>
		<path class="st6" d="M494.42,334.95h1.69l2.16,6.05l-1.55,0.25l-0.46-1.35h-2.16l-0.41,1.29h-1.5L494.42,334.95z M494.47,338.7
			h1.41l-0.69-2.16L494.47,338.7z"/>
		<path class="st6" d="M502.24,341.25l-1.37-2.2h-0.39v2.13h-1.53v-6.21h2.17c1.5,0,2.39,0.68,2.39,1.96c0,0.86-0.43,1.45-1.17,1.76
			l1.5,2.29L502.24,341.25z M500.97,336.14h-0.5v1.81h0.48c0.67,0,1.04-0.32,1.04-0.92C502,336.45,501.64,336.14,500.97,336.14z"/>
		<path class="st6" d="M507.78,341.25l-1.37-2.2h-0.39v2.13h-1.53v-6.21h2.17c1.5,0,2.38,0.68,2.38,1.96c0,0.86-0.43,1.45-1.17,1.76
			l1.5,2.29L507.78,341.25z M506.51,336.14h-0.5v1.81h0.48c0.67,0,1.04-0.32,1.04-0.92C507.54,336.45,507.18,336.14,506.51,336.14z"
			/>
		<path class="st6" d="M510.08,341.19v-6.21h1.54v6.21H510.08z"/>
		<path class="st6" d="M516.09,341.22h-1.58l-2.18-6.05l1.67-0.25l1.39,4.36l1.35-4.29h1.59L516.09,341.22z"/>
		<path class="st6" d="M520.05,334.95h1.69l2.16,6.05l-1.55,0.25l-0.46-1.35h-2.16l-0.41,1.29h-1.5L520.05,334.95z M520.1,338.7
			h1.41l-0.69-2.16L520.1,338.7z"/>
		<path class="st6" d="M524.58,341.19v-6.21h1.54v4.88h1.91l0.21,1.33H524.58z"/>
		<path class="st6" d="M530.88,341.26c-0.84,0-1.54-0.18-2.17-0.47l0.22-1.31c0.64,0.34,1.35,0.58,1.97,0.58
			c0.44,0,0.75-0.19,0.75-0.56c0-0.35-0.18-0.51-1.05-0.85c-1.24-0.48-1.78-0.88-1.78-1.91c0-1.2,0.94-1.84,2.13-1.84
			c0.81,0,1.33,0.15,1.87,0.41l-0.23,1.3c-0.56-0.32-1.14-0.5-1.62-0.5c-0.47,0-0.69,0.2-0.69,0.49c0,0.31,0.17,0.47,0.95,0.77
			c1.36,0.5,1.89,0.96,1.89,1.95C533.1,340.67,532.11,341.26,530.88,341.26z"/>
	</g>
	<g>
		<path class="st6" d="M533.57,338.19v-0.62l1.22-1.22c0.24-0.24,0.36-0.41,0.36-0.65c0-0.24-0.17-0.38-0.46-0.38
			c-0.31,0-0.63,0.14-0.94,0.36l-0.1-0.75c0.3-0.2,0.68-0.35,1.18-0.35c0.73,0,1.18,0.38,1.18,1.02c0,0.48-0.24,0.8-0.68,1.21
			l-0.71,0.68h1.34l0.11,0.7H533.57z"/>
		<path class="st6" d="M537.92,338.26c-0.89,0-1.48-0.66-1.48-1.84c0-1.19,0.59-1.84,1.48-1.84c0.88,0,1.47,0.66,1.47,1.84
			C539.39,337.6,538.81,338.26,537.92,338.26z M537.92,335.24c-0.41,0-0.61,0.42-0.61,1.18s0.2,1.18,0.61,1.18s0.6-0.42,0.6-1.18
			S538.33,335.24,537.92,335.24z"/>
	</g>
	<g>
		<path class="st6" d="M493.86,346.7h0.56l1.6,4.08l-0.55,0.12l-0.49-1.28h-1.7l-0.47,1.24h-0.57L493.86,346.7z M493.47,349.12h1.33
			l-0.67-1.76L493.47,349.12z"/>
		<path class="st6" d="M498.95,350.9l-1.27-1.79h-0.43v1.75h-0.56v-4.14h1.13c0.85,0,1.37,0.42,1.37,1.18c0,0.63-0.37,1-0.91,1.15
			l1.23,1.73L498.95,350.9z M497.8,347.22h-0.54v1.42h0.48c0.55,0,0.89-0.25,0.89-0.71C498.63,347.48,498.35,347.22,497.8,347.22z"
			/>
		<path class="st6" d="M502.37,350.9l-1.27-1.79h-0.43v1.75h-0.56v-4.14h1.13c0.85,0,1.37,0.42,1.37,1.18c0,0.63-0.37,1-0.91,1.15
			l1.23,1.73L502.37,350.9z M501.22,347.22h-0.54v1.42h0.48c0.55,0,0.89-0.25,0.89-0.71C502.05,347.48,501.77,347.22,501.22,347.22z
			"/>
		<path class="st6" d="M503.57,350.86v-4.14h0.56v4.14H503.57z"/>
		<path class="st6" d="M506.94,350.88h-0.5l-1.59-4.08l0.56-0.12l1.29,3.44l1.26-3.4h0.59L506.94,350.88z"/>
		<path class="st6" d="M509.26,350.86v-4.14h0.56v4.14H509.26z"/>
		<path class="st6" d="M513.65,350.86l-2.27-3.22v3.22h-0.52v-4.14h0.5l2.2,3.1v-3.1h0.52v4.14H513.65z"/>
		<path class="st6" d="M516.92,350.94c-1.31,0-2.01-0.86-2.01-2.14c0-1.28,0.73-2.15,1.97-2.15c0.55,0,0.94,0.14,1.26,0.35
			l-0.09,0.58c-0.31-0.24-0.69-0.41-1.17-0.41c-0.91,0-1.38,0.64-1.38,1.63s0.49,1.63,1.43,1.63c0.36,0,0.6-0.07,0.84-0.2v-1.1
			h-0.95l-0.08-0.52h1.59v1.94C517.97,350.76,517.47,350.94,516.92,350.94z"/>
	</g>
	<g>
		<path class="st6" d="M492.76,358.06v-4.14h0.56v4.14H492.76z"/>
		<path class="st6" d="M497.15,358.06l-2.27-3.22v3.22h-0.52v-4.14h0.5l2.2,3.1v-3.1h0.52v4.14H497.15z"/>
		<path class="st6" d="M501.19,353.9h0.56l1.6,4.08l-0.55,0.12l-0.49-1.28h-1.7l-0.47,1.24h-0.57L501.19,353.9z M500.8,356.32h1.33
			l-0.67-1.76L500.8,356.32z"/>
		<path class="st6" d="M506.28,358.1l-1.27-1.79h-0.43v1.75h-0.56v-4.14h1.13c0.85,0,1.37,0.42,1.37,1.18c0,0.63-0.37,1-0.91,1.15
			l1.23,1.73L506.28,358.1z M505.13,354.42h-0.54v1.42h0.48c0.55,0,0.89-0.25,0.89-0.71C505.96,354.68,505.68,354.42,505.13,354.42z
			"/>
		<path class="st6" d="M507.44,358.06v-4.14h2.23v0.52h-1.67v1.2h1.29l0.08,0.52h-1.38v1.39h1.73v0.52H507.44z"/>
		<path class="st6" d="M511.75,353.9h0.56l1.6,4.08l-0.55,0.12l-0.49-1.28h-1.7l-0.47,1.24h-0.57L511.75,353.9z M511.36,356.32h1.33
			l-0.67-1.76L511.36,356.32z"/>
	</g>
	<g>
		<path class="st6" d="M232.89,332.19l-3.63-5.23v5.23h-0.59v-6.21h0.59l3.52,5.07v-5.07h0.58v6.21H232.89z"/>
		<path class="st6" d="M236.99,325.94h0.64l2.43,6.18l-0.6,0.13l-0.8-2.07h-2.72l-0.77,2.01h-0.63L236.99,325.94z M236.15,329.63
			h2.29l-1.14-2.97L236.15,329.63z"/>
		<path class="st6" d="M242.52,326.54v5.65h-0.62v-5.65h-2v-0.56h4.57l0.09,0.56H242.52z"/>
		<path class="st6" d="M245.71,332.19v-6.21h0.62v6.21H245.71z"/>
		<path class="st6" d="M250.57,332.31c-1.66,0-2.79-1.31-2.79-3.21c0-1.91,1.15-3.23,2.81-3.23c1.67,0,2.8,1.31,2.8,3.21
			C253.39,330.97,252.24,332.31,250.57,332.31z M250.58,326.42c-1.31,0-2.16,1.08-2.16,2.66c0,1.59,0.86,2.67,2.17,2.67
			c1.31,0,2.16-1.08,2.16-2.66C252.75,327.5,251.88,326.42,250.58,326.42z"/>
		<path class="st6" d="M258.98,332.19l-3.63-5.23v5.23h-0.59v-6.21h0.59l3.52,5.07v-5.07h0.58v6.21H258.98z"/>
		<path class="st6" d="M263.08,325.94h0.64l2.43,6.18l-0.6,0.13l-0.8-2.07h-2.72l-0.77,2.01h-0.63L263.08,325.94z M262.24,329.63
			h2.29l-1.14-2.97L262.24,329.63z"/>
		<path class="st6" d="M267.33,332.19v-6.21h0.62v5.65h2.4l0.09,0.56H267.33z"/>
	</g>
	<g>
		<path class="st6" d="M231.25,341.31c-1.97,0-3.06-1.3-3.06-3.21c0-1.93,1.18-3.23,3.1-3.23c0.77,0,1.4,0.18,1.9,0.46l-0.21,1.34
			c-0.47-0.3-1.02-0.53-1.66-0.53c-1.07,0-1.59,0.79-1.59,1.95c0,1.17,0.54,1.99,1.61,1.99c0.34,0,0.58-0.07,0.84-0.2v-1.11h-1.08
			l-0.18-1.14h2.6v3.02C232.87,341.07,232.1,341.31,231.25,341.31z"/>
		<path class="st6" d="M237.83,341.25l-1.37-2.2h-0.39v2.13h-1.53v-6.21h2.17c1.5,0,2.39,0.68,2.39,1.96c0,0.86-0.43,1.45-1.17,1.76
			l1.5,2.29L237.83,341.25z M236.57,336.14h-0.5v1.81h0.48c0.67,0,1.04-0.32,1.04-0.92C237.59,336.45,237.23,336.14,236.57,336.14z"
			/>
		<path class="st6" d="M242.75,341.31c-1.78,0-2.95-1.3-2.95-3.21c0-1.93,1.17-3.23,2.97-3.23s2.96,1.3,2.96,3.21
			C245.73,339.99,244.56,341.31,242.75,341.31z M242.76,336.07c-0.89,0-1.42,0.78-1.42,2.02s0.53,2.02,1.42,2.02
			c0.9,0,1.42-0.78,1.42-2.02S243.66,336.07,242.76,336.07z"/>
		<path class="st6" d="M248.55,341.26c-0.84,0-1.54-0.18-2.17-0.47l0.23-1.31c0.64,0.34,1.35,0.58,1.97,0.58
			c0.44,0,0.75-0.19,0.75-0.56c0-0.35-0.18-0.51-1.05-0.85c-1.24-0.48-1.78-0.88-1.78-1.91c0-1.2,0.94-1.84,2.12-1.84
			c0.81,0,1.33,0.15,1.87,0.41l-0.23,1.3c-0.56-0.32-1.14-0.5-1.62-0.5c-0.47,0-0.69,0.2-0.69,0.49c0,0.31,0.17,0.47,0.95,0.77
			c1.36,0.5,1.89,0.96,1.89,1.95C250.78,340.67,249.79,341.26,248.55,341.26z"/>
		<path class="st6" d="M253.45,341.26c-0.84,0-1.54-0.18-2.17-0.47l0.23-1.31c0.64,0.34,1.35,0.58,1.97,0.58
			c0.44,0,0.75-0.19,0.75-0.56c0-0.35-0.18-0.51-1.05-0.85c-1.24-0.48-1.78-0.88-1.78-1.91c0-1.2,0.94-1.84,2.12-1.84
			c0.81,0,1.33,0.15,1.87,0.41l-0.23,1.3c-0.56-0.32-1.14-0.5-1.62-0.5c-0.47,0-0.69,0.2-0.69,0.49c0,0.31,0.17,0.47,0.95,0.77
			c1.36,0.5,1.89,0.96,1.89,1.95C255.67,340.67,254.68,341.26,253.45,341.26z"/>
	</g>
	<g>
		<path class="st6" d="M230.59,350.19h-2.18v-6.21h2.14c2.16,0,3.29,1.25,3.29,3.1C233.84,348.92,232.69,350.19,230.59,350.19z
			 M230.51,345.17h-0.56v3.82h0.56c1.1,0,1.78-0.58,1.78-1.91C232.29,345.78,231.56,345.17,230.51,345.17z"/>
		<path class="st6" d="M237.48,350.31c-1.78,0-2.95-1.3-2.95-3.21c0-1.93,1.17-3.23,2.97-3.23s2.96,1.3,2.96,3.21
			C240.46,348.99,239.29,350.31,237.48,350.31z M237.49,345.07c-0.89,0-1.42,0.78-1.42,2.02s0.53,2.02,1.42,2.02
			c0.9,0,1.42-0.78,1.42-2.02S238.39,345.07,237.49,345.07z"/>
		<path class="st6" d="M246.87,350.19l-0.27-4.13l-1.18,4.14h-1.44l-1.18-4.14l-0.27,4.13h-1.34l0.45-6.21h1.99l1.21,4.28l1.22-4.28
			h1.94l0.45,6.21H246.87z"/>
		<path class="st6" d="M249.39,350.19v-6.21h3.87v1.24h-2.36v1.14h1.8l0.2,1.23h-2v1.34h2.44v1.25H249.39z"/>
		<path class="st6" d="M256.12,350.26c-0.84,0-1.54-0.18-2.17-0.47l0.23-1.31c0.64,0.34,1.35,0.58,1.97,0.58
			c0.44,0,0.75-0.19,0.75-0.56c0-0.35-0.18-0.51-1.05-0.85c-1.24-0.48-1.78-0.88-1.78-1.91c0-1.2,0.94-1.84,2.12-1.84
			c0.81,0,1.33,0.15,1.87,0.41l-0.23,1.3c-0.56-0.32-1.14-0.5-1.62-0.5c-0.47,0-0.69,0.2-0.69,0.49c0,0.31,0.17,0.47,0.95,0.77
			c1.36,0.5,1.89,0.96,1.89,1.95C258.35,349.67,257.36,350.26,256.12,350.26z"/>
		<path class="st6" d="M262.03,345.28v4.91h-1.55v-4.91h-1.76v-1.31h4.92l0.22,1.31H262.03z"/>
		<path class="st6" d="M264.58,350.19v-6.21h1.54v6.21H264.58z"/>
		<path class="st6" d="M270.08,350.3c-1.88,0-3.02-1.26-3.02-3.21c0-1.93,1.21-3.22,2.97-3.22c0.7,0,1.27,0.15,1.72,0.41l-0.22,1.39
			c-0.38-0.29-0.85-0.5-1.39-0.5c-0.94,0-1.55,0.71-1.55,1.93c0,1.24,0.69,1.93,1.63,1.93c0.5,0,0.95-0.17,1.41-0.43l0.2,1.26
			C271.34,350.12,270.77,350.3,270.08,350.3z"/>
	</g>
	<g>
		<path class="st6" d="M230.35,357.13h-0.4v2.06h-1.54v-6.21h2c1.51,0,2.44,0.68,2.44,2.03
			C232.85,356.41,231.85,357.13,230.35,357.13z M230.32,354.14h-0.39v1.83h0.36c0.68,0,1.06-0.3,1.06-0.94
			C231.35,354.44,231,354.14,230.32,354.14z"/>
		<path class="st6" d="M236.86,359.25l-1.37-2.2h-0.39v2.13h-1.53v-6.21h2.17c1.5,0,2.39,0.68,2.39,1.96c0,0.86-0.43,1.45-1.17,1.76
			l1.5,2.29L236.86,359.25z M235.59,354.14h-0.5v1.81h0.48c0.67,0,1.04-0.32,1.04-0.92C236.62,354.45,236.26,354.14,235.59,354.14z"
			/>
		<path class="st6" d="M241.78,359.31c-1.78,0-2.95-1.3-2.95-3.21c0-1.93,1.17-3.23,2.97-3.23s2.96,1.3,2.96,3.21
			C244.76,357.99,243.59,359.31,241.78,359.31z M241.79,354.07c-0.89,0-1.42,0.78-1.42,2.02s0.53,2.02,1.42,2.02
			c0.9,0,1.42-0.78,1.42-2.02S242.69,354.07,241.79,354.07z"/>
		<path class="st6" d="M247.84,359.19h-2.18v-6.21h2.14c2.16,0,3.29,1.25,3.29,3.1C251.09,357.92,249.94,359.19,247.84,359.19z
			 M247.76,354.17h-0.56v3.82h0.56c1.1,0,1.78-0.58,1.78-1.91C249.54,354.78,248.81,354.17,247.76,354.17z"/>
		<path class="st6" d="M254.52,359.29c-1.52,0-2.58-0.82-2.58-2.56v-3.75h1.55v3.75c0,0.8,0.36,1.27,1.05,1.27
			c0.7,0,1.05-0.46,1.05-1.25v-3.76h1.55v3.75C257.14,358.45,256.02,359.29,254.52,359.29z"/>
		<path class="st6" d="M260.99,359.3c-1.88,0-3.02-1.26-3.02-3.21c0-1.93,1.21-3.22,2.97-3.22c0.7,0,1.27,0.15,1.72,0.41l-0.22,1.39
			c-0.38-0.29-0.85-0.5-1.39-0.5c-0.94,0-1.55,0.71-1.55,1.93c0,1.24,0.69,1.93,1.63,1.93c0.5,0,0.95-0.17,1.41-0.43l0.2,1.26
			C262.25,359.12,261.68,359.3,260.99,359.3z"/>
		<path class="st6" d="M266.54,354.28v4.91h-1.55v-4.91h-1.76v-1.31h4.92l0.22,1.31H266.54z"/>
	</g>
	<g>
		<path class="st6" d="M269.37,356.19v-2.73l-0.71,0.28l-0.1-0.68l0.91-0.42h0.78v3.55H269.37z"/>
		<path class="st6" d="M271.42,354.34c-0.33-0.19-0.52-0.45-0.52-0.8c0-0.61,0.54-0.97,1.27-0.97c0.76,0,1.23,0.38,1.23,0.91
			c0,0.34-0.2,0.61-0.54,0.82c0.43,0.22,0.64,0.47,0.64,0.9c0,0.6-0.51,1.04-1.36,1.04c-0.89,0-1.36-0.46-1.36-1
			C270.79,354.89,271.03,354.56,271.42,354.34z M272.16,355.66c0.29,0,0.52-0.17,0.52-0.44s-0.17-0.4-0.72-0.62
			c-0.23,0.15-0.38,0.34-0.38,0.58C271.59,355.48,271.84,355.66,272.16,355.66z M272.29,354.06c0.21-0.15,0.33-0.31,0.33-0.52
			c0-0.24-0.19-0.4-0.48-0.4c-0.28,0-0.45,0.17-0.45,0.39C271.69,353.75,271.84,353.88,272.29,354.06z"/>
	</g>
	<g>
		<path class="st6" d="M229.5,367.83c-0.84-0.73-1.28-1.43-1.28-2.44c0-1.06,0.54-1.86,1.52-2.48l0.08,0.5
			c-0.71,0.51-1.03,1.13-1.03,1.99c0,0.83,0.37,1.54,1.22,2.31L229.5,367.83z"/>
		<path class="st6" d="M232.46,365.62v1.64h-0.56v-1.64l-1.46-2.42l0.56-0.12l1.19,2.02l1.16-1.98h0.62L232.46,365.62z"/>
		<path class="st6" d="M234.59,367.27v-4.14h2.23v0.52h-1.67v1.2h1.3l0.08,0.52h-1.38v1.39h1.73v0.52H234.59z"/>
		<path class="st6" d="M238.9,363.11h0.56l1.59,4.08l-0.55,0.12l-0.49-1.28h-1.7l-0.47,1.24h-0.57L238.9,363.11z M238.51,365.53
			h1.33l-0.67-1.76L238.51,365.53z"/>
		<path class="st6" d="M243.99,367.31l-1.27-1.79h-0.43v1.75h-0.56v-4.14h1.13c0.85,0,1.37,0.42,1.37,1.18c0,0.63-0.37,1-0.91,1.15
			l1.23,1.73L243.99,367.31z M242.84,363.63h-0.54v1.42h0.48c0.55,0,0.89-0.25,0.89-0.71C243.67,363.88,243.39,363.63,242.84,363.63
			z"/>
		<path class="st6" d="M246.47,367.27v-4.14h2.23v0.52h-1.67v1.2h1.3l0.08,0.52h-1.38v1.39h1.73v0.52H246.47z"/>
		<path class="st6" d="M252.28,367.27l-2.27-3.22v3.22h-0.52v-4.14h0.5l2.19,3.1v-3.1h0.52v4.14H252.28z"/>
		<path class="st6" d="M254.88,367.27h-1.18v-4.14h1.2c1.44,0,2.18,0.85,2.18,2.06C257.08,366.42,256.3,367.27,254.88,367.27z
			 M254.92,363.64h-0.65v3.12h0.64c1,0,1.59-0.5,1.59-1.56C256.5,364.16,255.87,363.64,254.92,363.64z"/>
	</g>
	<g>
		<path class="st6" d="M232.47,374.47l-0.26-3.29l-1.31,3.31h-0.43l-1.31-3.31l-0.25,3.29h-0.53l0.33-4.14h0.7l1.29,3.39l1.29-3.39
			h0.69l0.32,4.14H232.47z"/>
		<path class="st6" d="M235.2,370.31h0.56l1.59,4.08l-0.55,0.12l-0.49-1.28h-1.7l-0.47,1.24h-0.57L235.2,370.31z M234.81,372.73
			h1.33l-0.67-1.76L234.81,372.73z"/>
		<path class="st6" d="M240.28,374.51l-1.27-1.79h-0.43v1.75h-0.56v-4.14h1.13c0.85,0,1.37,0.42,1.37,1.18c0,0.63-0.37,1-0.91,1.15
			l1.23,1.73L240.28,374.51z M239.13,370.83h-0.54v1.42h0.48c0.55,0,0.89-0.25,0.89-0.71C239.97,371.08,239.68,370.83,239.13,370.83
			z"/>
		<path class="st6" d="M243.15,374.54c-1.16,0-1.91-0.86-1.91-2.14c0-1.28,0.76-2.15,1.93-2.15c0.49,0,0.86,0.13,1.18,0.34
			l-0.08,0.58c-0.3-0.23-0.65-0.4-1.1-0.4c-0.84,0-1.34,0.64-1.34,1.63s0.5,1.63,1.34,1.63c0.44,0,0.83-0.17,1.16-0.41l0.08,0.53
			C244.08,374.38,243.62,374.54,243.15,374.54z"/>
		<path class="st6" d="M247.93,374.47v-1.91h-2.09v1.91h-0.56v-4.14h0.56v1.71h2.09v-1.71h0.56v4.14H247.93z"/>
		<path class="st6" d="M250.58,374.47v-0.41l1.5-1.57c0.37-0.38,0.53-0.64,0.53-0.97c0-0.46-0.26-0.68-0.74-0.68
			c-0.42,0-0.79,0.2-1.1,0.48l-0.08-0.52c0.3-0.26,0.71-0.46,1.21-0.46c0.79,0,1.27,0.45,1.27,1.15c0,0.49-0.22,0.82-0.72,1.33
			l-1.16,1.18h1.86l0.07,0.48H250.58z"/>
		<path class="st6" d="M255.38,374.54c-0.93,0-1.55-0.76-1.55-2.1s0.62-2.1,1.55-2.1c0.92,0,1.55,0.76,1.55,2.1
			S256.3,374.54,255.38,374.54z M255.38,370.81c-0.62,0-1,0.58-1,1.63c0,1.06,0.38,1.63,1,1.63s1-0.58,1-1.63
			C256.38,371.38,256,370.81,255.38,370.81z"/>
		<path class="st6" d="M258.22,374.47v-3.5l-0.85,0.32l-0.06-0.43l0.97-0.45h0.47v4.07H258.22z"/>
		<path class="st6" d="M260.44,372.34c-0.41-0.21-0.68-0.47-0.68-0.96c0-0.6,0.52-1.04,1.3-1.04c0.79,0,1.27,0.44,1.27,1.01
			c0,0.46-0.32,0.77-0.71,1c0.53,0.25,0.85,0.52,0.85,1.1c0,0.62-0.55,1.1-1.44,1.1c-0.93,0-1.43-0.51-1.43-1.12
			C259.6,372.95,259.95,372.6,260.44,372.34z M261.04,374.09c0.53,0,0.89-0.26,0.89-0.67c0-0.43-0.26-0.58-1.03-0.89
			c-0.46,0.2-0.76,0.51-0.76,0.88C260.14,373.84,260.52,374.09,261.04,374.09z M261.18,372.15c0.37-0.2,0.62-0.48,0.62-0.79
			c0-0.35-0.27-0.57-0.76-0.57c-0.5,0-0.76,0.26-0.76,0.58C260.28,371.74,260.53,371.88,261.18,372.15z"/>
		<path class="st6" d="M263.51,370.14c0.84,0.73,1.28,1.43,1.28,2.44c0,1.06-0.54,1.86-1.52,2.48l-0.08-0.5
			c0.71-0.51,1.03-1.13,1.03-1.98c0-0.83-0.37-1.54-1.22-2.31L263.51,370.14z"/>
	</g>
	<g>
		<path class="st6" d="M144.93,333.33l-3.63-5.23v5.23h-0.59v-6.21h0.59l3.52,5.07v-5.07h0.58v6.21H144.93z"/>
		<path class="st6" d="M149.04,327.08h0.64l2.43,6.18l-0.6,0.14l-0.8-2.07h-2.72l-0.77,2.01h-0.63L149.04,327.08z M148.2,330.77
			h2.29l-1.14-2.97L148.2,330.77z"/>
		<path class="st6" d="M154.57,327.67v5.65h-0.62v-5.65h-2v-0.56h4.57l0.09,0.56H154.57z"/>
		<path class="st6" d="M157.76,333.33v-6.21h0.62v6.21H157.76z"/>
		<path class="st6" d="M162.62,333.45c-1.66,0-2.79-1.31-2.79-3.21c0-1.91,1.15-3.23,2.81-3.23c1.67,0,2.8,1.31,2.8,3.21
			C165.43,332.11,164.29,333.45,162.62,333.45z M162.63,327.56c-1.31,0-2.16,1.08-2.16,2.66c0,1.59,0.86,2.67,2.17,2.67
			c1.31,0,2.16-1.08,2.16-2.66C164.79,328.64,163.93,327.56,162.63,327.56z"/>
		<path class="st6" d="M171.02,333.33l-3.63-5.23v5.23h-0.59v-6.21h0.59l3.52,5.07v-5.07h0.58v6.21H171.02z"/>
		<path class="st6" d="M175.13,327.08h0.64l2.43,6.18l-0.6,0.14l-0.8-2.07h-2.72l-0.77,2.01h-0.63L175.13,327.08z M174.29,330.77
			h2.29l-1.14-2.97L174.29,330.77z"/>
		<path class="st6" d="M179.37,333.33v-6.21h0.62v5.65h2.4l0.09,0.56H179.37z"/>
	</g>
	<g>
		<path class="st6" d="M142.39,340.27H142v2.06h-1.54v-6.21h2c1.51,0,2.44,0.68,2.44,2.03C144.9,339.55,143.9,340.27,142.39,340.27z
			 M142.37,337.28h-0.39v1.83h0.36c0.68,0,1.06-0.3,1.06-0.94C143.4,337.58,143.05,337.28,142.37,337.28z"/>
		<path class="st6" d="M148.35,342.45c-1.78,0-2.95-1.3-2.95-3.21c0-1.93,1.17-3.23,2.97-3.23s2.96,1.3,2.96,3.21
			C151.33,341.13,150.16,342.45,148.35,342.45z M148.36,337.21c-0.89,0-1.42,0.78-1.42,2.02s0.53,2.02,1.42,2.02
			c0.9,0,1.42-0.78,1.42-2.02S149.26,337.21,148.36,337.21z"/>
		<path class="st6" d="M154.17,340.27h-0.4v2.06h-1.54v-6.21h2c1.51,0,2.44,0.68,2.44,2.03
			C156.68,339.55,155.68,340.27,154.17,340.27z M154.15,337.28h-0.39v1.83h0.36c0.68,0,1.06-0.3,1.06-0.94
			C155.18,337.58,154.83,337.28,154.15,337.28z"/>
		<path class="st6" d="M159.92,342.43c-1.52,0-2.58-0.82-2.58-2.56v-3.75h1.55v3.75c0,0.8,0.36,1.27,1.05,1.27
			c0.7,0,1.05-0.46,1.05-1.25v-3.76h1.55v3.75C162.54,341.59,161.42,342.43,159.92,342.43z"/>
		<path class="st6" d="M163.6,342.33v-6.21h1.54V341h1.91l0.21,1.33H163.6z"/>
		<path class="st6" d="M169.75,336.09h1.69l2.16,6.05l-1.55,0.25l-0.46-1.35h-2.16l-0.41,1.29h-1.5L169.75,336.09z M169.81,339.83
			h1.4l-0.69-2.16L169.81,339.83z"/>
		<path class="st6" d="M176.5,337.42v4.91h-1.55v-4.91h-1.76v-1.31h4.92l0.22,1.31H176.5z"/>
		<path class="st6" d="M179.06,342.33v-6.21h1.54v6.21H179.06z"/>
		<path class="st6" d="M184.5,342.45c-1.78,0-2.95-1.3-2.95-3.21c0-1.93,1.17-3.23,2.97-3.23s2.96,1.3,2.96,3.21
			C187.48,341.13,186.3,342.45,184.5,342.45z M184.5,337.21c-0.89,0-1.42,0.78-1.42,2.02s0.53,2.02,1.42,2.02
			c0.9,0,1.42-0.78,1.42-2.02S185.4,337.21,184.5,337.21z"/>
		<path class="st6" d="M192.26,342.33l-2.45-3.72v3.72h-1.43v-6.21h1.49l2.29,3.48v-3.48h1.43v6.21H192.26z"/>
	</g>
	<g>
		<path class="st6" d="M143.29,351.45c-1.97,0-3.06-1.3-3.06-3.21c0-1.93,1.18-3.23,3.1-3.23c0.77,0,1.4,0.18,1.9,0.46l-0.21,1.34
			c-0.47-0.3-1.02-0.53-1.66-0.53c-1.07,0-1.59,0.79-1.59,1.95c0,1.17,0.54,1.99,1.61,1.99c0.34,0,0.58-0.07,0.84-0.2v-1.11h-1.08
			l-0.18-1.14h2.6v3.02C144.91,351.21,144.15,351.45,143.29,351.45z"/>
		<path class="st6" d="M149.88,351.39l-1.37-2.2h-0.39v2.13h-1.53v-6.21h2.17c1.5,0,2.39,0.68,2.39,1.96c0,0.86-0.43,1.45-1.17,1.76
			l1.5,2.29L149.88,351.39z M148.61,346.28h-0.5v1.81h0.48c0.67,0,1.04-0.32,1.04-0.92C149.64,346.59,149.28,346.28,148.61,346.28z"
			/>
		<path class="st6" d="M154.8,351.45c-1.78,0-2.95-1.3-2.95-3.21c0-1.93,1.17-3.23,2.97-3.23s2.96,1.3,2.96,3.21
			C157.78,350.13,156.6,351.45,154.8,351.45z M154.8,346.21c-0.89,0-1.42,0.78-1.42,2.02s0.53,2.02,1.42,2.02
			c0.9,0,1.42-0.78,1.42-2.02S155.7,346.21,154.8,346.21z"/>
		<path class="st6" d="M164.95,351.33h-1.56l-1.07-4.01l-1.07,4.01h-1.55l-1.64-6.01l1.67-0.26l0.94,3.95l1.01-3.89h1.55l1.01,3.89
			l0.89-3.89h1.52L164.95,351.33z"/>
		<path class="st6" d="M170.33,346.42v4.91h-1.55v-4.91h-1.76v-1.31h4.92l0.22,1.31H170.33z"/>
		<path class="st6" d="M176.54,351.33v-2.54h-2.15v2.54h-1.54v-6.21h1.54v2.32h2.15v-2.32h1.55v6.21H176.54z"/>
	</g>
	<g>
		<path class="st6" d="M140.25,360.33v-1.07l2.1-2.1c0.41-0.41,0.61-0.7,0.61-1.11c0-0.41-0.29-0.65-0.78-0.65
			c-0.54,0-1.09,0.24-1.61,0.62l-0.18-1.28c0.52-0.35,1.16-0.6,2.02-0.6c1.25,0,2.03,0.66,2.03,1.75c0,0.83-0.41,1.37-1.16,2.07
			l-1.22,1.17h2.3l0.19,1.2H140.25z"/>
		<path class="st6" d="M147.72,360.45c-1.52,0-2.54-1.13-2.54-3.16s1.02-3.16,2.54-3.16c1.51,0,2.52,1.13,2.52,3.16
			S149.23,360.45,147.72,360.45z M147.72,355.27c-0.7,0-1.04,0.72-1.04,2.02s0.34,2.02,1.04,2.02s1.04-0.72,1.04-2.02
			S148.42,355.27,147.72,355.27z"/>
		<path class="st6" d="M152.06,360.33v-4.68l-1.22,0.48l-0.17-1.17l1.56-0.72h1.34v6.09H152.06z"/>
		<path class="st6" d="M156.46,360.45c-0.78,0-1.49-0.19-2-0.48l0.19-1.18c0.5,0.27,1.07,0.45,1.67,0.45c0.59,0,0.96-0.25,0.96-0.72
			c0-0.52-0.37-0.78-1.32-0.78h-0.37l-0.18-1.1h0.57c0.86,0,1.19-0.28,1.19-0.7c0-0.39-0.29-0.6-0.87-0.6c-0.56,0-1.1,0.2-1.56,0.5
			l-0.19-1.15c0.48-0.32,1.17-0.56,1.97-0.56c1.36,0,2.13,0.66,2.13,1.6c0,0.78-0.44,1.18-1.07,1.41c0.73,0.23,1.17,0.68,1.17,1.49
			C158.76,359.81,157.77,360.45,156.46,360.45z"/>
		<path class="st6" d="M159.46,358.36v-1.3h2.46v1.3H159.46z"/>
		<path class="st6" d="M166.74,359.11v1.22h-1.41v-1.22h-2.82v-0.94l2.57-3.94h1.67v3.86h0.86v1.02H166.74z M165.33,355.68
			l-1.56,2.41h1.56V355.68z"/>
		<path class="st6" d="M170.04,360.45c-0.78,0-1.49-0.19-2-0.48l0.19-1.18c0.5,0.27,1.07,0.45,1.67,0.45c0.59,0,0.96-0.25,0.96-0.72
			c0-0.52-0.37-0.78-1.32-0.78h-0.37l-0.18-1.1h0.57c0.86,0,1.19-0.28,1.19-0.7c0-0.39-0.29-0.6-0.87-0.6c-0.56,0-1.1,0.2-1.56,0.5
			l-0.19-1.15c0.48-0.32,1.17-0.56,1.97-0.56c1.36,0,2.13,0.66,2.13,1.6c0,0.78-0.44,1.18-1.07,1.41c0.73,0.23,1.17,0.68,1.17,1.49
			C172.34,359.81,171.36,360.45,170.04,360.45z"/>
	</g>
	<g>
		<path class="st6" d="M173.38,357.33v-2.73l-0.71,0.28l-0.1-0.68l0.91-0.42h0.78v3.55H173.38z"/>
	</g>
	<g>
		<path class="st6" d="M140.95,365.71v1.27h1.25l0.08,0.52h-1.33v1.84h-0.56v-4.14h2.15v0.52H140.95z"/>
		<path class="st6" d="M144.91,369.41c-1.16,0-1.9-0.86-1.9-2.14c0-1.28,0.75-2.15,1.91-2.15c1.17,0,1.9,0.86,1.9,2.14
			S146.08,369.41,144.91,369.41z M144.92,365.63c-0.82,0-1.33,0.64-1.33,1.63s0.51,1.63,1.33,1.63c0.82,0,1.33-0.64,1.33-1.63
			S145.73,365.63,144.92,365.63z"/>
		<path class="st6" d="M149.91,369.37l-1.27-1.79h-0.43v1.75h-0.56v-4.14h1.13c0.85,0,1.37,0.42,1.37,1.18c0,0.63-0.37,1-0.91,1.15
			l1.23,1.73L149.91,369.37z M148.76,365.69h-0.54v1.42h0.48c0.55,0,0.89-0.25,0.89-0.71C149.59,365.95,149.31,365.69,148.76,365.69
			z"/>
		<path class="st6" d="M151.07,369.33v-4.14h2.23v0.52h-1.67v1.2h1.3l0.08,0.52h-1.38v1.39h1.73v0.52H151.07z"/>
		<path class="st6" d="M155.78,369.41c-1.16,0-1.91-0.86-1.91-2.14c0-1.28,0.76-2.15,1.93-2.15c0.49,0,0.86,0.13,1.18,0.34
			l-0.08,0.58c-0.3-0.23-0.65-0.4-1.1-0.4c-0.84,0-1.34,0.64-1.34,1.63s0.5,1.63,1.34,1.63c0.44,0,0.83-0.17,1.16-0.41l0.08,0.53
			C156.71,369.24,156.25,369.41,155.78,369.41z"/>
		<path class="st6" d="M159.15,365.17h0.56l1.59,4.08l-0.55,0.12l-0.49-1.28h-1.7l-0.47,1.24h-0.57L159.15,365.17z M158.76,367.59
			h1.33l-0.67-1.76L158.76,367.59z"/>
		<path class="st6" d="M162.96,369.38c-0.45,0-0.85-0.11-1.16-0.27l0.08-0.58c0.28,0.19,0.67,0.35,1.09,0.35
			c0.43,0,0.74-0.23,0.74-0.63c0-0.38-0.17-0.53-0.79-0.82c-0.78-0.35-1.07-0.61-1.07-1.21c0-0.67,0.51-1.09,1.26-1.09
			c0.4,0,0.7,0.1,0.94,0.23l-0.09,0.56c-0.23-0.17-0.54-0.31-0.87-0.31c-0.47,0-0.68,0.25-0.68,0.56c0,0.32,0.16,0.47,0.79,0.76
			c0.8,0.37,1.08,0.64,1.08,1.27C164.27,368.93,163.73,369.38,162.96,369.38z"/>
		<path class="st6" d="M166.57,365.71v3.62H166v-3.62h-1.32v-0.52h3.15l0.08,0.52H166.57z"/>
	</g>
</g>
</svg>
