<?xml version="1.0" encoding="utf-8"?>
<!-- Generator: Adobe Illustrator 24.0.0, SVG Export Plug-In . SVG Version: 6.00 Build 0)  -->
<svg version="1.1" id="Layer_1" xmlns="http://www.w3.org/2000/svg" xmlns:xlink="http://www.w3.org/1999/xlink" x="0px" y="0px"
	 viewBox="0 0 595.28 841.89" style="enable-background:new 0 0 595.28 841.89;" xml:space="preserve">
<style type="text/css">
	.st0{fill:none;stroke:#EF7918;stroke-width:0.97;stroke-linecap:round;stroke-linejoin:round;}
	.st1{fill:#EF7918;}
	.st2{fill:#F7C500;}
	.st3{fill:#8AB5E1;}
	.st4{fill:#95806C;}
	.st5{fill:#C83736;}
	.st6{fill:none;stroke:#F7C500;stroke-width:2.024;stroke-linecap:round;}
	.st7{fill:none;stroke:#C83736;stroke-width:2.024;stroke-linecap:round;}
	.st8{fill:none;stroke:#8AB5E1;stroke-width:2.024;stroke-linecap:round;}
	.st9{fill:none;stroke:#EF7918;stroke-width:2.024;stroke-linecap:round;}
	.st10{fill:none;stroke:#95806C;stroke-width:2.024;stroke-linecap:round;}
	.st11{fill:#003F65;}
	.st12{fill:none;stroke:#8AB5E1;stroke-width:0.5;stroke-miterlimit:10;}
	.st13{fill:none;stroke:#95806C;stroke-width:0.25;stroke-miterlimit:10;}
	.st14{fill:none;stroke:#F7C500;stroke-width:0.312;stroke-miterlimit:10;}
	.st15{fill:none;stroke:#C83736;stroke-width:0.167;stroke-miterlimit:10;}
	.st16{fill:none;stroke:#C83736;stroke-width:0.809;stroke-miterlimit:10;}
</style>
<g>
	<polyline class="st0" points="407.6,596.23 410.99,596.23 412.45,602.53 414.39,589.92 415.84,596.23 419.23,596.23 	"/>
	<g>
		<path class="st1" d="M427.35,601.74c0-0.77,0.63-1.4,1.4-1.4h2.07c0.37,0,0.72,0.15,0.98,0.41c0.26,0.27,0.41,0.62,0.41,0.99v1.8
			h-0.77v-1.8c0-0.18-0.14-0.32-0.32-0.32s-0.32,0.15-0.32,0.32v1.8h-2.02v-1.8c0-0.18-0.14-0.32-0.32-0.32s-0.32,0.15-0.32,0.32
			v1.8h-0.77V601.74z M426.61,601.74v1.82c0,0.4,0.32,0.72,0.72,0.72h4.88c0.4,0,0.72-0.32,0.72-0.72v-1.82
			c0-0.57-0.22-1.1-0.62-1.51c-0.4-0.4-0.93-0.63-1.5-0.63h-2.07C427.57,599.61,426.61,600.57,426.61,601.74 M427.76,590.93
			c0,0.76-0.62,1.38-1.38,1.38s-1.38-0.62-1.38-1.38c0-0.76,0.62-1.38,1.38-1.38S427.76,590.17,427.76,590.93 M428.49,590.93
			c0-1.16-0.95-2.11-2.11-2.11s-2.11,0.95-2.11,2.11c0,1.16,0.95,2.11,2.11,2.11S428.49,592.1,428.49,590.93 M430.19,594.9
			c-0.52-0.8-1.4-1.28-2.37-1.28h-2.9c-0.75,0-1.45,0.29-1.98,0.82c-0.51,0.51-0.8,1.19-0.82,1.91c-0.01,0.02-0.01,0.05-0.01,0.07
			v2.53c0,0.47,0.38,0.86,0.86,0.86h4.12c0.2,0,0.37-0.16,0.37-0.37c0-0.2-0.16-0.36-0.37-0.36h-2.52v-2.65
			c0-0.18-0.14-0.32-0.32-0.32c-0.18,0-0.32,0.14-0.32,0.32v2.65h-0.95c-0.07,0-0.12-0.06-0.12-0.12v-2.46
			c0-0.02,0.01-0.05,0.01-0.07c0-1.14,0.93-2.07,2.07-2.07h2.9c0.72,0,1.37,0.35,1.75,0.95c0.07,0.11,0.19,0.17,0.31,0.17
			c0.07,0,0.14-0.02,0.2-0.06C430.25,595.3,430.3,595.07,430.19,594.9 M430.68,597.43c0,0.49-0.4,0.89-0.89,0.89
			c-0.49,0-0.89-0.4-0.89-0.89s0.4-0.89,0.89-0.89C430.28,596.54,430.68,596.94,430.68,597.43 M431.41,597.43
			c0-0.89-0.73-1.62-1.62-1.62c-0.89,0-1.62,0.73-1.62,1.62s0.73,1.62,1.62,1.62C430.68,599.05,431.41,598.32,431.41,597.43
			 M434.99,593.55c0,0.67-0.54,1.21-1.21,1.21c-0.67,0-1.21-0.54-1.21-1.21s0.54-1.21,1.21-1.21
			C434.45,592.34,434.99,592.88,434.99,593.55 M435.72,593.55c0-1.07-0.87-1.94-1.94-1.94c-1.07,0-1.94,0.87-1.94,1.94
			c0,1.07,0.87,1.94,1.94,1.94C434.85,595.49,435.72,594.62,435.72,593.55 M437.62,598.62c0-1.42-1.15-2.57-2.57-2.57h-2.54
			c-0.23,0-0.46,0.03-0.68,0.09c-0.2,0.05-0.31,0.26-0.26,0.45c0.05,0.16,0.19,0.27,0.35,0.27c0.03,0,0.07,0,0.1-0.01
			c0.16-0.04,0.32-0.07,0.49-0.07h2.54c1.01,0,1.83,0.82,1.83,1.84v2.27c0,0.04-0.04,0.08-0.08,0.08h-1v-2.35
			c0-0.18-0.14-0.32-0.32-0.32c-0.18,0-0.32,0.14-0.32,0.32v2.35h-1.55c-0.2,0-0.37,0.16-0.37,0.37c0,0.2,0.16,0.37,0.37,0.37h3.2
			c0.44,0,0.81-0.36,0.81-0.81"/>
	</g>
	<g>
		<path class="st2" d="M509.05,752.93c-1.35,0.85-2.72,1.32-4.28,1.32c-3.1,0-5.38-1.84-5.38-5.74c0-4.09,2.96-6.64,6.89-6.64
			c4.2,0,7.14,2.72,7.14,7.85c0,6.67-4.64,10.29-10.98,11.45l-0.52-3.62C505.51,756.86,508.11,755.46,509.05,752.93z M509.29,750
			v-0.05c0-3.32-1.29-4.75-3.02-4.75c-1.57,0-2.64,1.1-2.64,3.02c0,1.89,0.88,2.8,2.64,2.8C507.29,751.01,508.28,750.68,509.29,750z
			"/>
	</g>
	<g>
		<path class="st2" d="M515.09,751.24v-2.44h2.29v2.44H515.09z"/>
		<path class="st2" d="M520.67,745.86c0.69-0.45,1.42-0.69,2.31-0.69c1.49,0,2.72,0.94,2.72,2.89c0,2.04-1.54,3.37-3.55,3.37
			c-2.18,0-3.68-1.4-3.68-4.05c0-3.43,2.36-5.29,5.54-5.9l0.28,1.87C522.48,743.75,521.14,744.5,520.67,745.86z M520.58,747.39
			c0.01,1.61,0.68,2.32,1.56,2.32c0.82,0,1.36-0.58,1.36-1.5s-0.45-1.37-1.34-1.37C521.6,746.84,521.09,747.05,520.58,747.39z"/>
		<path class="st2" d="M529.04,747.19c-1.33,0-2.38-0.99-2.38-2.82c0-1.83,1.06-2.82,2.38-2.82s2.37,0.99,2.37,2.8
			C531.41,746.18,530.36,747.19,529.04,747.19z M529.04,742.74c-0.61,0-0.91,0.59-0.91,1.63c0,0.99,0.31,1.62,0.91,1.62
			s0.88-0.61,0.88-1.63C529.92,743.35,529.62,742.74,529.04,742.74z M528.76,751.04l3.09-4.71l3.03-4.76l1.27,0.28l-3.1,4.74
			l-3.03,4.74L528.76,751.04z M535.87,751.35c-1.33,0-2.36-0.99-2.36-2.8c0-1.84,1.05-2.83,2.36-2.83c1.33,0,2.38,0.99,2.38,2.82
			C538.25,750.35,537.18,751.35,535.87,751.35z M535.87,746.92c-0.61,0-0.89,0.61-0.89,1.63c0,1.01,0.31,1.61,0.89,1.61
			c0.59,0,0.89-0.61,0.89-1.63C536.76,747.53,536.45,746.92,535.87,746.92z"/>
	</g>
	<g>
		<path class="st3" d="M422.25,699.59v-14.27l-3.71,1.46l-0.52-3.57l4.75-2.2h4.09v18.58H422.25z"/>
		<path class="st3" d="M437.45,699.94c-4.64,0-7.74-3.43-7.74-9.63s3.1-9.63,7.74-9.63c4.61,0,7.69,3.43,7.69,9.63
			S442.06,699.94,437.45,699.94z M437.45,684.16c-2.14,0-3.18,2.2-3.18,6.15s1.04,6.15,3.18,6.15c2.14,0,3.16-2.2,3.16-6.15
			S439.59,684.16,437.45,684.16z"/>
	</g>
	<g>
		<path class="st3" d="M446.82,690.04v-2.44h2.29v2.44H446.82z"/>
		<path class="st3" d="M454.75,685.99c-0.69,0.44-1.4,0.68-2.21,0.68c-1.6,0-2.78-0.95-2.78-2.96c0-2.11,1.53-3.43,3.55-3.43
			c2.17,0,3.68,1.4,3.68,4.05c0,3.44-2.39,5.31-5.66,5.91l-0.27-1.87C452.92,688.02,454.26,687.29,454.75,685.99z M454.87,684.48
			v-0.03c0-1.71-0.67-2.45-1.56-2.45c-0.81,0-1.36,0.57-1.36,1.56c0,0.98,0.45,1.44,1.36,1.44
			C453.84,685,454.35,684.83,454.87,684.48z"/>
		<path class="st3" d="M460.43,685.99c-1.33,0-2.38-0.99-2.38-2.82c0-1.83,1.06-2.82,2.38-2.82s2.36,0.99,2.36,2.8
			C462.79,684.99,461.74,685.99,460.43,685.99z M460.43,681.54c-0.61,0-0.91,0.59-0.91,1.63c0,0.99,0.31,1.61,0.91,1.61
			s0.88-0.61,0.88-1.63C461.3,682.15,461.01,681.54,460.43,681.54z M460.14,689.84l3.09-4.72l3.03-4.76l1.27,0.28l-3.1,4.74
			l-3.03,4.74L460.14,689.84z M467.25,690.15c-1.33,0-2.37-0.99-2.37-2.8c0-1.84,1.05-2.83,2.37-2.83c1.33,0,2.38,0.99,2.38,2.82
			C469.63,689.15,468.57,690.15,467.25,690.15z M467.25,685.72c-0.61,0-0.89,0.61-0.89,1.63c0,1,0.31,1.61,0.89,1.61
			c0.59,0,0.89-0.61,0.89-1.63C468.14,686.33,467.83,685.72,467.25,685.72z"/>
	</g>
	<g>
		<path class="st4" d="M489.07,709.61v-14.27l-3.71,1.46l-0.52-3.57l4.75-2.2h4.09v18.58H489.07z"/>
		<path class="st4" d="M504.28,709.97c-4.64,0-7.74-3.43-7.74-9.63s3.1-9.63,7.74-9.63c4.61,0,7.69,3.43,7.69,9.63
			S508.89,709.97,504.28,709.97z M504.28,694.19c-2.14,0-3.18,2.2-3.18,6.15s1.04,6.15,3.18,6.15c2.14,0,3.16-2.2,3.16-6.15
			S506.42,694.19,504.28,694.19z"/>
	</g>
	<g>
		<path class="st4" d="M513.64,700.07v-2.44h2.29v2.44H513.64z"/>
		<path class="st4" d="M523.54,698.16v1.91h-2.22v-1.91h-4.43v-1.47l4.04-6.2h2.62v6.08h1.35v1.6H523.54z M521.32,692.76l-2.45,3.79
			h2.45V692.76z"/>
		<path class="st4" d="M528.07,696.02c-1.33,0-2.38-0.99-2.38-2.82c0-1.83,1.06-2.82,2.38-2.82s2.36,0.99,2.36,2.8
			C530.44,695.01,529.39,696.02,528.07,696.02z M528.07,691.57c-0.61,0-0.91,0.59-0.91,1.63c0,0.99,0.31,1.62,0.91,1.62
			s0.88-0.61,0.88-1.63C528.95,692.18,528.65,691.57,528.07,691.57z M527.79,699.87l3.09-4.71l3.03-4.76l1.27,0.28l-3.1,4.74
			l-3.03,4.74L527.79,699.87z M534.9,700.18c-1.33,0-2.37-0.99-2.37-2.8c0-1.84,1.05-2.83,2.37-2.83c1.33,0,2.38,0.99,2.38,2.82
			C537.28,699.18,536.21,700.18,534.9,700.18z M534.9,695.75c-0.61,0-0.89,0.61-0.89,1.63c0,1.01,0.31,1.61,0.89,1.61
			c0.59,0,0.89-0.61,0.89-1.63C535.79,696.36,535.48,695.75,534.9,695.75z"/>
	</g>
	<g>
		<path class="st2" d="M499.48,772.84v-6.9h4.3v1.38h-2.62v1.27h2l0.22,1.37h-2.22v1.49h2.71v1.39H499.48z"/>
		<path class="st2" d="M507.24,772.84h-2.42v-6.9h2.38c2.4,0,3.65,1.39,3.65,3.44S509.57,772.84,507.24,772.84z M507.15,767.27
			h-0.62v4.24h0.62c1.22,0,1.98-0.64,1.98-2.12C509.13,767.94,508.32,767.27,507.15,767.27z"/>
		<path class="st2" d="M514.66,772.95c-1.69,0-2.87-0.91-2.87-2.84v-4.17h1.72v4.16c0,0.89,0.4,1.41,1.17,1.41
			c0.78,0,1.17-0.51,1.17-1.39v-4.18h1.72v4.16C517.57,772.02,516.33,772.95,514.66,772.95z"/>
		<path class="st2" d="M521.85,772.96c-2.09,0-3.35-1.4-3.35-3.56c0-2.14,1.34-3.58,3.3-3.58c0.78,0,1.41,0.17,1.91,0.45l-0.24,1.54
			c-0.42-0.32-0.94-0.56-1.54-0.56c-1.04,0-1.72,0.79-1.72,2.14c0,1.38,0.77,2.14,1.81,2.14c0.56,0,1.05-0.19,1.57-0.48l0.22,1.4
			C523.25,772.76,522.61,772.96,521.85,772.96z"/>
		<path class="st2" d="M526.73,765.91h1.88l2.4,6.72l-1.72,0.28l-0.51-1.5h-2.4l-0.46,1.43h-1.67L526.73,765.91z M526.79,770.07
			h1.56l-0.77-2.4L526.79,770.07z"/>
		<path class="st2" d="M534.23,767.39v5.45h-1.72v-5.45h-1.95v-1.45h5.46l0.24,1.45H534.23z"/>
		<path class="st2" d="M537.08,772.84v-6.9h1.71v6.9H537.08z"/>
		<path class="st2" d="M543.11,772.97c-1.98,0-3.28-1.44-3.28-3.57c0-2.14,1.3-3.59,3.3-3.59s3.29,1.44,3.29,3.57
			S545.12,772.97,543.11,772.97z M543.12,767.15c-0.99,0-1.58,0.87-1.58,2.24s0.59,2.24,1.58,2.24c1,0,1.58-0.87,1.58-2.24
			S544.12,767.15,543.12,767.15z"/>
		<path class="st2" d="M551.74,772.84l-2.72-4.13v4.13h-1.59v-6.9h1.66l2.54,3.86v-3.86h1.59v6.9H551.74z"/>
	</g>
	<g>
		<path class="st2" d="M503.88,782.9l-0.59-0.67c-0.54,0.48-1.18,0.72-1.9,0.72c-1.38,0-2.28-0.69-2.28-1.89
			c0-0.96,0.54-1.57,1.35-2.05c-0.4-0.5-0.56-0.87-0.56-1.47c0-1.05,0.77-1.73,2.03-1.73c0.76,0,1.4,0.19,1.85,0.44l-0.22,1.34
			c-0.52-0.28-1.02-0.47-1.47-0.47c-0.41,0-0.61,0.23-0.61,0.52c0,0.26,0.12,0.47,0.41,0.79l1.41,1.64
			c0.13-0.38,0.22-0.82,0.29-1.35l1.28,0.28c-0.12,0.84-0.34,1.52-0.68,2.1l1.38,1.58L503.88,782.9z M502.53,781.37l-1.31-1.49
			c-0.38,0.3-0.55,0.62-0.55,1c0,0.51,0.37,0.86,0.98,0.86C501.95,781.74,502.25,781.63,502.53,781.37z"/>
		<path class="st2" d="M511.47,777.39v5.45h-1.72v-5.45h-1.95v-1.45h5.46l0.24,1.45H511.47z"/>
		<path class="st2" d="M517.92,782.91l-1.52-2.44h-0.43v2.37h-1.7v-6.9h2.41c1.67,0,2.65,0.76,2.65,2.18c0,0.96-0.48,1.61-1.3,1.96
			l1.67,2.54L517.92,782.91z M516.51,777.23h-0.55v2.01h0.53c0.74,0,1.16-0.36,1.16-1.02C517.65,777.58,517.25,777.23,516.51,777.23
			z"/>
		<path class="st2" d="M522.42,775.91h1.88l2.4,6.72l-1.72,0.28l-0.51-1.5h-2.4l-0.46,1.43h-1.67L522.42,775.91z M522.48,780.07
			h1.56l-0.77-2.4L522.48,780.07z"/>
		<path class="st2" d="M527.5,782.84v-6.9h1.71v6.9H527.5z"/>
		<path class="st2" d="M534.81,782.84l-2.72-4.13v4.13h-1.59v-6.9h1.66l2.54,3.86v-3.86h1.59v6.9H534.81z"/>
		<path class="st2" d="M537.6,782.84v-6.9h1.71v6.9H537.6z"/>
		<path class="st2" d="M544.91,782.84l-2.72-4.13v4.13h-1.59v-6.9h1.66l2.54,3.86v-3.86h1.59v6.9H544.91z"/>
		<path class="st2" d="M550.8,782.97c-2.19,0-3.4-1.44-3.4-3.57c0-2.14,1.31-3.59,3.44-3.59c0.85,0,1.56,0.2,2.11,0.51l-0.23,1.49
			c-0.52-0.33-1.13-0.59-1.84-0.59c-1.19,0-1.77,0.88-1.77,2.17c0,1.3,0.6,2.21,1.79,2.21c0.38,0,0.65-0.08,0.93-0.22v-1.23h-1.2
			l-0.2-1.27h2.89v3.36C552.6,782.71,551.75,782.97,550.8,782.97z"/>
	</g>
	<g>
		<path class="st3" d="M422.83,711.71l-1.52-2.44h-0.43v2.37h-1.7v-6.9h2.41c1.67,0,2.65,0.76,2.65,2.18c0,0.96-0.48,1.61-1.3,1.96
			l1.67,2.54L422.83,711.71z M421.42,706.03h-0.55v2.01h0.53c0.74,0,1.16-0.36,1.16-1.02C422.56,706.38,422.17,706.03,421.42,706.03
			z"/>
		<path class="st3" d="M425.35,711.64v-6.9h4.3v1.38h-2.62v1.27h2l0.22,1.37h-2.22v1.49h2.71v1.39H425.35z"/>
		<path class="st3" d="M433.98,706.19v5.45h-1.72v-5.45h-1.95v-1.45h5.46l0.24,1.45H433.98z"/>
		<path class="st3" d="M437.88,704.71h1.88l2.4,6.72l-1.72,0.28l-0.51-1.5h-2.4l-0.46,1.43h-1.67L437.88,704.71z M437.94,708.87
			h1.56l-0.77-2.4L437.94,708.87z"/>
		<path class="st3" d="M442.96,711.64v-6.9h1.71v6.9H442.96z"/>
		<path class="st3" d="M445.97,711.64v-6.9h1.71v5.42h2.12l0.23,1.48H445.97z"/>
	</g>
	<g>
		<path class="st3" d="M422.47,716.19v5.45h-1.72v-5.45h-1.95v-1.45h5.46l0.24,1.45H422.47z"/>
		<path class="st3" d="M428.92,721.71l-1.52-2.44h-0.43v2.37h-1.7v-6.9h2.41c1.67,0,2.65,0.76,2.65,2.18c0,0.96-0.48,1.61-1.3,1.96
			l1.67,2.54L428.92,721.71z M427.51,716.03h-0.55v2.01h0.53c0.74,0,1.16-0.36,1.16-1.02C428.65,716.38,428.25,716.03,427.51,716.03
			z"/>
		<path class="st3" d="M433.42,714.71h1.88l2.4,6.72l-1.72,0.28l-0.51-1.5h-2.4l-0.46,1.43h-1.67L433.42,714.71z M433.48,718.87
			h1.56l-0.77-2.4L433.48,718.87z"/>
		<path class="st3" d="M440.87,721.64h-2.42v-6.9h2.38c2.4,0,3.65,1.39,3.65,3.44S443.2,721.64,440.87,721.64z M440.78,716.07h-0.62
			v4.24h0.62c1.22,0,1.98-0.64,1.98-2.12C442.76,716.74,441.95,716.07,440.78,716.07z"/>
		<path class="st3" d="M445.51,721.64v-6.9h4.3v1.38h-2.62v1.27h2l0.22,1.37h-2.22v1.49h2.71v1.39H445.51z"/>
	</g>
	<g>
		<path class="st1" d="M411.11,627.09v-14.27l-3.71,1.46l-0.52-3.57l4.75-2.2h4.09v18.58H411.11z"/>
		<path class="st1" d="M424.34,627.45c-2.31,0-4.2-0.52-5.82-1.26l0.6-3.82c1.51,0.74,3.27,1.35,5.19,1.35
			c1.87,0,3.24-0.93,3.24-2.61c0-1.51-1.02-2.42-2.83-2.42c-1.13,0-1.95,0.25-2.66,0.55l-2.83-0.63l0.63-10.07h10.95l0.58,3.71
			h-8.07l-0.22,3.29c0.63-0.17,1.48-0.33,2.63-0.33c3.6,0,6.09,1.98,6.09,5.68C431.83,625.14,428.7,627.45,424.34,627.45z"/>
	</g>
	<g>
		<path class="st1" d="M433.51,617.55v-2.44h2.29v2.44H433.51z"/>
		<path class="st1" d="M437.31,617.55v-1.68l3.3-3.3c0.64-0.65,0.96-1.1,0.96-1.74c0-0.65-0.45-1.02-1.23-1.02
			c-0.85,0-1.71,0.38-2.54,0.98l-0.28-2.01c0.82-0.55,1.83-0.95,3.17-0.95c1.97,0,3.19,1.03,3.19,2.75c0,1.3-0.65,2.15-1.83,3.26
			l-1.91,1.84h3.63l0.3,1.88H437.31z"/>
		<path class="st1" d="M447.47,613.5c-1.33,0-2.38-0.99-2.38-2.82c0-1.83,1.06-2.82,2.38-2.82s2.37,0.99,2.37,2.8
			C449.84,612.49,448.79,613.5,447.47,613.5z M447.47,609.05c-0.61,0-0.91,0.59-0.91,1.63c0,0.99,0.31,1.62,0.91,1.62
			s0.88-0.61,0.88-1.63C448.35,609.66,448.05,609.05,447.47,609.05z M447.19,617.35l3.09-4.71l3.03-4.76l1.27,0.28l-3.1,4.74
			l-3.03,4.74L447.19,617.35z M454.3,617.66c-1.33,0-2.36-0.99-2.36-2.8c0-1.84,1.05-2.83,2.36-2.83c1.33,0,2.38,0.99,2.38,2.82
			C456.68,616.66,455.62,617.66,454.3,617.66z M454.3,613.23c-0.61,0-0.89,0.61-0.89,1.63c0,1.01,0.31,1.61,0.89,1.61
			c0.59,0,0.89-0.61,0.89-1.63C455.19,613.84,454.88,613.23,454.3,613.23z"/>
	</g>
	<g>
		<path class="st1" d="M412.15,639.14v-2.82h-2.39v2.82h-1.71v-6.9h1.71v2.58h2.39v-2.58h1.72v6.9H412.15z"/>
		<path class="st1" d="M415.12,639.14v-6.9h4.3v1.38h-2.62v1.27h2l0.22,1.37h-2.22v1.49h2.71v1.39H415.12z"/>
		<path class="st1" d="M422.45,632.22h1.88l2.4,6.72l-1.72,0.28l-0.51-1.5h-2.4l-0.46,1.43h-1.67L422.45,632.22z M422.51,636.38
			h1.56l-0.77-2.4L422.51,636.38z"/>
		<path class="st1" d="M427.49,639.14v-6.9h1.71v5.42h2.12l0.23,1.48H427.49z"/>
		<path class="st1" d="M434.69,633.7v5.45h-1.72v-5.45h-1.95v-1.45h5.46l0.24,1.45H434.69z"/>
		<path class="st1" d="M441.59,639.14v-2.82h-2.39v2.82h-1.71v-6.9h1.71v2.58h2.39v-2.58h1.72v6.9H441.59z"/>
		<path class="st1" d="M447.66,639.27c-2.09,0-3.35-1.4-3.35-3.56c0-2.14,1.34-3.58,3.3-3.58c0.78,0,1.41,0.17,1.91,0.45l-0.24,1.54
			c-0.42-0.32-0.94-0.56-1.54-0.56c-1.04,0-1.72,0.79-1.72,2.14c0,1.38,0.77,2.14,1.81,2.14c0.56,0,1.05-0.19,1.57-0.48l0.22,1.4
			C449.06,639.06,448.42,639.27,447.66,639.27z"/>
		<path class="st1" d="M452.53,632.22h1.88l2.4,6.72l-1.72,0.28l-0.51-1.5h-2.4l-0.46,1.43h-1.67L452.53,632.22z M452.59,636.38
			h1.56l-0.77-2.4L452.59,636.38z"/>
		<path class="st1" d="M461.22,639.22l-1.52-2.44h-0.43v2.37h-1.7v-6.9h2.41c1.67,0,2.65,0.76,2.65,2.18c0,0.96-0.48,1.61-1.3,1.96
			l1.67,2.54L461.22,639.22z M459.81,633.54h-0.55v2.01h0.53c0.74,0,1.16-0.36,1.16-1.02C460.95,633.89,460.55,633.54,459.81,633.54
			z"/>
		<path class="st1" d="M463.73,639.14v-6.9h4.3v1.38h-2.62v1.27h2l0.22,1.37h-2.22v1.49h2.71v1.39H463.73z"/>
	</g>
	<g>
		<path class="st1" d="M412.46,649.2l-0.59-0.67c-0.54,0.48-1.18,0.72-1.9,0.72c-1.38,0-2.28-0.69-2.28-1.89
			c0-0.96,0.54-1.57,1.35-2.05c-0.4-0.5-0.56-0.87-0.56-1.47c0-1.05,0.77-1.73,2.03-1.73c0.76,0,1.4,0.19,1.85,0.44l-0.22,1.34
			c-0.52-0.28-1.02-0.47-1.47-0.47c-0.41,0-0.61,0.23-0.61,0.52c0,0.26,0.12,0.47,0.41,0.79l1.41,1.64
			c0.13-0.38,0.22-0.82,0.29-1.35l1.28,0.28c-0.12,0.84-0.34,1.52-0.68,2.1l1.38,1.58L412.46,649.2z M411.11,647.68l-1.31-1.49
			c-0.38,0.3-0.55,0.62-0.55,1c0,0.51,0.37,0.86,0.98,0.86C410.52,648.05,410.83,647.94,411.11,647.68z"/>
		<path class="st1" d="M418.89,649.22c-0.93,0-1.71-0.2-2.41-0.52l0.25-1.46c0.71,0.38,1.5,0.64,2.19,0.64
			c0.49,0,0.83-0.21,0.83-0.62c0-0.39-0.2-0.57-1.17-0.94c-1.38-0.53-1.98-0.98-1.98-2.12c0-1.33,1.04-2.04,2.36-2.04
			c0.9,0,1.48,0.17,2.08,0.46l-0.26,1.44c-0.62-0.36-1.27-0.56-1.8-0.56c-0.52,0-0.77,0.22-0.77,0.54c0,0.35,0.19,0.52,1.05,0.85
			c1.51,0.55,2.1,1.07,2.1,2.17C421.36,648.56,420.26,649.22,418.89,649.22z"/>
		<path class="st1" d="M425.31,649.27c-1.98,0-3.28-1.44-3.28-3.57c0-2.14,1.3-3.59,3.3-3.59s3.29,1.44,3.29,3.57
			S427.32,649.27,425.31,649.27z M425.32,643.46c-0.99,0-1.58,0.87-1.58,2.24s0.59,2.24,1.58,2.24c1,0,1.58-0.87,1.58-2.24
			S426.32,643.46,425.32,643.46z"/>
		<path class="st1" d="M432.73,649.27c-2.09,0-3.35-1.4-3.35-3.56c0-2.14,1.34-3.58,3.3-3.58c0.78,0,1.41,0.17,1.91,0.45l-0.24,1.54
			c-0.42-0.32-0.94-0.56-1.54-0.56c-1.04,0-1.72,0.79-1.72,2.14c0,1.38,0.77,2.14,1.81,2.14c0.56,0,1.05-0.19,1.57-0.48l0.22,1.4
			C434.13,649.06,433.49,649.27,432.73,649.27z"/>
		<path class="st1" d="M435.72,649.14v-6.9h1.71v6.9H435.72z"/>
		<path class="st1" d="M440.71,642.22h1.88l2.4,6.72l-1.72,0.28l-0.51-1.5h-2.4l-0.46,1.43h-1.67L440.71,642.22z M440.77,646.38
			h1.56l-0.77-2.4L440.77,646.38z"/>
		<path class="st1" d="M445.75,649.14v-6.9h1.71v5.42h2.12l0.23,1.48H445.75z"/>
	</g>
	<g>
		<path class="st1" d="M410.03,652.22h1.88l2.4,6.72l-1.72,0.28l-0.51-1.5h-2.4l-0.46,1.43h-1.67L410.03,652.22z M410.09,656.38
			h1.56l-0.77-2.4L410.09,656.38z"/>
		<path class="st1" d="M417.2,659.22c-0.93,0-1.71-0.2-2.41-0.52l0.25-1.46c0.71,0.38,1.5,0.64,2.19,0.64
			c0.49,0,0.83-0.21,0.83-0.62c0-0.39-0.2-0.57-1.17-0.94c-1.38-0.53-1.98-0.98-1.98-2.12c0-1.33,1.04-2.04,2.36-2.04
			c0.9,0,1.48,0.17,2.08,0.46l-0.26,1.44c-0.62-0.36-1.27-0.56-1.8-0.56c-0.52,0-0.77,0.22-0.77,0.54c0,0.35,0.19,0.52,1.05,0.85
			c1.51,0.55,2.1,1.07,2.1,2.17C419.67,658.56,418.57,659.22,417.2,659.22z"/>
		<path class="st1" d="M422.65,659.22c-0.93,0-1.71-0.2-2.41-0.52l0.25-1.46c0.71,0.38,1.5,0.64,2.19,0.64
			c0.49,0,0.83-0.21,0.83-0.62c0-0.39-0.2-0.57-1.17-0.94c-1.38-0.53-1.98-0.98-1.98-2.12c0-1.33,1.04-2.04,2.36-2.04
			c0.9,0,1.48,0.17,2.08,0.46l-0.26,1.44c-0.62-0.36-1.27-0.56-1.8-0.56c-0.52,0-0.77,0.22-0.77,0.54c0,0.35,0.19,0.52,1.05,0.85
			c1.51,0.55,2.1,1.07,2.1,2.17C425.12,658.56,424.02,659.22,422.65,659.22z"/>
		<path class="st1" d="M426.09,659.14v-6.9h1.71v6.9H426.09z"/>
		<path class="st1" d="M431.23,659.22c-0.93,0-1.71-0.2-2.41-0.52l0.25-1.46c0.71,0.38,1.5,0.64,2.19,0.64
			c0.49,0,0.83-0.21,0.83-0.62c0-0.39-0.2-0.57-1.17-0.94c-1.38-0.53-1.98-0.98-1.98-2.12c0-1.33,1.04-2.04,2.36-2.04
			c0.9,0,1.48,0.17,2.08,0.46l-0.26,1.44c-0.62-0.36-1.27-0.56-1.8-0.56c-0.52,0-0.77,0.22-0.77,0.54c0,0.35,0.19,0.52,1.05,0.85
			c1.51,0.55,2.1,1.07,2.1,2.17C433.7,658.56,432.6,659.22,431.23,659.22z"/>
		<path class="st1" d="M437.79,653.7v5.45h-1.72v-5.45h-1.95v-1.45h5.46l0.24,1.45H437.79z"/>
		<path class="st1" d="M441.68,652.22h1.88l2.4,6.72l-1.72,0.28l-0.51-1.5h-2.4l-0.46,1.43h-1.67L441.68,652.22z M441.74,656.38
			h1.56l-0.77-2.4L441.74,656.38z"/>
		<path class="st1" d="M451.03,659.14l-2.72-4.13v4.13h-1.59v-6.9h1.66l2.54,3.86v-3.86h1.59v6.9H451.03z"/>
		<path class="st1" d="M456.87,659.27c-2.09,0-3.35-1.4-3.35-3.56c0-2.14,1.34-3.58,3.3-3.58c0.78,0,1.41,0.17,1.91,0.45l-0.24,1.54
			c-0.42-0.32-0.94-0.56-1.54-0.56c-1.04,0-1.72,0.79-1.72,2.14c0,1.38,0.77,2.14,1.81,2.14c0.56,0,1.05-0.19,1.57-0.48l0.22,1.4
			C458.27,659.06,457.63,659.27,456.87,659.27z"/>
		<path class="st1" d="M459.82,659.14v-6.9h4.3v1.38h-2.62v1.27h2l0.22,1.37h-2.22v1.49h2.71v1.39H459.82z"/>
	</g>
	<g>
		<path class="st5" d="M329.05,704.68V690.4l-3.71,1.46l-0.52-3.57l4.75-2.2h4.09v18.58H329.05z"/>
		<path class="st5" d="M344.26,705.04c-4.64,0-7.74-3.43-7.74-9.63s3.1-9.63,7.74-9.63c4.61,0,7.69,3.43,7.69,9.63
			S348.87,705.04,344.26,705.04z M344.26,689.25c-2.14,0-3.18,2.2-3.18,6.15s1.04,6.15,3.18,6.15c2.14,0,3.16-2.2,3.16-6.15
			S346.4,689.25,344.26,689.25z"/>
	</g>
	<g>
		<path class="st5" d="M353.62,695.13v-2.44h2.29v2.44H353.62z"/>
	</g>
	<g>
		<path class="st5" d="M360.21,696.03l-2.25-0.4l3.36-7.31h-4.01l-0.3-1.97h6.74v1.83L360.21,696.03z"/>
		<path class="st5" d="M367.18,691.89c-1.33,0-2.38-0.99-2.38-2.82c0-1.83,1.06-2.82,2.38-2.82s2.37,0.99,2.37,2.8
			C369.54,690.88,368.49,691.89,367.18,691.89z M367.18,687.44c-0.61,0-0.91,0.59-0.91,1.63c0,0.99,0.31,1.62,0.91,1.62
			s0.88-0.61,0.88-1.63C368.05,688.05,367.76,687.44,367.18,687.44z M366.89,695.74l3.09-4.71l3.03-4.76l1.27,0.28l-3.1,4.74
			l-3.03,4.74L366.89,695.74z M374,696.05c-1.33,0-2.36-0.99-2.36-2.8c0-1.84,1.05-2.83,2.36-2.83c1.33,0,2.38,0.99,2.38,2.82
			C376.38,695.04,375.32,696.05,374,696.05z M374,691.62c-0.61,0-0.89,0.61-0.89,1.63c0,1.01,0.31,1.61,0.89,1.61
			c0.59,0,0.89-0.61,0.89-1.63C374.89,692.23,374.58,691.62,374,691.62z"/>
	</g>
	<g>
		<path class="st5" d="M329.14,716.86c-2.19,0-3.4-1.44-3.4-3.57c0-2.14,1.31-3.59,3.44-3.59c0.85,0,1.56,0.2,2.11,0.51l-0.23,1.49
			c-0.52-0.33-1.13-0.59-1.84-0.59c-1.19,0-1.77,0.88-1.77,2.17c0,1.3,0.6,2.21,1.79,2.21c0.38,0,0.65-0.08,0.93-0.22v-1.23h-1.2
			l-0.2-1.27h2.89v3.36C330.94,716.6,330.09,716.86,329.14,716.86z"/>
		<path class="st5" d="M335.84,716.86c-1.98,0-3.28-1.44-3.28-3.57c0-2.14,1.3-3.59,3.3-3.59s3.29,1.44,3.29,3.57
			S337.85,716.86,335.84,716.86z M335.85,711.05c-0.99,0-1.58,0.87-1.58,2.24s0.59,2.24,1.58,2.24c1,0,1.58-0.87,1.58-2.24
			S336.85,711.05,335.85,711.05z"/>
		<path class="st5" d="M343.57,716.76h-1.75l-2.42-6.72l1.86-0.28l1.54,4.84l1.5-4.77h1.77L343.57,716.76z"/>
		<path class="st5" d="M346.82,716.73v-6.9h4.3v1.38h-2.62v1.27h2l0.22,1.37h-2.22v1.49h2.71v1.39H346.82z"/>
		<path class="st5" d="M355.82,716.8l-1.52-2.44h-0.43v2.37h-1.7v-6.9h2.41c1.67,0,2.65,0.76,2.65,2.18c0,0.96-0.48,1.61-1.3,1.96
			l1.67,2.54L355.82,716.8z M354.41,711.13h-0.55v2.01h0.53c0.74,0,1.16-0.36,1.16-1.02C355.55,711.47,355.15,711.13,354.41,711.13z
			"/>
		<path class="st5" d="M362.64,716.73l-2.72-4.13v4.13h-1.59v-6.9h1.66l2.54,3.86v-3.86h1.59v6.9H362.64z"/>
		<path class="st5" d="M371.49,716.73l-0.3-4.59l-1.31,4.6h-1.6l-1.31-4.6l-0.3,4.59h-1.49l0.5-6.9h2.21l1.34,4.75l1.35-4.75h2.15
			l0.5,6.9H371.49z"/>
		<path class="st5" d="M374.29,716.73v-6.9h4.3v1.38h-2.62v1.27h2l0.22,1.37h-2.22v1.49h2.71v1.39H374.29z"/>
		<path class="st5" d="M383.95,716.73l-2.72-4.13v4.13h-1.59v-6.9h1.66l2.54,3.86v-3.86h1.59v6.9H383.95z"/>
		<path class="st5" d="M389.98,711.28v5.45h-1.72v-5.45h-1.95v-1.45h5.46l0.24,1.45H389.98z"/>
		<path class="st5" d="M392.37,718.21l-0.9-0.21l0.44-2.99h1.71L392.37,718.21z"/>
	</g>
	<g>
		<path class="st5" d="M327.97,719.81h1.88l2.4,6.72l-1.72,0.28l-0.51-1.5h-2.4l-0.46,1.43h-1.67L327.97,719.81z M328.03,723.96
			h1.56l-0.77-2.4L328.03,723.96z"/>
		<path class="st5" d="M336.66,726.8l-1.52-2.44h-0.43v2.37h-1.7v-6.9h2.41c1.67,0,2.65,0.76,2.65,2.18c0,0.96-0.48,1.61-1.3,1.96
			l1.67,2.54L336.66,726.8z M335.25,721.13h-0.55v2.01h0.53c0.74,0,1.16-0.36,1.16-1.02C336.39,721.47,335.99,721.13,335.25,721.13z
			"/>
		<path class="st5" d="M342.29,721.28v5.45h-1.72v-5.45h-1.95v-1.45h5.46l0.24,1.45H342.29z"/>
		<path class="st5" d="M347.09,726.81c-0.93,0-1.71-0.2-2.41-0.52l0.25-1.46c0.71,0.38,1.5,0.64,2.19,0.64
			c0.49,0,0.83-0.21,0.83-0.62c0-0.39-0.2-0.57-1.17-0.94c-1.38-0.53-1.98-0.98-1.98-2.12c0-1.33,1.04-2.04,2.36-2.04
			c0.9,0,1.48,0.17,2.08,0.46l-0.26,1.44c-0.62-0.36-1.27-0.56-1.8-0.56c-0.52,0-0.77,0.22-0.77,0.54c0,0.35,0.19,0.52,1.05,0.85
			c1.51,0.55,2.1,1.07,2.1,2.17C349.56,726.15,348.46,726.81,347.09,726.81z"/>
		<path class="st5" d="M356.99,726.79l-0.59-0.67c-0.54,0.48-1.18,0.72-1.9,0.72c-1.38,0-2.28-0.69-2.28-1.89
			c0-0.96,0.54-1.57,1.35-2.05c-0.4-0.5-0.56-0.87-0.56-1.47c0-1.05,0.77-1.73,2.03-1.73c0.76,0,1.4,0.19,1.85,0.44l-0.22,1.34
			c-0.52-0.28-1.02-0.47-1.47-0.47c-0.41,0-0.61,0.23-0.61,0.52c0,0.26,0.12,0.47,0.41,0.79l1.41,1.64
			c0.13-0.38,0.22-0.82,0.29-1.35l1.28,0.28c-0.12,0.84-0.34,1.52-0.68,2.1l1.38,1.58L356.99,726.79z M355.64,725.26l-1.31-1.49
			c-0.38,0.3-0.55,0.62-0.55,1c0,0.51,0.37,0.86,0.98,0.86C355.05,725.63,355.36,725.52,355.64,725.26z"/>
	</g>
	<g>
		<path class="st5" d="M329.64,736.8l-1.52-2.44h-0.43v2.37h-1.7v-6.9h2.41c1.67,0,2.65,0.76,2.65,2.18c0,0.96-0.48,1.61-1.3,1.96
			l1.67,2.54L329.64,736.8z M328.23,731.13h-0.55v2.01h0.53c0.74,0,1.16-0.36,1.16-1.02C329.37,731.47,328.97,731.13,328.23,731.13z
			"/>
		<path class="st5" d="M332.15,736.73v-6.9h4.3v1.38h-2.62v1.27h2l0.22,1.37h-2.22v1.49h2.71v1.39H332.15z"/>
		<path class="st5" d="M340.52,736.85c-2.09,0-3.35-1.4-3.35-3.56c0-2.14,1.34-3.58,3.3-3.58c0.78,0,1.41,0.17,1.91,0.45l-0.24,1.54
			c-0.42-0.32-0.94-0.56-1.54-0.56c-1.04,0-1.72,0.79-1.72,2.14c0,1.38,0.77,2.14,1.81,2.14c0.56,0,1.05-0.19,1.57-0.48l0.22,1.4
			C341.92,736.65,341.28,736.85,340.52,736.85z"/>
		<path class="st5" d="M347.12,736.8l-1.52-2.44h-0.43v2.37h-1.7v-6.9h2.41c1.67,0,2.65,0.76,2.65,2.18c0,0.96-0.48,1.61-1.3,1.96
			l1.67,2.54L347.12,736.8z M345.71,731.13h-0.55v2.01h0.53c0.74,0,1.16-0.36,1.16-1.02C346.85,731.47,346.45,731.13,345.71,731.13z
			"/>
		<path class="st5" d="M349.63,736.73v-6.9h4.3v1.38h-2.62v1.27h2l0.22,1.37h-2.22v1.49h2.71v1.39H349.63z"/>
		<path class="st5" d="M356.96,729.81h1.88l2.4,6.72l-1.72,0.28l-0.51-1.5h-2.4l-0.46,1.43h-1.67L356.96,729.81z M357.02,733.96
			h1.56l-0.77-2.4L357.02,733.96z"/>
		<path class="st5" d="M364.47,731.28v5.45h-1.72v-5.45h-1.95v-1.45h5.46l0.24,1.45H364.47z"/>
		<path class="st5" d="M367.31,736.73v-6.9h1.71v6.9H367.31z"/>
		<path class="st5" d="M373.35,736.86c-1.98,0-3.28-1.44-3.28-3.57c0-2.14,1.3-3.59,3.3-3.59s3.29,1.44,3.29,3.57
			S375.36,736.86,373.35,736.86z M373.36,731.05c-0.99,0-1.58,0.87-1.58,2.24s0.59,2.24,1.58,2.24c1,0,1.58-0.87,1.58-2.24
			S374.36,731.05,373.36,731.05z"/>
		<path class="st5" d="M381.98,736.73l-2.72-4.13v4.13h-1.59v-6.9h1.66l2.54,3.86v-3.86h1.59v6.9H381.98z"/>
	</g>
	<g>
		<path class="st4" d="M493.48,721.67l-0.3-4.59l-1.31,4.6h-1.6l-1.31-4.6l-0.3,4.59h-1.49l0.5-6.9h2.21l1.34,4.75l1.35-4.75h2.15
			l0.5,6.9H493.48z"/>
		<path class="st4" d="M498.26,714.74h1.88l2.4,6.72l-1.72,0.28l-0.51-1.5h-2.4l-0.46,1.43h-1.67L498.26,714.74z M498.32,718.9h1.56
			l-0.77-2.4L498.32,718.9z"/>
		<path class="st4" d="M507.61,721.67l-2.72-4.13v4.13h-1.59v-6.9h1.66l2.54,3.86v-3.86h1.59v6.9H507.61z"/>
		<path class="st4" d="M513.14,721.78c-1.69,0-2.87-0.91-2.87-2.84v-4.17h1.72v4.16c0,0.89,0.4,1.41,1.17,1.41
			c0.78,0,1.17-0.51,1.17-1.39v-4.18h1.72v4.16C516.05,720.85,514.81,721.78,513.14,721.78z"/>
		<path class="st4" d="M518.93,716.2v1.41h1.8l0.24,1.43h-2.04v2.63h-1.7v-6.9h4.13v1.43H518.93z"/>
		<path class="st4" d="M523.6,714.74h1.88l2.4,6.72l-1.72,0.28l-0.51-1.5h-2.4l-0.46,1.43h-1.67L523.6,714.74z M523.66,718.9h1.56
			l-0.77-2.4L523.66,718.9z"/>
		<path class="st4" d="M531.47,721.79c-2.09,0-3.35-1.4-3.35-3.56c0-2.14,1.34-3.58,3.3-3.58c0.78,0,1.41,0.17,1.91,0.45l-0.24,1.54
			c-0.42-0.32-0.94-0.56-1.54-0.56c-1.04,0-1.72,0.79-1.72,2.14c0,1.38,0.77,2.14,1.81,2.14c0.56,0,1.05-0.19,1.57-0.48l0.22,1.4
			C532.87,721.59,532.23,721.79,531.47,721.79z"/>
		<path class="st4" d="M537.63,716.22v5.45h-1.72v-5.45h-1.95v-1.45h5.46l0.24,1.45H537.63z"/>
		<path class="st4" d="M543.22,721.78c-1.69,0-2.87-0.91-2.87-2.84v-4.17h1.72v4.16c0,0.89,0.4,1.41,1.17,1.41
			c0.78,0,1.17-0.51,1.17-1.39v-4.18h1.72v4.16C546.13,720.85,544.89,721.78,543.22,721.78z"/>
		<path class="st4" d="M550.96,721.74l-1.52-2.44h-0.43v2.37h-1.7v-6.9h2.41c1.67,0,2.65,0.76,2.65,2.18c0,0.96-0.48,1.61-1.3,1.96
			l1.67,2.54L550.96,721.74z M549.55,716.06H549v2.01h0.53c0.74,0,1.16-0.36,1.16-1.02C550.69,716.41,550.29,716.06,549.55,716.06z"
			/>
		<path class="st4" d="M553.51,721.67v-6.9h1.71v6.9H553.51z"/>
		<path class="st4" d="M560.83,721.67l-2.72-4.13v4.13h-1.59v-6.9h1.66l2.54,3.86v-3.86h1.59v6.9H560.83z"/>
		<path class="st4" d="M566.72,721.8c-2.19,0-3.4-1.44-3.4-3.57c0-2.14,1.31-3.59,3.44-3.59c0.85,0,1.56,0.2,2.11,0.51l-0.23,1.49
			c-0.52-0.33-1.13-0.59-1.84-0.59c-1.19,0-1.77,0.88-1.77,2.17c0,1.3,0.6,2.21,1.79,2.21c0.38,0,0.65-0.08,0.93-0.22v-1.23h-1.2
			l-0.2-1.27h2.89v3.36C568.52,721.54,567.67,721.8,566.72,721.8z"/>
	</g>
	<line class="st6" x1="490.54" y1="782.4" x2="490.54" y2="744.02"/>
	<line class="st7" x1="317.19" y1="782.36" x2="317.19" y2="686.24"/>
	<line class="st8" x1="410.25" y1="781.9" x2="410.25" y2="681.27"/>
	<line class="st9" x1="399.11" y1="781.92" x2="398.81" y2="609.3"/>
	<line class="st10" x1="478.43" y1="782.25" x2="478.43" y2="691.68"/>
	<g>
		<path class="st11" d="M431.37,665.81l0.4-0.4c-1.15-0.9-2.6-1.44-4.18-1.44c-3.76,0-6.81,3.05-6.81,6.81
			c0,3.75,3.05,6.81,6.81,6.81c1.73,0,3.38-0.65,4.65-1.83c0.11-0.1,0.23-0.22,0.35-0.35c1.17-1.26,1.81-2.9,1.81-4.62
			c0-1.58-0.54-3.03-1.44-4.18l-0.4,0.4c0.8,1.05,1.28,2.36,1.28,3.78c0,1.58-0.59,3.09-1.66,4.24c-0.11,0.12-0.22,0.23-0.32,0.32
			c-1.16,1.09-2.68,1.68-4.26,1.68c-3.45,0-6.25-2.8-6.25-6.25c0-3.45,2.8-6.25,6.25-6.25
			C429.01,664.53,430.32,665.01,431.37,665.81 M430.8,668.76c0.37,0.58,0.58,1.28,0.58,2.02c0,2.09-1.7,3.79-3.79,3.79
			c-2.09,0-3.79-1.7-3.79-3.79s1.7-3.79,3.79-3.79c0.74,0,1.43,0.22,2.02,0.58l0.41-0.41c-0.69-0.47-1.53-0.74-2.42-0.74
			c-2.4,0-4.35,1.95-4.35,4.35c0,2.4,1.95,4.35,4.35,4.35c2.4,0,4.35-1.95,4.35-4.35c0-0.9-0.27-1.73-0.74-2.42L430.8,668.76z
			 M429.01,670.55c0.01,0.08,0.02,0.15,0.02,0.23c0,0.79-0.65,1.44-1.44,1.44s-1.44-0.65-1.44-1.44s0.65-1.44,1.44-1.44
			c0.08,0,0.16,0.01,0.23,0.02l0.46-0.46c-0.21-0.08-0.45-0.12-0.69-0.12c-1.1,0-2,0.9-2,2s0.9,2,2,2c1.11,0,2-0.9,2-2
			c0-0.24-0.04-0.47-0.12-0.69L429.01,670.55z M435.25,664.04l-0.63,0.63h-0.95v-0.95l0.63-0.63v0.67c0,0.16,0.13,0.28,0.28,0.28
			H435.25z M436.18,663.65c-0.04-0.11-0.15-0.17-0.26-0.17h-1.07v-1.07c0-0.11-0.07-0.21-0.17-0.26c-0.11-0.04-0.23-0.02-0.31,0.06
			l-1.19,1.19c-0.05,0.05-0.08,0.12-0.08,0.2v1.26l-5.72,5.72c-0.11,0.11-0.11,0.29,0,0.4c0.05,0.05,0.13,0.08,0.2,0.08
			c0.07,0,0.14-0.03,0.2-0.08l5.74-5.74h1.2c0.07,0,0.14-0.03,0.2-0.08l1.19-1.19C436.2,663.88,436.23,663.76,436.18,663.65"/>
		<path class="st12" d="M431.37,665.81l0.4-0.4c-1.15-0.9-2.6-1.44-4.18-1.44c-3.76,0-6.81,3.05-6.81,6.81
			c0,3.75,3.05,6.81,6.81,6.81c1.73,0,3.38-0.65,4.65-1.83c0.11-0.1,0.23-0.22,0.35-0.35c1.17-1.26,1.81-2.9,1.81-4.62
			c0-1.58-0.54-3.03-1.44-4.18l-0.4,0.4c0.8,1.05,1.28,2.36,1.28,3.78c0,1.58-0.59,3.09-1.66,4.24c-0.11,0.12-0.22,0.23-0.32,0.32
			c-1.16,1.09-2.68,1.68-4.26,1.68c-3.45,0-6.25-2.8-6.25-6.25c0-3.45,2.8-6.25,6.25-6.25
			C429.01,664.53,430.32,665.01,431.37,665.81z M430.8,668.76c0.37,0.58,0.58,1.28,0.58,2.02c0,2.09-1.7,3.79-3.79,3.79
			c-2.09,0-3.79-1.7-3.79-3.79s1.7-3.79,3.79-3.79c0.74,0,1.43,0.22,2.02,0.58l0.41-0.41c-0.69-0.47-1.53-0.74-2.42-0.74
			c-2.4,0-4.35,1.95-4.35,4.35c0,2.4,1.95,4.35,4.35,4.35c2.4,0,4.35-1.95,4.35-4.35c0-0.9-0.27-1.73-0.74-2.42L430.8,668.76z
			 M429.01,670.55c0.01,0.08,0.02,0.15,0.02,0.23c0,0.79-0.65,1.44-1.44,1.44s-1.44-0.65-1.44-1.44s0.65-1.44,1.44-1.44
			c0.08,0,0.16,0.01,0.23,0.02l0.46-0.46c-0.21-0.08-0.45-0.12-0.69-0.12c-1.1,0-2,0.9-2,2s0.9,2,2,2c1.11,0,2-0.9,2-2
			c0-0.24-0.04-0.47-0.12-0.69L429.01,670.55z M435.25,664.04l-0.63,0.63h-0.95v-0.95l0.63-0.63v0.67c0,0.16,0.13,0.28,0.28,0.28
			H435.25z M436.18,663.65c-0.04-0.11-0.15-0.17-0.26-0.17h-1.07v-1.07c0-0.11-0.07-0.21-0.17-0.26c-0.11-0.04-0.23-0.02-0.31,0.06
			l-1.19,1.19c-0.05,0.05-0.08,0.12-0.08,0.2v1.26l-5.72,5.72c-0.11,0.11-0.11,0.29,0,0.4c0.05,0.05,0.13,0.08,0.2,0.08
			c0.07,0,0.14-0.03,0.2-0.08l5.74-5.74h1.2c0.07,0,0.14-0.03,0.2-0.08l1.19-1.19C436.2,663.88,436.23,663.76,436.18,663.65z"/>
		<path class="st4" d="M489.84,684.58c-0.26-0.07-0.53,0.09-0.6,0.34c-0.07,0.26,0.08,0.53,0.35,0.6c0.26,0.07,0.53-0.08,0.6-0.34
			C490.25,684.92,490.1,684.65,489.84,684.58 M493,676.59c0.03,0.01,0.05,0.01,0.08,0.01c0.14,0,0.27-0.09,0.3-0.23
			c0.05-0.17-0.05-0.34-0.22-0.39l-1.99-0.53c-0.17-0.05-0.34,0.05-0.39,0.22c-0.05,0.17,0.05,0.34,0.22,0.39L493,676.59z
			 M492.62,678.01c0.03,0.01,0.05,0.01,0.08,0.01c0.14,0,0.27-0.09,0.3-0.23c0.05-0.17-0.05-0.34-0.22-0.39l-1.99-0.53
			c-0.17-0.05-0.34,0.05-0.39,0.22s0.05,0.34,0.22,0.39L492.62,678.01z M490.25,678.9l1.99,0.53c0.03,0.01,0.05,0.01,0.08,0.01
			c0.14,0,0.27-0.09,0.31-0.24c0.04-0.17-0.06-0.34-0.22-0.39l-2-0.53c-0.17-0.05-0.34,0.05-0.39,0.22
			C489.98,678.68,490.08,678.85,490.25,678.9 M496.81,685.51c0,0.27,0.22,0.49,0.49,0.49c0.27,0,0.49-0.22,0.49-0.49
			c0-0.27-0.22-0.49-0.49-0.49C497.03,685.02,496.81,685.24,496.81,685.51 M495.9,679.11c0,0.17,0.14,0.32,0.32,0.32h2.07
			c0.18,0,0.32-0.14,0.32-0.32c0-0.17-0.14-0.32-0.32-0.32h-2.07C496.05,678.79,495.9,678.93,495.9,679.11 M495.9,677.64
			c0,0.17,0.14,0.32,0.32,0.32h2.07c0.18,0,0.32-0.14,0.32-0.32c0-0.17-0.14-0.32-0.32-0.32h-2.07
			C496.05,677.32,495.9,677.46,495.9,677.64 M495.9,676.17c0,0.17,0.14,0.32,0.32,0.32h2.07c0.18,0,0.32-0.14,0.32-0.32
			c0-0.18-0.14-0.32-0.32-0.32h-2.07C496.05,675.85,495.9,675.99,495.9,676.17 M501.12,685.51c0,0.27,0.22,0.49,0.49,0.49
			s0.49-0.22,0.49-0.49c0-0.27-0.22-0.49-0.49-0.49S501.12,685.24,501.12,685.51 M500.26,679.11c0,0.17,0.14,0.32,0.32,0.32h2.07
			c0.18,0,0.32-0.14,0.32-0.32c0-0.17-0.14-0.32-0.32-0.32h-2.07C500.4,678.79,500.26,678.93,500.26,679.11 M500.26,677.64
			c0,0.17,0.14,0.32,0.32,0.32h2.07c0.18,0,0.32-0.14,0.32-0.32c0-0.17-0.14-0.32-0.32-0.32h-2.07
			C500.4,677.32,500.26,677.46,500.26,677.64 M500.26,676.17c0,0.17,0.14,0.32,0.32,0.32h2.07c0.18,0,0.32-0.14,0.32-0.32
			c0-0.18-0.14-0.32-0.32-0.32h-2.07C500.4,675.85,500.26,675.99,500.26,676.17 M503.45,687.51h-3.68V674h3.68V687.51z
			 M499.14,687.51h-3.68V674h3.68V687.51z M494.47,674.42l-3.5,13.05l-3.55-0.95l3.5-13.05L494.47,674.42z M504.08,687.72V673.8
			c0-0.24-0.19-0.43-0.43-0.43h-4.09c-0.04,0-0.08,0.01-0.11,0.02c-0.04-0.01-0.07-0.02-0.11-0.02h-4.09
			c-0.24,0-0.43,0.19-0.43,0.43v0.06l-3.95-1.06c-0.22-0.06-0.46,0.08-0.52,0.3l-3.6,13.44c-0.03,0.11-0.01,0.23,0.04,0.33
			c0.06,0.1,0.15,0.17,0.26,0.2l3.95,1.06c0.04,0.01,0.07,0.02,0.11,0.02c0.19,0,0.36-0.13,0.41-0.32l3.3-12.3v12.19
			c0,0.24,0.19,0.43,0.43,0.43h4.09c0.04,0,0.08-0.01,0.11-0.02c0.04,0.01,0.07,0.02,0.11,0.02h4.09
			C503.89,688.14,504.08,687.95,504.08,687.72"/>
		<path class="st13" d="M489.84,684.58c-0.26-0.07-0.53,0.09-0.6,0.34c-0.07,0.26,0.08,0.53,0.35,0.6c0.26,0.07,0.53-0.08,0.6-0.34
			C490.25,684.92,490.1,684.65,489.84,684.58z M493,676.59c0.03,0.01,0.05,0.01,0.08,0.01c0.14,0,0.27-0.09,0.3-0.23
			c0.05-0.17-0.05-0.34-0.22-0.39l-1.99-0.53c-0.17-0.05-0.34,0.05-0.39,0.22c-0.05,0.17,0.05,0.34,0.22,0.39L493,676.59z
			 M492.62,678.01c0.03,0.01,0.05,0.01,0.08,0.01c0.14,0,0.27-0.09,0.3-0.23c0.05-0.17-0.05-0.34-0.22-0.39l-1.99-0.53
			c-0.17-0.05-0.34,0.05-0.39,0.22s0.05,0.34,0.22,0.39L492.62,678.01z M490.25,678.9l1.99,0.53c0.03,0.01,0.05,0.01,0.08,0.01
			c0.14,0,0.27-0.09,0.31-0.24c0.04-0.17-0.06-0.34-0.22-0.39l-2-0.53c-0.17-0.05-0.34,0.05-0.39,0.22
			C489.98,678.68,490.08,678.85,490.25,678.9z M496.81,685.51c0,0.27,0.22,0.49,0.49,0.49c0.27,0,0.49-0.22,0.49-0.49
			c0-0.27-0.22-0.49-0.49-0.49C497.03,685.02,496.81,685.24,496.81,685.51z M495.9,679.11c0,0.17,0.14,0.32,0.32,0.32h2.07
			c0.18,0,0.32-0.14,0.32-0.32c0-0.17-0.14-0.32-0.32-0.32h-2.07C496.05,678.79,495.9,678.93,495.9,679.11z M495.9,677.64
			c0,0.17,0.14,0.32,0.32,0.32h2.07c0.18,0,0.32-0.14,0.32-0.32c0-0.17-0.14-0.32-0.32-0.32h-2.07
			C496.05,677.32,495.9,677.46,495.9,677.64z M495.9,676.17c0,0.17,0.14,0.32,0.32,0.32h2.07c0.18,0,0.32-0.14,0.32-0.32
			c0-0.18-0.14-0.32-0.32-0.32h-2.07C496.05,675.85,495.9,675.99,495.9,676.17z M501.12,685.51c0,0.27,0.22,0.49,0.49,0.49
			s0.49-0.22,0.49-0.49c0-0.27-0.22-0.49-0.49-0.49S501.12,685.24,501.12,685.51z M500.26,679.11c0,0.17,0.14,0.32,0.32,0.32h2.07
			c0.18,0,0.32-0.14,0.32-0.32c0-0.17-0.14-0.32-0.32-0.32h-2.07C500.4,678.79,500.26,678.93,500.26,679.11z M500.26,677.64
			c0,0.17,0.14,0.32,0.32,0.32h2.07c0.18,0,0.32-0.14,0.32-0.32c0-0.17-0.14-0.32-0.32-0.32h-2.07
			C500.4,677.32,500.26,677.46,500.26,677.64z M500.26,676.17c0,0.17,0.14,0.32,0.32,0.32h2.07c0.18,0,0.32-0.14,0.32-0.32
			c0-0.18-0.14-0.32-0.32-0.32h-2.07C500.4,675.85,500.26,675.99,500.26,676.17z M503.45,687.51h-3.68V674h3.68V687.51z
			 M499.14,687.51h-3.68V674h3.68V687.51z M494.47,674.42l-3.5,13.05l-3.55-0.95l3.5-13.05L494.47,674.42z M504.08,687.72V673.8
			c0-0.24-0.19-0.43-0.43-0.43h-4.09c-0.04,0-0.08,0.01-0.11,0.02c-0.04-0.01-0.07-0.02-0.11-0.02h-4.09
			c-0.24,0-0.43,0.19-0.43,0.43v0.06l-3.95-1.06c-0.22-0.06-0.46,0.08-0.52,0.3l-3.6,13.44c-0.03,0.11-0.01,0.23,0.04,0.33
			c0.06,0.1,0.15,0.17,0.26,0.2l3.95,1.06c0.04,0.01,0.07,0.02,0.11,0.02c0.19,0,0.36-0.13,0.41-0.32l3.3-12.3v12.19
			c0,0.24,0.19,0.43,0.43,0.43h4.09c0.04,0,0.08-0.01,0.11-0.02c0.04,0.01,0.07,0.02,0.11,0.02h4.09
			C503.89,688.14,504.08,687.95,504.08,687.72z"/>
		<path class="st2" d="M530.88,735.94l0.58-0.58l-0.58-0.58l0.37-0.37l0.58,0.58l0.57-0.58l0.37,0.37l-0.58,0.58l0.58,0.58
			l-0.37,0.37l-0.57-0.58l-0.58,0.58L530.88,735.94z M531.56,731.88h-0.81v-0.52h0.81v-0.81h0.52v0.81h0.81v0.52h-0.81v0.81h-0.52
			V731.88z M524.28,731.36h2.14v0.52h-2.14V731.36z M526.42,735.19h-2.14v-0.52h2.14V735.19z M526.42,736.06h-2.14v-0.52h2.14
			V736.06z M522.37,736.55c0,0.21,0.17,0.39,0.39,0.39h5.52v-3.15h-5.91V736.55z M522.37,733.27h5.91v-3.22h-5.91V733.27z
			 M522.37,729.53h12.33v-2.5c0-0.21-0.17-0.39-0.39-0.39h-11.55c-0.21,0-0.39,0.17-0.39,0.39V729.53z M534.7,730.04h-5.91v3.22
			h5.91V730.04z M534.7,733.78h-5.91v3.15h5.52c0.21,0,0.39-0.17,0.39-0.39V733.78z M521.85,736.55v-9.52c0-0.5,0.41-0.91,0.91-0.91
			h11.55c0.5,0,0.91,0.41,0.91,0.91v9.52c0,0.5-0.41,0.91-0.91,0.91h-11.55C522.26,737.46,521.85,737.05,521.85,736.55
			 M500.49,735.83c0,0.28,0.23,0.51,0.51,0.51s0.51-0.23,0.51-0.51c0-0.28-0.23-0.51-0.51-0.51S500.49,735.55,500.49,735.83
			 M501.29,729.57l8.5,3.06l8.5-3.06l-8.5-3.44L501.29,729.57z M515.14,731.35l-5.26,1.89c-0.06,0.02-0.12,0.02-0.18,0l-5.26-1.89
			v2.91c0.17,0.31,1.35,2.15,5.35,2.15c4,0,5.18-1.85,5.35-2.15V731.35z M500.74,734.84v-4.92l-0.26-0.09
			c-0.1-0.04-0.17-0.13-0.17-0.24c0-0.11,0.06-0.21,0.16-0.24l9.22-3.73c0.06-0.02,0.13-0.02,0.19,0l9.22,3.73
			c0.1,0.04,0.16,0.14,0.16,0.24c0,0.11-0.07,0.2-0.17,0.24l-3.44,1.24v3.27c0,0.03-0.01,0.07-0.02,0.1
			c-0.04,0.1-1.14,2.51-5.85,2.51c-4.7,0-5.8-2.4-5.85-2.51c-0.01-0.03-0.02-0.07-0.02-0.1v-3.27l-2.67-0.96v4.73
			c0.44,0.12,0.77,0.52,0.77,0.99c0,0.57-0.46,1.03-1.03,1.03c-0.57,0-1.03-0.46-1.03-1.03
			C499.97,735.35,500.3,734.95,500.74,734.84"/>
		<path class="st14" d="M530.88,735.94l0.58-0.58l-0.58-0.58l0.37-0.37l0.58,0.58l0.57-0.58l0.37,0.37l-0.58,0.58l0.58,0.58
			l-0.37,0.37l-0.57-0.58l-0.58,0.58L530.88,735.94z M531.56,731.88h-0.81v-0.52h0.81v-0.81h0.52v0.81h0.81v0.52h-0.81v0.81h-0.52
			V731.88z M524.28,731.36h2.14v0.52h-2.14V731.36z M526.42,735.19h-2.14v-0.52h2.14V735.19z M526.42,736.06h-2.14v-0.52h2.14
			V736.06z M522.37,736.55c0,0.21,0.17,0.39,0.39,0.39h5.52v-3.15h-5.91V736.55z M522.37,733.27h5.91v-3.22h-5.91V733.27z
			 M522.37,729.53h12.33v-2.5c0-0.21-0.17-0.39-0.39-0.39h-11.55c-0.21,0-0.39,0.17-0.39,0.39V729.53z M534.7,730.04h-5.91v3.22
			h5.91V730.04z M534.7,733.78h-5.91v3.15h5.52c0.21,0,0.39-0.17,0.39-0.39V733.78z M521.85,736.55v-9.52c0-0.5,0.41-0.91,0.91-0.91
			h11.55c0.5,0,0.91,0.41,0.91,0.91v9.52c0,0.5-0.41,0.91-0.91,0.91h-11.55C522.26,737.46,521.85,737.05,521.85,736.55z
			 M500.49,735.83c0,0.28,0.23,0.51,0.51,0.51s0.51-0.23,0.51-0.51c0-0.28-0.23-0.51-0.51-0.51S500.49,735.55,500.49,735.83z
			 M501.29,729.57l8.5,3.06l8.5-3.06l-8.5-3.44L501.29,729.57z M515.14,731.35l-5.26,1.89c-0.06,0.02-0.12,0.02-0.18,0l-5.26-1.89
			v2.91c0.17,0.31,1.35,2.15,5.35,2.15c4,0,5.18-1.85,5.35-2.15V731.35z M500.74,734.84v-4.92l-0.26-0.09
			c-0.1-0.04-0.17-0.13-0.17-0.24c0-0.11,0.06-0.21,0.16-0.24l9.22-3.73c0.06-0.02,0.13-0.02,0.19,0l9.22,3.73
			c0.1,0.04,0.16,0.14,0.16,0.24c0,0.11-0.07,0.2-0.17,0.24l-3.44,1.24v3.27c0,0.03-0.01,0.07-0.02,0.1
			c-0.04,0.1-1.14,2.51-5.85,2.51c-4.7,0-5.8-2.4-5.85-2.51c-0.01-0.03-0.02-0.07-0.02-0.1v-3.27l-2.67-0.96v4.73
			c0.44,0.12,0.77,0.52,0.77,0.99c0,0.57-0.46,1.03-1.03,1.03c-0.57,0-1.03-0.46-1.03-1.03
			C499.97,735.35,500.3,734.95,500.74,734.84z"/>
		<path class="st5" d="M345.98,679.78h2.18v-1.76h-2.18V679.78z M345.98,677.31h1.09h-0.35v-10.43h0.35h-1.09L345.98,677.31z
			 M346.21,666.18h0.86h0.86l-0.86-1.68L346.21,666.18z M348.16,666.88h-0.74v10.43h0.74V666.88z M345.28,677.66
			C345.28,677.66,345.28,677.66,345.28,677.66C345.28,677.66,345.28,677.66,345.28,677.66v-11.14c0-0.03,0-0.05,0.01-0.07
			c0,0,0-0.01,0-0.01c0.01-0.02,0.01-0.05,0.03-0.07c0,0,0-0.01,0-0.01l1.44-2.81c0.06-0.12,0.18-0.19,0.31-0.19
			s0.25,0.07,0.31,0.19l1.44,2.81c0,0,0,0.01,0,0.01c0.01,0.02,0.02,0.04,0.02,0.06c0,0,0,0.01,0,0.01
			c0.01,0.02,0.01,0.05,0.01,0.07v11.13c0,0,0,0,0,0v0v2.46c0,0.09-0.04,0.18-0.1,0.25c-0.07,0.07-0.16,0.1-0.25,0.1l-2.88,0
			c-0.2,0-0.35-0.16-0.35-0.35V677.66z M331.36,672.75c0-0.33,0.06-0.64,0.19-0.94c0.08-0.18,0.28-0.26,0.46-0.19
			c0.18,0.08,0.26,0.28,0.19,0.46c-0.09,0.21-0.13,0.43-0.13,0.66c0,0.94,0.77,1.71,1.71,1.71c0.94,0,1.71-0.76,1.71-1.71
			c0-0.94-0.77-1.71-1.71-1.71c-0.2,0-0.39,0.03-0.58,0.1c-0.1,0.03-0.19,0.08-0.28,0.13c-0.17,0.1-0.38,0.04-0.48-0.13
			c-0.1-0.17-0.04-0.38,0.13-0.48c0.12-0.07,0.26-0.13,0.39-0.18c0.26-0.09,0.54-0.14,0.82-0.14c1.33,0,2.41,1.08,2.41,2.41
			c0,1.33-1.08,2.41-2.41,2.41C332.45,675.16,331.36,674.08,331.36,672.75 M329.85,672.2v1.09h0.21c0.4,0,0.76,0.26,0.93,0.65
			c0.16,0.39,0.09,0.83-0.2,1.11l-0.15,0.15l0.77,0.77l0.15-0.15c0.28-0.28,0.73-0.36,1.11-0.2c0.39,0.16,0.65,0.53,0.65,0.93v0.21
			h1.09v-0.21c0-0.4,0.26-0.76,0.65-0.93c0.38-0.16,0.83-0.08,1.11,0.2l0.15,0.15l0.77-0.77l-0.15-0.15
			c-0.28-0.28-0.36-0.72-0.2-1.11c0.16-0.4,0.53-0.65,0.93-0.65h0.21l0-1.09h-0.21c-0.4,0-0.76-0.26-0.93-0.65
			c-0.16-0.39-0.09-0.83,0.2-1.11l0.15-0.15l-0.77-0.77l-0.15,0.15c-0.28,0.28-0.73,0.36-1.11,0.2c-0.39-0.16-0.65-0.53-0.65-0.93
			v-0.21h-1.09v0.21c0,0.4-0.26,0.77-0.65,0.93c-0.38,0.16-0.83,0.08-1.11-0.2l-0.15-0.15l-0.77,0.77l0.15,0.15
			c0.28,0.28,0.36,0.72,0.2,1.11c-0.16,0.4-0.53,0.65-0.93,0.65H329.85z M329.15,673.31v-1.13c0-0.38,0.31-0.68,0.68-0.68h0.23
			c0.13,0,0.23-0.11,0.28-0.22c0.04-0.1,0.05-0.25-0.04-0.34l-0.16-0.16c-0.13-0.13-0.2-0.3-0.2-0.48s0.07-0.35,0.2-0.48l0.8-0.8
			c0.26-0.26,0.71-0.26,0.97,0l0.16,0.16c0.06,0.06,0.14,0.08,0.2,0.08c0.05,0,0.1-0.01,0.15-0.03c0.11-0.04,0.21-0.15,0.21-0.28
			v-0.23c0-0.38,0.31-0.68,0.68-0.68h1.13c0.38,0,0.68,0.31,0.68,0.68v0.23c0,0.13,0.11,0.23,0.21,0.28
			c0.05,0.02,0.1,0.03,0.15,0.03c0.06,0,0.13-0.01,0.2-0.08l0.16-0.16c0.26-0.26,0.71-0.26,0.97,0l0.8,0.8
			c0.13,0.13,0.2,0.3,0.2,0.48s-0.07,0.36-0.2,0.48l-0.16,0.16c-0.08,0.08-0.1,0.22-0.04,0.34c0.04,0.11,0.15,0.22,0.28,0.22h0.23
			c0.18,0,0.36,0.07,0.49,0.2c0.13,0.13,0.2,0.3,0.2,0.48v1.13c0,0.38-0.31,0.68-0.69,0.68h-0.23c-0.13,0-0.23,0.11-0.28,0.22
			c-0.05,0.13-0.03,0.26,0.04,0.34l0.16,0.16c0.13,0.13,0.2,0.3,0.2,0.48c0,0.18-0.07,0.36-0.2,0.48l-0.8,0.8
			c-0.26,0.26-0.71,0.26-0.97,0l-0.16-0.16c-0.06-0.06-0.14-0.07-0.2-0.07c-0.05,0-0.1,0.01-0.15,0.03
			c-0.11,0.04-0.22,0.15-0.22,0.28v0.23c0,0.38-0.31,0.68-0.68,0.68h-1.13c-0.38,0-0.68-0.31-0.68-0.68v-0.23
			c0-0.13-0.11-0.23-0.22-0.28c-0.05-0.02-0.1-0.03-0.14-0.03c-0.06,0-0.14,0.01-0.2,0.08l-0.16,0.16c-0.26,0.26-0.71,0.26-0.97,0
			l-0.8-0.8c-0.13-0.13-0.2-0.3-0.2-0.48c0-0.18,0.07-0.35,0.2-0.48l0.16-0.16c0.09-0.09,0.09-0.24,0.04-0.34
			c-0.04-0.11-0.15-0.22-0.28-0.22h-0.23c-0.18,0-0.36-0.07-0.49-0.2C329.22,673.67,329.15,673.49,329.15,673.31 M325.15,676.79
			c0.29-0.22,0.66-0.35,1.05-0.35s0.76,0.13,1.05,0.35v-11.66c0-0.58-0.47-1.05-1.05-1.05c-0.58,0-1.05,0.47-1.05,1.05V676.79z
			 M327.26,678.19c0-0.58-0.47-1.05-1.05-1.05c-0.57,0-1.04,0.46-1.05,1.02c0.02,1.5,1.36,1.62,1.77,1.62h7.04h6.89
			c0.41,0,1.75-0.12,1.77-1.62c-0.02-0.57-0.48-1.02-1.05-1.02c-0.58,0-1.06,0.47-1.06,1.05c0,0.2-0.16,0.35-0.35,0.35
			c-0.19,0-0.35-0.16-0.35-0.35c0-0.05,0-0.1,0.01-0.15c0-0.02-0.01-0.05-0.01-0.07v-11.67h-11.84v11.67c0,0.03,0,0.05-0.01,0.07
			c0.01,0.05,0.01,0.1,0.01,0.15c0,0.2-0.16,0.35-0.35,0.35C327.41,678.55,327.26,678.39,327.26,678.19 M340.51,676.79
			c0.3-0.22,0.66-0.35,1.06-0.35c0.39,0,0.76,0.13,1.05,0.35v-11.66c0-0.58-0.47-1.05-1.05-1.05c-0.58,0-1.06,0.47-1.06,1.05V676.79
			z M324.44,678.13c0-0.01,0-0.02,0-0.02c0-0.01,0-0.02,0-0.02v-12.95c0-0.97,0.79-1.76,1.76-1.76c0.97,0,1.76,0.79,1.76,1.76v0.46
			h11.84v-0.46c0-0.97,0.79-1.76,1.76-1.76c0.97,0,1.76,0.79,1.76,1.76v12.95c0,0.01,0,0.02,0,0.02c0,0.01,0,0.02,0,0.02
			c0,0.01,0,0.02,0,0.03c0,0.01,0,0.02,0,0.03c0,0.02,0,0.04-0.01,0.06c-0.06,1.64-1.36,2.23-2.47,2.23h-6.89h-7.04
			c-1.11,0-2.41-0.59-2.47-2.23c0-0.02-0.01-0.04-0.01-0.06c0-0.01,0-0.02,0-0.03C324.44,678.15,324.44,678.14,324.44,678.13"/>
		<path class="st15" d="M345.98,679.78h2.18v-1.76h-2.18V679.78z M345.98,677.31h1.09h-0.35v-10.43h0.35h-1.09L345.98,677.31z
			 M346.21,666.18h0.86h0.86l-0.86-1.68L346.21,666.18z M348.16,666.88h-0.74v10.43h0.74V666.88z M345.28,677.66
			C345.28,677.66,345.28,677.66,345.28,677.66C345.28,677.66,345.28,677.66,345.28,677.66v-11.14c0-0.03,0-0.05,0.01-0.07
			c0,0,0-0.01,0-0.01c0.01-0.02,0.01-0.05,0.03-0.07c0,0,0-0.01,0-0.01l1.44-2.81c0.06-0.12,0.18-0.19,0.31-0.19
			s0.25,0.07,0.31,0.19l1.44,2.81c0,0,0,0.01,0,0.01c0.01,0.02,0.02,0.04,0.02,0.06c0,0,0,0.01,0,0.01
			c0.01,0.02,0.01,0.05,0.01,0.07v11.13c0,0,0,0,0,0v0v2.46c0,0.09-0.04,0.18-0.1,0.25c-0.07,0.07-0.16,0.1-0.25,0.1l-2.88,0
			c-0.2,0-0.35-0.16-0.35-0.35V677.66z M331.36,672.75c0-0.33,0.06-0.64,0.19-0.94c0.08-0.18,0.28-0.26,0.46-0.19
			c0.18,0.08,0.26,0.28,0.19,0.46c-0.09,0.21-0.13,0.43-0.13,0.66c0,0.94,0.77,1.71,1.71,1.71c0.94,0,1.71-0.76,1.71-1.71
			c0-0.94-0.77-1.71-1.71-1.71c-0.2,0-0.39,0.03-0.58,0.1c-0.1,0.03-0.19,0.08-0.28,0.13c-0.17,0.1-0.38,0.04-0.48-0.13
			c-0.1-0.17-0.04-0.38,0.13-0.48c0.12-0.07,0.26-0.13,0.39-0.18c0.26-0.09,0.54-0.14,0.82-0.14c1.33,0,2.41,1.08,2.41,2.41
			c0,1.33-1.08,2.41-2.41,2.41C332.45,675.16,331.36,674.08,331.36,672.75z M329.85,672.2v1.09h0.21c0.4,0,0.76,0.26,0.93,0.65
			c0.16,0.39,0.09,0.83-0.2,1.11l-0.15,0.15l0.77,0.77l0.15-0.15c0.28-0.28,0.73-0.36,1.11-0.2c0.39,0.16,0.65,0.53,0.65,0.93v0.21
			h1.09v-0.21c0-0.4,0.26-0.76,0.65-0.93c0.38-0.16,0.83-0.08,1.11,0.2l0.15,0.15l0.77-0.77l-0.15-0.15
			c-0.28-0.28-0.36-0.72-0.2-1.11c0.16-0.4,0.53-0.65,0.93-0.65h0.21l0-1.09h-0.21c-0.4,0-0.76-0.26-0.93-0.65
			c-0.16-0.39-0.09-0.83,0.2-1.11l0.15-0.15l-0.77-0.77l-0.15,0.15c-0.28,0.28-0.73,0.36-1.11,0.2c-0.39-0.16-0.65-0.53-0.65-0.93
			v-0.21h-1.09v0.21c0,0.4-0.26,0.77-0.65,0.93c-0.38,0.16-0.83,0.08-1.11-0.2l-0.15-0.15l-0.77,0.77l0.15,0.15
			c0.28,0.28,0.36,0.72,0.2,1.11c-0.16,0.4-0.53,0.65-0.93,0.65H329.85z M329.15,673.31v-1.13c0-0.38,0.31-0.68,0.68-0.68h0.23
			c0.13,0,0.23-0.11,0.28-0.22c0.04-0.1,0.05-0.25-0.04-0.34l-0.16-0.16c-0.13-0.13-0.2-0.3-0.2-0.48s0.07-0.35,0.2-0.48l0.8-0.8
			c0.26-0.26,0.71-0.26,0.97,0l0.16,0.16c0.06,0.06,0.14,0.08,0.2,0.08c0.05,0,0.1-0.01,0.15-0.03c0.11-0.04,0.21-0.15,0.21-0.28
			v-0.23c0-0.38,0.31-0.68,0.68-0.68h1.13c0.38,0,0.68,0.31,0.68,0.68v0.23c0,0.13,0.11,0.23,0.21,0.28
			c0.05,0.02,0.1,0.03,0.15,0.03c0.06,0,0.13-0.01,0.2-0.08l0.16-0.16c0.26-0.26,0.71-0.26,0.97,0l0.8,0.8
			c0.13,0.13,0.2,0.3,0.2,0.48s-0.07,0.36-0.2,0.48l-0.16,0.16c-0.08,0.08-0.1,0.22-0.04,0.34c0.04,0.11,0.15,0.22,0.28,0.22h0.23
			c0.18,0,0.36,0.07,0.49,0.2c0.13,0.13,0.2,0.3,0.2,0.48v1.13c0,0.38-0.31,0.68-0.69,0.68h-0.23c-0.13,0-0.23,0.11-0.28,0.22
			c-0.05,0.13-0.03,0.26,0.04,0.34l0.16,0.16c0.13,0.13,0.2,0.3,0.2,0.48c0,0.18-0.07,0.36-0.2,0.48l-0.8,0.8
			c-0.26,0.26-0.71,0.26-0.97,0l-0.16-0.16c-0.06-0.06-0.14-0.07-0.2-0.07c-0.05,0-0.1,0.01-0.15,0.03
			c-0.11,0.04-0.22,0.15-0.22,0.28v0.23c0,0.38-0.31,0.68-0.68,0.68h-1.13c-0.38,0-0.68-0.31-0.68-0.68v-0.23
			c0-0.13-0.11-0.23-0.22-0.28c-0.05-0.02-0.1-0.03-0.14-0.03c-0.06,0-0.14,0.01-0.2,0.08l-0.16,0.16c-0.26,0.26-0.71,0.26-0.97,0
			l-0.8-0.8c-0.13-0.13-0.2-0.3-0.2-0.48c0-0.18,0.07-0.35,0.2-0.48l0.16-0.16c0.09-0.09,0.09-0.24,0.04-0.34
			c-0.04-0.11-0.15-0.22-0.28-0.22h-0.23c-0.18,0-0.36-0.07-0.49-0.2C329.22,673.67,329.15,673.49,329.15,673.31z M325.15,676.79
			c0.29-0.22,0.66-0.35,1.05-0.35s0.76,0.13,1.05,0.35v-11.66c0-0.58-0.47-1.05-1.05-1.05c-0.58,0-1.05,0.47-1.05,1.05V676.79z
			 M327.26,678.19c0-0.58-0.47-1.05-1.05-1.05c-0.57,0-1.04,0.46-1.05,1.02c0.02,1.5,1.36,1.62,1.77,1.62h7.04h6.89
			c0.41,0,1.75-0.12,1.77-1.62c-0.02-0.57-0.48-1.02-1.05-1.02c-0.58,0-1.06,0.47-1.06,1.05c0,0.2-0.16,0.35-0.35,0.35
			c-0.19,0-0.35-0.16-0.35-0.35c0-0.05,0-0.1,0.01-0.15c0-0.02-0.01-0.05-0.01-0.07v-11.67h-11.84v11.67c0,0.03,0,0.05-0.01,0.07
			c0.01,0.05,0.01,0.1,0.01,0.15c0,0.2-0.16,0.35-0.35,0.35C327.41,678.55,327.26,678.39,327.26,678.19z M340.51,676.79
			c0.3-0.22,0.66-0.35,1.06-0.35c0.39,0,0.76,0.13,1.05,0.35v-11.66c0-0.58-0.47-1.05-1.05-1.05c-0.58,0-1.06,0.47-1.06,1.05V676.79
			z M324.44,678.13c0-0.01,0-0.02,0-0.02c0-0.01,0-0.02,0-0.02v-12.95c0-0.97,0.79-1.76,1.76-1.76c0.97,0,1.76,0.79,1.76,1.76v0.46
			h11.84v-0.46c0-0.97,0.79-1.76,1.76-1.76c0.97,0,1.76,0.79,1.76,1.76v12.95c0,0.01,0,0.02,0,0.02c0,0.01,0,0.02,0,0.02
			c0,0.01,0,0.02,0,0.03c0,0.01,0,0.02,0,0.03c0,0.02,0,0.04-0.01,0.06c-0.06,1.64-1.36,2.23-2.47,2.23h-6.89h-7.04
			c-1.11,0-2.41-0.59-2.47-2.23c0-0.02-0.01-0.04-0.01-0.06c0-0.01,0-0.02,0-0.03C324.44,678.15,324.44,678.14,324.44,678.13z"/>
		<path class="st16" d="M361.85,662.46c0,0.87-0.7,1.57-1.57,1.57c-0.87,0-1.57-0.7-1.57-1.57c0-0.86,0.7-1.57,1.57-1.57
			C361.15,660.89,361.85,661.6,361.85,662.46z M357.94,673.98c-0.03-0.05-0.06-0.09-0.09-0.14l-1.09-1.49l-4.7,6.1
			c-0.35,0.45-0.26,1.1,0.19,1.45s1.1,0.26,1.45-0.19l4.31-5.6L357.94,673.98z M364.18,669.91l-1.32-0.41
			c-0.17-0.05-0.3-0.18-0.35-0.35l-0.9-2.76c-0.11-0.35-0.41-0.62-0.77-0.7l-2.2-0.49c-1.08-0.24-2.21,0.06-3.03,0.81l-3.34,3.06
			c-0.34,0.3-0.36,0.82-0.06,1.16l0.01,0.01c0.3,0.34,0.82,0.36,1.16,0.06l3.24-2.92c0.2-0.18,0.5,0.02,0.43,0.27l-0.84,2.72
			c-0.17,0.56-0.07,1.16,0.27,1.63l1.35,1.85c0.03,0.04,0.06,0.09,0.09,0.14l3.14,5.66c0.29,0.49,0.92,0.67,1.42,0.38
			c0.49-0.29,0.67-0.92,0.38-1.41l-3.31-5.84c-0.12-0.21-0.14-0.45-0.08-0.68l1.06-3.46c0.01-0.05,0.08-0.05,0.09,0l0.56,1.71
			c0.08,0.26,0.29,0.46,0.55,0.54l1.96,0.61c0.43,0.14,0.9-0.11,1.03-0.54l0-0.01C364.87,670.51,364.62,670.04,364.18,669.91z
			 M361.85,662.46c0,0.87-0.7,1.57-1.57,1.57c-0.87,0-1.57-0.7-1.57-1.57c0-0.86,0.7-1.57,1.57-1.57
			C361.15,660.89,361.85,661.6,361.85,662.46z"/>
	</g>
	<g>
		<path class="st11" d="M352.73,796.51v5.45h-1.72v-5.45h-1.95v-1.45h5.46l0.24,1.45H352.73z"/>
		<path class="st11" d="M358.24,802.09c-1.98,0-3.28-1.44-3.28-3.57c0-2.14,1.3-3.59,3.3-3.59s3.29,1.44,3.29,3.57
			S360.25,802.09,358.24,802.09z M358.25,796.27c-0.99,0-1.58,0.87-1.58,2.24s0.59,2.24,1.58,2.24c1,0,1.58-0.87,1.58-2.24
			S359.25,796.27,358.25,796.27z"/>
		<path class="st11" d="M364.71,799.67h-0.44v2.29h-1.71v-6.9h2.22c1.68,0,2.71,0.75,2.71,2.25
			C367.49,798.87,366.38,799.67,364.71,799.67z M364.68,796.35h-0.43v2.03h0.4c0.76,0,1.18-0.33,1.18-1.04
			C365.83,796.68,365.44,796.35,364.68,796.35z"/>
		<path class="st11" d="M372.22,802.09c-0.84,0-1.53-0.19-2.12-0.46l0.22-1.39c0.55,0.27,1.19,0.49,1.89,0.49
			c0.68,0,1.18-0.34,1.18-0.95c0-0.55-0.37-0.88-1.03-0.88c-0.41,0-0.71,0.09-0.97,0.2l-1.03-0.23l0.23-3.67h3.99l0.21,1.35h-2.94
			l-0.08,1.2c0.23-0.06,0.54-0.12,0.96-0.12c1.31,0,2.22,0.72,2.22,2.07C374.95,801.25,373.81,802.09,372.22,802.09z"/>
		<path class="st11" d="M378.03,801.96v-6.9h4.3v1.38h-2.62v1.27h2l0.22,1.37h-2.22v1.49h2.71v1.39H378.03z"/>
		<path class="st11" d="M389.49,801.96l-0.3-4.59l-1.31,4.6h-1.6l-1.31-4.6l-0.3,4.59h-1.49l0.5-6.9h2.21l1.34,4.75l1.35-4.75h2.15
			l0.5,6.9H389.49z"/>
		<path class="st11" d="M394.44,799.67H394v2.29h-1.71v-6.9h2.22c1.68,0,2.71,0.75,2.71,2.25
			C397.22,798.87,396.11,799.67,394.44,799.67z M394.41,796.35h-0.43v2.03h0.4c0.76,0,1.18-0.33,1.18-1.04
			C395.56,796.68,395.17,796.35,394.41,796.35z"/>
		<path class="st11" d="M398.03,801.96v-6.9h1.71v5.42h2.12l0.23,1.48H398.03z"/>
		<path class="st11" d="M405.53,802.09c-1.98,0-3.28-1.44-3.28-3.57c0-2.14,1.3-3.59,3.3-3.59s3.29,1.44,3.29,3.57
			S407.54,802.09,405.53,802.09z M405.54,796.27c-0.99,0-1.58,0.87-1.58,2.24s0.59,2.24,1.58,2.24c1,0,1.58-0.87,1.58-2.24
			S406.54,796.27,405.54,796.27z"/>
		<path class="st11" d="M412.97,799.42v2.54h-1.72v-2.52l-2.38-4.2l1.82-0.25l1.5,2.87l1.47-2.8h1.79L412.97,799.42z"/>
		<path class="st11" d="M422,801.96l-0.3-4.59l-1.31,4.6h-1.6l-1.31-4.6l-0.3,4.59h-1.49l0.5-6.9h2.21l1.34,4.75l1.35-4.75h2.15
			l0.5,6.9H422z"/>
		<path class="st11" d="M424.8,801.96v-6.9h4.3v1.38h-2.62v1.27h2l0.22,1.37h-2.22v1.49h2.71v1.39H424.8z"/>
		<path class="st11" d="M434.46,801.96l-2.72-4.13v4.13h-1.59v-6.9h1.66l2.54,3.86v-3.86h1.59v6.9H434.46z"/>
		<path class="st11" d="M440.49,796.51v5.45h-1.72v-5.45h-1.95v-1.45h5.46l0.24,1.45H440.49z"/>
		<path class="st11" d="M447.51,802.04c-0.93,0-1.71-0.2-2.41-0.52l0.25-1.46c0.71,0.38,1.5,0.64,2.19,0.64
			c0.49,0,0.83-0.21,0.83-0.62c0-0.39-0.2-0.57-1.17-0.94c-1.38-0.53-1.98-0.98-1.98-2.12c0-1.33,1.04-2.04,2.36-2.04
			c0.9,0,1.48,0.17,2.08,0.46l-0.26,1.44c-0.62-0.36-1.27-0.56-1.8-0.56c-0.52,0-0.77,0.22-0.77,0.54c0,0.35,0.19,0.52,1.05,0.85
			c1.51,0.55,2.1,1.07,2.1,2.17C449.98,801.38,448.88,802.04,447.51,802.04z"/>
		<path class="st11" d="M450.91,801.96v-6.9h4.3v1.38h-2.62v1.27h2l0.22,1.37h-2.22v1.49h2.71v1.39H450.91z"/>
		<path class="st11" d="M459.28,802.08c-2.09,0-3.35-1.4-3.35-3.56c0-2.14,1.34-3.58,3.3-3.58c0.78,0,1.41,0.17,1.91,0.45
			l-0.24,1.54c-0.42-0.32-0.94-0.56-1.54-0.56c-1.04,0-1.72,0.79-1.72,2.14c0,1.38,0.77,2.14,1.81,2.14c0.56,0,1.05-0.19,1.57-0.48
			l0.22,1.4C460.68,801.88,460.04,802.08,459.28,802.08z"/>
		<path class="st11" d="M465.44,796.51v5.45h-1.72v-5.45h-1.95v-1.45h5.46l0.24,1.45H465.44z"/>
		<path class="st11" d="M470.95,802.09c-1.98,0-3.28-1.44-3.28-3.57c0-2.14,1.3-3.59,3.3-3.59s3.29,1.44,3.29,3.57
			S472.96,802.09,470.95,802.09z M470.96,796.27c-0.99,0-1.58,0.87-1.58,2.24s0.59,2.24,1.58,2.24c1,0,1.58-0.87,1.58-2.24
			S471.96,796.27,470.96,796.27z"/>
		<path class="st11" d="M478.92,802.03l-1.52-2.44h-0.43v2.37h-1.7v-6.9h2.41c1.67,0,2.65,0.76,2.65,2.18c0,0.96-0.48,1.61-1.3,1.96
			l1.67,2.54L478.92,802.03z M477.51,796.35h-0.55v2.01h0.53c0.74,0,1.16-0.36,1.16-1.02C478.65,796.7,478.25,796.35,477.51,796.35z
			"/>
		<path class="st11" d="M483.56,802.04c-0.93,0-1.71-0.2-2.41-0.52l0.25-1.46c0.71,0.38,1.5,0.64,2.19,0.64
			c0.49,0,0.83-0.21,0.83-0.62c0-0.39-0.2-0.57-1.17-0.94c-1.38-0.53-1.98-0.98-1.98-2.12c0-1.33,1.04-2.04,2.36-2.04
			c0.9,0,1.48,0.17,2.08,0.46l-0.26,1.44c-0.62-0.36-1.27-0.56-1.8-0.56c-0.52,0-0.77,0.22-0.77,0.54c0,0.35,0.19,0.52,1.05,0.85
			c1.51,0.55,2.1,1.07,2.1,2.17C486.03,801.38,484.93,802.04,483.56,802.04z"/>
	</g>
	<g>
		<path class="st11" d="M365.29,809.79v2.97h-0.48v-2.96l-2.45-3.91l0.48-0.1l2.22,3.61l2.17-3.54h0.52L365.29,809.79z"/>
		<path class="st11" d="M369.16,812.76v-6.9h3.49v0.43h-3.01v2.64h2.42l0.06,0.43h-2.48v2.97h3.11v0.43H369.16z"/>
		<path class="st11" d="M376.42,805.82h0.52l2.74,6.9l-0.48,0.11l-0.95-2.43h-3.15l-0.92,2.36h-0.5L376.42,805.82z M375.26,809.97
			h2.82l-1.41-3.61L375.26,809.97z"/>
		<path class="st11" d="M385,812.83l-2.35-3.24h-1.02v3.17h-0.48v-6.9h1.66c1.29,0,2.14,0.67,2.14,1.82c0,1.08-0.78,1.69-1.76,1.86
			l2.32,3.18L385,812.83z M382.78,806.29h-1.15v2.88h1.02c1.1,0,1.8-0.51,1.8-1.47C384.45,806.79,383.85,806.29,382.78,806.29z"/>
		<path class="st11" d="M389.09,812.76v-6.9h3.49v0.43h-3.01v2.64h2.42l0.06,0.43h-2.48v2.97h3.11v0.43H389.09z"/>
		<path class="st11" d="M398.83,812.76l-4.23-6.17v6.17h-0.46v-6.9h0.49l4.12,6v-6h0.46v6.9H398.83z"/>
		<path class="st11" d="M402.96,812.76h-1.75v-6.9h1.78c2.21,0,3.56,1.37,3.56,3.44C406.55,811.47,405.07,812.76,402.96,812.76z
			 M402.98,806.29h-1.29v6.04h1.32c1.82,0,3.04-1.03,3.04-3.02C406.05,807.35,404.81,806.29,402.98,806.29z"/>
		<path class="st11" d="M417.29,812.76l-0.47-6.21l-2.57,6.25h-0.4l-2.57-6.25l-0.47,6.21h-0.46l0.56-6.9h0.59l2.56,6.31l2.57-6.31
			h0.58l0.56,6.9H417.29z"/>
		<path class="st11" d="M421.84,805.82h0.52l2.74,6.9l-0.48,0.11l-0.95-2.43h-3.15l-0.92,2.36h-0.5L421.84,805.82z M420.68,809.97
			h2.82l-1.41-3.61L420.68,809.97z"/>
		<path class="st11" d="M430.42,812.83l-2.35-3.24h-1.02v3.17h-0.48v-6.9h1.66c1.29,0,2.14,0.67,2.14,1.82
			c0,1.08-0.78,1.69-1.76,1.86l2.32,3.18L430.42,812.83z M428.2,806.29h-1.15v2.88h1.02c1.1,0,1.8-0.51,1.8-1.47
			C429.87,806.79,429.27,806.29,428.2,806.29z"/>
		<path class="st11" d="M434.86,812.89c-1.81,0-3.09-1.44-3.09-3.57c0-2.1,1.3-3.59,3.17-3.59c0.74,0,1.4,0.24,1.92,0.6l-0.09,0.5
			c-0.57-0.41-1.17-0.67-1.84-0.67c-1.63,0-2.66,1.3-2.66,3.14c0,1.85,1.04,3.16,2.63,3.16c0.75,0,1.44-0.3,2-0.74l0.07,0.46
			C436.45,812.58,435.71,812.89,434.86,812.89z"/>
		<path class="st11" d="M443.21,812.76v-3.4h-4.11v3.4h-0.48v-6.9h0.48v3.07h4.11v-3.07h0.48v6.9H443.21z"/>
		<path class="st11" d="M447.54,812.76v-0.32l2.48-2.69c0.81-0.88,1.05-1.37,1.05-2.07c0-0.86-0.55-1.39-1.43-1.39
			c-0.7,0-1.31,0.35-1.85,0.81l-0.08-0.49c0.51-0.41,1.14-0.74,1.95-0.74c1.2,0,1.9,0.72,1.9,1.78c0,0.84-0.34,1.44-1.17,2.33
			l-2.21,2.37h3.44l0.06,0.41H447.54z"/>
		<path class="st11" d="M455.41,812.89c-1.51,0-2.39-1.44-2.39-3.5s0.89-3.52,2.4-3.52s2.39,1.44,2.39,3.5
			C457.8,811.44,456.92,812.89,455.41,812.89z M455.42,806.29c-1.26,0-1.91,1.32-1.91,3.09c0,1.77,0.65,3.09,1.91,3.09
			c1.25,0,1.9-1.32,1.9-3.09C457.31,807.61,456.67,806.29,455.42,806.29z"/>
		<path class="st11" d="M460.39,812.76v-6.26l-1.49,0.63l-0.07-0.4l1.69-0.77h0.34v6.8H460.39z"/>
		<path class="st11" d="M464.18,809.17c-0.7-0.3-1.23-0.8-1.23-1.63c0-0.93,0.84-1.67,2-1.67c1.16,0,1.94,0.73,1.94,1.63
			c0,0.8-0.55,1.35-1.26,1.73c0.91,0.36,1.46,0.92,1.46,1.8c0,1.09-0.97,1.86-2.19,1.86c-1.33,0-2.22-0.79-2.22-1.81
			C462.68,810.22,463.24,809.61,464.18,809.17z M464.92,812.48c0.89,0,1.68-0.57,1.68-1.45c0-0.78-0.44-1.2-1.98-1.7
			c-0.88,0.37-1.45,0.96-1.45,1.72C463.17,811.91,463.89,812.48,464.92,812.48z M465.18,809.07c0.76-0.36,1.22-0.89,1.22-1.53
			c0-0.71-0.6-1.26-1.47-1.26c-0.97,0-1.49,0.64-1.49,1.25C463.44,808.25,463.81,808.64,465.18,809.07z"/>
	</g>
	<g>
		<path class="st11" d="M470.33,808.46v0.97h-0.26v-0.97h-2.06v-0.18l1.98-2.82h0.34v2.76h0.67v0.23H470.33z M470.07,805.76
			l-1.74,2.46h1.74V805.76z"/>
		<path class="st11" d="M472.21,809.43v-3.65l-0.87,0.37l-0.04-0.23l0.99-0.45h0.2v3.96H472.21z"/>
	</g>
</g>
</svg>
