<?xml version="1.0" encoding="utf-8"?>
<!-- Generator: Adobe Illustrator 24.0.0, SVG Export Plug-In . SVG Version: 6.00 Build 0)  -->
<svg version="1.1" id="Layer_1" xmlns="http://www.w3.org/2000/svg" xmlns:xlink="http://www.w3.org/1999/xlink" x="0px" y="0px"
	 viewBox="0 0 595.28 841.89" style="enable-background:new 0 0 595.28 841.89;" xml:space="preserve">
<style type="text/css">
	.st0{fill:#003F65;}
	.st1{font-family:'Whitney-Light';}
	.st2{font-size:10px;}
	.st3{fill:#80C28F;}
	.st4{fill:#FFFFFF;}
</style>
<g>
	<g>
		<path class="st0" d="M36.24,421.92H35.8v2.29h-1.71v-6.9h2.22c1.68,0,2.71,0.75,2.71,2.25C39.02,421.12,37.91,421.92,36.24,421.92
			z M36.21,418.6h-0.43v2.03h0.4c0.76,0,1.18-0.33,1.18-1.04C37.36,418.93,36.97,418.6,36.21,418.6z"/>
		<path class="st0" d="M39.83,424.21v-6.9h4.3v1.38h-2.62v1.27h2l0.22,1.37h-2.22v1.49h2.71v1.39H39.83z"/>
		<path class="st0" d="M48.83,424.28l-1.52-2.44h-0.43v2.37h-1.7v-6.9h2.41c1.67,0,2.65,0.76,2.65,2.18c0,0.96-0.48,1.61-1.3,1.96
			l1.67,2.54L48.83,424.28z M47.42,418.6h-0.55v2.01h0.53c0.74,0,1.16-0.36,1.16-1.02C48.56,418.95,48.16,418.6,47.42,418.6z"/>
		<path class="st0" d="M54.35,424.33c-2.09,0-3.35-1.4-3.35-3.56c0-2.14,1.34-3.58,3.3-3.58c0.78,0,1.41,0.17,1.91,0.45l-0.24,1.54
			c-0.42-0.32-0.94-0.56-1.54-0.56c-1.04,0-1.72,0.79-1.72,2.14c0,1.38,0.77,2.14,1.81,2.14c0.56,0,1.05-0.19,1.57-0.48l0.22,1.4
			C55.75,424.13,55.11,424.33,54.35,424.33z"/>
		<path class="st0" d="M57.3,424.21v-6.9h4.3v1.38h-2.62v1.27h2l0.22,1.37h-2.22v1.49h2.71v1.39H57.3z"/>
		<path class="st0" d="M66.96,424.21l-2.72-4.13v4.13h-1.59v-6.9h1.66l2.54,3.86v-3.86h1.59v6.9H66.96z"/>
		<path class="st0" d="M72.99,418.76v5.45h-1.72v-5.45h-1.95v-1.45h5.46l0.24,1.45H72.99z"/>
		<path class="st0" d="M76.87,417.28h1.88l2.4,6.72l-1.72,0.28l-0.51-1.5h-2.4l-0.46,1.43h-1.67L76.87,417.28z M76.93,421.44h1.56
			l-0.77-2.4L76.93,421.44z"/>
		<path class="st0" d="M84.8,424.34c-2.19,0-3.4-1.44-3.4-3.57c0-2.14,1.31-3.59,3.44-3.59c0.85,0,1.56,0.2,2.11,0.51l-0.23,1.49
			c-0.52-0.33-1.13-0.59-1.84-0.59c-1.19,0-1.77,0.88-1.77,2.17c0,1.3,0.6,2.21,1.79,2.21c0.38,0,0.65-0.08,0.93-0.22v-1.23h-1.2
			l-0.2-1.27h2.89v3.36C86.6,424.08,85.75,424.34,84.8,424.34z"/>
		<path class="st0" d="M88.47,424.21v-6.9h4.3v1.38h-2.62v1.27h2l0.22,1.37h-2.22v1.49h2.71v1.39H88.47z"/>
		<path class="st0" d="M98.94,424.34c-1.98,0-3.28-1.44-3.28-3.57c0-2.14,1.3-3.59,3.3-3.59c2,0,3.29,1.44,3.29,3.57
			S100.95,424.34,98.94,424.34z M98.95,418.52c-0.99,0-1.58,0.87-1.58,2.24s0.59,2.24,1.58,2.24c1,0,1.58-0.87,1.58-2.24
			S99.95,418.52,98.95,418.52z"/>
		<path class="st0" d="M104.96,418.74v1.41h1.8l0.24,1.43h-2.04v2.63h-1.7v-6.9h4.13v1.43H104.96z"/>
		<path class="st0" d="M114.4,424.28l-2.31-3.28v3.21h-1.71v-6.9h1.71v2.95l2.16-2.95h1.92l-2.45,3.2l2.53,3.49L114.4,424.28z"/>
		<path class="st0" d="M116.92,424.21v-6.9h1.71v6.9H116.92z"/>
		<path class="st0" d="M119.93,424.21v-6.9h1.71v5.42h2.12l0.23,1.48H119.93z"/>
		<path class="st0" d="M127.43,424.34c-1.98,0-3.28-1.44-3.28-3.57c0-2.14,1.3-3.59,3.3-3.59c2,0,3.29,1.44,3.29,3.57
			S129.43,424.34,127.43,424.34z M127.44,418.52c-0.99,0-1.58,0.87-1.58,2.24s0.59,2.24,1.58,2.24c1,0,1.58-0.87,1.58-2.24
			S128.44,418.52,127.44,418.52z"/>
		<path class="st0" d="M137.85,424.21l-0.3-4.59l-1.31,4.6h-1.6l-1.31-4.6l-0.3,4.59h-1.49l0.5-6.9h2.21l1.34,4.75l1.35-4.75h2.15
			l0.5,6.9H137.85z"/>
		<path class="st0" d="M140.66,424.21v-6.9h4.3v1.38h-2.62v1.27h2l0.22,1.37h-2.22v1.49h2.71v1.39H140.66z"/>
		<path class="st0" d="M149.3,418.76v5.45h-1.72v-5.45h-1.95v-1.45h5.46l0.24,1.45H149.3z"/>
		<path class="st0" d="M155.75,424.28l-1.52-2.44h-0.43v2.37h-1.7v-6.9h2.41c1.67,0,2.65,0.76,2.65,2.18c0,0.96-0.48,1.61-1.3,1.96
			l1.67,2.54L155.75,424.28z M154.34,418.6h-0.55v2.01h0.53c0.74,0,1.16-0.36,1.16-1.02C155.48,418.95,155.08,418.6,154.34,418.6z"
			/>
		<path class="st0" d="M158.26,424.21v-6.9h4.3v1.38h-2.62v1.27h2l0.22,1.37h-2.22v1.49h2.71v1.39H158.26z"/>
		<path class="st0" d="M165.74,424.29c-0.93,0-1.71-0.2-2.41-0.52l0.25-1.46c0.71,0.38,1.5,0.64,2.19,0.64
			c0.49,0,0.83-0.21,0.83-0.62c0-0.39-0.2-0.57-1.17-0.94c-1.38-0.53-1.98-0.98-1.98-2.12c0-1.33,1.04-2.04,2.36-2.04
			c0.9,0,1.48,0.17,2.08,0.46l-0.26,1.44c-0.62-0.36-1.27-0.56-1.8-0.56c-0.52,0-0.77,0.22-0.77,0.54c0,0.35,0.19,0.52,1.05,0.85
			c1.51,0.55,2.1,1.07,2.1,2.17C168.2,423.63,167.1,424.29,165.74,424.29z"/>
	</g>
	<g>
		<path class="st0" d="M56.78,430.76v5.45h-1.72v-5.45h-1.95v-1.45h5.46l0.24,1.45H56.78z"/>
		<path class="st0" d="M63.23,436.28l-1.52-2.44h-0.43v2.37h-1.7v-6.9h2.41c1.67,0,2.65,0.76,2.65,2.18c0,0.96-0.48,1.61-1.3,1.96
			l1.67,2.54L63.23,436.28z M61.82,430.6h-0.55v2.01h0.53c0.74,0,1.16-0.36,1.16-1.02C62.96,430.95,62.56,430.6,61.82,430.6z"/>
		<path class="st0" d="M67.72,429.28h1.88l2.4,6.72l-1.72,0.28l-0.51-1.5h-2.4l-0.46,1.43h-1.67L67.72,429.28z M67.78,433.44h1.56
			l-0.77-2.4L67.78,433.44z"/>
		<path class="st0" d="M75.63,436.24h-1.75l-2.42-6.72l1.86-0.28l1.54,4.84l1.5-4.77h1.77L75.63,436.24z"/>
		<path class="st0" d="M78.88,436.21v-6.9h4.3v1.38h-2.62v1.27h2l0.22,1.37h-2.22v1.49h2.71v1.39H78.88z"/>
		<path class="st0" d="M84.23,436.21v-6.9h1.71v5.42h2.12l0.23,1.48H84.23z"/>
		<path class="st0" d="M89.09,436.21v-6.9h1.71v5.42h2.12l0.23,1.48H89.09z"/>
		<path class="st0" d="M93.95,436.21v-6.9h4.3v1.38h-2.62v1.27h2l0.22,1.37h-2.22v1.49h2.71v1.39H93.95z"/>
		<path class="st0" d="M101.72,436.21H99.3v-6.9h2.38c2.4,0,3.65,1.39,3.65,3.44S104.04,436.21,101.72,436.21z M101.63,430.64h-0.62
			v4.24h0.62c1.22,0,1.98-0.64,1.98-2.12C103.61,431.31,102.8,430.64,101.63,430.64z"/>
	</g>
	<text transform="matrix(1 0 0 1 105.7178 434.2094)" class="st0 st1 st2"> </text>
	<g>
		<path class="st0" d="M108.57,436.21v-0.32l2.48-2.69c0.81-0.88,1.05-1.37,1.05-2.07c0-0.86-0.55-1.39-1.43-1.39
			c-0.7,0-1.31,0.35-1.85,0.81l-0.08-0.49c0.51-0.41,1.14-0.74,1.95-0.74c1.2,0,1.9,0.72,1.9,1.78c0,0.84-0.34,1.44-1.17,2.33
			l-2.21,2.37h3.44l0.06,0.41H108.57z"/>
		<path class="st0" d="M116.44,436.34c-1.51,0-2.39-1.44-2.39-3.5s0.89-3.52,2.4-3.52s2.39,1.44,2.39,3.5
			C118.83,434.89,117.94,436.34,116.44,436.34z M116.45,429.74c-1.26,0-1.91,1.32-1.91,3.09c0,1.77,0.65,3.09,1.91,3.09
			c1.25,0,1.9-1.32,1.9-3.09C118.34,431.06,117.7,429.74,116.45,429.74z"/>
		<path class="st0" d="M121.42,436.21v-6.26l-1.49,0.63l-0.07-0.4l1.69-0.77h0.34v6.8H121.42z"/>
		<path class="st0" d="M124.26,432.87c0.61-0.44,1.24-0.68,1.92-0.68c1.21,0,2.02,0.77,2.02,1.98c0,1.32-0.91,2.17-2.12,2.17
			c-1.35,0-2.33-1.15-2.33-2.87c0-2.25,1.33-3.53,3.41-4.17l0.07,0.46C125.46,430.28,124.45,431.31,124.26,432.87z M124.23,433.36
			v0.08c0,1.45,0.78,2.49,1.86,2.49c0.99,0,1.61-0.7,1.61-1.74c0-0.91-0.54-1.58-1.57-1.58
			C125.43,432.61,124.8,432.93,124.23,433.36z"/>
		<path class="st0" d="M128.85,437.43l-0.42-0.09l4.72-8.08l0.42,0.09L128.85,437.43z"/>
		<path class="st0" d="M135.69,436.21v-6.26l-1.49,0.63l-0.07-0.4l1.69-0.77h0.34v6.8H135.69z"/>
		<path class="st0" d="M139.19,436.28l-0.45-0.11l2.78-6.3h-3.59l-0.06-0.42h4.19v0.33L139.19,436.28z"/>
	</g>
	<g>
		<path class="st0" d="M144.07,432.96c-0.44,0-0.82-0.13-1.08-0.31l0.05-0.28c0.34,0.23,0.63,0.34,1.05,0.34
			c0.6,0,0.98-0.37,0.98-0.88c0-0.54-0.38-0.91-1.2-0.91h-0.17l-0.03-0.25h0.24c0.7,0,1.08-0.33,1.08-0.83
			c0-0.42-0.29-0.73-0.84-0.73c-0.42,0-0.76,0.16-1.07,0.38l-0.04-0.27c0.3-0.22,0.66-0.36,1.11-0.36c0.73,0,1.11,0.43,1.11,0.97
			c0,0.53-0.37,0.82-0.78,0.95c0.51,0.15,0.85,0.48,0.85,1.04C145.35,432.48,144.8,432.96,144.07,432.96z"/>
		<path class="st0" d="M148.39,430.95c-0.36,0.25-0.72,0.38-1.11,0.38c-0.69,0-1.18-0.45-1.18-1.19c0-0.71,0.47-1.27,1.24-1.27
			c0.8,0,1.35,0.67,1.35,1.67c0,1.31-0.79,2.09-2.04,2.43l-0.05-0.26C147.66,432.46,148.25,431.84,148.39,430.95z M148.42,430.66
			v-0.11c0-0.87-0.46-1.45-1.08-1.45c-0.6,0-0.95,0.43-0.95,1.02c0,0.56,0.33,0.96,0.92,0.96
			C147.69,431.08,148.08,430.92,148.42,430.66z"/>
	</g>
	<g>
		<path class="st3" d="M100.98,306.17c-4.04,0-8.04,0.46-12.01,1.38c-3.97,0.92-7.77,2.29-11.42,4.1c-3.65,1.82-7.08,4.07-10.3,6.77
			c-3.22,2.7-6.11,5.81-8.68,9.34c-2.84,3.9-5.07,8.02-6.68,12.37c-1.62,4.35-2.64,8.77-3.09,13.26c-0.44,4.49-0.31,8.96,0.4,13.42
			c0.71,4.46,1.96,8.76,3.76,12.89c1.8,4.13,4.14,8.02,7.03,11.66c2.89,3.64,6.28,6.88,10.17,9.73l30.81-42.48V306.17z"/>
		<path class="st0" d="M114.91,409.11c4.47-1.25,8.64-3.01,12.52-5.28c3.88-2.27,7.42-4.99,10.61-8.16
			c3.2-3.18,5.93-6.71,8.21-10.59c2.28-3.89,4.04-8.06,5.29-12.52c1.25-4.46,1.87-9.11,1.87-13.94c0-4.83-0.62-9.48-1.87-13.96
			c-1.25-4.47-3.01-8.65-5.29-12.54c-2.28-3.89-5.01-7.43-8.21-10.63c-3.19-3.2-6.73-5.94-10.61-8.22
			c-3.88-2.28-8.06-4.04-12.52-5.3c-4.47-1.25-9.11-1.88-13.94-1.88v52.51L70.2,400.98c4.33,3.16,9.1,5.62,14.29,7.37
			c5.19,1.75,10.69,2.63,16.49,2.63C105.8,410.98,110.45,410.36,114.91,409.11"/>
		<path class="st4" d="M100.98,401.5c23.69,0,42.9-19.23,42.9-42.96c0-23.73-19.21-42.96-42.9-42.96s-42.9,19.23-42.9,42.96
			C58.07,382.27,77.28,401.5,100.98,401.5"/>
		<path class="st4" d="M100.88,401.16c23.48,0,42.52-19.04,42.52-42.52s-19.04-42.52-42.52-42.52s-42.52,19.04-42.52,42.52
			S77.39,401.16,100.88,401.16"/>
	</g>
	<g>
		<path class="st0" d="M75.46,339.57c-0.75,0-1.42-0.18-1.93-0.45l0.14-0.96c0.47,0.31,1.12,0.59,1.81,0.59
			c0.72,0,1.23-0.38,1.23-1.05c0-0.63-0.28-0.89-1.32-1.36c-1.3-0.59-1.79-1.02-1.79-2.01c0-1.11,0.85-1.82,2.1-1.82
			c0.67,0,1.17,0.16,1.57,0.39l-0.15,0.94c-0.38-0.29-0.9-0.51-1.45-0.51c-0.79,0-1.14,0.42-1.14,0.93c0,0.53,0.26,0.78,1.31,1.26
			c1.34,0.61,1.8,1.07,1.8,2.11C77.64,338.82,76.75,339.57,75.46,339.57z"/>
		<path class="st0" d="M81.47,333.45v6.04h-0.94v-6.04h-2.2v-0.86h5.26l0.14,0.86H81.47z"/>
		<path class="st0" d="M86.1,332.56h0.94l2.66,6.8l-0.91,0.2l-0.82-2.14h-2.84l-0.78,2.07H83.4L86.1,332.56z M85.45,336.59h2.21
			l-1.11-2.93L85.45,336.59z"/>
		<path class="st0" d="M92.57,333.45v6.04h-0.94v-6.04h-2.2v-0.86h5.26l0.14,0.86H92.57z"/>
		<path class="st0" d="M95.93,339.49v-6.9h3.72v0.86h-2.78v2h2.16l0.14,0.86h-2.3v2.32h2.88v0.86H95.93z"/>
		<path class="st0" d="M107.58,339.49v-3.18h-3.49v3.18h-0.94v-6.9h0.94v2.86h3.49v-2.86h0.94v6.9H107.58z"/>
		<path class="st0" d="M117.09,339.49h-0.79l-1.87-5.59l-1.87,5.59h-0.78l-2.04-6.77l0.92-0.2l1.56,5.49l1.76-5.42h0.94l1.76,5.42
			l1.53-5.42h0.96L117.09,339.49z"/>
		<path class="st0" d="M123.15,336.75v2.74h-0.94v-2.74l-2.44-4.03l0.94-0.2l1.98,3.37l1.93-3.3h1.04L123.15,336.75z"/>
		<path class="st0" d="M128.07,339.57c-0.75,0-1.42-0.18-1.93-0.45l0.14-0.96c0.47,0.31,1.12,0.59,1.81,0.59
			c0.72,0,1.23-0.38,1.23-1.05c0-0.63-0.28-0.89-1.32-1.36c-1.3-0.59-1.79-1.02-1.79-2.01c0-1.11,0.85-1.82,2.1-1.82
			c0.67,0,1.17,0.16,1.57,0.39l-0.15,0.94c-0.38-0.29-0.9-0.51-1.45-0.51c-0.79,0-1.14,0.42-1.14,0.93c0,0.53,0.26,0.78,1.31,1.26
			c1.34,0.61,1.8,1.07,1.8,2.11C130.25,338.82,129.36,339.57,128.07,339.57z"/>
	</g>
	<g>
		<path class="st3" d="M71.36,371.77v-6.9h0.94v6.04h2.49l0.13,0.86H71.36z"/>
		<path class="st3" d="M78.48,371.9c-1.94,0-3.17-1.44-3.17-3.57c0-2.14,1.25-3.59,3.19-3.59c1.95,0,3.17,1.44,3.17,3.57
			S80.43,371.9,78.48,371.9z M78.49,365.61c-1.37,0-2.21,1.06-2.21,2.72s0.85,2.72,2.21,2.72c1.37,0,2.21-1.06,2.21-2.72
			S79.85,365.61,78.49,365.61z"/>
		<path class="st3" d="M85.96,371.9c-1.94,0-3.19-1.44-3.19-3.57c0-2.14,1.27-3.59,3.21-3.59c0.82,0,1.43,0.21,1.96,0.57l-0.14,0.96
			c-0.5-0.38-1.09-0.67-1.83-0.67c-1.4,0-2.23,1.06-2.23,2.72s0.84,2.71,2.23,2.71c0.74,0,1.39-0.29,1.94-0.69l0.14,0.89
			C87.52,371.62,86.75,371.9,85.96,371.9z"/>
		<path class="st3" d="M91.59,364.85h0.94l2.66,6.8l-0.91,0.2l-0.82-2.14h-2.84l-0.78,2.07H88.9L91.59,364.85z M90.94,368.88h2.21
			l-1.11-2.93L90.94,368.88z"/>
		<path class="st3" d="M96.32,371.77v-6.9h0.94v6.04h2.49l0.13,0.86H96.32z"/>
		<path class="st3" d="M106.95,371.84l-2.11-2.98h-0.71v2.91h-0.94v-6.9h1.88c1.41,0,2.29,0.7,2.29,1.96c0,1.05-0.61,1.67-1.51,1.91
			l2.05,2.89L106.95,371.84z M105.03,365.71h-0.9v2.37h0.8c0.91,0,1.49-0.41,1.49-1.19C106.42,366.14,105.95,365.71,105.03,365.71z"
			/>
		<path class="st3" d="M111.7,371.9c-1.94,0-3.17-1.44-3.17-3.57c0-2.14,1.25-3.59,3.19-3.59c1.95,0,3.17,1.44,3.17,3.57
			S113.65,371.9,111.7,371.9z M111.71,365.61c-1.37,0-2.21,1.06-2.21,2.72s0.85,2.72,2.21,2.72c1.37,0,2.21-1.06,2.21-2.72
			S113.07,365.61,111.71,365.61z"/>
		<path class="st3" d="M118.16,364.85h0.94l2.66,6.8l-0.91,0.2l-0.82-2.14h-2.84l-0.78,2.07h-0.95L118.16,364.85z M117.51,368.88
			h2.21l-1.11-2.93L117.51,368.88z"/>
		<path class="st3" d="M124.84,371.77h-1.96v-6.9h2c2.4,0,3.63,1.42,3.63,3.44C128.51,370.37,127.21,371.77,124.84,371.77z
			 M124.91,365.73h-1.09v5.2h1.06c1.66,0,2.66-0.84,2.66-2.6C127.54,366.6,126.49,365.73,124.91,365.73z"/>
		<path class="st3" d="M131.46,371.85c-0.75,0-1.42-0.18-1.93-0.45l0.14-0.96c0.47,0.31,1.12,0.59,1.81,0.59
			c0.72,0,1.23-0.38,1.23-1.05c0-0.63-0.28-0.89-1.32-1.36c-1.3-0.59-1.79-1.02-1.79-2.01c0-1.11,0.85-1.82,2.1-1.82
			c0.67,0,1.17,0.16,1.57,0.39l-0.15,0.94c-0.38-0.29-0.9-0.51-1.45-0.51c-0.79,0-1.14,0.42-1.14,0.93c0,0.53,0.26,0.78,1.31,1.26
			c1.34,0.61,1.8,1.07,1.8,2.11C133.64,371.11,132.75,371.85,131.46,371.85z"/>
	</g>
	<g>
		<path class="st0" d="M88.36,351.17c1.2-0.78,2.44-1.2,3.98-1.2c2.56,0,4.69,1.61,4.69,4.98c0,3.52-2.66,5.81-6.13,5.81
			c-3.76,0-6.35-2.42-6.35-6.98c0-5.91,4.08-9.13,9.55-10.18l0.49,3.22C91.48,347.54,89.16,348.83,88.36,351.17z M88.21,353.81
			c0.02,2.78,1.17,4,2.69,4c1.42,0,2.34-1,2.34-2.59s-0.78-2.37-2.32-2.37C89.97,352.86,89.09,353.22,88.21,353.81z"/>
		<path class="st0" d="M105.52,360.77c-4.13,0-6.88-3.05-6.88-8.57s2.76-8.57,6.88-8.57c4.1,0,6.84,3.05,6.84,8.57
			S109.62,360.77,105.52,360.77z M105.52,346.73c-1.9,0-2.83,1.95-2.83,5.47s0.93,5.47,2.83,5.47s2.81-1.95,2.81-5.47
			S107.43,346.73,105.52,346.73z"/>
	</g>
	<g>
		<path class="st0" d="M115.83,348.35c-1.18,0-2.12-0.88-2.12-2.51s0.95-2.51,2.12-2.51c1.17,0,2.1,0.88,2.1,2.5
			C117.94,347.46,117,348.35,115.83,348.35z M115.83,344.4c-0.54,0-0.81,0.53-0.81,1.45c0,0.88,0.28,1.44,0.81,1.44
			c0.53,0,0.78-0.54,0.78-1.45C116.61,344.94,116.35,344.4,115.83,344.4z M115.58,351.78l2.75-4.2l2.7-4.23l1.13,0.25l-2.76,4.22
			l-2.7,4.22L115.58,351.78z M121.91,352.06c-1.18,0-2.1-0.88-2.1-2.5c0-1.64,0.93-2.52,2.1-2.52c1.18,0,2.12,0.88,2.12,2.51
			C124.02,351.16,123.08,352.06,121.91,352.06z M121.91,348.11c-0.54,0-0.79,0.54-0.79,1.45c0,0.89,0.28,1.44,0.79,1.44
			c0.53,0,0.79-0.54,0.79-1.45C122.7,348.66,122.42,348.11,121.91,348.11z"/>
	</g>
	<g>
		<path class="st3" d="M96.16,388.8v3.3h-3.83v-3.3h-7.64v-2.54l6.96-10.69h4.52v10.47h2.32v2.76H96.16z M92.33,379.5l-4.22,6.54
			h4.22V379.5z"/>
		<path class="st3" d="M106.71,392.42c-4.13,0-6.88-3.05-6.88-8.57s2.76-8.57,6.88-8.57c4.1,0,6.84,3.05,6.84,8.57
			S110.81,392.42,106.71,392.42z M106.71,378.38c-1.9,0-2.83,1.95-2.83,5.47s0.93,5.47,2.83,5.47s2.81-1.95,2.81-5.47
			S108.61,378.38,106.71,378.38z"/>
	</g>
	<g>
		<path class="st3" d="M117.02,380c-1.18,0-2.12-0.88-2.12-2.51s0.95-2.51,2.12-2.51c1.17,0,2.1,0.88,2.1,2.5
			C119.12,379.11,118.19,380,117.02,380z M117.02,376.05c-0.54,0-0.81,0.53-0.81,1.45c0,0.88,0.28,1.44,0.81,1.44
			s0.78-0.54,0.78-1.45C117.8,376.59,117.53,376.05,117.02,376.05z M116.77,383.43l2.75-4.2l2.7-4.23l1.13,0.25l-2.76,4.22
			l-2.7,4.22L116.77,383.43z M123.09,383.71c-1.18,0-2.1-0.88-2.1-2.5c0-1.64,0.93-2.52,2.1-2.52c1.18,0,2.12,0.88,2.12,2.51
			C125.21,382.81,124.27,383.71,123.09,383.71z M123.09,379.76c-0.54,0-0.79,0.54-0.79,1.45c0,0.89,0.28,1.44,0.79,1.44
			c0.53,0,0.79-0.54,0.79-1.45C123.89,380.31,123.61,379.76,123.09,379.76z"/>
	</g>
</g>
</svg>
