<?xml version="1.0" encoding="utf-8"?>
<!-- Generator: Adobe Illustrator 24.0.0, SVG Export Plug-In . SVG Version: 6.00 Build 0)  -->
<svg version="1.1" id="Layer_1" xmlns="http://www.w3.org/2000/svg" xmlns:xlink="http://www.w3.org/1999/xlink" x="0px" y="0px"
	 viewBox="0 0 595.28 841.89" style="enable-background:new 0 0 595.28 841.89;" xml:space="preserve">
<style type="text/css">
	.st0{fill:#003F65;}
	.st1{fill:none;stroke:#EF7918;stroke-width:2.029;stroke-linecap:round;}
	.st2{fill:none;stroke:#80C28F;stroke-width:2.03;stroke-linecap:round;}
	.st3{fill:none;stroke:#BCBE00;stroke-width:2.03;stroke-linecap:round;}
	.st4{fill:none;stroke:#007B49;stroke-width:2.03;stroke-linecap:round;}
	.st5{filter:url(#Adobe_OpacityMaskFilter);}
	.st6{fill:url(#SVGID_2_);}
	.st7{mask:url(#SVGID_1_);}
	.st8{clip-path:url(#SVGID_4_);fill:#FFFFFF;}
	.st9{fill:#EF7918;}
	.st10{fill:#BCBE00;}
	.st11{fill:none;stroke:#BCBE00;stroke-width:0.568;stroke-linecap:round;stroke-miterlimit:10;}
	.st12{fill:none;stroke:#BCBE00;stroke-width:0.568;stroke-linejoin:round;stroke-miterlimit:10;}
	.st13{fill:none;stroke:#BCBE00;stroke-width:0.568;stroke-miterlimit:10;}
	.st14{fill:#007B49;}
	.st15{fill:none;stroke:#BCBE00;stroke-width:2;stroke-linecap:round;}
	.st16{fill:#80C28F;}
</style>
<g>
	<g>
		<path class="st0" d="M199.69,798.72h-0.44V801h-1.71v-6.9h2.22c1.68,0,2.71,0.75,2.71,2.25
			C202.47,797.92,201.36,798.72,199.69,798.72z M199.66,795.4h-0.43v2.03h0.4c0.76,0,1.18-0.33,1.18-1.04
			C200.81,795.73,200.42,795.4,199.66,795.4z"/>
		<path class="st0" d="M206.31,801.13c-1.98,0-3.28-1.44-3.28-3.57c0-2.14,1.3-3.59,3.3-3.59c2,0,3.29,1.44,3.29,3.57
			S208.32,801.13,206.31,801.13z M206.32,795.32c-0.99,0-1.58,0.87-1.58,2.24s0.59,2.24,1.58,2.24c1,0,1.58-0.87,1.58-2.24
			S207.32,795.32,206.32,795.32z"/>
		<path class="st0" d="M212.78,798.72h-0.44V801h-1.71v-6.9h2.22c1.68,0,2.71,0.75,2.71,2.25
			C215.56,797.92,214.45,798.72,212.78,798.72z M212.75,795.4h-0.43v2.03h0.4c0.76,0,1.18-0.33,1.18-1.04
			C213.9,795.73,213.51,795.4,212.75,795.4z"/>
		<path class="st0" d="M219.16,801.11c-1.69,0-2.87-0.91-2.87-2.84v-4.17h1.72v4.16c0,0.89,0.4,1.41,1.17,1.41
			c0.78,0,1.17-0.51,1.17-1.39v-4.18h1.72v4.16C222.07,800.18,220.83,801.11,219.16,801.11z"/>
		<path class="st0" d="M223.25,801v-6.9h1.71v5.42h2.12l0.23,1.48H223.25z"/>
		<path class="st0" d="M230.09,794.08h1.88l2.4,6.72l-1.72,0.28l-0.51-1.5h-2.4l-0.46,1.43h-1.67L230.09,794.08z M230.15,798.24
			h1.56l-0.77-2.4L230.15,798.24z"/>
		<path class="st0" d="M237.59,795.56V801h-1.72v-5.45h-1.95v-1.45h5.46l0.24,1.45H237.59z"/>
		<path class="st0" d="M240.43,801v-6.9h1.71v6.9H240.43z"/>
		<path class="st0" d="M246.47,801.13c-1.98,0-3.28-1.44-3.28-3.57c0-2.14,1.3-3.59,3.3-3.59c2,0,3.29,1.44,3.29,3.57
			S248.48,801.13,246.47,801.13z M246.48,795.32c-0.99,0-1.58,0.87-1.58,2.24s0.59,2.24,1.58,2.24c1,0,1.58-0.87,1.58-2.24
			S247.48,795.32,246.48,795.32z"/>
		<path class="st0" d="M255.1,801l-2.72-4.13V801h-1.59v-6.9h1.66l2.54,3.86v-3.86h1.59v6.9H255.1z"/>
		<path class="st0" d="M261.91,794.08h1.88l2.4,6.72l-1.72,0.28l-0.51-1.5h-2.4L261.1,801h-1.67L261.91,794.08z M261.97,798.24h1.56
			l-0.77-2.4L261.97,798.24z"/>
		<path class="st0" d="M269.83,801.13c-2.19,0-3.4-1.44-3.4-3.57c0-2.14,1.31-3.59,3.44-3.59c0.85,0,1.56,0.2,2.11,0.51l-0.23,1.49
			c-0.52-0.33-1.13-0.59-1.84-0.59c-1.19,0-1.77,0.88-1.77,2.17c0,1.3,0.6,2.21,1.79,2.21c0.38,0,0.65-0.08,0.93-0.22v-1.23h-1.2
			l-0.2-1.27h2.89v3.36C271.63,800.87,270.78,801.13,269.83,801.13z"/>
		<path class="st0" d="M273.5,801v-6.9h4.3v1.38h-2.62v1.27h2l0.22,1.37h-2.22v1.49h2.71V801H273.5z"/>
	</g>
	<g>
		<path class="st0" d="M207.6,810.72h-0.44V813h-1.71v-6.9h2.22c1.68,0,2.71,0.75,2.71,2.25
			C210.38,809.92,209.27,810.72,207.6,810.72z M207.57,807.4h-0.43v2.03h0.4c0.76,0,1.18-0.33,1.18-1.04
			C208.72,807.73,208.33,807.4,207.57,807.4z"/>
		<path class="st0" d="M214.84,813.07l-1.52-2.44h-0.43V813h-1.7v-6.9h2.41c1.67,0,2.65,0.76,2.65,2.18c0,0.96-0.48,1.61-1.3,1.96
			l1.67,2.54L214.84,813.07z M213.43,807.4h-0.55v2.01h0.53c0.74,0,1.16-0.36,1.16-1.02C214.57,807.75,214.17,807.4,213.43,807.4z"
			/>
		<path class="st0" d="M220.3,813.13c-1.98,0-3.28-1.44-3.28-3.57c0-2.14,1.3-3.59,3.3-3.59c2,0,3.29,1.44,3.29,3.57
			S222.31,813.13,220.3,813.13z M220.31,807.32c-0.99,0-1.58,0.87-1.58,2.24s0.59,2.24,1.58,2.24c1,0,1.58-0.87,1.58-2.24
			S221.31,807.32,220.31,807.32z"/>
		<path class="st0" d="M226.32,807.54v1.41h1.8l0.24,1.43h-2.04V813h-1.7v-6.9h4.13v1.43H226.32z"/>
		<path class="st0" d="M229.69,813v-6.9h1.71v6.9H229.69z"/>
		<path class="st0" d="M232.7,813v-6.9h1.71v5.42h2.12l0.23,1.48H232.7z"/>
		<path class="st0" d="M237.56,813v-6.9h4.3v1.38h-2.62v1.27h2l0.22,1.37h-2.22v1.49h2.71V813H237.56z"/>
	</g>
	<g>
		<path class="st0" d="M244.91,813v-0.32l2.48-2.69c0.81-0.88,1.05-1.37,1.05-2.07c0-0.86-0.55-1.39-1.43-1.39
			c-0.7,0-1.31,0.35-1.85,0.81l-0.08-0.49c0.51-0.41,1.14-0.74,1.95-0.74c1.2,0,1.9,0.72,1.9,1.78c0,0.84-0.34,1.44-1.17,2.33
			l-2.21,2.37h3.44l0.06,0.41H244.91z"/>
		<path class="st0" d="M252.78,813.13c-1.51,0-2.39-1.44-2.39-3.5s0.89-3.52,2.4-3.52s2.39,1.44,2.39,3.5
			C255.18,811.68,254.29,813.13,252.78,813.13z M252.79,806.54c-1.26,0-1.91,1.32-1.91,3.09c0,1.77,0.65,3.09,1.91,3.09
			c1.25,0,1.9-1.32,1.9-3.09C254.69,807.86,254.04,806.54,252.79,806.54z"/>
		<path class="st0" d="M257.76,813v-6.26l-1.49,0.63l-0.07-0.4l1.69-0.77h0.34v6.8H257.76z"/>
		<path class="st0" d="M261.55,809.42c-0.7-0.3-1.23-0.8-1.23-1.63c0-0.93,0.84-1.67,2-1.67c1.16,0,1.94,0.73,1.94,1.63
			c0,0.8-0.55,1.35-1.26,1.73c0.91,0.36,1.46,0.92,1.46,1.8c0,1.09-0.97,1.86-2.19,1.86c-1.33,0-2.22-0.79-2.22-1.81
			C260.05,810.47,260.61,809.86,261.55,809.42z M262.29,812.72c0.89,0,1.68-0.57,1.68-1.45c0-0.78-0.44-1.2-1.98-1.7
			c-0.88,0.37-1.45,0.96-1.45,1.72C260.54,812.15,261.26,812.72,262.29,812.72z M262.55,809.32c0.76-0.36,1.22-0.89,1.22-1.53
			c0-0.71-0.6-1.26-1.47-1.26c-0.97,0-1.49,0.64-1.49,1.25C260.81,808.5,261.18,808.89,262.55,809.32z"/>
	</g>
	<g>
		<path class="st0" d="M266.24,808.67v-3.65l-0.87,0.37l-0.04-0.23l0.98-0.45h0.2v3.96H266.24z"/>
		<path class="st0" d="M268.28,808.72l-0.26-0.06l1.62-3.67h-2.09l-0.03-0.25h2.44v0.19L268.28,808.72z"/>
	</g>
	<line class="st1" x1="200.47" y1="783.78" x2="200.47" y2="543.6"/>
	<line class="st2" x1="281.4" y1="783.78" x2="281.4" y2="564.58"/>
	<path class="st3" d="M211.2,589.66"/>
	<line class="st4" x1="268.98" y1="783.78" x2="268.98" y2="495.13"/>
	<g>
		<defs>
			<filter id="Adobe_OpacityMaskFilter" filterUnits="userSpaceOnUse" x="256.15" y="458.5" width="19.65" height="53.65">
				<feColorMatrix  type="matrix" values="1 0 0 0 0  0 1 0 0 0  0 0 1 0 0  0 0 0 1 0"/>
			</filter>
		</defs>
		<mask maskUnits="userSpaceOnUse" x="256.15" y="458.5" width="19.65" height="53.65" id="SVGID_1_">
			<g class="st5">
				
					<linearGradient id="SVGID_2_" gradientUnits="userSpaceOnUse" x1="0" y1="841.2819" x2="1" y2="841.2819" gradientTransform="matrix(0 37.3553 -37.3553 0 31723.9746 466.6437)">
					<stop  offset="0" style="stop-color:#FFFFFF"/>
					<stop  offset="0.7366" style="stop-color:#FFFFFF"/>
					<stop  offset="1" style="stop-color:#000000"/>
				</linearGradient>
				<rect y="0" class="st6" width="595.28" height="841.89"/>
			</g>
		</mask>
		<g class="st7">
			<g>
				<defs>
					<rect id="SVGID_3_" x="256.15" y="458.5" width="19.65" height="53.65"/>
				</defs>
				<clipPath id="SVGID_4_">
					<use xlink:href="#SVGID_3_"  style="overflow:visible;"/>
				</clipPath>
				<rect x="263.15" y="467.5" class="st8" width="11.65" height="35.65"/>
			</g>
		</g>
	</g>
	<g>
		<path class="st9" d="M209.13,560.34v-3.28l6.41-6.41c1.24-1.27,1.87-2.15,1.87-3.39c0-1.27-0.88-1.98-2.4-1.98
			c-1.65,0-3.33,0.74-4.93,1.9l-0.55-3.91c1.6-1.07,3.55-1.84,6.17-1.84c3.83,0,6.19,2.01,6.19,5.34c0,2.53-1.27,4.18-3.55,6.33
			l-3.72,3.58h7.05l0.58,3.66H209.13z"/>
		<path class="st9" d="M227.93,560.34v-14.31l-3.72,1.46l-0.52-3.58l4.76-2.2h4.1v18.64H227.93z"/>
	</g>
	<g>
		<path class="st9" d="M237.35,546.7c-1.33,0-2.39-1-2.39-2.83c0-1.83,1.07-2.83,2.39-2.83c1.32,0,2.37,0.99,2.37,2.81
			C239.72,545.69,238.67,546.7,237.35,546.7z M237.35,542.24c-0.61,0-0.91,0.6-0.91,1.63c0,0.99,0.31,1.62,0.91,1.62
			s0.88-0.61,0.88-1.63C238.23,542.85,237.93,542.24,237.35,542.24z M237.06,550.56l3.1-4.73l3.04-4.77l1.28,0.28l-3.11,4.76
			l-3.04,4.76L237.06,550.56z M244.2,550.88c-1.34,0-2.37-0.99-2.37-2.81c0-1.85,1.05-2.84,2.37-2.84c1.33,0,2.39,0.99,2.39,2.83
			C246.58,549.87,245.52,550.88,244.2,550.88z M244.2,546.43c-0.61,0-0.9,0.61-0.9,1.63c0,1.01,0.31,1.62,0.9,1.62
			c0.6,0,0.89-0.61,0.89-1.63C245.09,547.04,244.78,546.43,244.2,546.43z"/>
	</g>
	<g>
		<path class="st9" d="M212.58,572.53c-1.69,0-2.82-1.25-2.82-3.51s1.13-3.51,2.82-3.51c1.68,0,2.8,1.25,2.8,3.51
			S214.26,572.53,212.58,572.53z M212.58,566.78c-0.78,0-1.16,0.8-1.16,2.24s0.38,2.24,1.16,2.24c0.78,0,1.15-0.8,1.15-2.24
			S213.36,566.78,212.58,566.78z"/>
		<path class="st9" d="M216.16,570.21v-1.44h2.73v1.44H216.16z"/>
		<path class="st9" d="M220.57,572.4v-5.2l-1.35,0.53l-0.19-1.3l1.73-0.8h1.49v6.77H220.57z"/>
		<path class="st9" d="M227.89,571.05v1.35h-1.57v-1.35h-3.13v-1.04l2.85-4.38h1.85v4.29h0.95v1.13H227.89z M226.32,567.24
			l-1.73,2.68h1.73V567.24z"/>
	</g>
	<g>
		<path class="st9" d="M234.74,569.66v2.74h-0.94v-2.74l-2.44-4.03l0.94-0.2l1.98,3.37l1.93-3.3h1.04L234.74,569.66z"/>
		<path class="st9" d="M242.06,572.47l-2.11-2.98h-0.71v2.91h-0.94v-6.9h1.88c1.41,0,2.29,0.7,2.29,1.96c0,1.05-0.61,1.67-1.51,1.91
			l2.05,2.89L242.06,572.47z M240.14,566.33h-0.9v2.37h0.8c0.91,0,1.49-0.41,1.49-1.19C241.53,566.76,241.06,566.33,240.14,566.33z"
			/>
		<path class="st9" d="M245.63,572.48c-0.75,0-1.42-0.18-1.93-0.45l0.14-0.96c0.47,0.31,1.12,0.59,1.81,0.59
			c0.72,0,1.23-0.38,1.23-1.05c0-0.63-0.28-0.89-1.32-1.36c-1.3-0.59-1.79-1.02-1.79-2.01c0-1.11,0.85-1.82,2.1-1.82
			c0.67,0,1.17,0.16,1.57,0.39l-0.15,0.94c-0.38-0.29-0.9-0.51-1.45-0.51c-0.79,0-1.14,0.42-1.14,0.93c0,0.53,0.26,0.78,1.31,1.26
			c1.34,0.61,1.8,1.07,1.8,2.11C247.81,571.73,246.92,572.48,245.63,572.48z"/>
	</g>
	<g>
		<path class="st9" d="M218.67,525.5c0.44,0,0.79,0.35,0.79,0.79s-0.35,0.79-0.79,0.79c-0.44,0-0.79-0.36-0.79-0.79
			S218.23,525.5,218.67,525.5 M218.67,527.76c0.81,0,1.47-0.66,1.47-1.47c0-0.81-0.66-1.47-1.47-1.47c-0.81,0-1.47,0.66-1.47,1.47
			C217.19,527.1,217.85,527.76,218.67,527.76"/>
		<path class="st9" d="M223.61,536.76h-2.43c-0.3,0-0.56-0.23-0.6-0.53l-0.25-2c0.27-0.09,0.51-0.24,0.72-0.43l0.24,1.9
			c0,0,0,0.01,0,0.01c0,0,0,0.01,0,0.02c0,0.01,0,0.01,0.01,0.02c0,0.01,0,0.01,0,0.02c0,0.01,0.01,0.01,0.01,0.02
			c0,0,0,0.01,0,0.01c0,0.01,0.01,0.02,0.01,0.03v0c0,0.01,0.01,0.02,0.02,0.03c0,0,0,0,0.01,0.01c0,0.01,0.01,0.01,0.01,0.02
			c0,0,0.01,0,0.01,0.01c0.01,0.01,0.01,0.01,0.01,0.02c0,0,0.01,0.01,0.01,0.01c0,0,0.01,0.01,0.01,0.01c0,0,0.01,0.01,0.01,0.01
			s0.01,0.01,0.01,0.01c0,0,0.01,0.01,0.01,0.01c0.01,0,0.01,0.01,0.01,0.01c0.01,0,0.01,0.01,0.01,0.01c0.01,0,0.01,0.01,0.01,0.01
			c0,0,0.01,0,0.01,0.01c0.01,0,0.01,0.01,0.02,0.01c0,0,0.01,0,0.01,0c0.01,0,0.01,0,0.02,0.01c0,0,0.01,0,0.01,0
			c0.01,0,0.02,0,0.03,0c0,0,0,0,0.01,0c0.01,0,0.02,0,0.03,0h0h1.98c0.21,0,0.38,0.17,0.38,0.38S223.83,536.76,223.61,536.76
			 M219.73,533.65h-2c-0.19,0-0.34,0.15-0.34,0.34v2.42c0,0.19-0.18,0.35-0.38,0.35c-0.21,0-0.38-0.16-0.38-0.35v-2.81
			c0-0.28,0.19-0.52,0.47-0.59c0,0,0,0,0,0l1.77-0.42c0,0,0,0,0,0c0.14-0.03,0.26-0.1,0.34-0.2c0.1-0.13,0.14-0.29,0.1-0.44
			l-0.51-2.23c0,0,0,0,0,0c-0.05-0.24-0.23-0.43-0.46-0.49c-0.23-0.06-0.48,0.01-0.65,0.18l-0.97,1.02
			c-0.14,0.15-0.34,0.23-0.54,0.22l-1.35-0.06c-0.03-0.01-0.07-0.02-0.11-0.03h0c0,0,0,0,0,0c-0.09-0.02-0.18-0.03-0.27-0.04
			c-0.06-0.05-0.09-0.14-0.07-0.22c0.02-0.1,0.11-0.16,0.21-0.16l1.56,0.07c0,0,0.01,0,0.02,0c0.04,0,0.07-0.01,0.1-0.02
			c0,0,0.01,0,0.01,0c0.01,0,0.02-0.01,0.02-0.01c0,0,0.01,0,0.01-0.01c0,0,0.01-0.01,0.02-0.01c0,0,0.01-0.01,0.01-0.01
			c0.01,0,0.01-0.01,0.01-0.01c0.01,0,0.01-0.01,0.01-0.01c0.01,0,0.01-0.01,0.01-0.01c0,0,0.01-0.01,0.01-0.01
			c0.01-0.01,0.01-0.01,0.01-0.01c0,0,0,0,0.01-0.01l1.12-1.17c0.11-0.12,0.27-0.19,0.44-0.19h0h1.58c0.37,0,0.69,0.25,0.77,0.61
			l0.64,2.79v0c0.04,0.17,0.04,0.34,0.01,0.51c-0.01,0.02-0.01,0.03-0.01,0.05c-0.04,0.17-0.12,0.34-0.23,0.48
			C220.46,533.47,220.1,533.65,219.73,533.65 M214.63,531.62L214.63,531.62C214.63,531.62,214.62,531.63,214.63,531.62
			c-0.01,0-0.01,0-0.01,0c0,0-0.01,0-0.01,0c-0.4-0.07-0.81-0.08-1.21-0.02c-0.3,0.04-0.53,0.27-0.58,0.57
			c-0.14,0.84-0.16,1.67-0.04,2.34c0.11,0.77,0.52,1.38,0.94,1.94c0.03,0.05,0.02,0.1,0.01,0.13c-0.02,0.06-0.06,0.11-0.11,0.14
			c-0.11,0.06-0.26,0.02-0.32-0.09L212.4,535c0,0,0,0,0,0c0-0.01-0.01-0.01-0.01-0.02c0,0,0-0.01-0.01-0.01
			c0-0.01-0.01-0.01-0.01-0.01c0-0.01-0.01-0.01-0.01-0.01c0,0,0-0.01-0.01-0.01c-0.01-0.01-0.03-0.03-0.04-0.04
			c-0.01-0.01-0.03-0.02-0.04-0.03c0,0-0.01,0-0.01,0c-0.01,0-0.01-0.01-0.01-0.01c-0.01,0-0.01-0.01-0.02-0.01c0,0-0.01,0-0.01,0
			c-0.01,0-0.01-0.01-0.02-0.01c0,0,0,0,0,0c0,0-0.01,0-0.01,0c-0.01,0-0.01,0-0.02,0c0,0-0.01,0-0.02,0c-0.01,0-0.01,0-0.02,0
			c-0.01,0-0.01,0-0.02,0c0,0-0.01,0-0.02,0s-0.01,0-0.02,0c-0.01,0-0.01,0-0.02,0c-0.01,0-0.01,0-0.02,0c-0.01,0-0.01,0-0.02,0
			c-0.01,0-0.01,0-0.02,0c0,0-0.01,0-0.01,0c-0.01,0-0.01,0-0.02,0.01c-0.01,0-0.01,0-0.01,0.01c-0.01,0-0.01,0.01-0.02,0.01
			c0,0-0.01,0-0.01,0.01c0,0,0,0,0,0c-0.01,0-0.01,0.01-0.02,0.01c0,0-0.01,0.01-0.01,0.01c-0.01,0-0.01,0.01-0.01,0.01
			c0,0-0.01,0.01-0.01,0.01c0,0-0.01,0-0.01,0.01c-0.02,0.01-0.03,0.03-0.04,0.04c-0.01,0.01-0.02,0.03-0.03,0.04
			c0,0-0.01,0.01-0.01,0.01c0,0.01,0,0.01-0.01,0.01c0,0.01-0.01,0.01-0.01,0.02c0,0,0,0.01,0,0.01c0,0.01,0,0.01-0.01,0.02
			c0,0,0,0,0,0l-0.43,1.51c-0.03,0.09-0.09,0.15-0.18,0.17c-0.09,0.02-0.18-0.01-0.24-0.07c-0.06-0.07-0.08-0.16-0.06-0.24
			c0,0,0,0,0,0c0,0,0,0,0,0l0.43-1.38h0c0,0,0,0,0,0c0.07-0.23,0.1-0.46,0.07-0.69c-0.1-1.04,0.03-2.1,0.38-3.08c0,0,0,0,0,0
			c0,0,0,0,0,0c0.06-0.17,0.2-0.3,0.38-0.34c0.18-0.04,0.36,0.01,0.49,0.14c0.13,0.12,0.29,0.19,0.47,0.19
			c0.05,0,0.1-0.01,0.15-0.02c0,0,0,0,0,0c0.33-0.07,0.67-0.09,1.01-0.06c0.02,0,0.04,0.01,0.06,0.01c0.09,0.01,0.17,0.02,0.26,0.04
			h0c0.09,0.02,0.16,0.09,0.17,0.18C214.76,531.49,214.71,531.58,214.63,531.62 M223.62,535.31
			C223.62,535.31,223.62,535.31,223.62,535.31h-1.69l-0.32-2.54c0.05-0.25,0.04-0.52-0.02-0.78c0,0,0,0,0,0l-0.64-2.79
			c-0.15-0.67-0.74-1.14-1.43-1.14h-1.58h0c-0.35,0-0.69,0.14-0.93,0.4c0,0,0,0,0,0l-1.01,1.06l-1.4-0.07c0,0,0,0-0.01,0
			c0,0,0,0,0,0c-0.42-0.01-0.78,0.27-0.89,0.68c-0.03,0.12-0.03,0.25-0.01,0.36c-0.19,0.01-0.38,0.04-0.57,0.08
			c-0.01,0-0.01,0-0.01,0c-0.3-0.29-0.71-0.4-1.12-0.3c-0.4,0.1-0.72,0.38-0.86,0.77c0,0,0,0,0,0v0c0,0,0,0,0,0
			c-0.39,1.08-0.53,2.24-0.42,3.38c0.01,0.13,0,0.27-0.05,0.42l-0.43,1.38c0,0,0,0,0,0c-0.1,0.31-0.02,0.66,0.21,0.9
			c0.18,0.19,0.43,0.3,0.68,0.3c0.07,0,0.14-0.01,0.21-0.02c0.32-0.07,0.58-0.32,0.67-0.64c0,0,0,0,0,0c0,0,0,0,0,0l0.2-0.71
			l0.49,0.91c0,0,0,0,0,0.01c0,0,0,0,0,0c0,0,0,0,0,0.01c0,0,0,0.01,0.01,0.01c0.17,0.28,0.48,0.44,0.79,0.44
			c0.15,0,0.3-0.04,0.44-0.11c0.22-0.12,0.38-0.32,0.45-0.56c0.06-0.23,0.03-0.47-0.09-0.67c0-0.01-0.01-0.01-0.01-0.02
			c0-0.01-0.01-0.01-0.01-0.01c-0.39-0.52-0.74-1.03-0.82-1.65c0,0,0,0,0-0.01c0,0,0,0,0-0.01c-0.1-0.59-0.09-1.34,0.04-2.11
			c0-0.01,0-0.01,0.01-0.01c0.33-0.05,0.66-0.04,0.99,0.02h0c0.04,0.01,0.09,0.01,0.13,0.01c0.1,0,0.21-0.03,0.31-0.07
			c0,0,0,0,0.01,0c0.34-0.17,0.54-0.54,0.48-0.92c0-0.01,0-0.01,0-0.02l0.7,0.03c0,0,0,0,0,0c0,0,0.01,0,0.01,0h0
			c0.01,0,0.03,0,0.05,0c0.38,0,0.74-0.16,1.01-0.43l0.94-0.98l0.47,2.03l-1.67,0.4h0c-0.58,0.14-0.99,0.65-0.99,1.25v2.81
			c0,0.57,0.48,1.03,1.07,1.03c0.28,0,0.54-0.1,0.74-0.3c0.21-0.2,0.32-0.46,0.32-0.74v-2.08h1.6l0.25,1.98v0
			c0.08,0.64,0.63,1.13,1.27,1.13h2.43h0c0.58,0,1.06-0.48,1.06-1.07C224.68,535.79,224.2,535.31,223.62,535.31"/>
		<path class="st9" d="M212.32,528.05c0.35,0,0.64,0.29,0.64,0.64s-0.29,0.64-0.64,0.64c-0.35,0-0.64-0.29-0.64-0.64
			S211.96,528.05,212.32,528.05 M212.32,530.01c0.73,0,1.32-0.59,1.32-1.32s-0.59-1.32-1.32-1.32c-0.73,0-1.32,0.59-1.32,1.32
			S211.59,530.01,212.32,530.01"/>
	</g>
	<g>
		<path class="st10" d="M223.74,611.06v-14.31l-3.72,1.46l-0.52-3.58l4.76-2.2h4.1v18.64H223.74z"/>
		<path class="st10" d="M235.52,600.6c1.35-0.88,2.75-1.35,4.49-1.35c2.89,0,5.29,1.82,5.29,5.62c0,3.96-3,6.55-6.91,6.55
			c-4.24,0-7.16-2.72-7.16-7.87c0-6.66,4.6-10.29,10.76-11.48l0.55,3.63C239.04,596.49,236.43,597.95,235.52,600.6z M235.35,603.57
			c0.03,3.14,1.32,4.51,3.03,4.51c1.6,0,2.64-1.13,2.64-2.92s-0.88-2.67-2.62-2.67C237.33,602.49,236.34,602.91,235.35,603.57z"/>
	</g>
	<g>
		<path class="st10" d="M249.04,597.42c-1.33,0-2.39-1-2.39-2.83c0-1.83,1.07-2.83,2.39-2.83c1.32,0,2.37,0.99,2.37,2.81
			C251.41,596.41,250.36,597.42,249.04,597.42z M249.04,592.96c-0.61,0-0.91,0.6-0.91,1.63c0,0.99,0.31,1.62,0.91,1.62
			s0.88-0.61,0.88-1.63C249.92,593.57,249.62,592.96,249.04,592.96z M248.76,601.28l3.1-4.73l3.04-4.77l1.28,0.28l-3.11,4.76
			l-3.04,4.76L248.76,601.28z M255.89,601.59c-1.34,0-2.37-0.99-2.37-2.81c0-1.85,1.05-2.84,2.37-2.84c1.33,0,2.39,0.99,2.39,2.83
			C258.27,600.59,257.21,601.59,255.89,601.59z M255.89,597.15c-0.61,0-0.9,0.61-0.9,1.63c0,1.01,0.31,1.62,0.9,1.62
			c0.6,0,0.89-0.61,0.89-1.63C256.78,597.76,256.47,597.15,255.89,597.15z"/>
	</g>
	<g>
		<path class="st10" d="M221.75,623.1v-5.2l-1.35,0.53l-0.19-1.3l1.73-0.8h1.49v6.77H221.75z"/>
		<path class="st10" d="M226.56,623.23c-0.84,0-1.53-0.19-2.12-0.46l0.22-1.39c0.55,0.27,1.19,0.49,1.89,0.49
			c0.68,0,1.18-0.34,1.18-0.95c0-0.55-0.37-0.88-1.03-0.88c-0.41,0-0.71,0.09-0.97,0.2l-1.03-0.23l0.23-3.67h3.99l0.21,1.35h-2.94
			l-0.08,1.2c0.23-0.06,0.54-0.12,0.96-0.12c1.31,0,2.22,0.72,2.22,2.07C229.29,622.39,228.15,623.23,226.56,623.23z"/>
		<path class="st10" d="M230.07,620.91v-1.44h2.73v1.44H230.07z"/>
		<path class="st10" d="M233.34,623.1v-1.19l2.33-2.33c0.45-0.46,0.68-0.78,0.68-1.23c0-0.46-0.32-0.72-0.87-0.72
			c-0.6,0-1.21,0.27-1.79,0.69l-0.2-1.42c0.58-0.39,1.29-0.67,2.24-0.67c1.39,0,2.25,0.73,2.25,1.94c0,0.92-0.46,1.52-1.29,2.3
			l-1.35,1.3h2.56l0.21,1.33H233.34z"/>
		<path class="st10" d="M242.27,620.24c-0.49,0.31-0.99,0.48-1.56,0.48c-1.13,0-1.96-0.67-1.96-2.09c0-1.49,1.08-2.42,2.51-2.42
			c1.53,0,2.6,0.99,2.6,2.86c0,2.43-1.69,3.75-4,4.17l-0.19-1.32C240.98,621.67,241.93,621.16,242.27,620.24z M242.36,619.17v-0.02
			c0-1.21-0.47-1.73-1.1-1.73c-0.57,0-0.96,0.4-0.96,1.1c0,0.69,0.32,1.02,0.96,1.02C241.63,619.54,241.99,619.42,242.36,619.17z"/>
	</g>
	<g>
		<path class="st10" d="M249.93,620.36v2.74h-0.94v-2.74l-2.44-4.03l0.94-0.2l1.98,3.37l1.93-3.3h1.04L249.93,620.36z"/>
		<path class="st10" d="M257.25,623.17l-2.11-2.98h-0.71v2.91h-0.94v-6.9h1.88c1.41,0,2.29,0.7,2.29,1.96
			c0,1.05-0.61,1.67-1.51,1.91l2.05,2.89L257.25,623.17z M255.33,617.03h-0.9v2.37h0.8c0.91,0,1.49-0.41,1.49-1.19
			C256.72,617.46,256.25,617.03,255.33,617.03z"/>
		<path class="st10" d="M260.82,623.18c-0.75,0-1.42-0.18-1.93-0.45l0.14-0.96c0.47,0.31,1.12,0.59,1.81,0.59
			c0.72,0,1.23-0.38,1.23-1.05c0-0.63-0.28-0.89-1.32-1.36c-1.3-0.59-1.79-1.02-1.79-2.01c0-1.11,0.85-1.82,2.1-1.82
			c0.67,0,1.17,0.16,1.57,0.39l-0.15,0.94c-0.38-0.29-0.9-0.51-1.45-0.51c-0.79,0-1.14,0.42-1.14,0.93c0,0.53,0.26,0.78,1.31,1.26
			c1.34,0.61,1.8,1.07,1.8,2.11C263,622.43,262.11,623.18,260.82,623.18z"/>
	</g>
	<g>
		<path class="st11" d="M231.97,583.2h0.92c0.35,0,0.63-0.28,0.63-0.64c0-0.25-0.14-0.46-0.34-0.57 M231.49,583.48l1.62,4.11
			 M228.96,586.22l2.26-2.89 M229.53,588.46h-1.74c-0.06,0-0.12-0.05-0.11-0.12l0.04-0.8l0.2-3.08c0-0.03-0.01-0.06-0.02-0.08
			c-0.01-0.03-0.04-0.05-0.07-0.07c-0.22-0.11-1.36-0.83-2.35-1.47c-0.74-0.48-0.73-1.57,0.01-2.03l2.61-1.65
			c0.58-0.33,1.31-0.26,1.82,0.18l0.14,0.18c0.09,0.12,0.15,0.26,0.18,0.41l0.25,1.62c0.01,0.06,0.04,0.11,0.09,0.13l1.09,0.58
			c0.28,0.15,0.38,0.5,0.24,0.78c-0.15,0.28-0.5,0.39-0.78,0.24l-1.4-0.75c-0.21-0.11-0.36-0.32-0.39-0.57l-0.17-1.21
			c0-0.03-0.04-0.04-0.06-0.03l-1.74,1.19c-0.15,0.1-0.15,0.32,0,0.42l1.39,0.99c0.33,0.23,0.5,0.63,0.45,1.03l-0.4,3.09
			c-0.01,0.04,0.03,0.08,0.07,0.08h0.22c0.3,0,0.54,0.24,0.54,0.55v0.28C229.64,588.42,229.59,588.46,229.53,588.46z M226.2,587.59
			c0,1.77-1.42,3.21-3.18,3.21s-3.18-1.44-3.18-3.21c0-1.77,1.42-3.21,3.18-3.21S226.2,585.82,226.2,587.59z M223.4,587.59
			c0,0.21-0.17,0.38-0.38,0.38c-0.21,0-0.38-0.17-0.38-0.38c0-0.21,0.17-0.38,0.38-0.38C223.23,587.21,223.4,587.38,223.4,587.59z
			 M236.29,587.59c0,1.77-1.42,3.21-3.18,3.21c-1.76,0-3.18-1.44-3.18-3.21c0-1.77,1.42-3.21,3.18-3.21
			C234.86,584.38,236.29,585.82,236.29,587.59z M233.49,587.59c0,0.21-0.17,0.38-0.38,0.38c-0.21,0-0.38-0.17-0.38-0.38
			c0-0.21,0.17-0.38,0.38-0.38C233.32,587.21,233.49,587.38,233.49,587.59z M227.67,587.59h-4.62c-0.01,0-0.01-0.01-0.01-0.02
			l2.91-4.37 M228.57,583.2h2.4 M221.73,582.92h1.82 M222.68,579.82h1.73 M220.88,581.37h2.21"/>
		<path class="st12" d="M229.64,577.63c-0.05,0-0.09-0.04-0.09-0.09c0-0.75,0.6-1.35,1.35-1.35h0.18c0.59,0,1.12,0.32,1.42,0.8
			c0.12,0.2-0.03,0.45-0.26,0.47L229.64,577.63z"/>
		<path class="st13" d="M232.05,577.37c0.09,0.17,0.15,0.36,0.15,0.57c0,0.65-0.51,1.17-1.14,1.17c-0.63,0-1.14-0.53-1.14-1.17
			c0-0.15,0.03-0.3,0.08-0.44L232.05,577.37z"/>
	</g>
	<g>
		<path class="st14" d="M288.03,509.15v3.72h-4.32v-3.72h-8.62v-2.86l7.85-12.06h5.09v11.81h2.62v3.11H288.03z M283.71,498.66
			l-4.76,7.38h4.76V498.66z"/>
		<path class="st14" d="M298.13,513.22c-2.39,0-4.54-0.58-6.11-1.46l0.58-3.61c1.54,0.83,3.28,1.38,5.12,1.38
			c1.82,0,2.95-0.77,2.95-2.2c0-1.6-1.13-2.39-4.05-2.39h-1.13l-0.55-3.36h1.73c2.64,0,3.63-0.85,3.63-2.15
			c0-1.18-0.88-1.84-2.67-1.84c-1.71,0-3.36,0.61-4.76,1.54l-0.58-3.52c1.46-0.99,3.58-1.71,6.03-1.71c4.16,0,6.52,2.01,6.52,4.9
			c0,2.39-1.35,3.61-3.28,4.32c2.23,0.71,3.58,2.09,3.58,4.54C305.15,511.27,302.15,513.22,298.13,513.22z"/>
	</g>
	<g>
		<path class="st14" d="M309.09,499.23c-1.34,0-2.39-1-2.39-2.83c0-1.83,1.07-2.83,2.39-2.83s2.37,0.99,2.37,2.81
			C311.47,498.22,310.42,499.23,309.09,499.23z M309.09,494.77c-0.61,0-0.91,0.6-0.91,1.63c0,0.99,0.31,1.62,0.91,1.62
			s0.88-0.61,0.88-1.63C309.97,495.38,309.68,494.77,309.09,494.77z M308.81,503.09l3.1-4.73l3.04-4.77l1.28,0.28l-3.11,4.76
			l-3.04,4.76L308.81,503.09z M315.94,503.4c-1.33,0-2.37-0.99-2.37-2.81c0-1.85,1.05-2.84,2.37-2.84c1.34,0,2.39,0.99,2.39,2.83
			C318.33,502.39,317.26,503.4,315.94,503.4z M315.94,498.96c-0.61,0-0.89,0.61-0.89,1.63c0,1.01,0.31,1.62,0.89,1.62
			c0.6,0,0.9-0.61,0.9-1.63C316.84,499.57,316.52,498.96,315.94,498.96z"/>
	</g>
	<g>
		<path class="st14" d="M277.91,525.06c-0.87,0-1.65-0.21-2.22-0.53l0.21-1.31c0.56,0.3,1.19,0.5,1.86,0.5
			c0.66,0,1.07-0.28,1.07-0.8c0-0.58-0.41-0.87-1.47-0.87h-0.41l-0.2-1.22h0.63c0.96,0,1.32-0.31,1.32-0.78
			c0-0.43-0.32-0.67-0.97-0.67c-0.62,0-1.22,0.22-1.73,0.56l-0.21-1.28c0.53-0.36,1.3-0.62,2.19-0.62c1.51,0,2.37,0.73,2.37,1.78
			c0,0.87-0.49,1.31-1.19,1.57c0.81,0.26,1.3,0.76,1.3,1.65C280.46,524.35,279.37,525.06,277.91,525.06z"/>
		<path class="st14" d="M284.01,525.06c-1.69,0-2.82-1.25-2.82-3.51s1.13-3.51,2.82-3.51c1.68,0,2.8,1.25,2.8,3.51
			S285.69,525.06,284.01,525.06z M284.01,519.31c-0.78,0-1.16,0.8-1.16,2.24s0.38,2.24,1.16,2.24c0.78,0,1.15-0.8,1.15-2.24
			S284.79,519.31,284.01,519.31z"/>
		<path class="st14" d="M287.58,522.74v-1.44h2.73v1.44H287.58z"/>
		<path class="st14" d="M292.63,521.13c0.49-0.32,1-0.49,1.63-0.49c1.05,0,1.92,0.66,1.92,2.04c0,1.44-1.09,2.38-2.51,2.38
			c-1.54,0-2.6-0.99-2.6-2.86c0-2.42,1.67-3.74,3.91-4.17l0.2,1.32C293.91,519.64,292.96,520.17,292.63,521.13z M292.57,522.21
			c0.01,1.14,0.48,1.64,1.1,1.64c0.58,0,0.96-0.41,0.96-1.06s-0.32-0.97-0.95-0.97C293.29,521.82,292.93,521.97,292.57,522.21z"/>
		<path class="st14" d="M301.52,523.58v1.35h-1.57v-1.35h-3.13v-1.04l2.85-4.38h1.85v4.29h0.95v1.13H301.52z M299.95,519.77
			l-1.73,2.68h1.73V519.77z"/>
	</g>
	<g>
		<path class="st14" d="M308.39,522.19v2.74h-0.94v-2.74l-2.44-4.03l0.94-0.2l1.98,3.37l1.93-3.3h1.04L308.39,522.19z"/>
		<path class="st14" d="M315.71,525l-2.11-2.98h-0.71v2.91h-0.94v-6.9h1.88c1.41,0,2.29,0.7,2.29,1.96c0,1.05-0.61,1.67-1.51,1.91
			l2.05,2.89L315.71,525z M313.79,518.86h-0.9v2.37h0.8c0.91,0,1.49-0.41,1.49-1.19C315.18,519.29,314.71,518.86,313.79,518.86z"/>
		<path class="st14" d="M319.28,525.01c-0.75,0-1.42-0.18-1.93-0.45l0.14-0.96c0.47,0.31,1.12,0.59,1.81,0.59
			c0.72,0,1.23-0.38,1.23-1.05c0-0.63-0.28-0.89-1.32-1.36c-1.3-0.59-1.79-1.02-1.79-2.01c0-1.11,0.85-1.82,2.1-1.82
			c0.67,0,1.17,0.16,1.57,0.39l-0.15,0.94c-0.38-0.29-0.9-0.51-1.45-0.51c-0.79,0-1.14,0.42-1.14,0.93c0,0.53,0.26,0.78,1.31,1.26
			c1.34,0.61,1.8,1.07,1.8,2.11C321.46,524.26,320.57,525.01,319.28,525.01z"/>
	</g>
	<g>
		<path class="st14" d="M280.38,482.16c0-0.01,0.01-0.01,0.01-0.02c0.01-0.01,0.01-0.03,0.02-0.04c0.05,0.04,0.09,0.08,0.15,0.12
			c-0.03,0.14-0.04,0.29-0.04,0.43c0,0.44,0.12,0.84,0.33,1.19l-1.47-0.11L280.38,482.16z M280.66,478.65
			c0.28,0.25,0.65,0.4,1.05,0.4c0.56,0,1.06-0.3,1.35-0.75c0.49,0.4,1.67,1.57,0.9,2.95c-0.01,0.02-0.04,0.03-0.07,0.02
			c-0.03-0.01-0.04-0.04-0.04-0.07c0.05-0.44,0.07-1.07-0.15-1.57c-0.09-0.2-0.32-0.29-0.51-0.2c-0.19,0.09-0.28,0.33-0.19,0.53
			c0.06,0.13,0.09,0.3,0.11,0.49c-0.14-0.03-0.28-0.04-0.42-0.04c-0.37,0-0.74,0.1-1.06,0.29c-0.11-0.24-0.17-0.45-0.17-0.63
			c-0.01-0.22-0.18-0.39-0.4-0.39c-0.21,0.01-0.38,0.19-0.37,0.41c0.02,0.55,0.3,1.11,0.54,1.48c0.02,0.03,0.02,0.06,0,0.08
			c0,0,0,0,0,0c-0.02,0.02-0.05,0.03-0.07,0.01C279.88,480.81,280.39,479.27,280.66,478.65 M281.7,476.49c0.47,0,0.85,0.4,0.85,0.88
			s-0.38,0.88-0.85,0.88c-0.47,0-0.85-0.4-0.85-0.88S281.24,476.49,281.7,476.49 M282.68,484.1c-0.77,0-1.39-0.65-1.39-1.45
			c0-0.07,0.01-0.13,0.01-0.19c0.17-0.03,0.34-0.11,0.46-0.25c0,0,0,0,0,0c0.2-0.22,0.27-0.52,0.21-0.8c0.21-0.13,0.46-0.2,0.71-0.2
			c0.13,0,0.27,0.02,0.39,0.06c0.02,0.34,0.23,0.64,0.55,0.76c0.09,0.03,0.19,0.05,0.28,0.05c0.02,0,0.03,0,0.05,0
			c0.08,0.18,0.12,0.38,0.12,0.59C284.07,483.45,283.45,484.1,282.68,484.1 M284.83,482.44l1,1.1l-1.2,0.07
			c0.13-0.29,0.21-0.61,0.21-0.96C284.84,482.58,284.83,482.51,284.83,482.44 M277.18,486.31c0.01,0,0.02,0,0.02,0.01l2.85,0.47
			l0.15,4.65h0.77l-0.17-5.01c-0.01-0.19-0.14-0.35-0.32-0.38l-3.15-0.52c-0.2-0.05-0.36-0.19-0.44-0.38
			c-0.08-0.2-0.07-0.42,0.04-0.61l1.89-3.31c0,0,0-0.01,0.01-0.01c0.07-0.13,0.18-0.22,0.31-0.26s0.28-0.02,0.4,0.06
			c0.24,0.15,0.32,0.46,0.19,0.71l-1.36,2.13c-0.07,0.12-0.08,0.27-0.02,0.4c0.06,0.13,0.18,0.21,0.32,0.22l3.15,0.23
			c0.26,0.12,0.55,0.19,0.86,0.19c0.48,0,0.93-0.17,1.29-0.45l2.72-0.17c0.15-0.01,0.28-0.11,0.33-0.25
			c0.05-0.14,0.02-0.31-0.08-0.42l-1.94-2.13c-0.08-0.09-0.13-0.21-0.13-0.34c0-0.13,0.05-0.24,0.14-0.33s0.21-0.13,0.33-0.13
			c0.12,0.01,0.24,0.06,0.32,0.16l2.55,3c0.16,0.18,0.22,0.43,0.17,0.67c-0.05,0.24-0.2,0.43-0.41,0.53l-2.85,1.03
			c-0.15,0.05-0.25,0.2-0.26,0.36l-0.17,5.01h0.77l0.16-4.71l2.62-0.95c0.01,0,0.02-0.01,0.03-0.01c0.45-0.2,0.76-0.6,0.86-1.09
			c0.1-0.49-0.02-0.99-0.34-1.37l-2.55-3c-0.22-0.26-0.52-0.41-0.85-0.43c-0.15-0.01-0.31,0.02-0.45,0.07
			c-0.07-0.44-0.24-0.88-0.54-1.31c-0.42-0.62-0.96-1.03-1.1-1.14c0-0.04,0.01-0.09,0.01-0.14c0-0.93-0.73-1.68-1.62-1.68
			c-0.89,0-1.62,0.75-1.62,1.68c0,0.19,0.03,0.37,0.09,0.54c-0.02,0.02-0.04,0.04-0.05,0.07c-0.02,0.03-0.39,0.71-0.52,1.57
			c-0.03,0.22-0.05,0.43-0.04,0.63c-0.2-0.05-0.41-0.04-0.61,0.01c-0.33,0.09-0.61,0.32-0.78,0.63l-1.89,3.3
			c-0.24,0.41-0.27,0.89-0.09,1.33C276.37,485.9,276.73,486.21,277.18,486.31"/>
	</g>
	<line class="st15" x1="213.2" y1="783.79" x2="213.2" y2="592.86"/>
	<g>
		<path class="st16" d="M288.64,580.75v-3.28l6.41-6.41c1.24-1.27,1.87-2.15,1.87-3.39c0-1.27-0.88-1.98-2.4-1.98
			c-1.65,0-3.33,0.74-4.93,1.9l-0.55-3.91c1.6-1.07,3.55-1.84,6.17-1.84c3.83,0,6.19,2.01,6.19,5.34c0,2.53-1.27,4.18-3.55,6.33
			l-3.72,3.58h7.05l0.58,3.66H288.64z"/>
		<path class="st16" d="M311.48,581.11c-4.65,0-7.76-3.44-7.76-9.66c0-6.22,3.11-9.66,7.76-9.66c4.62,0,7.71,3.44,7.71,9.66
			C319.19,577.67,316.11,581.11,311.48,581.11z M311.48,565.28c-2.15,0-3.19,2.2-3.19,6.17s1.05,6.17,3.19,6.17
			c2.15,0,3.17-2.2,3.17-6.17S313.63,565.28,311.48,565.28z"/>
	</g>
	<g>
		<path class="st16" d="M323.11,567.11c-1.34,0-2.39-1-2.39-2.83c0-1.83,1.07-2.83,2.39-2.83s2.37,0.99,2.37,2.81
			C325.48,566.1,324.43,567.11,323.11,567.11z M323.11,562.65c-0.61,0-0.91,0.6-0.91,1.63c0,0.99,0.31,1.62,0.91,1.62
			s0.88-0.61,0.88-1.63C323.99,563.26,323.69,562.65,323.11,562.65z M322.82,570.98l3.1-4.73l3.04-4.77l1.28,0.28l-3.11,4.76
			l-3.04,4.76L322.82,570.98z M329.95,571.29c-1.33,0-2.37-0.99-2.37-2.81c0-1.85,1.05-2.84,2.37-2.84c1.34,0,2.39,0.99,2.39,2.83
			C332.34,570.28,331.27,571.29,329.95,571.29z M329.95,566.84c-0.61,0-0.89,0.61-0.89,1.63c0,1.01,0.31,1.62,0.89,1.62
			c0.6,0,0.9-0.61,0.9-1.63C330.85,567.45,330.54,566.84,329.95,566.84z"/>
	</g>
	<g>
		<path class="st16" d="M291.52,589.02c0.49-0.32,1-0.49,1.63-0.49c1.05,0,1.92,0.66,1.92,2.04c0,1.44-1.09,2.38-2.51,2.38
			c-1.54,0-2.6-0.99-2.6-2.86c0-2.42,1.67-3.74,3.91-4.17l0.2,1.32C292.8,587.53,291.85,588.06,291.52,589.02z M291.46,590.1
			c0.01,1.14,0.48,1.64,1.1,1.64c0.58,0,0.96-0.41,0.96-1.06s-0.32-0.97-0.95-0.97C292.18,589.71,291.82,589.86,291.46,590.1z"/>
		<path class="st16" d="M297.83,592.94c-0.84,0-1.53-0.19-2.12-0.46l0.22-1.39c0.55,0.27,1.19,0.49,1.89,0.49
			c0.68,0,1.18-0.34,1.18-0.95c0-0.55-0.37-0.88-1.03-0.88c-0.41,0-0.71,0.09-0.97,0.2l-1.03-0.23l0.23-3.67h3.99l0.21,1.35h-2.94
			l-0.08,1.2c0.23-0.06,0.54-0.12,0.96-0.12c1.31,0,2.22,0.72,2.22,2.07C300.56,592.1,299.42,592.94,297.83,592.94z"/>
		<path class="st16" d="M304.39,590.03v1.77h-1.22v-1.77h-1.71v-1.18h1.71v-1.77h1.22v1.77h1.71v1.18H304.39z"/>
	</g>
	<g>
		<path class="st16" d="M312.57,590.08v2.74h-0.94v-2.74l-2.44-4.03l0.94-0.2l1.98,3.37l1.93-3.3h1.04L312.57,590.08z"/>
		<path class="st16" d="M319.88,592.88l-2.11-2.98h-0.71v2.91h-0.94v-6.9h1.88c1.41,0,2.29,0.7,2.29,1.96
			c0,1.05-0.61,1.67-1.51,1.91l2.05,2.89L319.88,592.88z M317.97,586.75h-0.9v2.37h0.8c0.91,0,1.49-0.41,1.49-1.19
			C319.35,587.18,318.88,586.75,317.97,586.75z"/>
		<path class="st16" d="M323.46,592.89c-0.75,0-1.42-0.18-1.93-0.45l0.14-0.96c0.47,0.31,1.12,0.59,1.81,0.59
			c0.72,0,1.23-0.38,1.23-1.05c0-0.63-0.28-0.89-1.32-1.36c-1.3-0.59-1.79-1.02-1.79-2.01c0-1.11,0.85-1.82,2.1-1.82
			c0.67,0,1.17,0.16,1.57,0.39l-0.15,0.94c-0.38-0.29-0.9-0.51-1.45-0.51c-0.79,0-1.14,0.42-1.14,0.93c0,0.53,0.26,0.78,1.31,1.26
			c1.34,0.61,1.8,1.07,1.8,2.11C325.63,592.14,324.75,592.89,323.46,592.89z"/>
	</g>
	<g>
		<path class="st16" d="M298.62,554.28c-0.33,0.02-0.42-0.39-0.44-0.44c-0.01-0.05-0.02-0.19-0.03-0.39l-0.06-3.15
			c0-0.15-0.12-0.27-0.27-0.27h0c-0.15,0-0.27,0.13-0.27,0.28c0,0.43,0.01,2.19,0.06,3.13l0.01,0.37c0,0.13-0.04,0.35-0.12,0.43
			c-0.02,0.02-0.04,0.03-0.1,0.03c-0.01,0-0.13,0-0.32,0c-0.53,0.01-2.09,0.03-2.35,0.01v-1.9c0.25-0.37,0.12-1.03,0.05-1.27
			l-0.69-1.8c0.23-0.21,0.37-0.65,0.41-1.29c0.03,0,0.06,0.01,0.09,0.02c0.09,0.03,0.17,0.08,0.26,0.13
			c0.2,0.11,0.44,0.24,0.77,0.31c0.7,0.15,1.48-0.35,1.51-0.37c0.08-0.05,0.32-0.09,0.6-0.03c0.29,0.06,0.51,0.19,0.62,0.36
			c0.35,0.59,0.44,1.2,0.49,1.78c0.12,1.29,0.12,3.74,0.12,3.76C298.99,554.01,298.97,554.26,298.62,554.28 M290.22,554.82
			c0.17-0.22,0.25-0.5,0.3-0.66c0.15-0.53,0.23-1.11,0.26-1.58c0.1,0.1,0.22,0.18,0.34,0.21c0.13,0.03,0.25,0.05,0.36,0.05
			c0.19,0,0.37-0.05,0.52-0.15c0.13-0.08,0.16-0.25,0.08-0.38c-0.08-0.13-0.25-0.16-0.37-0.08c-0.07,0.05-0.19,0.1-0.46,0.03
			c-0.11-0.03-0.33-0.33-0.46-0.64c-0.05-0.1-0.14-0.16-0.24-0.16c0,0,0,0-0.01,0c0,0,0,0,0,0c-0.02,0-0.04,0.01-0.06,0.01
			c-0.02,0-0.03,0-0.05,0.01c0,0,0,0,0,0c-0.01,0-0.01,0.01-0.02,0.02c-0.02,0.01-0.04,0.03-0.06,0.04
			c-0.01,0.01-0.02,0.03-0.03,0.04c-0.01,0.02-0.02,0.03-0.03,0.04c-0.01,0.02-0.01,0.05-0.01,0.07c0,0.01-0.01,0.02-0.01,0.03
			c0,0.01,0.01,1.27-0.27,2.26c-0.19,0.65-0.35,0.61-0.47,0.58c-0.17-0.04-0.15-0.45-0.12-0.6l0.55-3.29c0.2-0.05,0.4-0.2,0.55-0.48
			c0.18-0.35,0.26-0.67,0.28-0.88c0.12,0.04,0.25,0.05,0.36,0.03c0.12-0.02,0.21-0.08,0.29-0.16c0.1,0.08,0.22,0.15,0.36,0.2
			c0.12,0.04,0.26,0.06,0.42,0.06c0.36,0,0.77-0.1,1.02-0.25c0.01,0.01,0.01,0.02,0.02,0.03c0.08,0.08,0.19,0.14,0.3,0.16l0.7,1.85
			c0.09,0.36,0.09,0.74,0.02,0.8c-0.15,0.13-0.28,0.15-0.42,0.15c-0.15-0.01-0.28,0.11-0.28,0.26c-0.01,0.15,0.11,0.28,0.26,0.29
			c0.02,0,0.05,0,0.07,0c0.1,0,0.19-0.02,0.28-0.04v4.11h-3.98V554.82z M289.67,549.06c0.04-0.05,0.2-0.1,0.39-0.13l0.03,0.02
			c0.03,0.02,0.1,0.07,0.19,0.13c0,0.03,0.01,0.4-0.23,0.87c-0.15,0.28-0.3,0.22-0.35,0.19c-0.08-0.04-0.16-0.11-0.2-0.2
			C289.42,549.83,289.4,549.58,289.67,549.06 M291.65,548.66c-0.01-0.14-0.04-0.27-0.07-0.39c-0.05-0.2-0.1-0.38-0.04-0.55
			c0.15-0.44,0.23-0.48,0.5-0.61c0.32-0.16,0.77-0.01,0.96,0.31c0.15,0.25,0.1,0.59,0.06,0.87c-0.01,0.09-0.02,0.17-0.03,0.24
			c0,0.06,0,0.12,0.01,0.18c0,0-0.01,0.01-0.02,0.01c-0.11,0.11-0.73,0.27-1.04,0.17C291.85,548.85,291.72,548.74,291.65,548.66
			 M290.6,547.34c0-0.36,0.43-1.09,1-1.33c0.5-0.21,1.2-0.03,1.69,0.2c0.29,0.14,0.69,0.72,0.69,1.44c0,0.91-0.19,1.22-0.24,1.23
			c-0.05,0-0.08-0.01-0.09-0.03c-0.05-0.05-0.08-0.17-0.08-0.29c0-0.06,0.01-0.12,0.02-0.2c0.04-0.33,0.11-0.82-0.14-1.23
			c-0.24-0.4-0.69-0.63-1.14-0.63c-0.18,0-0.35,0.04-0.51,0.11c-0.36,0.17-0.57,0.3-0.78,0.93c-0.11,0.32-0.03,0.62,0.03,0.86
			c0.05,0.21,0.08,0.34,0.03,0.42c-0.07,0.03-0.31-0.06-0.56-0.22C290.55,548.32,290.6,547.72,290.6,547.34 M299.4,550.14
			c-0.06-0.64-0.16-1.32-0.57-2.01c-0.18-0.31-0.53-0.53-0.97-0.62c-0.39-0.08-0.76-0.04-0.99,0.1c-0.17,0.11-0.71,0.39-1.12,0.3
			c-0.26-0.05-0.45-0.16-0.63-0.25c-0.11-0.06-0.21-0.11-0.32-0.15c-0.11-0.04-0.21-0.06-0.29-0.06c-0.07-0.84-0.54-1.51-0.98-1.72
			c-0.28-0.14-1.28-0.56-2.12-0.22c-0.76,0.31-1.34,1.23-1.34,1.83c0,0.29-0.03,0.75-0.05,1.05c-0.27,0.04-0.66,0.14-0.81,0.42
			c-0.11,0.22-0.46,0.88-0.18,1.42c0.1,0.18,0.25,0.32,0.41,0.41l-0.55,3.26c-0.07,0.39-0.04,1.09,0.53,1.23
			c0.08,0.02,0.15,0.03,0.21,0.03c0.02,0,0.04-0.01,0.06-0.01v1.96c0,0.15,0.12,0.27,0.27,0.27h0.55v1.65
			c0,0.15,0.12,0.28,0.27,0.28c0.15,0,0.27-0.12,0.27-0.28v-1.65h0.78v1.65c0,0.15,0.12,0.28,0.27,0.28c0.15,0,0.27-0.12,0.27-0.28
			v-1.65h0.78v1.65c0,0.15,0.12,0.28,0.27,0.28c0.15,0,0.27-0.12,0.27-0.28v-1.65h0.52v1.65c0,0.15,0.12,0.28,0.27,0.28
			c0.15,0,0.27-0.12,0.27-0.28v-1.92v-2.29c0.27,0.02,0.88,0.01,2.35,0c0.06,0,0.1,0,0.15,0v4.22c0,0.15,0.12,0.28,0.27,0.28
			c0.15,0,0.27-0.12,0.27-0.28v-4.33c0.04-0.02,0.07-0.05,0.1-0.08c0.03-0.03,0.05-0.05,0.07-0.08c0.16,0.18,0.38,0.3,0.65,0.3
			c0.02,0,0.05,0,0.07,0c0.68-0.05,0.86-0.59,0.86-0.87C299.53,553.86,299.52,551.46,299.4,550.14"/>
		<path class="st16" d="M295.14,544.45c0.15-0.01,0.21,0.02,0.32,0.06c0.11,0.05,0.25,0.1,0.47,0.12c0.31,0.03,0.47-0.06,0.58-0.12
			c0.08-0.04,0.1-0.05,0.26,0c0.15,0.05,0.2,0.31,0.21,0.53h-2.02C295.01,544.79,295.09,544.55,295.14,544.45 M296.5,546.88
			c-0.15,0.18-0.34,0.27-0.54,0.27c-0.2,0-0.39-0.1-0.54-0.27c-0.28-0.34-0.32-0.89-0.1-1.29h1.27
			C296.81,545.99,296.78,546.54,296.5,546.88 M294.02,545.6h0.72c-0.18,0.55-0.09,1.2,0.27,1.64c0.25,0.3,0.59,0.47,0.95,0.47
			c0.36,0,0.7-0.17,0.95-0.47c0.37-0.44,0.46-1.09,0.27-1.64h0.72c0.15,0,0.27-0.12,0.27-0.27c0-0.15-0.12-0.28-0.27-0.28h-0.38
			c-0.01-0.41-0.14-0.9-0.58-1.05c-0.35-0.11-0.52-0.05-0.68,0.04c-0.08,0.04-0.13,0.07-0.28,0.05c-0.14-0.01-0.22-0.04-0.31-0.08
			c-0.15-0.06-0.31-0.13-0.63-0.09c-0.11,0.01-0.44,0.04-0.62,1.13h-0.4c-0.15,0-0.27,0.12-0.27,0.28
			C293.75,545.47,293.87,545.6,294.02,545.6"/>
		<path class="st16" d="M295.96,555.05c-0.15,0-0.27,0.12-0.27,0.27v3.7c0,0.15,0.12,0.27,0.27,0.27c0.15,0,0.27-0.12,0.27-0.27
			v-3.7C296.22,555.17,296.1,555.05,295.96,555.05"/>
	</g>
</g>
</svg>
