<?xml version="1.0" encoding="utf-8"?>
<!-- Generator: Adobe Illustrator 24.0.0, SVG Export Plug-In . SVG Version: 6.00 Build 0)  -->
<svg version="1.1" id="Layer_1" xmlns="http://www.w3.org/2000/svg" xmlns:xlink="http://www.w3.org/1999/xlink" x="0px" y="0px"
	 viewBox="0 0 595.28 841.89" style="enable-background:new 0 0 595.28 841.89;" xml:space="preserve">
<style type="text/css">
	.st0{fill:#95806C;}
	.st1{fill:none;stroke:#FFFFFF;stroke-width:0.62;}
	.st2{fill:none;stroke:#FFFFFF;stroke-width:0.7;}
</style>
<g>
	<g>
		<path class="st0" d="M485.76,272.5c0-4.79-3.88-8.67-8.67-8.67c-4.79,0-8.67,3.88-8.67,8.67c0,4.79,3.88,8.67,8.67,8.67
			C481.88,281.16,485.76,277.28,485.76,272.5"/>
		<path class="st1" d="M479.96,275.68v2.38 M480.93,278.04v-2.07c0,0,0-0.28-0.28-0.28h-1.38c0,0-0.28,0-0.28,0.28v2.07
			 M475.25,275.68v2.38 M476.22,278.04v-2.07c0,0,0-0.28-0.28-0.28h-1.38c0,0-0.28,0-0.28,0.28v2.07 M478.52,268.8
			c0,0-0.56,0-0.56,0.56v8.1c0,0,0,0.56,0.56,0.56h2.87c0,0,0.56,0,0.56-0.56v-8.1c0,0,0-0.56-0.56-0.56H478.52z M479.13,268.79
			v-2.17c0,0,0-0.42-0.43-0.42h-5.54c0,0-0.42,0-0.42,0.42v1 M472.23,273.59L472.23,273.59v0.66h4.68v-0.66H472.23z M472.23,272.4
			L472.23,272.4v0.66h4.68v-0.66H472.23z M472.23,271.21L472.23,271.21v0.66h4.68v-0.66H472.23z M472.23,270.02L472.23,270.02v0.66
			h4.68v-0.66H472.23z M472.23,268.84L472.23,268.84v0.66h4.68v-0.66H472.23z M472.23,267.65L472.23,267.65v0.66h4.68v-0.66H472.23z
			"/>
		<path class="st2" d="M472.74,274.28v3.32c0,0,0,0.43,0.43,0.43h5.56 M472.74,273.09v0.47 M472.74,271.92v0.47 M472.74,270.7v0.47
			 M472.74,269.53V270 M472.74,268.32v0.48"/>
	</g>
	<g>
		<path class="st0" d="M491.36,282.16v-12.74l-3.31,1.3l-0.46-3.19l4.24-1.96h3.65v16.59H491.36z"/>
		<path class="st0" d="M503.39,282.33l-3.9-0.69L505.3,269h-6.93l-0.51-3.41h11.66v3.16L503.39,282.33z"/>
		<path class="st0" d="M519.75,275.15c-1.2,0.76-2.43,1.18-3.82,1.18c-2.77,0-4.8-1.64-4.8-5.12c0-3.65,2.65-5.93,6.15-5.93
			c3.75,0,6.37,2.43,6.37,7.01c0,5.96-4.14,9.19-9.8,10.22l-0.47-3.23C516.59,278.66,518.92,277.41,519.75,275.15z M519.97,272.53
			v-0.05c0-2.97-1.15-4.24-2.7-4.24c-1.4,0-2.35,0.98-2.35,2.7c0,1.69,0.78,2.5,2.35,2.5C518.18,273.44,519.07,273.14,519.97,272.53
			z"/>
		<path class="st0" d="M526.51,285.79l-2.21-0.51l1.08-7.33h4.19L526.51,285.79z"/>
		<path class="st0" d="M537.49,282.48c-4.14,0-6.91-3.06-6.91-8.6c0-5.54,2.77-8.6,6.91-8.6c4.12,0,6.86,3.06,6.86,8.6
			C544.35,279.42,541.61,282.48,537.49,282.48z M537.49,268.39c-1.91,0-2.84,1.96-2.84,5.49s0.93,5.49,2.84,5.49
			c1.91,0,2.82-1.96,2.82-5.49S539.4,268.39,537.49,268.39z"/>
		<path class="st0" d="M550.84,282.33l-3.9-0.69l5.81-12.65h-6.93l-0.51-3.41h11.66v3.16L550.84,282.33z"/>
		<path class="st0" d="M561.69,272.85c1.2-0.78,2.45-1.2,3.99-1.2c2.57,0,4.71,1.62,4.71,5c0,3.53-2.67,5.83-6.15,5.83
			c-3.77,0-6.37-2.43-6.37-7.01c0-5.93,4.09-9.17,9.58-10.22l0.49,3.23C564.83,269.2,562.5,270.5,561.69,272.85z M561.55,275.49
			c0.03,2.79,1.18,4.02,2.7,4.02c1.42,0,2.35-1,2.35-2.6s-0.78-2.38-2.33-2.38C563.31,274.54,562.43,274.91,561.55,275.49z"/>
	</g>
	<g>
		<path class="st0" d="M493.72,294.14l-1.29-2.07h-0.37v2.01h-1.45v-5.86h2.05c1.42,0,2.25,0.65,2.25,1.85
			c0,0.82-0.41,1.37-1.1,1.67l1.42,2.16L493.72,294.14z M492.52,289.32h-0.47v1.71h0.45c0.63,0,0.99-0.31,0.99-0.87
			C493.49,289.61,493.15,289.32,492.52,289.32z"/>
		<path class="st0" d="M495.86,294.08v-5.86h3.66v1.17h-2.23v1.08h1.7l0.19,1.16h-1.89v1.27h2.3v1.18H495.86z"/>
		<path class="st0" d="M503.01,294.19c-1.86,0-2.89-1.22-2.89-3.03c0-1.82,1.11-3.05,2.92-3.05c0.72,0,1.33,0.17,1.79,0.43
			l-0.2,1.27c-0.44-0.28-0.96-0.5-1.56-0.5c-1.01,0-1.5,0.75-1.5,1.84c0,1.1,0.51,1.88,1.52,1.88c0.32,0,0.55-0.07,0.79-0.19v-1.05
			h-1.02l-0.17-1.08h2.46v2.86C504.54,293.97,503.82,294.19,503.01,294.19z"/>
		<path class="st0" d="M506.17,294.08v-5.86h1.45v5.86H506.17z"/>
		<path class="st0" d="M511.3,294.19c-1.68,0-2.79-1.22-2.79-3.03c0-1.82,1.1-3.05,2.8-3.05c1.7,0,2.8,1.22,2.8,3.03
			C514.11,292.95,513.01,294.19,511.3,294.19z M511.31,289.25c-0.84,0-1.34,0.74-1.34,1.9s0.5,1.9,1.34,1.9
			c0.85,0,1.34-0.74,1.34-1.9S512.16,289.25,511.31,289.25z"/>
		<path class="st0" d="M518.63,294.08l-2.31-3.51v3.51h-1.35v-5.86h1.41l2.16,3.28v-3.28h1.35v5.86H518.63z"/>
		<path class="st0" d="M522.65,288.19h1.6l2.04,5.71l-1.46,0.24l-0.43-1.27h-2.04l-0.39,1.22h-1.42L522.65,288.19z M522.7,291.73
			h1.33l-0.65-2.04L522.7,291.73z"/>
		<path class="st0" d="M526.93,294.08v-5.86h1.45v4.61h1.8l0.2,1.26H526.93z"/>
	</g>
	<g>
		<path class="st0" d="M492.45,302.14h-0.37v1.95h-1.45v-5.86h1.89c1.43,0,2.3,0.64,2.3,1.91
			C494.81,301.46,493.87,302.14,492.45,302.14z M492.42,299.32h-0.37v1.73h0.34c0.65,0,1-0.28,1-0.88
			C493.4,299.6,493.07,299.32,492.42,299.32z"/>
		<path class="st0" d="M498.07,304.19c-1.68,0-2.79-1.22-2.79-3.03c0-1.82,1.1-3.05,2.8-3.05c1.7,0,2.8,1.22,2.8,3.03
			C500.89,302.95,499.78,304.19,498.07,304.19z M498.08,299.25c-0.84,0-1.34,0.74-1.34,1.9s0.5,1.9,1.34,1.9
			c0.85,0,1.34-0.74,1.34-1.9S498.93,299.25,498.08,299.25z"/>
		<path class="st0" d="M503.57,302.14h-0.37v1.95h-1.45v-5.86h1.89c1.43,0,2.3,0.64,2.3,1.91
			C505.94,301.46,504.99,302.14,503.57,302.14z M503.55,299.32h-0.37v1.73h0.34c0.65,0,1-0.28,1-0.88
			C504.52,299.6,504.19,299.32,503.55,299.32z"/>
		<path class="st0" d="M509,304.18c-1.44,0-2.44-0.77-2.44-2.41v-3.54h1.46v3.54c0,0.76,0.34,1.2,0.99,1.2
			c0.66,0,0.99-0.43,0.99-1.18v-3.55h1.46v3.54C511.47,303.39,510.42,304.18,509,304.18z"/>
		<path class="st0" d="M512.47,304.08v-5.86h1.45v4.61h1.8l0.2,1.26H512.47z"/>
		<path class="st0" d="M518.29,298.19h1.6l2.04,5.71l-1.46,0.24l-0.43-1.27h-2.04l-0.39,1.22h-1.42L518.29,298.19z M518.34,301.73
			h1.33l-0.65-2.04L518.34,301.73z"/>
		<path class="st0" d="M524.66,299.45v4.63h-1.46v-4.63h-1.66v-1.23h4.64l0.2,1.23H524.66z"/>
		<path class="st0" d="M527.08,304.08v-5.86h1.45v5.86H527.08z"/>
		<path class="st0" d="M532.21,304.19c-1.68,0-2.79-1.22-2.79-3.03c0-1.82,1.1-3.05,2.8-3.05c1.7,0,2.8,1.22,2.8,3.03
			C535.02,302.95,533.92,304.19,532.21,304.19z M532.22,299.25c-0.84,0-1.34,0.74-1.34,1.9s0.5,1.9,1.34,1.9
			c0.85,0,1.34-0.74,1.34-1.9S533.07,299.25,532.22,299.25z"/>
		<path class="st0" d="M539.54,304.08l-2.31-3.51v3.51h-1.35v-5.86h1.41l2.16,3.28v-3.28h1.35v5.86H539.54z"/>
	</g>
	<g>
		<path class="st0" d="M542.19,301.25v-2.58l-0.67,0.26l-0.09-0.64l0.86-0.4h0.74v3.36H542.19z"/>
		<path class="st0" d="M544.62,301.29l-0.79-0.14l1.17-2.56h-1.4l-0.1-0.69h2.36v0.64L544.62,301.29z"/>
	</g>
	<g>
		<path class="st0" d="M492.6,333.48v-14.11l-3.66,1.44l-0.52-3.53l4.69-2.17h4.04v18.37H492.6z"/>
		<path class="st0" d="M503.23,323.93c-1.68-1-2.69-2.31-2.69-4.15c0-3.15,2.79-4.99,6.57-4.99c3.91,0,6.35,1.98,6.35,4.72
			c0,1.76-1.06,3.17-2.77,4.26c2.2,1.11,3.31,2.44,3.31,4.67c0,3.12-2.66,5.4-7.03,5.4c-4.61,0-7.03-2.36-7.03-5.15
			C499.95,326.73,501.19,325.07,503.23,323.93z M507.05,330.74c1.52,0,2.71-0.87,2.71-2.28s-0.87-2.06-3.72-3.2
			c-1.17,0.79-1.95,1.76-1.95,3.01C504.1,329.79,505.37,330.74,507.05,330.74z M507.73,322.47c1.06-0.76,1.68-1.6,1.68-2.71
			c0-1.25-0.98-2.06-2.47-2.06c-1.44,0-2.33,0.87-2.33,2.01C504.61,320.87,505.4,321.54,507.73,322.47z"/>
	</g>
	<g>
		<path class="st0" d="M515.56,324.05v-2.73h2.65v2.73H515.56z"/>
		<path class="st0" d="M520.62,324.05v-6.89l-1.86,0.74l-0.31-2.17l2.48-1.15h2.52v9.47H520.62z"/>
	</g>
	<g>
		<path class="st0" d="M527.1,320.04c-1.33,0-2.38-0.95-2.38-2.79c0-1.82,1.06-2.79,2.38-2.79c1.33,0,2.37,0.95,2.37,2.77
			C529.47,319.07,528.42,320.04,527.1,320.04z M527.1,315.77c-0.49,0-0.76,0.49-0.76,1.48c0,0.97,0.28,1.46,0.76,1.46
			c0.49,0,0.74-0.49,0.74-1.47S527.58,315.77,527.1,315.77z M526.74,323.84l3.07-4.65l3.01-4.71l1.39,0.31l-3.08,4.68l-3,4.68
			L526.74,323.84z M533.84,324.16c-1.33,0-2.37-0.95-2.37-2.77c0-1.83,1.05-2.8,2.37-2.8c1.33,0,2.38,0.95,2.38,2.79
			C536.22,323.19,535.15,324.16,533.84,324.16z M533.84,319.91c-0.49,0-0.74,0.49-0.74,1.47c0,0.98,0.27,1.47,0.74,1.47
			c0.49,0,0.76-0.49,0.76-1.48C534.59,320.41,534.31,319.91,533.84,319.91z"/>
	</g>
	<g>
		<path class="st0" d="M491.74,343.37h-0.37v1.95h-1.45v-5.86h1.89c1.43,0,2.3,0.64,2.3,1.91
			C494.1,342.69,493.16,343.37,491.74,343.37z M491.71,340.55h-0.37v1.73h0.34c0.65,0,1-0.28,1-0.88
			C492.69,340.83,492.36,340.55,491.71,340.55z"/>
		<path class="st0" d="M497.36,345.43c-1.68,0-2.79-1.22-2.79-3.03c0-1.82,1.1-3.05,2.8-3.05c1.7,0,2.8,1.22,2.8,3.03
			C500.18,344.19,499.07,345.43,497.36,345.43z M497.37,340.48c-0.84,0-1.34,0.74-1.34,1.9s0.5,1.9,1.34,1.9
			c0.85,0,1.34-0.74,1.34-1.9S498.22,340.48,497.37,340.48z"/>
		<path class="st0" d="M502.86,343.37h-0.37v1.95h-1.45v-5.86h1.89c1.43,0,2.3,0.64,2.3,1.91
			C505.23,342.69,504.28,343.37,502.86,343.37z M502.84,340.55h-0.37v1.73h0.34c0.65,0,1-0.28,1-0.88
			C503.82,340.83,503.48,340.55,502.84,340.55z"/>
		<path class="st0" d="M508.29,345.41c-1.44,0-2.44-0.77-2.44-2.41v-3.54h1.46v3.54c0,0.76,0.34,1.2,0.99,1.2
			c0.66,0,0.99-0.43,0.99-1.18v-3.55h1.46v3.54C510.76,344.62,509.71,345.41,508.29,345.41z"/>
		<path class="st0" d="M511.76,345.32v-5.86h1.45v4.61h1.8l0.2,1.26H511.76z"/>
		<path class="st0" d="M517.58,339.43h1.6l2.04,5.71l-1.46,0.24l-0.43-1.27h-2.04l-0.39,1.22h-1.42L517.58,339.43z M517.63,342.96
			h1.33l-0.65-2.04L517.63,342.96z"/>
		<path class="st0" d="M523.95,340.69v4.63h-1.46v-4.63h-1.66v-1.23h4.64l0.2,1.23H523.95z"/>
		<path class="st0" d="M526.37,345.32v-5.86h1.45v5.86H526.37z"/>
		<path class="st0" d="M531.5,345.43c-1.68,0-2.79-1.22-2.79-3.03c0-1.82,1.1-3.05,2.8-3.05c1.7,0,2.8,1.22,2.8,3.03
			C534.31,344.19,533.21,345.43,531.5,345.43z M531.51,340.48c-0.84,0-1.34,0.74-1.34,1.9s0.5,1.9,1.34,1.9
			c0.85,0,1.34-0.74,1.34-1.9S532.36,340.48,531.51,340.48z"/>
		<path class="st0" d="M538.83,345.32l-2.31-3.51v3.51h-1.35v-5.86h1.41l2.16,3.28v-3.28h1.35v5.86H538.83z"/>
	</g>
	<g>
		<path class="st0" d="M492.59,355.43c-1.86,0-2.89-1.22-2.89-3.03c0-1.82,1.11-3.05,2.92-3.05c0.72,0,1.33,0.17,1.79,0.43
			l-0.2,1.27c-0.44-0.28-0.96-0.5-1.56-0.5c-1.01,0-1.5,0.75-1.5,1.84c0,1.1,0.51,1.88,1.52,1.88c0.32,0,0.55-0.07,0.79-0.19v-1.05
			h-1.02l-0.17-1.08h2.46v2.86C494.12,355.21,493.4,355.43,492.59,355.43z"/>
		<path class="st0" d="M498.81,355.38l-1.29-2.07h-0.37v2.01h-1.45v-5.86h2.05c1.42,0,2.25,0.65,2.25,1.85
			c0,0.82-0.41,1.37-1.1,1.67l1.42,2.16L498.81,355.38z M497.61,350.55h-0.47v1.71h0.45c0.63,0,0.99-0.31,0.99-0.87
			C498.58,350.85,498.24,350.55,497.61,350.55z"/>
		<path class="st0" d="M503.45,355.43c-1.68,0-2.79-1.22-2.79-3.03c0-1.82,1.1-3.05,2.8-3.05c1.7,0,2.8,1.22,2.8,3.03
			C506.26,354.19,505.16,355.43,503.45,355.43z M503.46,350.48c-0.84,0-1.34,0.74-1.34,1.9s0.5,1.9,1.34,1.9
			c0.85,0,1.34-0.74,1.34-1.9S504.31,350.48,503.46,350.48z"/>
		<path class="st0" d="M513.04,355.32h-1.47l-1.01-3.78l-1.01,3.78h-1.46l-1.55-5.68l1.57-0.25l0.88,3.73l0.95-3.67h1.46l0.95,3.67
			l0.84-3.67h1.44L513.04,355.32z"/>
		<path class="st0" d="M518.12,350.69v4.63h-1.46v-4.63H515v-1.23h4.64l0.2,1.23H518.12z"/>
		<path class="st0" d="M523.99,355.32v-2.4h-2.03v2.4h-1.45v-5.86h1.45v2.19h2.03v-2.19h1.46v5.86H523.99z"/>
	</g>
	<g>
		<path class="st0" d="M489.71,365.32v-1.01l1.98-1.98c0.38-0.39,0.58-0.66,0.58-1.05c0-0.39-0.27-0.61-0.74-0.61
			c-0.51,0-1.03,0.23-1.52,0.59l-0.17-1.21c0.49-0.33,1.1-0.57,1.9-0.57c1.18,0,1.91,0.62,1.91,1.65c0,0.78-0.39,1.29-1.1,1.95
			l-1.15,1.1h2.18l0.18,1.13H489.71z"/>
		<path class="st0" d="M496.77,365.43c-1.44,0-2.4-1.06-2.4-2.98c0-1.92,0.96-2.98,2.4-2.98c1.43,0,2.38,1.06,2.38,2.98
			C499.15,364.37,498.2,365.43,496.77,365.43z M496.77,360.54c-0.66,0-0.99,0.68-0.99,1.9c0,1.22,0.32,1.9,0.99,1.9
			c0.66,0,0.98-0.68,0.98-1.9C497.75,361.22,497.43,360.54,496.77,360.54z"/>
		<path class="st0" d="M500.87,365.32v-4.42l-1.15,0.45l-0.16-1.1l1.47-0.68h1.27v5.75H500.87z"/>
		<path class="st0" d="M505.02,365.43c-0.74,0-1.4-0.18-1.89-0.45l0.18-1.11c0.48,0.25,1.01,0.42,1.58,0.42
			c0.56,0,0.91-0.24,0.91-0.68c0-0.49-0.35-0.74-1.25-0.74h-0.35l-0.17-1.04h0.54c0.82,0,1.12-0.26,1.12-0.66
			c0-0.37-0.27-0.57-0.82-0.57c-0.53,0-1.04,0.19-1.47,0.48l-0.18-1.09c0.45-0.31,1.1-0.53,1.86-0.53c1.28,0,2.01,0.62,2.01,1.51
			c0,0.74-0.42,1.11-1.01,1.33c0.69,0.22,1.1,0.65,1.1,1.4C507.19,364.82,506.26,365.43,505.02,365.43z"/>
		<path class="st0" d="M507.85,363.46v-1.22h2.32v1.22H507.85z"/>
		<path class="st0" d="M511.61,365.32v-4.42l-1.15,0.45l-0.16-1.1l1.47-0.68h1.27v5.75H511.61z"/>
		<path class="st0" d="M514.94,362.33c-0.53-0.31-0.84-0.72-0.84-1.3c0-0.99,0.88-1.56,2.06-1.56c1.22,0,1.99,0.62,1.99,1.48
			c0,0.55-0.33,0.99-0.87,1.33c0.69,0.35,1.04,0.76,1.04,1.46c0,0.98-0.83,1.69-2.2,1.69c-1.45,0-2.2-0.74-2.2-1.61
			C513.91,363.2,514.3,362.68,514.94,362.33z M516.14,364.46c0.48,0,0.85-0.27,0.85-0.71s-0.27-0.65-1.16-1
			c-0.37,0.25-0.61,0.55-0.61,0.94C515.21,364.16,515.61,364.46,516.14,364.46z M516.35,361.87c0.33-0.24,0.53-0.5,0.53-0.85
			c0-0.39-0.31-0.65-0.77-0.65c-0.45,0-0.73,0.27-0.73,0.63C515.38,361.37,515.62,361.58,516.35,361.87z"/>
	</g>
	<g>
		<path class="st0" d="M519.45,362.49v-2.58l-0.67,0.26l-0.09-0.64l0.86-0.4h0.74v3.36H519.45z"/>
		<path class="st0" d="M521.89,362.52l-0.79-0.14l1.18-2.56h-1.4l-0.1-0.69h2.36v0.64L521.89,362.52z"/>
	</g>
	<g>
		<path class="st0" d="M518.45,333.54l-0.99-1.59h-0.28v1.54h-1.11v-4.49h1.57c1.08,0,1.72,0.49,1.72,1.42
			c0,0.62-0.31,1.05-0.84,1.27l1.09,1.65L518.45,333.54z M517.53,329.84h-0.36v1.31h0.34c0.48,0,0.75-0.23,0.75-0.66
			C518.27,330.07,518.01,329.84,517.53,329.84z"/>
		<path class="st0" d="M520.08,333.49v-4.49h2.8v0.9h-1.7v0.83h1.3l0.14,0.89h-1.44v0.97h1.76v0.9H520.08z"/>
		<path class="st0" d="M525.55,333.58c-1.42,0-2.21-0.94-2.21-2.32c0-1.39,0.85-2.33,2.24-2.33c0.55,0,1.01,0.13,1.37,0.33
			l-0.15,0.97c-0.34-0.21-0.73-0.38-1.2-0.38c-0.77,0-1.15,0.57-1.15,1.41c0,0.85,0.39,1.44,1.16,1.44c0.25,0,0.42-0.05,0.6-0.14
			v-0.8h-0.78l-0.13-0.83h1.88v2.18C526.72,333.41,526.17,333.58,525.55,333.58z"/>
		<path class="st0" d="M527.96,333.49v-4.49h1.11v4.49H527.96z"/>
		<path class="st0" d="M531.89,333.58c-1.29,0-2.13-0.94-2.13-2.32c0-1.39,0.84-2.33,2.14-2.33c1.3,0,2.14,0.94,2.14,2.32
			C534.04,332.63,533.2,333.58,531.89,333.58z M531.9,329.79c-0.64,0-1.03,0.57-1.03,1.46s0.38,1.46,1.03,1.46
			c0.65,0,1.03-0.57,1.03-1.46S532.55,329.79,531.9,329.79z"/>
		<path class="st0" d="M537.5,333.49l-1.77-2.68v2.68h-1.03v-4.49h1.08l1.65,2.51v-2.51h1.03v4.49H537.5z"/>
		<path class="st0" d="M540.57,328.99h1.22l1.56,4.37l-1.12,0.18l-0.33-0.98h-1.56l-0.3,0.93h-1.08L540.57,328.99z M540.61,331.69
			h1.01l-0.5-1.56L540.61,331.69z"/>
		<path class="st0" d="M543.84,333.49v-4.49h1.11v3.52h1.38l0.15,0.96H543.84z"/>
	</g>
	<g>
		<path class="st0" d="M491.15,403.88h-0.37v1.95h-1.45v-5.86h1.89c1.43,0,2.3,0.64,2.3,1.91
			C493.51,403.2,492.57,403.88,491.15,403.88z M491.12,401.06h-0.37v1.73h0.34c0.65,0,1-0.28,1-0.88
			C492.1,401.34,491.77,401.06,491.12,401.06z"/>
		<path class="st0" d="M496.77,405.94c-1.68,0-2.79-1.22-2.79-3.03c0-1.82,1.1-3.05,2.8-3.05c1.7,0,2.8,1.22,2.8,3.03
			C499.59,404.7,498.48,405.94,496.77,405.94z M496.78,400.99c-0.84,0-1.34,0.74-1.34,1.9c0,1.16,0.5,1.9,1.34,1.9
			c0.85,0,1.34-0.74,1.34-1.9C498.13,401.73,497.63,400.99,496.78,400.99z"/>
		<path class="st0" d="M502.27,403.88h-0.37v1.95h-1.45v-5.86h1.89c1.43,0,2.3,0.64,2.3,1.91
			C504.64,403.2,503.69,403.88,502.27,403.88z M502.25,401.06h-0.37v1.73h0.34c0.65,0,1-0.28,1-0.88
			C503.23,401.34,502.89,401.06,502.25,401.06z"/>
		<path class="st0" d="M507.7,405.92c-1.44,0-2.44-0.77-2.44-2.41v-3.54h1.46v3.54c0,0.76,0.34,1.2,0.99,1.2
			c0.66,0,0.99-0.43,0.99-1.18v-3.55h1.46v3.54C510.17,405.13,509.12,405.92,507.7,405.92z"/>
		<path class="st0" d="M511.17,405.83v-5.86h1.45v4.61h1.8l0.2,1.26H511.17z"/>
		<path class="st0" d="M516.99,399.94h1.6l2.04,5.71l-1.46,0.24l-0.43-1.27h-2.04l-0.39,1.22h-1.42L516.99,399.94z M517.04,403.47
			h1.33l-0.65-2.04L517.04,403.47z"/>
		<path class="st0" d="M523.36,401.19v4.63h-1.46v-4.63h-1.66v-1.23h4.64l0.2,1.23H523.36z"/>
		<path class="st0" d="M525.78,405.83v-5.86h1.45v5.86H525.78z"/>
		<path class="st0" d="M530.91,405.94c-1.68,0-2.79-1.22-2.79-3.03c0-1.82,1.1-3.05,2.8-3.05c1.7,0,2.8,1.22,2.8,3.03
			C533.72,404.7,532.62,405.94,530.91,405.94z M530.92,400.99c-0.84,0-1.34,0.74-1.34,1.9c0,1.16,0.5,1.9,1.34,1.9
			c0.85,0,1.34-0.74,1.34-1.9C532.26,401.73,531.77,400.99,530.92,400.99z"/>
		<path class="st0" d="M538.25,405.83l-2.31-3.51v3.51h-1.35v-5.86h1.41l2.16,3.28v-3.28h1.35v5.86H538.25z"/>
	</g>
	<g>
		<path class="st0" d="M540.89,403v-2.58l-0.67,0.26l-0.09-0.64l0.86-0.4h0.74V403H540.89z"/>
		<path class="st0" d="M543.32,403.03l-0.79-0.14l1.18-2.56h-1.4l-0.1-0.69h2.36v0.64L543.32,403.03z"/>
	</g>
	<g>
		<path class="st0" d="M494.94,395.38c-2.36,0-4.48-0.57-6.02-1.44l0.57-3.55c1.52,0.81,3.23,1.36,5.05,1.36
			c1.79,0,2.9-0.76,2.9-2.17c0-1.57-1.11-2.36-3.99-2.36h-1.11l-0.54-3.31h1.71c2.6,0,3.58-0.84,3.58-2.12
			c0-1.17-0.87-1.82-2.63-1.82c-1.68,0-3.31,0.6-4.69,1.52l-0.57-3.47c1.44-0.98,3.53-1.68,5.94-1.68c4.1,0,6.43,1.98,6.43,4.83
			c0,2.36-1.33,3.55-3.23,4.26c2.2,0.71,3.53,2.06,3.53,4.48C501.86,393.45,498.9,395.38,494.94,395.38z"/>
	</g>
	<g>
		<path class="st0" d="M503.45,385.59v-2.73h2.65v2.73H503.45z"/>
		<path class="st0" d="M508.67,380.67c-0.81-0.52-1.29-1.2-1.29-2.1c0-1.71,1.54-2.63,3.54-2.63c2.1,0,3.4,1.02,3.4,2.47
			c0,0.87-0.48,1.58-1.33,2.16c1.09,0.56,1.6,1.26,1.6,2.34c0,1.68-1.42,2.87-3.74,2.87c-2.48,0-3.77-1.23-3.77-2.68
			C507.09,382.12,507.68,381.26,508.67,380.67z M510.9,383.95c0.6,0,1.11-0.39,1.11-1.01s-0.38-0.94-1.67-1.46
			c-0.43,0.35-0.71,0.8-0.71,1.33C509.62,383.5,510.18,383.95,510.9,383.95z M511.23,379.78c0.41-0.34,0.64-0.7,0.64-1.2
			c0-0.57-0.45-0.94-1.05-0.94c-0.57,0-0.98,0.38-0.98,0.88C509.85,379.01,510.18,379.36,511.23,379.78z"/>
	</g>
	<g>
		<path class="st0" d="M517.91,381.58c-1.33,0-2.38-0.95-2.38-2.79c0-1.82,1.06-2.79,2.38-2.79c1.33,0,2.37,0.95,2.37,2.77
			C520.28,380.62,519.23,381.58,517.91,381.58z M517.91,377.31c-0.49,0-0.76,0.49-0.76,1.48c0,0.97,0.28,1.46,0.76,1.46
			c0.49,0,0.74-0.49,0.74-1.47S518.39,377.31,517.91,377.31z M517.55,385.38l3.07-4.65l3.01-4.71l1.39,0.31l-3.08,4.68l-3,4.68
			L517.55,385.38z M524.65,385.7c-1.33,0-2.37-0.95-2.37-2.77c0-1.83,1.05-2.8,2.37-2.8c1.33,0,2.38,0.95,2.38,2.79
			C527.03,384.74,525.96,385.7,524.65,385.7z M524.65,381.46c-0.49,0-0.74,0.49-0.74,1.47c0,0.98,0.27,1.47,0.74,1.47
			c0.49,0,0.76-0.49,0.76-1.48C525.4,381.95,525.13,381.46,524.65,381.46z"/>
	</g>
	<g>
		<path class="st0" d="M507.68,394.94c-1.29,0-2.13-0.94-2.13-2.32c0-1.39,0.84-2.33,2.14-2.33c1.3,0,2.14,0.94,2.14,2.32
			C509.83,393.99,508.99,394.94,507.68,394.94z M507.69,391.15c-0.64,0-1.03,0.57-1.03,1.46s0.38,1.46,1.03,1.46
			c0.65,0,1.03-0.57,1.03-1.46S508.34,391.15,507.69,391.15z"/>
		<path class="st0" d="M511.59,391.3v0.92h1.17l0.16,0.93h-1.33v1.71h-1.11v-4.49h2.68v0.93H511.59z"/>
		<path class="st0" d="M517.92,394.85l-1.77-2.68v2.68h-1.03v-4.49h1.08l1.65,2.51v-2.51h1.03v4.49H517.92z"/>
		<path class="st0" d="M520.99,390.35h1.22l1.56,4.37l-1.12,0.18l-0.33-0.98h-1.56l-0.3,0.93h-1.08L520.99,390.35z M521.02,393.05
			h1.01l-0.5-1.56L521.02,393.05z"/>
		<path class="st0" d="M525.86,391.31v3.54h-1.12v-3.54h-1.27v-0.94h3.55l0.16,0.94H525.86z"/>
		<path class="st0" d="M527.71,394.85v-4.49h1.11v4.49H527.71z"/>
		<path class="st0" d="M531.63,394.94c-1.29,0-2.13-0.94-2.13-2.32c0-1.39,0.84-2.33,2.15-2.33c1.3,0,2.14,0.94,2.14,2.32
			C533.78,393.99,532.94,394.94,531.63,394.94z M531.64,391.15c-0.64,0-1.03,0.57-1.03,1.46s0.38,1.46,1.03,1.46
			c0.65,0,1.03-0.57,1.03-1.46S532.29,391.15,531.64,391.15z"/>
		<path class="st0" d="M537.24,394.85l-1.77-2.68v2.68h-1.03v-4.49h1.08l1.65,2.51v-2.51h1.03v4.49H537.24z"/>
		<path class="st0" d="M540.31,390.35h1.22l1.56,4.37l-1.12,0.18l-0.33-0.98h-1.56l-0.3,0.93h-1.08L540.31,390.35z M540.35,393.05
			h1.01l-0.5-1.56L540.35,393.05z"/>
		<path class="st0" d="M543.59,394.85v-4.49h1.11v3.52h1.38l0.15,0.96H543.59z"/>
	</g>
	<g>
		<path class="st0" d="M489.04,413.56v-0.77l1.51-1.51c0.29-0.3,0.44-0.51,0.44-0.8c0-0.3-0.21-0.47-0.57-0.47
			c-0.39,0-0.79,0.18-1.16,0.45l-0.13-0.92c0.38-0.25,0.84-0.44,1.46-0.44c0.9,0,1.46,0.47,1.46,1.26c0,0.6-0.3,0.99-0.84,1.5
			l-0.88,0.84h1.66l0.14,0.86H489.04z"/>
		<path class="st0" d="M494.44,413.64c-1.1,0-1.83-0.81-1.83-2.28c0-1.47,0.73-2.28,1.83-2.28c1.09,0,1.82,0.81,1.82,2.28
			C496.26,412.83,495.53,413.64,494.44,413.64z M494.44,409.91c-0.51,0-0.75,0.52-0.75,1.46s0.25,1.46,0.75,1.46
			s0.75-0.52,0.75-1.46S494.95,409.91,494.44,409.91z"/>
		<path class="st0" d="M497.57,413.56v-3.38l-0.88,0.34l-0.12-0.85l1.13-0.52h0.97v4.4H497.57z"/>
		<path class="st0" d="M500.12,411.27c-0.4-0.24-0.64-0.55-0.64-0.99c0-0.75,0.67-1.2,1.57-1.2c0.94,0,1.52,0.47,1.52,1.13
			c0,0.42-0.25,0.76-0.66,1.02c0.53,0.27,0.79,0.58,0.79,1.12c0,0.75-0.64,1.29-1.68,1.29c-1.11,0-1.68-0.57-1.68-1.23
			C499.33,411.94,499.63,411.54,500.12,411.27z M501.04,412.9c0.36,0,0.65-0.21,0.65-0.55s-0.21-0.49-0.89-0.77
			c-0.28,0.19-0.47,0.42-0.47,0.72C500.33,412.68,500.63,412.9,501.04,412.9z M501.2,410.92c0.25-0.18,0.4-0.38,0.4-0.65
			c0-0.3-0.23-0.49-0.59-0.49c-0.34,0-0.56,0.21-0.56,0.48C500.45,410.54,500.64,410.7,501.2,410.92z"/>
	</g>
</g>
</svg>
