<?xml version="1.0" encoding="utf-8"?>
<!-- Generator: Adobe Illustrator 24.0.0, SVG Export Plug-In . SVG Version: 6.00 Build 0)  -->
<svg version="1.1" id="Layer_1" xmlns="http://www.w3.org/2000/svg" xmlns:xlink="http://www.w3.org/1999/xlink" x="0px" y="0px"
	 viewBox="0 0 595.28 841.89" style="enable-background:new 0 0 595.28 841.89;" xml:space="preserve">
<style type="text/css">
	.st0{fill:none;stroke:#003F65;stroke-width:1.944;stroke-linecap:round;}
	.st1{fill:none;stroke:#80C28F;stroke-width:1.944;stroke-linecap:round;}
	.st2{fill:none;stroke:#95806C;stroke-width:1.944;stroke-linecap:round;}
	.st3{fill:#003F65;}
	.st4{fill:#95806C;}
	.st5{fill:#80C28F;}
</style>
<g>
	<line class="st0" x1="41.15" y1="247.78" x2="40.67" y2="211.34"/>
	<line class="st1" x1="90.57" y1="247.78" x2="90.13" y2="168.61"/>
	<line class="st2" x1="100.99" y1="247.78" x2="100.55" y2="221.23"/>
	<g>
		<path class="st3" d="M45.71,215.68c-0.81-0.48-1.29-1.1-1.29-1.99c0-1.51,1.34-2.39,3.15-2.39c1.87,0,3.04,0.95,3.04,2.26
			c0,0.85-0.51,1.52-1.33,2.04c1.05,0.53,1.59,1.17,1.59,2.24c0,1.5-1.27,2.59-3.37,2.59c-2.21,0-3.37-1.13-3.37-2.47
			C44.14,217.02,44.74,216.23,45.71,215.68z M47.55,218.95c0.73,0,1.3-0.42,1.3-1.09c0-0.68-0.42-0.99-1.78-1.53
			c-0.56,0.38-0.94,0.84-0.94,1.44C46.13,218.49,46.74,218.95,47.55,218.95z M47.87,214.98c0.51-0.36,0.81-0.77,0.81-1.3
			c0-0.6-0.47-0.99-1.18-0.99c-0.69,0-1.12,0.42-1.12,0.96C46.38,214.21,46.75,214.54,47.87,214.98z"/>
		<path class="st3" d="M54.63,220.43c-1.13,0-2.15-0.27-2.89-0.69l0.27-1.7c0.73,0.39,1.55,0.65,2.42,0.65
			c0.86,0,1.39-0.36,1.39-1.04c0-0.75-0.53-1.13-1.91-1.13h-0.53l-0.26-1.59h0.82c1.25,0,1.72-0.4,1.72-1.01
			c0-0.56-0.42-0.87-1.26-0.87c-0.81,0-1.59,0.29-2.25,0.73l-0.27-1.66c0.69-0.47,1.69-0.81,2.85-0.81c1.96,0,3.08,0.95,3.08,2.31
			c0,1.13-0.64,1.7-1.55,2.04c1.05,0.34,1.69,0.99,1.69,2.15C57.95,219.51,56.53,220.43,54.63,220.43z"/>
		<path class="st3" d="M63.39,216.54c-0.64,0.4-1.29,0.62-2.03,0.62c-1.47,0-2.55-0.87-2.55-2.72c0-1.94,1.4-3.15,3.26-3.15
			c1.99,0,3.38,1.29,3.38,3.72c0,3.16-2.2,4.88-5.2,5.42l-0.25-1.72C61.72,218.4,62.95,217.74,63.39,216.54z M63.51,215.15v-0.03
			c0-1.57-0.61-2.25-1.43-2.25c-0.74,0-1.25,0.52-1.25,1.43c0,0.9,0.42,1.33,1.25,1.33C62.56,215.63,63.03,215.48,63.51,215.15z"/>
	</g>
	<g>
		<path class="st3" d="M70.91,220.33l-3.21-3.57v3.5h-0.94v-6.9h0.94v3.1l2.88-3.1h1.18l-3.04,3.24l3.21,3.51L70.91,220.33z"/>
		<path class="st3" d="M79.46,220.26l-0.43-5.49l-2.18,5.52h-0.71l-2.18-5.52l-0.42,5.49h-0.88l0.55-6.9h1.16l2.15,5.66l2.15-5.66
			h1.15l0.54,6.9H79.46z"/>
	</g>
	<g>
		<path class="st4" d="M107.51,230.14v-1.55l3.03-3.03c0.58-0.6,0.88-1.01,0.88-1.6c0-0.6-0.42-0.94-1.13-0.94
			c-0.78,0-1.57,0.35-2.33,0.9l-0.26-1.85c0.75-0.51,1.68-0.87,2.91-0.87c1.81,0,2.93,0.95,2.93,2.52c0,1.2-0.6,1.98-1.68,2.99
			l-1.75,1.69h3.33l0.27,1.73H107.51z"/>
		<path class="st4" d="M118.3,230.31c-2.2,0-3.67-1.63-3.67-4.56s1.47-4.56,3.67-4.56c2.18,0,3.64,1.63,3.64,4.56
			S120.48,230.31,118.3,230.31z M118.3,222.83c-1.01,0-1.51,1.04-1.51,2.91s0.49,2.91,1.51,2.91s1.5-1.04,1.5-2.91
			S119.31,222.83,118.3,222.83z"/>
		<path class="st4" d="M128.85,228.39v1.75h-2.04v-1.75h-4.07v-1.35l3.71-5.69h2.41v5.58h1.23v1.47H128.85z M126.81,223.43
			l-2.25,3.48h2.25V223.43z"/>
	</g>
	<g>
		<path class="st4" d="M135.31,230.21l-3.21-3.57v3.5h-0.94v-6.9h0.94v3.1l2.88-3.1h1.18l-3.04,3.24l3.21,3.51L135.31,230.21z"/>
		<path class="st4" d="M143.87,230.14l-0.43-5.49l-2.18,5.52h-0.71l-2.18-5.52l-0.42,5.49h-0.88l0.55-6.9h1.16l2.15,5.66l2.15-5.66
			h1.15l0.54,6.9H143.87z"/>
	</g>
	<g>
		<path class="st5" d="M98.17,177.09c-1.09,0-1.99-0.25-2.76-0.6l0.29-1.81c0.71,0.35,1.55,0.64,2.46,0.64
			c0.88,0,1.53-0.44,1.53-1.23c0-0.72-0.48-1.14-1.34-1.14c-0.53,0-0.92,0.12-1.26,0.26l-1.34-0.3l0.3-4.77h5.19l0.27,1.75h-3.82
			l-0.1,1.56c0.3-0.08,0.7-0.16,1.25-0.16c1.7,0,2.89,0.94,2.89,2.69C101.72,176,100.24,177.09,98.17,177.09z"/>
		<path class="st5" d="M103.64,178.85l-1.17-0.27l0.57-3.89h2.22L103.64,178.85z"/>
		<path class="st5" d="M107.58,172.35c-0.81-0.48-1.29-1.1-1.29-1.99c0-1.51,1.34-2.39,3.15-2.39c1.87,0,3.04,0.95,3.04,2.26
			c0,0.85-0.51,1.52-1.33,2.04c1.05,0.53,1.59,1.17,1.59,2.24c0,1.5-1.27,2.59-3.37,2.59c-2.21,0-3.37-1.13-3.37-2.47
			C106.01,173.69,106.61,172.89,107.58,172.35z M109.42,175.61c0.73,0,1.3-0.42,1.3-1.09c0-0.68-0.42-0.99-1.78-1.53
			c-0.56,0.38-0.94,0.84-0.94,1.44C108,175.16,108.61,175.61,109.42,175.61z M109.74,171.64c0.51-0.36,0.81-0.77,0.81-1.3
			c0-0.6-0.47-0.99-1.18-0.99c-0.69,0-1.12,0.42-1.12,0.96C108.24,170.88,108.62,171.2,109.74,171.64z"/>
		<path class="st5" d="M117.35,177.09c-2.2,0-3.67-1.63-3.67-4.56s1.47-4.56,3.67-4.56c2.18,0,3.64,1.63,3.64,4.56
			S119.53,177.09,117.35,177.09z M117.35,169.62c-1.01,0-1.51,1.04-1.51,2.91s0.49,2.91,1.51,2.91s1.5-1.04,1.5-2.91
			S118.36,169.62,117.35,169.62z"/>
		<path class="st5" d="M124.65,177.09c-1.09,0-1.99-0.25-2.76-0.6l0.29-1.81c0.71,0.35,1.55,0.64,2.46,0.64
			c0.88,0,1.53-0.44,1.53-1.23c0-0.72-0.48-1.14-1.34-1.14c-0.53,0-0.92,0.12-1.26,0.26l-1.34-0.3l0.3-4.77h5.19l0.27,1.75h-3.82
			l-0.1,1.56c0.3-0.08,0.7-0.16,1.25-0.16c1.7,0,2.89,0.94,2.89,2.69C128.2,176,126.72,177.09,124.65,177.09z"/>
	</g>
	<g>
		<path class="st5" d="M133.64,176.99l-3.21-3.57v3.5h-0.94v-6.9h0.94v3.1l2.88-3.1h1.18l-3.04,3.24l3.21,3.51L133.64,176.99z"/>
		<path class="st5" d="M142.2,176.92l-0.43-5.49l-2.18,5.52h-0.71l-2.18-5.52l-0.42,5.49h-0.88l0.55-6.9h1.16l2.15,5.66l2.15-5.66
			h1.15l0.54,6.9H142.2z"/>
	</g>
	<g>
		<path class="st4" d="M112.28,218.76l-2.11-2.98h-0.71v2.91h-0.94v-6.9h1.88c1.41,0,2.29,0.7,2.29,1.96c0,1.05-0.61,1.67-1.51,1.91
			l2.05,2.89L112.28,218.76z M110.37,212.63h-0.9v2.37h0.8c0.91,0,1.49-0.41,1.49-1.19C111.75,213.06,111.28,212.63,110.37,212.63z"
			/>
		<path class="st4" d="M116.38,211.77h0.94l2.66,6.8l-0.91,0.2l-0.82-2.14h-2.84l-0.78,2.07h-0.95L116.38,211.77z M115.74,215.79
			h2.21l-1.11-2.93L115.74,215.79z"/>
		<path class="st4" d="M121.17,218.69v-6.9h0.94v6.9H121.17z"/>
		<path class="st4" d="M123.83,218.69v-6.9h0.94v6.04h2.49l0.13,0.86H123.83z"/>
	</g>
	<g>
		<path class="st5" d="M95.17,164.58v-6.9h0.94v6.04h2.49l0.13,0.86H95.17z"/>
		<path class="st5" d="M102.3,164.71c-1.94,0-3.17-1.44-3.17-3.57c0-2.14,1.25-3.59,3.19-3.59c1.95,0,3.17,1.44,3.17,3.57
			S104.25,164.71,102.3,164.71z M102.31,158.41c-1.37,0-2.21,1.06-2.21,2.72s0.85,2.72,2.21,2.72c1.37,0,2.21-1.06,2.21-2.72
			S103.67,158.41,102.31,158.41z"/>
		<path class="st5" d="M109.78,164.71c-1.94,0-3.19-1.44-3.19-3.57c0-2.14,1.27-3.59,3.21-3.59c0.82,0,1.43,0.21,1.96,0.57
			l-0.14,0.96c-0.5-0.38-1.09-0.67-1.83-0.67c-1.4,0-2.23,1.06-2.23,2.72s0.84,2.71,2.23,2.71c0.74,0,1.39-0.29,1.94-0.69l0.14,0.89
			C111.34,164.43,110.57,164.71,109.78,164.71z"/>
		<path class="st5" d="M115.4,157.65h0.94l2.66,6.8l-0.91,0.2l-0.82-2.14h-2.84l-0.78,2.07h-0.95L115.4,157.65z M114.75,161.68h2.21
			l-1.11-2.93L114.75,161.68z"/>
		<path class="st5" d="M120.12,164.58v-6.9h0.94v6.04h2.49l0.13,0.86H120.12z"/>
		<path class="st5" d="M130.76,164.65l-2.11-2.98h-0.71v2.91H127v-6.9h1.88c1.41,0,2.29,0.7,2.29,1.96c0,1.05-0.61,1.67-1.51,1.91
			l2.05,2.89L130.76,164.65z M128.84,158.51h-0.9v2.37h0.8c0.91,0,1.49-0.41,1.49-1.19C130.23,158.94,129.76,158.51,128.84,158.51z"
			/>
		<path class="st5" d="M135.51,164.71c-1.94,0-3.17-1.44-3.17-3.57c0-2.14,1.25-3.59,3.19-3.59c1.95,0,3.17,1.44,3.17,3.57
			S137.46,164.71,135.51,164.71z M135.52,158.41c-1.37,0-2.21,1.06-2.21,2.72s0.85,2.72,2.21,2.72c1.37,0,2.21-1.06,2.21-2.72
			S136.88,158.41,135.52,158.41z"/>
		<path class="st5" d="M141.97,157.65h0.94l2.66,6.8l-0.91,0.2l-0.82-2.14H141l-0.78,2.07h-0.95L141.97,157.65z M141.32,161.68h2.21
			l-1.11-2.93L141.32,161.68z"/>
		<path class="st5" d="M148.65,164.58h-1.96v-6.9h2c2.4,0,3.63,1.42,3.63,3.44C152.32,163.17,151.02,164.58,148.65,164.58z
			 M148.72,158.53h-1.09v5.2h1.06c1.66,0,2.66-0.84,2.66-2.6C151.35,159.4,150.3,158.53,148.72,158.53z"/>
		<path class="st5" d="M155.27,164.66c-0.75,0-1.42-0.18-1.93-0.45l0.14-0.96c0.47,0.31,1.12,0.59,1.81,0.59
			c0.72,0,1.23-0.38,1.23-1.05c0-0.63-0.28-0.89-1.32-1.36c-1.3-0.59-1.79-1.02-1.79-2.01c0-1.11,0.85-1.82,2.1-1.82
			c0.67,0,1.17,0.16,1.57,0.39l-0.15,0.94c-0.38-0.29-0.9-0.51-1.45-0.51c-0.79,0-1.14,0.42-1.14,0.93c0,0.53,0.26,0.78,1.31,1.26
			c1.34,0.61,1.8,1.07,1.8,2.11C157.45,163.91,156.56,164.66,155.27,164.66z"/>
	</g>
	<g>
		<path class="st3" d="M46.65,196.52c-0.75,0-1.42-0.18-1.93-0.45l0.14-0.96c0.47,0.31,1.12,0.59,1.81,0.59
			c0.72,0,1.23-0.38,1.23-1.05c0-0.63-0.28-0.89-1.32-1.36c-1.3-0.59-1.79-1.02-1.79-2.01c0-1.11,0.85-1.82,2.1-1.82
			c0.67,0,1.17,0.16,1.57,0.39l-0.15,0.94c-0.38-0.29-0.9-0.51-1.45-0.51c-0.79,0-1.14,0.42-1.14,0.93c0,0.53,0.26,0.78,1.31,1.26
			c1.34,0.61,1.8,1.07,1.8,2.11C48.83,195.77,47.94,196.52,46.65,196.52z"/>
		<path class="st3" d="M52.65,190.41v6.04h-0.94v-6.04h-2.2v-0.86h5.26l0.14,0.86H52.65z"/>
		<path class="st3" d="M57.28,189.52h0.94l2.66,6.8l-0.91,0.2l-0.82-2.14h-2.84l-0.78,2.07h-0.95L57.28,189.52z M56.63,193.54h2.21
			l-1.11-2.93L56.63,193.54z"/>
		<path class="st3" d="M63.75,190.41v6.04h-0.94v-6.04h-2.2v-0.86h5.26l0.14,0.86H63.75z"/>
		<path class="st3" d="M67.11,196.44v-6.9h3.72v0.86h-2.78v2h2.16l0.14,0.86h-2.3v2.32h2.88v0.86H67.11z"/>
	</g>
	<g>
		<path class="st3" d="M49.45,208.44v-3.18h-3.49v3.18h-0.94v-6.9h0.94v2.86h3.49v-2.86h0.94v6.9H49.45z"/>
		<path class="st3" d="M58.96,208.44h-0.79l-1.87-5.59l-1.87,5.59h-0.78l-2.04-6.77l0.92-0.2l1.56,5.49l1.76-5.42h0.94l1.76,5.42
			l1.53-5.42h0.96L58.96,208.44z"/>
		<path class="st3" d="M65.02,205.7v2.74h-0.94v-2.74l-2.44-4.03l0.94-0.2l1.98,3.37l1.93-3.3h1.04L65.02,205.7z"/>
		<path class="st3" d="M69.95,208.52c-0.75,0-1.42-0.18-1.93-0.45l0.14-0.96c0.47,0.31,1.12,0.59,1.81,0.59
			c0.72,0,1.23-0.38,1.23-1.05c0-0.63-0.28-0.89-1.32-1.36c-1.3-0.59-1.79-1.02-1.79-2.01c0-1.11,0.85-1.82,2.1-1.82
			c0.67,0,1.17,0.16,1.57,0.39l-0.15,0.94c-0.38-0.29-0.9-0.51-1.45-0.51c-0.79,0-1.14,0.42-1.14,0.93c0,0.53,0.26,0.78,1.31,1.26
			c1.34,0.61,1.8,1.07,1.8,2.11C72.13,207.77,71.24,208.52,69.95,208.52z"/>
	</g>
</g>
</svg>
