<?xml version="1.0" encoding="utf-8"?>
<!-- Generator: Adobe Illustrator 24.0.0, SVG Export Plug-In . SVG Version: 6.00 Build 0)  -->
<svg version="1.1" id="Layer_1" xmlns="http://www.w3.org/2000/svg" xmlns:xlink="http://www.w3.org/1999/xlink" x="0px" y="0px"
	 viewBox="0 0 595.28 841.89" style="enable-background:new 0 0 595.28 841.89;" xml:space="preserve">
<style type="text/css">
	.st0{fill:#007B49;}
	.st1{fill:none;stroke:#FFFFFF;stroke-width:0.62;stroke-linecap:round;}
</style>
<g>
	<g>
		<path class="st0" d="M501.76,550.97v3.66h-4.26v-3.66h-8.49v-2.82l7.73-11.88h5.02v11.64h2.58v3.07H501.76z M497.5,540.63
			l-4.69,7.27h4.69V540.63z"/>
	</g>
	<g>
		<path class="st0" d="M507.72,541.19c-1.33,0-2.38-0.95-2.38-2.79c0-1.82,1.06-2.79,2.38-2.79c1.33,0,2.37,0.95,2.37,2.77
			C510.09,540.22,509.04,541.19,507.72,541.19z M507.72,536.91c-0.49,0-0.76,0.49-0.76,1.48c0,0.97,0.28,1.46,0.76,1.46
			c0.49,0,0.74-0.49,0.74-1.47S508.2,536.91,507.72,536.91z M507.36,544.98l3.07-4.65l3.01-4.71l1.39,0.31l-3.08,4.68l-3,4.68
			L507.36,544.98z M514.46,545.3c-1.33,0-2.37-0.95-2.37-2.77c0-1.83,1.05-2.8,2.37-2.8c1.33,0,2.38,0.95,2.38,2.79
			C516.84,544.34,515.77,545.3,514.46,545.3z M514.46,541.06c-0.49,0-0.74,0.49-0.74,1.47s0.27,1.47,0.74,1.47
			c0.49,0,0.76-0.49,0.76-1.49C515.21,541.55,514.93,541.06,514.46,541.06z"/>
	</g>
	<g>
		<path class="st0" d="M487.17,543.31c0-4.79-3.88-8.67-8.67-8.67c-4.79,0-8.67,3.88-8.67,8.67s3.88,8.67,8.67,8.67
			C483.28,551.98,487.17,548.09,487.17,543.31"/>
		<path class="st1" d="M478.45,544.45v8.35 M478.5,549.75c2.45,0,4.43-1.99,4.43-4.45c0-4.98-4.43-10.88-4.43-10.88
			s-4.43,5.85-4.43,10.88C474.07,547.76,476.05,549.75,478.5,549.75z"/>
	</g>
	<g>
		<path class="st0" d="M492.67,565.45h-1.49l-2.06-5.71l1.58-0.24l1.31,4.11l1.28-4.05h1.5L492.67,565.45z"/>
		<path class="st0" d="M495.43,565.43v-5.86h3.66v1.17h-2.23v1.08h1.7l0.19,1.17h-1.89v1.27h2.3v1.18H495.43z"/>
		<path class="st0" d="M503.46,565.43v-2.4h-2.03v2.4h-1.45v-5.86h1.45v2.19h2.03v-2.19h1.46v5.86H503.46z"/>
		<path class="st0" d="M506.02,565.43v-5.86h1.45v5.86H506.02z"/>
		<path class="st0" d="M511.21,565.53c-1.78,0-2.85-1.19-2.85-3.03c0-1.82,1.14-3.04,2.8-3.04c0.66,0,1.2,0.14,1.62,0.38l-0.2,1.31
			c-0.36-0.27-0.8-0.48-1.31-0.48c-0.88,0-1.46,0.67-1.46,1.82c0,1.17,0.65,1.82,1.54,1.82c0.48,0,0.89-0.16,1.33-0.41l0.19,1.19
			C512.4,565.36,511.86,565.53,511.21,565.53z"/>
		<path class="st0" d="M513.72,565.43v-5.86h1.45v4.61h1.8l0.2,1.26H513.72z"/>
		<path class="st0" d="M517.85,565.43v-5.86h3.66v1.17h-2.23v1.08h1.7l0.19,1.17h-1.89v1.27h2.3v1.18H517.85z"/>
	</g>
	<g>
		<path class="st0" d="M489.55,575.43v-5.86h3.66v1.17h-2.23v1.08h1.7l0.19,1.17h-1.89v1.27h2.3v1.18H489.55z"/>
		<path class="st0" d="M499.29,575.43l-0.25-3.9l-1.11,3.91h-1.36l-1.11-3.91l-0.25,3.9h-1.27l0.42-5.86h1.88l1.14,4.04l1.15-4.04
			h1.83l0.42,5.86H499.29z"/>
		<path class="st0" d="M501.7,575.43v-5.86h1.45v5.86H501.7z"/>
		<path class="st0" d="M506.07,575.5c-0.79,0-1.45-0.17-2.05-0.44l0.21-1.24c0.6,0.32,1.28,0.54,1.86,0.54
			c0.42,0,0.71-0.18,0.71-0.53c0-0.33-0.17-0.48-1-0.8c-1.17-0.45-1.68-0.83-1.68-1.8c0-1.13,0.88-1.73,2.01-1.73
			c0.76,0,1.26,0.14,1.77,0.39l-0.22,1.22c-0.53-0.31-1.08-0.48-1.53-0.48c-0.44,0-0.65,0.19-0.65,0.46c0,0.3,0.16,0.44,0.89,0.72
			c1.28,0.47,1.79,0.91,1.79,1.84C508.17,574.93,507.23,575.5,506.07,575.5z"/>
		<path class="st0" d="M510.69,575.5c-0.79,0-1.45-0.17-2.05-0.44l0.21-1.24c0.6,0.32,1.28,0.54,1.86,0.54
			c0.42,0,0.71-0.18,0.71-0.53c0-0.33-0.17-0.48-1-0.8c-1.17-0.45-1.68-0.83-1.68-1.8c0-1.13,0.88-1.73,2.01-1.73
			c0.76,0,1.26,0.14,1.77,0.39l-0.22,1.22c-0.53-0.31-1.08-0.48-1.53-0.48c-0.44,0-0.65,0.19-0.65,0.46c0,0.3,0.16,0.44,0.89,0.72
			c1.28,0.47,1.79,0.91,1.79,1.84C512.79,574.93,511.86,575.5,510.69,575.5z"/>
		<path class="st0" d="M513.62,575.43v-5.86h1.45v5.86H513.62z"/>
		<path class="st0" d="M518.75,575.54c-1.68,0-2.79-1.22-2.79-3.03c0-1.82,1.1-3.05,2.8-3.05c1.7,0,2.8,1.22,2.8,3.03
			C521.56,574.3,520.46,575.54,518.75,575.54z M518.76,570.59c-0.84,0-1.34,0.74-1.34,1.9c0,1.17,0.5,1.9,1.34,1.9
			c0.85,0,1.34-0.74,1.34-1.9C520.1,571.33,519.61,570.59,518.76,570.59z"/>
		<path class="st0" d="M526.09,575.43l-2.31-3.51v3.51h-1.35v-5.86h1.41l2.16,3.28v-3.28h1.35v5.86H526.09z"/>
		<path class="st0" d="M530.23,575.5c-0.79,0-1.45-0.17-2.05-0.44l0.21-1.24c0.6,0.32,1.28,0.54,1.86,0.54
			c0.42,0,0.71-0.18,0.71-0.53c0-0.33-0.17-0.48-1-0.8c-1.17-0.45-1.68-0.83-1.68-1.8c0-1.13,0.88-1.73,2.01-1.73
			c0.76,0,1.26,0.14,1.77,0.39l-0.22,1.22c-0.53-0.31-1.08-0.48-1.53-0.48c-0.44,0-0.65,0.19-0.65,0.46c0,0.3,0.16,0.44,0.89,0.72
			c1.28,0.47,1.79,0.91,1.79,1.84C532.33,574.93,531.39,575.5,530.23,575.5z"/>
	</g>
	<g>
		<path class="st0" d="M533.84,572.66c-0.43,0-0.82-0.1-1.1-0.26l0.1-0.65c0.28,0.15,0.59,0.25,0.92,0.25c0.33,0,0.53-0.14,0.53-0.4
			c0-0.29-0.2-0.43-0.73-0.43h-0.2l-0.1-0.61h0.31c0.48,0,0.65-0.15,0.65-0.39c0-0.21-0.16-0.33-0.48-0.33
			c-0.31,0-0.6,0.11-0.86,0.28l-0.1-0.63c0.26-0.18,0.64-0.31,1.09-0.31c0.75,0,1.18,0.36,1.18,0.88c0,0.43-0.24,0.65-0.59,0.78
			c0.4,0.13,0.64,0.38,0.64,0.82C535.1,572.31,534.56,572.66,533.84,572.66z"/>
		<path class="st0" d="M536.48,572.63l-0.79-0.14l1.18-2.56h-1.4l-0.1-0.69h2.36v0.64L536.48,572.63z"/>
	</g>
	<g>
		<path class="st0" d="M508.07,554.85c-1.29,0-2.13-0.94-2.13-2.32c0-1.39,0.84-2.33,2.14-2.33c1.3,0,2.14,0.94,2.14,2.32
			S509.37,554.85,508.07,554.85z M508.07,551.07c-0.64,0-1.03,0.57-1.03,1.46s0.38,1.46,1.03,1.46c0.65,0,1.03-0.57,1.03-1.46
			S508.72,551.07,508.07,551.07z"/>
		<path class="st0" d="M511.98,551.21v0.92h1.17l0.16,0.93h-1.33v1.71h-1.11v-4.49h2.68v0.93H511.98z"/>
		<path class="st0" d="M518.3,554.77l-1.77-2.68v2.68h-1.03v-4.49h1.08l1.65,2.51v-2.51h1.03v4.49H518.3z"/>
		<path class="st0" d="M521.37,550.26h1.22l1.56,4.37l-1.12,0.18l-0.33-0.98h-1.56l-0.3,0.93h-1.08L521.37,550.26z M521.41,552.96
			h1.01l-0.5-1.56L521.41,552.96z"/>
		<path class="st0" d="M526.25,551.22v3.54h-1.12v-3.54h-1.27v-0.94h3.55l0.16,0.94H526.25z"/>
		<path class="st0" d="M528.09,554.77v-4.49h1.11v4.49H528.09z"/>
		<path class="st0" d="M532.02,554.85c-1.29,0-2.13-0.94-2.13-2.32c0-1.39,0.84-2.33,2.15-2.33c1.3,0,2.14,0.94,2.14,2.32
			S533.33,554.85,532.02,554.85z M532.03,551.07c-0.64,0-1.03,0.57-1.03,1.46s0.38,1.46,1.03,1.46c0.65,0,1.03-0.57,1.03-1.46
			S532.68,551.07,532.03,551.07z"/>
		<path class="st0" d="M537.63,554.77l-1.77-2.68v2.68h-1.03v-4.49h1.08l1.65,2.51v-2.51h1.03v4.49H537.63z"/>
		<path class="st0" d="M540.7,550.26h1.22l1.56,4.37l-1.12,0.18l-0.33-0.98h-1.56l-0.3,0.93h-1.08L540.7,550.26z M540.74,552.96
			h1.01l-0.5-1.56L540.74,552.96z"/>
		<path class="st0" d="M543.97,554.77v-4.49h1.11v3.52h1.38l0.15,0.96H543.97z"/>
	</g>
</g>
</svg>
