<?xml version="1.0" encoding="utf-8"?>
<!-- Generator: Adobe Illustrator 24.0.0, SVG Export Plug-In . SVG Version: 6.00 Build 0)  -->
<svg version="1.1" id="Layer_1" xmlns="http://www.w3.org/2000/svg" xmlns:xlink="http://www.w3.org/1999/xlink" x="0px" y="0px"
	 viewBox="0 0 595.28 841.89" style="enable-background:new 0 0 595.28 841.89;" xml:space="preserve">
<style type="text/css">
	.st0{fill:#80C28F;}
	.st1{fill:#003F65;}
	.st2{fill:#FFFFFF;}
</style>
<g>
	<g>
		<path class="st0" d="M100.98,306.17c-4.04,0-8.04,0.46-12.01,1.38c-3.97,0.92-7.77,2.29-11.42,4.1c-3.65,1.82-7.08,4.07-10.3,6.77
			c-3.22,2.7-6.11,5.81-8.68,9.34c-2.84,3.9-5.07,8.02-6.68,12.37c-1.62,4.35-2.64,8.77-3.09,13.26c-0.44,4.49-0.31,8.96,0.4,13.42
			c0.71,4.46,1.96,8.76,3.76,12.89c1.8,4.13,4.14,8.02,7.03,11.66c2.89,3.64,6.28,6.88,10.17,9.73l30.81-42.48V306.17z"/>
		<path class="st1" d="M114.91,409.11c4.47-1.25,8.64-3.01,12.52-5.28c3.88-2.27,7.42-4.99,10.61-8.16
			c3.2-3.18,5.93-6.71,8.21-10.59c2.28-3.89,4.04-8.06,5.29-12.52c1.25-4.46,1.87-9.11,1.87-13.94c0-4.83-0.62-9.48-1.87-13.96
			c-1.25-4.47-3.01-8.65-5.29-12.54c-2.28-3.89-5.01-7.43-8.21-10.63c-3.19-3.2-6.73-5.94-10.61-8.22
			c-3.88-2.28-8.06-4.04-12.52-5.3c-4.47-1.25-9.11-1.88-13.94-1.88v52.51L70.2,400.98c4.33,3.16,9.1,5.62,14.29,7.37
			c5.19,1.75,10.69,2.63,16.49,2.63C105.8,410.98,110.45,410.36,114.91,409.11"/>
		<path class="st2" d="M100.98,401.5c23.69,0,42.9-19.23,42.9-42.96c0-23.73-19.21-42.96-42.9-42.96s-42.9,19.23-42.9,42.96
			C58.07,382.27,77.28,401.5,100.98,401.5"/>
		<path class="st2" d="M100.88,401.16c23.48,0,42.52-19.04,42.52-42.52s-19.04-42.52-42.52-42.52s-42.52,19.04-42.52,42.52
			S77.39,401.16,100.88,401.16"/>
	</g>
	<g>
		<path class="st1" d="M75.46,339.57c-0.75,0-1.42-0.18-1.93-0.45l0.14-0.96c0.47,0.31,1.12,0.59,1.81,0.59
			c0.72,0,1.23-0.38,1.23-1.05c0-0.63-0.28-0.89-1.32-1.36c-1.3-0.59-1.79-1.02-1.79-2.01c0-1.11,0.85-1.82,2.1-1.82
			c0.67,0,1.17,0.16,1.57,0.39l-0.15,0.94c-0.38-0.29-0.9-0.51-1.45-0.51c-0.79,0-1.14,0.42-1.14,0.93c0,0.53,0.26,0.78,1.31,1.26
			c1.34,0.61,1.8,1.07,1.8,2.11C77.64,338.82,76.75,339.57,75.46,339.57z"/>
		<path class="st1" d="M81.47,333.45v6.04h-0.94v-6.04h-2.2v-0.86h5.26l0.14,0.86H81.47z"/>
		<path class="st1" d="M86.1,332.56h0.94l2.66,6.8l-0.91,0.2l-0.82-2.14h-2.84l-0.78,2.07H83.4L86.1,332.56z M85.45,336.59h2.21
			l-1.11-2.93L85.45,336.59z"/>
		<path class="st1" d="M92.57,333.45v6.04h-0.94v-6.04h-2.2v-0.86h5.26l0.14,0.86H92.57z"/>
		<path class="st1" d="M95.93,339.49v-6.9h3.72v0.86h-2.78v2h2.16l0.14,0.86h-2.3v2.32h2.88v0.86H95.93z"/>
		<path class="st1" d="M107.58,339.49v-3.18h-3.49v3.18h-0.94v-6.9h0.94v2.86h3.49v-2.86h0.94v6.9H107.58z"/>
		<path class="st1" d="M117.09,339.49h-0.79l-1.87-5.59l-1.87,5.59h-0.78l-2.04-6.77l0.92-0.2l1.56,5.49l1.76-5.42h0.94l1.76,5.42
			l1.53-5.42h0.96L117.09,339.49z"/>
		<path class="st1" d="M123.15,336.75v2.74h-0.94v-2.74l-2.44-4.03l0.94-0.2l1.98,3.37l1.93-3.3h1.04L123.15,336.75z"/>
		<path class="st1" d="M128.07,339.57c-0.75,0-1.42-0.18-1.93-0.45l0.14-0.96c0.47,0.31,1.12,0.59,1.81,0.59
			c0.72,0,1.23-0.38,1.23-1.05c0-0.63-0.28-0.89-1.32-1.36c-1.3-0.59-1.79-1.02-1.79-2.01c0-1.11,0.85-1.82,2.1-1.82
			c0.67,0,1.17,0.16,1.57,0.39l-0.15,0.94c-0.38-0.29-0.9-0.51-1.45-0.51c-0.79,0-1.14,0.42-1.14,0.93c0,0.53,0.26,0.78,1.31,1.26
			c1.34,0.61,1.8,1.07,1.8,2.11C130.25,338.82,129.36,339.57,128.07,339.57z"/>
	</g>
	<g>
		<path class="st0" d="M71.36,371.77v-6.9h0.94v6.04h2.49l0.13,0.86H71.36z"/>
		<path class="st0" d="M78.48,371.9c-1.94,0-3.17-1.44-3.17-3.57c0-2.14,1.25-3.59,3.19-3.59c1.95,0,3.17,1.44,3.17,3.57
			S80.43,371.9,78.48,371.9z M78.49,365.61c-1.37,0-2.21,1.06-2.21,2.72s0.85,2.72,2.21,2.72c1.37,0,2.21-1.06,2.21-2.72
			S79.85,365.61,78.49,365.61z"/>
		<path class="st0" d="M85.96,371.9c-1.94,0-3.19-1.44-3.19-3.57c0-2.14,1.27-3.59,3.21-3.59c0.82,0,1.43,0.21,1.96,0.57l-0.14,0.96
			c-0.5-0.38-1.09-0.67-1.83-0.67c-1.4,0-2.23,1.06-2.23,2.72s0.84,2.71,2.23,2.71c0.74,0,1.39-0.29,1.94-0.69l0.14,0.89
			C87.52,371.62,86.75,371.9,85.96,371.9z"/>
		<path class="st0" d="M91.59,364.85h0.94l2.66,6.8l-0.91,0.2l-0.82-2.14h-2.84l-0.78,2.07H88.9L91.59,364.85z M90.94,368.88h2.21
			l-1.11-2.93L90.94,368.88z"/>
		<path class="st0" d="M96.32,371.77v-6.9h0.94v6.04h2.49l0.13,0.86H96.32z"/>
		<path class="st0" d="M106.95,371.84l-2.11-2.98h-0.71v2.91h-0.94v-6.9h1.88c1.41,0,2.29,0.7,2.29,1.96c0,1.05-0.61,1.67-1.51,1.91
			l2.05,2.89L106.95,371.84z M105.03,365.71h-0.9v2.37h0.8c0.91,0,1.49-0.41,1.49-1.19C106.42,366.14,105.95,365.71,105.03,365.71z"
			/>
		<path class="st0" d="M111.7,371.9c-1.94,0-3.17-1.44-3.17-3.57c0-2.14,1.25-3.59,3.19-3.59c1.95,0,3.17,1.44,3.17,3.57
			S113.65,371.9,111.7,371.9z M111.71,365.61c-1.37,0-2.21,1.06-2.21,2.72s0.85,2.72,2.21,2.72c1.37,0,2.21-1.06,2.21-2.72
			S113.07,365.61,111.71,365.61z"/>
		<path class="st0" d="M118.16,364.85h0.94l2.66,6.8l-0.91,0.2l-0.82-2.14h-2.84l-0.78,2.07h-0.95L118.16,364.85z M117.51,368.88
			h2.21l-1.11-2.93L117.51,368.88z"/>
		<path class="st0" d="M124.84,371.77h-1.96v-6.9h2c2.4,0,3.63,1.42,3.63,3.44C128.51,370.37,127.21,371.77,124.84,371.77z
			 M124.91,365.73h-1.09v5.2h1.06c1.66,0,2.66-0.84,2.66-2.6C127.54,366.6,126.49,365.73,124.91,365.73z"/>
		<path class="st0" d="M131.46,371.85c-0.75,0-1.42-0.18-1.93-0.45l0.14-0.96c0.47,0.31,1.12,0.59,1.81,0.59
			c0.72,0,1.23-0.38,1.23-1.05c0-0.63-0.28-0.89-1.32-1.36c-1.3-0.59-1.79-1.02-1.79-2.01c0-1.11,0.85-1.82,2.1-1.82
			c0.67,0,1.17,0.16,1.57,0.39l-0.15,0.94c-0.38-0.29-0.9-0.51-1.45-0.51c-0.79,0-1.14,0.42-1.14,0.93c0,0.53,0.26,0.78,1.31,1.26
			c1.34,0.61,1.8,1.07,1.8,2.11C133.64,371.11,132.75,371.85,131.46,371.85z"/>
	</g>
	<g>
		<path class="st1" d="M88.36,351.17c1.2-0.78,2.44-1.2,3.98-1.2c2.56,0,4.69,1.61,4.69,4.98c0,3.52-2.66,5.81-6.13,5.81
			c-3.76,0-6.35-2.42-6.35-6.98c0-5.91,4.08-9.13,9.55-10.18l0.49,3.22C91.48,347.54,89.16,348.83,88.36,351.17z M88.21,353.81
			c0.02,2.78,1.17,4,2.69,4c1.42,0,2.34-1,2.34-2.59s-0.78-2.37-2.32-2.37C89.97,352.86,89.09,353.22,88.21,353.81z"/>
		<path class="st1" d="M105.52,360.77c-4.13,0-6.88-3.05-6.88-8.57s2.76-8.57,6.88-8.57c4.1,0,6.84,3.05,6.84,8.57
			S109.62,360.77,105.52,360.77z M105.52,346.73c-1.9,0-2.83,1.95-2.83,5.47s0.93,5.47,2.83,5.47s2.81-1.95,2.81-5.47
			S107.43,346.73,105.52,346.73z"/>
	</g>
	<g>
		<path class="st1" d="M115.83,348.35c-1.18,0-2.12-0.88-2.12-2.51s0.95-2.51,2.12-2.51c1.17,0,2.1,0.88,2.1,2.5
			C117.94,347.46,117,348.35,115.83,348.35z M115.83,344.4c-0.54,0-0.81,0.53-0.81,1.45c0,0.88,0.28,1.44,0.81,1.44
			c0.53,0,0.78-0.54,0.78-1.45C116.61,344.94,116.35,344.4,115.83,344.4z M115.58,351.78l2.75-4.2l2.7-4.23l1.13,0.25l-2.76,4.22
			l-2.7,4.22L115.58,351.78z M121.91,352.06c-1.18,0-2.1-0.88-2.1-2.5c0-1.64,0.93-2.52,2.1-2.52c1.18,0,2.12,0.88,2.12,2.51
			C124.02,351.16,123.08,352.06,121.91,352.06z M121.91,348.11c-0.54,0-0.79,0.54-0.79,1.45c0,0.89,0.28,1.44,0.79,1.44
			c0.53,0,0.79-0.54,0.79-1.45C122.7,348.66,122.42,348.11,121.91,348.11z"/>
	</g>
	<g>
		<path class="st0" d="M96.16,388.8v3.3h-3.83v-3.3h-7.64v-2.54l6.96-10.69h4.52v10.47h2.32v2.76H96.16z M92.33,379.5l-4.22,6.54
			h4.22V379.5z"/>
		<path class="st0" d="M106.71,392.42c-4.13,0-6.88-3.05-6.88-8.57s2.76-8.57,6.88-8.57c4.1,0,6.84,3.05,6.84,8.57
			S110.81,392.42,106.71,392.42z M106.71,378.38c-1.9,0-2.83,1.95-2.83,5.47s0.93,5.47,2.83,5.47s2.81-1.95,2.81-5.47
			S108.61,378.38,106.71,378.38z"/>
	</g>
	<g>
		<path class="st0" d="M117.02,380c-1.18,0-2.12-0.88-2.12-2.51s0.95-2.51,2.12-2.51c1.17,0,2.1,0.88,2.1,2.5
			C119.12,379.11,118.19,380,117.02,380z M117.02,376.05c-0.54,0-0.81,0.53-0.81,1.45c0,0.88,0.28,1.44,0.81,1.44
			s0.78-0.54,0.78-1.45C117.8,376.59,117.53,376.05,117.02,376.05z M116.77,383.43l2.75-4.2l2.7-4.23l1.13,0.25l-2.76,4.22
			l-2.7,4.22L116.77,383.43z M123.09,383.71c-1.18,0-2.1-0.88-2.1-2.5c0-1.64,0.93-2.52,2.1-2.52c1.18,0,2.12,0.88,2.12,2.51
			C125.21,382.81,124.27,383.71,123.09,383.71z M123.09,379.76c-0.54,0-0.79,0.54-0.79,1.45c0,0.89,0.28,1.44,0.79,1.44
			c0.53,0,0.79-0.54,0.79-1.45C123.89,380.31,123.61,379.76,123.09,379.76z"/>
	</g>
</g>
</svg>
