<?xml version="1.0" encoding="utf-8"?>
<!-- Generator: Adobe Illustrator 24.0.0, SVG Export Plug-In . SVG Version: 6.00 Build 0)  -->
<svg version="1.1" id="Layer_1" xmlns="http://www.w3.org/2000/svg" xmlns:xlink="http://www.w3.org/1999/xlink" x="0px" y="0px"
	 viewBox="0 0 595.28 841.89" style="enable-background:new 0 0 595.28 841.89;" xml:space="preserve">
<style type="text/css">
	.st0{fill:none;stroke:#003F65;stroke-width:1.944;stroke-linecap:round;}
	.st1{fill:none;stroke:#80C28F;stroke-width:1.944;stroke-linecap:round;}
	.st2{fill:none;stroke:#95806C;stroke-width:1.944;stroke-linecap:round;}
	.st3{fill:#003F65;}
	.st4{font-family:'Whitney-Bold';}
	.st5{font-size:10px;}
	.st6{font-family:'Whitney-Light';}
	.st7{fill:#95806C;}
	.st8{fill:#80C28F;}
</style>
<g>
	<line class="st0" x1="41.15" y1="247.78" x2="40.67" y2="211.34"/>
	<line class="st1" x1="90.57" y1="247.78" x2="90.13" y2="168.61"/>
	<line class="st2" x1="100.99" y1="247.78" x2="100.55" y2="221.23"/>
	<g>
		<path class="st3" d="M40.97,266.84l-2.31-3.28v3.21h-1.71v-6.9h1.71v2.95l2.16-2.95h1.92l-2.45,3.2l2.53,3.49L40.97,266.84z"/>
		<path class="st3" d="M43.49,266.77v-6.9h1.71v6.9H43.49z"/>
		<path class="st3" d="M46.5,266.77v-6.9h1.71v5.42h2.12l0.23,1.48H46.5z"/>
		<path class="st3" d="M54.01,266.9c-1.98,0-3.28-1.44-3.28-3.57c0-2.14,1.3-3.59,3.3-3.59c2,0,3.29,1.44,3.29,3.57
			S56.02,266.9,54.01,266.9z M54.02,261.08c-0.99,0-1.58,0.87-1.58,2.24s0.59,2.24,1.58,2.24c1,0,1.58-0.87,1.58-2.24
			S55.02,261.08,54.02,261.08z"/>
		<path class="st3" d="M64.44,266.77l-0.3-4.59l-1.31,4.6h-1.6l-1.31-4.6l-0.3,4.59h-1.49l0.5-6.9h2.21l1.34,4.75l1.35-4.75h2.15
			l0.5,6.9H64.44z"/>
		<path class="st3" d="M67.24,266.77v-6.9h4.3v1.38h-2.62v1.27h2l0.22,1.37h-2.22v1.49h2.71v1.39H67.24z"/>
		<path class="st3" d="M75.88,261.32v5.45h-1.72v-5.45h-1.95v-1.45h5.46l0.24,1.45H75.88z"/>
		<path class="st3" d="M82.33,266.84l-1.52-2.44h-0.43v2.37h-1.7v-6.9h2.41c1.67,0,2.65,0.76,2.65,2.18c0,0.96-0.48,1.61-1.3,1.96
			l1.67,2.54L82.33,266.84z M80.92,261.16h-0.55v2.01h0.53c0.74,0,1.16-0.36,1.16-1.02C82.06,261.51,81.66,261.16,80.92,261.16z"/>
		<path class="st3" d="M84.84,266.77v-6.9h4.3v1.38h-2.62v1.27h2l0.22,1.37h-2.22v1.49h2.71v1.39H84.84z"/>
		<path class="st3" d="M92.32,266.85c-0.93,0-1.71-0.2-2.41-0.52l0.25-1.46c0.71,0.38,1.5,0.64,2.19,0.64
			c0.49,0,0.83-0.21,0.83-0.62c0-0.39-0.2-0.57-1.17-0.94c-1.38-0.53-1.98-0.98-1.98-2.12c0-1.33,1.04-2.04,2.36-2.04
			c0.9,0,1.48,0.17,2.08,0.46l-0.26,1.44c-0.62-0.36-1.27-0.56-1.8-0.56c-0.52,0-0.77,0.22-0.77,0.54c0,0.35,0.19,0.52,1.05,0.85
			c1.51,0.55,2.1,1.07,2.1,2.17C94.79,266.19,93.69,266.85,92.32,266.85z"/>
		<path class="st3" d="M100.84,266.9c-1.98,0-3.28-1.44-3.28-3.57c0-2.14,1.3-3.59,3.3-3.59c2,0,3.29,1.44,3.29,3.57
			S102.85,266.9,100.84,266.9z M100.85,261.08c-0.99,0-1.58,0.87-1.58,2.24s0.59,2.24,1.58,2.24c1,0,1.58-0.87,1.58-2.24
			S101.85,261.08,100.85,261.08z"/>
		<path class="st3" d="M106.86,261.3v1.41h1.8l0.24,1.43h-2.04v2.63h-1.7v-6.9h4.13v1.43H106.86z"/>
		<path class="st3" d="M116.59,266.77l-2.72-4.13v4.13h-1.59v-6.9h1.66l2.54,3.86v-3.86h1.59v6.9H116.59z"/>
		<path class="st3" d="M119.33,266.77v-6.9h4.3v1.38h-2.62v1.27h2l0.22,1.37h-2.22v1.49h2.71v1.39H119.33z"/>
		<path class="st3" d="M127.97,261.32v5.45h-1.72v-5.45h-1.95v-1.45h5.46l0.24,1.45H127.97z"/>
		<path class="st3" d="M137.98,266.77h-1.73l-1.19-4.45l-1.19,4.45h-1.72l-1.82-6.68l1.85-0.29l1.04,4.39l1.12-4.32h1.72l1.12,4.32
			l0.99-4.32h1.69L137.98,266.77z"/>
		<path class="st3" d="M143.44,266.9c-1.98,0-3.28-1.44-3.28-3.57c0-2.14,1.3-3.59,3.3-3.59c2,0,3.29,1.44,3.29,3.57
			S145.45,266.9,143.44,266.9z M143.45,261.08c-0.99,0-1.58,0.87-1.58,2.24s0.59,2.24,1.58,2.24c1,0,1.58-0.87,1.58-2.24
			S144.45,261.08,143.45,261.08z"/>
		<path class="st3" d="M151.41,266.84l-1.52-2.44h-0.43v2.37h-1.7v-6.9h2.41c1.67,0,2.65,0.76,2.65,2.18c0,0.96-0.48,1.61-1.3,1.96
			l1.67,2.54L151.41,266.84z M150,261.16h-0.55v2.01h0.53c0.74,0,1.16-0.36,1.16-1.02C151.14,261.51,150.74,261.16,150,261.16z"/>
		<path class="st3" d="M157.94,266.84l-2.31-3.28v3.21h-1.71v-6.9h1.71v2.95l2.16-2.95h1.92l-2.45,3.2l2.53,3.49L157.94,266.84z"/>
	</g>
	<text transform="matrix(1 0 0 1 161.873 266.7679)" class="st3 st4 st5"> </text>
	<g>
		<path class="st3" d="M48.14,278.77v-6.9h1.71v6.9H48.14z"/>
		<path class="st3" d="M55.46,278.77l-2.72-4.13v4.13h-1.59v-6.9h1.66l2.54,3.86v-3.86h1.59v6.9H55.46z"/>
		<path class="st3" d="M63.94,278.84l-1.52-2.44h-0.43v2.37h-1.7v-6.9h2.41c1.67,0,2.65,0.76,2.65,2.18c0,0.96-0.48,1.61-1.3,1.96
			l1.67,2.54L63.94,278.84z M62.53,273.16h-0.55v2.01h0.53c0.74,0,1.16-0.36,1.16-1.02C63.67,273.51,63.27,273.16,62.53,273.16z"/>
		<path class="st3" d="M66.45,278.77v-6.9h4.3v1.38h-2.62v1.27h2l0.22,1.37h-2.22v1.49h2.71v1.39H66.45z"/>
		<path class="st3" d="M74.87,278.9c-2.19,0-3.4-1.44-3.4-3.57c0-2.14,1.31-3.59,3.44-3.59c0.85,0,1.56,0.2,2.11,0.51l-0.23,1.49
			c-0.52-0.33-1.13-0.59-1.84-0.59c-1.19,0-1.77,0.88-1.77,2.17c0,1.3,0.6,2.21,1.79,2.21c0.38,0,0.65-0.08,0.93-0.22v-1.23h-1.2
			l-0.2-1.27h2.89v3.36C76.67,278.64,75.82,278.9,74.87,278.9z"/>
		<path class="st3" d="M78.58,278.77v-6.9h1.71v6.9H78.58z"/>
		<path class="st3" d="M84.62,278.9c-1.98,0-3.28-1.44-3.28-3.57c0-2.14,1.3-3.59,3.3-3.59c2,0,3.29,1.44,3.29,3.57
			S86.63,278.9,84.62,278.9z M84.63,273.08c-0.99,0-1.58,0.87-1.58,2.24s0.59,2.24,1.58,2.24c1,0,1.58-0.87,1.58-2.24
			S85.63,273.08,84.63,273.08z"/>
		<path class="st3" d="M93.25,278.77l-2.72-4.13v4.13h-1.59v-6.9h1.66l2.54,3.86v-3.86h1.59v6.9H93.25z"/>
	</g>
	<text transform="matrix(1 0 0 1 95.3486 276.7679)" class="st3 st6 st5"> </text>
	<g>
		<path class="st3" d="M98.2,278.77v-0.32l2.48-2.69c0.81-0.88,1.05-1.37,1.05-2.07c0-0.86-0.55-1.39-1.43-1.39
			c-0.7,0-1.31,0.35-1.85,0.81l-0.08-0.49c0.51-0.41,1.14-0.74,1.95-0.74c1.2,0,1.9,0.72,1.9,1.78c0,0.84-0.34,1.44-1.17,2.33
			l-2.21,2.37h3.44l0.06,0.41H98.2z"/>
		<path class="st3" d="M106.07,278.9c-1.51,0-2.39-1.44-2.39-3.5s0.89-3.52,2.4-3.52s2.39,1.44,2.39,3.5
			C108.47,277.45,107.58,278.9,106.07,278.9z M106.08,272.3c-1.26,0-1.91,1.32-1.91,3.09s0.65,3.09,1.91,3.09
			c1.25,0,1.9-1.32,1.9-3.09S107.33,272.3,106.08,272.3z"/>
		<path class="st3" d="M111.05,278.77v-6.26l-1.49,0.63l-0.07-0.4l1.69-0.77h0.34v6.8H111.05z"/>
		<path class="st3" d="M113.89,275.43c0.61-0.44,1.24-0.68,1.92-0.68c1.21,0,2.02,0.77,2.02,1.98c0,1.32-0.91,2.17-2.12,2.17
			c-1.35,0-2.33-1.15-2.33-2.87c0-2.25,1.33-3.53,3.41-4.17l0.07,0.46C115.09,272.84,114.08,273.87,113.89,275.43z M113.86,275.92
			V276c0,1.45,0.78,2.49,1.86,2.49c0.99,0,1.61-0.7,1.61-1.74c0-0.91-0.54-1.58-1.57-1.58
			C115.06,275.17,114.43,275.49,113.86,275.92z"/>
		<path class="st3" d="M118.48,279.99l-0.42-0.09l4.72-8.08l0.42,0.09L118.48,279.99z"/>
		<path class="st3" d="M125.32,278.77v-6.26l-1.49,0.63l-0.07-0.4l1.69-0.77h0.34v6.8H125.32z"/>
		<path class="st3" d="M128.82,278.84l-0.45-0.11l2.78-6.3h-3.59l-0.06-0.42h4.19v0.33L128.82,278.84z"/>
	</g>
	<g>
		<path class="st3" d="M132.52,275.44v-0.19l1.45-1.57c0.47-0.51,0.61-0.8,0.61-1.21c0-0.5-0.32-0.81-0.83-0.81
			c-0.41,0-0.76,0.2-1.08,0.47l-0.05-0.29c0.3-0.24,0.66-0.43,1.14-0.43c0.7,0,1.11,0.42,1.11,1.04c0,0.49-0.2,0.84-0.68,1.36
			l-1.29,1.38h2l0.04,0.24H132.52z"/>
		<path class="st3" d="M137.95,273.51c-0.36,0.25-0.72,0.38-1.11,0.38c-0.69,0-1.18-0.45-1.18-1.2c0-0.71,0.47-1.27,1.24-1.27
			c0.8,0,1.35,0.67,1.35,1.67c0,1.31-0.79,2.09-2.04,2.43l-0.05-0.26C137.22,275.02,137.81,274.4,137.95,273.51z M137.98,273.22
			v-0.1c0-0.87-0.46-1.45-1.08-1.45c-0.6,0-0.95,0.43-0.95,1.02c0,0.56,0.33,0.96,0.92,0.96
			C137.25,273.64,137.64,273.47,137.98,273.22z"/>
		<path class="st3" d="M140.44,273.58v1.19h-0.24v-1.19h-1.19v-0.22h1.19v-1.19h0.24v1.19h1.18v0.22H140.44z"/>
		<path class="st3" d="M143.37,275.51c-0.44,0-0.82-0.13-1.08-0.31l0.05-0.28c0.34,0.23,0.63,0.34,1.05,0.34
			c0.6,0,0.98-0.37,0.98-0.88c0-0.54-0.38-0.91-1.2-0.91h-0.17l-0.03-0.25h0.24c0.7,0,1.08-0.33,1.08-0.83
			c0-0.43-0.29-0.73-0.84-0.73c-0.42,0-0.76,0.16-1.07,0.38l-0.04-0.27c0.3-0.22,0.66-0.36,1.11-0.36c0.73,0,1.11,0.43,1.11,0.97
			c0,0.53-0.37,0.82-0.78,0.95c0.51,0.15,0.85,0.48,0.85,1.04C144.65,275.04,144.1,275.51,143.37,275.51z"/>
		<path class="st3" d="M146.85,275.51c-0.88,0-1.39-0.84-1.39-2.04s0.52-2.05,1.4-2.05c0.88,0,1.39,0.84,1.39,2.04
			C148.25,274.67,147.73,275.51,146.85,275.51z M146.85,271.67c-0.73,0-1.11,0.77-1.11,1.8s0.38,1.8,1.11,1.8
			c0.73,0,1.11-0.77,1.11-1.8S147.58,271.67,146.85,271.67z"/>
	</g>
	<g>
		<path class="st3" d="M45.71,215.68c-0.81-0.48-1.29-1.1-1.29-1.99c0-1.51,1.34-2.39,3.15-2.39c1.87,0,3.04,0.95,3.04,2.26
			c0,0.85-0.51,1.52-1.33,2.04c1.05,0.53,1.59,1.17,1.59,2.24c0,1.5-1.27,2.59-3.37,2.59c-2.21,0-3.37-1.13-3.37-2.47
			C44.14,217.02,44.74,216.23,45.71,215.68z M47.55,218.95c0.73,0,1.3-0.42,1.3-1.09c0-0.68-0.42-0.99-1.78-1.53
			c-0.56,0.38-0.94,0.84-0.94,1.44C46.13,218.49,46.74,218.95,47.55,218.95z M47.87,214.98c0.51-0.36,0.81-0.77,0.81-1.3
			c0-0.6-0.47-0.99-1.18-0.99c-0.69,0-1.12,0.42-1.12,0.96C46.38,214.21,46.75,214.54,47.87,214.98z"/>
		<path class="st3" d="M54.63,220.43c-1.13,0-2.15-0.27-2.89-0.69l0.27-1.7c0.73,0.39,1.55,0.65,2.42,0.65
			c0.86,0,1.39-0.36,1.39-1.04c0-0.75-0.53-1.13-1.91-1.13h-0.53l-0.26-1.59h0.82c1.25,0,1.72-0.4,1.72-1.01
			c0-0.56-0.42-0.87-1.26-0.87c-0.81,0-1.59,0.29-2.25,0.73l-0.27-1.66c0.69-0.47,1.69-0.81,2.85-0.81c1.96,0,3.08,0.95,3.08,2.31
			c0,1.13-0.64,1.7-1.55,2.04c1.05,0.34,1.69,0.99,1.69,2.15C57.95,219.51,56.53,220.43,54.63,220.43z"/>
		<path class="st3" d="M63.39,216.54c-0.64,0.4-1.29,0.62-2.03,0.62c-1.47,0-2.55-0.87-2.55-2.72c0-1.94,1.4-3.15,3.26-3.15
			c1.99,0,3.38,1.29,3.38,3.72c0,3.16-2.2,4.88-5.2,5.42l-0.25-1.72C61.72,218.4,62.95,217.74,63.39,216.54z M63.51,215.15v-0.03
			c0-1.57-0.61-2.25-1.43-2.25c-0.74,0-1.25,0.52-1.25,1.43c0,0.9,0.42,1.33,1.25,1.33C62.56,215.63,63.03,215.48,63.51,215.15z"/>
	</g>
	<g>
		<path class="st3" d="M70.91,220.33l-3.21-3.57v3.5h-0.94v-6.9h0.94v3.1l2.88-3.1h1.18l-3.04,3.24l3.21,3.51L70.91,220.33z"/>
		<path class="st3" d="M79.46,220.26l-0.43-5.49l-2.18,5.52h-0.71l-2.18-5.52l-0.42,5.49h-0.88l0.55-6.9h1.16l2.15,5.66l2.15-5.66
			h1.15l0.54,6.9H79.46z"/>
	</g>
	<g>
		<path class="st7" d="M107.51,230.14v-1.55l3.03-3.03c0.58-0.6,0.88-1.01,0.88-1.6c0-0.6-0.42-0.94-1.13-0.94
			c-0.78,0-1.57,0.35-2.33,0.9l-0.26-1.85c0.75-0.51,1.68-0.87,2.91-0.87c1.81,0,2.93,0.95,2.93,2.52c0,1.2-0.6,1.98-1.68,2.99
			l-1.75,1.69h3.33l0.27,1.73H107.51z"/>
		<path class="st7" d="M118.3,230.31c-2.2,0-3.67-1.63-3.67-4.56s1.47-4.56,3.67-4.56c2.18,0,3.64,1.63,3.64,4.56
			S120.48,230.31,118.3,230.31z M118.3,222.83c-1.01,0-1.51,1.04-1.51,2.91s0.49,2.91,1.51,2.91s1.5-1.04,1.5-2.91
			S119.31,222.83,118.3,222.83z"/>
		<path class="st7" d="M128.85,228.39v1.75h-2.04v-1.75h-4.07v-1.35l3.71-5.69h2.41v5.58h1.23v1.47H128.85z M126.81,223.43
			l-2.25,3.48h2.25V223.43z"/>
	</g>
	<g>
		<path class="st7" d="M135.31,230.21l-3.21-3.57v3.5h-0.94v-6.9h0.94v3.1l2.88-3.1h1.18l-3.04,3.24l3.21,3.51L135.31,230.21z"/>
		<path class="st7" d="M143.87,230.14l-0.43-5.49l-2.18,5.52h-0.71l-2.18-5.52l-0.42,5.49h-0.88l0.55-6.9h1.16l2.15,5.66l2.15-5.66
			h1.15l0.54,6.9H143.87z"/>
	</g>
	<g>
		<path class="st8" d="M98.17,177.09c-1.09,0-1.99-0.25-2.76-0.6l0.29-1.81c0.71,0.35,1.55,0.64,2.46,0.64
			c0.88,0,1.53-0.44,1.53-1.23c0-0.72-0.48-1.14-1.34-1.14c-0.53,0-0.92,0.12-1.26,0.26l-1.34-0.3l0.3-4.77h5.19l0.27,1.75h-3.82
			l-0.1,1.56c0.3-0.08,0.7-0.16,1.25-0.16c1.7,0,2.89,0.94,2.89,2.69C101.72,176,100.24,177.09,98.17,177.09z"/>
		<path class="st8" d="M103.64,178.85l-1.17-0.27l0.57-3.89h2.22L103.64,178.85z"/>
		<path class="st8" d="M107.58,172.35c-0.81-0.48-1.29-1.1-1.29-1.99c0-1.51,1.34-2.39,3.15-2.39c1.87,0,3.04,0.95,3.04,2.26
			c0,0.85-0.51,1.52-1.33,2.04c1.05,0.53,1.59,1.17,1.59,2.24c0,1.5-1.27,2.59-3.37,2.59c-2.21,0-3.37-1.13-3.37-2.47
			C106.01,173.69,106.61,172.89,107.58,172.35z M109.42,175.61c0.73,0,1.3-0.42,1.3-1.09c0-0.68-0.42-0.99-1.78-1.53
			c-0.56,0.38-0.94,0.84-0.94,1.44C108,175.16,108.61,175.61,109.42,175.61z M109.74,171.64c0.51-0.36,0.81-0.77,0.81-1.3
			c0-0.6-0.47-0.99-1.18-0.99c-0.69,0-1.12,0.42-1.12,0.96C108.24,170.88,108.62,171.2,109.74,171.64z"/>
		<path class="st8" d="M117.35,177.09c-2.2,0-3.67-1.63-3.67-4.56s1.47-4.56,3.67-4.56c2.18,0,3.64,1.63,3.64,4.56
			S119.53,177.09,117.35,177.09z M117.35,169.62c-1.01,0-1.51,1.04-1.51,2.91s0.49,2.91,1.51,2.91s1.5-1.04,1.5-2.91
			S118.36,169.62,117.35,169.62z"/>
		<path class="st8" d="M124.65,177.09c-1.09,0-1.99-0.25-2.76-0.6l0.29-1.81c0.71,0.35,1.55,0.64,2.46,0.64
			c0.88,0,1.53-0.44,1.53-1.23c0-0.72-0.48-1.14-1.34-1.14c-0.53,0-0.92,0.12-1.26,0.26l-1.34-0.3l0.3-4.77h5.19l0.27,1.75h-3.82
			l-0.1,1.56c0.3-0.08,0.7-0.16,1.25-0.16c1.7,0,2.89,0.94,2.89,2.69C128.2,176,126.72,177.09,124.65,177.09z"/>
	</g>
	<g>
		<path class="st8" d="M133.64,176.99l-3.21-3.57v3.5h-0.94v-6.9h0.94v3.1l2.88-3.1h1.18l-3.04,3.24l3.21,3.51L133.64,176.99z"/>
		<path class="st8" d="M142.2,176.92l-0.43-5.49l-2.18,5.52h-0.71l-2.18-5.52l-0.42,5.49h-0.88l0.55-6.9h1.16l2.15,5.66l2.15-5.66
			h1.15l0.54,6.9H142.2z"/>
	</g>
	<g>
		<path class="st7" d="M112.28,218.76l-2.11-2.98h-0.71v2.91h-0.94v-6.9h1.88c1.41,0,2.29,0.7,2.29,1.96c0,1.05-0.61,1.67-1.51,1.91
			l2.05,2.89L112.28,218.76z M110.37,212.63h-0.9v2.37h0.8c0.91,0,1.49-0.41,1.49-1.19C111.75,213.06,111.28,212.63,110.37,212.63z"
			/>
		<path class="st7" d="M116.38,211.77h0.94l2.66,6.8l-0.91,0.2l-0.82-2.14h-2.84l-0.78,2.07h-0.95L116.38,211.77z M115.74,215.79
			h2.21l-1.11-2.93L115.74,215.79z"/>
		<path class="st7" d="M121.17,218.69v-6.9h0.94v6.9H121.17z"/>
		<path class="st7" d="M123.83,218.69v-6.9h0.94v6.04h2.49l0.13,0.86H123.83z"/>
	</g>
	<g>
		<path class="st8" d="M95.17,164.58v-6.9h0.94v6.04h2.49l0.13,0.86H95.17z"/>
		<path class="st8" d="M102.3,164.71c-1.94,0-3.17-1.44-3.17-3.57c0-2.14,1.25-3.59,3.19-3.59c1.95,0,3.17,1.44,3.17,3.57
			S104.25,164.71,102.3,164.71z M102.31,158.41c-1.37,0-2.21,1.06-2.21,2.72s0.85,2.72,2.21,2.72c1.37,0,2.21-1.06,2.21-2.72
			S103.67,158.41,102.31,158.41z"/>
		<path class="st8" d="M109.78,164.71c-1.94,0-3.19-1.44-3.19-3.57c0-2.14,1.27-3.59,3.21-3.59c0.82,0,1.43,0.21,1.96,0.57
			l-0.14,0.96c-0.5-0.38-1.09-0.67-1.83-0.67c-1.4,0-2.23,1.06-2.23,2.72s0.84,2.71,2.23,2.71c0.74,0,1.39-0.29,1.94-0.69l0.14,0.89
			C111.34,164.43,110.57,164.71,109.78,164.71z"/>
		<path class="st8" d="M115.4,157.65h0.94l2.66,6.8l-0.91,0.2l-0.82-2.14h-2.84l-0.78,2.07h-0.95L115.4,157.65z M114.75,161.68h2.21
			l-1.11-2.93L114.75,161.68z"/>
		<path class="st8" d="M120.12,164.58v-6.9h0.94v6.04h2.49l0.13,0.86H120.12z"/>
		<path class="st8" d="M130.76,164.65l-2.11-2.98h-0.71v2.91H127v-6.9h1.88c1.41,0,2.29,0.7,2.29,1.96c0,1.05-0.61,1.67-1.51,1.91
			l2.05,2.89L130.76,164.65z M128.84,158.51h-0.9v2.37h0.8c0.91,0,1.49-0.41,1.49-1.19C130.23,158.94,129.76,158.51,128.84,158.51z"
			/>
		<path class="st8" d="M135.51,164.71c-1.94,0-3.17-1.44-3.17-3.57c0-2.14,1.25-3.59,3.19-3.59c1.95,0,3.17,1.44,3.17,3.57
			S137.46,164.71,135.51,164.71z M135.52,158.41c-1.37,0-2.21,1.06-2.21,2.72s0.85,2.72,2.21,2.72c1.37,0,2.21-1.06,2.21-2.72
			S136.88,158.41,135.52,158.41z"/>
		<path class="st8" d="M141.97,157.65h0.94l2.66,6.8l-0.91,0.2l-0.82-2.14H141l-0.78,2.07h-0.95L141.97,157.65z M141.32,161.68h2.21
			l-1.11-2.93L141.32,161.68z"/>
		<path class="st8" d="M148.65,164.58h-1.96v-6.9h2c2.4,0,3.63,1.42,3.63,3.44C152.32,163.17,151.02,164.58,148.65,164.58z
			 M148.72,158.53h-1.09v5.2h1.06c1.66,0,2.66-0.84,2.66-2.6C151.35,159.4,150.3,158.53,148.72,158.53z"/>
		<path class="st8" d="M155.27,164.66c-0.75,0-1.42-0.18-1.93-0.45l0.14-0.96c0.47,0.31,1.12,0.59,1.81,0.59
			c0.72,0,1.23-0.38,1.23-1.05c0-0.63-0.28-0.89-1.32-1.36c-1.3-0.59-1.79-1.02-1.79-2.01c0-1.11,0.85-1.82,2.1-1.82
			c0.67,0,1.17,0.16,1.57,0.39l-0.15,0.94c-0.38-0.29-0.9-0.51-1.45-0.51c-0.79,0-1.14,0.42-1.14,0.93c0,0.53,0.26,0.78,1.31,1.26
			c1.34,0.61,1.8,1.07,1.8,2.11C157.45,163.91,156.56,164.66,155.27,164.66z"/>
	</g>
	<g>
		<path class="st3" d="M46.65,196.52c-0.75,0-1.42-0.18-1.93-0.45l0.14-0.96c0.47,0.31,1.12,0.59,1.81,0.59
			c0.72,0,1.23-0.38,1.23-1.05c0-0.63-0.28-0.89-1.32-1.36c-1.3-0.59-1.79-1.02-1.79-2.01c0-1.11,0.85-1.82,2.1-1.82
			c0.67,0,1.17,0.16,1.57,0.39l-0.15,0.94c-0.38-0.29-0.9-0.51-1.45-0.51c-0.79,0-1.14,0.42-1.14,0.93c0,0.53,0.26,0.78,1.31,1.26
			c1.34,0.61,1.8,1.07,1.8,2.11C48.83,195.77,47.94,196.52,46.65,196.52z"/>
		<path class="st3" d="M52.65,190.41v6.04h-0.94v-6.04h-2.2v-0.86h5.26l0.14,0.86H52.65z"/>
		<path class="st3" d="M57.28,189.52h0.94l2.66,6.8l-0.91,0.2l-0.82-2.14h-2.84l-0.78,2.07h-0.95L57.28,189.52z M56.63,193.54h2.21
			l-1.11-2.93L56.63,193.54z"/>
		<path class="st3" d="M63.75,190.41v6.04h-0.94v-6.04h-2.2v-0.86h5.26l0.14,0.86H63.75z"/>
		<path class="st3" d="M67.11,196.44v-6.9h3.72v0.86h-2.78v2h2.16l0.14,0.86h-2.3v2.32h2.88v0.86H67.11z"/>
	</g>
	<g>
		<path class="st3" d="M49.45,208.44v-3.18h-3.49v3.18h-0.94v-6.9h0.94v2.86h3.49v-2.86h0.94v6.9H49.45z"/>
		<path class="st3" d="M58.96,208.44h-0.79l-1.87-5.59l-1.87,5.59h-0.78l-2.04-6.77l0.92-0.2l1.56,5.49l1.76-5.42h0.94l1.76,5.42
			l1.53-5.42h0.96L58.96,208.44z"/>
		<path class="st3" d="M65.02,205.7v2.74h-0.94v-2.74l-2.44-4.03l0.94-0.2l1.98,3.37l1.93-3.3h1.04L65.02,205.7z"/>
		<path class="st3" d="M69.95,208.52c-0.75,0-1.42-0.18-1.93-0.45l0.14-0.96c0.47,0.31,1.12,0.59,1.81,0.59
			c0.72,0,1.23-0.38,1.23-1.05c0-0.63-0.28-0.89-1.32-1.36c-1.3-0.59-1.79-1.02-1.79-2.01c0-1.11,0.85-1.82,2.1-1.82
			c0.67,0,1.17,0.16,1.57,0.39l-0.15,0.94c-0.38-0.29-0.9-0.51-1.45-0.51c-0.79,0-1.14,0.42-1.14,0.93c0,0.53,0.26,0.78,1.31,1.26
			c1.34,0.61,1.8,1.07,1.8,2.11C72.13,207.77,71.24,208.52,69.95,208.52z"/>
	</g>
</g>
</svg>
