<?xml version="1.0" encoding="utf-8"?>
<!-- Generator: Adobe Illustrator 24.0.0, SVG Export Plug-In . SVG Version: 6.00 Build 0)  -->
<svg version="1.1" id="Layer_1" xmlns="http://www.w3.org/2000/svg" xmlns:xlink="http://www.w3.org/1999/xlink" x="0px" y="0px"
	 viewBox="0 0 595.28 841.89" style="enable-background:new 0 0 595.28 841.89;" xml:space="preserve">
<style type="text/css">
	.st0{opacity:0.9;}
	.st1{clip-path:url(#SVGID_2_);fill:#FFFFFF;}
	.st2{opacity:0.6;}
	.st3{clip-path:url(#SVGID_4_);fill:#FFFFFF;}
	.st4{opacity:0.7;}
	.st5{clip-path:url(#SVGID_6_);fill:#FFFFFF;}
	.st6{opacity:0.8;}
	.st7{fill:#FFFFFF;}
	.st8{fill:#003F65;}
	.st9{font-family:'Whitney-Book';}
	.st10{font-size:42px;}
	.st11{font-family:'Whitney-Medium';}
	.st12{font-size:12px;}
	.st13{clip-path:url(#SVGID_8_);fill:none;stroke:#8AB5E1;stroke-width:0.9;stroke-dasharray:2.718,1.818;}
	.st14{clip-path:url(#SVGID_8_);fill:#95806C;}
	.st15{clip-path:url(#SVGID_8_);fill:#003F65;}
	.st16{clip-path:url(#SVGID_8_);fill:#007B49;}
	.st17{clip-path:url(#SVGID_8_);fill:none;stroke:#8AB5E1;stroke-width:0.9;stroke-dasharray:2.708,1.808;}
	.st18{clip-path:url(#SVGID_8_);fill:#E0E6EE;}
	.st19{clip-path:url(#SVGID_8_);fill:none;stroke:#FFFFFF;stroke-width:2.7;}
	.st20{clip-path:url(#SVGID_8_);fill:#F7C500;}
	.st21{clip-path:url(#SVGID_8_);fill:#EF7918;}
	.st22{clip-path:url(#SVGID_8_);fill:#C3CEDD;}
	.st23{font-family:'Whitney-Semibold';}
	.st24{font-size:8.0999px;}
	.st25{font-size:8.1px;}
	.st26{fill:#706F6F;}
	.st27{font-family:'Whitney-Light';}
	.st28{font-size:5.83px;}
</style>
<g>
	<g>
		<g class="st0">
			<g>
				<defs>
					<rect id="SVGID_1_" x="386.97" y="128.82" width="148.04" height="73.02"/>
				</defs>
				<clipPath id="SVGID_2_">
					<use xlink:href="#SVGID_1_"  style="overflow:visible;"/>
				</clipPath>
				<polygon class="st1" points="526.01,129.82 395.97,129.82 460.99,194.84 				"/>
			</g>
		</g>
		<g class="st2">
			<g>
				<defs>
					<rect id="SVGID_3_" x="321.95" y="122.82" width="148.04" height="73.02"/>
				</defs>
				<clipPath id="SVGID_4_">
					<use xlink:href="#SVGID_3_"  style="overflow:visible;"/>
				</clipPath>
				<polygon class="st3" points="330.95,194.84 460.99,194.84 395.97,129.82 				"/>
			</g>
		</g>
		<g class="st4">
			<g>
				<defs>
					<rect id="SVGID_5_" x="321.95" y="187.84" width="148.04" height="73.02"/>
				</defs>
				<clipPath id="SVGID_6_">
					<use xlink:href="#SVGID_5_"  style="overflow:visible;"/>
				</clipPath>
				<polygon class="st5" points="330.95,259.86 460.99,259.86 395.97,194.84 				"/>
			</g>
		</g>
		<g class="st6">
			<g>
				<polygon class="st7" points="526.01,194.84 395.97,194.84 460.99,259.86 				"/>
			</g>
		</g>
	</g>
	<text transform="matrix(1 0 0 1 283.0181 137.1097)" class="st8 st9 st10"> </text>
	<text transform="matrix(1 0 0 1 286.001 182.8334)" class="st8 st11 st12"> </text>
	<g>
		<path class="st7" d="M573.32,240.74c-0.99-2.92-3.17-33.7-17.22-60.75c-13.22-25.45-40.03-44.42-41.89-45.34
			c-3.83-1.91-56.87-20.35-66.54-21.63c-9.66-1.28-58.84,9.09-63.14,10.84c-35.13,14.35-63.7,64.36-63.7,64.36
			s-10.68,51.88-8.16,52.51c2.51,0.64,45.41,0,45.41,0h30.61l14.34-0.23l9.65-20.65l14.8-6.63l23.98,2.04
			c0,0,12.8,23.64,12.25,25.47h43.37H573.32z"/>
	</g>
	<g>
		<defs>
			<rect id="SVGID_7_" x="296.22" y="85.48" width="285.29" height="154.98"/>
		</defs>
		<clipPath id="SVGID_8_">
			<use xlink:href="#SVGID_7_"  style="overflow:visible;"/>
		</clipPath>
		<line class="st13" x1="440.58" y1="240.79" x2="373.44" y2="124.51"/>
		<path class="st14" d="M441.12,117.13c-63.67-0.68-118.23,47.62-124.16,112.14c-6.24,67.91,43.75,128.01,111.65,134.26
			c0.38-4.19,0.9-9.85,1.52-16.51c-58.79-5.4-102.06-57.44-96.66-116.23c5.09-55.38,51.57-96.98,106.08-97.1v0l10.97-7.64
			L441.12,117.13z"/>
		<path class="st15" d="M439.59,133.69c-54.53,0.1-101.03,41.71-106.12,97.1c-5.4,58.79,37.88,110.83,96.67,116.23c0,0,0,0,0,0
			c0.42-4.59,0.94-10.21,1.52-16.51c0,0,0,0-0.01,0c-49.67-4.56-86.23-48.53-81.67-98.2c4.31-46.94,43.82-82.16,90.08-82.03
			c0-0.01,0-0.02,0-0.02l9.25-8.01L439.59,133.69z"/>
		<path class="st16" d="M439.95,166.85c-35.15-0.05-66.32,25.11-72.64,60.92c-7.07,40.1,19.7,78.34,59.81,85.41c0,0,0.01,0,0.01,0
			c0.82-4.67,1.82-10.35,2.88-16.35c-0.6-0.1-1.2-0.2-1.79-0.33c-30.89-6.46-50.7-36.75-44.23-67.64
			c5.62-26.85,29.23-45.31,55.6-45.44l10.88-7.5L439.95,166.85z"/>
		<line class="st17" x1="440.58" y1="240.79" x2="507.43" y2="125"/>
		<path class="st18" d="M440.05,279.9c21.87,0,39.6-17.73,39.6-39.6c0-21.87-17.73-39.6-39.6-39.6c-21.87,0-39.6,17.73-39.6,39.6
			C400.45,262.17,418.18,279.9,440.05,279.9"/>
		<path class="st19" d="M440.05,279.9c21.87,0,39.6-17.73,39.6-39.6c0-21.87-17.73-39.6-39.6-39.6c-21.87,0-39.6,17.73-39.6,39.6
			C400.45,262.17,418.18,279.9,440.05,279.9z"/>
		<path class="st20" d="M496.14,230.32c-4.71-25.94-26.99-46-54.41-46.87c-31.54-1-57.93,23.76-58.93,55.3
			c-0.02,0.61-0.01,1.21-0.01,1.81h16.2c0-22.61,18.33-40.93,40.93-40.93c19.07,0,35.08,13.03,39.64,30.67l8.77,10.19L496.14,230.32
			z"/>
		<path class="st21" d="M523.97,207.55c-16.54-42.26-62.56-66.24-107.42-54.22c-48.18,12.91-76.77,62.43-63.86,110.61
			c0,0,0,0.01,0,0.01c4.07-1.09,9.63-2.58,16.02-4.29c0,0,0-0.01,0-0.01c-10.54-39.33,12.8-79.76,52.13-90.3
			c36.67-9.83,74.28,9.8,87.74,44.38l10.79,5.29L523.97,207.55z"/>
		<path class="st22" d="M573.86,241.02c0.28-73.97-59.47-134.14-133.43-134.38c-0.15,0-0.3,0-0.46,0
			c-73.76,0-133.7,60.12-133.98,133.94h10.46c0-68.19,55.28-123.48,123.48-123.48c68.2,0,123.48,55.28,123.48,123.48
			c0,0.14-0.01,0.27-0.01,0.41L573.86,241.02z"/>
	</g>
	<g>
		<path class="st7" d="M329.89,235.94l-5.59-0.07l0.01-1.08l5.59,0.07L329.89,235.94z"/>
	</g>
	<g>
		<path class="st7" d="M330.15,229.11l-2.56-0.17c-0.34-0.02-0.58,0.08-0.6,0.44c-0.02,0.3,0.16,0.59,0.43,0.9l2.64,0.17l-0.06,0.97
			l-2.56-0.17c-0.34-0.02-0.58,0.09-0.6,0.45c-0.02,0.3,0.16,0.59,0.43,0.9l2.64,0.17l-0.06,0.97l-3.91-0.25l0.05-0.82l0.56-0.05
			c-0.32-0.39-0.58-0.8-0.55-1.33c0.04-0.56,0.31-0.84,0.7-0.96c-0.33-0.37-0.58-0.82-0.55-1.34c0.05-0.74,0.52-1.07,1.24-1.02
			l2.81,0.18L330.15,229.11z"/>
	</g>
	<g>
		<path class="st7" d="M330.51,225.31c-0.03,0.37-0.13,0.66-0.23,0.89l1.47,0.13l0.06,0.98l-5.4-0.49l0.07-0.82l0.54-0.04
			c-0.29-0.3-0.55-0.71-0.5-1.25c0.07-0.82,0.75-1.41,2.05-1.29C330.02,223.54,330.59,224.41,330.51,225.31z M327.34,225.04
			c-0.03,0.35,0.16,0.64,0.47,0.93l1.67,0.15c0.13-0.22,0.21-0.4,0.24-0.73c0.04-0.5-0.33-0.92-1.19-0.99
			C327.78,224.33,327.38,224.61,327.34,225.04z"/>
	</g>
	<g>
		<path class="st7" d="M328.67,221.54l2.22,0.32l-0.14,0.96l-3.88-0.55l0.12-0.82l0.8-0.01c-0.41-0.32-0.74-0.76-0.68-1.37
			l0.98-0.02C328.05,220.66,328.3,221.2,328.67,221.54z"/>
	</g>
	<g>
		<path class="st7" d="M331.52,218.39c-0.18,1.05-1.06,1.68-2.31,1.47c-1.25-0.21-1.88-1.11-1.71-2.15
			c0.18-1.05,1.07-1.69,2.32-1.48C331.07,216.43,331.69,217.33,331.52,218.39z M328.29,217.84c-0.1,0.57,0.36,0.96,1.08,1.08
			c0.7,0.12,1.28-0.11,1.37-0.66c0.1-0.59-0.35-0.98-1.07-1.1C328.95,217.03,328.39,217.27,328.29,217.84z"/>
	</g>
	<g>
		<path class="st7" d="M332.3,213.99l-0.21,0.92l-4.06,0.5l0.09-1.02l2.9-0.25l-2.48-1.41l0.21-0.94L332.3,213.99z"/>
	</g>
	<g>
		<path class="st7" d="M333.17,210.52c-0.26,1.06-1.07,1.71-2.44,1.37c-1.23-0.31-1.8-1.23-1.55-2.22c0.28-1.14,1.27-1.44,2.35-1.17
			c0.08,0.02,0.17,0.05,0.23,0.06l-0.61,2.44c0.76,0.14,1.17-0.18,1.32-0.77c0.12-0.49,0.04-0.93-0.15-1.42l0.77,0.07
			C333.27,209.37,333.33,209.91,333.17,210.52z M330.56,210.84l0.38-1.52c-0.61-0.08-0.99,0.07-1.11,0.53
			C329.74,210.23,329.97,210.62,330.56,210.84z"/>
	</g>
	<text transform="matrix(0.2659 -0.964 0.964 0.2659 333.5599 208.7022)" class="st7 st23 st24"> </text>
	<g>
		<path class="st7" d="M334.91,204.41c-0.39,1.29-1.42,1.91-2.81,1.48l-3.28-0.99l0.31-1.02l3.23,0.98
			c0.81,0.25,1.44,0.03,1.67-0.72c0.23-0.76-0.13-1.29-0.96-1.53l-3.25-0.99l0.31-1.03l3.26,0.99
			C334.8,201.99,335.3,203.11,334.91,204.41z"/>
	</g>
	<g>
		<path class="st7" d="M334.08,199.58l2.11,0.76l-0.33,0.92l-3.68-1.32l0.28-0.78l0.78,0.15c-0.34-0.4-0.57-0.89-0.39-1.48
			l0.96,0.18C333.64,198.59,333.77,199.18,334.08,199.58z"/>
	</g>
	<g>
		<path class="st7" d="M337.51,196.98c-0.22,0.57-0.5,1.01-0.82,1.4l-5.12-1.98l0.21-0.96l2.21,0.86c-0.15-0.33-0.26-0.76-0.08-1.22
			c0.3-0.77,1.11-1.15,2.33-0.68C337.58,194.92,337.93,195.89,337.51,196.98z M334.62,195.62c-0.12,0.3-0.02,0.65,0.17,0.98
			l1.65,0.64c0.14-0.16,0.22-0.28,0.32-0.54c0.22-0.57,0.01-1.06-0.82-1.38C335.24,195.06,334.78,195.21,334.62,195.62z"/>
	</g>
	<g>
		<path class="st7" d="M339.43,192.34l-0.5-0.13c0.17,0.42,0.25,0.9,0.01,1.43c-0.27,0.61-0.82,0.85-1.44,0.57
			c-0.87-0.39-0.93-1.27-0.42-2.77l-0.1-0.05c-0.38-0.17-0.63-0.02-0.81,0.38c-0.19,0.41-0.24,0.86-0.24,1.32l-0.76-0.21
			c0.02-0.49,0.09-0.98,0.34-1.55c0.41-0.92,0.96-1.23,1.82-0.85l2.45,1.09L339.43,192.34z M337.59,191.68
			c-0.33,1.08-0.14,1.46,0.2,1.62c0.26,0.12,0.49,0.02,0.61-0.25c0.13-0.3,0.12-0.65-0.01-1.01L337.59,191.68z"/>
	</g>
	<g>
		<path class="st7" d="M341.22,188.59l-2.29-1.16c-0.3-0.15-0.58-0.13-0.74,0.19c-0.14,0.27-0.1,0.63,0.04,1.02l2.36,1.19
			l-0.44,0.87l-3.49-1.77l0.37-0.74l0.53,0.17c-0.15-0.48-0.21-0.98,0.03-1.45c0.33-0.65,0.9-0.8,1.55-0.47l2.52,1.27L341.22,188.59
			z"/>
	</g>
	<text transform="matrix(0.4736 -0.8807 0.8807 0.4736 341.8718 187.2914)" class="st7 st23 st24"> </text>
	<g>
		<path class="st7" d="M339.44,182l1.24,0.71l0.78-1.37l0.88,0.32l-0.85,1.5l2.01,1.14l-0.53,0.93l-4.86-2.77l1.55-2.72l0.81,0.46
			L339.44,182z"/>
	</g>
	<g>
		<path class="st7" d="M345.65,180.78c-0.55,0.91-1.6,1.17-2.69,0.52c-1.09-0.66-1.35-1.72-0.8-2.63c0.55-0.92,1.61-1.19,2.7-0.53
			C345.95,178.79,346.2,179.86,345.65,180.78z M342.84,179.09c-0.3,0.49-0.02,1.02,0.61,1.4c0.61,0.37,1.23,0.37,1.52-0.12
			c0.31-0.51,0.03-1.04-0.59-1.42C343.76,178.58,343.14,178.59,342.84,179.09z"/>
	</g>
	<g>
		<path class="st7" d="M345.64,176.43l1.86,1.25l-0.54,0.81l-3.25-2.18l0.46-0.69l0.72,0.34c-0.23-0.47-0.33-1-0.02-1.53l0.89,0.41
			C345.46,175.37,345.45,175.97,345.64,176.43z"/>
	</g>
	<g>
		<path class="st7" d="M351.29,172.22l-2.09-1.48c-0.28-0.2-0.54-0.23-0.74,0.06c-0.17,0.25-0.18,0.59-0.1,0.99l2.16,1.53
			l-0.56,0.79l-2.09-1.48c-0.28-0.2-0.54-0.23-0.75,0.06c-0.17,0.24-0.18,0.59-0.1,0.99l2.16,1.53l-0.56,0.79l-3.2-2.26l0.48-0.67
			l0.5,0.24c-0.07-0.5-0.08-0.99,0.23-1.42c0.32-0.46,0.7-0.56,1.1-0.46c-0.08-0.48-0.07-1,0.24-1.43c0.43-0.6,1-0.64,1.6-0.22
			l2.3,1.63L351.29,172.22z"/>
	</g>
	<g>
		<path class="st7" d="M341,233.52l4.66,0.06l-0.01,1.07l-4.66-0.06l-0.02,1.68l-0.93-0.01l0.06-4.34l0.93-0.14L341,233.52z"/>
	</g>
	<g>
		<path class="st7" d="M343.56,230.92l2.24,0.15l-0.06,0.97l-3.91-0.26l0.05-0.82l0.79-0.07c-0.44-0.29-0.79-0.7-0.78-1.31
			l0.97-0.09C342.87,230.1,343.16,230.62,343.56,230.92z"/>
	</g>
	<g>
		<path class="st7" d="M346.14,226.95l-0.52,0.03c0.3,0.35,0.52,0.77,0.47,1.35c-0.06,0.66-0.5,1.07-1.18,1
			c-0.94-0.09-1.28-0.9-1.29-2.49l-0.11-0.01c-0.42-0.04-0.6,0.19-0.64,0.62c-0.04,0.45,0.05,0.89,0.19,1.33l-0.79,0.05
			c-0.14-0.47-0.23-0.96-0.17-1.58c0.09-1.01,0.51-1.47,1.45-1.39l2.67,0.25L346.14,226.95z M344.18,226.91
			c0.03,1.13,0.34,1.43,0.71,1.47c0.28,0.03,0.47-0.14,0.5-0.44c0.03-0.33-0.09-0.66-0.33-0.95L344.18,226.91z"/>
	</g>
	<g>
		<path class="st7" d="M346.7,222.83l-2.53-0.37c-0.34-0.05-0.59,0.06-0.64,0.41c-0.04,0.3,0.1,0.63,0.36,0.95l2.61,0.38l-0.14,0.96
			l-3.87-0.56l0.12-0.82l0.56-0.01c-0.29-0.41-0.51-0.86-0.44-1.38c0.11-0.72,0.6-1.04,1.32-0.94l2.79,0.41L346.7,222.83z"/>
	</g>
	<g>
		<path class="st7" d="M347.34,219.63c-0.11,0.56-0.4,1.09-0.67,1.42l-0.77-0.29c0.35-0.36,0.64-0.83,0.73-1.31
			c0.08-0.41-0.02-0.66-0.27-0.71c-0.27-0.05-0.41,0.09-0.69,0.67c-0.42,0.88-0.77,1.22-1.47,1.08c-0.66-0.13-1.02-0.75-0.85-1.64
			c0.1-0.5,0.29-0.94,0.54-1.29l0.77,0.29c-0.29,0.34-0.52,0.76-0.59,1.15c-0.07,0.36,0.03,0.56,0.24,0.6
			c0.21,0.04,0.35-0.08,0.61-0.62c0.45-0.94,0.8-1.28,1.52-1.13C347.21,217.99,347.55,218.62,347.34,219.63z"/>
	</g>
	<g>
		<path class="st7" d="M343.27,214.55c-0.07,0.32,0.03,0.53,0.37,0.61l0.56,0.13l0.17-0.73l0.8,0.06l-0.19,0.85l3.04,0.69
			l-0.21,0.94l-3.04-0.69l-0.13,0.55l-0.77-0.18l0.13-0.55l-0.66-0.15c-0.85-0.19-1.04-0.8-0.86-1.58c0.03-0.14,0.08-0.27,0.12-0.38
			l0.8,0.05C343.36,214.26,343.31,214.4,343.27,214.55z"/>
	</g>
	<g>
		<path class="st7" d="M348.85,213.25c-0.29,1.02-1.23,1.56-2.45,1.21c-1.22-0.35-1.75-1.3-1.47-2.32c0.29-1.03,1.24-1.57,2.47-1.22
			C348.63,211.26,349.15,212.22,348.85,213.25z M345.7,212.36c-0.16,0.55,0.25,0.99,0.95,1.19c0.69,0.19,1.28,0.03,1.43-0.51
			c0.16-0.58-0.25-1.01-0.95-1.21C346.45,211.63,345.86,211.8,345.7,212.36z"/>
	</g>
	<g>
		<path class="st7" d="M347.66,209.1l2.14,0.66l-0.29,0.93l-3.74-1.16l0.24-0.79l0.79,0.12c-0.36-0.38-0.6-0.87-0.46-1.46l0.96,0.14
			C347.18,208.14,347.34,208.71,347.66,209.1z"/>
	</g>
	<g>
		<path class="st7" d="M352.07,203.52l-2.38-0.94c-0.32-0.13-0.58-0.1-0.71,0.23c-0.11,0.28-0.03,0.61,0.13,0.99l2.46,0.98
			l-0.36,0.9l-2.38-0.94c-0.32-0.13-0.58-0.09-0.71,0.24c-0.11,0.28-0.04,0.61,0.13,0.98l2.46,0.98l-0.36,0.9l-3.64-1.44l0.3-0.77
			l0.54,0.12c-0.19-0.47-0.31-0.94-0.11-1.43c0.21-0.52,0.55-0.71,0.96-0.7c-0.2-0.45-0.3-0.96-0.11-1.45
			c0.27-0.69,0.82-0.86,1.5-0.59l2.62,1.04L352.07,203.52z"/>
	</g>
	<text transform="matrix(0.3918 -0.92 0.92 0.3918 352.6335 202.1889)" class="st7 st23 st25"> </text>
	<g>
		<path class="st7" d="M354.59,198.13c-0.59,1.22-1.7,1.66-3.01,1.02l-3.08-1.5l0.47-0.96l3.03,1.48c0.77,0.37,1.42,0.26,1.76-0.45
			c0.35-0.71,0.07-1.29-0.7-1.67l-3.05-1.49l0.47-0.97l3.06,1.49C354.86,195.74,355.18,196.92,354.59,198.13z"/>
	</g>
	<g>
		<path class="st7" d="M354.5,193.22l1.97,1.08l-0.47,0.85l-3.43-1.89l0.4-0.72l0.75,0.27c-0.27-0.44-0.42-0.97-0.15-1.52l0.92,0.33
			C354.22,192.18,354.26,192.78,354.5,193.22z"/>
	</g>
	<g>
		<path class="st7" d="M358.29,191.2c-0.32,0.52-0.67,0.9-1.06,1.23l-4.67-2.88l0.38-0.91l2.02,1.25c-0.09-0.35-0.12-0.8,0.14-1.22
			c0.43-0.7,1.3-0.93,2.42-0.24C358.74,189.18,358.91,190.2,358.29,191.2z M355.7,189.33c-0.17,0.28-0.14,0.64-0.02,1l1.51,0.93
			c0.17-0.13,0.27-0.23,0.41-0.47c0.32-0.52,0.2-1.04-0.56-1.51C356.41,188.89,355.93,188.96,355.7,189.33z"/>
	</g>
	<g>
		<path class="st7" d="M360.95,186.93l-0.47-0.21c0.11,0.45,0.1,0.93-0.21,1.42c-0.36,0.56-0.95,0.71-1.52,0.34
			c-0.79-0.52-0.72-1.39,0.02-2.8l-0.1-0.06c-0.35-0.23-0.62-0.12-0.86,0.24c-0.25,0.38-0.37,0.81-0.45,1.27l-0.72-0.32
			c0.1-0.48,0.24-0.95,0.58-1.48c0.55-0.85,1.14-1.07,1.93-0.55l2.25,1.46L360.95,186.93z M359.23,185.99
			c-0.5,1.02-0.37,1.42-0.05,1.63c0.24,0.15,0.48,0.1,0.64-0.15c0.18-0.28,0.22-0.63,0.15-1L359.23,185.99z"/>
	</g>
	<g>
		<path class="st7" d="M363.37,183.55l-2.08-1.5c-0.28-0.2-0.55-0.22-0.76,0.07c-0.18,0.25-0.2,0.61-0.12,1.01l2.14,1.55l-0.57,0.79
			l-3.17-2.29l0.48-0.67l0.5,0.25c-0.07-0.5-0.06-1,0.25-1.43c0.43-0.59,1.02-0.65,1.61-0.22l2.29,1.65L363.37,183.55z"/>
	</g>
	<text transform="matrix(0.6243 -0.7812 0.7812 0.6243 364.2474 182.3961)" class="st7 st23 st25"> </text>
	<g>
		<path class="st7" d="M369.06,176.66l-3.26-2.48l2.14,3.77l-0.62,0.71l-4.01-1.65l2.88,2.91l-0.64,0.72l-3.91-4.02l0.9-1.02
			l4.11,1.73l-2.24-3.85l0.88-1l4.48,3.37L369.06,176.66z"/>
	</g>
	<g>
		<path class="st7" d="M371.62,174.1c-0.74,0.76-1.82,0.78-2.74-0.1c-0.91-0.89-0.92-1.98-0.18-2.74c0.74-0.77,1.84-0.79,2.75,0.1
			C372.36,172.24,372.36,173.33,371.62,174.1z M369.27,171.82c-0.4,0.41-0.25,0.99,0.27,1.5c0.51,0.5,1.11,0.64,1.51,0.23
			c0.42-0.43,0.26-1.01-0.26-1.51C370.27,171.53,369.67,171.4,369.27,171.82z"/>
	</g>
	<g>
		<path class="st7" d="M374.64,171.13c-0.44,0.42-0.88,0.69-1.35,0.91l-3.75-4l0.6-0.78l1.62,1.73c0.01-0.36,0.09-0.8,0.46-1.14
			c0.6-0.57,1.5-0.56,2.39,0.4C375.61,169.3,375.49,170.33,374.64,171.13z M372.63,168.65c-0.24,0.22-0.3,0.58-0.28,0.96l1.21,1.29
			c0.2-0.08,0.32-0.16,0.52-0.34c0.45-0.42,0.47-0.95-0.14-1.6C373.43,168.41,372.95,168.35,372.63,168.65z"/>
	</g>
	<g>
		<path class="st7" d="M374.09,165.43c-0.25,0.21-0.59,0.21-0.8-0.04c-0.21-0.25-0.17-0.6,0.08-0.81c0.24-0.2,0.59-0.19,0.8,0.06
			C374.38,164.88,374.33,165.22,374.09,165.43z M376.68,169.23l-2.54-2.98l0.74-0.63l2.54,2.98L376.68,169.23z"/>
	</g>
	<g>
		<path class="st7" d="M378.23,167.9l-3.59-4.42l0.66-0.73l3.68,4.54L378.23,167.9z"/>
	</g>
	<g>
		<path class="st7" d="M377.4,162.69c-0.26,0.2-0.6,0.18-0.8-0.08c-0.2-0.26-0.14-0.61,0.11-0.81c0.25-0.19,0.6-0.17,0.8,0.1
			C377.72,162.16,377.65,162.49,377.4,162.69z M379.81,166.6l-2.39-3.1l0.77-0.59l2.39,3.1L379.81,166.6z"/>
	</g>
	<g>
		<path class="st7" d="M382.62,164.54c-0.62,0.46-1.21,0.53-1.73-0.18l-1.19-1.62l-0.45,0.33l-0.47-0.64l0.44-0.33l-0.73-1
			l0.68-0.68l0.82,1.12l0.65-0.48l0.57,0.57l-0.74,0.55l1.09,1.49c0.19,0.25,0.41,0.31,0.71,0.08c0.09-0.07,0.17-0.14,0.23-0.21
			l0.58,0.59C382.97,164.24,382.85,164.37,382.62,164.54z"/>
	</g>
	<g>
		<path class="st7" d="M385.29,162.8c0.27,0.99,0.07,1.49-0.54,1.92c-0.14,0.1-0.23,0.14-0.31,0.17l-0.57-0.58
			c0.13-0.05,0.25-0.11,0.4-0.21c0.23-0.16,0.34-0.4,0.28-0.7l-0.08-0.26l-3.37-2.35l0.76-0.69l2.34,1.76l-0.85-2.74l0.79-0.55
			L385.29,162.8z"/>
	</g>
	<g>
		<path class="st7" d="M362.03,231.5l-2.25,1.39l-0.02,0.46l2.14,0.09l-0.04,1.07l-5.59-0.22l0.07-1.73
			c0.05-1.25,0.67-1.98,1.75-1.93c0.82,0.03,1.31,0.49,1.53,1.2l2.25-1.42L362.03,231.5z M357.19,232.66l-0.02,0.59l1.77,0.07
			l0.02-0.54c0.03-0.67-0.27-1.09-0.86-1.11C357.55,231.65,357.22,231.99,357.19,232.66z"/>
	</g>
	<g>
		<path class="st7" d="M362.39,228.26c-0.13,1.09-0.85,1.83-2.25,1.66c-1.26-0.15-1.94-1-1.81-2.01c0.14-1.17,1.08-1.58,2.18-1.45
			c0.08,0.01,0.18,0.03,0.23,0.04l-0.3,2.5c0.77,0.04,1.14-0.33,1.21-0.92c0.06-0.5-0.08-0.93-0.32-1.39l0.77-0.02
			C362.34,227.1,362.47,227.63,362.39,228.26z M359.84,228.9l0.19-1.55c-0.61-0.01-0.98,0.19-1.03,0.66
			C358.95,228.39,359.22,228.75,359.84,228.9z"/>
	</g>
	<g>
		<path class="st7" d="M363.04,223.39l-0.55-0.01c0.28,0.33,0.5,0.75,0.41,1.29c-0.14,0.81-0.85,1.35-2.15,1.12
			c-1.44-0.25-1.94-1.15-1.78-2.05c0.06-0.37,0.18-0.65,0.3-0.87l-1.86-0.32l0.01-0.98l5.76,1L363.04,223.39z M360.06,223.01
			c-0.15,0.22-0.24,0.39-0.3,0.72c-0.09,0.5,0.26,0.94,1.1,1.09c0.75,0.13,1.16-0.13,1.23-0.55c0.06-0.35-0.1-0.66-0.37-0.97
			L360.06,223.01z"/>
	</g>
	<g>
		<path class="st7" d="M363.96,219.17l-0.56-0.04c0.26,0.43,0.44,0.91,0.33,1.41c-0.16,0.72-0.68,0.99-1.4,0.83l-2.74-0.63
			l0.22-0.95l2.5,0.57c0.33,0.08,0.58-0.02,0.66-0.35c0.07-0.3-0.05-0.64-0.27-0.99l-2.58-0.59l0.22-0.95l3.82,0.87L363.96,219.17z"
			/>
	</g>
	<g>
		<path class="st7" d="M364.98,215.83c-0.33,1.04-1.25,1.56-2.47,1.18c-1.3-0.41-1.71-1.43-1.4-2.42c0.15-0.5,0.4-0.83,0.68-1.07
			l0.79,0.39c-0.34,0.24-0.54,0.51-0.66,0.88c-0.17,0.53,0.11,1.04,0.85,1.28c0.77,0.24,1.28-0.06,1.45-0.63
			c0.1-0.32,0.11-0.65-0.05-1.09l0.82,0.13C365.14,214.95,365.13,215.36,364.98,215.83z"/>
	</g>
	<g>
		<path class="st7" d="M366.16,212.32c-0.38,1.03-1.25,1.58-2.57,1.09c-1.19-0.44-1.65-1.42-1.3-2.38c0.41-1.1,1.42-1.29,2.46-0.9
			c0.08,0.03,0.16,0.07,0.22,0.09l-0.87,2.36c0.74,0.22,1.19-0.05,1.39-0.62c0.17-0.47,0.14-0.92,0.01-1.43l0.75,0.16
			C366.38,211.18,366.38,211.73,366.16,212.32z M363.53,212.35l0.54-1.47c-0.59-0.15-1-0.04-1.16,0.4
			C362.78,211.65,362.96,212.06,363.53,212.35z"/>
	</g>
	<text transform="matrix(0.3708 -0.9287 0.9287 0.3708 366.7374 210.5498)" class="st7 st23 st25"> </text>
	<g>
		<path class="st7" d="M369.04,205.25l-2.21-1.01l-0.99,2.16l2.21,1.01l-0.45,0.98l-5.08-2.33l0.45-0.98l2,0.92l0.99-2.16l-2-0.92
			l0.45-0.98l5.08,2.33L369.04,205.25z"/>
	</g>
	<g>
		<path class="st7" d="M371.12,201.33l-0.49-0.18c0.14,0.44,0.17,0.92-0.12,1.43c-0.32,0.58-0.89,0.77-1.49,0.44
			c-0.83-0.46-0.81-1.34-0.18-2.8l-0.1-0.05c-0.37-0.2-0.63-0.07-0.84,0.3c-0.22,0.4-0.31,0.84-0.36,1.29l-0.74-0.27
			c0.06-0.48,0.18-0.97,0.48-1.51c0.49-0.89,1.06-1.14,1.88-0.69l2.35,1.3L371.12,201.33z M369.35,200.51
			c-0.43,1.05-0.26,1.45,0.06,1.63c0.25,0.14,0.48,0.06,0.63-0.2c0.16-0.29,0.18-0.64,0.08-1L369.35,200.51z"/>
	</g>
	<g>
		<path class="st7" d="M370.63,197.77l1.91,1.18l-0.51,0.83l-3.33-2.06l0.44-0.7l0.73,0.31c-0.25-0.46-0.37-0.99-0.07-1.52l0.9,0.38
			C370.4,196.71,370.42,197.31,370.63,197.77z"/>
	</g>
	<g>
		<path class="st7" d="M376.26,193.46l-2.07-1.51c-0.28-0.2-0.54-0.24-0.75,0.05c-0.18,0.24-0.19,0.59-0.12,0.99l2.14,1.56
			l-0.57,0.79l-2.07-1.51c-0.28-0.2-0.54-0.23-0.75,0.05c-0.18,0.24-0.19,0.59-0.12,0.99l2.14,1.56l-0.57,0.79l-3.16-2.3l0.49-0.67
			l0.5,0.25c-0.07-0.5-0.06-0.99,0.25-1.41c0.33-0.45,0.71-0.55,1.1-0.44c-0.08-0.49-0.05-1,0.26-1.43c0.43-0.6,1.01-0.63,1.6-0.2
			l2.28,1.66L376.26,193.46z"/>
	</g>
	<text transform="matrix(0.6271 -0.7789 0.7789 0.6271 377.1386 192.3018)" class="st7 st23 st25"> </text>
	<g>
		<path class="st7" d="M377.04,189.44l-0.69-0.59l1.87-2.22l0.69,0.59L377.04,189.44z"/>
	</g>
	<text transform="matrix(0.6817 -0.7316 0.7316 0.6817 380.6112 188.1526)" class="st7 st23 st25"> </text>
	<g>
		<path class="st7" d="M384.64,184.01l-1.7-1.74l-1.7,1.66l1.7,1.74l-0.77,0.75l-3.9-4l0.77-0.75l1.54,1.58l1.7-1.66l-1.54-1.58
			l0.77-0.75l3.9,4L384.64,184.01z"/>
	</g>
	<g>
		<path class="st7" d="M387.56,181.47c-0.82,0.73-1.84,0.8-2.78-0.25c-0.84-0.95-0.79-2.03-0.02-2.71c0.88-0.78,1.86-0.47,2.6,0.36
			c0.05,0.06,0.11,0.14,0.15,0.18l-1.89,1.67c0.55,0.54,1.07,0.51,1.52,0.11c0.38-0.33,0.56-0.75,0.68-1.26l0.59,0.49
			C388.29,180.57,388.03,181.05,387.56,181.47z M385.23,180.26l1.17-1.04c-0.45-0.41-0.86-0.5-1.21-0.19
			C384.89,179.29,384.86,179.74,385.23,180.26z"/>
	</g>
	<g>
		<path class="st7" d="M391.1,178.49l-0.38-0.36c-0.05,0.46-0.21,0.91-0.68,1.26c-0.53,0.4-1.13,0.35-1.54-0.19
			c-0.58-0.75-0.21-1.55,0.95-2.64l-0.07-0.09c-0.26-0.33-0.55-0.32-0.89-0.05c-0.36,0.28-0.62,0.64-0.84,1.04l-0.57-0.54
			c0.25-0.42,0.55-0.82,1.04-1.2c0.8-0.62,1.43-0.63,2,0.12l1.63,2.13L391.1,178.49z M389.8,177.03c-0.81,0.79-0.82,1.22-0.59,1.52
			c0.17,0.22,0.42,0.25,0.66,0.07c0.26-0.2,0.42-0.52,0.47-0.89L389.8,177.03z"/>
	</g>
	<g>
		<path class="st7" d="M392.58,177.4l-3.36-4.6l0.69-0.7l3.45,4.72L392.58,177.4z"/>
	</g>
	<g>
		<path class="st7" d="M395.48,175.46c-0.64,0.42-1.23,0.47-1.72-0.27l-1.11-1.68l-0.46,0.3l-0.44-0.66l0.46-0.3l-0.68-1.03
			l0.72-0.65l0.76,1.16l0.67-0.44l0.54,0.6l-0.77,0.51l1.02,1.54c0.17,0.26,0.39,0.33,0.7,0.12c0.1-0.06,0.18-0.13,0.24-0.2
			l0.55,0.62C395.85,175.18,395.72,175.3,395.48,175.46z"/>
	</g>
	<g>
		<path class="st7" d="M398.59,173.43l-1.31-2.2c-0.17-0.29-0.42-0.42-0.73-0.24c-0.26,0.16-0.42,0.48-0.51,0.88l1.35,2.27
			l-0.84,0.5l-2.91-4.9l0.76-0.63l1.24,2.09c0.13-0.42,0.33-0.87,0.78-1.13c0.63-0.37,1.19-0.19,1.56,0.44l1.44,2.42L398.59,173.43z
			"/>
	</g>
	<text transform="matrix(0.8714 -0.4906 0.4906 0.8714 399.8361 172.7005)" class="st7 st23 st25"> </text>
	<g>
		<path class="st7" d="M405.3,169.88l-0.87-0.31c-0.2,0.62-0.59,1.1-1.18,1.39c-1.02,0.51-1.9,0.34-2.33-0.52
			c-0.36-0.71-0.16-1.38,0.3-2.04c-0.49-0.2-0.77-0.4-1-0.86c-0.36-0.71-0.1-1.49,0.79-1.94c0.51-0.26,1.02-0.35,1.44-0.34l0.28,0.9
			c-0.5-0.04-0.94,0-1.29,0.18c-0.37,0.19-0.45,0.49-0.31,0.77c0.12,0.25,0.34,0.38,0.77,0.53l1.84,0.69
			c-0.03-0.37-0.13-0.8-0.29-1.28l0.84-0.22c0.21,0.66,0.3,1.25,0.28,1.81l1.59,0.59L405.3,169.88z M403.69,169.31l-1.74-0.63
			c-0.29,0.44-0.35,0.85-0.18,1.2c0.22,0.43,0.7,0.57,1.21,0.32C403.31,170.03,403.57,169.74,403.69,169.31z"/>
	</g>
	<text transform="matrix(0.9137 -0.4063 0.4063 0.9137 406.2187 169.4252)" class="st7 st23 st25"> </text>
	<g>
		<path class="st7" d="M409.78,167.97c-0.63,0.25-1.23,0.31-1.78,0.27l-0.21-0.97c0.54,0.09,1.16,0.08,1.68-0.12
			c0.46-0.18,0.69-0.52,0.53-0.94c-0.15-0.38-0.39-0.47-1.27-0.5c-1.17-0.02-1.71-0.19-2.03-1c-0.36-0.92,0.14-1.73,1.12-2.11
			c0.59-0.23,1.04-0.27,1.5-0.22l0.2,0.97c-0.47-0.1-0.98-0.09-1.39,0.07c-0.5,0.19-0.62,0.52-0.5,0.84
			c0.13,0.33,0.36,0.43,1.2,0.45c1.24,0.02,1.78,0.24,2.09,1.05C411.33,166.76,410.78,167.58,409.78,167.97z"/>
	</g>
	<g>
		<path class="st7" d="M414.43,166.21l-0.24-0.46c-0.2,0.42-0.5,0.79-1.05,0.98c-0.63,0.21-1.18-0.03-1.4-0.68
			c-0.3-0.9,0.31-1.54,1.75-2.19l-0.04-0.11c-0.13-0.4-0.42-0.48-0.82-0.34c-0.43,0.14-0.8,0.4-1.14,0.71l-0.36-0.7
			c0.37-0.31,0.78-0.6,1.37-0.79c0.96-0.32,1.55-0.13,1.85,0.76l0.85,2.54L414.43,166.21z M413.68,164.41
			c-1.02,0.49-1.17,0.89-1.05,1.24c0.09,0.27,0.31,0.37,0.6,0.28c0.32-0.11,0.57-0.35,0.73-0.69L413.68,164.41z"/>
	</g>
	<g>
		<path class="st7" d="M416.42,160.4c-0.32,0.09-0.45,0.28-0.36,0.61l0.16,0.55l0.72-0.2l0.33,0.73l-0.83,0.24l0.85,3l-0.93,0.26
			l-0.85-3l-0.54,0.15l-0.21-0.76l0.54-0.15l-0.18-0.65c-0.24-0.83,0.21-1.3,0.98-1.51c0.14-0.04,0.28-0.06,0.39-0.08l0.34,0.73
			C416.72,160.33,416.57,160.35,416.42,160.4z"/>
	</g>
	<g>
		<path class="st7" d="M420.3,164.6c-1.06,0.27-2.01-0.13-2.36-1.49c-0.32-1.23,0.23-2.17,1.22-2.42c1.14-0.29,1.87,0.43,2.14,1.51
			c0.02,0.08,0.04,0.17,0.05,0.23l-2.44,0.63c0.24,0.73,0.72,0.94,1.3,0.79c0.49-0.13,0.84-0.41,1.18-0.81l0.3,0.71
			C421.36,164.14,420.91,164.45,420.3,164.6z M418.78,162.46l1.51-0.39c-0.21-0.57-0.54-0.84-0.99-0.72
			C418.93,161.45,418.69,161.83,418.78,162.46z"/>
	</g>
	<g>
		<path class="st7" d="M424.05,163.76c-0.75,0.16-1.32-0.02-1.5-0.89l-0.41-1.97l-0.54,0.11l-0.16-0.78l0.54-0.11l-0.25-1.21
			l0.91-0.34l0.28,1.36l0.79-0.16l0.28,0.75l-0.9,0.19l0.38,1.81c0.06,0.31,0.24,0.45,0.61,0.37c0.11-0.02,0.21-0.05,0.29-0.09
			l0.28,0.78C424.5,163.63,424.33,163.7,424.05,163.76z"/>
	</g>
	<g>
		<path class="st7" d="M427.21,163.35c-0.19,1.01-0.59,1.37-1.33,1.49c-0.17,0.03-0.27,0.03-0.36,0.02l-0.25-0.77
			c0.13,0.01,0.27,0.01,0.46-0.01c0.28-0.04,0.48-0.21,0.56-0.51l0.05-0.27l-2-3.59l0.98-0.29l1.33,2.61l0.44-2.83l0.95-0.15
			L427.21,163.35z"/>
	</g>
	<g>
		<path class="st7" d="M374.47,233.4l4.66,0.19l-0.04,1.07l-4.65-0.19l-0.07,1.68l-0.93-0.04l0.18-4.34l0.94-0.12L374.47,233.4z"/>
	</g>
	<g>
		<path class="st7" d="M379.46,229.87l-0.52,0.02c0.29,0.35,0.5,0.79,0.43,1.37c-0.08,0.66-0.54,1.05-1.21,0.97
			c-0.94-0.11-1.26-0.94-1.22-2.52l-0.11-0.01c-0.42-0.05-0.61,0.17-0.66,0.6c-0.05,0.45,0.02,0.89,0.16,1.33l-0.79,0.03
			c-0.12-0.47-0.2-0.96-0.13-1.58c0.12-1,0.55-1.46,1.49-1.34l2.66,0.33L379.46,229.87z M377.51,229.77c0,1.13,0.3,1.44,0.67,1.48
			c0.28,0.03,0.47-0.12,0.51-0.42c0.04-0.33-0.07-0.66-0.31-0.96L377.51,229.77z"/>
	</g>
	<g>
		<path class="st7" d="M380.07,226.45c-0.19,1.08-1.04,1.71-2.3,1.49c-1.34-0.24-1.88-1.2-1.7-2.23c0.09-0.51,0.29-0.88,0.54-1.15
			l0.84,0.29c-0.31,0.28-0.47,0.57-0.54,0.96c-0.1,0.55,0.24,1.02,1,1.16c0.8,0.14,1.26-0.22,1.36-0.8
			c0.06-0.33,0.03-0.65-0.19-1.07l0.83,0.02C380.12,225.55,380.16,225.96,380.07,226.45z"/>
	</g>
	<g>
		<path class="st7" d="M381.07,222.1l-2.29,0.88l1.87,0.49l-0.25,0.94l-5.51-1.44l0.1-0.98l3.44,0.9l-1.25-1.65l0.28-1.06l1.33,1.84
			l2.39-0.96L381.07,222.1z"/>
	</g>
	<g>
		<path class="st7" d="M381.49,220.52l-5.43-1.72l0.15-0.97l5.58,1.77L381.49,220.52z"/>
	</g>
	<g>
		<path class="st7" d="M382.79,217.04c-0.39,1.02-1.26,1.57-2.58,1.07c-1.19-0.45-1.64-1.43-1.28-2.39c0.41-1.1,1.43-1.28,2.46-0.89
			c0.08,0.03,0.16,0.07,0.22,0.09l-0.89,2.36c0.74,0.23,1.19-0.05,1.4-0.61c0.18-0.47,0.15-0.92,0.02-1.43l0.75,0.16
			C383.01,215.91,383.01,216.45,382.79,217.04z M380.16,217.06l0.55-1.46c-0.59-0.15-1-0.04-1.16,0.39
			C379.41,216.35,379.59,216.77,380.16,217.06z"/>
	</g>
	<text transform="matrix(0.3999 -0.9166 0.9166 0.3999 383.4143 215.2905)" class="st7 st23 st25"> </text>
	<g>
		<path class="st7" d="M385.56,211.05c-0.76,1.44-2.26,1.8-3.79,0.99c-1.53-0.81-2.07-2.3-1.33-3.69c0.3-0.57,0.68-0.94,1.09-1.19
			l0.82,0.61c-0.41,0.19-0.82,0.49-1.07,0.97c-0.46,0.87-0.08,1.76,0.99,2.33c1.09,0.58,2.04,0.35,2.5-0.53
			c0.24-0.46,0.3-0.96,0.25-1.47l0.88,0.3C385.95,209.9,385.86,210.49,385.56,211.05z"/>
	</g>
	<g>
		<path class="st7" d="M386.7,208.83l-4.89-2.92l0.37-0.91l5.02,3L386.7,208.83z"/>
	</g>
	<g>
		<path class="st7" d="M384.24,204.14c-0.18,0.27-0.51,0.36-0.78,0.18c-0.28-0.18-0.33-0.53-0.15-0.8c0.17-0.26,0.51-0.35,0.79-0.16
			C384.37,203.54,384.42,203.88,384.24,204.14z M387.77,207.09l-3.26-2.17l0.54-0.81l3.26,2.17L387.77,207.09z"/>
	</g>
	<g>
		<path class="st7" d="M391.67,201.71l-2.02-1.57c-0.27-0.21-0.53-0.26-0.75,0.02c-0.19,0.24-0.21,0.58-0.15,0.98l2.09,1.63
			l-0.6,0.77l-2.02-1.57c-0.27-0.21-0.53-0.25-0.75,0.03c-0.18,0.24-0.21,0.58-0.15,0.98l2.09,1.63l-0.6,0.77l-3.09-2.4l0.51-0.65
			l0.49,0.27c-0.05-0.5-0.03-0.99,0.29-1.4c0.34-0.44,0.73-0.52,1.12-0.4c-0.06-0.49-0.02-1,0.3-1.42c0.45-0.58,1.03-0.6,1.61-0.15
			l2.22,1.73L391.67,201.71z"/>
	</g>
	<g>
		<path class="st7" d="M394.48,198.56l-0.43-0.29c0.02,0.46-0.07,0.93-0.47,1.35c-0.46,0.48-1.06,0.53-1.55,0.06
			c-0.69-0.65-0.45-1.5,0.52-2.75l-0.08-0.08c-0.3-0.29-0.59-0.23-0.88,0.09c-0.31,0.33-0.51,0.73-0.67,1.16l-0.65-0.45
			c0.18-0.45,0.41-0.89,0.84-1.35c0.7-0.74,1.31-0.84,2-0.2l1.95,1.85L394.48,198.56z M392.97,197.32
			c-0.67,0.91-0.62,1.33-0.35,1.59c0.21,0.19,0.45,0.18,0.66-0.04c0.23-0.24,0.33-0.58,0.32-0.95L392.97,197.32z"/>
	</g>
	<g>
		<path class="st7" d="M396.85,196.29c-0.56,0.53-1.13,0.69-1.74,0.04l-1.39-1.45l-0.4,0.38l-0.55-0.57l0.4-0.38l-0.86-0.89
			l0.59-0.77l0.96,1l0.58-0.56l0.64,0.49l-0.67,0.64l1.28,1.33c0.22,0.23,0.44,0.25,0.71-0.01c0.08-0.08,0.15-0.16,0.2-0.24
			l0.65,0.51C397.16,195.95,397.06,196.09,396.85,196.29z"/>
	</g>
	<g>
		<path class="st7" d="M399.11,194.29c-0.82,0.72-1.85,0.79-2.78-0.28c-0.84-0.96-0.77-2.04,0-2.71c0.89-0.77,1.86-0.45,2.59,0.38
			c0.05,0.06,0.11,0.14,0.15,0.18l-1.9,1.66c0.54,0.55,1.07,0.52,1.52,0.13c0.38-0.33,0.57-0.74,0.7-1.25l0.59,0.5
			C399.85,193.4,399.59,193.87,399.11,194.29z M396.79,193.05l1.18-1.03c-0.45-0.41-0.86-0.51-1.21-0.2
			C396.46,192.08,396.43,192.53,396.79,193.05z"/>
	</g>
	<text transform="matrix(0.784 -0.6208 0.6208 0.784 400.4962 193.0435)" class="st7 st23 st25"> </text>
	<g>
		<path class="st7" d="M404.38,190.3c-1.34,0.92-2.84,0.54-3.81-0.89c-0.98-1.43-0.76-2.99,0.54-3.88c0.54-0.37,1.04-0.52,1.52-0.55
			l0.44,0.92c-0.46-0.02-0.96,0.05-1.4,0.36c-0.82,0.56-0.89,1.52-0.21,2.53c0.69,1.02,1.64,1.25,2.46,0.7
			c0.43-0.29,0.71-0.71,0.91-1.19l0.64,0.68C405.26,189.47,404.9,189.95,404.38,190.3z"/>
	</g>
	<g>
		<path class="st7" d="M408.42,187.67l-1.29-2.21c-0.17-0.29-0.42-0.42-0.72-0.24c-0.27,0.16-0.43,0.47-0.52,0.88l1.33,2.28
			l-0.84,0.49l-2.88-4.92l0.76-0.62l1.23,2.1c0.13-0.42,0.34-0.86,0.79-1.13c0.63-0.37,1.19-0.18,1.56,0.45l1.42,2.43L408.42,187.67
			z"/>
	</g>
	<g>
		<path class="st7" d="M412.15,185.71l-0.3-0.42c-0.14,0.44-0.39,0.85-0.91,1.11c-0.6,0.29-1.18,0.13-1.48-0.48
			c-0.42-0.85,0.09-1.56,1.44-2.4l-0.05-0.1c-0.19-0.38-0.48-0.42-0.86-0.23c-0.41,0.2-0.74,0.51-1.03,0.86l-0.45-0.64
			c0.33-0.36,0.7-0.7,1.25-0.97c0.91-0.45,1.52-0.34,1.94,0.51l1.19,2.4L412.15,185.71z M411.16,184.02
			c-0.95,0.62-1.04,1.04-0.88,1.37c0.13,0.25,0.36,0.33,0.63,0.2c0.3-0.15,0.51-0.43,0.63-0.78L411.16,184.02z"/>
	</g>
	<g>
		<path class="st7" d="M415.96,184.02l-0.97-2.37c-0.13-0.31-0.35-0.48-0.68-0.34c-0.28,0.12-0.49,0.41-0.64,0.79l1,2.44l-0.9,0.37
			l-1.48-3.62l0.76-0.31l0.29,0.48c0.21-0.46,0.48-0.88,0.97-1.08c0.67-0.28,1.2-0.01,1.48,0.66l1.07,2.61L415.96,184.02z"/>
	</g>
	<g>
		<path class="st7" d="M419.6,184.23c-1.01,0.33-1.87,0.28-2.07-0.34c-0.12-0.35,0.04-0.69,0.41-1.1c-0.18-0.07-0.3-0.18-0.35-0.34
			c-0.07-0.21,0.03-0.46,0.28-0.74c-0.51-0.06-0.9-0.37-1.06-0.86c-0.27-0.81,0.23-1.53,1.06-1.81c0.42-0.14,0.83-0.14,1.17,0
			l0.8-0.62l0.37,0.7l-0.66,0.27c0.11,0.13,0.2,0.28,0.26,0.45c0.26,0.8-0.26,1.5-1.06,1.77c-0.11,0.04-0.22,0.07-0.31,0.09
			c-0.07,0.09-0.1,0.18-0.08,0.24c0.04,0.12,0.17,0.12,0.77,0.01l0.49-0.11c0.8-0.14,1.35-0.06,1.54,0.51
			C421.41,183.14,420.68,183.88,419.6,184.23z M418.07,179.63c-0.41,0.13-0.54,0.53-0.41,0.94c0.13,0.38,0.47,0.6,0.87,0.46
			c0.41-0.13,0.55-0.52,0.42-0.92S418.46,179.51,418.07,179.63z M418.5,182.84c-0.21,0.27-0.27,0.49-0.21,0.68
			c0.09,0.28,0.49,0.37,1.19,0.14c0.66-0.22,0.97-0.57,0.87-0.84c-0.07-0.2-0.27-0.26-0.75-0.18l-0.52,0.1
			C418.82,182.8,418.69,182.82,418.5,182.84z"/>
	</g>
	<g>
		<path class="st7" d="M423.35,181.63c-1.05,0.29-2.01-0.09-2.39-1.45c-0.34-1.23,0.19-2.17,1.17-2.45
			c1.13-0.32,1.88,0.39,2.17,1.46c0.02,0.08,0.04,0.17,0.06,0.23l-2.43,0.68c0.25,0.73,0.74,0.93,1.32,0.77
			c0.48-0.13,0.83-0.43,1.17-0.83l0.31,0.7C424.4,181.15,423.96,181.46,423.35,181.63z M421.79,179.52l1.51-0.42
			c-0.23-0.57-0.55-0.83-1-0.71C421.91,178.5,421.69,178.89,421.79,179.52z"/>
	</g>
	<g>
		<path class="st26" d="M394.7,234.47c-0.05,0.68-0.24,1.25-0.51,1.73l-0.97-0.23c0.31-0.45,0.56-1.02,0.6-1.57
			c0.03-0.49-0.18-0.85-0.62-0.88c-0.41-0.03-0.6,0.15-1,0.94c-0.52,1.05-0.9,1.47-1.77,1.41c-0.99-0.07-1.51-0.87-1.44-1.91
			c0.04-0.63,0.2-1.06,0.44-1.45l0.96,0.23c-0.29,0.39-0.5,0.85-0.53,1.29c-0.04,0.53,0.21,0.79,0.55,0.81
			c0.36,0.02,0.54-0.14,0.91-0.9c0.55-1.12,0.97-1.51,1.84-1.45C394.26,232.55,394.77,233.39,394.7,234.47z"/>
	</g>
	<g>
		<path class="st26" d="M395.26,229.31l-0.56-0.01c0.28,0.42,0.49,0.88,0.4,1.4c-0.13,0.73-0.63,1.02-1.36,0.89l-2.77-0.49
			l0.17-0.96l2.52,0.45c0.33,0.06,0.58-0.04,0.64-0.39c0.05-0.3-0.08-0.64-0.32-0.97l-2.6-0.46l0.17-0.96l3.85,0.68L395.26,229.31z"
			/>
	</g>
	<g>
		<path class="st26" d="M396.15,225.73c-0.1,0.36-0.25,0.63-0.4,0.83l1.42,0.41l-0.13,0.98l-5.21-1.5l0.23-0.79l0.54,0.06
			c-0.23-0.35-0.41-0.8-0.26-1.32c0.23-0.79,1-1.25,2.26-0.88C396,223.91,396.4,224.86,396.15,225.73z M393.09,224.87
			c-0.1,0.33,0.04,0.66,0.29,1l1.61,0.46c0.17-0.19,0.28-0.36,0.37-0.68c0.14-0.48-0.15-0.96-0.98-1.2
			C393.66,224.25,393.21,224.45,393.09,224.87z"/>
	</g>
	<g>
		<path class="st26" d="M397.59,221.6c-0.14,0.35-0.31,0.6-0.48,0.78l1.37,0.55l-0.23,0.96l-5.02-2.04l0.31-0.77l0.53,0.12
			c-0.19-0.37-0.32-0.84-0.12-1.34c0.31-0.76,1.12-1.14,2.34-0.64C397.63,219.77,397.93,220.77,397.59,221.6z M394.64,220.43
			c-0.13,0.32-0.03,0.66,0.18,1.03l1.55,0.63c0.19-0.17,0.32-0.33,0.44-0.63c0.19-0.47-0.05-0.97-0.85-1.3
			C395.27,219.87,394.8,220.02,394.64,220.43z"/>
	</g>
	<g>
		<path class="st26" d="M399.4,217.89c-0.5,0.94-1.53,1.26-2.66,0.66c-1.12-0.6-1.44-1.64-0.94-2.58c0.5-0.94,1.55-1.27,2.67-0.68
			C399.59,215.89,399.9,216.95,399.4,217.89z M396.5,216.36c-0.27,0.51,0.04,1.02,0.68,1.36c0.63,0.33,1.24,0.3,1.51-0.2
			c0.28-0.53-0.03-1.04-0.67-1.38C397.39,215.8,396.78,215.84,396.5,216.36z"/>
	</g>
	<g>
		<path class="st26" d="M399.31,213.51l1.87,1.24l-0.54,0.81l-3.26-2.17l0.46-0.69l0.72,0.33c-0.23-0.47-0.33-1-0.03-1.53l0.89,0.41
			C399.12,212.45,399.11,213.05,399.31,213.51z"/>
	</g>
	<g>
		<path class="st26" d="M403.32,211.91c-0.47,0.61-1.02,0.84-1.72,0.29l-1.59-1.23l-0.34,0.44l-0.63-0.49l0.34-0.44l-0.98-0.76
			l0.47-0.84l1.09,0.85l0.49-0.63l0.7,0.39l-0.57,0.73l1.46,1.14c0.25,0.19,0.47,0.18,0.7-0.11c0.07-0.09,0.13-0.18,0.16-0.26
			l0.72,0.41C403.57,211.52,403.49,211.68,403.32,211.91z"/>
	</g>
	<text transform="matrix(0.652 -0.7582 0.7582 0.652 403.792 211.1986)" class="st26 st23 st25"> </text>
	<g>
		<path class="st26" d="M407.46,207.34l-2.6-0.5l-0.33,0.33l1.52,1.51l-0.75,0.76l-3.97-3.94l1.22-1.23c0.88-0.89,1.83-1,2.6-0.24
			c0.58,0.58,0.63,1.25,0.31,1.91l2.62,0.48L407.46,207.34z M403.11,204.92l-0.42,0.42l1.26,1.25l0.38-0.38
			c0.47-0.47,0.54-0.99,0.12-1.4C404.06,204.41,403.59,204.44,403.11,204.92z"/>
	</g>
	<g>
		<path class="st26" d="M409.94,205.22c-0.84,0.7-1.87,0.74-2.77-0.34c-0.81-0.98-0.72-2.06,0.07-2.71c0.9-0.75,1.87-0.41,2.58,0.45
			c0.05,0.06,0.11,0.14,0.14,0.19l-1.94,1.61c0.53,0.56,1.05,0.55,1.52,0.16c0.39-0.32,0.58-0.73,0.72-1.23l0.57,0.51
			C410.7,204.35,410.43,204.82,409.94,205.22z M407.65,203.93l1.2-1c-0.44-0.43-0.84-0.53-1.2-0.23
			C407.35,202.95,407.3,203.4,407.65,203.93z"/>
	</g>
	<g>
		<path class="st26" d="M413.77,204.11c-0.88,0.6-1.72,0.78-2.09,0.25c-0.21-0.31-0.16-0.68,0.09-1.17
			c-0.2-0.01-0.34-0.09-0.43-0.23c-0.12-0.18-0.1-0.45,0.06-0.79c-0.5,0.08-0.96-0.11-1.26-0.53c-0.48-0.7-0.21-1.54,0.52-2.03
			c0.37-0.25,0.76-0.36,1.12-0.33l0.6-0.82l0.55,0.57l-0.56,0.44c0.14,0.09,0.28,0.21,0.38,0.36c0.48,0.7,0.16,1.52-0.53,1.99
			c-0.09,0.06-0.19,0.13-0.28,0.17c-0.04,0.11-0.05,0.2-0.01,0.25c0.07,0.11,0.19,0.07,0.74-0.2l0.44-0.24
			c0.73-0.36,1.28-0.43,1.62,0.06C415.21,202.56,414.71,203.47,413.77,204.11z M411.03,200.12c-0.35,0.24-0.38,0.66-0.13,1.01
			c0.23,0.33,0.62,0.44,0.96,0.2c0.35-0.24,0.39-0.65,0.15-1C411.77,199.99,411.37,199.88,411.03,200.12z M412.33,203.08
			c-0.12,0.32-0.13,0.55-0.01,0.71c0.17,0.24,0.57,0.22,1.18-0.2c0.58-0.39,0.77-0.81,0.61-1.05c-0.12-0.17-0.33-0.18-0.77,0.04
			l-0.47,0.24C412.63,202.95,412.51,203.01,412.33,203.08z"/>
	</g>
	<g>
		<path class="st26" d="M413.42,197.2c-0.28,0.16-0.62,0.1-0.78-0.18c-0.17-0.29-0.06-0.62,0.22-0.78c0.27-0.16,0.62-0.09,0.78,0.2
			C413.8,196.71,413.69,197.04,413.42,197.2z M415.3,201.39l-1.98-3.38l0.84-0.49l1.98,3.38L415.3,201.39z"/>
	</g>
	<g>
		<path class="st26" d="M418.53,199.74c-0.95,0.47-1.98,0.13-2.54-1.01c-0.56-1.14-0.21-2.17,0.74-2.65c0.96-0.47,2-0.13,2.56,1.01
			C419.86,198.24,419.49,199.27,418.53,199.74z M417.08,196.81c-0.52,0.25-0.56,0.85-0.24,1.5c0.32,0.64,0.83,0.97,1.34,0.72
			c0.54-0.27,0.59-0.86,0.26-1.51C418.12,196.87,417.6,196.55,417.08,196.81z"/>
	</g>
	<g>
		<path class="st26" d="M423.1,197.72l-0.92-2.39c-0.12-0.32-0.34-0.49-0.67-0.36c-0.29,0.11-0.5,0.4-0.66,0.78l0.94,2.47
			l-0.91,0.35l-1.4-3.65l0.77-0.29l0.28,0.48c0.22-0.46,0.5-0.87,0.99-1.06c0.68-0.26,1.2,0.02,1.46,0.7l1.01,2.63L423.1,197.72z"/>
	</g>
	<g>
		<path class="st26" d="M427.14,196.48l-0.22-0.47c-0.22,0.4-0.54,0.76-1.1,0.92c-0.64,0.18-1.18-0.09-1.36-0.75
			c-0.25-0.91,0.38-1.52,1.86-2.09l-0.03-0.11c-0.11-0.41-0.39-0.5-0.8-0.38c-0.44,0.12-0.82,0.36-1.17,0.65l-0.33-0.72
			c0.39-0.29,0.81-0.55,1.41-0.72c0.98-0.27,1.56-0.05,1.81,0.86l0.72,2.58L427.14,196.48z M426.48,194.63
			c-1.05,0.43-1.22,0.83-1.12,1.19c0.08,0.27,0.29,0.39,0.58,0.31c0.32-0.09,0.58-0.32,0.77-0.65L426.48,194.63z"/>
	</g>
	<g>
		<path class="st26" d="M428.92,196.06l-1.14-5.58l0.92-0.34l1.17,5.73L428.92,196.06z"/>
	</g>
	<text transform="matrix(0.9882 -0.1533 0.1533 0.9882 430.3984 195.7475)" class="st26 st23 st25"> </text>
	<g>
		<path class="st26" d="M434.46,195.2l-1.77,0.15l-0.46-5.57l1.77-0.15c1.94-0.16,3.04,0.89,3.17,2.53
			C437.3,193.82,436.36,195.04,434.46,195.2z M434.06,190.51l-0.69,0.06l0.32,3.81l0.68-0.06c1.17-0.1,1.82-0.75,1.72-2.06
			C435.97,190.98,435.18,190.42,434.06,190.51z"/>
	</g>
	<g>
		<path class="st26" d="M439.99,195.08c-1.09-0.01-1.9-0.65-1.89-2.06c0.02-1.27,0.79-2.03,1.81-2.02c1.17,0.01,1.69,0.9,1.68,2.01
			c0,0.08-0.01,0.18-0.01,0.24l-2.52-0.03c0.04,0.77,0.45,1.1,1.05,1.11c0.5,0.01,0.92-0.18,1.35-0.47l0.1,0.76
			C441.14,194.91,440.63,195.09,439.99,195.08z M439.08,192.61l1.56,0.02c-0.06-0.61-0.3-0.95-0.77-0.96
			C439.49,191.67,439.16,191.98,439.08,192.61z"/>
	</g>
	<g>
		<path class="st26" d="M444.19,195.29l-0.94-0.1l-0.95-3.98l1.03-0.02l0.58,2.86l1.13-2.62l0.96,0.1L444.19,195.29z"/>
	</g>
	<g>
		<path class="st26" d="M447.71,195.87c-1.08-0.19-1.77-0.95-1.52-2.34c0.22-1.25,1.11-1.88,2.11-1.69
			c1.16,0.21,1.52,1.17,1.32,2.26c-0.01,0.08-0.04,0.17-0.05,0.23l-2.48-0.45c-0.09,0.77,0.26,1.16,0.85,1.26
			c0.49,0.09,0.93-0.02,1.41-0.24l-0.02,0.77C448.87,195.89,448.34,195.99,447.71,195.87z M447.22,193.29l1.54,0.28
			c0.04-0.61-0.14-0.99-0.6-1.07C447.78,192.43,447.41,192.68,447.22,193.29z"/>
	</g>
	<g>
		<path class="st26" d="M450.07,196.29l1.4-5.52l0.98,0.09l-1.44,5.67L450.07,196.29z"/>
	</g>
	<g>
		<path class="st26" d="M453.54,197.36c-1.01-0.33-1.5-1.3-1.1-2.5c0.4-1.21,1.38-1.7,2.39-1.36c1.02,0.34,1.51,1.31,1.11,2.52
			S454.55,197.69,453.54,197.36z M454.56,194.25c-0.55-0.18-1,0.21-1.23,0.9c-0.22,0.68-0.09,1.28,0.45,1.46
			c0.57,0.19,1.02-0.2,1.25-0.89C455.26,195.03,455.12,194.43,454.56,194.25z"/>
	</g>
	<g>
		<path class="st26" d="M457.77,198.93c-0.34-0.15-0.59-0.33-0.77-0.5l-0.59,1.35l-0.95-0.26l2.17-4.97l0.76,0.33l-0.13,0.53
			c0.38-0.18,0.85-0.3,1.34-0.08c0.75,0.33,1.1,1.16,0.58,2.36C459.59,199.02,458.59,199.29,457.77,198.93z M459.02,196.01
			c-0.32-0.14-0.66-0.05-1.03,0.15l-0.67,1.54c0.17,0.2,0.32,0.32,0.62,0.46c0.46,0.2,0.98-0.02,1.32-0.81
			C459.56,196.65,459.42,196.18,459.02,196.01z"/>
	</g>
	<g>
		<path class="st26" d="M464.1,202.23l1.29-2.21c0.17-0.29,0.19-0.56-0.12-0.74c-0.26-0.15-0.6-0.13-0.99-0.02l-1.34,2.29
			l-0.84-0.49l1.29-2.21c0.17-0.29,0.18-0.56-0.13-0.74c-0.26-0.15-0.6-0.13-0.99-0.02l-1.34,2.29l-0.84-0.49l1.98-3.38l0.71,0.42
			l-0.2,0.52c0.49-0.12,0.98-0.16,1.43,0.11c0.48,0.28,0.61,0.65,0.55,1.05c0.48-0.13,0.99-0.15,1.44,0.11
			c0.64,0.37,0.73,0.94,0.36,1.57l-1.42,2.43L464.1,202.23z"/>
	</g>
	<g>
		<path class="st26" d="M467.02,204.42c-0.87-0.66-1.15-1.65-0.3-2.77c0.77-1.02,1.84-1.17,2.65-0.56c0.94,0.71,0.83,1.73,0.16,2.62
			c-0.05,0.06-0.11,0.14-0.15,0.18l-2.01-1.52c-0.42,0.64-0.29,1.15,0.19,1.51c0.4,0.3,0.84,0.4,1.37,0.42l-0.37,0.68
			C468.04,204.96,467.52,204.8,467.02,204.42z M467.74,201.9l1.25,0.94c0.31-0.52,0.32-0.94-0.05-1.22
			C468.63,201.38,468.18,201.44,467.74,201.9z"/>
	</g>
	<g>
		<path class="st26" d="M470.66,207.42l1.73-1.89c0.23-0.25,0.28-0.52,0.02-0.76c-0.23-0.21-0.58-0.27-0.99-0.24l-1.78,1.95
			l-0.72-0.66l2.64-2.89l0.61,0.56l-0.31,0.47c0.5-0.01,1,0.06,1.39,0.41c0.54,0.49,0.52,1.08,0.03,1.62l-1.9,2.08L470.66,207.42z"
			/>
	</g>
	<g>
		<path class="st26" d="M472.99,209.93c-0.52-0.57-0.65-1.15,0.01-1.74l1.49-1.35l-0.37-0.41l0.59-0.53l0.37,0.41l0.92-0.83
			l0.75,0.61l-1.03,0.93l0.54,0.6l-0.51,0.62l-0.62-0.69l-1.37,1.24c-0.23,0.21-0.26,0.43-0.01,0.71c0.08,0.08,0.15,0.16,0.23,0.21
			l-0.53,0.64C473.33,210.26,473.18,210.15,472.99,209.93z"/>
	</g>
	<g>
		<path class="st8" d="M325.66,254.41c-0.93,0-1.71-0.2-2.41-0.52l0.25-1.46c0.71,0.38,1.5,0.64,2.19,0.64
			c0.49,0,0.83-0.21,0.83-0.62c0-0.39-0.2-0.57-1.17-0.94c-1.38-0.53-1.98-0.98-1.98-2.12c0-1.33,1.04-2.04,2.36-2.04
			c0.9,0,1.48,0.17,2.08,0.46l-0.26,1.44c-0.62-0.36-1.27-0.56-1.8-0.56c-0.52,0-0.77,0.22-0.77,0.54c0,0.35,0.19,0.52,1.05,0.85
			c1.51,0.55,2.1,1.07,2.1,2.17C328.13,253.75,327.03,254.41,325.66,254.41z"/>
		<path class="st8" d="M329.1,254.33v-6.9h1.71v6.9H329.1z"/>
		<path class="st8" d="M335.26,254.46c-2.19,0-3.4-1.44-3.4-3.57c0-2.14,1.31-3.59,3.44-3.59c0.85,0,1.56,0.2,2.11,0.51l-0.23,1.49
			c-0.52-0.33-1.13-0.59-1.84-0.59c-1.19,0-1.77,0.88-1.77,2.17c0,1.3,0.6,2.21,1.79,2.21c0.38,0,0.65-0.08,0.93-0.22v-1.23h-1.2
			l-0.2-1.27h2.89v3.36C337.06,254.2,336.21,254.46,335.26,254.46z"/>
		<path class="st8" d="M343.24,254.33l-2.72-4.13v4.13h-1.59v-6.9h1.66l2.54,3.86v-3.86h1.59v6.9H343.24z"/>
		<path class="st8" d="M346.02,254.33v-6.9h1.71v6.9H346.02z"/>
		<path class="st8" d="M350.73,248.86v1.41h1.8l0.24,1.43h-2.04v2.63h-1.7v-6.9h4.13v1.43H350.73z"/>
		<path class="st8" d="M354.1,254.33v-6.9h1.71v6.9H354.1z"/>
		<path class="st8" d="M360.21,254.45c-2.09,0-3.35-1.4-3.35-3.56c0-2.14,1.34-3.58,3.3-3.58c0.78,0,1.41,0.17,1.91,0.45l-0.24,1.54
			c-0.42-0.32-0.94-0.56-1.54-0.56c-1.04,0-1.72,0.79-1.72,2.14c0,1.38,0.77,2.14,1.81,2.14c0.56,0,1.05-0.19,1.57-0.48l0.22,1.4
			C361.61,254.25,360.97,254.45,360.21,254.45z"/>
		<path class="st8" d="M365.08,247.4h1.88l2.4,6.72l-1.72,0.28l-0.51-1.5h-2.4l-0.46,1.43h-1.67L365.08,247.4z M365.14,251.56h1.56
			l-0.77-2.4L365.14,251.56z"/>
		<path class="st8" d="M374.43,254.33l-2.72-4.13v4.13h-1.59v-6.9h1.66l2.54,3.86v-3.86h1.59v6.9H374.43z"/>
		<path class="st8" d="M380.27,254.45c-2.09,0-3.35-1.4-3.35-3.56c0-2.14,1.34-3.58,3.3-3.58c0.78,0,1.41,0.17,1.91,0.45l-0.24,1.54
			c-0.42-0.32-0.94-0.56-1.54-0.56c-1.04,0-1.72,0.79-1.72,2.14c0,1.38,0.77,2.14,1.81,2.14c0.56,0,1.05-0.19,1.57-0.48l0.22,1.4
			C381.67,254.25,381.03,254.45,380.27,254.45z"/>
		<path class="st8" d="M383.22,254.33v-6.9h4.3v1.38h-2.62v1.27h2l0.22,1.37h-2.22v1.49h2.71v1.39H383.22z"/>
		<path class="st8" d="M393.69,254.46c-1.98,0-3.28-1.44-3.28-3.57c0-2.14,1.3-3.59,3.3-3.59s3.29,1.44,3.29,3.57
			S395.7,254.46,393.69,254.46z M393.7,248.64c-0.99,0-1.58,0.87-1.58,2.24c0,1.37,0.59,2.24,1.58,2.24c1,0,1.58-0.87,1.58-2.24
			C395.28,249.51,394.7,248.64,393.7,248.64z"/>
		<path class="st8" d="M399.71,248.86v1.41h1.8l0.24,1.43h-2.04v2.63h-1.7v-6.9h4.13v1.43H399.71z"/>
		<path class="st8" d="M407.26,254.41c-0.93,0-1.71-0.2-2.41-0.52l0.25-1.46c0.71,0.38,1.5,0.64,2.19,0.64
			c0.49,0,0.83-0.21,0.83-0.62c0-0.39-0.2-0.57-1.17-0.94c-1.38-0.53-1.98-0.98-1.98-2.12c0-1.33,1.04-2.04,2.36-2.04
			c0.9,0,1.48,0.17,2.08,0.46l-0.26,1.44c-0.62-0.36-1.27-0.56-1.8-0.56c-0.52,0-0.77,0.22-0.77,0.54c0,0.35,0.19,0.52,1.05,0.85
			c1.51,0.55,2.1,1.07,2.1,2.17C409.73,253.75,408.63,254.41,407.26,254.41z"/>
		<path class="st8" d="M413.82,248.88v5.45h-1.72v-5.45h-1.95v-1.45h5.46l0.24,1.45H413.82z"/>
		<path class="st8" d="M416.62,254.33v-6.9h4.3v1.38h-2.62v1.27h2l0.22,1.37h-2.22v1.49h2.71v1.39H416.62z"/>
		<path class="st8" d="M424.12,252.04h-0.44v2.29h-1.71v-6.9h2.22c1.68,0,2.71,0.75,2.71,2.25
			C426.9,251.24,425.79,252.04,424.12,252.04z M424.09,248.72h-0.43v2.03h0.4c0.76,0,1.18-0.33,1.18-1.04
			C425.24,249.05,424.85,248.72,424.09,248.72z"/>
		<path class="st8" d="M432.9,254.45c-2.09,0-3.35-1.4-3.35-3.56c0-2.14,1.34-3.58,3.3-3.58c0.78,0,1.41,0.17,1.91,0.45l-0.24,1.54
			c-0.42-0.32-0.94-0.56-1.54-0.56c-1.04,0-1.72,0.79-1.72,2.14c0,1.38,0.77,2.14,1.81,2.14c0.56,0,1.05-0.19,1.57-0.48l0.22,1.4
			C434.3,254.25,433.66,254.45,432.9,254.45z"/>
		<path class="st8" d="M439.95,254.33v-2.82h-2.39v2.82h-1.71v-6.9h1.71v2.58h2.39v-2.58h1.72v6.9H439.95z"/>
		<path class="st8" d="M444.9,247.4h1.88l2.4,6.72l-1.72,0.28l-0.51-1.5h-2.4l-0.46,1.43h-1.67L444.9,247.4z M444.96,251.56h1.56
			l-0.77-2.4L444.96,251.56z"/>
		<path class="st8" d="M454.25,254.33l-2.72-4.13v4.13h-1.59v-6.9h1.66l2.54,3.86v-3.86h1.59v6.9H454.25z"/>
		<path class="st8" d="M460.14,254.46c-2.19,0-3.4-1.44-3.4-3.57c0-2.14,1.31-3.59,3.44-3.59c0.85,0,1.56,0.2,2.11,0.51l-0.23,1.49
			c-0.52-0.33-1.13-0.59-1.84-0.59c-1.19,0-1.77,0.88-1.77,2.17c0,1.3,0.6,2.21,1.79,2.21c0.38,0,0.65-0.08,0.93-0.22v-1.23h-1.2
			l-0.2-1.27h2.89v3.36C461.94,254.2,461.09,254.46,460.14,254.46z"/>
		<path class="st8" d="M463.81,254.33v-6.9h4.3v1.38h-2.62v1.27h2l0.22,1.37h-2.22v1.49h2.71v1.39H463.81z"/>
		<path class="st8" d="M474.54,248.88v5.45h-1.72v-5.45h-1.95v-1.45h5.46l0.24,1.45H474.54z"/>
		<path class="st8" d="M480.05,254.46c-1.98,0-3.28-1.44-3.28-3.57c0-2.14,1.3-3.59,3.3-3.59s3.29,1.44,3.29,3.57
			S482.06,254.46,480.05,254.46z M480.06,248.64c-0.99,0-1.58,0.87-1.58,2.24c0,1.37,0.59,2.24,1.58,2.24c1,0,1.58-0.87,1.58-2.24
			C481.64,249.51,481.06,248.64,480.06,248.64z"/>
		<path class="st8" d="M490.11,254.4l-1.52-2.44h-0.43v2.37h-1.7v-6.9h2.41c1.67,0,2.65,0.76,2.65,2.18c0,0.96-0.48,1.61-1.3,1.96
			l1.67,2.54L490.11,254.4z M488.7,248.72h-0.55v2.01h0.53c0.74,0,1.16-0.36,1.16-1.02C489.84,249.07,489.44,248.72,488.7,248.72z"
			/>
		<path class="st8" d="M492.62,254.33v-6.9h4.3v1.38h-2.62v1.27h2l0.22,1.37h-2.22v1.49h2.71v1.39H492.62z"/>
		<path class="st8" d="M501.04,254.46c-2.19,0-3.4-1.44-3.4-3.57c0-2.14,1.31-3.59,3.44-3.59c0.85,0,1.56,0.2,2.11,0.51l-0.23,1.49
			c-0.52-0.33-1.13-0.59-1.84-0.59c-1.19,0-1.77,0.88-1.77,2.17c0,1.3,0.6,2.21,1.79,2.21c0.38,0,0.65-0.08,0.93-0.22v-1.23h-1.2
			l-0.2-1.27h2.89v3.36C502.83,254.2,501.99,254.46,501.04,254.46z"/>
		<path class="st8" d="M504.75,254.33v-6.9h1.71v6.9H504.75z"/>
		<path class="st8" d="M510.79,254.46c-1.98,0-3.28-1.44-3.28-3.57c0-2.14,1.3-3.59,3.3-3.59s3.29,1.44,3.29,3.57
			S512.79,254.46,510.79,254.46z M510.8,248.64c-0.99,0-1.58,0.87-1.58,2.24c0,1.37,0.59,2.24,1.58,2.24c1,0,1.58-0.87,1.58-2.24
			C512.38,249.51,511.79,248.64,510.8,248.64z"/>
		<path class="st8" d="M519.42,254.33l-2.72-4.13v4.13h-1.59v-6.9h1.66l2.54,3.86v-3.86h1.59v6.9H519.42z"/>
	</g>
	<g>
		<path class="st8" d="M524.16,254.33v-0.32l2.48-2.69c0.81-0.88,1.05-1.37,1.05-2.07c0-0.86-0.55-1.39-1.43-1.39
			c-0.7,0-1.31,0.35-1.85,0.81l-0.08-0.49c0.51-0.41,1.14-0.74,1.95-0.74c1.2,0,1.9,0.72,1.9,1.78c0,0.84-0.34,1.44-1.17,2.33
			l-2.21,2.37h3.44l0.06,0.41H524.16z"/>
		<path class="st8" d="M532.03,254.46c-1.51,0-2.39-1.44-2.39-3.5s0.89-3.52,2.4-3.52s2.39,1.44,2.39,3.5
			C534.42,253.01,533.54,254.46,532.03,254.46z M532.04,247.86c-1.26,0-1.91,1.32-1.91,3.09s0.65,3.09,1.91,3.09
			c1.25,0,1.9-1.32,1.9-3.09S533.29,247.86,532.04,247.86z"/>
		<path class="st8" d="M535.58,254.33v-0.32l2.48-2.69c0.81-0.88,1.05-1.37,1.05-2.07c0-0.86-0.55-1.39-1.43-1.39
			c-0.7,0-1.31,0.35-1.85,0.81l-0.08-0.49c0.51-0.41,1.14-0.74,1.95-0.74c1.2,0,1.9,0.72,1.9,1.78c0,0.84-0.34,1.44-1.17,2.33
			l-2.21,2.37h3.44l0.06,0.41H535.58z"/>
		<path class="st8" d="M542.3,254.33v-6.26l-1.49,0.63l-0.07-0.4l1.69-0.77h0.34v6.8H542.3z"/>
		<path class="st8" d="M544.55,251.74v-0.47h3.33v0.47H544.55z"/>
		<path class="st8" d="M550.9,254.46c-0.75,0-1.4-0.22-1.86-0.53l0.08-0.48c0.59,0.4,1.08,0.59,1.8,0.59c1.03,0,1.69-0.64,1.69-1.51
			c0-0.93-0.65-1.56-2.06-1.56h-0.29l-0.05-0.43h0.41c1.2,0,1.86-0.57,1.86-1.42c0-0.73-0.5-1.26-1.44-1.26
			c-0.72,0-1.31,0.28-1.83,0.66l-0.06-0.46c0.52-0.37,1.13-0.62,1.91-0.62c1.25,0,1.91,0.74,1.91,1.66c0,0.91-0.63,1.4-1.33,1.63
			c0.88,0.26,1.46,0.82,1.46,1.79C553.09,253.64,552.16,254.46,550.9,254.46z"/>
		<path class="st8" d="M555.72,254.33v-6.26l-1.49,0.63l-0.07-0.4l1.69-0.77h0.34v6.8H555.72z"/>
	</g>
	<text transform="matrix(1 0 0 1 557.3369 250.9969)" class="st8 st27 st28"> </text>
</g>
</svg>
