<?xml version="1.0" encoding="utf-8"?>
<!-- Generator: Adobe Illustrator 24.0.0, SVG Export Plug-In . SVG Version: 6.00 Build 0)  -->
<svg version="1.1" id="Layer_1" xmlns="http://www.w3.org/2000/svg" xmlns:xlink="http://www.w3.org/1999/xlink" x="0px" y="0px"
	 viewBox="0 0 595.28 841.89" style="enable-background:new 0 0 595.28 841.89;" xml:space="preserve">
<style type="text/css">
	.st0{fill:#FFFFFF;}
	.st1{fill:#F7C500;}
	.st2{fill:none;stroke:#FFFFFF;stroke-width:0.62;}
</style>
<g>
	<g>
		<path class="st0" d="M527.22,701.78c-27.37,1.27,2.56,21.72-29.65,32.99c-0.82-0.14-1.15,6.46-6.65,2.24
			c-4.82,5.51-0.8-7.83,2.29-12.26c-0.1,0.14,3.08-2.67-1.47-4.2c-8.9,8.39-2.34-17.49,6.65-10.87c1.51-1.95,4.66-3.08,2.91,3.17
			c0.53,0.71,3.94-6.15,5.2,0.84c0.26,0.1,0.64-0.12,0.28,0.63c3.59,2.28,3.4-0.68,7.25-4.97c3.23-0.19-3.93-6.72,13.31-7.57
			C527.3,701.79,527.26,701.8,527.22,701.78"/>
	</g>
	<g>
		<path class="st1" d="M487.35,606.79c0-4.79-3.88-8.67-8.67-8.67c-4.79,0-8.67,3.88-8.67,8.67s3.88,8.67,8.67,8.67
			C483.47,615.46,487.35,611.58,487.35,606.79"/>
		<path class="st2" d="M484.92,602.69l0.11-0.11l0.01-0.01l1.9-1.9l-2.5-2.5l-1.9,1.9l-0.01,0.01l-0.11,0.11
			c0,0-0.65,0.65-0.02,1.28l0.1,0.1l-4.49,4.49l1.04,1.04l4.49-4.49l0.1,0.1C483.64,602.71,484.27,603.34,484.92,602.69z
			 M478.36,610.85l-1.52-1.52l1.77-1.77l-1.06-1.06l-1.77,1.77l-1.52-1.52l-3.24,3.24c0,0-0.64,1.58-0.72,1.86
			c-0.08,0.29-0.44,0.87,0.2,1.51l1.24,1.24c0.64,0.64,1.22,0.29,1.51,0.2c0.29-0.08,1.86-0.72,1.86-0.72L478.36,610.85z"/>
	</g>
	<g>
		<path class="st1" d="M489.75,617.18v-3.23l6.32-6.32c1.22-1.25,1.84-2.12,1.84-3.34c0-1.25-0.87-1.95-2.36-1.95
			c-1.63,0-3.28,0.73-4.86,1.87l-0.54-3.85c1.57-1.06,3.5-1.82,6.08-1.82c3.77,0,6.1,1.98,6.1,5.26c0,2.5-1.25,4.12-3.5,6.24
			l-3.66,3.53h6.95l0.57,3.61H489.75z"/>
	</g>
	<g>
		<path class="st1" d="M504.23,607.74v-2.73h2.65v2.73H504.23z"/>
		<path class="st1" d="M510.29,602.33c0.69-0.46,1.39-0.7,2.25-0.7c1.32,0,2.58,0.85,2.58,2.86c0,2.1-1.58,3.43-3.63,3.43
			c-2.23,0-3.74-1.39-3.74-4.01c0-3.45,2.44-5.29,5.62-5.86l0.34,2.17C511.99,600.6,510.75,601.25,510.29,602.33z M510.23,603.96
			c0.01,1.5,0.57,2.02,1.25,2.02c0.66,0,1.08-0.5,1.08-1.3c0-0.8-0.38-1.13-1.06-1.13C511.09,603.54,510.67,603.69,510.23,603.96z"
			/>
		<path class="st1" d="M518.35,603.73c-1.33,0-2.38-0.95-2.38-2.79c0-1.82,1.06-2.79,2.38-2.79c1.33,0,2.37,0.95,2.37,2.77
			C520.72,602.77,519.67,603.73,518.35,603.73z M518.35,599.46c-0.49,0-0.76,0.49-0.76,1.48c0,0.97,0.28,1.46,0.76,1.46
			c0.49,0,0.74-0.49,0.74-1.47S518.83,599.46,518.35,599.46z M517.99,607.53l3.07-4.65l3.01-4.71l1.39,0.31l-3.08,4.68l-3,4.68
			L517.99,607.53z M525.09,607.85c-1.33,0-2.37-0.95-2.37-2.77c0-1.83,1.05-2.8,2.37-2.8c1.33,0,2.38,0.95,2.38,2.79
			C527.47,606.89,526.41,607.85,525.09,607.85z M525.09,603.61c-0.49,0-0.74,0.49-0.74,1.47s0.27,1.47,0.74,1.47
			c0.49,0,0.76-0.49,0.76-1.49C525.85,604.1,525.57,603.61,525.09,603.61z"/>
	</g>
	<g>
		<path class="st1" d="M492.59,628.79c-1.86,0-2.89-1.22-2.89-3.03c0-1.82,1.11-3.05,2.92-3.05c0.72,0,1.33,0.17,1.79,0.43
			l-0.2,1.27c-0.44-0.28-0.96-0.5-1.56-0.5c-1.01,0-1.5,0.75-1.5,1.84c0,1.11,0.51,1.88,1.52,1.88c0.32,0,0.55-0.07,0.79-0.19v-1.04
			h-1.02l-0.17-1.08h2.46v2.86C494.12,628.57,493.4,628.79,492.59,628.79z"/>
		<path class="st1" d="M498.81,628.74l-1.29-2.07h-0.37v2.01h-1.45v-5.86h2.05c1.42,0,2.25,0.65,2.25,1.85
			c0,0.82-0.41,1.37-1.1,1.67l1.42,2.16L498.81,628.74z M497.61,623.92h-0.47v1.71h0.45c0.63,0,0.99-0.31,0.99-0.87
			C498.58,624.21,498.24,623.92,497.61,623.92z"/>
		<path class="st1" d="M503.45,628.79c-1.68,0-2.79-1.22-2.79-3.03c0-1.82,1.1-3.05,2.8-3.05c1.7,0,2.8,1.22,2.8,3.03
			C506.26,627.55,505.16,628.79,503.45,628.79z M503.46,623.85c-0.84,0-1.34,0.74-1.34,1.9c0,1.17,0.5,1.9,1.34,1.9
			c0.85,0,1.34-0.74,1.34-1.9C504.8,624.59,504.31,623.85,503.46,623.85z"/>
		<path class="st1" d="M508.93,628.75c-0.79,0-1.45-0.17-2.05-0.44l0.21-1.24c0.6,0.32,1.28,0.54,1.86,0.54
			c0.42,0,0.71-0.18,0.71-0.53c0-0.33-0.17-0.48-1-0.8c-1.17-0.45-1.68-0.83-1.68-1.8c0-1.13,0.88-1.73,2.01-1.73
			c0.76,0,1.26,0.14,1.77,0.39l-0.22,1.22c-0.53-0.31-1.08-0.48-1.53-0.48c-0.44,0-0.65,0.19-0.65,0.46c0,0.3,0.16,0.44,0.89,0.72
			c1.28,0.47,1.79,0.91,1.79,1.84C511.03,628.19,510.1,628.75,508.93,628.75z"/>
		<path class="st1" d="M513.56,628.75c-0.79,0-1.45-0.17-2.05-0.44l0.21-1.24c0.6,0.32,1.28,0.54,1.86,0.54
			c0.42,0,0.71-0.18,0.71-0.53c0-0.33-0.17-0.48-1-0.8c-1.17-0.45-1.68-0.83-1.68-1.8c0-1.13,0.88-1.73,2.01-1.73
			c0.76,0,1.26,0.14,1.77,0.39l-0.22,1.22c-0.53-0.31-1.08-0.48-1.53-0.48c-0.44,0-0.65,0.19-0.65,0.46c0,0.3,0.16,0.44,0.89,0.72
			c1.28,0.47,1.79,0.91,1.79,1.84C515.66,628.19,514.72,628.75,513.56,628.75z"/>
	</g>
	<g>
		<path class="st1" d="M491.97,638.68h-2.06v-5.86h2.02c2.04,0,3.1,1.18,3.1,2.92S493.95,638.68,491.97,638.68z M491.89,633.95
			h-0.53v3.6h0.53c1.04,0,1.68-0.54,1.68-1.8C493.57,634.52,492.88,633.95,491.89,633.95z"/>
		<path class="st1" d="M498.48,638.79c-1.68,0-2.79-1.22-2.79-3.03c0-1.82,1.1-3.05,2.8-3.05c1.7,0,2.8,1.22,2.8,3.03
			C501.29,637.55,500.19,638.79,498.48,638.79z M498.49,633.85c-0.84,0-1.34,0.74-1.34,1.9c0,1.17,0.5,1.9,1.34,1.9
			c0.85,0,1.34-0.74,1.34-1.9C499.83,634.59,499.34,633.85,498.49,633.85z"/>
		<path class="st1" d="M507.34,638.68l-0.25-3.9l-1.11,3.91h-1.36l-1.11-3.91l-0.25,3.9h-1.27l0.42-5.86h1.88l1.14,4.04l1.15-4.04
			h1.83l0.42,5.86H507.34z"/>
		<path class="st1" d="M509.72,638.68v-5.86h3.66v1.17h-2.23v1.08h1.7l0.19,1.16h-1.89v1.27h2.3v1.18H509.72z"/>
		<path class="st1" d="M516.08,638.75c-0.79,0-1.45-0.17-2.05-0.44l0.21-1.24c0.6,0.32,1.28,0.54,1.86,0.54
			c0.42,0,0.71-0.18,0.71-0.53c0-0.33-0.17-0.48-1-0.8c-1.17-0.45-1.68-0.83-1.68-1.8c0-1.13,0.88-1.73,2.01-1.73
			c0.76,0,1.26,0.14,1.77,0.39l-0.22,1.22c-0.53-0.31-1.08-0.48-1.53-0.48c-0.44,0-0.65,0.19-0.65,0.46c0,0.3,0.16,0.44,0.89,0.72
			c1.28,0.47,1.79,0.91,1.79,1.84C518.18,638.19,517.25,638.75,516.08,638.75z"/>
		<path class="st1" d="M521.67,634.05v4.63h-1.46v-4.63h-1.66v-1.23h4.64l0.2,1.23H521.67z"/>
		<path class="st1" d="M524.08,638.68v-5.86h1.45v5.86H524.08z"/>
		<path class="st1" d="M529.27,638.79c-1.78,0-2.85-1.19-2.85-3.03c0-1.82,1.14-3.04,2.8-3.04c0.66,0,1.2,0.14,1.62,0.38l-0.2,1.31
			c-0.36-0.27-0.8-0.48-1.31-0.48c-0.88,0-1.46,0.67-1.46,1.82c0,1.17,0.65,1.82,1.54,1.82c0.48,0,0.89-0.16,1.33-0.41l0.19,1.19
			C530.46,638.62,529.92,638.79,529.27,638.79z"/>
	</g>
	<g>
		<path class="st1" d="M491.74,646.74h-0.37v1.95h-1.45v-5.86h1.89c1.43,0,2.3,0.64,2.3,1.91
			C494.1,646.06,493.16,646.74,491.74,646.74z M491.71,643.92h-0.37v1.72h0.34c0.65,0,1-0.28,1-0.88
			C492.69,644.2,492.36,643.92,491.71,643.92z"/>
		<path class="st1" d="M497.89,648.74l-1.29-2.07h-0.37v2.01h-1.45v-5.86h2.05c1.42,0,2.25,0.65,2.25,1.85
			c0,0.82-0.41,1.37-1.1,1.67l1.42,2.16L497.89,648.74z M496.69,643.92h-0.47v1.71h0.45c0.63,0,0.99-0.31,0.99-0.87
			C497.66,644.21,497.32,643.92,496.69,643.92z"/>
		<path class="st1" d="M502.53,648.79c-1.68,0-2.79-1.22-2.79-3.03c0-1.82,1.1-3.05,2.8-3.05c1.7,0,2.8,1.22,2.8,3.03
			C505.35,647.55,504.24,648.79,502.53,648.79z M502.54,643.85c-0.84,0-1.34,0.74-1.34,1.9c0,1.17,0.5,1.9,1.34,1.9
			c0.85,0,1.34-0.74,1.34-1.9C503.88,644.59,503.39,643.85,502.54,643.85z"/>
		<path class="st1" d="M508.26,648.68h-2.06v-5.86h2.02c2.04,0,3.1,1.18,3.1,2.92S510.24,648.68,508.26,648.68z M508.18,643.95
			h-0.53v3.6h0.53c1.04,0,1.68-0.54,1.68-1.8C509.87,644.52,509.18,643.95,508.18,643.95z"/>
		<path class="st1" d="M514.57,648.78c-1.44,0-2.44-0.77-2.44-2.41v-3.54h1.46v3.54c0,0.76,0.34,1.2,0.99,1.2
			c0.66,0,0.99-0.43,0.99-1.18v-3.55h1.46v3.54C517.04,647.99,515.99,648.78,514.57,648.78z"/>
		<path class="st1" d="M520.68,648.79c-1.78,0-2.85-1.19-2.85-3.03c0-1.82,1.14-3.04,2.8-3.04c0.66,0,1.2,0.14,1.62,0.38l-0.2,1.31
			c-0.36-0.27-0.8-0.48-1.31-0.48c-0.88,0-1.46,0.67-1.46,1.82c0,1.17,0.65,1.82,1.54,1.82c0.48,0,0.89-0.16,1.33-0.41l0.19,1.19
			C521.87,648.62,521.33,648.79,520.68,648.79z"/>
		<path class="st1" d="M525.92,644.05v4.63h-1.46v-4.63h-1.66v-1.23h4.64l0.2,1.23H525.92z"/>
	</g>
	<g>
		<path class="st1" d="M509,617.8c-1.29,0-2.13-0.94-2.13-2.32c0-1.39,0.84-2.33,2.15-2.33c1.3,0,2.14,0.94,2.14,2.32
			S510.3,617.8,509,617.8z M509,614.01c-0.64,0-1.03,0.57-1.03,1.46s0.38,1.46,1.03,1.46c0.65,0,1.03-0.57,1.03-1.46
			S509.65,614.01,509,614.01z"/>
		<path class="st1" d="M512.91,614.16v0.92h1.17l0.16,0.93h-1.33v1.71h-1.11v-4.49h2.68v0.93H512.91z"/>
		<path class="st1" d="M519.23,617.71l-1.77-2.68v2.68h-1.03v-4.49h1.08l1.65,2.51v-2.51h1.03v4.49H519.23z"/>
		<path class="st1" d="M522.3,613.21h1.22l1.56,4.37l-1.12,0.18l-0.33-0.98h-1.56l-0.3,0.93h-1.08L522.3,613.21z M522.34,615.91
			h1.01l-0.5-1.56L522.34,615.91z"/>
		<path class="st1" d="M527.18,614.17v3.54h-1.12v-3.54h-1.27v-0.94h3.55l0.16,0.94H527.18z"/>
		<path class="st1" d="M529.03,617.71v-4.49h1.11v4.49H529.03z"/>
		<path class="st1" d="M532.96,617.8c-1.29,0-2.13-0.94-2.13-2.32c0-1.39,0.84-2.33,2.15-2.33c1.3,0,2.14,0.94,2.14,2.32
			S534.26,617.8,532.96,617.8z M532.96,614.01c-0.64,0-1.03,0.57-1.03,1.46s0.38,1.46,1.03,1.46c0.65,0,1.03-0.57,1.03-1.46
			S533.61,614.01,532.96,614.01z"/>
		<path class="st1" d="M538.56,617.71l-1.77-2.68v2.68h-1.03v-4.49h1.08l1.65,2.51v-2.51h1.03v4.49H538.56z"/>
		<path class="st1" d="M541.63,613.21h1.22l1.56,4.37l-1.12,0.18l-0.33-0.98h-1.56l-0.3,0.93h-1.08L541.63,613.21z M541.67,615.91
			h1.01l-0.5-1.56L541.67,615.91z"/>
		<path class="st1" d="M544.91,617.71v-4.49h1.11v3.52h1.38l0.15,0.96H544.91z"/>
	</g>
	<g>
		<path class="st1" d="M492.01,656.9v1.65h-1.12v-1.64l-1.55-2.73l1.18-0.16l0.98,1.87l0.96-1.82h1.16L492.01,656.9z"/>
		<path class="st1" d="M494.05,658.55v-4.49h2.8v0.9h-1.7v0.83h1.3l0.14,0.89h-1.44v0.97h1.76v0.9H494.05z"/>
		<path class="st1" d="M498.81,654.05h1.22l1.56,4.37l-1.12,0.18l-0.33-0.98h-1.56l-0.3,0.93h-1.08L498.81,654.05z M498.85,656.75
			h1.01l-0.5-1.56L498.85,656.75z"/>
		<path class="st1" d="M504.46,658.6l-0.99-1.59h-0.28v1.54h-1.11v-4.49h1.57c1.08,0,1.72,0.49,1.72,1.42
			c0,0.62-0.31,1.05-0.84,1.27l1.09,1.65L504.46,658.6z M503.54,654.91h-0.36v1.31h0.34c0.48,0,0.75-0.23,0.75-0.66
			C504.29,655.13,504.03,654.91,503.54,654.91z"/>
		<path class="st1" d="M507.45,658.55v-4.49h2.8v0.9h-1.7v0.83h1.3l0.14,0.89h-1.44v0.97h1.76v0.9H507.45z"/>
		<path class="st1" d="M513.73,658.55l-1.77-2.68v2.68h-1.03v-4.49h1.08l1.65,2.51v-2.51h1.03v4.49H513.73z"/>
		<path class="st1" d="M517.08,658.55h-1.57v-4.49h1.55c1.56,0,2.37,0.9,2.37,2.24C519.43,657.64,518.6,658.55,517.08,658.55z
			 M517.03,654.93h-0.4v2.76h0.4c0.79,0,1.29-0.42,1.29-1.38C518.31,655.37,517.79,654.93,517.03,654.93z"/>
	</g>
	<g>
		<path class="st1" d="M493.65,666.55l-0.19-2.98l-0.85,2.99h-1.04l-0.85-2.99l-0.2,2.98h-0.97l0.33-4.49h1.44l0.87,3.09l0.88-3.09
			h1.4l0.32,4.49H493.65z"/>
		<path class="st1" d="M496.76,662.05h1.22l1.56,4.37l-1.12,0.18l-0.33-0.98h-1.56l-0.3,0.93h-1.08L496.76,662.05z M496.8,664.75
			h1.01l-0.5-1.56L496.8,664.75z"/>
		<path class="st1" d="M502.41,666.6l-0.99-1.59h-0.28v1.54h-1.11v-4.49h1.57c1.09,0,1.72,0.49,1.72,1.42
			c0,0.62-0.31,1.05-0.84,1.27l1.09,1.65L502.41,666.6z M501.49,662.91h-0.36v1.31h0.34c0.48,0,0.75-0.23,0.75-0.66
			C502.23,663.13,501.97,662.91,501.49,662.91z"/>
		<path class="st1" d="M506,666.63c-1.36,0-2.18-0.91-2.18-2.31c0-1.39,0.87-2.33,2.14-2.33c0.51,0,0.92,0.11,1.24,0.29l-0.16,1
			c-0.27-0.21-0.61-0.36-1-0.36c-0.68,0-1.12,0.51-1.12,1.39c0,0.9,0.5,1.39,1.18,1.39c0.36,0,0.68-0.12,1.02-0.31l0.14,0.91
			C506.91,666.5,506.49,666.63,506,666.63z"/>
		<path class="st1" d="M510.58,666.55v-1.83h-1.55v1.83h-1.11v-4.49h1.11v1.68h1.55v-1.68h1.12v4.49H510.58z"/>
		<path class="st1" d="M513.72,666.55v-0.77l1.51-1.51c0.29-0.3,0.44-0.51,0.44-0.8c0-0.3-0.21-0.47-0.57-0.47
			c-0.39,0-0.79,0.18-1.16,0.45l-0.13-0.92c0.38-0.25,0.84-0.44,1.46-0.44c0.9,0,1.46,0.47,1.46,1.26c0,0.6-0.3,0.99-0.84,1.5
			l-0.88,0.85h1.66l0.14,0.86H513.72z"/>
		<path class="st1" d="M519.11,666.64c-1.1,0-1.83-0.81-1.83-2.28s0.73-2.28,1.83-2.28c1.09,0,1.82,0.81,1.82,2.28
			S520.21,666.64,519.11,666.64z M519.11,662.9c-0.51,0-0.75,0.52-0.75,1.46c0,0.94,0.25,1.46,0.75,1.46c0.51,0,0.75-0.52,0.75-1.46
			C519.86,663.42,519.62,662.9,519.11,662.9z"/>
		<path class="st1" d="M522.24,666.55v-3.38l-0.88,0.34l-0.12-0.85l1.13-0.52h0.97v4.4H522.24z"/>
		<path class="st1" d="M524.79,664.26c-0.4-0.24-0.64-0.55-0.64-0.99c0-0.75,0.67-1.2,1.57-1.2c0.94,0,1.52,0.47,1.52,1.13
			c0,0.42-0.25,0.76-0.66,1.02c0.53,0.27,0.79,0.58,0.79,1.12c0,0.75-0.64,1.29-1.68,1.29c-1.11,0-1.68-0.57-1.68-1.24
			C524,664.93,524.3,664.54,524.79,664.26z M525.7,665.9c0.36,0,0.65-0.21,0.65-0.55c0-0.34-0.21-0.49-0.89-0.77
			c-0.28,0.19-0.47,0.42-0.47,0.72C525,665.67,525.3,665.9,525.7,665.9z M525.87,663.91c0.25-0.18,0.4-0.38,0.4-0.65
			c0-0.3-0.23-0.49-0.59-0.49c-0.34,0-0.56,0.21-0.56,0.48C525.12,663.53,525.31,663.69,525.87,663.91z"/>
	</g>
	<g>
		<path class="st1" d="M528.25,664.39v-1.97l-0.51,0.2l-0.07-0.49l0.65-0.3h0.56v2.56H528.25z"/>
		<path class="st1" d="M529.73,663.06c-0.24-0.14-0.38-0.32-0.38-0.58c0-0.44,0.39-0.7,0.92-0.7c0.54,0,0.88,0.28,0.88,0.66
			c0,0.25-0.15,0.44-0.39,0.59c0.31,0.16,0.46,0.34,0.46,0.65c0,0.44-0.37,0.75-0.98,0.75c-0.64,0-0.98-0.33-0.98-0.72
			C529.28,663.45,529.45,663.22,529.73,663.06z M530.27,664.01c0.21,0,0.38-0.12,0.38-0.32c0-0.2-0.12-0.29-0.52-0.45
			c-0.16,0.11-0.27,0.25-0.27,0.42C529.86,663.87,530.03,664.01,530.27,664.01z M530.36,662.85c0.15-0.11,0.23-0.22,0.23-0.38
			c0-0.17-0.14-0.29-0.34-0.29c-0.2,0-0.33,0.12-0.33,0.28C529.93,662.63,530.04,662.72,530.36,662.85z"/>
	</g>
	<g>
		<path class="st1" d="M500.22,735.75v2.93h-3.41v-2.93h-6.79v-2.26l6.18-9.5h4.01v9.31h2.06v2.45H500.22z M496.82,727.48
			l-3.75,5.82h3.75V727.48z"/>
	</g>
	<g>
		<path class="st1" d="M503.17,731.13v-2.18h2.12v2.18H503.17z"/>
		<path class="st1" d="M507.21,731.13v-5.51l-1.49,0.59l-0.25-1.74l1.98-0.92h2.02v7.57H507.21z"/>
		<path class="st1" d="M512.41,727.93c-1.06,0-1.9-0.76-1.9-2.23c0-1.46,0.85-2.23,1.9-2.23c1.06,0,1.89,0.76,1.89,2.22
			C514.3,727.16,513.46,727.93,512.41,727.93z M512.41,724.51c-0.39,0-0.6,0.39-0.6,1.19c0,0.77,0.22,1.16,0.6,1.16
			c0.39,0,0.59-0.39,0.59-1.18S512.79,724.51,512.41,724.51z M512.12,730.96l2.45-3.72l2.41-3.76l1.11,0.25l-2.46,3.74l-2.4,3.74
			L512.12,730.96z M517.8,731.22c-1.06,0-1.89-0.76-1.89-2.22c0-1.47,0.84-2.24,1.89-2.24c1.06,0,1.9,0.76,1.9,2.23
			C519.7,730.45,518.85,731.22,517.8,731.22z M517.8,727.83c-0.39,0-0.59,0.39-0.59,1.18s0.21,1.18,0.59,1.18
			c0.39,0,0.6-0.39,0.6-1.19C518.4,728.22,518.18,727.83,517.8,727.83z"/>
	</g>
	<g>
		<path class="st1" d="M509.83,738.49l-1.77-2.68v2.68h-1.03v-4.49h1.08l1.65,2.51v-2.51h1.03v4.49H509.83z"/>
		<path class="st1" d="M512.9,733.99h1.22l1.56,4.37l-1.12,0.18l-0.33-0.98h-1.56l-0.3,0.93h-1.08L512.9,733.99z M512.93,736.69
			h1.01l-0.5-1.56L512.93,736.69z"/>
		<path class="st1" d="M517.77,734.95v3.54h-1.12v-3.54h-1.27v-0.94h3.55l0.16,0.94H517.77z"/>
		<path class="st1" d="M519.62,738.49v-4.49h1.11v4.49H519.62z"/>
		<path class="st1" d="M523.54,738.58c-1.29,0-2.13-0.94-2.13-2.32c0-1.39,0.84-2.33,2.15-2.33c1.3,0,2.14,0.94,2.14,2.32
			S524.85,738.58,523.54,738.58z M523.55,734.8c-0.64,0-1.03,0.57-1.03,1.46c0,0.89,0.38,1.46,1.03,1.46c0.65,0,1.03-0.57,1.03-1.46
			C524.58,735.36,524.2,734.8,523.55,734.8z"/>
		<path class="st1" d="M529.15,738.49l-1.77-2.68v2.68h-1.03v-4.49h1.08l1.65,2.51v-2.51h1.03v4.49H529.15z"/>
		<path class="st1" d="M532.22,733.99h1.22l1.56,4.37l-1.12,0.18l-0.33-0.98h-1.56l-0.3,0.93h-1.08L532.22,733.99z M532.26,736.69
			h1.01l-0.5-1.56L532.26,736.69z"/>
		<path class="st1" d="M535.5,738.49v-4.49h1.11v3.52h1.38l0.15,0.96H535.5z"/>
		<path class="st1" d="M542.39,738.54l-0.99-1.59h-0.28v1.54h-1.11v-4.49h1.57c1.09,0,1.72,0.49,1.72,1.42
			c0,0.62-0.31,1.05-0.84,1.27l1.09,1.65L542.39,738.54z M541.47,734.85h-0.36v1.31h0.34c0.48,0,0.75-0.23,0.75-0.66
			C542.21,735.08,541.95,734.85,541.47,734.85z"/>
		<path class="st1" d="M545.3,733.99h1.22l1.56,4.37l-1.12,0.18l-0.33-0.98h-1.56l-0.3,0.93h-1.08L545.3,733.99z M545.34,736.69
			h1.01l-0.5-1.56L545.34,736.69z"/>
		<path class="st1" d="M550.18,734.95v3.54h-1.12v-3.54h-1.27v-0.94h3.55l0.16,0.94H550.18z"/>
		<path class="st1" d="M552,738.49v-4.49h2.8v0.9h-1.7v0.83h1.3l0.14,0.89h-1.44v0.97h1.76v0.9H552z"/>
	</g>
	<g>
		<path class="st1" d="M493.9,708.78c-1.44,0-2.44-0.77-2.44-2.41v-3.54h1.46v3.54c0,0.76,0.34,1.2,0.99,1.2
			c0.66,0,0.99-0.43,0.99-1.18v-3.55h1.46v3.54C496.37,707.99,495.32,708.78,493.9,708.78z"/>
		<path class="st1" d="M501.04,708.69l-2.31-3.51v3.51h-1.35v-5.86h1.41l2.16,3.28v-3.28h1.35v5.86H501.04z"/>
		<path class="st1" d="M503.37,708.69v-5.86h3.66V704h-2.23v1.08h1.7l0.19,1.16h-1.89v1.27h2.3v1.18H503.37z"/>
		<path class="st1" d="M513.11,708.69l-0.25-3.9l-1.11,3.91h-1.36l-1.11-3.91l-0.25,3.9h-1.27l0.42-5.86h1.88l1.14,4.04l1.15-4.04
			h1.83l0.42,5.86H513.11z"/>
		<path class="st1" d="M517.32,706.74h-0.37v1.95h-1.45v-5.86h1.89c1.43,0,2.3,0.64,2.3,1.91
			C519.68,706.06,518.74,706.74,517.32,706.74z M517.29,703.92h-0.37v1.72h0.34c0.65,0,1-0.28,1-0.88
			C518.27,704.2,517.94,703.92,517.29,703.92z"/>
		<path class="st1" d="M520.37,708.69v-5.86h1.45v4.61h1.8l0.2,1.26H520.37z"/>
		<path class="st1" d="M526.75,708.8c-1.68,0-2.79-1.22-2.79-3.03c0-1.82,1.1-3.05,2.8-3.05c1.7,0,2.8,1.22,2.8,3.03
			C529.57,707.56,528.46,708.8,526.75,708.8z M526.76,703.85c-0.84,0-1.34,0.74-1.34,1.9c0,1.17,0.5,1.9,1.34,1.9
			c0.85,0,1.34-0.74,1.34-1.9C528.1,704.59,527.61,703.85,526.76,703.85z"/>
		<path class="st1" d="M533.08,706.53v2.16h-1.46v-2.14l-2.02-3.57l1.55-0.21l1.28,2.44l1.25-2.38h1.52L533.08,706.53z"/>
		<path class="st1" d="M540.74,708.69l-0.25-3.9l-1.11,3.91h-1.36l-1.11-3.91l-0.25,3.9h-1.27l0.42-5.86h1.88l1.14,4.04l1.15-4.04
			h1.83l0.42,5.86H540.74z"/>
		<path class="st1" d="M543.12,708.69v-5.86h3.66V704h-2.23v1.08h1.7l0.19,1.16h-1.89v1.27h2.3v1.18H543.12z"/>
		<path class="st1" d="M551.33,708.69l-2.31-3.51v3.51h-1.35v-5.86h1.41l2.16,3.28v-3.28h1.35v5.86H551.33z"/>
		<path class="st1" d="M556.46,704.06v4.63H555v-4.63h-1.66v-1.23h4.64l0.2,1.23H556.46z"/>
	</g>
	<g>
		<path class="st1" d="M494.63,718.75l-1.29-2.07h-0.37v2.01h-1.45v-5.86h2.05c1.42,0,2.25,0.65,2.25,1.85
			c0,0.82-0.41,1.37-1.1,1.67l1.42,2.16L494.63,718.75z M493.43,713.92h-0.47v1.71h0.45c0.63,0,0.99-0.31,0.99-0.87
			C494.4,714.22,494.06,713.92,493.43,713.92z"/>
		<path class="st1" d="M498.45,712.8h1.6l2.04,5.71l-1.46,0.24l-0.43-1.28h-2.04l-0.39,1.22h-1.42L498.45,712.8z M498.5,716.33h1.33
			l-0.65-2.04L498.5,716.33z"/>
		<path class="st1" d="M504.83,714.06v4.63h-1.46v-4.63h-1.66v-1.23h4.64l0.2,1.23H504.83z"/>
		<path class="st1" d="M507.21,718.69v-5.86h3.66V714h-2.23v1.08h1.7l0.19,1.16h-1.89v1.27h2.3v1.18H507.21z"/>
	</g>
	<g>
		<path class="st1" d="M494.67,686.48c1.33-0.87,2.71-1.33,4.42-1.33c2.85,0,5.21,1.79,5.21,5.53c0,3.91-2.96,6.46-6.81,6.46
			c-4.18,0-7.05-2.69-7.05-7.76c0-6.57,4.53-10.15,10.61-11.31l0.54,3.58C498.14,682.44,495.57,683.87,494.67,686.48z
			 M494.51,689.41c0.03,3.09,1.3,4.45,2.98,4.45c1.57,0,2.6-1.11,2.6-2.88s-0.87-2.63-2.58-2.63
			C496.46,688.35,495.49,688.76,494.51,689.41z"/>
	</g>
	<g>
		<path class="st1" d="M507.99,683.35c-1.33,0-2.38-0.95-2.38-2.79c0-1.82,1.06-2.79,2.38-2.79c1.33,0,2.37,0.95,2.37,2.77
			C510.35,682.38,509.3,683.35,507.99,683.35z M507.99,679.07c-0.49,0-0.76,0.49-0.76,1.48c0,0.97,0.28,1.46,0.76,1.46
			c0.49,0,0.74-0.49,0.74-1.47S508.46,679.07,507.99,679.07z M507.62,687.14l3.07-4.65l3.01-4.71l1.39,0.31l-3.08,4.68l-3,4.68
			L507.62,687.14z M514.72,687.47c-1.33,0-2.37-0.95-2.37-2.77c0-1.83,1.05-2.8,2.37-2.8c1.33,0,2.38,0.95,2.38,2.79
			C517.1,686.5,516.04,687.47,514.72,687.47z M514.72,683.22c-0.49,0-0.74,0.49-0.74,1.47s0.27,1.47,0.74,1.47
			c0.49,0,0.76-0.49,0.76-1.49C515.48,683.71,515.2,683.22,514.72,683.22z"/>
	</g>
	<g>
		<path class="st1" d="M509.4,695.64l-0.99-1.59h-0.28v1.54h-1.11v-4.49h1.57c1.08,0,1.72,0.49,1.72,1.42
			c0,0.62-0.31,1.05-0.84,1.27l1.09,1.65L509.4,695.64z M508.48,691.94h-0.36v1.31h0.34c0.48,0,0.75-0.23,0.75-0.66
			C509.22,692.17,508.96,691.94,508.48,691.94z"/>
		<path class="st1" d="M511.03,695.59v-4.49h2.8v0.9h-1.7v0.83h1.3l0.14,0.89h-1.44v0.97h1.76v0.9H511.03z"/>
		<path class="st1" d="M516.5,695.67c-1.42,0-2.21-0.94-2.21-2.32c0-1.39,0.85-2.33,2.24-2.33c0.55,0,1.01,0.13,1.37,0.33
			l-0.15,0.97c-0.34-0.21-0.73-0.38-1.2-0.38c-0.77,0-1.15,0.57-1.15,1.41c0,0.84,0.39,1.44,1.16,1.44c0.25,0,0.42-0.05,0.6-0.14
			v-0.8h-0.78l-0.13-0.83h1.88v2.18C517.67,695.5,517.12,695.67,516.5,695.67z"/>
		<path class="st1" d="M518.92,695.59v-4.49h1.11v4.49H518.92z"/>
		<path class="st1" d="M522.84,695.67c-1.29,0-2.13-0.94-2.13-2.32c0-1.39,0.84-2.33,2.14-2.33c1.3,0,2.14,0.94,2.14,2.32
			S524.15,695.67,522.84,695.67z M522.85,691.89c-0.64,0-1.03,0.57-1.03,1.46s0.38,1.46,1.03,1.46c0.65,0,1.03-0.57,1.03-1.46
			S523.5,691.89,522.85,691.89z"/>
		<path class="st1" d="M528.45,695.59l-1.77-2.68v2.68h-1.03v-4.49h1.08l1.65,2.51v-2.51h1.03v4.49H528.45z"/>
		<path class="st1" d="M531.52,691.08h1.22l1.56,4.37l-1.12,0.18l-0.33-0.98h-1.56l-0.3,0.93h-1.08L531.52,691.08z M531.56,693.79
			h1.01l-0.5-1.56L531.56,693.79z"/>
		<path class="st1" d="M534.79,695.59v-4.49h1.11v3.52h1.38l0.15,0.96H534.79z"/>
	</g>
	<g>
		<path class="st1" d="M492.01,746.24v1.65h-1.12v-1.64l-1.55-2.73l1.18-0.16l0.98,1.87l0.96-1.82h1.16L492.01,746.24z"/>
		<path class="st1" d="M494.05,747.9v-4.49h2.8v0.9h-1.7v0.83h1.3l0.14,0.89h-1.44v0.97h1.76v0.9H494.05z"/>
		<path class="st1" d="M498.81,743.39h1.22l1.56,4.37l-1.12,0.18l-0.33-0.98h-1.56l-0.3,0.93h-1.08L498.81,743.39z M498.85,746.1
			h1.01l-0.5-1.56L498.85,746.1z"/>
		<path class="st1" d="M504.46,747.94l-0.99-1.59h-0.28v1.54h-1.11v-4.49h1.57c1.08,0,1.72,0.49,1.72,1.42
			c0,0.62-0.31,1.05-0.84,1.27l1.09,1.65L504.46,747.94z M503.54,744.25h-0.36v1.31h0.34c0.48,0,0.75-0.23,0.75-0.66
			C504.29,744.48,504.03,744.25,503.54,744.25z"/>
		<path class="st1" d="M507.45,747.9v-4.49h2.8v0.9h-1.7v0.83h1.3l0.14,0.89h-1.44v0.97h1.76v0.9H507.45z"/>
		<path class="st1" d="M513.73,747.9l-1.77-2.68v2.68h-1.03v-4.49h1.08l1.65,2.51v-2.51h1.03v4.49H513.73z"/>
		<path class="st1" d="M517.08,747.9h-1.57v-4.49h1.55c1.56,0,2.37,0.9,2.37,2.24C519.43,746.98,518.6,747.9,517.08,747.9z
			 M517.03,744.27h-0.4v2.76h0.4c0.79,0,1.29-0.42,1.29-1.38C518.31,744.71,517.79,744.27,517.03,744.27z"/>
	</g>
	<g>
		<path class="st1" d="M490.16,755.94c-0.25,0-0.5-0.03-0.62-0.06l-0.15-0.94c0.14,0.04,0.28,0.07,0.53,0.07
			c0.39,0,0.62-0.16,0.62-0.66v-2.94h1.12v3.12C491.66,755.55,491.02,755.94,490.16,755.94z"/>
		<path class="st1" d="M494.26,755.97c-1.1,0-1.87-0.59-1.87-1.85v-2.71h1.12v2.7c0,0.58,0.26,0.92,0.76,0.92
			c0.51,0,0.76-0.33,0.76-0.9v-2.72h1.12v2.7C496.15,755.36,495.34,755.97,494.26,755.97z"/>
		<path class="st1" d="M499.72,755.9l-1.77-2.68v2.68h-1.03v-4.49h1.08l1.65,2.51v-2.51h1.03v4.49H499.72z"/>
		<path class="st1" d="M501.5,755.9v-4.49h2.8v0.9h-1.7v0.83h1.3l0.14,0.89h-1.44v0.97h1.76v0.9H501.5z"/>
		<path class="st1" d="M506.18,755.9v-0.77l1.51-1.51c0.29-0.3,0.44-0.51,0.44-0.8c0-0.3-0.21-0.47-0.57-0.47
			c-0.39,0-0.79,0.18-1.16,0.45l-0.13-0.92c0.38-0.25,0.84-0.44,1.46-0.44c0.9,0,1.46,0.47,1.46,1.26c0,0.6-0.3,0.99-0.84,1.5
			l-0.88,0.85h1.66l0.14,0.86H506.18z"/>
		<path class="st1" d="M511.58,755.98c-1.1,0-1.83-0.81-1.83-2.28s0.73-2.28,1.83-2.28c1.09,0,1.82,0.81,1.82,2.28
			S512.67,755.98,511.58,755.98z M511.58,752.24c-0.51,0-0.75,0.52-0.75,1.46c0,0.94,0.25,1.46,0.75,1.46s0.75-0.52,0.75-1.46
			C512.33,752.76,512.09,752.24,511.58,752.24z"/>
		<path class="st1" d="M514.71,755.9v-3.38l-0.88,0.34l-0.12-0.85l1.13-0.52h0.97v4.4H514.71z"/>
		<path class="st1" d="M518.73,754.04c-0.32,0.2-0.64,0.31-1.01,0.31c-0.73,0-1.27-0.44-1.27-1.36c0-0.97,0.7-1.57,1.63-1.57
			c1,0,1.69,0.64,1.69,1.86c0,1.58-1.1,2.44-2.6,2.71l-0.12-0.86C517.89,754.97,518.51,754.64,518.73,754.04z M518.79,753.34v-0.01
			c0-0.79-0.31-1.13-0.72-1.13c-0.37,0-0.62,0.26-0.62,0.71c0,0.45,0.21,0.66,0.62,0.66C518.31,753.58,518.55,753.5,518.79,753.34z"
			/>
	</g>
	<g>
		<path class="st1" d="M520.64,753.73v-1.97l-0.51,0.2l-0.07-0.49l0.65-0.3h0.56v2.56H520.64z"/>
		<path class="st1" d="M522.26,752.29c0.19-0.12,0.38-0.19,0.62-0.19c0.4,0,0.73,0.25,0.73,0.77c0,0.54-0.41,0.9-0.95,0.9
			c-0.58,0-0.98-0.37-0.98-1.08c0-0.92,0.63-1.42,1.48-1.58l0.08,0.5C522.74,751.73,522.38,751.93,522.26,752.29z M522.24,752.7
			c0,0.43,0.18,0.62,0.42,0.62c0.22,0,0.36-0.16,0.36-0.4s-0.12-0.37-0.36-0.37C522.51,752.56,522.37,752.61,522.24,752.7z"/>
	</g>
</g>
</svg>
