<?xml version="1.0" encoding="utf-8"?>
<!-- Generator: Adobe Illustrator 24.0.0, SVG Export Plug-In . SVG Version: 6.00 Build 0)  -->
<svg version="1.1" id="Layer_1" xmlns="http://www.w3.org/2000/svg" xmlns:xlink="http://www.w3.org/1999/xlink" x="0px" y="0px"
	 viewBox="0 0 595.28 841.89" style="enable-background:new 0 0 595.28 841.89;" xml:space="preserve">
<style type="text/css">
	.st0{fill:#003F65;}
	.st1{font-family:'Whitney-Bold';}
	.st2{font-size:10px;}
	.st3{fill:#95806C;}
	.st4{fill:#8AB5E1;}
	.st5{font-family:'Whitney-Medium';}
	.st6{fill:none;stroke:#003F65;stroke-width:0.972;stroke-linecap:round;stroke-miterlimit:10;}
	.st7{fill:none;stroke:#95806C;stroke-width:1.944;stroke-linecap:round;}
	.st8{fill:none;stroke:#8AB5E1;stroke-width:1.944;stroke-linecap:round;}
	.st9{fill:none;stroke:#003F65;stroke-width:1.944;stroke-linecap:round;}
	.st10{fill:none;stroke:#8AB5E1;stroke-width:0.972;}
	.st11{fill:none;stroke:#8AB5E1;stroke-width:0.972;stroke-linecap:round;stroke-linejoin:round;}
	.st12{fill:none;stroke:#8AB5E1;stroke-width:0.972;stroke-linecap:round;}
	.st13{fill:none;stroke:#95806C;stroke-width:0.8;}
	.st14{fill:none;stroke:#95806C;stroke-width:0.8;stroke-linecap:round;}
	.st15{filter:url(#Adobe_OpacityMaskFilter);}
	.st16{fill:url(#SVGID_2_);}
	.st17{mask:url(#SVGID_1_);}
	.st18{clip-path:url(#SVGID_4_);fill:#FFFFFF;}
	.st19{fill:none;stroke:#8AB5E1;stroke-width:0.8;stroke-miterlimit:10;}
</style>
<g>
	<g>
		<path class="st0" d="M81.92,800.88l-0.3-4.59l-1.31,4.6h-1.6l-1.31-4.6l-0.3,4.59h-1.49l0.5-6.9h2.21l1.34,4.75l1.35-4.75h2.15
			l0.5,6.9H81.92z"/>
		<path class="st0" d="M87.75,801.01c-1.98,0-3.28-1.44-3.28-3.57c0-2.14,1.3-3.59,3.3-3.59c2,0,3.29,1.44,3.29,3.57
			S89.76,801.01,87.75,801.01z M87.76,795.2c-0.99,0-1.58,0.87-1.58,2.24s0.59,2.24,1.58,2.24c1,0,1.58-0.87,1.58-2.24
			S88.76,795.2,87.76,795.2z"/>
		<path class="st0" d="M94.49,800.88h-2.42v-6.9h2.38c2.4,0,3.65,1.39,3.65,3.44S96.82,800.88,94.49,800.88z M94.4,795.32h-0.62
			v4.24h0.62c1.22,0,1.98-0.64,1.98-2.12C96.38,795.99,95.57,795.32,94.4,795.32z"/>
		<path class="st0" d="M99.12,800.88v-6.9h4.3v1.38h-2.62v1.27h2l0.22,1.37h-2.22v1.49h2.71v1.39H99.12z"/>
		<path class="st0" d="M108.69,800.96c-0.93,0-1.71-0.2-2.41-0.52l0.25-1.46c0.71,0.38,1.5,0.64,2.19,0.64
			c0.49,0,0.83-0.21,0.83-0.62c0-0.39-0.2-0.57-1.17-0.94c-1.38-0.53-1.98-0.98-1.98-2.12c0-1.33,1.04-2.04,2.36-2.04
			c0.9,0,1.48,0.17,2.08,0.46l-0.26,1.44c-0.62-0.36-1.27-0.56-1.8-0.56c-0.52,0-0.77,0.22-0.77,0.54c0,0.35,0.19,0.52,1.05,0.85
			c1.51,0.55,2.1,1.07,2.1,2.17C111.16,800.3,110.06,800.96,108.69,800.96z"/>
		<path class="st0" d="M116.19,800.88v-2.82h-2.39v2.82h-1.71v-6.9h1.71v2.58h2.39v-2.58h1.72v6.9H116.19z"/>
		<path class="st0" d="M121.14,793.96h1.88l2.4,6.72l-1.72,0.28l-0.51-1.5h-2.4l-0.46,1.43h-1.67L121.14,793.96z M121.2,798.11h1.56
			l-0.77-2.4L121.2,798.11z"/>
		<path class="st0" d="M129.83,800.95l-1.52-2.44h-0.43v2.37h-1.7v-6.9h2.41c1.67,0,2.65,0.76,2.65,2.18c0,0.96-0.48,1.61-1.3,1.96
			l1.67,2.54L129.83,800.95z M128.42,795.28h-0.55v2.01h0.53c0.74,0,1.16-0.36,1.16-1.02C129.56,795.63,129.16,795.28,128.42,795.28
			z"/>
		<path class="st0" d="M132.34,800.88v-6.9h4.3v1.38h-2.62v1.27h2l0.22,1.37h-2.22v1.49h2.71v1.39H132.34z"/>
	</g>
	<text transform="matrix(1 0 0 1 139.1494 800.8832)" class="st0 st1 st2"> </text>
	<g>
		<path class="st0" d="M44.55,813.82c-1.31-1.02-2.28-2.21-2.28-4.04c0-1.96,1.08-3.28,2.98-4.16l0.15,1.02
			c-0.95,0.82-1.44,1.77-1.44,3.12c0,1.47,0.54,2.52,1.75,3.79L44.55,813.82z"/>
		<path class="st0" d="M47.1,812.95c-0.39,0-0.77-0.04-0.95-0.09l-0.23-1.44c0.22,0.06,0.43,0.11,0.81,0.11
			c0.6,0,0.96-0.25,0.96-1.02v-4.53h1.72v4.8C49.41,812.35,48.42,812.95,47.1,812.95z"/>
		<path class="st0" d="M53.64,813.01c-1.98,0-3.28-1.44-3.28-3.57c0-2.14,1.3-3.59,3.3-3.59c2,0,3.29,1.44,3.29,3.57
			S55.65,813.01,53.64,813.01z M53.65,807.2c-0.99,0-1.58,0.87-1.58,2.24s0.59,2.24,1.58,2.24c1,0,1.58-0.87,1.58-2.24
			S54.65,807.2,53.65,807.2z"/>
		<path class="st0" d="M60.75,812.99c-1.69,0-2.87-0.91-2.87-2.84v-4.17h1.72v4.16c0,0.89,0.4,1.41,1.17,1.41
			c0.78,0,1.17-0.51,1.17-1.39v-4.18h1.72v4.16C63.66,812.06,62.42,812.99,60.75,812.99z"/>
		<path class="st0" d="M68.49,812.95l-1.52-2.44h-0.43v2.37h-1.7v-6.9h2.41c1.67,0,2.65,0.76,2.65,2.18c0,0.96-0.48,1.61-1.3,1.96
			l1.67,2.54L68.49,812.95z M67.08,807.28h-0.55v2.01h0.53c0.74,0,1.16-0.36,1.16-1.02C68.22,807.63,67.82,807.28,67.08,807.28z"/>
		<path class="st0" d="M75.31,812.88l-2.72-4.13v4.13h-1.59v-6.9h1.66l2.54,3.86v-3.86h1.59v6.9H75.31z"/>
		<path class="st0" d="M78.06,812.88v-6.9h4.3v1.38h-2.62v1.27h2l0.22,1.37h-2.22v1.49h2.71v1.39H78.06z"/>
		<path class="st0" d="M86.99,810.34v2.54h-1.72v-2.52l-2.38-4.2l1.82-0.25l1.5,2.87l1.47-2.8h1.79L86.99,810.34z"/>
		<path class="st0" d="M95.5,807.44v5.45h-1.72v-5.45h-1.95v-1.45h5.46l0.24,1.45H95.5z"/>
		<path class="st0" d="M101.01,813.01c-1.98,0-3.28-1.44-3.28-3.57c0-2.14,1.3-3.59,3.3-3.59c2,0,3.29,1.44,3.29,3.57
			S103.02,813.01,101.01,813.01z M101.02,807.2c-0.99,0-1.58,0.87-1.58,2.24s0.59,2.24,1.58,2.24c1,0,1.58-0.87,1.58-2.24
			S102.02,807.2,101.02,807.2z"/>
		<path class="st0" d="M114.63,812.88h-1.73l-1.19-4.45l-1.19,4.45h-1.72l-1.82-6.68l1.85-0.29l1.04,4.39l1.12-4.32h1.72l1.12,4.32
			l0.99-4.32h1.69L114.63,812.88z"/>
		<path class="st0" d="M120.1,813.01c-1.98,0-3.28-1.44-3.28-3.57c0-2.14,1.3-3.59,3.3-3.59c2,0,3.29,1.44,3.29,3.57
			S122.11,813.01,120.1,813.01z M120.11,807.2c-0.99,0-1.58,0.87-1.58,2.24s0.59,2.24,1.58,2.24c1,0,1.58-0.87,1.58-2.24
			S121.11,807.2,120.11,807.2z"/>
		<path class="st0" d="M128.07,812.95l-1.52-2.44h-0.43v2.37h-1.7v-6.9h2.41c1.67,0,2.65,0.76,2.65,2.18c0,0.96-0.48,1.61-1.3,1.96
			l1.67,2.54L128.07,812.95z M126.66,807.28h-0.55v2.01h0.53c0.74,0,1.16-0.36,1.16-1.02C127.8,807.63,127.4,807.28,126.66,807.28z"
			/>
		<path class="st0" d="M134.6,812.95l-2.31-3.28v3.21h-1.71v-6.9h1.71v2.95l2.16-2.95h1.92l-2.45,3.2l2.53,3.49L134.6,812.95z"/>
		<path class="st0" d="M137.8,805.67c1.31,1.02,2.28,2.2,2.28,4.03c0,1.97-1.07,3.29-2.98,4.17l-0.14-1.02
			c0.94-0.82,1.44-1.77,1.44-3.12c0-1.47-0.54-2.52-1.76-3.79L137.8,805.67z"/>
	</g>
	<g>
		<path class="st0" d="M143.15,812.88v-0.32l2.48-2.69c0.81-0.88,1.05-1.37,1.05-2.07c0-0.86-0.55-1.39-1.43-1.39
			c-0.7,0-1.31,0.35-1.85,0.81l-0.08-0.49c0.51-0.41,1.14-0.74,1.95-0.74c1.2,0,1.9,0.72,1.9,1.78c0,0.84-0.34,1.44-1.17,2.33
			l-2.21,2.37h3.44l0.06,0.41H143.15z"/>
		<path class="st0" d="M151.02,813.01c-1.51,0-2.39-1.44-2.39-3.5s0.89-3.52,2.4-3.52s2.39,1.44,2.39,3.5
			C153.42,811.56,152.53,813.01,151.02,813.01z M151.03,806.42c-1.26,0-1.91,1.32-1.91,3.09c0,1.77,0.65,3.09,1.91,3.09
			c1.25,0,1.9-1.32,1.9-3.09C152.93,807.74,152.28,806.42,151.03,806.42z"/>
		<path class="st0" d="M156,812.88v-6.26l-1.49,0.63l-0.07-0.4l1.69-0.77h0.34v6.8H156z"/>
		<path class="st0" d="M159.79,809.3c-0.7-0.3-1.23-0.8-1.23-1.63c0-0.93,0.84-1.67,2-1.67c1.16,0,1.94,0.73,1.94,1.63
			c0,0.8-0.55,1.35-1.26,1.73c0.91,0.36,1.46,0.92,1.46,1.8c0,1.09-0.97,1.86-2.19,1.86c-1.33,0-2.22-0.79-2.22-1.81
			C158.29,810.34,158.85,809.73,159.79,809.3z M160.53,812.6c0.89,0,1.68-0.57,1.68-1.45c0-0.78-0.44-1.2-1.98-1.7
			c-0.88,0.37-1.45,0.96-1.45,1.72C158.78,812.03,159.5,812.6,160.53,812.6z M160.79,809.2c0.76-0.36,1.22-0.89,1.22-1.53
			c0-0.71-0.6-1.26-1.47-1.26c-0.97,0-1.49,0.64-1.49,1.25C159.05,808.38,159.42,808.77,160.79,809.2z"/>
	</g>
	<g>
		<path class="st0" d="M165.95,808.79v0.97h-0.26v-0.97h-2.06v-0.18l1.98-2.82h0.34v2.76h0.66v0.23H165.95z M165.68,806.09
			l-1.74,2.46h1.74V806.09z"/>
		<path class="st0" d="M168.62,809.83c-0.88,0-1.39-0.84-1.39-2.04c0-1.2,0.52-2.05,1.4-2.05c0.88,0,1.39,0.84,1.39,2.04
			C170.02,808.98,169.5,809.83,168.62,809.83z M168.63,805.98c-0.73,0-1.11,0.77-1.11,1.8c0,1.03,0.38,1.8,1.11,1.8
			c0.73,0,1.11-0.77,1.11-1.8C169.74,806.75,169.36,805.98,168.63,805.98z"/>
	</g>
	<g>
		<path class="st3" d="M134.15,741.79c-4.46,0-7.44-3.3-7.44-9.25s2.98-9.25,7.44-9.25c4.43,0,7.38,3.3,7.38,9.25
			S138.58,741.79,134.15,741.79z M134.15,726.63c-2.06,0-3.06,2.11-3.06,5.91s1,5.91,3.06,5.91s3.03-2.11,3.03-5.91
			S136.21,726.63,134.15,726.63z"/>
		<path class="st3" d="M143.33,741.45v-4.54h4.27v4.54H143.33z"/>
		<path class="st3" d="M158.09,733.9c-1.29,0.82-2.61,1.27-4.11,1.27c-2.98,0-5.17-1.77-5.17-5.51c0-3.93,2.85-6.38,6.62-6.38
			c4.03,0,6.86,2.61,6.86,7.54c0,6.41-4.46,9.89-10.55,11l-0.5-3.48C154.69,737.68,157.2,736.33,158.09,733.9z M158.33,731.08v-0.05
			c0-3.19-1.24-4.56-2.9-4.56c-1.5,0-2.53,1.05-2.53,2.9c0,1.82,0.84,2.69,2.53,2.69C156.4,732.06,157.35,731.74,158.33,731.08z"/>
	</g>
	<g>
		<path class="st3" d="M165.98,728.38c-1.28,0-2.29-0.95-2.29-2.71s1.02-2.71,2.29-2.71c1.27,0,2.27,0.95,2.27,2.69
			C168.26,727.42,167.25,728.38,165.98,728.38z M165.98,724.11c-0.58,0-0.87,0.57-0.87,1.56c0,0.95,0.3,1.55,0.87,1.55
			s0.84-0.58,0.84-1.57C166.83,724.69,166.54,724.11,165.98,724.11z M165.71,732.08l2.97-4.53l2.91-4.57l1.22,0.27l-2.98,4.56
			l-2.91,4.56L165.71,732.08z M172.54,732.38c-1.28,0-2.27-0.95-2.27-2.7c0-1.77,1.01-2.72,2.27-2.72c1.28,0,2.29,0.95,2.29,2.71
			C174.83,731.42,173.81,732.38,172.54,732.38z M172.54,728.12c-0.59,0-0.86,0.58-0.86,1.57c0,0.97,0.3,1.55,0.86,1.55
			c0.57,0,0.86-0.59,0.86-1.57C173.4,728.71,173.1,728.12,172.54,728.12z"/>
	</g>
	<g>
		<path class="st4" d="M40.01,736.64c-2.21,0-4.03-0.5-5.59-1.21l0.58-3.67c1.45,0.71,3.14,1.29,4.98,1.29c1.79,0,3.11-0.9,3.11-2.5
			c0-1.45-0.98-2.32-2.72-2.32c-1.08,0-1.87,0.24-2.56,0.53l-2.72-0.61l0.61-9.68h10.52l0.55,3.56h-7.75l-0.21,3.16
			c0.61-0.16,1.42-0.32,2.53-0.32c3.45,0,5.85,1.9,5.85,5.46C47.21,734.43,44.2,736.64,40.01,736.64z"/>
	</g>
	<g>
		<path class="st4" d="M50.96,723.24c-1.28,0-2.29-0.95-2.29-2.71s1.02-2.71,2.29-2.71c1.27,0,2.27,0.95,2.27,2.69
			C53.24,722.27,52.23,723.24,50.96,723.24z M50.96,718.96c-0.58,0-0.87,0.57-0.87,1.57c0,0.95,0.3,1.55,0.87,1.55
			s0.84-0.58,0.84-1.57C51.81,719.55,51.52,718.96,50.96,718.96z M50.69,726.94l2.97-4.53l2.91-4.57l1.22,0.27l-2.98,4.56
			l-2.91,4.56L50.69,726.94z M57.52,727.24c-1.28,0-2.27-0.95-2.27-2.69c0-1.77,1.01-2.72,2.27-2.72c1.28,0,2.29,0.95,2.29,2.71
			C59.81,726.27,58.79,727.24,57.52,727.24z M57.52,722.98c-0.59,0-0.86,0.58-0.86,1.57c0,0.97,0.3,1.55,0.86,1.55
			c0.57,0,0.86-0.59,0.86-1.57C58.38,723.56,58.08,722.98,57.52,722.98z"/>
	</g>
	<g>
		<path class="st3" d="M130.24,751.05h-0.44v2.29h-1.71v-6.9h2.22c1.68,0,2.71,0.75,2.71,2.25
			C133.02,750.25,131.91,751.05,130.24,751.05z M130.21,747.73h-0.43v2.03h0.4c0.76,0,1.18-0.33,1.18-1.04
			C131.36,748.06,130.97,747.73,130.21,747.73z"/>
		<path class="st3" d="M136.62,753.45c-1.69,0-2.87-0.91-2.87-2.84v-4.17h1.72v4.16c0,0.89,0.4,1.41,1.17,1.41
			c0.78,0,1.17-0.51,1.17-1.39v-4.18h1.72v4.16C139.53,752.52,138.29,753.45,136.62,753.45z"/>
		<path class="st3" d="M143.02,753.34h-2.31v-6.9h2.35c1.57,0,2.35,0.67,2.35,1.79c0,0.75-0.44,1.21-1,1.46
			c0.75,0.24,1.25,0.72,1.25,1.66C145.66,752.68,144.66,753.34,143.02,753.34z M142.94,747.67h-0.61v1.56h0.57
			c0.64,0,0.98-0.31,0.98-0.81C143.88,747.96,143.6,747.67,142.94,747.67z M142.94,750.33h-0.61v1.78h0.63
			c0.69,0,1.09-0.29,1.09-0.88C144.05,750.64,143.67,750.33,142.94,750.33z"/>
		<path class="st3" d="M146.64,753.34v-6.9h1.71v5.42h2.12l0.23,1.48H146.64z"/>
		<path class="st3" d="M151.54,753.34v-6.9h1.71v6.9H151.54z"/>
		<path class="st3" d="M157.65,753.46c-2.09,0-3.35-1.4-3.35-3.56c0-2.14,1.34-3.58,3.3-3.58c0.78,0,1.41,0.17,1.91,0.45l-0.24,1.54
			c-0.42-0.32-0.94-0.56-1.54-0.56c-1.04,0-1.72,0.79-1.72,2.14c0,1.38,0.77,2.14,1.81,2.14c0.56,0,1.05-0.19,1.57-0.48l0.22,1.4
			C159.05,753.26,158.41,753.46,157.65,753.46z"/>
	</g>
	<g>
		<path class="st3" d="M131.38,757.89v5.45h-1.72v-5.45h-1.95v-1.45h5.46l0.24,1.45H131.38z"/>
		<path class="st3" d="M137.83,763.41l-1.52-2.44h-0.43v2.37h-1.7v-6.9h2.41c1.67,0,2.65,0.76,2.65,2.18c0,0.96-0.48,1.61-1.3,1.96
			l1.67,2.54L137.83,763.41z M136.42,757.73h-0.55v2.01h0.53c0.74,0,1.16-0.36,1.16-1.02C137.56,758.08,137.16,757.73,136.42,757.73
			z"/>
		<path class="st3" d="M142.32,756.41h1.88l2.4,6.72l-1.72,0.28l-0.51-1.5h-2.4l-0.46,1.43h-1.67L142.32,756.41z M142.38,760.57
			h1.56l-0.77-2.4L142.38,760.57z"/>
		<path class="st3" d="M151.67,763.34l-2.72-4.13v4.13h-1.59v-6.9h1.66l2.54,3.86v-3.86h1.59v6.9H151.67z"/>
		<path class="st3" d="M156.54,763.42c-0.93,0-1.71-0.2-2.41-0.52l0.25-1.46c0.71,0.38,1.5,0.64,2.19,0.64
			c0.49,0,0.83-0.21,0.83-0.62c0-0.39-0.2-0.57-1.17-0.94c-1.38-0.53-1.98-0.98-1.98-2.12c0-1.33,1.04-2.04,2.36-2.04
			c0.9,0,1.48,0.17,2.08,0.46l-0.26,1.44c-0.62-0.36-1.27-0.56-1.8-0.56c-0.52,0-0.77,0.22-0.77,0.54c0,0.35,0.19,0.52,1.05,0.85
			c1.51,0.55,2.1,1.07,2.1,2.17C159.01,762.76,157.91,763.42,156.54,763.42z"/>
		<path class="st3" d="M162.09,761.05h-0.44v2.29h-1.71v-6.9h2.22c1.68,0,2.71,0.75,2.71,2.25
			C164.87,760.25,163.76,761.05,162.09,761.05z M162.06,757.73h-0.43v2.03h0.4c0.76,0,1.18-0.33,1.18-1.04
			C163.21,758.06,162.82,757.73,162.06,757.73z"/>
		<path class="st3" d="M168.71,763.47c-1.98,0-3.28-1.44-3.28-3.57c0-2.14,1.3-3.59,3.3-3.59c2,0,3.29,1.44,3.29,3.57
			S170.72,763.47,168.71,763.47z M168.72,757.65c-0.99,0-1.58,0.87-1.58,2.24s0.59,2.24,1.58,2.24c1,0,1.58-0.87,1.58-2.24
			S169.72,757.65,168.72,757.65z"/>
		<path class="st3" d="M176.68,763.41l-1.52-2.44h-0.43v2.37h-1.7v-6.9h2.41c1.67,0,2.65,0.76,2.65,2.18c0,0.96-0.48,1.61-1.3,1.96
			l1.67,2.54L176.68,763.41z M175.27,757.73h-0.55v2.01h0.53c0.74,0,1.16-0.36,1.16-1.02C176.41,758.08,176.01,757.73,175.27,757.73
			z"/>
		<path class="st3" d="M182.3,757.89v5.45h-1.72v-5.45h-1.95v-1.45h5.46l0.24,1.45H182.3z"/>
	</g>
	<g>
		<path class="st3" d="M131.2,773.47c-1.94,0-3.19-1.44-3.19-3.57c0-2.14,1.27-3.59,3.21-3.59c0.82,0,1.43,0.21,1.96,0.57
			l-0.14,0.96c-0.5-0.38-1.09-0.67-1.83-0.67c-1.4,0-2.23,1.06-2.23,2.72s0.84,2.71,2.23,2.71c0.74,0,1.39-0.29,1.94-0.69l0.14,0.89
			C132.76,773.19,131.99,773.47,131.2,773.47z"/>
		<path class="st3" d="M134.75,773.34v-6.9h3.72v0.86h-2.78v2h2.16l0.14,0.86h-2.3v2.32h2.88v0.86H134.75z"/>
		<path class="st3" d="M144.43,773.34l-3.79-5.37v5.37h-0.87v-6.9h0.84l3.66,5.17v-5.17h0.87v6.9H144.43z"/>
		<path class="st3" d="M148.43,773.42c-0.75,0-1.42-0.18-1.93-0.45l0.14-0.96c0.47,0.31,1.12,0.59,1.81,0.59
			c0.72,0,1.23-0.38,1.23-1.05c0-0.63-0.28-0.89-1.32-1.36c-1.3-0.59-1.79-1.02-1.79-2.01c0-1.11,0.85-1.82,2.1-1.82
			c0.67,0,1.17,0.16,1.57,0.39l-0.15,0.94c-0.38-0.29-0.9-0.51-1.45-0.51c-0.79,0-1.14,0.42-1.14,0.93c0,0.53,0.26,0.78,1.31,1.26
			c1.34,0.61,1.8,1.07,1.8,2.11C150.61,772.67,149.72,773.42,148.43,773.42z"/>
		<path class="st3" d="M154.52,773.47c-1.67,0-2.67-1.06-2.67-2.74v-4.29h0.94v4.17c0,1.2,0.54,2,1.73,2c1.17,0,1.76-0.72,1.76-1.97
			v-4.2h0.94v4.24C157.22,772.42,156.19,773.47,154.52,773.47z"/>
		<path class="st3" d="M160.44,773.42c-0.75,0-1.42-0.18-1.93-0.45l0.14-0.96c0.47,0.31,1.12,0.59,1.81,0.59
			c0.72,0,1.23-0.38,1.23-1.05c0-0.63-0.28-0.89-1.32-1.36c-1.3-0.59-1.79-1.02-1.79-2.01c0-1.11,0.85-1.82,2.1-1.82
			c0.67,0,1.17,0.16,1.57,0.39l-0.15,0.94c-0.38-0.29-0.9-0.51-1.45-0.51c-0.79,0-1.14,0.42-1.14,0.93c0,0.53,0.26,0.78,1.31,1.26
			c1.34,0.61,1.8,1.07,1.8,2.11C162.62,772.67,161.73,773.42,160.44,773.42z"/>
		<path class="st3" d="M165.74,773.34v-0.69l2.5-2.61c0.61-0.64,0.88-1.07,0.88-1.62c0-0.76-0.44-1.14-1.23-1.14
			c-0.7,0-1.31,0.33-1.84,0.8l-0.13-0.87c0.5-0.43,1.18-0.76,2.02-0.76c1.31,0,2.11,0.75,2.11,1.91c0,0.82-0.37,1.37-1.2,2.22
			l-1.93,1.96h3.11l0.12,0.8H165.74z"/>
		<path class="st3" d="M173.74,773.47c-1.55,0-2.59-1.27-2.59-3.51c0-2.24,1.04-3.51,2.59-3.51c1.54,0,2.58,1.27,2.58,3.51
			C176.32,772.2,175.28,773.47,173.74,773.47z M173.74,767.24c-1.04,0-1.67,0.96-1.67,2.72s0.63,2.72,1.67,2.72
			c1.04,0,1.66-0.96,1.66-2.72S174.78,767.24,173.74,767.24z"/>
		<path class="st3" d="M178.47,773.34v-5.84l-1.41,0.53l-0.1-0.72l1.62-0.75h0.78v6.78H178.47z"/>
		<path class="st3" d="M182.16,769.79c-0.68-0.35-1.14-0.78-1.14-1.6c0-1,0.86-1.74,2.16-1.74c1.31,0,2.12,0.73,2.12,1.69
			c0,0.76-0.53,1.28-1.18,1.66c0.89,0.42,1.42,0.86,1.42,1.83c0,1.04-0.92,1.84-2.4,1.84c-1.55,0-2.38-0.85-2.38-1.86
			C180.76,770.81,181.35,770.22,182.16,769.79z M183.16,772.71c0.88,0,1.48-0.43,1.48-1.11c0-0.71-0.44-0.97-1.72-1.49
			c-0.76,0.34-1.26,0.85-1.26,1.46C181.66,772.3,182.29,772.71,183.16,772.71z M183.39,769.48c0.61-0.33,1.03-0.8,1.03-1.32
			c0-0.58-0.45-0.95-1.26-0.95c-0.84,0-1.26,0.43-1.26,0.97C181.9,768.79,182.32,769.03,183.39,769.48z"/>
	</g>
	<g>
		<path class="st3" d="M135.2,783.34h-0.79l-1.87-5.59l-1.87,5.59h-0.78l-2.04-6.77l0.92-0.2l1.56,5.49l1.76-5.42h0.94l1.76,5.42
			l1.53-5.42h0.96L135.2,783.34z"/>
		<path class="st3" d="M141.33,783.34v-3.25c0-0.49-0.21-0.82-0.73-0.82c-0.47,0-0.95,0.31-1.38,0.77v3.3h-0.89v-7.08l0.89-0.14
			v3.08c0.39-0.35,0.94-0.73,1.62-0.73c0.9,0,1.38,0.54,1.38,1.4v3.47H141.33z"/>
		<path class="st3" d="M146.49,783.34l-0.1-0.64c-0.38,0.39-0.9,0.74-1.68,0.74c-0.86,0-1.4-0.52-1.4-1.33
			c0-1.19,1.02-1.66,3.01-1.87v-0.2c0-0.6-0.36-0.81-0.91-0.81c-0.58,0-1.13,0.18-1.65,0.41l-0.12-0.77c0.57-0.23,1.11-0.4,1.85-0.4
			c1.16,0,1.72,0.47,1.72,1.53v3.34H146.49z M146.32,780.92c-1.76,0.17-2.13,0.65-2.13,1.14c0,0.39,0.26,0.64,0.71,0.64
			c0.52,0,1.02-0.26,1.42-0.67V780.92z"/>
		<path class="st3" d="M151.59,783.34v-3.25c0-0.49-0.21-0.82-0.73-0.82c-0.47,0-0.95,0.31-1.38,0.77v3.3h-0.89v-4.77h0.71
			l0.11,0.69c0.45-0.41,1.01-0.79,1.69-0.79c0.9,0,1.38,0.54,1.38,1.4v3.47H151.59z"/>
		<path class="st3" d="M155.56,785.16c-1.24,0-2.23-0.39-2.23-1.23c0-0.49,0.34-0.87,1.01-1.23c-0.21-0.15-0.3-0.32-0.3-0.5
			c0-0.23,0.18-0.45,0.5-0.65c-0.54-0.27-0.89-0.77-0.89-1.42c0-1.03,0.86-1.66,1.83-1.66c0.47,0,0.9,0.15,1.23,0.41l1.21-0.38
			l0.13,0.8l-0.91,0.09c0.12,0.22,0.19,0.47,0.19,0.74c0,1.02-0.86,1.64-1.83,1.64c-0.13,0-0.25-0.01-0.36-0.03
			c-0.14,0.09-0.24,0.2-0.24,0.29c0,0.17,0.17,0.21,1.01,0.36l0.34,0.06c1.01,0.18,1.64,0.5,1.64,1.24
			C157.89,784.69,156.8,785.16,155.56,785.16z M154.98,782.97c-0.55,0.28-0.8,0.56-0.8,0.89c0,0.38,0.49,0.66,1.42,0.66
			c0.93,0,1.45-0.32,1.45-0.72c0-0.29-0.22-0.49-0.9-0.61l-0.57-0.1C155.32,783.04,155.17,783.02,154.98,782.97z M155.48,779.12
			c-0.6,0-0.97,0.46-0.97,1.04c0,0.55,0.38,0.98,0.97,0.98c0.61,0,0.99-0.45,0.99-1.02C156.47,779.55,156.07,779.12,155.48,779.12z"
			/>
		<path class="st3" d="M161.74,783.34l-0.1-0.64c-0.38,0.39-0.9,0.74-1.68,0.74c-0.86,0-1.4-0.52-1.4-1.33
			c0-1.19,1.02-1.66,3.01-1.87v-0.2c0-0.6-0.36-0.81-0.91-0.81c-0.58,0-1.13,0.18-1.65,0.41l-0.12-0.77c0.57-0.23,1.11-0.4,1.85-0.4
			c1.16,0,1.72,0.47,1.72,1.53v3.34H161.74z M159.32,777.64v-0.72h2.66v0.72H159.32z M161.57,780.92c-1.76,0.17-2.13,0.65-2.13,1.14
			c0,0.39,0.26,0.64,0.71,0.64c0.52,0,1.02-0.26,1.42-0.67V780.92z"/>
		<path class="st3" d="M164.73,780.52v2.82h-0.89v-4.77h0.71l0.15,0.97c0.34-0.54,0.89-1.03,1.67-1.07l0.14,0.85
			C165.72,779.36,165.05,779.89,164.73,780.52z"/>
		<path class="st3" d="M169.19,783.44c-1.24,0-2.21-0.75-2.21-2.5c0-1.53,0.9-2.47,2.1-2.47c1.39,0,2.03,1.07,2.03,2.39v0.19h-3.24
			c0.03,1.11,0.56,1.63,1.39,1.63c0.69,0,1.19-0.27,1.71-0.68l0.13,0.8C170.59,783.2,169.98,783.44,169.19,783.44z M167.91,780.38
			h2.3c-0.11-0.77-0.45-1.21-1.14-1.21C168.52,779.17,168.05,779.57,167.91,780.38z"/>
		<path class="st3" d="M172.76,777.61c-0.31,0-0.57-0.25-0.57-0.56c0-0.31,0.26-0.57,0.57-0.57c0.31,0,0.56,0.26,0.56,0.57
			C173.32,777.36,173.07,777.61,172.76,777.61z M172.31,783.34v-4.77h0.89v4.77H172.31z"/>
	</g>
	<g>
		<path class="st4" d="M42.33,748.19H40.6l-1.19-4.45l-1.19,4.45H36.5l-1.82-6.68l1.85-0.29l1.04,4.39l1.12-4.32h1.72l1.12,4.32
			l0.99-4.32h1.69L42.33,748.19z"/>
		<path class="st4" d="M46.33,741.27h1.88l2.4,6.72l-1.72,0.28l-0.51-1.5h-2.4l-0.46,1.43h-1.67L46.33,741.27z M46.39,745.43h1.56
			l-0.77-2.4L46.39,745.43z"/>
		<path class="st4" d="M51.37,748.19v-6.9h1.71v5.42h2.12l0.23,1.48H51.37z"/>
		<path class="st4" d="M60.25,748.27l-2.31-3.28v3.21h-1.71v-6.9h1.71v2.95l2.16-2.95h1.92l-2.45,3.2l2.53,3.49L60.25,748.27z"/>
		<path class="st4" d="M62.77,748.19v-6.9h1.71v6.9H62.77z"/>
		<path class="st4" d="M70.09,748.19l-2.72-4.13v4.13h-1.59v-6.9h1.66l2.54,3.86v-3.86h1.59v6.9H70.09z"/>
		<path class="st4" d="M75.98,748.32c-2.19,0-3.4-1.44-3.4-3.57c0-2.14,1.31-3.59,3.44-3.59c0.85,0,1.56,0.2,2.11,0.51l-0.23,1.49
			c-0.52-0.33-1.13-0.59-1.84-0.59c-1.19,0-1.77,0.88-1.77,2.17c0,1.3,0.6,2.21,1.79,2.21c0.38,0,0.65-0.08,0.93-0.22v-1.23h-1.2
			l-0.2-1.27h2.89v3.36C77.78,748.06,76.93,748.32,75.98,748.32z"/>
	</g>
	<g>
		<path class="st4" d="M39.53,758.25l-0.59-0.67c-0.54,0.48-1.18,0.72-1.9,0.72c-1.38,0-2.28-0.69-2.28-1.89
			c0-0.96,0.54-1.57,1.35-2.05c-0.4-0.5-0.56-0.87-0.56-1.47c0-1.05,0.77-1.73,2.03-1.73c0.76,0,1.4,0.19,1.85,0.44l-0.22,1.34
			c-0.52-0.28-1.02-0.47-1.47-0.47c-0.41,0-0.61,0.23-0.61,0.52c0,0.26,0.12,0.47,0.41,0.79l1.41,1.64
			c0.13-0.38,0.22-0.82,0.29-1.35l1.28,0.28c-0.12,0.84-0.34,1.52-0.68,2.1l1.38,1.58L39.53,758.25z M38.18,756.73l-1.31-1.49
			c-0.38,0.3-0.55,0.62-0.55,1c0,0.51,0.37,0.86,0.98,0.86C37.59,757.1,37.9,756.99,38.18,756.73z"/>
		<path class="st4" d="M46.93,758.31c-2.09,0-3.35-1.4-3.35-3.56c0-2.14,1.34-3.58,3.3-3.58c0.78,0,1.41,0.17,1.91,0.45l-0.24,1.54
			c-0.42-0.32-0.94-0.56-1.54-0.56c-1.04,0-1.72,0.79-1.72,2.14c0,1.38,0.77,2.14,1.81,2.14c0.56,0,1.05-0.19,1.57-0.48l0.22,1.4
			C48.33,758.11,47.69,758.31,46.93,758.31z"/>
		<path class="st4" d="M53.29,755.66v2.54h-1.72v-2.52l-2.38-4.2l1.82-0.25l1.5,2.87l1.47-2.8h1.79L53.29,755.66z"/>
		<path class="st4" d="M59.04,758.31c-2.09,0-3.35-1.4-3.35-3.56c0-2.14,1.34-3.58,3.3-3.58c0.78,0,1.41,0.17,1.91,0.45l-0.24,1.54
			c-0.42-0.32-0.94-0.56-1.54-0.56c-1.04,0-1.72,0.79-1.72,2.14c0,1.38,0.77,2.14,1.81,2.14c0.56,0,1.05-0.19,1.57-0.48l0.22,1.4
			C60.44,758.11,59.8,758.31,59.04,758.31z"/>
		<path class="st4" d="M61.99,758.19v-6.9h1.71v5.42h2.12l0.23,1.48H61.99z"/>
		<path class="st4" d="M66.89,758.19v-6.9h1.71v6.9H66.89z"/>
		<path class="st4" d="M74.21,758.19l-2.72-4.13v4.13H69.9v-6.9h1.66l2.54,3.86v-3.86h1.59v6.9H74.21z"/>
		<path class="st4" d="M80.1,758.32c-2.19,0-3.4-1.44-3.4-3.57c0-2.14,1.31-3.59,3.44-3.59c0.85,0,1.56,0.2,2.11,0.51l-0.23,1.49
			c-0.52-0.33-1.13-0.59-1.84-0.59c-1.19,0-1.77,0.88-1.77,2.17c0,1.3,0.6,2.21,1.79,2.21c0.38,0,0.65-0.08,0.93-0.22v-1.23h-1.2
			l-0.2-1.27h2.89v3.36C81.9,758.06,81.05,758.32,80.1,758.32z"/>
	</g>
	<g>
		<path class="st4" d="M38.23,768.32c-1.94,0-3.19-1.44-3.19-3.57c0-2.14,1.27-3.59,3.21-3.59c0.82,0,1.43,0.21,1.96,0.57
			l-0.14,0.96c-0.5-0.38-1.09-0.67-1.83-0.67c-1.4,0-2.23,1.06-2.23,2.72s0.84,2.71,2.23,2.71c0.74,0,1.39-0.29,1.94-0.69l0.14,0.89
			C39.79,768.04,39.02,768.32,38.23,768.32z"/>
		<path class="st4" d="M41.78,768.19v-6.9h3.72v0.86h-2.78v2h2.16l0.14,0.86h-2.3v2.32h2.88v0.86H41.78z"/>
		<path class="st4" d="M51.46,768.19l-3.79-5.37v5.37H46.8v-6.9h0.84l3.66,5.17v-5.17h0.87v6.9H51.46z"/>
		<path class="st4" d="M55.46,768.27c-0.75,0-1.42-0.18-1.93-0.45l0.14-0.96c0.47,0.31,1.12,0.59,1.81,0.59
			c0.72,0,1.23-0.38,1.23-1.05c0-0.63-0.28-0.89-1.32-1.36c-1.3-0.59-1.79-1.02-1.79-2.01c0-1.11,0.85-1.82,2.1-1.82
			c0.67,0,1.17,0.16,1.57,0.39l-0.15,0.94c-0.38-0.29-0.9-0.51-1.45-0.51c-0.79,0-1.14,0.42-1.14,0.93c0,0.53,0.26,0.78,1.31,1.26
			c1.34,0.61,1.8,1.07,1.8,2.11C57.64,767.52,56.75,768.27,55.46,768.27z"/>
		<path class="st4" d="M61.55,768.32c-1.67,0-2.67-1.06-2.67-2.74v-4.29h0.94v4.17c0,1.2,0.54,2,1.73,2c1.17,0,1.76-0.72,1.76-1.97
			v-4.2h0.94v4.24C64.25,767.27,63.22,768.32,61.55,768.32z"/>
		<path class="st4" d="M67.47,768.27c-0.75,0-1.42-0.18-1.93-0.45l0.14-0.96c0.47,0.31,1.12,0.59,1.81,0.59
			c0.72,0,1.23-0.38,1.23-1.05c0-0.63-0.28-0.89-1.32-1.36c-1.3-0.59-1.79-1.02-1.79-2.01c0-1.11,0.85-1.82,2.1-1.82
			c0.67,0,1.17,0.16,1.57,0.39l-0.15,0.94c-0.38-0.29-0.9-0.51-1.45-0.51c-0.79,0-1.14,0.42-1.14,0.93c0,0.53,0.26,0.78,1.31,1.26
			c1.34,0.61,1.8,1.07,1.8,2.11C69.65,767.52,68.76,768.27,67.47,768.27z"/>
		<path class="st4" d="M72.77,768.19v-0.69l2.5-2.61c0.61-0.64,0.88-1.07,0.88-1.62c0-0.76-0.44-1.14-1.23-1.14
			c-0.7,0-1.31,0.33-1.84,0.8l-0.13-0.87c0.5-0.43,1.18-0.76,2.02-0.76c1.31,0,2.11,0.75,2.11,1.91c0,0.82-0.37,1.37-1.2,2.22
			l-1.93,1.96h3.11l0.12,0.8H72.77z"/>
		<path class="st4" d="M80.77,768.32c-1.55,0-2.59-1.27-2.59-3.51c0-2.24,1.04-3.51,2.59-3.51c1.54,0,2.58,1.27,2.58,3.51
			C83.35,767.06,82.31,768.32,80.77,768.32z M80.77,762.1c-1.04,0-1.67,0.96-1.67,2.72s0.63,2.72,1.67,2.72
			c1.04,0,1.66-0.96,1.66-2.72S81.81,762.1,80.77,762.1z"/>
		<path class="st4" d="M85.5,768.19v-5.84l-1.41,0.53l-0.1-0.72l1.62-0.75h0.78v6.78H85.5z"/>
		<path class="st4" d="M89.19,764.65c-0.68-0.35-1.14-0.78-1.14-1.6c0-1,0.86-1.74,2.16-1.74c1.31,0,2.12,0.73,2.12,1.69
			c0,0.76-0.53,1.28-1.18,1.66c0.89,0.42,1.42,0.86,1.42,1.83c0,1.04-0.92,1.84-2.4,1.84c-1.55,0-2.38-0.85-2.38-1.86
			C87.79,765.67,88.38,765.08,89.19,764.65z M90.19,767.56c0.88,0,1.48-0.43,1.48-1.11c0-0.71-0.44-0.97-1.72-1.49
			c-0.76,0.34-1.26,0.85-1.26,1.46C88.69,767.16,89.32,767.56,90.19,767.56z M90.42,764.34c0.61-0.33,1.03-0.8,1.03-1.32
			c0-0.58-0.45-0.95-1.26-0.95c-0.84,0-1.26,0.43-1.26,0.97C88.93,763.65,89.35,763.89,90.42,764.34z"/>
	</g>
	<text transform="matrix(1 0 0 1 93.0195 768.1947)" class="st4 st5 st2"> </text>
	<g>
		<path class="st4" d="M42.23,778.19h-0.79l-1.87-5.59l-1.87,5.59h-0.78l-2.04-6.77l0.92-0.2l1.56,5.49l1.76-5.42h0.94l1.76,5.42
			l1.53-5.42h0.96L42.23,778.19z"/>
		<path class="st4" d="M48.36,778.19v-3.25c0-0.49-0.21-0.82-0.73-0.82c-0.47,0-0.95,0.31-1.38,0.77v3.3h-0.89v-7.08l0.89-0.14v3.08
			c0.39-0.35,0.94-0.73,1.62-0.73c0.9,0,1.38,0.54,1.38,1.4v3.47H48.36z"/>
		<path class="st4" d="M53.52,778.19l-0.1-0.64c-0.38,0.39-0.9,0.74-1.68,0.74c-0.86,0-1.4-0.52-1.4-1.33
			c0-1.19,1.02-1.66,3.01-1.87v-0.2c0-0.6-0.36-0.81-0.91-0.81c-0.58,0-1.13,0.18-1.65,0.41l-0.12-0.77c0.57-0.23,1.11-0.4,1.85-0.4
			c1.16,0,1.72,0.47,1.72,1.53v3.34H53.52z M53.35,775.78c-1.76,0.17-2.13,0.65-2.13,1.14c0,0.39,0.26,0.64,0.71,0.64
			c0.52,0,1.02-0.26,1.42-0.67V775.78z"/>
		<path class="st4" d="M58.62,778.19v-3.25c0-0.49-0.21-0.82-0.73-0.82c-0.47,0-0.95,0.31-1.38,0.77v3.3h-0.89v-4.77h0.71l0.11,0.69
			c0.45-0.41,1.01-0.79,1.69-0.79c0.9,0,1.38,0.54,1.38,1.4v3.47H58.62z"/>
		<path class="st4" d="M62.59,780.01c-1.24,0-2.23-0.39-2.23-1.23c0-0.49,0.34-0.87,1.01-1.23c-0.21-0.15-0.3-0.32-0.3-0.5
			c0-0.23,0.18-0.45,0.5-0.65c-0.54-0.27-0.89-0.77-0.89-1.42c0-1.03,0.86-1.66,1.83-1.66c0.47,0,0.9,0.15,1.23,0.41l1.21-0.38
			l0.13,0.8l-0.91,0.09c0.12,0.22,0.19,0.47,0.19,0.74c0,1.02-0.86,1.64-1.83,1.64c-0.13,0-0.25-0.01-0.36-0.03
			c-0.14,0.09-0.24,0.2-0.24,0.29c0,0.17,0.17,0.21,1.01,0.36l0.34,0.06c1.01,0.18,1.64,0.5,1.64,1.24
			C64.92,779.54,63.83,780.01,62.59,780.01z M62.01,777.82c-0.55,0.28-0.8,0.56-0.8,0.89c0,0.38,0.49,0.66,1.42,0.66
			c0.93,0,1.45-0.32,1.45-0.72c0-0.29-0.22-0.49-0.9-0.61l-0.57-0.1C62.35,777.89,62.2,777.87,62.01,777.82z M62.51,773.98
			c-0.6,0-0.97,0.46-0.97,1.04c0,0.55,0.38,0.98,0.97,0.98c0.61,0,0.99-0.45,0.99-1.02C63.5,774.41,63.1,773.98,62.51,773.98z"/>
		<path class="st4" d="M68.78,778.19l-0.1-0.64c-0.38,0.39-0.9,0.74-1.68,0.74c-0.86,0-1.4-0.52-1.4-1.33
			c0-1.19,1.02-1.66,3.01-1.87v-0.2c0-0.6-0.36-0.81-0.91-0.81c-0.58,0-1.13,0.18-1.65,0.41l-0.12-0.77c0.57-0.23,1.11-0.4,1.85-0.4
			c1.16,0,1.72,0.47,1.72,1.53v3.34H68.78z M66.36,772.5v-0.72h2.66v0.72H66.36z M68.61,775.78c-1.76,0.17-2.13,0.65-2.13,1.14
			c0,0.39,0.26,0.64,0.71,0.64c0.52,0,1.02-0.26,1.42-0.67V775.78z"/>
		<path class="st4" d="M71.77,775.38v2.82h-0.89v-4.77h0.71l0.15,0.97c0.34-0.54,0.89-1.03,1.67-1.07l0.14,0.85
			C72.76,774.22,72.09,774.75,71.77,775.38z"/>
		<path class="st4" d="M76.23,778.29c-1.24,0-2.21-0.75-2.21-2.5c0-1.53,0.9-2.47,2.1-2.47c1.39,0,2.03,1.07,2.03,2.39v0.19h-3.24
			c0.03,1.11,0.56,1.63,1.39,1.63c0.69,0,1.19-0.27,1.71-0.68l0.13,0.8C77.63,778.06,77.02,778.29,76.23,778.29z M74.95,775.24h2.3
			c-0.11-0.77-0.45-1.21-1.14-1.21C75.56,774.03,75.09,774.43,74.95,775.24z"/>
		<path class="st4" d="M79.8,772.47c-0.31,0-0.57-0.25-0.57-0.56c0-0.31,0.26-0.57,0.57-0.57c0.31,0,0.56,0.26,0.56,0.57
			C80.36,772.22,80.11,772.47,79.8,772.47z M79.35,778.19v-4.77h0.89v4.77H79.35z"/>
	</g>
	<g>
		<path class="st6" d="M129.36,465.34h-1.98c-0.35,0-0.65,0.28-0.65,0.63v0.2c0,0.35,0.29,0.63,0.65,0.63h2.4 M117.1,465.34h1.15
			c0.35,0,0.65,0.28,0.65,0.63v0.2c0,0.35-0.29,0.63-0.65,0.63h-2.4 M120.13,469.24V468c0-0.12,0.15-0.22,0.32-0.22h4.75
			c0.18,0,0.32,0.1,0.32,0.22v1.23 M128.41,463.21c0,0.35-0.29,0.63-0.65,0.63h-8.93 M129.26,469.36v1.23
			c0,0.19-0.15,0.34-0.32,0.34h-2.22c-0.18,0-0.32-0.15-0.32-0.34v-1.23 M119.28,470.07v0.54c0,0.17-0.15,0.32-0.32,0.32h-2.22
			c-0.18,0-0.32-0.14-0.32-0.32v-1.22 M127.57,461.51c-0.19-0.37-0.29-0.63-0.65-0.63h-8.24c-0.36,0-0.43,0.21-0.65,0.63
			c0,0-2.26,4.38-2.26,4.73v2.44c0,0.35,0.29,0.63,0.65,0.63h12.76c0.36,0,0.65-0.28,0.65-0.63v-2.44
			C129.83,465.89,127.57,461.51,127.57,461.51z M128.17,462.66h1.72c0.33,0,0.61,0.27,0.61,0.59c0,0.32-0.27,0.59-0.61,0.59h-1.12
			 M116.86,463.84h-1.14c-0.33,0-0.61-0.27-0.61-0.59c0-0.33,0.27-0.59,0.61-0.59h0.94"/>
	</g>
	<g>
		<path class="st0" d="M122.5,484.97c-1.29,0.82-2.61,1.27-4.11,1.27c-2.98,0-5.17-1.77-5.17-5.51c0-3.93,2.85-6.38,6.62-6.38
			c4.03,0,6.86,2.61,6.86,7.54c0,6.41-4.46,9.89-10.55,11l-0.5-3.48C119.1,488.74,121.6,487.39,122.5,484.97z M122.73,482.15v-0.05
			c0-3.19-1.24-4.56-2.9-4.56c-1.5,0-2.53,1.05-2.53,2.9c0,1.82,0.84,2.69,2.53,2.69C120.81,483.12,121.76,482.81,122.73,482.15z"/>
		<path class="st0" d="M140.37,488.95v3.56h-4.14v-3.56h-8.25v-2.74l7.51-11.55h4.88v11.31h2.5v2.98H140.37z M136.23,478.9
			l-4.56,7.07h4.56V478.9z"/>
	</g>
	<g>
		<path class="st0" d="M146.18,479.45c-1.28,0-2.29-0.95-2.29-2.71s1.02-2.71,2.29-2.71c1.27,0,2.27,0.95,2.27,2.69
			C148.46,478.48,147.45,479.45,146.18,479.45z M146.18,475.17c-0.58,0-0.87,0.57-0.87,1.57c0,0.95,0.3,1.55,0.87,1.55
			s0.84-0.58,0.84-1.57C147.03,475.76,146.74,475.17,146.18,475.17z M145.91,483.15l2.97-4.53l2.91-4.57l1.22,0.27l-2.98,4.56
			l-2.91,4.56L145.91,483.15z M152.74,483.45c-1.28,0-2.27-0.95-2.27-2.69c0-1.77,1.01-2.72,2.27-2.72c1.28,0,2.29,0.95,2.29,2.71
			C155.03,482.48,154.01,483.45,152.74,483.45z M152.74,479.19c-0.59,0-0.86,0.58-0.86,1.57c0,0.97,0.3,1.55,0.86,1.55
			c0.57,0,0.86-0.59,0.86-1.57C153.6,479.77,153.3,479.19,152.74,479.19z"/>
	</g>
	<g>
		<path class="st0" d="M118.61,502.35h-0.44v2.29h-1.71v-6.9h2.22c1.68,0,2.71,0.75,2.71,2.25
			C121.39,501.55,120.28,502.35,118.61,502.35z M118.58,499.04h-0.43v2.03h0.4c0.76,0,1.18-0.33,1.18-1.04
			C119.73,499.36,119.34,499.04,118.58,499.04z"/>
		<path class="st0" d="M125.85,504.71l-1.52-2.44h-0.43v2.37h-1.7v-6.9h2.41c1.67,0,2.65,0.76,2.65,2.18c0,0.96-0.48,1.61-1.3,1.96
			l1.67,2.54L125.85,504.71z M124.44,499.04h-0.55v2.01h0.53c0.74,0,1.16-0.36,1.16-1.02C125.58,499.39,125.18,499.04,124.44,499.04
			z"/>
		<path class="st0" d="M128.4,504.64v-6.9h1.71v6.9H128.4z"/>
		<path class="st0" d="M135.08,504.67h-1.75l-2.42-6.72l1.86-0.28l1.54,4.84l1.5-4.77h1.77L135.08,504.67z"/>
		<path class="st0" d="M139.48,497.72h1.88l2.4,6.72l-1.72,0.28l-0.51-1.5h-2.4l-0.46,1.43H137L139.48,497.72z M139.54,501.87h1.56
			l-0.77-2.4L139.54,501.87z"/>
		<path class="st0" d="M146.98,499.19v5.45h-1.72v-5.45h-1.95v-1.45h5.46l0.24,1.45H146.98z"/>
		<path class="st0" d="M149.78,504.64v-6.9h4.3v1.38h-2.62v1.27h2l0.22,1.37h-2.22v1.49h2.71v1.39H149.78z"/>
	</g>
	<g>
		<path class="st0" d="M120.13,514.67h-1.75l-2.42-6.72l1.86-0.28l1.54,4.84l1.5-4.77h1.77L120.13,514.67z"/>
		<path class="st0" d="M123.38,514.64v-6.9h4.3v1.38h-2.62v1.27h2l0.22,1.37h-2.22v1.49h2.71v1.39H123.38z"/>
		<path class="st0" d="M132.83,514.64v-2.82h-2.39v2.82h-1.71v-6.9h1.71v2.58h2.39v-2.58h1.72v6.9H132.83z"/>
		<path class="st0" d="M135.84,514.64v-6.9h1.71v6.9H135.84z"/>
		<path class="st0" d="M141.95,514.76c-2.09,0-3.35-1.4-3.35-3.56c0-2.14,1.34-3.58,3.3-3.58c0.78,0,1.41,0.17,1.91,0.45l-0.24,1.54
			c-0.42-0.32-0.94-0.56-1.54-0.56c-1.04,0-1.72,0.79-1.72,2.14c0,1.38,0.77,2.14,1.81,2.14c0.56,0,1.05-0.19,1.57-0.48l0.22,1.4
			C143.35,514.56,142.71,514.76,141.95,514.76z"/>
		<path class="st0" d="M144.9,514.64v-6.9h1.71v5.42h2.12l0.23,1.48H144.9z"/>
		<path class="st0" d="M149.76,514.64v-6.9h4.3v1.38h-2.62v1.27h2l0.22,1.37h-2.22v1.49h2.71v1.39H149.76z"/>
	</g>
	<g>
		<path class="st0" d="M119.57,524.77c-1.81,0-3.09-1.44-3.09-3.57c0-2.1,1.3-3.59,3.17-3.59c0.74,0,1.4,0.24,1.92,0.6l-0.09,0.5
			c-0.57-0.41-1.17-0.67-1.84-0.67c-1.63,0-2.66,1.3-2.66,3.14c0,1.85,1.04,3.16,2.63,3.16c0.75,0,1.44-0.3,2-0.74l0.07,0.46
			C121.16,524.46,120.42,524.77,119.57,524.77z"/>
		<path class="st0" d="M123.33,524.64v-6.9h3.49v0.43h-3.01v2.64h2.42l0.06,0.43h-2.48v2.97h3.11v0.43H123.33z"/>
		<path class="st0" d="M133.07,524.64l-4.23-6.17v6.17h-0.46v-6.9h0.49l4.12,6v-6h0.46v6.9H133.07z"/>
		<path class="st0" d="M136.88,524.72c-0.74,0-1.34-0.19-1.76-0.41l0.07-0.49c0.39,0.24,1.01,0.47,1.72,0.47
			c0.88,0,1.58-0.54,1.58-1.4c0-0.72-0.4-1.13-1.45-1.58c-1.34-0.57-1.81-1.03-1.81-1.97c0-0.98,0.83-1.68,1.88-1.68
			c0.64,0,1.15,0.14,1.49,0.34l-0.07,0.48c-0.4-0.23-0.85-0.39-1.44-0.39c-0.83,0-1.37,0.55-1.37,1.23c0,0.7,0.39,1.04,1.47,1.5
			c1.23,0.52,1.8,1.05,1.8,2.04C138.99,524.03,138.02,524.72,136.88,524.72z"/>
		<path class="st0" d="M142.92,524.74c-1.58,0-2.5-1.11-2.5-2.65v-4.35h0.48v4.28c0,1.35,0.71,2.29,2.04,2.29
			c1.31,0,2.04-0.89,2.04-2.24v-4.33h0.48v4.3C145.46,523.65,144.51,524.74,142.92,524.74z"/>
		<path class="st0" d="M148.74,524.72c-0.74,0-1.34-0.19-1.76-0.41l0.07-0.49c0.39,0.24,1.01,0.47,1.72,0.47
			c0.88,0,1.58-0.54,1.58-1.4c0-0.72-0.4-1.13-1.45-1.58c-1.34-0.57-1.81-1.03-1.81-1.97c0-0.98,0.83-1.68,1.88-1.68
			c0.64,0,1.15,0.14,1.49,0.34l-0.07,0.48c-0.4-0.23-0.85-0.39-1.44-0.39c-0.83,0-1.37,0.55-1.37,1.23c0,0.7,0.39,1.04,1.47,1.5
			c1.23,0.52,1.8,1.05,1.8,2.04C150.85,524.03,149.88,524.72,148.74,524.72z"/>
		<path class="st0" d="M154.28,524.64v-0.32l2.48-2.69c0.81-0.88,1.05-1.37,1.05-2.07c0-0.86-0.55-1.39-1.43-1.39
			c-0.7,0-1.31,0.35-1.85,0.81l-0.08-0.49c0.51-0.41,1.14-0.74,1.95-0.74c1.2,0,1.9,0.72,1.9,1.78c0,0.84-0.34,1.44-1.17,2.33
			l-2.21,2.37h3.44l0.06,0.41H154.28z"/>
		<path class="st0" d="M162.15,524.77c-1.51,0-2.39-1.44-2.39-3.5s0.89-3.52,2.4-3.52s2.39,1.44,2.39,3.5
			C164.55,523.32,163.66,524.77,162.15,524.77z M162.16,518.18c-1.26,0-1.91,1.32-1.91,3.09c0,1.77,0.65,3.09,1.91,3.09
			c1.25,0,1.9-1.32,1.9-3.09C164.06,519.49,163.41,518.18,162.16,518.18z"/>
		<path class="st0" d="M167.13,524.64v-6.26l-1.49,0.63l-0.07-0.4l1.69-0.77h0.34v6.8H167.13z"/>
		<path class="st0" d="M170.92,521.05c-0.7-0.3-1.23-0.8-1.23-1.63c0-0.93,0.84-1.67,2-1.67c1.16,0,1.94,0.73,1.94,1.63
			c0,0.8-0.55,1.35-1.26,1.73c0.91,0.36,1.46,0.92,1.46,1.8c0,1.09-0.97,1.86-2.19,1.86c-1.33,0-2.22-0.79-2.22-1.81
			C169.42,522.1,169.98,521.49,170.92,521.05z M171.66,524.36c0.89,0,1.68-0.57,1.68-1.45c0-0.78-0.44-1.2-1.98-1.7
			c-0.88,0.37-1.45,0.96-1.45,1.72C169.91,523.79,170.63,524.36,171.66,524.36z M171.92,520.95c0.76-0.36,1.22-0.89,1.22-1.53
			c0-0.71-0.6-1.26-1.47-1.26c-0.97,0-1.49,0.64-1.49,1.25C170.18,520.13,170.55,520.52,171.92,520.95z"/>
	</g>
	<g>
		<path class="st0" d="M123.53,534.66h-0.44l-2.11-6.26l-2.08,6.26h-0.43l-2.09-6.88l0.48-0.11l1.86,6.26l2.02-6.19h0.51l2.06,6.19
			l1.83-6.19h0.48L123.53,534.66z"/>
	</g>
	<g>
		<path class="st0" d="M130.12,534.64v-3.27c0-0.71-0.34-1.1-1.01-1.1c-0.52,0-1.06,0.3-1.65,0.85v3.52h-0.47v-7.05l0.47-0.1v3.15
			c0.57-0.49,1.08-0.8,1.7-0.8c0.97,0,1.43,0.54,1.43,1.47v3.33H130.12z"/>
		<path class="st0" d="M135.07,534.64l-0.11-0.63c-0.49,0.43-1.07,0.73-1.66,0.73c-0.79,0-1.42-0.4-1.42-1.25
			c0-1.05,0.8-1.61,3.06-1.82v-0.41c0-0.66-0.39-0.98-1.04-0.98c-0.54,0-1.09,0.15-1.61,0.42l-0.06-0.44
			c0.53-0.24,1.07-0.41,1.69-0.41c0.96,0,1.48,0.49,1.48,1.39v3.4H135.07z M134.94,532.06c-1.94,0.21-2.58,0.62-2.58,1.39
			c0,0.6,0.43,0.88,0.96,0.88c0.5,0,1.11-0.3,1.62-0.75V532.06z"/>
		<path class="st0" d="M140.13,534.64v-3.27c0-0.71-0.34-1.1-1.01-1.1c-0.52,0-1.06,0.3-1.65,0.85v3.52H137v-4.7h0.34l0.12,0.71
			c0.57-0.5,1.09-0.81,1.71-0.81c0.97,0,1.43,0.55,1.43,1.49v3.31H140.13z"/>
		<path class="st0" d="M143.75,536.42c-1.2,0-2.1-0.43-2.1-1.22c0-0.47,0.39-0.93,1.14-1.28c-0.27-0.14-0.4-0.31-0.4-0.5
			c0-0.25,0.16-0.42,0.46-0.61c-0.51-0.25-0.86-0.74-0.86-1.39c0-0.98,0.81-1.58,1.69-1.58c0.45,0,0.86,0.14,1.17,0.4l1.16-0.38
			l0.09,0.52l-1.01,0.11c0.2,0.25,0.32,0.57,0.32,0.93c0,0.98-0.8,1.58-1.71,1.58c-0.16,0-0.31-0.01-0.45-0.05
			c-0.27,0.15-0.38,0.26-0.38,0.38c0,0.21,0.21,0.3,1.1,0.47l0.36,0.07c1.08,0.21,1.61,0.51,1.61,1.17
			C145.94,535.89,144.96,536.42,143.75,536.42z M143.22,534.09c-0.74,0.31-1.09,0.67-1.09,1.09c0,0.57,0.74,0.86,1.66,0.86
			c0.99,0,1.68-0.41,1.68-0.94c0-0.43-0.36-0.63-1.33-0.82l-0.36-0.07C143.55,534.17,143.38,534.13,143.22,534.09z M143.68,530.21
			c-0.74,0-1.21,0.51-1.21,1.21c0,0.67,0.47,1.21,1.23,1.21c0.77,0,1.24-0.52,1.24-1.21C144.94,530.75,144.43,530.21,143.68,530.21z
			"/>
		<path class="st0" d="M150.04,534.64l-0.11-0.63c-0.49,0.43-1.07,0.73-1.66,0.73c-0.79,0-1.42-0.4-1.42-1.25
			c0-1.05,0.8-1.61,3.06-1.82v-0.41c0-0.66-0.39-0.98-1.04-0.98c-0.54,0-1.09,0.15-1.61,0.42l-0.06-0.44
			c0.53-0.24,1.07-0.41,1.69-0.41c0.96,0,1.48,0.49,1.48,1.39v3.4H150.04z M149.91,532.06c-1.94,0.21-2.58,0.62-2.58,1.39
			c0,0.6,0.43,0.88,0.96,0.88c0.5,0,1.11-0.3,1.62-0.75V532.06z M147.47,528.81v-0.43h2.55v0.43H147.47z"/>
		<path class="st0" d="M152.44,531.55v3.09h-0.47v-4.7h0.31l0.15,0.98c0.36-0.53,0.91-1.07,1.69-1.08l0.08,0.44
			C153.43,530.33,152.76,530.92,152.44,531.55z"/>
		<path class="st0" d="M156.87,534.74c-1.24,0-2.07-0.92-2.07-2.45c0-1.5,0.86-2.45,2-2.45c1.2,0,1.8,1.05,1.8,2.35v0.1h-3.32
			c0,1.2,0.56,2.04,1.61,2.04c0.57,0,1.17-0.3,1.63-0.72l0.07,0.44C158.16,534.44,157.54,534.74,156.87,534.74z M155.3,531.9h2.81
			c-0.03-0.92-0.49-1.67-1.31-1.67C155.91,530.23,155.4,530.92,155.3,531.9z"/>
		<path class="st0" d="M160.25,528.68c-0.22,0-0.41-0.2-0.41-0.41c0-0.22,0.19-0.4,0.41-0.4s0.4,0.18,0.4,0.4
			C160.65,528.47,160.47,528.68,160.25,528.68z M160.02,534.64v-4.7h0.46v4.7H160.02z"/>
	</g>
	<line class="st7" x1="119.48" y1="782.46" x2="119.48" y2="768.52"/>
	<line class="st8" x1="26.51" y1="782.59" x2="26.51" y2="719.06"/>
	<line class="st9" x1="107.85" y1="783.27" x2="107.85" y2="475.48"/>
	<polyline class="st10" points="53.65,709.43 56.19,705.06 51.03,705.06 48.26,709.82 53.1,709.82 	"/>
	<polyline class="st11" points="58.13,703.25 56.32,703.25 59.67,709.82 	"/>
	<line class="st10" x1="53.25" y1="709.61" x2="50.17" y2="702.92"/>
	<line class="st12" x1="49.18" y1="703.25" x2="51.77" y2="703.25"/>
	<g>
		<path class="st10" d="M47.73,713.3c1.69,0,3.06-1.37,3.06-3.06c0-1.69-1.37-3.06-3.06-3.06c-1.69,0-3.06,1.37-3.06,3.06
			C44.67,711.93,46.04,713.3,47.73,713.3z"/>
		<path class="st10" d="M60.17,713.3c1.69,0,3.06-1.37,3.06-3.06c0-1.69-1.37-3.06-3.06-3.06c-1.69,0-3.06,1.37-3.06,3.06
			C57.1,711.93,58.47,713.3,60.17,713.3z"/>
		<path class="st10" d="M53.79,710.09c0.08,0,0.15,0.07,0.15,0.15c0,0.08-0.07,0.15-0.15,0.15c-0.08,0-0.15-0.07-0.15-0.15
			C53.64,710.15,53.71,710.09,53.79,710.09z"/>
		<path class="st13" d="M131.3,708.99c-1.05,0-1.9,0.85-1.9,1.9v5.17c0,1.05,0.85,1.9,1.9,1.9h3.9c1.05,0,1.9-0.85,1.9-1.9v-5.17
			c0-1.05-0.85-1.9-1.9-1.9H131.3z"/>
		<path class="st13" d="M137.17,712.13h0.58c0,0,0.51,0,0.51-0.37v-1.09c0,0,0-0.37-0.51-0.37h-9.02c0,0-0.52,0-0.52,0.37v1.09
			c0,0,0,0.37,0.52,0.37h0.52"/>
	</g>
	<line class="st13" x1="133.25" y1="710.07" x2="133.25" y2="714.8"/>
	<line class="st13" x1="129.18" y1="714.73" x2="137.34" y2="714.73"/>
	<g>
		<path class="st13" d="M130.74,716.8c0.12,0,0.22-0.1,0.22-0.22c0-0.13-0.1-0.23-0.22-0.23c-0.12,0-0.23,0.1-0.23,0.23
			C130.51,716.7,130.61,716.8,130.74,716.8z"/>
		<path class="st13" d="M135.75,716.8c0.12,0,0.22-0.1,0.22-0.22c0-0.13-0.1-0.23-0.22-0.23c-0.12,0-0.23,0.1-0.23,0.23
			C135.53,716.7,135.63,716.8,135.75,716.8z"/>
		<path class="st14" d="M130.07,718.53v0.45c0,0,0,0.06,0.08,0.06h0.56c0,0,0.08,0,0.08-0.06v-0.57"/>
		<path class="st14" d="M135.69,718.44v0.54c0,0,0,0.06,0.08,0.06h0.56c0,0,0.08,0,0.08-0.06v-0.44"/>
		<defs>
			<filter id="Adobe_OpacityMaskFilter" filterUnits="userSpaceOnUse" x="92.36" y="451.4" width="21.06" height="44.49">
				<feColorMatrix  type="matrix" values="1 0 0 0 0  0 1 0 0 0  0 0 1 0 0  0 0 0 1 0"/>
			</filter>
		</defs>
		<mask maskUnits="userSpaceOnUse" x="92.36" y="451.4" width="21.06" height="44.49" id="SVGID_1_">
			<g class="st15">
				
					<linearGradient id="SVGID_2_" gradientUnits="userSpaceOnUse" x1="0" y1="835.223" x2="1" y2="835.223" gradientTransform="matrix(0 27.7603 -27.7603 0 23483.6699 459.7602)">
					<stop  offset="0" style="stop-color:#FFFFFF"/>
					<stop  offset="0.7366" style="stop-color:#FFFFFF"/>
					<stop  offset="1" style="stop-color:#000000"/>
				</linearGradient>
				<rect y="0" class="st16" width="595.28" height="841.89"/>
			</g>
		</mask>
		<g class="st17">
			<g>
				<defs>
					<polyline id="SVGID_3_" points="92.36,495.89 113.43,495.89 113.43,451.4 92.36,451.4 					"/>
				</defs>
				<clipPath id="SVGID_4_">
					<use xlink:href="#SVGID_3_"  style="overflow:visible;"/>
				</clipPath>
				<polyline class="st18" points="112.43,460.4 112.43,486.89 99.36,486.89 				"/>
			</g>
		</g>
	</g>
	<g>
		<path class="st19" d="M41.42,700.63c0,0.66-0.53,1.19-1.19,1.19c-0.66,0-1.19-0.53-1.19-1.19s0.53-1.19,1.19-1.19
			C40.88,699.44,41.42,699.97,41.42,700.63z M38.45,709.35c-0.02-0.04-0.04-0.07-0.06-0.1l-0.83-1.13L34,712.74
			c-0.26,0.34-0.2,0.84,0.14,1.1c0.34,0.26,0.84,0.2,1.1-0.14l3.27-4.24L38.45,709.35z M43.18,706.27l-1-0.31
			c-0.13-0.04-0.23-0.14-0.27-0.26l-0.68-2.09c-0.09-0.27-0.31-0.47-0.58-0.53l-1.66-0.37c-0.82-0.18-1.67,0.05-2.29,0.61
			l-2.53,2.32c-0.26,0.23-0.28,0.62-0.05,0.88l0.01,0.01c0.23,0.26,0.62,0.28,0.88,0.05l2.46-2.21c0.15-0.13,0.38,0.01,0.32,0.21
			l-0.64,2.06c-0.13,0.42-0.05,0.88,0.21,1.24l1.02,1.4c0.02,0.03,0.04,0.07,0.06,0.1l2.38,4.29c0.22,0.38,0.7,0.5,1.07,0.29
			c0.38-0.22,0.5-0.7,0.29-1.07l-2.51-4.42c-0.09-0.16-0.11-0.34-0.06-0.51l0.8-2.62c0.01-0.03,0.06-0.04,0.07,0l0.42,1.3
			c0.06,0.2,0.22,0.35,0.42,0.41l1.49,0.46c0.33,0.1,0.68-0.08,0.78-0.41l0,0C43.7,706.72,43.51,706.37,43.18,706.27z M41.42,700.63
			c0,0.66-0.53,1.19-1.19,1.19c-0.66,0-1.19-0.53-1.19-1.19s0.53-1.19,1.19-1.19C40.88,699.44,41.42,699.97,41.42,700.63z"/>
	</g>
</g>
</svg>
